<svg xmlns="http://www.w3.org/2000/svg" viewBox="0 0 1061.47 193.68"><defs><style>.cls-1{fill:#00b1eb;}.cls-2{font-size:18px;font-family:WorkSans-Medium, Work Sans;}.cls-2,.cls-4{fill:#fff;}.cls-3,.cls-5{fill:none;stroke:#fff;stroke-miterlimit:10;}.cls-3{stroke-width:3px;}.cls-5{stroke-width:2px;}</style></defs><title>algoritmo</title><g id="Layer_2" data-name="Layer 2"><g id="Capa_1" data-name="Capa 1"><rect class="cls-1" x="589.57" width="471.9" height="80.56" rx="12" ry="12"/><rect class="cls-1" x="589.57" y="113.12" width="471.9" height="80.56" rx="12" ry="12"/><text class="cls-2" transform="translate(611.61 35.4)">01101001 01100100 01100101 01101110 01110100 <tspan x="0" y="22">01101001 01100100 01100001 01100100 00110001</tspan></text><text class="cls-2" transform="translate(611.61 149.08)">01101001 01100100 01100101 01101110 01110100 <tspan x="0" y="22">01101001 01100100 01100001 01100100 00110010</tspan></text><path class="cls-1" d="M539.68,51.06a16.25,16.25,0,0,0-5.77-11.94,18.77,18.77,0,0,0-6.35-3.57A9,9,0,0,0,529.46,22a8.89,8.89,0,0,0-12.87-.39,8.4,8.4,0,0,0-2.66,6.14,9.14,9.14,0,0,0,4.11,7.8,21.32,21.32,0,0,0-6.66,4A16.7,16.7,0,0,0,506,50.74c0,.75-.44,1.89.82,1.95s1-1.07,1.07-1.85a14.5,14.5,0,0,1,6.27-11.24,14.81,14.81,0,0,1,22.31,6.32c.73,1.78.84,3.81,1.32,5.7a1.94,1.94,0,0,0,.82,1.07c.15.1.74-.22.91-.49A2.12,2.12,0,0,0,539.68,51.06Zm-17-16.17a7,7,0,1,1,7.17-6.74A6.93,6.93,0,0,1,522.65,34.89Z"/><circle class="cls-3" cx="84.16" cy="95.1" r="82.66"/><path class="cls-1" d="M40,83.27c-4.09-5.49-4-11.31.09-15.15a10.51,10.51,0,0,1,14-.49c4.68,4.05,4.95,9.36.67,15.68A19.93,19.93,0,0,1,66.14,98.16l8.51-3.77c-5.79-4.23-9.13-9.76-9-17.12a18.4,18.4,0,0,1,5.84-13.48,19.5,19.5,0,0,1,28.25.84c6.88,7.6,7.67,21.59-4.16,29.84l8.58,3.73c1.64-7.25,3.42-9.61,11.2-15-4.08-6.63-3.74-11.81,1-15.73a10.57,10.57,0,0,1,13.46.24c4.43,3.88,4.63,9.32.76,15.09,2.46,2.22,5,4.26,7.25,6.63,2.62,2.79,3.57,6.4,3.87,10.16.11,1.45.14,3.05-1.87,3.15s-2.27-1.4-2.35-2.88a14.66,14.66,0,0,0-20.35-12.56c-5.32,2.28-8.25,6.66-8.8,12.45a3.55,3.55,0,0,0,1.15,2.53,36.35,36.35,0,0,1,12.66,26.21,4.58,4.58,0,0,1-.29,2.5c-.36.59-1.65,1.28-2,1.07a4.36,4.36,0,0,1-1.81-2.34c-1-4.16-1.29-8.62-2.9-12.52-7.93-19.29-31.9-26-49-13.87-8.42,6-13,14.31-13.77,24.68-.12,1.7.32,4.2-2.34,4.06s-1.9-2.65-1.81-4.29A35.19,35.19,0,0,1,60,103.16,5,5,0,0,0,61.82,98,14.83,14.83,0,0,0,47.33,86.16,14.5,14.5,0,0,0,33,98.14a22.91,22.91,0,0,0-.33,2.33c-.12,1.45-.7,2.51-2.31,2.34s-1.94-1.35-1.84-2.77A18.92,18.92,0,0,1,38.87,83.93C39.2,83.75,39.52,83.55,40,83.27Zm29.82-6.06A15.17,15.17,0,0,0,84.76,93c8.79.26,15.28-6.24,15.73-14.79.44-8.29-6.12-15.31-14.71-15.81A15.25,15.25,0,0,0,69.82,77.21ZM41.1,75.7a6.25,6.25,0,1,0,12.5-.15,6.25,6.25,0,1,0-12.5.15Zm88,0a6.21,6.21,0,0,0-6.22-6.36,6.48,6.48,0,0,0-6.26,6.4,6.28,6.28,0,0,0,6.18,6.18A6.07,6.07,0,0,0,129.12,75.66Z"/><circle class="cls-3" cx="522.31" cy="37.31" r="33.55"/><path class="cls-1" d="M539.68,167.16a16.26,16.26,0,0,0-5.77-11.95,18.77,18.77,0,0,0-6.35-3.57,9,9,0,0,0,1.9-13.59,8.89,8.89,0,0,0-12.87-.39,8.4,8.4,0,0,0-2.66,6.14,9.12,9.12,0,0,0,4.11,7.8,21.32,21.32,0,0,0-6.66,4A16.7,16.7,0,0,0,506,166.83c0,.75-.44,1.89.82,1.95s1-1.07,1.07-1.84a14.5,14.5,0,0,1,6.27-11.25A14.81,14.81,0,0,1,536.5,162c.73,1.78.84,3.81,1.32,5.7a1.94,1.94,0,0,0,.82,1.07c.15.1.74-.22.91-.49A2.1,2.1,0,0,0,539.68,167.16Zm-17-16.18a7,7,0,1,1,7.17-6.74A6.93,6.93,0,0,1,522.65,151Z"/><circle class="cls-3" cx="522.31" cy="153.4" r="33.55"/><path class="cls-4" d="M272.92,97h-3.77l-.86,2.35H266.8l3.38-9h1.74l3.38,9h-1.53Zm-.43-1.18-1-2.88-.41-1.29h0l-.38,1.26-1.06,2.91Z"/><path class="cls-4" d="M284,98.06v1.25h-6.39v-9H279v7.71Z"/><path class="cls-4" d="M293.58,94.68v4.63h-1.07l-.05-1.14a2.54,2.54,0,0,1-1.08.94,3.84,3.84,0,0,1-1.66.34,4.25,4.25,0,0,1-2.19-.56,3.76,3.76,0,0,1-1.45-1.6,5.51,5.51,0,0,1-.51-2.46,5.24,5.24,0,0,1,.53-2.45,3.81,3.81,0,0,1,1.49-1.61,4.41,4.41,0,0,1,2.24-.56,4.47,4.47,0,0,1,2.28.52,3.43,3.43,0,0,1,1.41,1.6l-1.33.64a2.09,2.09,0,0,0-.87-1.12,2.71,2.71,0,0,0-1.46-.38,2.53,2.53,0,0,0-2,.89,3.73,3.73,0,0,0-.74,2.47,3.81,3.81,0,0,0,.71,2.49,2.55,2.55,0,0,0,2.08.88,2.71,2.71,0,0,0,1.74-.53,1.85,1.85,0,0,0,.67-1.54v-.26h-2.75V94.68Z"/><path class="cls-4" d="M302.55,90.77a3.63,3.63,0,0,1,1.47,1.6,6.08,6.08,0,0,1,0,4.92,3.68,3.68,0,0,1-1.47,1.6,4.42,4.42,0,0,1-2.25.56,4.35,4.35,0,0,1-2.24-.56,3.8,3.8,0,0,1-1.47-1.6,6.19,6.19,0,0,1,0-4.92,3.74,3.74,0,0,1,1.47-1.6,4.35,4.35,0,0,1,2.24-.56A4.42,4.42,0,0,1,302.55,90.77Zm-4.23,1.59a4.6,4.6,0,0,0,0,4.94,2.41,2.41,0,0,0,2,.88,2.44,2.44,0,0,0,2-.88,4.6,4.6,0,0,0,0-4.94,2.44,2.44,0,0,0-2-.89A2.42,2.42,0,0,0,298.32,92.36Z"/><path class="cls-4" d="M310.74,95.72h-1.93v3.59h-1.43v-9H311a3.39,3.39,0,0,1,2.29.71,2.45,2.45,0,0,1,.85,2,2.55,2.55,0,0,1-.5,1.6,2.67,2.67,0,0,1-1.41.92l2.44,3.75H313Zm-1.93-1.2h2.1a2,2,0,0,0,1.31-.36,1.62,1.62,0,0,0,0-2.22,2,2,0,0,0-1.31-.36h-2.1Z"/><path class="cls-4" d="M318.63,99.31h-1.45v-9h1.45Z"/><path class="cls-4" d="M328.64,91.6h-3.07v7.71h-1.45V91.6h-3.07V90.35h7.59Z"/><path class="cls-4" d="M340.22,99.31h-1.33V94.12l.1-2.47h0l-2.73,7.66H335l-2.73-7.66h0l.11,2.47v5.19h-1.34v-9h2.16l1.8,5.18.63,2.14h0l.63-2.14,1.8-5.18h2.11Z"/><path class="cls-4" d="M349.53,90.77a3.7,3.7,0,0,1,1.48,1.6,6.19,6.19,0,0,1,0,4.92,3.76,3.76,0,0,1-1.48,1.6,4.76,4.76,0,0,1-4.48,0,3.68,3.68,0,0,1-1.47-1.6,6.08,6.08,0,0,1,0-4.92,3.63,3.63,0,0,1,1.47-1.6,4.76,4.76,0,0,1,4.48,0Zm-4.23,1.59a4.6,4.6,0,0,0,0,4.94,2.69,2.69,0,0,0,4,0,4.6,4.6,0,0,0,0-4.94,2.67,2.67,0,0,0-4,0Z"/><line class="cls-3" x1="166.82" y1="95.83" x2="199.47" y2="95.83"/><path class="cls-3" d="M199,95.78C205.11,87,210.62,78,221.38,78c11,0,17.34,8.21,23.22,16.92,7.74,11.45,25.85,47.77,64.72,47.77h.51c37.23,0,52.57-31.62,65-47.35C381.4,87.09,386.36,78,396.94,78c9.83,0,15.91,6.57,21.26,14.21,18.18,26,28.66,61.18,69.8,61.18"/><path class="cls-3" d="M199,95.78l.48.66c6,8.29,12,16.26,22.75,16.26S238,103.37,244.6,94.93C255,81.67,269.13,48,309.32,48h.51c39.42,0,54.67,34.86,64.42,47.34,6.58,8.43,12.34,17.35,23.53,17.35,9.9,0,15.62-7.41,20.93-15.67C435.39,71.11,449.42,37.31,488,37.31"/><line class="cls-5" x1="212.78" y1="88.76" x2="212.78" y2="102.21"/><line class="cls-5" x1="231.15" y1="88.76" x2="231.15" y2="102.21"/><line class="cls-5" x1="221.96" y1="83.87" x2="221.96" y2="106.6"/><line class="cls-5" x1="388.34" y1="88.76" x2="388.34" y2="102.21"/><line class="cls-5" x1="406.72" y1="88.76" x2="406.72" y2="102.21"/><line class="cls-5" x1="397.53" y1="83.87" x2="397.53" y2="106.6"/></g></g></svg>