<svg xmlns="http://www.w3.org/2000/svg" viewBox="0 0 982.98 185.18"><defs><style>.cls-1{fill:#5d6884;}.cls-2{fill:#00b1eb;}.cls-3,.cls-5{fill:none;stroke-miterlimit:10;stroke-width:2px;}.cls-3{stroke:#5d6884;}.cls-4{fill:#3f485d;}.cls-5{stroke:#fac716;}</style></defs><title>algoritmo</title><g id="Layer_2" data-name="Layer 2"><g id="Layer_1-2" data-name="Layer 1"><path class="cls-1" d="M575.41,26.34a7.73,7.73,0,0,1-1.13-4.55,7.73,7.73,0,0,1,1.13-4.55,4.24,4.24,0,0,1,6.59,0,7.66,7.66,0,0,1,1.14,4.55A7.66,7.66,0,0,1,582,26.34a4.24,4.24,0,0,1-6.59,0Zm5.48-1a7,7,0,0,0,.75-3.59,7,7,0,0,0-.75-3.59,2.55,2.55,0,0,0-4.36,0,7,7,0,0,0-.76,3.59,7,7,0,0,0,.76,3.59,2.55,2.55,0,0,0,4.36,0Z"/><path class="cls-1" d="M589.83,15.85V27.73h-1.44V19c0-.25,0-.72,0-1.39a6.58,6.58,0,0,1-1.42,1,7.2,7.2,0,0,1-1.66.64L585,18a4,4,0,0,0,1.17-.4,10.12,10.12,0,0,0,1.42-.83,4.22,4.22,0,0,0,1-.91Z"/><path class="cls-1" d="M597.19,15.85V27.73h-1.44V19c0-.25,0-.72,0-1.39a6.58,6.58,0,0,1-1.42,1,7.2,7.2,0,0,1-1.66.64L592.33,18a4,4,0,0,0,1.17-.4,10.22,10.22,0,0,0,1.43-.83,4.35,4.35,0,0,0,1-.91Z"/><path class="cls-1" d="M601.33,26.34a7.73,7.73,0,0,1-1.13-4.55,7.73,7.73,0,0,1,1.13-4.55,4.24,4.24,0,0,1,6.59,0,7.66,7.66,0,0,1,1.14,4.55,7.66,7.66,0,0,1-1.14,4.55,4.24,4.24,0,0,1-6.59,0Zm5.48-1a7,7,0,0,0,.75-3.59,7,7,0,0,0-.75-3.59,2.55,2.55,0,0,0-4.36,0,7,7,0,0,0-.76,3.59,7,7,0,0,0,.76,3.59,2.55,2.55,0,0,0,4.36,0Z"/><path class="cls-1" d="M615.75,15.85V27.73h-1.44V19c0-.25,0-.72,0-1.39a6.58,6.58,0,0,1-1.42,1,7.2,7.2,0,0,1-1.66.64L610.89,18a4,4,0,0,0,1.17-.4,10.12,10.12,0,0,0,1.42-.83,4.43,4.43,0,0,0,1-.91Z"/><path class="cls-1" d="M619.89,26.34a7.73,7.73,0,0,1-1.13-4.55,7.73,7.73,0,0,1,1.13-4.55,4.24,4.24,0,0,1,6.59,0,7.66,7.66,0,0,1,1.13,4.55,7.66,7.66,0,0,1-1.13,4.55,4.24,4.24,0,0,1-6.59,0Zm5.47-1a6.87,6.87,0,0,0,.76-3.59,6.87,6.87,0,0,0-.76-3.59,2.54,2.54,0,0,0-4.35,0,6.87,6.87,0,0,0-.76,3.59,6.87,6.87,0,0,0,.76,3.59,2.54,2.54,0,0,0,4.35,0Z"/><path class="cls-1" d="M631.09,26.34A7.66,7.66,0,0,1,630,21.79a7.66,7.66,0,0,1,1.14-4.55,4.24,4.24,0,0,1,6.59,0,7.73,7.73,0,0,1,1.13,4.55,7.73,7.73,0,0,1-1.13,4.55,4.24,4.24,0,0,1-6.59,0Zm5.47-1a7,7,0,0,0,.76-3.59,7,7,0,0,0-.76-3.59,2.55,2.55,0,0,0-4.36,0,7,7,0,0,0-.75,3.59,7,7,0,0,0,.75,3.59,2.55,2.55,0,0,0,4.36,0Z"/><path class="cls-1" d="M645.51,15.85V27.73h-1.45V19c0-.25,0-.72,0-1.39a6.58,6.58,0,0,1-1.42,1,7,7,0,0,1-1.66.64L640.64,18a4,4,0,0,0,1.17-.4,10.22,10.22,0,0,0,1.43-.83,4.35,4.35,0,0,0,1-.91Z"/><path class="cls-1" d="M655.78,26.34a7.73,7.73,0,0,1-1.13-4.55,7.73,7.73,0,0,1,1.13-4.55,4.24,4.24,0,0,1,6.59,0,7.66,7.66,0,0,1,1.14,4.55,7.66,7.66,0,0,1-1.14,4.55,4.24,4.24,0,0,1-6.59,0Zm5.48-1a7,7,0,0,0,.75-3.59,7,7,0,0,0-.75-3.59,2.55,2.55,0,0,0-4.36,0,6.87,6.87,0,0,0-.76,3.59,6.87,6.87,0,0,0,.76,3.59,2.55,2.55,0,0,0,4.36,0Z"/><path class="cls-1" d="M670.2,15.85V27.73h-1.44V19c0-.25,0-.72,0-1.39a6.58,6.58,0,0,1-1.42,1,7.2,7.2,0,0,1-1.66.64L665.34,18a4,4,0,0,0,1.17-.4,10.12,10.12,0,0,0,1.42-.83,4.22,4.22,0,0,0,1-.91Z"/><path class="cls-1" d="M677.56,15.85V27.73h-1.44V19c0-.25,0-.72,0-1.39a6.58,6.58,0,0,1-1.42,1,7.2,7.2,0,0,1-1.66.64L672.7,18a4,4,0,0,0,1.17-.4,10.12,10.12,0,0,0,1.42-.83,4.22,4.22,0,0,0,1-.91Z"/><path class="cls-1" d="M681.7,26.34a7.73,7.73,0,0,1-1.13-4.55,7.73,7.73,0,0,1,1.13-4.55,4.24,4.24,0,0,1,6.59,0,7.66,7.66,0,0,1,1.14,4.55,7.66,7.66,0,0,1-1.14,4.55,4.24,4.24,0,0,1-6.59,0Zm5.48-1a7,7,0,0,0,.75-3.59,7,7,0,0,0-.75-3.59,2.55,2.55,0,0,0-4.36,0,6.87,6.87,0,0,0-.76,3.59,6.87,6.87,0,0,0,.76,3.59,2.55,2.55,0,0,0,4.36,0Z"/><path class="cls-1" d="M692.9,26.34a7.66,7.66,0,0,1-1.14-4.55,7.66,7.66,0,0,1,1.14-4.55,4.24,4.24,0,0,1,6.59,0,7.73,7.73,0,0,1,1.13,4.55,7.73,7.73,0,0,1-1.13,4.55,4.24,4.24,0,0,1-6.59,0Zm5.47-1a7,7,0,0,0,.76-3.59,7,7,0,0,0-.76-3.59,2.55,2.55,0,0,0-4.36,0,7,7,0,0,0-.75,3.59,7,7,0,0,0,.75,3.59,2.55,2.55,0,0,0,4.36,0Z"/><path class="cls-1" d="M707.32,15.85V27.73h-1.44V19c0-.25,0-.72,0-1.39a6.58,6.58,0,0,1-1.42,1,7,7,0,0,1-1.66.64L702.46,18a4.22,4.22,0,0,0,1.17-.4,10.72,10.72,0,0,0,1.42-.83,4.65,4.65,0,0,0,1-.91Z"/><path class="cls-1" d="M711.46,26.34a7.66,7.66,0,0,1-1.14-4.55,7.66,7.66,0,0,1,1.14-4.55,4.23,4.23,0,0,1,6.58,0,7.66,7.66,0,0,1,1.14,4.55A7.66,7.66,0,0,1,718,26.34a4.23,4.23,0,0,1-6.58,0Zm5.47-1a7,7,0,0,0,.75-3.59,7,7,0,0,0-.75-3.59,2.55,2.55,0,0,0-4.36,0,7,7,0,0,0-.75,3.59,7,7,0,0,0,.75,3.59,2.55,2.55,0,0,0,4.36,0Z"/><path class="cls-1" d="M722.65,26.34a7.73,7.73,0,0,1-1.13-4.55,7.73,7.73,0,0,1,1.13-4.55,4.24,4.24,0,0,1,6.59,0,7.66,7.66,0,0,1,1.13,4.55,7.66,7.66,0,0,1-1.13,4.55,4.24,4.24,0,0,1-6.59,0Zm5.47-1a6.87,6.87,0,0,0,.76-3.59,6.87,6.87,0,0,0-.76-3.59,2.54,2.54,0,0,0-4.35,0,6.87,6.87,0,0,0-.76,3.59,6.87,6.87,0,0,0,.76,3.59,2.54,2.54,0,0,0,4.35,0Z"/><path class="cls-1" d="M740,26.34a7.66,7.66,0,0,1-1.14-4.55A7.66,7.66,0,0,1,740,17.24a4.23,4.23,0,0,1,6.58,0,7.66,7.66,0,0,1,1.14,4.55,7.66,7.66,0,0,1-1.14,4.55,4.23,4.23,0,0,1-6.58,0Zm5.47-1a7,7,0,0,0,.75-3.59,7,7,0,0,0-.75-3.59,2.55,2.55,0,0,0-4.36,0,7,7,0,0,0-.75,3.59,7,7,0,0,0,.75,3.59,2.55,2.55,0,0,0,4.36,0Z"/><path class="cls-1" d="M754.4,15.85V27.73H753V19c0-.25,0-.72,0-1.39a6.58,6.58,0,0,1-1.42,1,7.2,7.2,0,0,1-1.66.64L749.54,18a4,4,0,0,0,1.17-.4,10.22,10.22,0,0,0,1.43-.83,4.35,4.35,0,0,0,1-.91Z"/><path class="cls-1" d="M761.77,15.85V27.73h-1.44V19c0-.25,0-.72,0-1.39a6.58,6.58,0,0,1-1.42,1,7,7,0,0,1-1.66.64L756.91,18a4.22,4.22,0,0,0,1.17-.4,10.72,10.72,0,0,0,1.42-.83,4.65,4.65,0,0,0,1-.91Z"/><path class="cls-1" d="M765.91,26.34a7.66,7.66,0,0,1-1.14-4.55,7.66,7.66,0,0,1,1.14-4.55,4.23,4.23,0,0,1,6.58,0,7.66,7.66,0,0,1,1.14,4.55,7.66,7.66,0,0,1-1.14,4.55,4.23,4.23,0,0,1-6.58,0Zm5.47-1a7,7,0,0,0,.75-3.59,7,7,0,0,0-.75-3.59,2.55,2.55,0,0,0-4.36,0,7,7,0,0,0-.75,3.59,7,7,0,0,0,.75,3.59,2.55,2.55,0,0,0,4.36,0Z"/><path class="cls-1" d="M777.1,26.34A7.73,7.73,0,0,1,776,21.79a7.73,7.73,0,0,1,1.13-4.55,4.24,4.24,0,0,1,6.59,0,7.66,7.66,0,0,1,1.13,4.55,7.66,7.66,0,0,1-1.13,4.55,4.24,4.24,0,0,1-6.59,0Zm5.47-1a6.87,6.87,0,0,0,.76-3.59,6.87,6.87,0,0,0-.76-3.59,2.54,2.54,0,0,0-4.35,0,6.87,6.87,0,0,0-.76,3.59,6.87,6.87,0,0,0,.76,3.59,2.54,2.54,0,0,0,4.35,0Z"/><path class="cls-1" d="M791.52,15.85V27.73h-1.44V19c0-.25,0-.72,0-1.39a6.65,6.65,0,0,1-1.43,1,7.12,7.12,0,0,1-1.65.64L786.66,18a4,4,0,0,0,1.17-.4,10.12,10.12,0,0,0,1.42-.83,4.43,4.43,0,0,0,1-.91Z"/><path class="cls-1" d="M795.66,26.34a7.66,7.66,0,0,1-1.13-4.55,7.66,7.66,0,0,1,1.13-4.55,4.24,4.24,0,0,1,6.59,0,7.73,7.73,0,0,1,1.13,4.55,7.73,7.73,0,0,1-1.13,4.55,4.24,4.24,0,0,1-6.59,0Zm5.47-1a6.87,6.87,0,0,0,.76-3.59,6.87,6.87,0,0,0-.76-3.59,2.54,2.54,0,0,0-4.35,0,6.87,6.87,0,0,0-.76,3.59,6.87,6.87,0,0,0,.76,3.59,2.54,2.54,0,0,0,4.35,0Z"/><path class="cls-1" d="M810.08,15.85V27.73h-1.44V19c0-.25,0-.72,0-1.39a6.35,6.35,0,0,1-1.42,1,7.12,7.12,0,0,1-1.65.64L805.22,18a4.12,4.12,0,0,0,1.17-.4,10.72,10.72,0,0,0,1.42-.83,4.43,4.43,0,0,0,1-.91Z"/><path class="cls-1" d="M820.35,26.34a7.73,7.73,0,0,1-1.13-4.55,7.73,7.73,0,0,1,1.13-4.55,4.24,4.24,0,0,1,6.59,0,7.66,7.66,0,0,1,1.14,4.55,7.66,7.66,0,0,1-1.14,4.55,4.24,4.24,0,0,1-6.59,0Zm5.48-1a7,7,0,0,0,.75-3.59,7,7,0,0,0-.75-3.59,2.55,2.55,0,0,0-4.36,0,7,7,0,0,0-.75,3.59,7,7,0,0,0,.75,3.59,2.55,2.55,0,0,0,4.36,0Z"/><path class="cls-1" d="M834.77,15.85V27.73h-1.44V19c0-.25,0-.72,0-1.39a6.58,6.58,0,0,1-1.42,1,7.2,7.2,0,0,1-1.66.64L829.91,18a4,4,0,0,0,1.17-.4,10.12,10.12,0,0,0,1.42-.83,4.22,4.22,0,0,0,1-.91Z"/><path class="cls-1" d="M842.14,15.85V27.73h-1.45V19c0-.25,0-.72,0-1.39a6.58,6.58,0,0,1-1.42,1,7,7,0,0,1-1.66.64L837.27,18a4,4,0,0,0,1.17-.4,10.22,10.22,0,0,0,1.43-.83,4.35,4.35,0,0,0,1-.91Z"/><path class="cls-1" d="M846.27,26.34a7.73,7.73,0,0,1-1.13-4.55,7.73,7.73,0,0,1,1.13-4.55,4.24,4.24,0,0,1,6.59,0A7.66,7.66,0,0,1,854,21.79a7.66,7.66,0,0,1-1.14,4.55,4.24,4.24,0,0,1-6.59,0Zm5.48-1a7,7,0,0,0,.75-3.59,7,7,0,0,0-.75-3.59,2.55,2.55,0,0,0-4.36,0,7,7,0,0,0-.75,3.59,7,7,0,0,0,.75,3.59,2.55,2.55,0,0,0,4.36,0Z"/><path class="cls-1" d="M860.69,15.85V27.73h-1.44V19c0-.25,0-.72,0-1.39a6.58,6.58,0,0,1-1.42,1,7.2,7.2,0,0,1-1.66.64L855.83,18a4,4,0,0,0,1.17-.4,10.12,10.12,0,0,0,1.42-.83,4.22,4.22,0,0,0,1-.91Z"/><path class="cls-1" d="M868.06,15.85V27.73h-1.45V19c0-.25,0-.72,0-1.39a6.58,6.58,0,0,1-1.42,1,7,7,0,0,1-1.66.64L863.19,18a4,4,0,0,0,1.17-.4,10.22,10.22,0,0,0,1.43-.83,4.35,4.35,0,0,0,1-.91Z"/><path class="cls-1" d="M875.42,15.85V27.73H874V19c0-.25,0-.72,0-1.39a6.58,6.58,0,0,1-1.42,1,7,7,0,0,1-1.66.64L870.56,18a4.12,4.12,0,0,0,1.17-.4,10.72,10.72,0,0,0,1.42-.83,4.65,4.65,0,0,0,1-.91Z"/><path class="cls-1" d="M879.56,26.34a7.66,7.66,0,0,1-1.14-4.55,7.66,7.66,0,0,1,1.14-4.55,4.23,4.23,0,0,1,6.58,0,7.66,7.66,0,0,1,1.14,4.55,7.66,7.66,0,0,1-1.14,4.55,4.23,4.23,0,0,1-6.58,0Zm5.47-1a7,7,0,0,0,.75-3.59A7,7,0,0,0,885,18.2a2.55,2.55,0,0,0-4.36,0,7,7,0,0,0-.75,3.59,7,7,0,0,0,.75,3.59,2.55,2.55,0,0,0,4.36,0Z"/><path class="cls-1" d="M896.89,26.34a7.66,7.66,0,0,1-1.13-4.55,7.66,7.66,0,0,1,1.13-4.55,4.24,4.24,0,0,1,6.59,0,7.73,7.73,0,0,1,1.13,4.55,7.73,7.73,0,0,1-1.13,4.55,4.24,4.24,0,0,1-6.59,0Zm5.47-1a6.87,6.87,0,0,0,.76-3.59,6.87,6.87,0,0,0-.76-3.59,2.54,2.54,0,0,0-4.35,0,6.87,6.87,0,0,0-.76,3.59,6.87,6.87,0,0,0,.76,3.59,2.54,2.54,0,0,0,4.35,0Z"/><path class="cls-1" d="M911.31,15.85V27.73h-1.44V19c0-.25,0-.72,0-1.39a6.35,6.35,0,0,1-1.42,1,7.12,7.12,0,0,1-1.65.64L906.45,18a4,4,0,0,0,1.17-.4,10.72,10.72,0,0,0,1.42-.83,4.43,4.43,0,0,0,1-.91Z"/><path class="cls-1" d="M918.67,15.85V27.73h-1.44V19c0-.25,0-.72,0-1.39a6.65,6.65,0,0,1-1.43,1,7.12,7.12,0,0,1-1.65.64L913.81,18a4,4,0,0,0,1.17-.4,10.12,10.12,0,0,0,1.42-.83,4.43,4.43,0,0,0,1-.91Z"/><path class="cls-1" d="M926,15.85V27.73h-1.44V19c0-.25,0-.72,0-1.39a6.58,6.58,0,0,1-1.42,1,7.2,7.2,0,0,1-1.66.64L921.17,18a4,4,0,0,0,1.17-.4,10.12,10.12,0,0,0,1.42-.83,4.22,4.22,0,0,0,1-.91Z"/><path class="cls-1" d="M930.17,26.34A7.73,7.73,0,0,1,929,21.79a7.73,7.73,0,0,1,1.13-4.55,4.24,4.24,0,0,1,6.59,0,7.66,7.66,0,0,1,1.13,4.55,7.66,7.66,0,0,1-1.13,4.55,4.24,4.24,0,0,1-6.59,0Zm5.47-1a6.87,6.87,0,0,0,.76-3.59,6.87,6.87,0,0,0-.76-3.59,2.54,2.54,0,0,0-4.35,0,6.87,6.87,0,0,0-.76,3.59,6.87,6.87,0,0,0,.76,3.59,2.54,2.54,0,0,0,4.35,0Z"/><path class="cls-1" d="M944.59,15.85V27.73h-1.44V19c0-.25,0-.72,0-1.39a6.65,6.65,0,0,1-1.43,1,7.12,7.12,0,0,1-1.65.64L939.73,18a4,4,0,0,0,1.17-.4,10.12,10.12,0,0,0,1.42-.83,4.43,4.43,0,0,0,1-.91Z"/><path class="cls-1" d="M948.73,26.34a7.66,7.66,0,0,1-1.13-4.55,7.66,7.66,0,0,1,1.13-4.55,4.24,4.24,0,0,1,6.59,0,7.73,7.73,0,0,1,1.13,4.55,7.73,7.73,0,0,1-1.13,4.55,4.24,4.24,0,0,1-6.59,0Zm5.47-1a6.87,6.87,0,0,0,.76-3.59,6.87,6.87,0,0,0-.76-3.59,2.54,2.54,0,0,0-4.35,0,6.87,6.87,0,0,0-.76,3.59,6.87,6.87,0,0,0,.76,3.59,2.54,2.54,0,0,0,4.35,0Z"/><path class="cls-1" d="M959.93,26.34a7.66,7.66,0,0,1-1.14-4.55,7.66,7.66,0,0,1,1.14-4.55,4.23,4.23,0,0,1,6.58,0,7.66,7.66,0,0,1,1.14,4.55,7.66,7.66,0,0,1-1.14,4.55,4.23,4.23,0,0,1-6.58,0Zm5.47-1a7,7,0,0,0,.75-3.59,7,7,0,0,0-.75-3.59,2.55,2.55,0,0,0-4.36,0,7,7,0,0,0-.75,3.59,7,7,0,0,0,.75,3.59,2.55,2.55,0,0,0,4.36,0Z"/><path class="cls-1" d="M575.41,56.35a7.73,7.73,0,0,1-1.13-4.55,7.77,7.77,0,0,1,1.13-4.56,4.26,4.26,0,0,1,6.59,0,7.69,7.69,0,0,1,1.14,4.56A7.66,7.66,0,0,1,582,56.35a4.24,4.24,0,0,1-6.59,0Zm5.48-1a7,7,0,0,0,.75-3.59,7,7,0,0,0-.75-3.59,2.54,2.54,0,0,0-4.36,0,7,7,0,0,0-.76,3.59,7,7,0,0,0,.76,3.59,2.55,2.55,0,0,0,4.36,0Z"/><path class="cls-1" d="M589.83,45.86V57.74h-1.44V49c0-.25,0-.71,0-1.38a6.55,6.55,0,0,1-1.42,1,6.39,6.39,0,0,1-1.66.64L585,48a4.1,4.1,0,0,0,1.17-.41,10.06,10.06,0,0,0,1.42-.82,4.44,4.44,0,0,0,1-.91Z"/><path class="cls-1" d="M597.19,45.86V57.74h-1.44V49c0-.25,0-.71,0-1.38a6.55,6.55,0,0,1-1.42,1,6.39,6.39,0,0,1-1.66.64L592.33,48a4.1,4.1,0,0,0,1.17-.41,10.16,10.16,0,0,0,1.43-.82,4.58,4.58,0,0,0,1-.91Z"/><path class="cls-1" d="M601.33,56.35a7.73,7.73,0,0,1-1.13-4.55,7.77,7.77,0,0,1,1.13-4.56,4.26,4.26,0,0,1,6.59,0,7.69,7.69,0,0,1,1.14,4.56,7.66,7.66,0,0,1-1.14,4.55,4.24,4.24,0,0,1-6.59,0Zm5.48-1a7,7,0,0,0,.75-3.59,7,7,0,0,0-.75-3.59,2.54,2.54,0,0,0-4.36,0,7,7,0,0,0-.76,3.59,7,7,0,0,0,.76,3.59,2.55,2.55,0,0,0,4.36,0Z"/><path class="cls-1" d="M615.75,45.86V57.74h-1.44V49c0-.25,0-.71,0-1.38a6.55,6.55,0,0,1-1.42,1,6.39,6.39,0,0,1-1.66.64L610.89,48a4.1,4.1,0,0,0,1.17-.41,10.06,10.06,0,0,0,1.42-.82,4.67,4.67,0,0,0,1-.91Z"/><path class="cls-1" d="M619.89,56.35a7.73,7.73,0,0,1-1.13-4.55,7.77,7.77,0,0,1,1.13-4.56,4.26,4.26,0,0,1,6.59,0,7.69,7.69,0,0,1,1.13,4.56,7.66,7.66,0,0,1-1.13,4.55,4.24,4.24,0,0,1-6.59,0Zm5.47-1a6.87,6.87,0,0,0,.76-3.59,6.85,6.85,0,0,0-.76-3.59,2.53,2.53,0,0,0-4.35,0,6.85,6.85,0,0,0-.76,3.59,6.87,6.87,0,0,0,.76,3.59,2.54,2.54,0,0,0,4.35,0Z"/><path class="cls-1" d="M631.09,56.35A7.66,7.66,0,0,1,630,51.8a7.69,7.69,0,0,1,1.14-4.56,4.26,4.26,0,0,1,6.59,0,7.77,7.77,0,0,1,1.13,4.56,7.73,7.73,0,0,1-1.13,4.55,4.24,4.24,0,0,1-6.59,0Zm5.47-1a7,7,0,0,0,.76-3.59,7,7,0,0,0-.76-3.59,2.54,2.54,0,0,0-4.36,0,7,7,0,0,0-.75,3.59,7,7,0,0,0,.75,3.59,2.55,2.55,0,0,0,4.36,0Z"/><path class="cls-1" d="M645.51,45.86V57.74h-1.45V49c0-.25,0-.71,0-1.38a6.55,6.55,0,0,1-1.42,1,6.26,6.26,0,0,1-1.66.64L640.64,48a4.1,4.1,0,0,0,1.17-.41,10.16,10.16,0,0,0,1.43-.82,4.58,4.58,0,0,0,1-.91Z"/><path class="cls-1" d="M655.78,56.35a7.73,7.73,0,0,1-1.13-4.55,7.77,7.77,0,0,1,1.13-4.56,4.26,4.26,0,0,1,6.59,0,7.69,7.69,0,0,1,1.14,4.56,7.66,7.66,0,0,1-1.14,4.55,4.24,4.24,0,0,1-6.59,0Zm5.48-1A7,7,0,0,0,662,51.8a7,7,0,0,0-.75-3.59,2.54,2.54,0,0,0-4.36,0,6.85,6.85,0,0,0-.76,3.59,6.87,6.87,0,0,0,.76,3.59,2.55,2.55,0,0,0,4.36,0Z"/><path class="cls-1" d="M670.2,45.86V57.74h-1.44V49c0-.25,0-.71,0-1.38a6.55,6.55,0,0,1-1.42,1,6.39,6.39,0,0,1-1.66.64L665.34,48a4.1,4.1,0,0,0,1.17-.41,10.06,10.06,0,0,0,1.42-.82,4.44,4.44,0,0,0,1-.91Z"/><path class="cls-1" d="M677.56,45.86V57.74h-1.44V49c0-.25,0-.71,0-1.38a6.55,6.55,0,0,1-1.42,1,6.39,6.39,0,0,1-1.66.64L672.7,48a4.1,4.1,0,0,0,1.17-.41,10.06,10.06,0,0,0,1.42-.82,4.44,4.44,0,0,0,1-.91Z"/><path class="cls-1" d="M681.7,56.35a7.73,7.73,0,0,1-1.13-4.55,7.77,7.77,0,0,1,1.13-4.56,4.26,4.26,0,0,1,6.59,0,7.69,7.69,0,0,1,1.14,4.56,7.66,7.66,0,0,1-1.14,4.55,4.24,4.24,0,0,1-6.59,0Zm5.48-1a7,7,0,0,0,.75-3.59,7,7,0,0,0-.75-3.59,2.54,2.54,0,0,0-4.36,0,6.85,6.85,0,0,0-.76,3.59,6.87,6.87,0,0,0,.76,3.59,2.55,2.55,0,0,0,4.36,0Z"/><path class="cls-1" d="M692.9,56.35a7.66,7.66,0,0,1-1.14-4.55,7.69,7.69,0,0,1,1.14-4.56,4.26,4.26,0,0,1,6.59,0,7.77,7.77,0,0,1,1.13,4.56,7.73,7.73,0,0,1-1.13,4.55,4.24,4.24,0,0,1-6.59,0Zm5.47-1a7,7,0,0,0,.76-3.59,7,7,0,0,0-.76-3.59,2.54,2.54,0,0,0-4.36,0,7,7,0,0,0-.75,3.59,7,7,0,0,0,.75,3.59,2.55,2.55,0,0,0,4.36,0Z"/><path class="cls-1" d="M707.32,45.86V57.74h-1.44V49q0-.37,0-1.38a6.55,6.55,0,0,1-1.42,1,6.26,6.26,0,0,1-1.66.64L702.46,48a4.32,4.32,0,0,0,1.17-.41,10.65,10.65,0,0,0,1.42-.82,4.92,4.92,0,0,0,1-.91Z"/><path class="cls-1" d="M711.46,56.35a7.66,7.66,0,0,1-1.14-4.55,7.69,7.69,0,0,1,1.14-4.56,4.25,4.25,0,0,1,6.58,0,7.69,7.69,0,0,1,1.14,4.56A7.66,7.66,0,0,1,718,56.35a4.23,4.23,0,0,1-6.58,0Zm5.47-1a7,7,0,0,0,.75-3.59,7,7,0,0,0-.75-3.59,2.54,2.54,0,0,0-4.36,0,7,7,0,0,0-.75,3.59,7,7,0,0,0,.75,3.59,2.55,2.55,0,0,0,4.36,0Z"/><path class="cls-1" d="M722.65,56.35a7.73,7.73,0,0,1-1.13-4.55,7.77,7.77,0,0,1,1.13-4.56,4.26,4.26,0,0,1,6.59,0,7.69,7.69,0,0,1,1.13,4.56,7.66,7.66,0,0,1-1.13,4.55,4.24,4.24,0,0,1-6.59,0Zm5.47-1a6.87,6.87,0,0,0,.76-3.59,6.85,6.85,0,0,0-.76-3.59,2.53,2.53,0,0,0-4.35,0A6.85,6.85,0,0,0,723,51.8a6.87,6.87,0,0,0,.76,3.59,2.54,2.54,0,0,0,4.35,0Z"/><path class="cls-1" d="M740,56.35a7.66,7.66,0,0,1-1.14-4.55A7.69,7.69,0,0,1,740,47.24a4.25,4.25,0,0,1,6.58,0,7.69,7.69,0,0,1,1.14,4.56,7.66,7.66,0,0,1-1.14,4.55,4.23,4.23,0,0,1-6.58,0Zm5.47-1a7,7,0,0,0,.75-3.59,7,7,0,0,0-.75-3.59,2.54,2.54,0,0,0-4.36,0,7,7,0,0,0-.75,3.59,7,7,0,0,0,.75,3.59,2.55,2.55,0,0,0,4.36,0Z"/><path class="cls-1" d="M754.4,45.86V57.74H753V49c0-.25,0-.71,0-1.38a6.55,6.55,0,0,1-1.42,1,6.39,6.39,0,0,1-1.66.64L749.54,48a4.1,4.1,0,0,0,1.17-.41,10.16,10.16,0,0,0,1.43-.82,4.58,4.58,0,0,0,1-.91Z"/><path class="cls-1" d="M761.77,45.86V57.74h-1.44V49q0-.37,0-1.38a6.55,6.55,0,0,1-1.42,1,6.26,6.26,0,0,1-1.66.64L756.91,48a4.32,4.32,0,0,0,1.17-.41,10.65,10.65,0,0,0,1.42-.82,4.92,4.92,0,0,0,1-.91Z"/><path class="cls-1" d="M765.91,56.35a7.66,7.66,0,0,1-1.14-4.55,7.69,7.69,0,0,1,1.14-4.56,4.25,4.25,0,0,1,6.58,0,7.69,7.69,0,0,1,1.14,4.56,7.66,7.66,0,0,1-1.14,4.55,4.23,4.23,0,0,1-6.58,0Zm5.47-1a7,7,0,0,0,.75-3.59,7,7,0,0,0-.75-3.59,2.54,2.54,0,0,0-4.36,0,7,7,0,0,0-.75,3.59,7,7,0,0,0,.75,3.59,2.55,2.55,0,0,0,4.36,0Z"/><path class="cls-1" d="M777.1,56.35A7.73,7.73,0,0,1,776,51.8a7.77,7.77,0,0,1,1.13-4.56,4.26,4.26,0,0,1,6.59,0,7.69,7.69,0,0,1,1.13,4.56,7.66,7.66,0,0,1-1.13,4.55,4.24,4.24,0,0,1-6.59,0Zm5.47-1a6.87,6.87,0,0,0,.76-3.59,6.85,6.85,0,0,0-.76-3.59,2.53,2.53,0,0,0-4.35,0,6.85,6.85,0,0,0-.76,3.59,6.87,6.87,0,0,0,.76,3.59,2.54,2.54,0,0,0,4.35,0Z"/><path class="cls-1" d="M788.3,56.35a7.66,7.66,0,0,1-1.14-4.55,7.69,7.69,0,0,1,1.14-4.56,4.26,4.26,0,0,1,6.59,0A7.77,7.77,0,0,1,796,51.8a7.73,7.73,0,0,1-1.13,4.55,4.24,4.24,0,0,1-6.59,0Zm5.47-1a7,7,0,0,0,.76-3.59,7,7,0,0,0-.76-3.59,2.54,2.54,0,0,0-4.36,0,7,7,0,0,0-.75,3.59,7,7,0,0,0,.75,3.59,2.55,2.55,0,0,0,4.36,0Z"/><path class="cls-1" d="M799.49,56.35a7.73,7.73,0,0,1-1.13-4.55,7.77,7.77,0,0,1,1.13-4.56,4.26,4.26,0,0,1,6.59,0,7.69,7.69,0,0,1,1.14,4.56,7.66,7.66,0,0,1-1.14,4.55,4.24,4.24,0,0,1-6.59,0Zm5.48-1a7,7,0,0,0,.75-3.59,7,7,0,0,0-.75-3.59,2.54,2.54,0,0,0-4.36,0,7,7,0,0,0-.76,3.59,7,7,0,0,0,.76,3.59,2.55,2.55,0,0,0,4.36,0Z"/><path class="cls-1" d="M813.91,45.86V57.74h-1.44V49c0-.25,0-.71,0-1.38a6.55,6.55,0,0,1-1.42,1,6.39,6.39,0,0,1-1.66.64L809.05,48a4.1,4.1,0,0,0,1.17-.41,10.06,10.06,0,0,0,1.42-.82,4.67,4.67,0,0,0,1-.91Z"/><path class="cls-1" d="M824.19,56.35a7.66,7.66,0,0,1-1.13-4.55,7.69,7.69,0,0,1,1.13-4.56,4.26,4.26,0,0,1,6.59,0,7.77,7.77,0,0,1,1.13,4.56,7.73,7.73,0,0,1-1.13,4.55,4.24,4.24,0,0,1-6.59,0Zm5.47-1a6.87,6.87,0,0,0,.76-3.59,6.85,6.85,0,0,0-.76-3.59,2.53,2.53,0,0,0-4.35,0,6.85,6.85,0,0,0-.76,3.59,6.87,6.87,0,0,0,.76,3.59,2.54,2.54,0,0,0,4.35,0Z"/><path class="cls-1" d="M838.61,45.86V57.74h-1.44V49q0-.37,0-1.38a6.55,6.55,0,0,1-1.42,1,6.26,6.26,0,0,1-1.66.64L833.75,48a4.32,4.32,0,0,0,1.17-.41,10.65,10.65,0,0,0,1.42-.82,4.92,4.92,0,0,0,1-.91Z"/><path class="cls-1" d="M846,45.86V57.74h-1.44V49q0-.37,0-1.38a6.86,6.86,0,0,1-3.07,1.67L841.11,48a4.1,4.1,0,0,0,1.17-.41,10.65,10.65,0,0,0,1.42-.82,4.67,4.67,0,0,0,1-.91Z"/><path class="cls-1" d="M850.11,56.35A7.66,7.66,0,0,1,849,51.8a7.69,7.69,0,0,1,1.13-4.56,4.26,4.26,0,0,1,6.59,0,7.77,7.77,0,0,1,1.13,4.56,7.73,7.73,0,0,1-1.13,4.55,4.24,4.24,0,0,1-6.59,0Zm5.47-1a6.87,6.87,0,0,0,.76-3.59,6.85,6.85,0,0,0-.76-3.59,2.53,2.53,0,0,0-4.35,0,6.85,6.85,0,0,0-.76,3.59,6.87,6.87,0,0,0,.76,3.59,2.54,2.54,0,0,0,4.35,0Z"/><path class="cls-1" d="M861.3,56.35a7.73,7.73,0,0,1-1.13-4.55,7.77,7.77,0,0,1,1.13-4.56,4.26,4.26,0,0,1,6.59,0A7.69,7.69,0,0,1,869,51.8a7.66,7.66,0,0,1-1.14,4.55,4.24,4.24,0,0,1-6.59,0Zm5.48-1a7,7,0,0,0,.75-3.59,7,7,0,0,0-.75-3.59,2.54,2.54,0,0,0-4.36,0,7,7,0,0,0-.76,3.59,7,7,0,0,0,.76,3.59,2.55,2.55,0,0,0,4.36,0Z"/><path class="cls-1" d="M875.72,45.86V57.74h-1.44V49c0-.25,0-.71,0-1.38a6.55,6.55,0,0,1-1.42,1,6.39,6.39,0,0,1-1.66.64L870.86,48a4.1,4.1,0,0,0,1.17-.41,10.06,10.06,0,0,0,1.42-.82,4.44,4.44,0,0,0,1-.91Z"/><path class="cls-1" d="M879.86,56.35a7.73,7.73,0,0,1-1.13-4.55,7.77,7.77,0,0,1,1.13-4.56,4.26,4.26,0,0,1,6.59,0,7.69,7.69,0,0,1,1.14,4.56,7.66,7.66,0,0,1-1.14,4.55,4.24,4.24,0,0,1-6.59,0Zm5.48-1a7,7,0,0,0,.75-3.59,7,7,0,0,0-.75-3.59,2.54,2.54,0,0,0-4.36,0,7,7,0,0,0-.76,3.59,7,7,0,0,0,.76,3.59,2.55,2.55,0,0,0,4.36,0Z"/><path class="cls-1" d="M891.06,56.35a7.66,7.66,0,0,1-1.14-4.55,7.69,7.69,0,0,1,1.14-4.56,4.26,4.26,0,0,1,6.59,0,7.77,7.77,0,0,1,1.13,4.56,7.73,7.73,0,0,1-1.13,4.55,4.24,4.24,0,0,1-6.59,0Zm5.47-1a7,7,0,0,0,.76-3.59,7,7,0,0,0-.76-3.59,2.54,2.54,0,0,0-4.36,0,7,7,0,0,0-.75,3.59,7,7,0,0,0,.75,3.59,2.55,2.55,0,0,0,4.36,0Z"/><path class="cls-1" d="M908.39,56.35a7.73,7.73,0,0,1-1.13-4.55,7.77,7.77,0,0,1,1.13-4.56,4.26,4.26,0,0,1,6.59,0,7.69,7.69,0,0,1,1.13,4.56A7.66,7.66,0,0,1,915,56.35a4.24,4.24,0,0,1-6.59,0Zm5.47-1a6.87,6.87,0,0,0,.76-3.59,6.85,6.85,0,0,0-.76-3.59,2.53,2.53,0,0,0-4.35,0,6.85,6.85,0,0,0-.76,3.59,6.87,6.87,0,0,0,.76,3.59,2.54,2.54,0,0,0,4.35,0Z"/><path class="cls-1" d="M919.59,56.35a7.66,7.66,0,0,1-1.14-4.55,7.69,7.69,0,0,1,1.14-4.56,4.26,4.26,0,0,1,6.59,0,7.77,7.77,0,0,1,1.13,4.56,7.73,7.73,0,0,1-1.13,4.55,4.24,4.24,0,0,1-6.59,0Zm5.47-1a7,7,0,0,0,.76-3.59,7,7,0,0,0-.76-3.59,2.54,2.54,0,0,0-4.36,0A7,7,0,0,0,920,51.8a7,7,0,0,0,.75,3.59,2.55,2.55,0,0,0,4.36,0Z"/><path class="cls-1" d="M934,45.86V57.74h-1.44V49q0-.37,0-1.38a6.55,6.55,0,0,1-1.42,1,6.26,6.26,0,0,1-1.66.64L929.15,48a4.32,4.32,0,0,0,1.17-.41,10.65,10.65,0,0,0,1.42-.82,4.92,4.92,0,0,0,1-.91Z"/><path class="cls-1" d="M941.37,45.86V57.74h-1.44V49q0-.37,0-1.38a6.86,6.86,0,0,1-3.07,1.67L936.51,48a4.1,4.1,0,0,0,1.17-.41,10.65,10.65,0,0,0,1.42-.82,4.67,4.67,0,0,0,1-.91Z"/><path class="cls-1" d="M945.51,56.35a7.66,7.66,0,0,1-1.14-4.55,7.69,7.69,0,0,1,1.14-4.56,4.26,4.26,0,0,1,6.59,0,7.77,7.77,0,0,1,1.13,4.56,7.73,7.73,0,0,1-1.13,4.55,4.24,4.24,0,0,1-6.59,0Zm5.47-1a7,7,0,0,0,.76-3.59,7,7,0,0,0-.76-3.59,2.54,2.54,0,0,0-4.36,0,7,7,0,0,0-.75,3.59,7,7,0,0,0,.75,3.59,2.55,2.55,0,0,0,4.36,0Z"/><path class="cls-1" d="M956.7,56.35a7.73,7.73,0,0,1-1.13-4.55,7.77,7.77,0,0,1,1.13-4.56,4.26,4.26,0,0,1,6.59,0,7.69,7.69,0,0,1,1.14,4.56,7.66,7.66,0,0,1-1.14,4.55,4.24,4.24,0,0,1-6.59,0Zm5.48-1a7,7,0,0,0,.75-3.59,7,7,0,0,0-.75-3.59,2.54,2.54,0,0,0-4.36,0,7,7,0,0,0-.76,3.59,7,7,0,0,0,.76,3.59,2.55,2.55,0,0,0,4.36,0Z"/><path class="cls-1" d="M967.9,56.35a7.66,7.66,0,0,1-1.13-4.55,7.69,7.69,0,0,1,1.13-4.56,4.26,4.26,0,0,1,6.59,0,7.77,7.77,0,0,1,1.13,4.56,7.73,7.73,0,0,1-1.13,4.55,4.24,4.24,0,0,1-6.59,0Zm5.47-1a6.87,6.87,0,0,0,.76-3.59,6.85,6.85,0,0,0-.76-3.59,2.53,2.53,0,0,0-4.35,0,6.85,6.85,0,0,0-.76,3.59,6.87,6.87,0,0,0,.76,3.59,2.54,2.54,0,0,0,4.35,0Z"/><path class="cls-1" d="M982.32,45.86V57.74h-1.44V49q0-.37,0-1.38a6.86,6.86,0,0,1-3.07,1.67L977.46,48a4.1,4.1,0,0,0,1.17-.41,10.65,10.65,0,0,0,1.42-.82,4.67,4.67,0,0,0,1-.91Z"/><path class="cls-1" d="M575.41,145a9.75,9.75,0,0,1,0-9.11,4.24,4.24,0,0,1,6.59,0,9.67,9.67,0,0,1,0,9.11,4.26,4.26,0,0,1-6.59,0Zm5.48-1a9,9,0,0,0,0-7.19,2.55,2.55,0,0,0-4.36,0,8.88,8.88,0,0,0,0,7.19,2.55,2.55,0,0,0,4.36,0Z"/><path class="cls-1" d="M589.83,134.52V146.4h-1.44v-8.71c0-.25,0-.71,0-1.38a6.55,6.55,0,0,1-1.42,1,6.39,6.39,0,0,1-1.66.64l-.38-1.31a4.1,4.1,0,0,0,1.17-.41,9.23,9.23,0,0,0,1.42-.83,4,4,0,0,0,1-.91Z"/><path class="cls-1" d="M597.19,134.52V146.4h-1.44v-8.71c0-.25,0-.71,0-1.38a6.55,6.55,0,0,1-1.42,1,6.39,6.39,0,0,1-1.66.64l-.38-1.31a4.1,4.1,0,0,0,1.17-.41,9.32,9.32,0,0,0,1.43-.83,4.13,4.13,0,0,0,1-.91Z"/><path class="cls-1" d="M601.33,145a9.75,9.75,0,0,1,0-9.11,4.24,4.24,0,0,1,6.59,0,9.67,9.67,0,0,1,0,9.11,4.26,4.26,0,0,1-6.59,0Zm5.48-1a9,9,0,0,0,0-7.19,2.55,2.55,0,0,0-4.36,0,8.88,8.88,0,0,0,0,7.19,2.55,2.55,0,0,0,4.36,0Z"/><path class="cls-1" d="M615.75,134.52V146.4h-1.44v-8.71c0-.25,0-.71,0-1.38a6.55,6.55,0,0,1-1.42,1,6.39,6.39,0,0,1-1.66.64l-.38-1.31a4.1,4.1,0,0,0,1.17-.41,9.23,9.23,0,0,0,1.42-.83,4.21,4.21,0,0,0,1-.91Z"/><path class="cls-1" d="M619.89,145a9.75,9.75,0,0,1,0-9.11,4.24,4.24,0,0,1,6.59,0,9.75,9.75,0,0,1,0,9.11,4.26,4.26,0,0,1-6.59,0Zm5.47-1a8.88,8.88,0,0,0,0-7.19,2.54,2.54,0,0,0-4.35,0,8.88,8.88,0,0,0,0,7.19,2.54,2.54,0,0,0,4.35,0Z"/><path class="cls-1" d="M631.09,145a9.67,9.67,0,0,1,0-9.11,4.24,4.24,0,0,1,6.59,0,9.75,9.75,0,0,1,0,9.11,4.26,4.26,0,0,1-6.59,0Zm5.47-1a8.88,8.88,0,0,0,0-7.19,2.55,2.55,0,0,0-4.36,0,9,9,0,0,0,0,7.19,2.55,2.55,0,0,0,4.36,0Z"/><path class="cls-1" d="M645.51,134.52V146.4h-1.45v-8.71c0-.25,0-.71,0-1.38a6.55,6.55,0,0,1-1.42,1A6.26,6.26,0,0,1,641,138l-.38-1.31a4.1,4.1,0,0,0,1.17-.41,9.32,9.32,0,0,0,1.43-.83,4.13,4.13,0,0,0,1-.91Z"/><path class="cls-1" d="M655.78,145a9.75,9.75,0,0,1,0-9.11,4.24,4.24,0,0,1,6.59,0,9.67,9.67,0,0,1,0,9.11,4.26,4.26,0,0,1-6.59,0Zm5.48-1a9,9,0,0,0,0-7.19,2.55,2.55,0,0,0-4.36,0,8.88,8.88,0,0,0,0,7.19,2.55,2.55,0,0,0,4.36,0Z"/><path class="cls-1" d="M670.2,134.52V146.4h-1.44v-8.71c0-.25,0-.71,0-1.38a6.55,6.55,0,0,1-1.42,1,6.39,6.39,0,0,1-1.66.64l-.38-1.31a4.1,4.1,0,0,0,1.17-.41,9.23,9.23,0,0,0,1.42-.83,4,4,0,0,0,1-.91Z"/><path class="cls-1" d="M677.56,134.52V146.4h-1.44v-8.71c0-.25,0-.71,0-1.38a6.55,6.55,0,0,1-1.42,1,6.39,6.39,0,0,1-1.66.64l-.38-1.31a4.1,4.1,0,0,0,1.17-.41,9.23,9.23,0,0,0,1.42-.83,4,4,0,0,0,1-.91Z"/><path class="cls-1" d="M681.7,145a9.75,9.75,0,0,1,0-9.11,4.24,4.24,0,0,1,6.59,0,9.67,9.67,0,0,1,0,9.11,4.26,4.26,0,0,1-6.59,0Zm5.48-1a9,9,0,0,0,0-7.19,2.55,2.55,0,0,0-4.36,0,8.88,8.88,0,0,0,0,7.19,2.55,2.55,0,0,0,4.36,0Z"/><path class="cls-1" d="M692.9,145a9.67,9.67,0,0,1,0-9.11,4.24,4.24,0,0,1,6.59,0,9.75,9.75,0,0,1,0,9.11,4.26,4.26,0,0,1-6.59,0Zm5.47-1a8.88,8.88,0,0,0,0-7.19,2.55,2.55,0,0,0-4.36,0,9,9,0,0,0,0,7.19,2.55,2.55,0,0,0,4.36,0Z"/><path class="cls-1" d="M707.32,134.52V146.4h-1.44v-8.71q0-.37,0-1.38a6.55,6.55,0,0,1-1.42,1,6.26,6.26,0,0,1-1.66.64l-.37-1.31a4.32,4.32,0,0,0,1.17-.41,9.73,9.73,0,0,0,1.42-.83,4.41,4.41,0,0,0,1-.91Z"/><path class="cls-1" d="M711.46,145a9.67,9.67,0,0,1,0-9.11,4.23,4.23,0,0,1,6.58,0,9.67,9.67,0,0,1,0,9.11,4.25,4.25,0,0,1-6.58,0Zm5.47-1a9,9,0,0,0,0-7.19,2.55,2.55,0,0,0-4.36,0,9,9,0,0,0,0,7.19,2.55,2.55,0,0,0,4.36,0Z"/><path class="cls-1" d="M722.65,145a9.75,9.75,0,0,1,0-9.11,4.24,4.24,0,0,1,6.59,0,9.75,9.75,0,0,1,0,9.11,4.26,4.26,0,0,1-6.59,0Zm5.47-1a8.88,8.88,0,0,0,0-7.19,2.54,2.54,0,0,0-4.35,0,8.88,8.88,0,0,0,0,7.19,2.54,2.54,0,0,0,4.35,0Z"/><path class="cls-1" d="M740,145a9.67,9.67,0,0,1,0-9.11,4.23,4.23,0,0,1,6.58,0,9.67,9.67,0,0,1,0,9.11,4.25,4.25,0,0,1-6.58,0Zm5.47-1a9,9,0,0,0,0-7.19,2.55,2.55,0,0,0-4.36,0,9,9,0,0,0,0,7.19,2.55,2.55,0,0,0,4.36,0Z"/><path class="cls-1" d="M754.4,134.52V146.4H753v-8.71c0-.25,0-.71,0-1.38a6.55,6.55,0,0,1-1.42,1,6.39,6.39,0,0,1-1.66.64l-.38-1.31a4.1,4.1,0,0,0,1.17-.41,9.32,9.32,0,0,0,1.43-.83,4.13,4.13,0,0,0,1-.91Z"/><path class="cls-1" d="M761.77,134.52V146.4h-1.44v-8.71q0-.37,0-1.38a6.55,6.55,0,0,1-1.42,1,6.26,6.26,0,0,1-1.66.64l-.37-1.31a4.32,4.32,0,0,0,1.17-.41,9.73,9.73,0,0,0,1.42-.83,4.41,4.41,0,0,0,1-.91Z"/><path class="cls-1" d="M765.91,145a9.67,9.67,0,0,1,0-9.11,4.23,4.23,0,0,1,6.58,0,9.67,9.67,0,0,1,0,9.11,4.25,4.25,0,0,1-6.58,0Zm5.47-1a9,9,0,0,0,0-7.19,2.55,2.55,0,0,0-4.36,0,9,9,0,0,0,0,7.19,2.55,2.55,0,0,0,4.36,0Z"/><path class="cls-1" d="M777.1,145a9.75,9.75,0,0,1,0-9.11,4.24,4.24,0,0,1,6.59,0,9.75,9.75,0,0,1,0,9.11,4.26,4.26,0,0,1-6.59,0Zm5.47-1a8.88,8.88,0,0,0,0-7.19,2.54,2.54,0,0,0-4.35,0,8.88,8.88,0,0,0,0,7.19,2.54,2.54,0,0,0,4.35,0Z"/><path class="cls-1" d="M791.52,134.52V146.4h-1.44v-8.71c0-.25,0-.71,0-1.38a6.62,6.62,0,0,1-1.43,1A6.33,6.33,0,0,1,787,138l-.38-1.31a4.1,4.1,0,0,0,1.17-.41,9.23,9.23,0,0,0,1.42-.83,4.21,4.21,0,0,0,1-.91Z"/><path class="cls-1" d="M795.66,145a9.75,9.75,0,0,1,0-9.11,4.24,4.24,0,0,1,6.59,0,9.75,9.75,0,0,1,0,9.11,4.26,4.26,0,0,1-6.59,0Zm5.47-1a8.88,8.88,0,0,0,0-7.19,2.54,2.54,0,0,0-4.35,0,8.88,8.88,0,0,0,0,7.19,2.54,2.54,0,0,0,4.35,0Z"/><path class="cls-1" d="M810.08,134.52V146.4h-1.44v-8.71q0-.37,0-1.38A6.86,6.86,0,0,1,805.6,138l-.38-1.31a4.21,4.21,0,0,0,1.17-.41,9.73,9.73,0,0,0,1.42-.83,4.21,4.21,0,0,0,1-.91Z"/><path class="cls-1" d="M820.35,145a9.75,9.75,0,0,1,0-9.11,4.24,4.24,0,0,1,6.59,0,9.67,9.67,0,0,1,0,9.11,4.26,4.26,0,0,1-6.59,0Zm5.48-1a9,9,0,0,0,0-7.19,2.55,2.55,0,0,0-4.36,0,9,9,0,0,0,0,7.19,2.55,2.55,0,0,0,4.36,0Z"/><path class="cls-1" d="M834.77,134.52V146.4h-1.44v-8.71c0-.25,0-.71,0-1.38a6.55,6.55,0,0,1-1.42,1,6.39,6.39,0,0,1-1.66.64l-.38-1.31a4.1,4.1,0,0,0,1.17-.41,9.23,9.23,0,0,0,1.42-.83,4,4,0,0,0,1-.91Z"/><path class="cls-1" d="M842.14,134.52V146.4h-1.45v-8.71c0-.25,0-.71,0-1.38a6.55,6.55,0,0,1-1.42,1,6.26,6.26,0,0,1-1.66.64l-.38-1.31a4.1,4.1,0,0,0,1.17-.41,9.32,9.32,0,0,0,1.43-.83,4.13,4.13,0,0,0,1-.91Z"/><path class="cls-1" d="M846.27,145a9.75,9.75,0,0,1,0-9.11,4.24,4.24,0,0,1,6.59,0,9.67,9.67,0,0,1,0,9.11,4.26,4.26,0,0,1-6.59,0Zm5.48-1a9,9,0,0,0,0-7.19,2.55,2.55,0,0,0-4.36,0,9,9,0,0,0,0,7.19,2.55,2.55,0,0,0,4.36,0Z"/><path class="cls-1" d="M860.69,134.52V146.4h-1.44v-8.71c0-.25,0-.71,0-1.38a6.55,6.55,0,0,1-1.42,1,6.39,6.39,0,0,1-1.66.64l-.38-1.31a4.1,4.1,0,0,0,1.17-.41,9.23,9.23,0,0,0,1.42-.83,4,4,0,0,0,1-.91Z"/><path class="cls-1" d="M868.06,134.52V146.4h-1.45v-8.71c0-.25,0-.71,0-1.38a6.55,6.55,0,0,1-1.42,1,6.26,6.26,0,0,1-1.66.64l-.38-1.31a4.1,4.1,0,0,0,1.17-.41,9.32,9.32,0,0,0,1.43-.83,4.13,4.13,0,0,0,1-.91Z"/><path class="cls-1" d="M875.42,134.52V146.4H874v-8.71q0-.37,0-1.38a6.55,6.55,0,0,1-1.42,1,6.26,6.26,0,0,1-1.66.64l-.37-1.31a4.21,4.21,0,0,0,1.17-.41,9.73,9.73,0,0,0,1.42-.83,4.41,4.41,0,0,0,1-.91Z"/><path class="cls-1" d="M879.56,145a9.67,9.67,0,0,1,0-9.11,4.23,4.23,0,0,1,6.58,0,9.67,9.67,0,0,1,0,9.11,4.25,4.25,0,0,1-6.58,0Zm5.47-1a9,9,0,0,0,0-7.19,2.55,2.55,0,0,0-4.36,0,9,9,0,0,0,0,7.19,2.55,2.55,0,0,0,4.36,0Z"/><path class="cls-1" d="M896.89,145a9.75,9.75,0,0,1,0-9.11,4.24,4.24,0,0,1,6.59,0,9.75,9.75,0,0,1,0,9.11,4.26,4.26,0,0,1-6.59,0Zm5.47-1a8.88,8.88,0,0,0,0-7.19,2.54,2.54,0,0,0-4.35,0,8.88,8.88,0,0,0,0,7.19,2.54,2.54,0,0,0,4.35,0Z"/><path class="cls-1" d="M911.31,134.52V146.4h-1.44v-8.71q0-.37,0-1.38a6.86,6.86,0,0,1-3.07,1.67l-.38-1.31a4.1,4.1,0,0,0,1.17-.41,9.73,9.73,0,0,0,1.42-.83,4.21,4.21,0,0,0,1-.91Z"/><path class="cls-1" d="M918.67,134.52V146.4h-1.44v-8.71c0-.25,0-.71,0-1.38a6.62,6.62,0,0,1-1.43,1,6.33,6.33,0,0,1-1.65.64l-.38-1.31a4.1,4.1,0,0,0,1.17-.41,9.23,9.23,0,0,0,1.42-.83,4.21,4.21,0,0,0,1-.91Z"/><path class="cls-1" d="M926,134.52V146.4h-1.44v-8.71c0-.25,0-.71,0-1.38a6.55,6.55,0,0,1-1.42,1,6.39,6.39,0,0,1-1.66.64l-.38-1.31a4.1,4.1,0,0,0,1.17-.41,9.23,9.23,0,0,0,1.42-.83,4,4,0,0,0,1-.91Z"/><path class="cls-1" d="M930.17,145a9.75,9.75,0,0,1,0-9.11,4.24,4.24,0,0,1,6.59,0,9.75,9.75,0,0,1,0,9.11,4.26,4.26,0,0,1-6.59,0Zm5.47-1a8.88,8.88,0,0,0,0-7.19,2.54,2.54,0,0,0-4.35,0,8.88,8.88,0,0,0,0,7.19,2.54,2.54,0,0,0,4.35,0Z"/><path class="cls-1" d="M944.59,134.52V146.4h-1.44v-8.71c0-.25,0-.71,0-1.38a6.62,6.62,0,0,1-1.43,1,6.33,6.33,0,0,1-1.65.64l-.38-1.31a4.1,4.1,0,0,0,1.17-.41,9.23,9.23,0,0,0,1.42-.83,4.21,4.21,0,0,0,1-.91Z"/><path class="cls-1" d="M948.73,145a9.75,9.75,0,0,1,0-9.11,4.24,4.24,0,0,1,6.59,0,9.75,9.75,0,0,1,0,9.11,4.26,4.26,0,0,1-6.59,0Zm5.47-1a8.88,8.88,0,0,0,0-7.19,2.54,2.54,0,0,0-4.35,0,8.88,8.88,0,0,0,0,7.19,2.54,2.54,0,0,0,4.35,0Z"/><path class="cls-1" d="M959.93,145a9.67,9.67,0,0,1,0-9.11,4.23,4.23,0,0,1,6.58,0,9.67,9.67,0,0,1,0,9.11,4.25,4.25,0,0,1-6.58,0Zm5.47-1a9,9,0,0,0,0-7.19,2.55,2.55,0,0,0-4.36,0,9,9,0,0,0,0,7.19,2.55,2.55,0,0,0,4.36,0Z"/><path class="cls-1" d="M575.41,171a9.75,9.75,0,0,1,0-9.11,4.26,4.26,0,0,1,6.59,0,9.67,9.67,0,0,1,0,9.11,4.24,4.24,0,0,1-6.59,0Zm5.48-1a9,9,0,0,0,0-7.18,2.54,2.54,0,0,0-4.36,0,8.86,8.86,0,0,0,0,7.18,2.55,2.55,0,0,0,4.36,0Z"/><path class="cls-1" d="M589.83,160.52V172.4h-1.44v-8.72c0-.25,0-.71,0-1.38a6.55,6.55,0,0,1-1.42,1,6.39,6.39,0,0,1-1.66.64l-.38-1.31a4.1,4.1,0,0,0,1.17-.41,10.06,10.06,0,0,0,1.42-.82,4.44,4.44,0,0,0,1-.91Z"/><path class="cls-1" d="M597.19,160.52V172.4h-1.44v-8.72c0-.25,0-.71,0-1.38a6.55,6.55,0,0,1-1.42,1,6.39,6.39,0,0,1-1.66.64l-.38-1.31a4.1,4.1,0,0,0,1.17-.41,10.16,10.16,0,0,0,1.43-.82,4.58,4.58,0,0,0,1-.91Z"/><path class="cls-1" d="M601.33,171a9.75,9.75,0,0,1,0-9.11,4.26,4.26,0,0,1,6.59,0,9.67,9.67,0,0,1,0,9.11,4.24,4.24,0,0,1-6.59,0Zm5.48-1a9,9,0,0,0,0-7.18,2.54,2.54,0,0,0-4.36,0,8.86,8.86,0,0,0,0,7.18,2.55,2.55,0,0,0,4.36,0Z"/><path class="cls-1" d="M615.75,160.52V172.4h-1.44v-8.72c0-.25,0-.71,0-1.38a6.55,6.55,0,0,1-1.42,1,6.39,6.39,0,0,1-1.66.64l-.38-1.31a4.1,4.1,0,0,0,1.17-.41,10.06,10.06,0,0,0,1.42-.82,4.67,4.67,0,0,0,1-.91Z"/><path class="cls-1" d="M619.89,171a9.75,9.75,0,0,1,0-9.11,4.26,4.26,0,0,1,6.59,0,9.75,9.75,0,0,1,0,9.11,4.24,4.24,0,0,1-6.59,0Zm5.47-1a8.86,8.86,0,0,0,0-7.18,2.53,2.53,0,0,0-4.35,0,8.86,8.86,0,0,0,0,7.18,2.54,2.54,0,0,0,4.35,0Z"/><path class="cls-1" d="M631.09,171a9.67,9.67,0,0,1,0-9.11,4.26,4.26,0,0,1,6.59,0,9.75,9.75,0,0,1,0,9.11,4.24,4.24,0,0,1-6.59,0Zm5.47-1a8.86,8.86,0,0,0,0-7.18,2.54,2.54,0,0,0-4.36,0,9,9,0,0,0,0,7.18,2.55,2.55,0,0,0,4.36,0Z"/><path class="cls-1" d="M645.51,160.52V172.4h-1.45v-8.72c0-.25,0-.71,0-1.38a6.55,6.55,0,0,1-1.42,1A6.26,6.26,0,0,1,641,164l-.38-1.31a4.1,4.1,0,0,0,1.17-.41,10.16,10.16,0,0,0,1.43-.82,4.58,4.58,0,0,0,1-.91Z"/><path class="cls-1" d="M655.78,171a9.75,9.75,0,0,1,0-9.11,4.26,4.26,0,0,1,6.59,0,9.67,9.67,0,0,1,0,9.11,4.24,4.24,0,0,1-6.59,0Zm5.48-1a9,9,0,0,0,0-7.18,2.54,2.54,0,0,0-4.36,0,8.86,8.86,0,0,0,0,7.18,2.55,2.55,0,0,0,4.36,0Z"/><path class="cls-1" d="M670.2,160.52V172.4h-1.44v-8.72c0-.25,0-.71,0-1.38a6.55,6.55,0,0,1-1.42,1,6.39,6.39,0,0,1-1.66.64l-.38-1.31a4.1,4.1,0,0,0,1.17-.41,10.06,10.06,0,0,0,1.42-.82,4.44,4.44,0,0,0,1-.91Z"/><path class="cls-1" d="M677.56,160.52V172.4h-1.44v-8.72c0-.25,0-.71,0-1.38a6.55,6.55,0,0,1-1.42,1,6.39,6.39,0,0,1-1.66.64l-.38-1.31a4.1,4.1,0,0,0,1.17-.41,10.06,10.06,0,0,0,1.42-.82,4.44,4.44,0,0,0,1-.91Z"/><path class="cls-1" d="M681.7,171a9.75,9.75,0,0,1,0-9.11,4.26,4.26,0,0,1,6.59,0,9.67,9.67,0,0,1,0,9.11,4.24,4.24,0,0,1-6.59,0Zm5.48-1a9,9,0,0,0,0-7.18,2.54,2.54,0,0,0-4.36,0,8.86,8.86,0,0,0,0,7.18,2.55,2.55,0,0,0,4.36,0Z"/><path class="cls-1" d="M692.9,171a9.67,9.67,0,0,1,0-9.11,4.26,4.26,0,0,1,6.59,0,9.75,9.75,0,0,1,0,9.11,4.24,4.24,0,0,1-6.59,0Zm5.47-1a8.86,8.86,0,0,0,0-7.18,2.54,2.54,0,0,0-4.36,0,9,9,0,0,0,0,7.18,2.55,2.55,0,0,0,4.36,0Z"/><path class="cls-1" d="M707.32,160.52V172.4h-1.44v-8.72q0-.37,0-1.38a6.55,6.55,0,0,1-1.42,1,6.26,6.26,0,0,1-1.66.64l-.37-1.31a4.32,4.32,0,0,0,1.17-.41,10.65,10.65,0,0,0,1.42-.82,4.92,4.92,0,0,0,1-.91Z"/><path class="cls-1" d="M711.46,171a9.67,9.67,0,0,1,0-9.11,4.25,4.25,0,0,1,6.58,0,9.67,9.67,0,0,1,0,9.11,4.23,4.23,0,0,1-6.58,0Zm5.47-1a9,9,0,0,0,0-7.18,2.54,2.54,0,0,0-4.36,0,9,9,0,0,0,0,7.18,2.55,2.55,0,0,0,4.36,0Z"/><path class="cls-1" d="M722.65,171a9.75,9.75,0,0,1,0-9.11,4.26,4.26,0,0,1,6.59,0,9.75,9.75,0,0,1,0,9.11,4.24,4.24,0,0,1-6.59,0Zm5.47-1a8.86,8.86,0,0,0,0-7.18,2.53,2.53,0,0,0-4.35,0,8.86,8.86,0,0,0,0,7.18,2.54,2.54,0,0,0,4.35,0Z"/><path class="cls-1" d="M740,171a9.67,9.67,0,0,1,0-9.11,4.25,4.25,0,0,1,6.58,0,9.67,9.67,0,0,1,0,9.11,4.23,4.23,0,0,1-6.58,0Zm5.47-1a9,9,0,0,0,0-7.18,2.54,2.54,0,0,0-4.36,0,9,9,0,0,0,0,7.18,2.55,2.55,0,0,0,4.36,0Z"/><path class="cls-1" d="M754.4,160.52V172.4H753v-8.72c0-.25,0-.71,0-1.38a6.55,6.55,0,0,1-1.42,1,6.39,6.39,0,0,1-1.66.64l-.38-1.31a4.1,4.1,0,0,0,1.17-.41,10.16,10.16,0,0,0,1.43-.82,4.58,4.58,0,0,0,1-.91Z"/><path class="cls-1" d="M761.77,160.52V172.4h-1.44v-8.72q0-.37,0-1.38a6.55,6.55,0,0,1-1.42,1,6.26,6.26,0,0,1-1.66.64l-.37-1.31a4.32,4.32,0,0,0,1.17-.41,10.65,10.65,0,0,0,1.42-.82,4.92,4.92,0,0,0,1-.91Z"/><path class="cls-1" d="M765.91,171a9.67,9.67,0,0,1,0-9.11,4.25,4.25,0,0,1,6.58,0,9.67,9.67,0,0,1,0,9.11,4.23,4.23,0,0,1-6.58,0Zm5.47-1a9,9,0,0,0,0-7.18,2.54,2.54,0,0,0-4.36,0,9,9,0,0,0,0,7.18,2.55,2.55,0,0,0,4.36,0Z"/><path class="cls-1" d="M777.1,171a9.75,9.75,0,0,1,0-9.11,4.26,4.26,0,0,1,6.59,0,9.75,9.75,0,0,1,0,9.11,4.24,4.24,0,0,1-6.59,0Zm5.47-1a8.86,8.86,0,0,0,0-7.18,2.53,2.53,0,0,0-4.35,0,8.86,8.86,0,0,0,0,7.18,2.54,2.54,0,0,0,4.35,0Z"/><path class="cls-1" d="M788.3,171a9.67,9.67,0,0,1,0-9.11,4.26,4.26,0,0,1,6.59,0,9.75,9.75,0,0,1,0,9.11,4.24,4.24,0,0,1-6.59,0Zm5.47-1a8.86,8.86,0,0,0,0-7.18,2.54,2.54,0,0,0-4.36,0,9,9,0,0,0,0,7.18,2.55,2.55,0,0,0,4.36,0Z"/><path class="cls-1" d="M799.49,171a9.75,9.75,0,0,1,0-9.11,4.26,4.26,0,0,1,6.59,0,9.67,9.67,0,0,1,0,9.11,4.24,4.24,0,0,1-6.59,0Zm5.48-1a9,9,0,0,0,0-7.18,2.54,2.54,0,0,0-4.36,0,8.86,8.86,0,0,0,0,7.18,2.55,2.55,0,0,0,4.36,0Z"/><path class="cls-1" d="M813.91,160.52V172.4h-1.44v-8.72c0-.25,0-.71,0-1.38a6.55,6.55,0,0,1-1.42,1,6.39,6.39,0,0,1-1.66.64l-.38-1.31a4.1,4.1,0,0,0,1.17-.41,10.06,10.06,0,0,0,1.42-.82,4.67,4.67,0,0,0,1-.91Z"/><path class="cls-1" d="M824.19,171a9.75,9.75,0,0,1,0-9.11,4.26,4.26,0,0,1,6.59,0,9.75,9.75,0,0,1,0,9.11,4.24,4.24,0,0,1-6.59,0Zm5.47-1a8.86,8.86,0,0,0,0-7.18,2.53,2.53,0,0,0-4.35,0,8.86,8.86,0,0,0,0,7.18,2.54,2.54,0,0,0,4.35,0Z"/><path class="cls-1" d="M838.61,160.52V172.4h-1.44v-8.72q0-.37,0-1.38a6.55,6.55,0,0,1-1.42,1,6.26,6.26,0,0,1-1.66.64l-.37-1.31a4.32,4.32,0,0,0,1.17-.41,10.65,10.65,0,0,0,1.42-.82,4.92,4.92,0,0,0,1-.91Z"/><path class="cls-1" d="M846,160.52V172.4h-1.44v-8.72q0-.37,0-1.38a6.86,6.86,0,0,1-3.07,1.67l-.38-1.31a4.1,4.1,0,0,0,1.17-.41,10.65,10.65,0,0,0,1.42-.82,4.67,4.67,0,0,0,1-.91Z"/><path class="cls-1" d="M850.11,171a9.75,9.75,0,0,1,0-9.11,4.26,4.26,0,0,1,6.59,0,9.75,9.75,0,0,1,0,9.11,4.24,4.24,0,0,1-6.59,0Zm5.47-1a8.86,8.86,0,0,0,0-7.18,2.53,2.53,0,0,0-4.35,0,8.86,8.86,0,0,0,0,7.18,2.54,2.54,0,0,0,4.35,0Z"/><path class="cls-1" d="M861.3,171a9.75,9.75,0,0,1,0-9.11,4.26,4.26,0,0,1,6.59,0,9.67,9.67,0,0,1,0,9.11,4.24,4.24,0,0,1-6.59,0Zm5.48-1a9,9,0,0,0,0-7.18,2.54,2.54,0,0,0-4.36,0,8.86,8.86,0,0,0,0,7.18,2.55,2.55,0,0,0,4.36,0Z"/><path class="cls-1" d="M875.72,160.52V172.4h-1.44v-8.72c0-.25,0-.71,0-1.38a6.55,6.55,0,0,1-1.42,1,6.39,6.39,0,0,1-1.66.64l-.38-1.31a4.1,4.1,0,0,0,1.17-.41,10.06,10.06,0,0,0,1.42-.82,4.44,4.44,0,0,0,1-.91Z"/><path class="cls-1" d="M879.86,171a9.75,9.75,0,0,1,0-9.11,4.26,4.26,0,0,1,6.59,0,9.67,9.67,0,0,1,0,9.11,4.24,4.24,0,0,1-6.59,0Zm5.48-1a9,9,0,0,0,0-7.18,2.54,2.54,0,0,0-4.36,0,8.86,8.86,0,0,0,0,7.18,2.55,2.55,0,0,0,4.36,0Z"/><path class="cls-1" d="M891.06,171a9.67,9.67,0,0,1,0-9.11,4.26,4.26,0,0,1,6.59,0,9.75,9.75,0,0,1,0,9.11,4.24,4.24,0,0,1-6.59,0Zm5.47-1a8.86,8.86,0,0,0,0-7.18,2.54,2.54,0,0,0-4.36,0,9,9,0,0,0,0,7.18,2.55,2.55,0,0,0,4.36,0Z"/><path class="cls-1" d="M908.39,171a9.75,9.75,0,0,1,0-9.11,4.26,4.26,0,0,1,6.59,0,9.75,9.75,0,0,1,0,9.11,4.24,4.24,0,0,1-6.59,0Zm5.47-1a8.86,8.86,0,0,0,0-7.18,2.53,2.53,0,0,0-4.35,0,8.86,8.86,0,0,0,0,7.18,2.54,2.54,0,0,0,4.35,0Z"/><path class="cls-1" d="M919.59,171a9.67,9.67,0,0,1,0-9.11,4.26,4.26,0,0,1,6.59,0,9.75,9.75,0,0,1,0,9.11,4.24,4.24,0,0,1-6.59,0Zm5.47-1a8.86,8.86,0,0,0,0-7.18,2.54,2.54,0,0,0-4.36,0,9,9,0,0,0,0,7.18,2.55,2.55,0,0,0,4.36,0Z"/><path class="cls-1" d="M934,160.52V172.4h-1.44v-8.72q0-.37,0-1.38a6.55,6.55,0,0,1-1.42,1,6.26,6.26,0,0,1-1.66.64l-.37-1.31a4.32,4.32,0,0,0,1.17-.41,10.65,10.65,0,0,0,1.42-.82,4.92,4.92,0,0,0,1-.91Z"/><path class="cls-1" d="M941.37,160.52V172.4h-1.44v-8.72q0-.37,0-1.38a6.86,6.86,0,0,1-3.07,1.67l-.38-1.31a4.1,4.1,0,0,0,1.17-.41,10.65,10.65,0,0,0,1.42-.82,4.67,4.67,0,0,0,1-.91Z"/><path class="cls-1" d="M945.51,171a9.67,9.67,0,0,1,0-9.11,4.26,4.26,0,0,1,6.59,0,9.75,9.75,0,0,1,0,9.11,4.24,4.24,0,0,1-6.59,0Zm5.47-1a8.86,8.86,0,0,0,0-7.18,2.54,2.54,0,0,0-4.36,0,9,9,0,0,0,0,7.18,2.55,2.55,0,0,0,4.36,0Z"/><path class="cls-1" d="M956.7,171a9.75,9.75,0,0,1,0-9.11,4.26,4.26,0,0,1,6.59,0,9.67,9.67,0,0,1,0,9.11,4.24,4.24,0,0,1-6.59,0Zm5.48-1a9,9,0,0,0,0-7.18,2.54,2.54,0,0,0-4.36,0,8.86,8.86,0,0,0,0,7.18,2.55,2.55,0,0,0,4.36,0Z"/><path class="cls-1" d="M971.12,160.52V172.4h-1.44v-8.72c0-.25,0-.71,0-1.38a6.55,6.55,0,0,1-1.42,1,6.39,6.39,0,0,1-1.66.64l-.38-1.31a4.1,4.1,0,0,0,1.17-.41,10.06,10.06,0,0,0,1.42-.82,4.67,4.67,0,0,0,1-.91Z"/><path class="cls-1" d="M975.26,171a9.75,9.75,0,0,1,0-9.11,4.26,4.26,0,0,1,6.59,0,9.75,9.75,0,0,1,0,9.11,4.24,4.24,0,0,1-6.59,0Zm5.47-1a8.86,8.86,0,0,0,0-7.18,2.53,2.53,0,0,0-4.35,0,8.86,8.86,0,0,0,0,7.18,2.54,2.54,0,0,0,4.35,0Z"/><path class="cls-2" d="M526.18,48.31a16.26,16.26,0,0,0-5.77-12,18.77,18.77,0,0,0-6.35-3.57A9,9,0,0,0,516,19.2a8.89,8.89,0,0,0-12.87-.39A8.41,8.41,0,0,0,500.43,25a9.12,9.12,0,0,0,4.11,7.79,21.32,21.32,0,0,0-6.66,4A16.7,16.7,0,0,0,492.53,48c0,.75-.44,1.89.82,2s1-1.08,1.07-1.86a14.5,14.5,0,0,1,6.27-11.24A14.81,14.81,0,0,1,523,43.16a40.89,40.89,0,0,1,1.32,5.71,2,2,0,0,0,.82,1.06c.16.1.74-.22.91-.49a2.1,2.1,0,0,0,.13-1.13m-17-16.18a7,7,0,1,1,7.17-6.74,6.93,6.93,0,0,1-7.17,6.74"/><circle class="cls-3" cx="83.66" cy="92.34" r="82.66" transform="translate(-40.79 86.2) rotate(-45)"/><path class="cls-2" d="M39.5,80.51c-4.09-5.49-4-11.31.09-15.15a10.51,10.51,0,0,1,14-.49c4.68,4,4.95,9.36.67,15.68A19.93,19.93,0,0,1,65.64,95.4l8.51-3.77c-5.79-4.23-9.13-9.76-9-17.12A18.41,18.41,0,0,1,71,61a19.51,19.51,0,0,1,28.25.84c6.88,7.6,7.67,21.59-4.16,29.84l8.58,3.73c1.64-7.25,3.42-9.61,11.2-15-4.08-6.63-3.74-11.81,1-15.73a10.57,10.57,0,0,1,13.46.24c4.43,3.88,4.63,9.32.76,15.09,2.46,2.22,5,4.26,7.25,6.63,2.62,2.79,3.57,6.4,3.87,10.16.11,1.45.14,3-1.87,3.15s-2.27-1.39-2.35-2.88a14.66,14.66,0,0,0-20.35-12.56c-5.32,2.28-8.25,6.66-8.8,12.45A3.55,3.55,0,0,0,109,99.56a36.41,36.41,0,0,1,12.67,26.21,4.67,4.67,0,0,1-.3,2.5c-.36.59-1.65,1.29-2,1.07a4.36,4.36,0,0,1-1.81-2.34c-1-4.16-1.29-8.61-2.9-12.52-7.93-19.29-31.9-26-49-13.87-8.42,6-13,14.31-13.77,24.68-.12,1.7.32,4.2-2.34,4.06s-1.9-2.64-1.81-4.29A35.19,35.19,0,0,1,59.51,100.4a5,5,0,0,0,1.81-5.13A14.83,14.83,0,0,0,46.83,83.4a14.5,14.5,0,0,0-14.31,12,22.91,22.91,0,0,0-.33,2.33c-.12,1.45-.7,2.51-2.31,2.34S27.94,98.7,28,97.28A18.92,18.92,0,0,1,38.37,81.17c.33-.18.65-.38,1.13-.66m29.82-6.06A15.17,15.17,0,0,0,84.26,90.26C93.05,90.52,99.54,84,100,75.47c.44-8.29-6.12-15.31-14.71-15.81a15.25,15.25,0,0,0-16,14.79M40.6,72.94a6.25,6.25,0,1,0,12.5-.15,6.25,6.25,0,1,0-12.5.15m88,0a6.21,6.21,0,0,0-6.22-6.36,6.49,6.49,0,0,0-6.26,6.4,6.28,6.28,0,0,0,6.18,6.18,6.06,6.06,0,0,0,6.3-6.22"/><path class="cls-3" d="M542.36,34.55A33.55,33.55,0,1,1,508.81,1,33.55,33.55,0,0,1,542.36,34.55Z"/><path class="cls-2" d="M526.18,164.4a16.26,16.26,0,0,0-5.77-12,18.77,18.77,0,0,0-6.35-3.57,9,9,0,0,0,1.9-13.59,8.89,8.89,0,0,0-12.87-.39,8.41,8.41,0,0,0-2.66,6.15,9.12,9.12,0,0,0,4.11,7.79,21.32,21.32,0,0,0-6.66,4,16.7,16.7,0,0,0-5.35,11.23c0,.75-.44,1.89.82,2s1-1.08,1.07-1.85a14.5,14.5,0,0,1,6.27-11.25A14.81,14.81,0,0,1,523,159.25a40.89,40.89,0,0,1,1.32,5.71,2,2,0,0,0,.82,1.06c.16.1.74-.22.91-.49a2.1,2.1,0,0,0,.13-1.13m-17-16.18a7,7,0,1,1,7.17-6.74,6.93,6.93,0,0,1-7.17,6.74"/><path class="cls-3" d="M542.36,150.64a33.55,33.55,0,1,1-33.55-33.55A33.55,33.55,0,0,1,542.36,150.64Z"/><path class="cls-4" d="M259.42,94.2h-3.77l-.86,2.35H253.3l3.38-9h1.74l3.38,9h-1.53ZM259,93l-1-2.88-.41-1.29h0l-.38,1.26L256.07,93Z"/><polygon class="cls-4" points="270.46 95.3 270.46 96.55 264.07 96.55 264.07 87.59 265.52 87.59 265.52 95.3 270.46 95.3"/><path class="cls-4" d="M280.08,91.92v4.63H279l0-1.14a2.54,2.54,0,0,1-1.08.94,3.84,3.84,0,0,1-1.66.34,4.25,4.25,0,0,1-2.19-.56,3.76,3.76,0,0,1-1.45-1.6,5.51,5.51,0,0,1-.51-2.46,5.24,5.24,0,0,1,.53-2.45A3.81,3.81,0,0,1,274.09,88a4.41,4.41,0,0,1,2.24-.56,4.47,4.47,0,0,1,2.28.52,3.43,3.43,0,0,1,1.41,1.6l-1.33.64a2.09,2.09,0,0,0-.87-1.12,2.71,2.71,0,0,0-1.46-.38,2.53,2.53,0,0,0-2,.89,3.73,3.73,0,0,0-.74,2.47,3.81,3.81,0,0,0,.71,2.49,2.53,2.53,0,0,0,2.08.88,2.71,2.71,0,0,0,1.74-.53,1.85,1.85,0,0,0,.67-1.54v-.26H276V91.92Z"/><path class="cls-4" d="M289.05,88a3.63,3.63,0,0,1,1.47,1.6,6.08,6.08,0,0,1,0,4.92,3.68,3.68,0,0,1-1.47,1.6,4.42,4.42,0,0,1-2.25.56,4.35,4.35,0,0,1-2.24-.56,3.8,3.8,0,0,1-1.47-1.6,6.19,6.19,0,0,1,0-4.92,3.74,3.74,0,0,1,1.47-1.6,4.35,4.35,0,0,1,2.24-.56,4.42,4.42,0,0,1,2.25.56m-4.23,1.59a4.6,4.6,0,0,0,0,4.94,2.41,2.41,0,0,0,2,.88,2.44,2.44,0,0,0,2-.88,4.6,4.6,0,0,0,0-4.94,2.44,2.44,0,0,0-2-.89,2.42,2.42,0,0,0-2,.89"/><path class="cls-4" d="M297.24,93h-1.92v3.59h-1.44v-9h3.65a3.39,3.39,0,0,1,2.29.71,2.42,2.42,0,0,1,.85,2,2.55,2.55,0,0,1-.5,1.6,2.67,2.67,0,0,1-1.41.92l2.44,3.75h-1.68Zm-1.92-1.2h2.09a2,2,0,0,0,1.31-.36,1.62,1.62,0,0,0,0-2.22,2,2,0,0,0-1.31-.36h-2.09Z"/><rect class="cls-4" x="303.68" y="87.59" width="1.45" height="8.96"/><polygon class="cls-4" points="315.14 88.83 312.07 88.83 312.07 96.55 310.62 96.55 310.62 88.83 307.55 88.83 307.55 87.59 315.14 87.59 315.14 88.83"/><polygon class="cls-4" points="326.73 96.55 325.39 96.55 325.39 91.36 325.49 88.89 325.48 88.89 322.75 96.55 321.54 96.55 318.81 88.89 318.79 88.89 318.9 91.36 318.9 96.55 317.56 96.55 317.56 87.59 319.72 87.59 321.52 92.77 322.15 94.91 322.18 94.91 322.81 92.77 324.61 87.59 326.73 87.59 326.73 96.55"/><path class="cls-4" d="M336,88a3.7,3.7,0,0,1,1.48,1.6,6.19,6.19,0,0,1,0,4.92,3.76,3.76,0,0,1-1.48,1.6,4.76,4.76,0,0,1-4.48,0,3.68,3.68,0,0,1-1.47-1.6,6.08,6.08,0,0,1,0-4.92,3.63,3.63,0,0,1,1.47-1.6A4.76,4.76,0,0,1,336,88M331.8,89.6a4.6,4.6,0,0,0,0,4.94,2.69,2.69,0,0,0,4,0,4.6,4.6,0,0,0,0-4.94,2.67,2.67,0,0,0-4,0"/><line class="cls-3" x1="166.32" y1="93.07" x2="185.97" y2="93.07"/><path class="cls-3" d="M185.49,93c6.12-8.81,11.63-17.77,22.39-17.77,11,0,17.34,8.21,23.22,16.92,7.74,11.45,25.85,47.77,64.72,47.77h.51c37.23,0,52.57-31.62,65-47.35,6.55-8.26,11.51-17.34,22.09-17.34,9.83,0,15.91,6.57,21.26,14.21,18.18,26,28.66,61.18,69.8,61.18"/><path class="cls-3" d="M185.49,93l.48.66c6,8.29,12,16.26,22.75,16.26s15.76-9.33,22.38-17.77c10.39-13.26,24.53-46.92,64.72-46.92h.51c39.42,0,54.67,34.86,64.42,47.34,6.58,8.43,12.34,17.35,23.53,17.35,9.9,0,15.62-7.41,20.93-15.67,16.68-25.92,30.71-59.72,69.29-59.72"/><line class="cls-5" x1="197.28" y1="86" x2="197.28" y2="99.45"/><line class="cls-5" x1="219.65" y1="86" x2="219.65" y2="99.45"/><line class="cls-5" x1="208.46" y1="80.11" x2="208.46" y2="104.84"/><line class="cls-5" x1="372.84" y1="86" x2="372.84" y2="99.45"/><line class="cls-5" x1="395.22" y1="86" x2="395.22" y2="99.45"/><line class="cls-5" x1="384.03" y1="80.11" x2="384.03" y2="104.84"/></g></g></svg>