<?xml version="1.0" encoding="utf-8"?>
<!-- Generator: Adobe Illustrator 23.0.0, SVG Export Plug-In . SVG Version: 6.00 Build 0)  -->
<svg version="1.1" id="Capa_1" xmlns="http://www.w3.org/2000/svg" xmlns:xlink="http://www.w3.org/1999/xlink" x="0px" y="0px"
	 viewBox="0 0 1061.5 193.7" style="enable-background:new 0 0 1061.5 193.7;" xml:space="preserve">
<style type="text/css">
	.st0{fill:#00B1EB;}
	.st1{enable-background:new    ;}
	.st2{fill:#FFFFFF;}
	.st3{fill:none;stroke:#FFFFFF;stroke-width:3;stroke-miterlimit:10;}
	.st4{fill:none;stroke:#FFFFFF;stroke-width:2;stroke-miterlimit:10;}
</style>
<title>algoritmo</title>
<path class="st0" d="M601.6,0h447.9c6.6,0,12,5.4,12,12v56.6c0,6.6-5.4,12-12,12H601.6c-6.6,0-12-5.4-12-12V12
	C589.6,5.4,594.9,0,601.6,0z"/>
<path class="st0" d="M601.6,113.1h447.9c6.6,0,12,5.4,12,12v56.6c0,6.6-5.4,12-12,12H601.6c-6.6,0-12-5.4-12-12v-56.6
	C589.6,118.5,594.9,113.1,601.6,113.1z"/>
<g class="st1">
	<path class="st2" d="M612.5,29.5c0-4.1,1.6-6.1,4.9-6.1s4.9,2,4.9,6.1c0,4.1-1.6,6.1-4.9,6.1S612.5,33.5,612.5,29.5z M618.8,32.3
		c0.3-0.6,0.4-1.5,0.4-2.8c0-1.3-0.1-2.3-0.4-2.8s-0.8-0.9-1.4-0.9s-1.1,0.3-1.4,0.9c-0.3,0.6-0.4,1.5-0.4,2.8
		c0,1.3,0.1,2.3,0.4,2.8c0.3,0.6,0.8,0.9,1.4,0.9S618.5,32.9,618.8,32.3z"/>
	<path class="st2" d="M629.8,23.5v11.9h-3v-8.8c-0.9,0.8-1.9,1.3-2.8,1.5l-0.3-2.6c0.6-0.1,1.3-0.3,2-0.7s1.3-0.8,1.6-1.3H629.8z"/>
	<path class="st2" d="M637.7,23.5v11.9h-3v-8.8c-0.9,0.8-1.9,1.3-2.8,1.5l-0.3-2.6c0.6-0.1,1.3-0.3,2-0.7s1.3-0.8,1.6-1.3H637.7z"/>
	<path class="st2" d="M639.9,29.5c0-4.1,1.6-6.1,4.9-6.1s4.9,2,4.9,6.1c0,4.1-1.6,6.1-4.9,6.1S639.9,33.5,639.9,29.5z M646.2,32.3
		c0.3-0.6,0.4-1.5,0.4-2.8c0-1.3-0.1-2.3-0.4-2.8c-0.3-0.6-0.8-0.9-1.4-0.9s-1.1,0.3-1.4,0.9s-0.4,1.5-0.4,2.8
		c0,1.3,0.1,2.3,0.4,2.8s0.8,0.9,1.4,0.9S645.9,32.9,646.2,32.3z"/>
	<path class="st2" d="M657.2,23.5v11.9h-3v-8.8c-0.9,0.8-1.9,1.3-2.8,1.5l-0.3-2.6c0.6-0.1,1.3-0.3,2-0.7s1.3-0.8,1.6-1.3H657.2z"/>
	<path class="st2" d="M659.4,29.5c0-4.1,1.6-6.1,4.9-6.1s4.9,2,4.9,6.1c0,4.1-1.6,6.1-4.9,6.1S659.4,33.5,659.4,29.5z M665.7,32.3
		c0.3-0.6,0.4-1.5,0.4-2.8c0-1.3-0.1-2.3-0.4-2.8s-0.8-0.9-1.4-0.9s-1.1,0.3-1.4,0.9c-0.3,0.6-0.4,1.5-0.4,2.8
		c0,1.3,0.1,2.3,0.4,2.8c0.3,0.6,0.8,0.9,1.4,0.9S665.4,32.9,665.7,32.3z"/>
	<path class="st2" d="M671,29.5c0-4.1,1.6-6.1,4.9-6.1s4.9,2,4.9,6.1c0,4.1-1.6,6.1-4.9,6.1S671,33.5,671,29.5z M677.3,32.3
		c0.3-0.6,0.4-1.5,0.4-2.8c0-1.3-0.1-2.3-0.4-2.8s-0.8-0.9-1.4-0.9s-1.1,0.3-1.4,0.9c-0.3,0.6-0.4,1.5-0.4,2.8
		c0,1.3,0.1,2.3,0.4,2.8c0.3,0.6,0.8,0.9,1.4,0.9S677,32.9,677.3,32.3z"/>
	<path class="st2" d="M688.3,23.5v11.9h-3v-8.8c-0.9,0.8-1.9,1.3-2.8,1.5l-0.3-2.6c0.6-0.1,1.3-0.3,2-0.7s1.3-0.8,1.6-1.3H688.3z"/>
	<path class="st2" d="M695.6,29.5c0-4.1,1.6-6.1,4.9-6.1s4.9,2,4.9,6.1c0,4.1-1.6,6.1-4.9,6.1S695.6,33.5,695.6,29.5z M702,32.3
		c0.3-0.6,0.4-1.5,0.4-2.8c0-1.3-0.1-2.3-0.4-2.8c-0.3-0.6-0.8-0.9-1.4-0.9s-1.1,0.3-1.4,0.9s-0.4,1.5-0.4,2.8
		c0,1.3,0.1,2.3,0.4,2.8s0.8,0.9,1.4,0.9S701.7,32.9,702,32.3z"/>
	<path class="st2" d="M712.9,23.5v11.9h-3v-8.8c-0.9,0.8-1.9,1.3-2.8,1.5l-0.3-2.6c0.6-0.1,1.3-0.3,2-0.7s1.3-0.8,1.6-1.3H712.9z"/>
	<path class="st2" d="M720.8,23.5v11.9h-3v-8.8c-0.9,0.8-1.9,1.3-2.8,1.5l-0.3-2.6c0.6-0.1,1.3-0.3,2-0.7s1.3-0.8,1.6-1.3H720.8z"/>
	<path class="st2" d="M723,29.5c0-4.1,1.6-6.1,4.9-6.1s4.9,2,4.9,6.1c0,4.1-1.6,6.1-4.9,6.1S723,33.5,723,29.5z M729.4,32.3
		c0.3-0.6,0.4-1.5,0.4-2.8c0-1.3-0.1-2.3-0.4-2.8c-0.3-0.6-0.8-0.9-1.4-0.9s-1.1,0.3-1.4,0.9s-0.4,1.5-0.4,2.8
		c0,1.3,0.1,2.3,0.4,2.8s0.8,0.9,1.4,0.9S729.1,32.9,729.4,32.3z"/>
	<path class="st2" d="M734.6,29.5c0-4.1,1.6-6.1,4.9-6.1s4.9,2,4.9,6.1c0,4.1-1.6,6.1-4.9,6.1S734.6,33.5,734.6,29.5z M740.9,32.3
		c0.3-0.6,0.4-1.5,0.4-2.8c0-1.3-0.1-2.3-0.4-2.8s-0.8-0.9-1.4-0.9s-1.1,0.3-1.4,0.9c-0.3,0.6-0.4,1.5-0.4,2.8
		c0,1.3,0.1,2.3,0.4,2.8c0.3,0.6,0.8,0.9,1.4,0.9S740.7,32.9,740.9,32.3z"/>
	<path class="st2" d="M751.9,23.5v11.9h-3v-8.8c-0.9,0.8-1.9,1.3-2.8,1.5l-0.3-2.6c0.6-0.1,1.3-0.3,2-0.7s1.3-0.8,1.6-1.3H751.9z"/>
	<path class="st2" d="M754.1,29.5c0-4.1,1.6-6.1,4.9-6.1s4.9,2,4.9,6.1c0,4.1-1.6,6.1-4.9,6.1S754.1,33.5,754.1,29.5z M760.4,32.3
		c0.3-0.6,0.4-1.5,0.4-2.8c0-1.3-0.1-2.3-0.4-2.8c-0.3-0.6-0.8-0.9-1.4-0.9s-1.1,0.3-1.4,0.9s-0.4,1.5-0.4,2.8
		c0,1.3,0.1,2.3,0.4,2.8s0.8,0.9,1.4,0.9S760.1,32.9,760.4,32.3z"/>
	<path class="st2" d="M765.7,29.5c0-4.1,1.6-6.1,4.9-6.1s4.9,2,4.9,6.1c0,4.1-1.6,6.1-4.9,6.1S765.7,33.5,765.7,29.5z M772,32.3
		c0.3-0.6,0.4-1.5,0.4-2.8c0-1.3-0.1-2.3-0.4-2.8c-0.3-0.6-0.8-0.9-1.4-0.9s-1.1,0.3-1.4,0.9s-0.4,1.5-0.4,2.8
		c0,1.3,0.1,2.3,0.4,2.8s0.8,0.9,1.4,0.9S771.7,32.9,772,32.3z"/>
	<path class="st2" d="M782.4,29.5c0-4.1,1.6-6.1,4.9-6.1s4.9,2,4.9,6.1c0,4.1-1.6,6.1-4.9,6.1S782.4,33.5,782.4,29.5z M788.8,32.3
		c0.3-0.6,0.4-1.5,0.4-2.8c0-1.3-0.1-2.3-0.4-2.8c-0.3-0.6-0.8-0.9-1.4-0.9s-1.1,0.3-1.4,0.9s-0.4,1.5-0.4,2.8
		c0,1.3,0.1,2.3,0.4,2.8s0.8,0.9,1.4,0.9S788.5,32.9,788.8,32.3z"/>
	<path class="st2" d="M799.7,23.5v11.9h-3v-8.8c-0.9,0.8-1.9,1.3-2.8,1.5l-0.3-2.6c0.6-0.1,1.3-0.3,2-0.7s1.3-0.8,1.6-1.3H799.7z"/>
	<path class="st2" d="M807.6,23.5v11.9h-3v-8.8c-0.9,0.8-1.9,1.3-2.8,1.5l-0.3-2.6c0.6-0.1,1.3-0.3,2-0.7s1.3-0.8,1.6-1.3H807.6z"/>
	<path class="st2" d="M809.8,29.5c0-4.1,1.6-6.1,4.9-6.1s4.9,2,4.9,6.1c0,4.1-1.6,6.1-4.9,6.1S809.8,33.5,809.8,29.5z M816.2,32.3
		c0.3-0.6,0.4-1.5,0.4-2.8c0-1.3-0.1-2.3-0.4-2.8c-0.3-0.6-0.8-0.9-1.4-0.9s-1.1,0.3-1.4,0.9s-0.4,1.5-0.4,2.8
		c0,1.3,0.1,2.3,0.4,2.8s0.8,0.9,1.4,0.9S815.9,32.9,816.2,32.3z"/>
	<path class="st2" d="M821.4,29.5c0-4.1,1.6-6.1,4.9-6.1s4.9,2,4.9,6.1c0,4.1-1.6,6.1-4.9,6.1S821.4,33.5,821.4,29.5z M827.8,32.3
		c0.3-0.6,0.4-1.5,0.4-2.8c0-1.3-0.1-2.3-0.4-2.8c-0.3-0.6-0.8-0.9-1.4-0.9s-1.1,0.3-1.4,0.9s-0.4,1.5-0.4,2.8
		c0,1.3,0.1,2.3,0.4,2.8s0.8,0.9,1.4,0.9S827.5,32.9,827.8,32.3z"/>
	<path class="st2" d="M838.7,23.5v11.9h-3v-8.8c-0.9,0.8-1.9,1.3-2.8,1.5l-0.3-2.6c0.6-0.1,1.3-0.3,2-0.7s1.3-0.8,1.6-1.3H838.7z"/>
	<path class="st2" d="M840.9,29.5c0-4.1,1.6-6.1,4.9-6.1s4.9,2,4.9,6.1c0,4.1-1.6,6.1-4.9,6.1S840.9,33.5,840.9,29.5z M847.3,32.3
		c0.3-0.6,0.4-1.5,0.4-2.8c0-1.3-0.1-2.3-0.4-2.8c-0.3-0.6-0.8-0.9-1.4-0.9s-1.1,0.3-1.4,0.9s-0.4,1.5-0.4,2.8
		c0,1.3,0.1,2.3,0.4,2.8s0.8,0.9,1.4,0.9S847,32.9,847.3,32.3z"/>
	<path class="st2" d="M858.2,23.5v11.9h-3v-8.8c-0.9,0.8-1.9,1.3-2.8,1.5l-0.3-2.6c0.6-0.1,1.3-0.3,2-0.7s1.3-0.8,1.6-1.3H858.2z"/>
	<path class="st2" d="M865.5,29.5c0-4.1,1.6-6.1,4.9-6.1s4.9,2,4.9,6.1c0,4.1-1.6,6.1-4.9,6.1S865.5,33.5,865.5,29.5z M871.9,32.3
		c0.3-0.6,0.4-1.5,0.4-2.8c0-1.3-0.1-2.3-0.4-2.8c-0.3-0.6-0.8-0.9-1.4-0.9s-1.1,0.3-1.4,0.9s-0.4,1.5-0.4,2.8
		c0,1.3,0.1,2.3,0.4,2.8s0.8,0.9,1.4,0.9S871.6,32.9,871.9,32.3z"/>
	<path class="st2" d="M882.8,23.5v11.9h-3v-8.8c-0.9,0.8-1.9,1.3-2.8,1.5l-0.3-2.6c0.6-0.1,1.3-0.3,2-0.7s1.3-0.8,1.6-1.3H882.8z"/>
	<path class="st2" d="M890.7,23.5v11.9h-3v-8.8c-0.9,0.8-1.9,1.3-2.8,1.5l-0.3-2.6c0.6-0.1,1.3-0.3,2-0.7s1.3-0.8,1.6-1.3H890.7z"/>
	<path class="st2" d="M892.9,29.5c0-4.1,1.6-6.1,4.9-6.1s4.9,2,4.9,6.1c0,4.1-1.6,6.1-4.9,6.1S892.9,33.5,892.9,29.5z M899.3,32.3
		c0.3-0.6,0.4-1.5,0.4-2.8c0-1.3-0.1-2.3-0.4-2.8s-0.8-0.9-1.4-0.9s-1.1,0.3-1.4,0.9c-0.3,0.6-0.4,1.5-0.4,2.8
		c0,1.3,0.1,2.3,0.4,2.8c0.3,0.6,0.8,0.9,1.4,0.9S899,32.9,899.3,32.3z"/>
	<path class="st2" d="M910.2,23.5v11.9h-3v-8.8c-0.9,0.8-1.9,1.3-2.8,1.5l-0.3-2.6c0.6-0.1,1.3-0.3,2-0.7s1.3-0.8,1.6-1.3H910.2z"/>
	<path class="st2" d="M918.1,23.5v11.9h-3v-8.8c-0.9,0.8-1.9,1.3-2.8,1.5l-0.3-2.6c0.6-0.1,1.3-0.3,2-0.7s1.3-0.8,1.6-1.3H918.1z"/>
	<path class="st2" d="M926,23.5v11.9h-3v-8.8c-0.9,0.8-1.9,1.3-2.8,1.5l-0.3-2.6c0.6-0.1,1.3-0.3,2-0.7s1.3-0.8,1.6-1.3H926z"/>
	<path class="st2" d="M928.2,29.5c0-4.1,1.6-6.1,4.9-6.1s4.9,2,4.9,6.1c0,4.1-1.6,6.1-4.9,6.1S928.2,33.5,928.2,29.5z M934.6,32.3
		c0.3-0.6,0.4-1.5,0.4-2.8c0-1.3-0.1-2.3-0.4-2.8s-0.8-0.9-1.4-0.9s-1.1,0.3-1.4,0.9s-0.4,1.5-0.4,2.8c0,1.3,0.1,2.3,0.4,2.8
		s0.8,0.9,1.4,0.9S934.3,32.9,934.6,32.3z"/>
	<path class="st2" d="M945,29.5c0-4.1,1.6-6.1,4.9-6.1s4.9,2,4.9,6.1c0,4.1-1.6,6.1-4.9,6.1S945,33.5,945,29.5z M951.3,32.3
		c0.3-0.6,0.4-1.5,0.4-2.8c0-1.3-0.1-2.3-0.4-2.8s-0.8-0.9-1.4-0.9s-1.1,0.3-1.4,0.9s-0.4,1.5-0.4,2.8c0,1.3,0.1,2.3,0.4,2.8
		s0.8,0.9,1.4,0.9S951,32.9,951.3,32.3z"/>
	<path class="st2" d="M962.3,23.5v11.9h-3v-8.8c-0.9,0.8-1.9,1.3-2.8,1.5l-0.3-2.6c0.6-0.1,1.3-0.3,2-0.7s1.3-0.8,1.6-1.3H962.3z"/>
	<path class="st2" d="M970.2,23.5v11.9h-3v-8.8c-0.9,0.8-1.9,1.3-2.8,1.5l-0.3-2.6c0.6-0.1,1.3-0.3,2-0.7s1.3-0.8,1.6-1.3H970.2z"/>
	<path class="st2" d="M978.1,23.5v11.9h-3v-8.8c-0.9,0.8-1.9,1.3-2.8,1.5l-0.3-2.6c0.6-0.1,1.3-0.3,2-0.7s1.3-0.8,1.6-1.3H978.1z"/>
	<path class="st2" d="M980.3,29.5c0-4.1,1.6-6.1,4.9-6.1s4.9,2,4.9,6.1c0,4.1-1.6,6.1-4.9,6.1S980.3,33.5,980.3,29.5z M986.6,32.3
		c0.3-0.6,0.4-1.5,0.4-2.8c0-1.3-0.1-2.3-0.4-2.8s-0.8-0.9-1.4-0.9s-1.1,0.3-1.4,0.9s-0.4,1.5-0.4,2.8c0,1.3,0.1,2.3,0.4,2.8
		s0.8,0.9,1.4,0.9S986.3,32.9,986.6,32.3z"/>
	<path class="st2" d="M997.6,23.5v11.9h-3v-8.8c-0.9,0.8-1.9,1.3-2.8,1.5l-0.3-2.6c0.6-0.1,1.3-0.3,2-0.7s1.3-0.8,1.6-1.3H997.6z"/>
	<path class="st2" d="M999.8,29.5c0-4.1,1.6-6.1,4.9-6.1s4.9,2,4.9,6.1c0,4.1-1.6,6.1-4.9,6.1S999.8,33.5,999.8,29.5z M1006.1,32.3
		c0.3-0.6,0.4-1.5,0.4-2.8c0-1.3-0.1-2.3-0.4-2.8s-0.8-0.9-1.4-0.9s-1.1,0.3-1.4,0.9s-0.4,1.5-0.4,2.8c0,1.3,0.1,2.3,0.4,2.8
		s0.8,0.9,1.4,0.9S1005.8,32.9,1006.1,32.3z"/>
	<path class="st2" d="M1011.4,29.5c0-4.1,1.6-6.1,4.9-6.1s4.9,2,4.9,6.1c0,4.1-1.6,6.1-4.9,6.1S1011.4,33.5,1011.4,29.5z
		 M1017.7,32.3c0.3-0.6,0.4-1.5,0.4-2.8c0-1.3-0.1-2.3-0.4-2.8s-0.8-0.9-1.4-0.9s-1.1,0.3-1.4,0.9s-0.4,1.5-0.4,2.8
		c0,1.3,0.1,2.3,0.4,2.8s0.8,0.9,1.4,0.9S1017.4,32.9,1017.7,32.3z"/>
</g>
<g class="st1">
	<path class="st2" d="M612.5,51.5c0-4.1,1.6-6.1,4.9-6.1s4.9,2,4.9,6.1c0,4.1-1.6,6.1-4.9,6.1S612.5,55.5,612.5,51.5z M618.8,54.3
		c0.3-0.6,0.4-1.5,0.4-2.8c0-1.3-0.1-2.3-0.4-2.8s-0.8-0.9-1.4-0.9s-1.1,0.3-1.4,0.9c-0.3,0.6-0.4,1.5-0.4,2.8
		c0,1.3,0.1,2.3,0.4,2.8c0.3,0.6,0.8,0.9,1.4,0.9S618.5,54.9,618.8,54.3z"/>
	<path class="st2" d="M629.8,45.5v11.9h-3v-8.8c-0.9,0.8-1.9,1.3-2.8,1.5l-0.3-2.6c0.6-0.1,1.3-0.3,2-0.7s1.3-0.8,1.6-1.3H629.8z"/>
	<path class="st2" d="M637.7,45.5v11.9h-3v-8.8c-0.9,0.8-1.9,1.3-2.8,1.5l-0.3-2.6c0.6-0.1,1.3-0.3,2-0.7s1.3-0.8,1.6-1.3H637.7z"/>
	<path class="st2" d="M639.9,51.5c0-4.1,1.6-6.1,4.9-6.1s4.9,2,4.9,6.1c0,4.1-1.6,6.1-4.9,6.1S639.9,55.5,639.9,51.5z M646.2,54.3
		c0.3-0.6,0.4-1.5,0.4-2.8c0-1.3-0.1-2.3-0.4-2.8c-0.3-0.6-0.8-0.9-1.4-0.9s-1.1,0.3-1.4,0.9s-0.4,1.5-0.4,2.8
		c0,1.3,0.1,2.3,0.4,2.8s0.8,0.9,1.4,0.9S645.9,54.9,646.2,54.3z"/>
	<path class="st2" d="M657.2,45.5v11.9h-3v-8.8c-0.9,0.8-1.9,1.3-2.8,1.5l-0.3-2.6c0.6-0.1,1.3-0.3,2-0.7s1.3-0.8,1.6-1.3H657.2z"/>
	<path class="st2" d="M659.4,51.5c0-4.1,1.6-6.1,4.9-6.1s4.9,2,4.9,6.1c0,4.1-1.6,6.1-4.9,6.1S659.4,55.5,659.4,51.5z M665.7,54.3
		c0.3-0.6,0.4-1.5,0.4-2.8c0-1.3-0.1-2.3-0.4-2.8s-0.8-0.9-1.4-0.9s-1.1,0.3-1.4,0.9c-0.3,0.6-0.4,1.5-0.4,2.8
		c0,1.3,0.1,2.3,0.4,2.8c0.3,0.6,0.8,0.9,1.4,0.9S665.4,54.9,665.7,54.3z"/>
	<path class="st2" d="M671,51.5c0-4.1,1.6-6.1,4.9-6.1s4.9,2,4.9,6.1c0,4.1-1.6,6.1-4.9,6.1S671,55.5,671,51.5z M677.3,54.3
		c0.3-0.6,0.4-1.5,0.4-2.8c0-1.3-0.1-2.3-0.4-2.8s-0.8-0.9-1.4-0.9s-1.1,0.3-1.4,0.9c-0.3,0.6-0.4,1.5-0.4,2.8
		c0,1.3,0.1,2.3,0.4,2.8c0.3,0.6,0.8,0.9,1.4,0.9S677,54.9,677.3,54.3z"/>
	<path class="st2" d="M688.3,45.5v11.9h-3v-8.8c-0.9,0.8-1.9,1.3-2.8,1.5l-0.3-2.6c0.6-0.1,1.3-0.3,2-0.7s1.3-0.8,1.6-1.3H688.3z"/>
	<path class="st2" d="M695.6,51.5c0-4.1,1.6-6.1,4.9-6.1s4.9,2,4.9,6.1c0,4.1-1.6,6.1-4.9,6.1S695.6,55.5,695.6,51.5z M702,54.3
		c0.3-0.6,0.4-1.5,0.4-2.8c0-1.3-0.1-2.3-0.4-2.8c-0.3-0.6-0.8-0.9-1.4-0.9s-1.1,0.3-1.4,0.9s-0.4,1.5-0.4,2.8
		c0,1.3,0.1,2.3,0.4,2.8s0.8,0.9,1.4,0.9S701.7,54.9,702,54.3z"/>
	<path class="st2" d="M712.9,45.5v11.9h-3v-8.8c-0.9,0.8-1.9,1.3-2.8,1.5l-0.3-2.6c0.6-0.1,1.3-0.3,2-0.7s1.3-0.8,1.6-1.3H712.9z"/>
	<path class="st2" d="M720.8,45.5v11.9h-3v-8.8c-0.9,0.8-1.9,1.3-2.8,1.5l-0.3-2.6c0.6-0.1,1.3-0.3,2-0.7s1.3-0.8,1.6-1.3H720.8z"/>
	<path class="st2" d="M723,51.5c0-4.1,1.6-6.1,4.9-6.1s4.9,2,4.9,6.1c0,4.1-1.6,6.1-4.9,6.1S723,55.5,723,51.5z M729.4,54.3
		c0.3-0.6,0.4-1.5,0.4-2.8c0-1.3-0.1-2.3-0.4-2.8c-0.3-0.6-0.8-0.9-1.4-0.9s-1.1,0.3-1.4,0.9s-0.4,1.5-0.4,2.8
		c0,1.3,0.1,2.3,0.4,2.8s0.8,0.9,1.4,0.9S729.1,54.9,729.4,54.3z"/>
	<path class="st2" d="M734.6,51.5c0-4.1,1.6-6.1,4.9-6.1s4.9,2,4.9,6.1c0,4.1-1.6,6.1-4.9,6.1S734.6,55.5,734.6,51.5z M740.9,54.3
		c0.3-0.6,0.4-1.5,0.4-2.8c0-1.3-0.1-2.3-0.4-2.8s-0.8-0.9-1.4-0.9s-1.1,0.3-1.4,0.9c-0.3,0.6-0.4,1.5-0.4,2.8
		c0,1.3,0.1,2.3,0.4,2.8c0.3,0.6,0.8,0.9,1.4,0.9S740.7,54.9,740.9,54.3z"/>
	<path class="st2" d="M751.9,45.5v11.9h-3v-8.8c-0.9,0.8-1.9,1.3-2.8,1.5l-0.3-2.6c0.6-0.1,1.3-0.3,2-0.7s1.3-0.8,1.6-1.3H751.9z"/>
	<path class="st2" d="M754.1,51.5c0-4.1,1.6-6.1,4.9-6.1s4.9,2,4.9,6.1c0,4.1-1.6,6.1-4.9,6.1S754.1,55.5,754.1,51.5z M760.4,54.3
		c0.3-0.6,0.4-1.5,0.4-2.8c0-1.3-0.1-2.3-0.4-2.8c-0.3-0.6-0.8-0.9-1.4-0.9s-1.1,0.3-1.4,0.9s-0.4,1.5-0.4,2.8
		c0,1.3,0.1,2.3,0.4,2.8s0.8,0.9,1.4,0.9S760.1,54.9,760.4,54.3z"/>
	<path class="st2" d="M765.7,51.5c0-4.1,1.6-6.1,4.9-6.1s4.9,2,4.9,6.1c0,4.1-1.6,6.1-4.9,6.1S765.7,55.5,765.7,51.5z M772,54.3
		c0.3-0.6,0.4-1.5,0.4-2.8c0-1.3-0.1-2.3-0.4-2.8c-0.3-0.6-0.8-0.9-1.4-0.9s-1.1,0.3-1.4,0.9s-0.4,1.5-0.4,2.8
		c0,1.3,0.1,2.3,0.4,2.8s0.8,0.9,1.4,0.9S771.7,54.9,772,54.3z"/>
	<path class="st2" d="M782.4,51.5c0-4.1,1.6-6.1,4.9-6.1s4.9,2,4.9,6.1c0,4.1-1.6,6.1-4.9,6.1S782.4,55.5,782.4,51.5z M788.8,54.3
		c0.3-0.6,0.4-1.5,0.4-2.8c0-1.3-0.1-2.3-0.4-2.8c-0.3-0.6-0.8-0.9-1.4-0.9s-1.1,0.3-1.4,0.9s-0.4,1.5-0.4,2.8
		c0,1.3,0.1,2.3,0.4,2.8s0.8,0.9,1.4,0.9S788.5,54.9,788.8,54.3z"/>
	<path class="st2" d="M799.7,45.5v11.9h-3v-8.8c-0.9,0.8-1.9,1.3-2.8,1.5l-0.3-2.6c0.6-0.1,1.3-0.3,2-0.7s1.3-0.8,1.6-1.3H799.7z"/>
	<path class="st2" d="M807.6,45.5v11.9h-3v-8.8c-0.9,0.8-1.9,1.3-2.8,1.5l-0.3-2.6c0.6-0.1,1.3-0.3,2-0.7s1.3-0.8,1.6-1.3H807.6z"/>
	<path class="st2" d="M809.8,51.5c0-4.1,1.6-6.1,4.9-6.1s4.9,2,4.9,6.1c0,4.1-1.6,6.1-4.9,6.1S809.8,55.5,809.8,51.5z M816.2,54.3
		c0.3-0.6,0.4-1.5,0.4-2.8c0-1.3-0.1-2.3-0.4-2.8c-0.3-0.6-0.8-0.9-1.4-0.9s-1.1,0.3-1.4,0.9s-0.4,1.5-0.4,2.8
		c0,1.3,0.1,2.3,0.4,2.8s0.8,0.9,1.4,0.9S815.9,54.9,816.2,54.3z"/>
	<path class="st2" d="M821.4,51.5c0-4.1,1.6-6.1,4.9-6.1s4.9,2,4.9,6.1c0,4.1-1.6,6.1-4.9,6.1S821.4,55.5,821.4,51.5z M827.8,54.3
		c0.3-0.6,0.4-1.5,0.4-2.8c0-1.3-0.1-2.3-0.4-2.8c-0.3-0.6-0.8-0.9-1.4-0.9s-1.1,0.3-1.4,0.9s-0.4,1.5-0.4,2.8
		c0,1.3,0.1,2.3,0.4,2.8s0.8,0.9,1.4,0.9S827.5,54.9,827.8,54.3z"/>
	<path class="st2" d="M833,51.5c0-4.1,1.6-6.1,4.9-6.1s4.9,2,4.9,6.1c0,4.1-1.6,6.1-4.9,6.1S833,55.5,833,51.5z M839.4,54.3
		c0.3-0.6,0.4-1.5,0.4-2.8c0-1.3-0.1-2.3-0.4-2.8s-0.8-0.9-1.4-0.9s-1.1,0.3-1.4,0.9c-0.3,0.6-0.4,1.5-0.4,2.8
		c0,1.3,0.1,2.3,0.4,2.8c0.3,0.6,0.8,0.9,1.4,0.9S839.1,54.9,839.4,54.3z"/>
	<path class="st2" d="M844.6,51.5c0-4.1,1.6-6.1,4.9-6.1s4.9,2,4.9,6.1c0,4.1-1.6,6.1-4.9,6.1S844.6,55.5,844.6,51.5z M850.9,54.3
		c0.3-0.6,0.4-1.5,0.4-2.8c0-1.3-0.1-2.3-0.4-2.8s-0.8-0.9-1.4-0.9s-1.1,0.3-1.4,0.9c-0.3,0.6-0.4,1.5-0.4,2.8
		c0,1.3,0.1,2.3,0.4,2.8c0.3,0.6,0.8,0.9,1.4,0.9S850.7,54.9,850.9,54.3z"/>
	<path class="st2" d="M861.9,45.5v11.9h-3v-8.8c-0.9,0.8-1.9,1.3-2.8,1.5l-0.3-2.6c0.6-0.1,1.3-0.3,2-0.7s1.3-0.8,1.6-1.3H861.9z"/>
	<path class="st2" d="M869.2,51.5c0-4.1,1.6-6.1,4.9-6.1s4.9,2,4.9,6.1c0,4.1-1.6,6.1-4.9,6.1S869.2,55.5,869.2,51.5z M875.6,54.3
		c0.3-0.6,0.4-1.5,0.4-2.8c0-1.3-0.1-2.3-0.4-2.8s-0.8-0.9-1.4-0.9s-1.1,0.3-1.4,0.9c-0.3,0.6-0.4,1.5-0.4,2.8
		c0,1.3,0.1,2.3,0.4,2.8c0.3,0.6,0.8,0.9,1.4,0.9S875.3,54.9,875.6,54.3z"/>
	<path class="st2" d="M886.5,45.5v11.9h-3v-8.8c-0.9,0.8-1.9,1.3-2.8,1.5l-0.3-2.6c0.6-0.1,1.3-0.3,2-0.7s1.3-0.8,1.6-1.3H886.5z"/>
	<path class="st2" d="M894.4,45.5v11.9h-3v-8.8c-0.9,0.8-1.9,1.3-2.8,1.5l-0.3-2.6c0.6-0.1,1.3-0.3,2-0.7s1.3-0.8,1.6-1.3H894.4z"/>
	<path class="st2" d="M896.6,51.5c0-4.1,1.6-6.1,4.9-6.1s4.9,2,4.9,6.1c0,4.1-1.6,6.1-4.9,6.1S896.6,55.5,896.6,51.5z M903,54.3
		c0.3-0.6,0.4-1.5,0.4-2.8c0-1.3-0.1-2.3-0.4-2.8c-0.3-0.6-0.8-0.9-1.4-0.9s-1.1,0.3-1.4,0.9s-0.4,1.5-0.4,2.8
		c0,1.3,0.1,2.3,0.4,2.8s0.8,0.9,1.4,0.9S902.7,54.9,903,54.3z"/>
	<path class="st2" d="M908.2,51.5c0-4.1,1.6-6.1,4.9-6.1c3.3,0,4.9,2,4.9,6.1c0,4.1-1.6,6.1-4.9,6.1
		C909.9,57.6,908.2,55.5,908.2,51.5z M914.6,54.3c0.3-0.6,0.4-1.5,0.4-2.8c0-1.3-0.1-2.3-0.4-2.8c-0.3-0.6-0.8-0.9-1.4-0.9
		s-1.1,0.3-1.4,0.9c-0.3,0.6-0.4,1.5-0.4,2.8c0,1.3,0.1,2.3,0.4,2.8c0.3,0.6,0.8,0.9,1.4,0.9S914.3,54.9,914.6,54.3z"/>
	<path class="st2" d="M925.5,45.5v11.9h-3v-8.8c-0.9,0.8-1.9,1.3-2.8,1.5l-0.3-2.6c0.6-0.1,1.3-0.3,2-0.7s1.3-0.8,1.6-1.3H925.5z"/>
	<path class="st2" d="M927.7,51.5c0-4.1,1.6-6.1,4.9-6.1s4.9,2,4.9,6.1c0,4.1-1.6,6.1-4.9,6.1S927.7,55.5,927.7,51.5z M934.1,54.3
		c0.3-0.6,0.4-1.5,0.4-2.8c0-1.3-0.1-2.3-0.4-2.8s-0.8-0.9-1.4-0.9s-1.1,0.3-1.4,0.9s-0.4,1.5-0.4,2.8c0,1.3,0.1,2.3,0.4,2.8
		s0.8,0.9,1.4,0.9S933.8,54.9,934.1,54.3z"/>
	<path class="st2" d="M939.3,51.5c0-4.1,1.6-6.1,4.9-6.1s4.9,2,4.9,6.1c0,4.1-1.6,6.1-4.9,6.1S939.3,55.5,939.3,51.5z M945.7,54.3
		c0.3-0.6,0.4-1.5,0.4-2.8c0-1.3-0.1-2.3-0.4-2.8s-0.8-0.9-1.4-0.9s-1.1,0.3-1.4,0.9s-0.4,1.5-0.4,2.8c0,1.3,0.1,2.3,0.4,2.8
		s0.8,0.9,1.4,0.9S945.4,54.9,945.7,54.3z"/>
	<path class="st2" d="M956,51.5c0-4.1,1.6-6.1,4.9-6.1s4.9,2,4.9,6.1c0,4.1-1.6,6.1-4.9,6.1S956,55.5,956,51.5z M962.4,54.3
		c0.3-0.6,0.4-1.5,0.4-2.8c0-1.3-0.1-2.3-0.4-2.8s-0.8-0.9-1.4-0.9s-1.1,0.3-1.4,0.9s-0.4,1.5-0.4,2.8c0,1.3,0.1,2.3,0.4,2.8
		s0.8,0.9,1.4,0.9S962.1,54.9,962.4,54.3z"/>
	<path class="st2" d="M967.6,51.5c0-4.1,1.6-6.1,4.9-6.1s4.9,2,4.9,6.1c0,4.1-1.6,6.1-4.9,6.1S967.6,55.5,967.6,51.5z M974,54.3
		c0.3-0.6,0.4-1.5,0.4-2.8c0-1.3-0.1-2.3-0.4-2.8s-0.8-0.9-1.4-0.9s-1.1,0.3-1.4,0.9s-0.4,1.5-0.4,2.8c0,1.3,0.1,2.3,0.4,2.8
		s0.8,0.9,1.4,0.9S973.7,54.9,974,54.3z"/>
	<path class="st2" d="M984.9,45.5v11.9h-3v-8.8c-0.9,0.8-1.9,1.3-2.8,1.5l-0.3-2.6c0.6-0.1,1.3-0.3,2-0.7s1.3-0.8,1.6-1.3H984.9z"/>
	<path class="st2" d="M992.8,45.5v11.9h-3v-8.8c-0.9,0.8-1.9,1.3-2.8,1.5l-0.3-2.6c0.6-0.1,1.3-0.3,2-0.7s1.3-0.8,1.6-1.3H992.8z"/>
	<path class="st2" d="M995,51.5c0-4.1,1.6-6.1,4.9-6.1s4.9,2,4.9,6.1c0,4.1-1.6,6.1-4.9,6.1S995,55.5,995,51.5z M1001.4,54.3
		c0.3-0.6,0.4-1.5,0.4-2.8c0-1.3-0.1-2.3-0.4-2.8s-0.8-0.9-1.4-0.9s-1.1,0.3-1.4,0.9s-0.4,1.5-0.4,2.8c0,1.3,0.1,2.3,0.4,2.8
		s0.8,0.9,1.4,0.9S1001.1,54.9,1001.4,54.3z"/>
	<path class="st2" d="M1006.6,51.5c0-4.1,1.6-6.1,4.9-6.1s4.9,2,4.9,6.1c0,4.1-1.6,6.1-4.9,6.1S1006.6,55.5,1006.6,51.5z M1013,54.3
		c0.3-0.6,0.4-1.5,0.4-2.8c0-1.3-0.1-2.3-0.4-2.8s-0.8-0.9-1.4-0.9s-1.1,0.3-1.4,0.9s-0.4,1.5-0.4,2.8c0,1.3,0.1,2.3,0.4,2.8
		s0.8,0.9,1.4,0.9S1012.7,54.9,1013,54.3z"/>
	<path class="st2" d="M1018.2,51.5c0-4.1,1.6-6.1,4.9-6.1s4.9,2,4.9,6.1c0,4.1-1.6,6.1-4.9,6.1S1018.2,55.5,1018.2,51.5z
		 M1024.6,54.3c0.3-0.6,0.4-1.5,0.4-2.8c0-1.3-0.1-2.3-0.4-2.8s-0.8-0.9-1.4-0.9s-1.1,0.3-1.4,0.9s-0.4,1.5-0.4,2.8
		c0,1.3,0.1,2.3,0.4,2.8s0.8,0.9,1.4,0.9S1024.3,54.9,1024.6,54.3z"/>
	<path class="st2" d="M1035.5,45.5v11.9h-3v-8.8c-0.9,0.8-1.9,1.3-2.8,1.5l-0.3-2.6c0.6-0.1,1.3-0.3,2-0.7s1.3-0.8,1.6-1.3H1035.5z"
		/>
</g>
<g class="st1">
	<path class="st2" d="M612.5,143.1c0-4.1,1.6-6.1,4.9-6.1s4.9,2,4.9,6.1c0,4.1-1.6,6.1-4.9,6.1S612.5,147.2,612.5,143.1z M618.8,146
		c0.3-0.6,0.4-1.5,0.4-2.8c0-1.3-0.1-2.3-0.4-2.8s-0.8-0.9-1.4-0.9s-1.1,0.3-1.4,0.9c-0.3,0.6-0.4,1.5-0.4,2.8
		c0,1.3,0.1,2.3,0.4,2.8c0.3,0.6,0.8,0.9,1.4,0.9S618.5,146.6,618.8,146z"/>
	<path class="st2" d="M629.8,137.2v11.9h-3v-8.8c-0.9,0.8-1.9,1.3-2.8,1.5l-0.3-2.6c0.6-0.1,1.3-0.3,2-0.7s1.3-0.8,1.6-1.3H629.8z"
		/>
	<path class="st2" d="M637.7,137.2v11.9h-3v-8.8c-0.9,0.8-1.9,1.3-2.8,1.5l-0.3-2.6c0.6-0.1,1.3-0.3,2-0.7s1.3-0.8,1.6-1.3H637.7z"
		/>
	<path class="st2" d="M639.9,143.1c0-4.1,1.6-6.1,4.9-6.1s4.9,2,4.9,6.1c0,4.1-1.6,6.1-4.9,6.1S639.9,147.2,639.9,143.1z M646.2,146
		c0.3-0.6,0.4-1.5,0.4-2.8c0-1.3-0.1-2.3-0.4-2.8c-0.3-0.6-0.8-0.9-1.4-0.9s-1.1,0.3-1.4,0.9s-0.4,1.5-0.4,2.8
		c0,1.3,0.1,2.3,0.4,2.8s0.8,0.9,1.4,0.9S645.9,146.6,646.2,146z"/>
	<path class="st2" d="M657.2,137.2v11.9h-3v-8.8c-0.9,0.8-1.9,1.3-2.8,1.5l-0.3-2.6c0.6-0.1,1.3-0.3,2-0.7s1.3-0.8,1.6-1.3H657.2z"
		/>
	<path class="st2" d="M659.4,143.1c0-4.1,1.6-6.1,4.9-6.1s4.9,2,4.9,6.1c0,4.1-1.6,6.1-4.9,6.1S659.4,147.2,659.4,143.1z M665.7,146
		c0.3-0.6,0.4-1.5,0.4-2.8c0-1.3-0.1-2.3-0.4-2.8s-0.8-0.9-1.4-0.9s-1.1,0.3-1.4,0.9c-0.3,0.6-0.4,1.5-0.4,2.8
		c0,1.3,0.1,2.3,0.4,2.8c0.3,0.6,0.8,0.9,1.4,0.9S665.4,146.6,665.7,146z"/>
	<path class="st2" d="M671,143.1c0-4.1,1.6-6.1,4.9-6.1s4.9,2,4.9,6.1c0,4.1-1.6,6.1-4.9,6.1S671,147.2,671,143.1z M677.3,146
		c0.3-0.6,0.4-1.5,0.4-2.8c0-1.3-0.1-2.3-0.4-2.8s-0.8-0.9-1.4-0.9s-1.1,0.3-1.4,0.9c-0.3,0.6-0.4,1.5-0.4,2.8
		c0,1.3,0.1,2.3,0.4,2.8c0.3,0.6,0.8,0.9,1.4,0.9S677,146.6,677.3,146z"/>
	<path class="st2" d="M688.3,137.2v11.9h-3v-8.8c-0.9,0.8-1.9,1.3-2.8,1.5l-0.3-2.6c0.6-0.1,1.3-0.3,2-0.7s1.3-0.8,1.6-1.3H688.3z"
		/>
	<path class="st2" d="M695.6,143.1c0-4.1,1.6-6.1,4.9-6.1s4.9,2,4.9,6.1c0,4.1-1.6,6.1-4.9,6.1S695.6,147.2,695.6,143.1z M702,146
		c0.3-0.6,0.4-1.5,0.4-2.8c0-1.3-0.1-2.3-0.4-2.8c-0.3-0.6-0.8-0.9-1.4-0.9s-1.1,0.3-1.4,0.9s-0.4,1.5-0.4,2.8
		c0,1.3,0.1,2.3,0.4,2.8s0.8,0.9,1.4,0.9S701.7,146.6,702,146z"/>
	<path class="st2" d="M712.9,137.2v11.9h-3v-8.8c-0.9,0.8-1.9,1.3-2.8,1.5l-0.3-2.6c0.6-0.1,1.3-0.3,2-0.7s1.3-0.8,1.6-1.3H712.9z"
		/>
	<path class="st2" d="M720.8,137.2v11.9h-3v-8.8c-0.9,0.8-1.9,1.3-2.8,1.5l-0.3-2.6c0.6-0.1,1.3-0.3,2-0.7s1.3-0.8,1.6-1.3H720.8z"
		/>
	<path class="st2" d="M723,143.1c0-4.1,1.6-6.1,4.9-6.1s4.9,2,4.9,6.1c0,4.1-1.6,6.1-4.9,6.1S723,147.2,723,143.1z M729.4,146
		c0.3-0.6,0.4-1.5,0.4-2.8c0-1.3-0.1-2.3-0.4-2.8c-0.3-0.6-0.8-0.9-1.4-0.9s-1.1,0.3-1.4,0.9s-0.4,1.5-0.4,2.8
		c0,1.3,0.1,2.3,0.4,2.8s0.8,0.9,1.4,0.9S729.1,146.6,729.4,146z"/>
	<path class="st2" d="M734.6,143.1c0-4.1,1.6-6.1,4.9-6.1s4.9,2,4.9,6.1c0,4.1-1.6,6.1-4.9,6.1S734.6,147.2,734.6,143.1z M740.9,146
		c0.3-0.6,0.4-1.5,0.4-2.8c0-1.3-0.1-2.3-0.4-2.8s-0.8-0.9-1.4-0.9s-1.1,0.3-1.4,0.9c-0.3,0.6-0.4,1.5-0.4,2.8
		c0,1.3,0.1,2.3,0.4,2.8c0.3,0.6,0.8,0.9,1.4,0.9S740.7,146.6,740.9,146z"/>
	<path class="st2" d="M751.9,137.2v11.9h-3v-8.8c-0.9,0.8-1.9,1.3-2.8,1.5l-0.3-2.6c0.6-0.1,1.3-0.3,2-0.7s1.3-0.8,1.6-1.3H751.9z"
		/>
	<path class="st2" d="M754.1,143.1c0-4.1,1.6-6.1,4.9-6.1s4.9,2,4.9,6.1c0,4.1-1.6,6.1-4.9,6.1S754.1,147.2,754.1,143.1z M760.4,146
		c0.3-0.6,0.4-1.5,0.4-2.8c0-1.3-0.1-2.3-0.4-2.8c-0.3-0.6-0.8-0.9-1.4-0.9s-1.1,0.3-1.4,0.9s-0.4,1.5-0.4,2.8
		c0,1.3,0.1,2.3,0.4,2.8s0.8,0.9,1.4,0.9S760.1,146.6,760.4,146z"/>
	<path class="st2" d="M765.7,143.1c0-4.1,1.6-6.1,4.9-6.1s4.9,2,4.9,6.1c0,4.1-1.6,6.1-4.9,6.1S765.7,147.2,765.7,143.1z M772,146
		c0.3-0.6,0.4-1.5,0.4-2.8c0-1.3-0.1-2.3-0.4-2.8c-0.3-0.6-0.8-0.9-1.4-0.9s-1.1,0.3-1.4,0.9s-0.4,1.5-0.4,2.8
		c0,1.3,0.1,2.3,0.4,2.8s0.8,0.9,1.4,0.9S771.7,146.6,772,146z"/>
	<path class="st2" d="M782.4,143.1c0-4.1,1.6-6.1,4.9-6.1s4.9,2,4.9,6.1c0,4.1-1.6,6.1-4.9,6.1S782.4,147.2,782.4,143.1z M788.8,146
		c0.3-0.6,0.4-1.5,0.4-2.8c0-1.3-0.1-2.3-0.4-2.8c-0.3-0.6-0.8-0.9-1.4-0.9s-1.1,0.3-1.4,0.9s-0.4,1.5-0.4,2.8
		c0,1.3,0.1,2.3,0.4,2.8s0.8,0.9,1.4,0.9S788.5,146.6,788.8,146z"/>
	<path class="st2" d="M799.7,137.2v11.9h-3v-8.8c-0.9,0.8-1.9,1.3-2.8,1.5l-0.3-2.6c0.6-0.1,1.3-0.3,2-0.7s1.3-0.8,1.6-1.3H799.7z"
		/>
	<path class="st2" d="M807.6,137.2v11.9h-3v-8.8c-0.9,0.8-1.9,1.3-2.8,1.5l-0.3-2.6c0.6-0.1,1.3-0.3,2-0.7s1.3-0.8,1.6-1.3H807.6z"
		/>
	<path class="st2" d="M809.8,143.1c0-4.1,1.6-6.1,4.9-6.1s4.9,2,4.9,6.1c0,4.1-1.6,6.1-4.9,6.1S809.8,147.2,809.8,143.1z M816.2,146
		c0.3-0.6,0.4-1.5,0.4-2.8c0-1.3-0.1-2.3-0.4-2.8c-0.3-0.6-0.8-0.9-1.4-0.9s-1.1,0.3-1.4,0.9s-0.4,1.5-0.4,2.8
		c0,1.3,0.1,2.3,0.4,2.8s0.8,0.9,1.4,0.9S815.9,146.6,816.2,146z"/>
	<path class="st2" d="M821.4,143.1c0-4.1,1.6-6.1,4.9-6.1s4.9,2,4.9,6.1c0,4.1-1.6,6.1-4.9,6.1S821.4,147.2,821.4,143.1z M827.8,146
		c0.3-0.6,0.4-1.5,0.4-2.8c0-1.3-0.1-2.3-0.4-2.8c-0.3-0.6-0.8-0.9-1.4-0.9s-1.1,0.3-1.4,0.9s-0.4,1.5-0.4,2.8
		c0,1.3,0.1,2.3,0.4,2.8s0.8,0.9,1.4,0.9S827.5,146.6,827.8,146z"/>
	<path class="st2" d="M838.7,137.2v11.9h-3v-8.8c-0.9,0.8-1.9,1.3-2.8,1.5l-0.3-2.6c0.6-0.1,1.3-0.3,2-0.7s1.3-0.8,1.6-1.3H838.7z"
		/>
	<path class="st2" d="M840.9,143.1c0-4.1,1.6-6.1,4.9-6.1s4.9,2,4.9,6.1c0,4.1-1.6,6.1-4.9,6.1S840.9,147.2,840.9,143.1z M847.3,146
		c0.3-0.6,0.4-1.5,0.4-2.8c0-1.3-0.1-2.3-0.4-2.8c-0.3-0.6-0.8-0.9-1.4-0.9s-1.1,0.3-1.4,0.9s-0.4,1.5-0.4,2.8
		c0,1.3,0.1,2.3,0.4,2.8s0.8,0.9,1.4,0.9S847,146.6,847.3,146z"/>
	<path class="st2" d="M858.2,137.2v11.9h-3v-8.8c-0.9,0.8-1.9,1.3-2.8,1.5l-0.3-2.6c0.6-0.1,1.3-0.3,2-0.7s1.3-0.8,1.6-1.3H858.2z"
		/>
	<path class="st2" d="M865.5,143.1c0-4.1,1.6-6.1,4.9-6.1s4.9,2,4.9,6.1c0,4.1-1.6,6.1-4.9,6.1S865.5,147.2,865.5,143.1z M871.9,146
		c0.3-0.6,0.4-1.5,0.4-2.8c0-1.3-0.1-2.3-0.4-2.8c-0.3-0.6-0.8-0.9-1.4-0.9s-1.1,0.3-1.4,0.9s-0.4,1.5-0.4,2.8
		c0,1.3,0.1,2.3,0.4,2.8s0.8,0.9,1.4,0.9S871.6,146.6,871.9,146z"/>
	<path class="st2" d="M882.8,137.2v11.9h-3v-8.8c-0.9,0.8-1.9,1.3-2.8,1.5l-0.3-2.6c0.6-0.1,1.3-0.3,2-0.7s1.3-0.8,1.6-1.3H882.8z"
		/>
	<path class="st2" d="M890.7,137.2v11.9h-3v-8.8c-0.9,0.8-1.9,1.3-2.8,1.5l-0.3-2.6c0.6-0.1,1.3-0.3,2-0.7s1.3-0.8,1.6-1.3H890.7z"
		/>
	<path class="st2" d="M892.9,143.1c0-4.1,1.6-6.1,4.9-6.1s4.9,2,4.9,6.1c0,4.1-1.6,6.1-4.9,6.1S892.9,147.2,892.9,143.1z M899.3,146
		c0.3-0.6,0.4-1.5,0.4-2.8c0-1.3-0.1-2.3-0.4-2.8s-0.8-0.9-1.4-0.9s-1.1,0.3-1.4,0.9c-0.3,0.6-0.4,1.5-0.4,2.8
		c0,1.3,0.1,2.3,0.4,2.8c0.3,0.6,0.8,0.9,1.4,0.9S899,146.6,899.3,146z"/>
	<path class="st2" d="M910.2,137.2v11.9h-3v-8.8c-0.9,0.8-1.9,1.3-2.8,1.5l-0.3-2.6c0.6-0.1,1.3-0.3,2-0.7s1.3-0.8,1.6-1.3H910.2z"
		/>
	<path class="st2" d="M918.1,137.2v11.9h-3v-8.8c-0.9,0.8-1.9,1.3-2.8,1.5l-0.3-2.6c0.6-0.1,1.3-0.3,2-0.7s1.3-0.8,1.6-1.3H918.1z"
		/>
	<path class="st2" d="M926,137.2v11.9h-3v-8.8c-0.9,0.8-1.9,1.3-2.8,1.5l-0.3-2.6c0.6-0.1,1.3-0.3,2-0.7s1.3-0.8,1.6-1.3H926z"/>
	<path class="st2" d="M928.2,143.1c0-4.1,1.6-6.1,4.9-6.1s4.9,2,4.9,6.1c0,4.1-1.6,6.1-4.9,6.1S928.2,147.2,928.2,143.1z M934.6,146
		c0.3-0.6,0.4-1.5,0.4-2.8c0-1.3-0.1-2.3-0.4-2.8s-0.8-0.9-1.4-0.9s-1.1,0.3-1.4,0.9s-0.4,1.5-0.4,2.8c0,1.3,0.1,2.3,0.4,2.8
		s0.8,0.9,1.4,0.9S934.3,146.6,934.6,146z"/>
	<path class="st2" d="M945,143.1c0-4.1,1.6-6.1,4.9-6.1s4.9,2,4.9,6.1c0,4.1-1.6,6.1-4.9,6.1S945,147.2,945,143.1z M951.3,146
		c0.3-0.6,0.4-1.5,0.4-2.8c0-1.3-0.1-2.3-0.4-2.8s-0.8-0.9-1.4-0.9s-1.1,0.3-1.4,0.9s-0.4,1.5-0.4,2.8c0,1.3,0.1,2.3,0.4,2.8
		s0.8,0.9,1.4,0.9S951,146.6,951.3,146z"/>
	<path class="st2" d="M962.3,137.2v11.9h-3v-8.8c-0.9,0.8-1.9,1.3-2.8,1.5l-0.3-2.6c0.6-0.1,1.3-0.3,2-0.7s1.3-0.8,1.6-1.3H962.3z"
		/>
	<path class="st2" d="M970.2,137.2v11.9h-3v-8.8c-0.9,0.8-1.9,1.3-2.8,1.5l-0.3-2.6c0.6-0.1,1.3-0.3,2-0.7s1.3-0.8,1.6-1.3H970.2z"
		/>
	<path class="st2" d="M978.1,137.2v11.9h-3v-8.8c-0.9,0.8-1.9,1.3-2.8,1.5l-0.3-2.6c0.6-0.1,1.3-0.3,2-0.7s1.3-0.8,1.6-1.3H978.1z"
		/>
	<path class="st2" d="M980.3,143.1c0-4.1,1.6-6.1,4.9-6.1s4.9,2,4.9,6.1c0,4.1-1.6,6.1-4.9,6.1S980.3,147.2,980.3,143.1z M986.6,146
		c0.3-0.6,0.4-1.5,0.4-2.8c0-1.3-0.1-2.3-0.4-2.8s-0.8-0.9-1.4-0.9s-1.1,0.3-1.4,0.9s-0.4,1.5-0.4,2.8c0,1.3,0.1,2.3,0.4,2.8
		s0.8,0.9,1.4,0.9S986.3,146.6,986.6,146z"/>
	<path class="st2" d="M997.6,137.2v11.9h-3v-8.8c-0.9,0.8-1.9,1.3-2.8,1.5l-0.3-2.6c0.6-0.1,1.3-0.3,2-0.7s1.3-0.8,1.6-1.3H997.6z"
		/>
	<path class="st2" d="M999.8,143.1c0-4.1,1.6-6.1,4.9-6.1s4.9,2,4.9,6.1c0,4.1-1.6,6.1-4.9,6.1S999.8,147.2,999.8,143.1z
		 M1006.1,146c0.3-0.6,0.4-1.5,0.4-2.8c0-1.3-0.1-2.3-0.4-2.8s-0.8-0.9-1.4-0.9s-1.1,0.3-1.4,0.9s-0.4,1.5-0.4,2.8
		c0,1.3,0.1,2.3,0.4,2.8s0.8,0.9,1.4,0.9S1005.8,146.6,1006.1,146z"/>
	<path class="st2" d="M1011.4,143.1c0-4.1,1.6-6.1,4.9-6.1s4.9,2,4.9,6.1c0,4.1-1.6,6.1-4.9,6.1S1011.4,147.2,1011.4,143.1z
		 M1017.7,146c0.3-0.6,0.4-1.5,0.4-2.8c0-1.3-0.1-2.3-0.4-2.8s-0.8-0.9-1.4-0.9s-1.1,0.3-1.4,0.9s-0.4,1.5-0.4,2.8
		c0,1.3,0.1,2.3,0.4,2.8s0.8,0.9,1.4,0.9S1017.4,146.6,1017.7,146z"/>
</g>
<g class="st1">
	<path class="st2" d="M612.5,165.1c0-4.1,1.6-6.1,4.9-6.1s4.9,2,4.9,6.1c0,4.1-1.6,6.1-4.9,6.1S612.5,169.2,612.5,165.1z M618.8,168
		c0.3-0.6,0.4-1.5,0.4-2.8c0-1.3-0.1-2.3-0.4-2.8s-0.8-0.9-1.4-0.9s-1.1,0.3-1.4,0.9c-0.3,0.6-0.4,1.5-0.4,2.8
		c0,1.3,0.1,2.3,0.4,2.8c0.3,0.6,0.8,0.9,1.4,0.9S618.5,168.6,618.8,168z"/>
	<path class="st2" d="M629.8,159.2v11.9h-3v-8.8c-0.9,0.8-1.9,1.3-2.8,1.5l-0.3-2.6c0.6-0.1,1.3-0.3,2-0.7s1.3-0.8,1.6-1.3H629.8z"
		/>
	<path class="st2" d="M637.7,159.2v11.9h-3v-8.8c-0.9,0.8-1.9,1.3-2.8,1.5l-0.3-2.6c0.6-0.1,1.3-0.3,2-0.7s1.3-0.8,1.6-1.3H637.7z"
		/>
	<path class="st2" d="M639.9,165.1c0-4.1,1.6-6.1,4.9-6.1s4.9,2,4.9,6.1c0,4.1-1.6,6.1-4.9,6.1S639.9,169.2,639.9,165.1z M646.2,168
		c0.3-0.6,0.4-1.5,0.4-2.8c0-1.3-0.1-2.3-0.4-2.8c-0.3-0.6-0.8-0.9-1.4-0.9s-1.1,0.3-1.4,0.9s-0.4,1.5-0.4,2.8
		c0,1.3,0.1,2.3,0.4,2.8s0.8,0.9,1.4,0.9S645.9,168.6,646.2,168z"/>
	<path class="st2" d="M657.2,159.2v11.9h-3v-8.8c-0.9,0.8-1.9,1.3-2.8,1.5l-0.3-2.6c0.6-0.1,1.3-0.3,2-0.7s1.3-0.8,1.6-1.3H657.2z"
		/>
	<path class="st2" d="M659.4,165.1c0-4.1,1.6-6.1,4.9-6.1s4.9,2,4.9,6.1c0,4.1-1.6,6.1-4.9,6.1S659.4,169.2,659.4,165.1z M665.7,168
		c0.3-0.6,0.4-1.5,0.4-2.8c0-1.3-0.1-2.3-0.4-2.8s-0.8-0.9-1.4-0.9s-1.1,0.3-1.4,0.9c-0.3,0.6-0.4,1.5-0.4,2.8
		c0,1.3,0.1,2.3,0.4,2.8c0.3,0.6,0.8,0.9,1.4,0.9S665.4,168.6,665.7,168z"/>
	<path class="st2" d="M671,165.1c0-4.1,1.6-6.1,4.9-6.1s4.9,2,4.9,6.1c0,4.1-1.6,6.1-4.9,6.1S671,169.2,671,165.1z M677.3,168
		c0.3-0.6,0.4-1.5,0.4-2.8c0-1.3-0.1-2.3-0.4-2.8s-0.8-0.9-1.4-0.9s-1.1,0.3-1.4,0.9c-0.3,0.6-0.4,1.5-0.4,2.8
		c0,1.3,0.1,2.3,0.4,2.8c0.3,0.6,0.8,0.9,1.4,0.9S677,168.6,677.3,168z"/>
	<path class="st2" d="M688.3,159.2v11.9h-3v-8.8c-0.9,0.8-1.9,1.3-2.8,1.5l-0.3-2.6c0.6-0.1,1.3-0.3,2-0.7s1.3-0.8,1.6-1.3H688.3z"
		/>
	<path class="st2" d="M695.6,165.1c0-4.1,1.6-6.1,4.9-6.1s4.9,2,4.9,6.1c0,4.1-1.6,6.1-4.9,6.1S695.6,169.2,695.6,165.1z M702,168
		c0.3-0.6,0.4-1.5,0.4-2.8c0-1.3-0.1-2.3-0.4-2.8c-0.3-0.6-0.8-0.9-1.4-0.9s-1.1,0.3-1.4,0.9s-0.4,1.5-0.4,2.8
		c0,1.3,0.1,2.3,0.4,2.8s0.8,0.9,1.4,0.9S701.7,168.6,702,168z"/>
	<path class="st2" d="M712.9,159.2v11.9h-3v-8.8c-0.9,0.8-1.9,1.3-2.8,1.5l-0.3-2.6c0.6-0.1,1.3-0.3,2-0.7s1.3-0.8,1.6-1.3H712.9z"
		/>
	<path class="st2" d="M720.8,159.2v11.9h-3v-8.8c-0.9,0.8-1.9,1.3-2.8,1.5l-0.3-2.6c0.6-0.1,1.3-0.3,2-0.7s1.3-0.8,1.6-1.3H720.8z"
		/>
	<path class="st2" d="M723,165.1c0-4.1,1.6-6.1,4.9-6.1s4.9,2,4.9,6.1c0,4.1-1.6,6.1-4.9,6.1S723,169.2,723,165.1z M729.4,168
		c0.3-0.6,0.4-1.5,0.4-2.8c0-1.3-0.1-2.3-0.4-2.8c-0.3-0.6-0.8-0.9-1.4-0.9s-1.1,0.3-1.4,0.9s-0.4,1.5-0.4,2.8
		c0,1.3,0.1,2.3,0.4,2.8s0.8,0.9,1.4,0.9S729.1,168.6,729.4,168z"/>
	<path class="st2" d="M734.6,165.1c0-4.1,1.6-6.1,4.9-6.1s4.9,2,4.9,6.1c0,4.1-1.6,6.1-4.9,6.1S734.6,169.2,734.6,165.1z M740.9,168
		c0.3-0.6,0.4-1.5,0.4-2.8c0-1.3-0.1-2.3-0.4-2.8s-0.8-0.9-1.4-0.9s-1.1,0.3-1.4,0.9c-0.3,0.6-0.4,1.5-0.4,2.8
		c0,1.3,0.1,2.3,0.4,2.8c0.3,0.6,0.8,0.9,1.4,0.9S740.7,168.6,740.9,168z"/>
	<path class="st2" d="M751.9,159.2v11.9h-3v-8.8c-0.9,0.8-1.9,1.3-2.8,1.5l-0.3-2.6c0.6-0.1,1.3-0.3,2-0.7s1.3-0.8,1.6-1.3H751.9z"
		/>
	<path class="st2" d="M754.1,165.1c0-4.1,1.6-6.1,4.9-6.1s4.9,2,4.9,6.1c0,4.1-1.6,6.1-4.9,6.1S754.1,169.2,754.1,165.1z M760.4,168
		c0.3-0.6,0.4-1.5,0.4-2.8c0-1.3-0.1-2.3-0.4-2.8c-0.3-0.6-0.8-0.9-1.4-0.9s-1.1,0.3-1.4,0.9s-0.4,1.5-0.4,2.8
		c0,1.3,0.1,2.3,0.4,2.8s0.8,0.9,1.4,0.9S760.1,168.6,760.4,168z"/>
	<path class="st2" d="M765.7,165.1c0-4.1,1.6-6.1,4.9-6.1s4.9,2,4.9,6.1c0,4.1-1.6,6.1-4.9,6.1S765.7,169.2,765.7,165.1z M772,168
		c0.3-0.6,0.4-1.5,0.4-2.8c0-1.3-0.1-2.3-0.4-2.8c-0.3-0.6-0.8-0.9-1.4-0.9s-1.1,0.3-1.4,0.9s-0.4,1.5-0.4,2.8
		c0,1.3,0.1,2.3,0.4,2.8s0.8,0.9,1.4,0.9S771.7,168.6,772,168z"/>
	<path class="st2" d="M782.4,165.1c0-4.1,1.6-6.1,4.9-6.1s4.9,2,4.9,6.1c0,4.1-1.6,6.1-4.9,6.1S782.4,169.2,782.4,165.1z M788.8,168
		c0.3-0.6,0.4-1.5,0.4-2.8c0-1.3-0.1-2.3-0.4-2.8c-0.3-0.6-0.8-0.9-1.4-0.9s-1.1,0.3-1.4,0.9s-0.4,1.5-0.4,2.8
		c0,1.3,0.1,2.3,0.4,2.8s0.8,0.9,1.4,0.9S788.5,168.6,788.8,168z"/>
	<path class="st2" d="M799.7,159.2v11.9h-3v-8.8c-0.9,0.8-1.9,1.3-2.8,1.5l-0.3-2.6c0.6-0.1,1.3-0.3,2-0.7s1.3-0.8,1.6-1.3H799.7z"
		/>
	<path class="st2" d="M807.6,159.2v11.9h-3v-8.8c-0.9,0.8-1.9,1.3-2.8,1.5l-0.3-2.6c0.6-0.1,1.3-0.3,2-0.7s1.3-0.8,1.6-1.3H807.6z"
		/>
	<path class="st2" d="M809.8,165.1c0-4.1,1.6-6.1,4.9-6.1s4.9,2,4.9,6.1c0,4.1-1.6,6.1-4.9,6.1S809.8,169.2,809.8,165.1z M816.2,168
		c0.3-0.6,0.4-1.5,0.4-2.8c0-1.3-0.1-2.3-0.4-2.8c-0.3-0.6-0.8-0.9-1.4-0.9s-1.1,0.3-1.4,0.9s-0.4,1.5-0.4,2.8
		c0,1.3,0.1,2.3,0.4,2.8s0.8,0.9,1.4,0.9S815.9,168.6,816.2,168z"/>
	<path class="st2" d="M821.4,165.1c0-4.1,1.6-6.1,4.9-6.1s4.9,2,4.9,6.1c0,4.1-1.6,6.1-4.9,6.1S821.4,169.2,821.4,165.1z M827.8,168
		c0.3-0.6,0.4-1.5,0.4-2.8c0-1.3-0.1-2.3-0.4-2.8c-0.3-0.6-0.8-0.9-1.4-0.9s-1.1,0.3-1.4,0.9s-0.4,1.5-0.4,2.8
		c0,1.3,0.1,2.3,0.4,2.8s0.8,0.9,1.4,0.9S827.5,168.6,827.8,168z"/>
	<path class="st2" d="M833,165.1c0-4.1,1.6-6.1,4.9-6.1s4.9,2,4.9,6.1c0,4.1-1.6,6.1-4.9,6.1S833,169.2,833,165.1z M839.4,168
		c0.3-0.6,0.4-1.5,0.4-2.8c0-1.3-0.1-2.3-0.4-2.8s-0.8-0.9-1.4-0.9s-1.1,0.3-1.4,0.9c-0.3,0.6-0.4,1.5-0.4,2.8
		c0,1.3,0.1,2.3,0.4,2.8c0.3,0.6,0.8,0.9,1.4,0.9S839.1,168.6,839.4,168z"/>
	<path class="st2" d="M844.6,165.1c0-4.1,1.6-6.1,4.9-6.1s4.9,2,4.9,6.1c0,4.1-1.6,6.1-4.9,6.1S844.6,169.2,844.6,165.1z M850.9,168
		c0.3-0.6,0.4-1.5,0.4-2.8c0-1.3-0.1-2.3-0.4-2.8s-0.8-0.9-1.4-0.9s-1.1,0.3-1.4,0.9c-0.3,0.6-0.4,1.5-0.4,2.8
		c0,1.3,0.1,2.3,0.4,2.8c0.3,0.6,0.8,0.9,1.4,0.9S850.7,168.6,850.9,168z"/>
	<path class="st2" d="M861.9,159.2v11.9h-3v-8.8c-0.9,0.8-1.9,1.3-2.8,1.5l-0.3-2.6c0.6-0.1,1.3-0.3,2-0.7s1.3-0.8,1.6-1.3H861.9z"
		/>
	<path class="st2" d="M869.2,165.1c0-4.1,1.6-6.1,4.9-6.1s4.9,2,4.9,6.1c0,4.1-1.6,6.1-4.9,6.1S869.2,169.2,869.2,165.1z M875.6,168
		c0.3-0.6,0.4-1.5,0.4-2.8c0-1.3-0.1-2.3-0.4-2.8s-0.8-0.9-1.4-0.9s-1.1,0.3-1.4,0.9c-0.3,0.6-0.4,1.5-0.4,2.8
		c0,1.3,0.1,2.3,0.4,2.8c0.3,0.6,0.8,0.9,1.4,0.9S875.3,168.6,875.6,168z"/>
	<path class="st2" d="M886.5,159.2v11.9h-3v-8.8c-0.9,0.8-1.9,1.3-2.8,1.5l-0.3-2.6c0.6-0.1,1.3-0.3,2-0.7s1.3-0.8,1.6-1.3H886.5z"
		/>
	<path class="st2" d="M894.4,159.2v11.9h-3v-8.8c-0.9,0.8-1.9,1.3-2.8,1.5l-0.3-2.6c0.6-0.1,1.3-0.3,2-0.7s1.3-0.8,1.6-1.3H894.4z"
		/>
	<path class="st2" d="M896.6,165.1c0-4.1,1.6-6.1,4.9-6.1s4.9,2,4.9,6.1c0,4.1-1.6,6.1-4.9,6.1S896.6,169.2,896.6,165.1z M903,168
		c0.3-0.6,0.4-1.5,0.4-2.8c0-1.3-0.1-2.3-0.4-2.8c-0.3-0.6-0.8-0.9-1.4-0.9s-1.1,0.3-1.4,0.9s-0.4,1.5-0.4,2.8
		c0,1.3,0.1,2.3,0.4,2.8s0.8,0.9,1.4,0.9S902.7,168.6,903,168z"/>
	<path class="st2" d="M908.2,165.1c0-4.1,1.6-6.1,4.9-6.1c3.3,0,4.9,2,4.9,6.1c0,4.1-1.6,6.1-4.9,6.1
		C909.9,171.3,908.2,169.2,908.2,165.1z M914.6,168c0.3-0.6,0.4-1.5,0.4-2.8c0-1.3-0.1-2.3-0.4-2.8c-0.3-0.6-0.8-0.9-1.4-0.9
		s-1.1,0.3-1.4,0.9c-0.3,0.6-0.4,1.5-0.4,2.8c0,1.3,0.1,2.3,0.4,2.8c0.3,0.6,0.8,0.9,1.4,0.9S914.3,168.6,914.6,168z"/>
	<path class="st2" d="M925.5,159.2v11.9h-3v-8.8c-0.9,0.8-1.9,1.3-2.8,1.5l-0.3-2.6c0.6-0.1,1.3-0.3,2-0.7s1.3-0.8,1.6-1.3H925.5z"
		/>
	<path class="st2" d="M927.7,165.1c0-4.1,1.6-6.1,4.9-6.1s4.9,2,4.9,6.1c0,4.1-1.6,6.1-4.9,6.1S927.7,169.2,927.7,165.1z M934.1,168
		c0.3-0.6,0.4-1.5,0.4-2.8c0-1.3-0.1-2.3-0.4-2.8s-0.8-0.9-1.4-0.9s-1.1,0.3-1.4,0.9s-0.4,1.5-0.4,2.8c0,1.3,0.1,2.3,0.4,2.8
		s0.8,0.9,1.4,0.9S933.8,168.6,934.1,168z"/>
	<path class="st2" d="M939.3,165.1c0-4.1,1.6-6.1,4.9-6.1s4.9,2,4.9,6.1c0,4.1-1.6,6.1-4.9,6.1S939.3,169.2,939.3,165.1z M945.7,168
		c0.3-0.6,0.4-1.5,0.4-2.8c0-1.3-0.1-2.3-0.4-2.8s-0.8-0.9-1.4-0.9s-1.1,0.3-1.4,0.9s-0.4,1.5-0.4,2.8c0,1.3,0.1,2.3,0.4,2.8
		s0.8,0.9,1.4,0.9S945.4,168.6,945.7,168z"/>
	<path class="st2" d="M956,165.1c0-4.1,1.6-6.1,4.9-6.1s4.9,2,4.9,6.1c0,4.1-1.6,6.1-4.9,6.1S956,169.2,956,165.1z M962.4,168
		c0.3-0.6,0.4-1.5,0.4-2.8c0-1.3-0.1-2.3-0.4-2.8s-0.8-0.9-1.4-0.9s-1.1,0.3-1.4,0.9s-0.4,1.5-0.4,2.8c0,1.3,0.1,2.3,0.4,2.8
		s0.8,0.9,1.4,0.9S962.1,168.6,962.4,168z"/>
	<path class="st2" d="M967.6,165.1c0-4.1,1.6-6.1,4.9-6.1s4.9,2,4.9,6.1c0,4.1-1.6,6.1-4.9,6.1S967.6,169.2,967.6,165.1z M974,168
		c0.3-0.6,0.4-1.5,0.4-2.8c0-1.3-0.1-2.3-0.4-2.8s-0.8-0.9-1.4-0.9s-1.1,0.3-1.4,0.9s-0.4,1.5-0.4,2.8c0,1.3,0.1,2.3,0.4,2.8
		s0.8,0.9,1.4,0.9S973.7,168.6,974,168z"/>
	<path class="st2" d="M984.9,159.2v11.9h-3v-8.8c-0.9,0.8-1.9,1.3-2.8,1.5l-0.3-2.6c0.6-0.1,1.3-0.3,2-0.7s1.3-0.8,1.6-1.3H984.9z"
		/>
	<path class="st2" d="M992.8,159.2v11.9h-3v-8.8c-0.9,0.8-1.9,1.3-2.8,1.5l-0.3-2.6c0.6-0.1,1.3-0.3,2-0.7s1.3-0.8,1.6-1.3H992.8z"
		/>
	<path class="st2" d="M995,165.1c0-4.1,1.6-6.1,4.9-6.1s4.9,2,4.9,6.1c0,4.1-1.6,6.1-4.9,6.1S995,169.2,995,165.1z M1001.4,168
		c0.3-0.6,0.4-1.5,0.4-2.8c0-1.3-0.1-2.3-0.4-2.8s-0.8-0.9-1.4-0.9s-1.1,0.3-1.4,0.9s-0.4,1.5-0.4,2.8c0,1.3,0.1,2.3,0.4,2.8
		s0.8,0.9,1.4,0.9S1001.1,168.6,1001.4,168z"/>
	<path class="st2" d="M1006.6,165.1c0-4.1,1.6-6.1,4.9-6.1s4.9,2,4.9,6.1c0,4.1-1.6,6.1-4.9,6.1S1006.6,169.2,1006.6,165.1z
		 M1013,168c0.3-0.6,0.4-1.5,0.4-2.8c0-1.3-0.1-2.3-0.4-2.8s-0.8-0.9-1.4-0.9s-1.1,0.3-1.4,0.9s-0.4,1.5-0.4,2.8
		c0,1.3,0.1,2.3,0.4,2.8s0.8,0.9,1.4,0.9S1012.7,168.6,1013,168z"/>
	<path class="st2" d="M1023.9,159.2v11.9h-3v-8.8c-0.9,0.8-1.9,1.3-2.8,1.5l-0.3-2.6c0.6-0.1,1.3-0.3,2-0.7s1.3-0.8,1.6-1.3H1023.9z
		"/>
	<path class="st2" d="M1026.1,165.1c0-4.1,1.6-6.1,4.9-6.1s4.9,2,4.9,6.1c0,4.1-1.6,6.1-4.9,6.1S1026.1,169.2,1026.1,165.1z
		 M1032.5,168c0.3-0.6,0.4-1.5,0.4-2.8c0-1.3-0.1-2.3-0.4-2.8s-0.8-0.9-1.4-0.9s-1.1,0.3-1.4,0.9s-0.4,1.5-0.4,2.8
		c0,1.3,0.1,2.3,0.4,2.8s0.8,0.9,1.4,0.9S1032.2,168.6,1032.5,168z"/>
</g>
<path class="st0" d="M539.7,51.1c-0.1-4.6-2.2-9-5.8-11.9c-1.9-1.6-4-2.8-6.3-3.6c4.2-2.7,5.4-8.2,2.7-12.4
	c-0.3-0.4-0.5-0.8-0.8-1.1c-3.3-3.7-8.9-4-12.6-0.7c-0.1,0.1-0.2,0.2-0.3,0.3c-1.7,1.6-2.7,3.8-2.7,6.1c-0.1,3.1,1.5,6.1,4.1,7.8
	c-2.4,0.9-4.7,2.3-6.7,4c-3.2,2.9-5.1,6.9-5.4,11.2c0,0.8-0.4,1.9,0.8,2s1-1.1,1.1-1.8c0.2-4.5,2.5-8.7,6.3-11.2
	c6.6-4.8,15.9-3.3,20.7,3.4c0.7,0.9,1.2,1.9,1.6,2.9c0.7,1.8,0.8,3.8,1.3,5.7c0.1,0.4,0.4,0.8,0.8,1.1c0.2,0.1,0.7-0.2,0.9-0.5
	C539.7,51.8,539.7,51.4,539.7,51.1z M522.7,34.9c-3.9-0.1-6.9-3.3-6.8-7.2c0.1-3.9,3.3-6.9,7.2-6.8c3.9,0.1,6.9,3.3,6.8,7.2
	c0,0,0,0.1,0,0.1C529.7,32,526.6,35,522.7,34.9C522.7,34.9,522.7,34.9,522.7,34.9L522.7,34.9z"/>
<circle class="st3" cx="84.2" cy="95.1" r="82.7"/>
<path class="st0" d="M40,83.3c-4.1-5.5-4-11.3,0.1-15.2c3.9-3.7,9.9-3.9,14-0.5c4.7,4.1,5,9.4,0.7,15.7c6,2.8,10.3,8.3,11.4,14.9
	l8.5-3.8c-5.8-4.2-9.1-9.8-9-17.1c0-5.1,2.1-10,5.8-13.5c7.6-7.6,20-7.5,27.6,0.1c0.2,0.2,0.5,0.5,0.7,0.7
	c6.9,7.6,7.7,21.6-4.2,29.8l8.6,3.7c1.6-7.3,3.4-9.6,11.2-15c-4.1-6.6-3.7-11.8,1-15.7c4-3.2,9.6-3.1,13.5,0.2
	c4.4,3.9,4.6,9.3,0.8,15.1c2.5,2.2,5,4.3,7.3,6.6c2.6,2.8,3.6,6.4,3.9,10.2c0.1,1.4,0.1,3.1-1.9,3.2s-2.3-1.4-2.4-2.9
	c-0.5-8.1-7.5-14.2-15.6-13.7c-1.6,0.1-3.3,0.5-4.8,1.1c-5.3,2.3-8.3,6.7-8.8,12.4c0,1,0.4,1.9,1.2,2.5c7.7,6.6,12.3,16.1,12.7,26.2
	c0.1,0.8,0,1.7-0.3,2.5c-0.4,0.6-1.7,1.3-2,1.1c-0.9-0.5-1.5-1.4-1.8-2.3c-1-4.2-1.3-8.6-2.9-12.5c-7.9-19.3-31.9-26-49-13.9
	c-8.4,6-13,14.3-13.8,24.7c-0.1,1.7,0.3,4.2-2.3,4.1s-1.9-2.6-1.8-4.3c0.5-9.5,4.7-18.3,11.8-24.6c1.6-1.2,2.3-3.2,1.8-5.2
	c-1.4-6.9-7.5-11.8-14.5-11.8c-7.1,0-13.1,5-14.3,12c-0.1,0.8-0.3,1.5-0.3,2.3c-0.1,1.4-0.7,2.5-2.3,2.3s-1.9-1.3-1.8-2.8
	c0.3-6.8,4.2-13,10.4-16.1C39.2,83.7,39.5,83.5,40,83.3z M69.8,77.2C69.5,85.6,76,92.6,84.4,93c0.1,0,0.3,0,0.4,0
	c8.8,0.3,15.3-6.2,15.7-14.8c0.4-8.3-6.1-15.3-14.7-15.8c-8.4-0.4-15.6,6.1-15.9,14.5C69.8,77,69.8,77.1,69.8,77.2z M41.1,75.7
	c0,3.5,2.9,6.2,6.3,6.2c3.5,0,6.2-2.9,6.2-6.3c0-3.5-2.9-6.2-6.3-6.2C43.8,69.4,41.1,72.2,41.1,75.7L41.1,75.7z M129.1,75.7
	c0.1-3.4-2.6-6.3-6.1-6.4c-0.1,0-0.1,0-0.2,0c-3.5,0.1-6.2,2.9-6.3,6.4c0.1,3.4,2.8,6.1,6.2,6.2c3.3,0.1,6.2-2.5,6.3-5.8
	C129.1,76,129.1,75.8,129.1,75.7L129.1,75.7z"/>
<circle class="st3" cx="522.3" cy="37.3" r="33.5"/>
<path class="st0" d="M539.7,167.2c-0.1-4.6-2.2-9-5.8-11.9c-1.9-1.6-4-2.8-6.3-3.6c4.2-2.7,5.4-8.2,2.8-12.4
	c-0.3-0.4-0.6-0.8-0.9-1.2c-3.3-3.7-8.9-4-12.6-0.7c-0.1,0.1-0.2,0.2-0.3,0.3c-1.7,1.6-2.7,3.8-2.7,6.1c-0.1,3.1,1.5,6.1,4.1,7.8
	c-2.4,0.9-4.7,2.3-6.7,4c-3.2,2.9-5.1,6.9-5.4,11.2c0,0.8-0.4,1.9,0.8,1.9s1-1.1,1.1-1.8c0.2-4.5,2.5-8.7,6.3-11.3
	c6.6-4.8,15.9-3.3,20.7,3.3c0.7,0.9,1.2,1.9,1.7,3c0.7,1.8,0.8,3.8,1.3,5.7c0.1,0.4,0.4,0.8,0.8,1.1c0.2,0.1,0.7-0.2,0.9-0.5
	C539.7,167.9,539.7,167.5,539.7,167.2z M522.7,151c-3.9-0.1-6.9-3.3-6.8-7.2c0.1-3.9,3.3-6.9,7.2-6.8c3.9,0.1,6.9,3.3,6.8,7.2
	c0,0,0,0.1,0,0.1C529.8,148.1,526.6,151.1,522.7,151C522.7,151,522.7,151,522.7,151L522.7,151z"/>
<circle class="st3" cx="522.3" cy="153.4" r="33.5"/>
<path class="st2" d="M272.9,97h-3.8l-0.9,2.3h-1.5l3.4-9h1.7l3.4,9h-1.5L272.9,97z M272.5,95.8l-1-2.9l-0.4-1.3l0,0l-0.4,1.3
	l-1.1,2.9L272.5,95.8z"/>
<path class="st2" d="M284,98.1v1.3h-6.4v-9h1.4V98L284,98.1z"/>
<path class="st2" d="M293.6,94.7v4.6h-1.1l0-1.1c-0.3,0.4-0.6,0.7-1.1,0.9c-0.5,0.2-1.1,0.4-1.7,0.3c-0.8,0-1.5-0.2-2.2-0.6
	c-0.6-0.4-1.1-0.9-1.5-1.6c-0.4-0.8-0.5-1.6-0.5-2.5c0-0.8,0.2-1.7,0.5-2.4c0.3-0.7,0.8-1.2,1.5-1.6c0.7-0.4,1.5-0.6,2.2-0.6
	c0.8,0,1.6,0.1,2.3,0.5c0.6,0.4,1.1,0.9,1.4,1.6l-1.3,0.6c-0.2-0.5-0.5-0.9-0.9-1.1c-0.4-0.3-0.9-0.4-1.5-0.4c-0.8,0-1.5,0.3-2,0.9
	c-0.5,0.7-0.8,1.6-0.7,2.5c-0.1,0.9,0.2,1.8,0.7,2.5c0.5,0.6,1.3,0.9,2.1,0.9c0.6,0,1.2-0.2,1.7-0.5c0.5-0.4,0.7-0.9,0.7-1.5v-0.3
	h-2.8v-1.2H293.6z"/>
<path class="st2" d="M302.5,90.8c0.6,0.4,1.2,0.9,1.5,1.6c0.7,1.6,0.7,3.4,0,4.9c-0.3,0.7-0.8,1.2-1.5,1.6c-0.7,0.4-1.5,0.6-2.3,0.6
	c-0.8,0-1.6-0.2-2.2-0.6c-0.6-0.4-1.1-0.9-1.5-1.6c-0.7-1.6-0.7-3.4,0-4.9c0.3-0.7,0.8-1.2,1.5-1.6c0.7-0.4,1.5-0.6,2.2-0.6
	C301.1,90.2,301.9,90.4,302.5,90.8z M298.3,92.4c-1,1.5-1,3.4,0,4.9c0.5,0.6,1.2,0.9,2,0.9c0.8,0,1.5-0.3,2-0.9c1-1.5,1-3.4,0-4.9
	c-0.5-0.6-1.2-0.9-2-0.9C299.5,91.4,298.8,91.8,298.3,92.4L298.3,92.4z"/>
<path class="st2" d="M310.7,95.7h-1.9v3.6h-1.4v-9h3.6c0.8-0.1,1.6,0.2,2.3,0.7c0.6,0.5,0.9,1.2,0.9,2c0,0.6-0.2,1.1-0.5,1.6
	c-0.4,0.5-0.9,0.8-1.4,0.9l2.4,3.8H313L310.7,95.7z M308.8,94.5h2.1c0.5,0,0.9-0.1,1.3-0.4c0.6-0.6,0.6-1.6,0-2.2
	c-0.4-0.3-0.8-0.4-1.3-0.4h-2.1V94.5z"/>
<path class="st2" d="M318.6,99.3h-1.5v-9h1.5V99.3z"/>
<path class="st2" d="M328.6,91.6h-3.1v7.7h-1.5v-7.7H321v-1.3h7.6L328.6,91.6z"/>
<path class="st2" d="M340.2,99.3h-1.3v-5.2l0.1-2.5l0,0l-2.7,7.7H335l-2.7-7.7l0,0l0.1,2.5v5.2H331v-9h2.2l1.8,5.2l0.6,2.1l0,0
	l0.6-2.1l1.8-5.2h2.1L340.2,99.3z"/>
<path class="st2" d="M349.5,90.8c0.6,0.4,1.2,0.9,1.5,1.6c0.7,1.6,0.7,3.4,0,4.9c-0.3,0.7-0.8,1.2-1.5,1.6c-1.4,0.7-3.1,0.7-4.5,0
	c-0.6-0.4-1.2-0.9-1.5-1.6c-0.7-1.6-0.7-3.4,0-4.9c0.3-0.7,0.8-1.2,1.5-1.6C346.4,90,348.1,90,349.5,90.8z M345.3,92.4
	c-1,1.5-1,3.4,0,4.9c1,1.1,2.7,1.2,3.8,0.2c0.1-0.1,0.1-0.1,0.2-0.2c1-1.5,1-3.4,0-4.9c-1-1.1-2.7-1.2-3.8-0.2
	C345.4,92.2,345.4,92.3,345.3,92.4z"/>
<line class="st3" x1="166.8" y1="95.8" x2="199.5" y2="95.8"/>
<path class="st3" d="M199,95.8C205.1,87,210.6,78,221.4,78c11,0,17.3,8.2,23.2,16.9c7.7,11.4,25.9,47.8,64.7,47.8h0.5
	c37.2,0,52.6-31.6,65-47.4c6.6-8.3,11.5-17.3,22.1-17.3c9.8,0,15.9,6.6,21.3,14.2c18.2,26,28.7,61.2,69.8,61.2"/>
<path class="st3" d="M199,95.8l0.5,0.7c6,8.3,12,16.3,22.8,16.3s15.8-9.3,22.4-17.8C255,81.7,269.1,48,309.3,48h0.5
	c39.4,0,54.7,34.9,64.4,47.3c6.6,8.4,12.3,17.3,23.5,17.3c9.9,0,15.6-7.4,20.9-15.7c16.7-25.9,30.7-59.7,69.3-59.7"/>
<line class="st4" x1="212.8" y1="88.8" x2="212.8" y2="102.2"/>
<line class="st4" x1="231.1" y1="88.8" x2="231.1" y2="102.2"/>
<line class="st4" x1="222" y1="83.9" x2="222" y2="106.6"/>
<line class="st4" x1="388.3" y1="88.8" x2="388.3" y2="102.2"/>
<line class="st4" x1="406.7" y1="88.8" x2="406.7" y2="102.2"/>
<line class="st4" x1="397.5" y1="83.9" x2="397.5" y2="106.6"/>
</svg>
