<svg xmlns="http://www.w3.org/2000/svg" viewBox="0 0 362.84 292.85"><defs><style>.cls-1{fill:#00b1eb;}.cls-2{font-size:12.03px;font-family:WorkSans-Medium, Work Sans;}.cls-2,.cls-4{fill:#fff;}.cls-3{fill:none;stroke:#fff;stroke-miterlimit:10;stroke-width:2px;}.cls-5{fill:#242424;}</style></defs><title>algoritmo-mob</title><g id="Layer_2" data-name="Layer 2"><g id="Capa_1" data-name="Capa 1"><rect class="cls-1" x="18.83" y="152.81" width="338.75" height="53.83" rx="14.04" ry="14.04"/><rect class="cls-1" x="18.83" y="239.01" width="338.75" height="53.83" rx="14.04" ry="14.04"/><text class="cls-2" transform="translate(46.42 175.3)">01101001 01100100 01100101 01101110 01110100 <tspan x="0" y="14.7">01101001 01100100 01100001 01100100 00110001</tspan></text><text class="cls-2" transform="translate(46.42 263.04)">01101001 01100100 01100101 01101110 01110100 <tspan x="0" y="14.7">01101001 01100100 01100001 01100100 00110010</tspan></text><path class="cls-1" d="M349.49,26.13a8.85,8.85,0,0,0-3.13-6.48,10.1,10.1,0,0,0-3.45-1.95,4.89,4.89,0,0,0,1-7.38,4.83,4.83,0,0,0-7-.21,4.51,4.51,0,0,0-1.44,3.34,4.92,4.92,0,0,0,2.23,4.23,11.67,11.67,0,0,0-3.62,2.17A9.16,9.16,0,0,0,331.21,26c0,.4-.24,1,.45,1.06s.55-.59.58-1a7.88,7.88,0,0,1,3.4-6.1,8,8,0,0,1,12.12,3.43,22.21,22.21,0,0,1,.72,3.1,1.07,1.07,0,0,0,.45.58c.08.05.4-.12.49-.27A1.15,1.15,0,0,0,349.49,26.13Zm-9.25-8.79a3.79,3.79,0,1,1,3.89-3.66A3.76,3.76,0,0,1,340.24,17.34Z"/><circle class="cls-3" cx="54.8" cy="60.45" r="53.8"/><path class="cls-1" d="M26.06,52.75c-2.66-3.57-2.6-7.36.06-9.85a6.83,6.83,0,0,1,9.09-.33c3,2.64,3.23,6.09.44,10.21a13,13,0,0,1,7.42,9.67L48.61,60c-3.77-2.75-5.94-6.35-5.87-11.14a11.94,11.94,0,0,1,3.8-8.77,12.7,12.7,0,0,1,18.39.54c4.47,5,5,14.05-2.71,19.42l5.59,2.43c1.06-4.72,2.22-6.26,7.28-9.74-2.65-4.31-2.43-7.68.67-10.23a6.88,6.88,0,0,1,8.76.15c2.89,2.53,3,6.07.5,9.82,1.6,1.45,3.28,2.77,4.72,4.32a10.51,10.51,0,0,1,2.52,6.61c.07.95.09,2-1.22,2.06s-1.48-.91-1.53-1.88A9.55,9.55,0,0,0,76.26,55.4a9.24,9.24,0,0,0-5.72,8.1,2.3,2.3,0,0,0,.74,1.65,23.67,23.67,0,0,1,8.25,17.07,3,3,0,0,1-.19,1.62c-.24.39-1.08.84-1.29.7A2.81,2.81,0,0,1,76.87,83c-.68-2.71-.84-5.61-1.89-8.16a21.16,21.16,0,0,0-31.88-9,20.72,20.72,0,0,0-9,16.06c-.08,1.11.21,2.74-1.53,2.64s-1.23-1.72-1.17-2.78A22.84,22.84,0,0,1,39.09,65.7a3.26,3.26,0,0,0,1.17-3.34,9.64,9.64,0,0,0-9.43-7.72,9.41,9.41,0,0,0-9.31,7.79A12.94,12.94,0,0,0,21.3,64c-.08.94-.45,1.63-1.5,1.52s-1.26-.87-1.2-1.8a12.31,12.31,0,0,1,6.72-10.48C25.54,53.07,25.75,52.94,26.06,52.75Zm19.41-3.94a10,10,0,1,0,10.39-9.63A9.87,9.87,0,0,0,45.47,48.81Zm-18.69-1a4.07,4.07,0,1,0,8.13-.09,4.07,4.07,0,1,0-8.13.09Zm57.29,0a4,4,0,0,0-4-4.14A4.21,4.21,0,0,0,76,47.83a4.09,4.09,0,0,0,4,4A4,4,0,0,0,84.07,47.8Z"/><circle class="cls-3" cx="340" cy="22.84" r="21.84"/><circle class="cls-3" cx="340" cy="98.4" r="21.84"/><path class="cls-4" d="M177.67,61.66h-2.45l-.56,1.53h-1l2.2-5.83H177l2.2,5.83h-1Zm-.28-.76L176.72,59l-.27-.84h0l-.25.82-.69,1.9Z"/><path class="cls-4" d="M184.86,62.38v.81H180.7V57.36h.94v5Z"/><path class="cls-4" d="M191.12,60.18v3h-.7l0-.74a1.66,1.66,0,0,1-.71.62,2.52,2.52,0,0,1-1.07.21,2.76,2.76,0,0,1-1.43-.36,2.44,2.44,0,0,1-.94-1,3.88,3.88,0,0,1,0-3.2,2.44,2.44,0,0,1,1-1,2.78,2.78,0,0,1,1.46-.37,2.87,2.87,0,0,1,1.48.34,2.25,2.25,0,0,1,.92,1l-.86.42a1.45,1.45,0,0,0-.57-.73,1.83,1.83,0,0,0-1-.25,1.63,1.63,0,0,0-1.31.58,2.38,2.38,0,0,0-.49,1.61,2.5,2.5,0,0,0,.47,1.62,1.64,1.64,0,0,0,1.35.57,1.73,1.73,0,0,0,1.13-.35,1.19,1.19,0,0,0,.44-1V61h-1.79v-.78Z"/><path class="cls-4" d="M197,57.63a2.42,2.42,0,0,1,.95,1,3.47,3.47,0,0,1,.34,1.6,3.52,3.52,0,0,1-.34,1.6,2.4,2.4,0,0,1-.95,1,2.91,2.91,0,0,1-1.47.36,2.87,2.87,0,0,1-1.46-.36,2.4,2.4,0,0,1-.95-1,3.66,3.66,0,0,1-.34-1.6,3.6,3.6,0,0,1,.34-1.6,2.42,2.42,0,0,1,.95-1,2.87,2.87,0,0,1,1.46-.36A2.91,2.91,0,0,1,197,57.63Zm-2.76,1a3,3,0,0,0,0,3.22,1.76,1.76,0,0,0,2.59,0,3,3,0,0,0,0-3.22,1.74,1.74,0,0,0-2.59,0Z"/><path class="cls-4" d="M202.29,60.86H201v2.33h-.93V57.36h2.38a2.23,2.23,0,0,1,1.49.46,1.62,1.62,0,0,1,.55,1.29,1.65,1.65,0,0,1-.33,1,1.67,1.67,0,0,1-.91.59l1.58,2.44h-1.08ZM201,60.07h1.37a1.29,1.29,0,0,0,.85-.23.89.89,0,0,0,.29-.72.88.88,0,0,0-.29-.72,1.29,1.29,0,0,0-.85-.24H201Z"/><path class="cls-4" d="M207.43,63.19h-1V57.36h1Z"/><path class="cls-4" d="M213.94,58.17h-2v5H211v-5h-2v-.81h4.94Z"/><path class="cls-4" d="M221.48,63.19h-.87V59.82l.07-1.61h0l-1.78,5h-.79l-1.77-5h0l.07,1.61v3.37h-.88V57.36h1.41l1.17,3.38.41,1.38h0l.41-1.38,1.17-3.38h1.38Z"/><path class="cls-4" d="M227.54,57.63a2.51,2.51,0,0,1,1,1,3.6,3.6,0,0,1,.33,1.6,3.66,3.66,0,0,1-.33,1.6,2.48,2.48,0,0,1-1,1,3.14,3.14,0,0,1-2.92,0,2.48,2.48,0,0,1-1-1,3.66,3.66,0,0,1-.33-1.6,3.6,3.6,0,0,1,.33-1.6,2.51,2.51,0,0,1,1-1,3.14,3.14,0,0,1,2.92,0Zm-2.75,1a3,3,0,0,0,0,3.22,1.57,1.57,0,0,0,1.29.57,1.61,1.61,0,0,0,1.3-.57,3,3,0,0,0,0-3.22,1.61,1.61,0,0,0-1.3-.58A1.58,1.58,0,0,0,224.79,58.67Z"/><line class="cls-3" x1="108.61" y1="60.93" x2="129.86" y2="60.93"/><path class="cls-3" d="M129.55,60.9c4-5.74,7.57-11.57,14.57-11.57,7.16,0,11.29,5.34,15.12,11,5,7.46,16.83,31.1,42.12,31.1h.34c24.23,0,34.22-20.58,42.32-30.82,4.26-5.38,7.49-11.29,14.38-11.29,6.4,0,10.35,4.27,13.83,9.25C284.07,75.5,290.89,98.4,317.67,98.4"/><path class="cls-3" d="M129.55,60.9l.31.42c3.89,5.41,7.83,10.59,14.81,10.59s10.26-6.07,14.57-11.57c6.76-8.63,16-30.54,42.12-30.54h.34c25.65,0,35.58,22.69,41.93,30.82,4.28,5.48,8,11.29,15.31,11.29,6.44,0,10.17-4.82,13.63-10.2,10.85-16.87,20-38.87,45.1-38.87"/><line class="cls-3" x1="138.52" y1="56.32" x2="138.52" y2="65.08"/><line class="cls-3" x1="150.48" y1="56.32" x2="150.48" y2="65.08"/><line class="cls-3" x1="144.5" y1="53.14" x2="144.5" y2="67.94"/><line class="cls-3" x1="252.8" y1="56.32" x2="252.8" y2="65.08"/><line class="cls-3" x1="264.76" y1="56.32" x2="264.76" y2="65.08"/><line class="cls-3" x1="258.78" y1="53.14" x2="258.78" y2="67.94"/><path class="cls-1" d="M342.14,25.46v8.35H340V27.6a4,4,0,0,1-2,1.06l-.21-1.79a4.08,4.08,0,0,0,1.44-.52,3.12,3.12,0,0,0,1.11-.89Z"/><circle class="cls-5" cx="16.89" cy="179.31" r="15.76"/><path class="cls-1" d="M349.49,102.29a8.85,8.85,0,0,0-3.13-6.49,10.26,10.26,0,0,0-3.45-1.94,4.89,4.89,0,0,0,1-7.38,4.82,4.82,0,0,0-7-.21,4.51,4.51,0,0,0-1.44,3.34,4.94,4.94,0,0,0,2.23,4.23A11.48,11.48,0,0,0,334.12,96a9.14,9.14,0,0,0-2.91,6.1c0,.41-.24,1,.45,1.06s.55-.58.58-1a7.88,7.88,0,0,1,3.4-6.11,8,8,0,0,1,12.12,3.43,22.54,22.54,0,0,1,.72,3.1,1,1,0,0,0,.45.58c.08,0,.4-.12.49-.26A1.15,1.15,0,0,0,349.49,102.29Zm-9.25-8.79a3.79,3.79,0,1,1,3.89-3.66A3.76,3.76,0,0,1,340.24,93.5Z"/><path class="cls-1" d="M337.38,108.64a15.47,15.47,0,0,0,3.06-2.33,3,3,0,0,0,.94-1.92,1.17,1.17,0,0,0-.29-.82,1.14,1.14,0,0,0-.84-.31,1.13,1.13,0,0,0-.93.44A2.13,2.13,0,0,0,339,105l-1.86-.57a2.67,2.67,0,0,1,.93-2.1,4.1,4.1,0,0,1,4.11-.36,2.65,2.65,0,0,1,1.05,1,2.61,2.61,0,0,1,.34,1.31,3.17,3.17,0,0,1-.88,2.16,10.47,10.47,0,0,1-2.66,2v0c.56,0,1.12-.05,1.68-.05h2V110h-6.26Z"/><circle class="cls-5" cx="16.89" cy="265.97" r="15.76"/><path class="cls-1" d="M23.74,181.69A6.36,6.36,0,0,0,21.48,177a7.24,7.24,0,0,0-2.49-1.4,3.54,3.54,0,0,0,.74-5.33,3.47,3.47,0,0,0-5-.15,3.25,3.25,0,0,0-1,2.41,3.53,3.53,0,0,0,1.61,3.05,8.45,8.45,0,0,0-2.62,1.57,6.55,6.55,0,0,0-2.09,4.4c0,.3-.17.74.32.77s.4-.42.42-.73a5.67,5.67,0,0,1,2.46-4.4,5.79,5.79,0,0,1,8.74,2.47,15.19,15.19,0,0,1,.52,2.24.78.78,0,0,0,.32.42c.06,0,.29-.09.36-.19A.84.84,0,0,0,23.74,181.69Zm-6.68-6.34a2.74,2.74,0,1,1,2.81-2.64A2.71,2.71,0,0,1,17.06,175.35Z"/><path class="cls-1" d="M18.44,181.21v6H16.92v-4.48a2.89,2.89,0,0,1-1.43.77l-.14-1.3a3,3,0,0,0,1-.37,2.25,2.25,0,0,0,.79-.64Z"/><path class="cls-1" d="M23.74,268.78a6.36,6.36,0,0,0-2.26-4.68A7.41,7.41,0,0,0,19,262.69a3.53,3.53,0,0,0,.74-5.32,3.47,3.47,0,0,0-5-.15,3.23,3.23,0,0,0-1,2.4,3.54,3.54,0,0,0,1.61,3.06,8.45,8.45,0,0,0-2.62,1.57,6.55,6.55,0,0,0-2.09,4.4c0,.29-.17.74.32.77s.4-.43.42-.73a5.69,5.69,0,0,1,2.46-4.41,5.8,5.8,0,0,1,8.74,2.48A14.9,14.9,0,0,1,23,269a.82.82,0,0,0,.32.42c.06,0,.29-.09.36-.2A.79.79,0,0,0,23.74,268.78Zm-6.68-6.34a2.74,2.74,0,1,1,2.81-2.65A2.71,2.71,0,0,1,17.06,262.44Z"/><path class="cls-1" d="M15,273.36a11.11,11.11,0,0,0,2.21-1.68,2.13,2.13,0,0,0,.68-1.39.79.79,0,0,0-.21-.58.89.89,0,0,0-1.28.09,1.54,1.54,0,0,0-.25.91l-1.34-.41a1.87,1.87,0,0,1,.67-1.51,2.56,2.56,0,0,1,1.69-.54,2.57,2.57,0,0,1,1.27.28,1.81,1.81,0,0,1,.76.71,1.87,1.87,0,0,1,.25.94,2.3,2.3,0,0,1-.64,1.57,7.69,7.69,0,0,1-1.92,1.45h0c.4,0,.81,0,1.21,0h1.42v1.2H15Z"/></g></g></svg>