<svg xmlns="http://www.w3.org/2000/svg" viewBox="0 0 179.23 167.11"><defs><style>.cls-1,.cls-2,.cls-3,.cls-4{fill:none;}.cls-1{stroke:#fac716;stroke-width:4px;}.cls-1,.cls-3,.cls-4{stroke-linejoin:round;}.cls-2,.cls-3,.cls-4{stroke:#00b1eb;}.cls-2{stroke-miterlimit:10;}.cls-4{stroke-linecap:round;}.cls-5{fill:#00b1eb;}</style></defs><title>biometric-2</title><g id="Layer_2" data-name="Layer 2"><g id="Layer_1-2" data-name="Layer 1"><polyline class="cls-1" points="20.05 165.1 2 165.1 2 145.44"/><polyline class="cls-1" points="177.23 148.13 177.23 165.11 159.9 165.11"/><polyline class="cls-1" points="159.9 2 177.23 2 177.23 21.22"/><polyline class="cls-1" points="2 19.01 2 2 22.57 2"/><polyline class="cls-2" points="68.64 111.48 83.36 119.29 97.94 119.29 112.04 112.56 90.62 106.36 68.64 111.48"/><polyline class="cls-2" points="90.7 62.7 75.53 89.89 90.76 96.55"/><polyline class="cls-3" points="83.36 119.29 77.17 138.88 104.06 138.88 97.94 119.29"/><polyline class="cls-3" points="91.92 63.1 115.68 72.74 133.7 60.94 116.3 53.13 90.76 63.02 90.76 96.55 105.09 89.47 91.16 63.02"/><polyline class="cls-4" points="107.46 89.95 135.08 89.36 112.04 112.56 106.22 89.89"/><polyline class="cls-2" points="104.06 138.88 134.87 89.81 133.7 60.94"/><polyline class="cls-3" points="89.65 62.7 64.99 71.67 46.97 59.86 66.28 52.52 90.76 63.02"/><polyline class="cls-4" points="74.28 89.95 45.59 88.28 68.64 111.49 75.53 89.89"/><polyline class="cls-2" points="77.17 138.88 44.73 87.66 46.97 59.86"/><path class="cls-5" d="M49.41,59.45a2.64,2.64,0,1,1-2.63-2.63,2.63,2.63,0,0,1,2.63,2.63"/><path class="cls-5" d="M93.51,62.57a2.64,2.64,0,1,1-2.64-2.63,2.63,2.63,0,0,1,2.64,2.63"/><path class="cls-5" d="M135.73,60.94a2.63,2.63,0,1,1-2.63-2.63,2.63,2.63,0,0,1,2.63,2.63"/><path class="cls-5" d="M107.93,89.36a2.64,2.64,0,1,1-2.64-2.63,2.64,2.64,0,0,1,2.64,2.63"/><path class="cls-5" d="M93.51,95.64A2.64,2.64,0,1,1,90.87,93a2.64,2.64,0,0,1,2.64,2.63"/><path class="cls-5" d="M118.7,53.13a2.63,2.63,0,1,1-2.63-2.63,2.63,2.63,0,0,1,2.63,2.63"/><path class="cls-5" d="M93.39,33.9a2.63,2.63,0,1,1-2.63-2.63,2.64,2.64,0,0,1,2.63,2.63"/><path class="cls-5" d="M68.87,53.13a2.64,2.64,0,1,1-2.63-2.63,2.63,2.63,0,0,1,2.63,2.63"/><path class="cls-5" d="M78.16,89.36a2.63,2.63,0,1,1-2.63-2.63,2.63,2.63,0,0,1,2.63,2.63"/><path class="cls-5" d="M67.64,71.66A2.63,2.63,0,1,1,65,69a2.63,2.63,0,0,1,2.63,2.63"/><path class="cls-5" d="M118.7,72.21a2.63,2.63,0,1,1-2.63-2.63,2.63,2.63,0,0,1,2.63,2.63"/><path class="cls-5" d="M48.23,87.53a2.64,2.64,0,1,1-2.64-2.63,2.64,2.64,0,0,1,2.64,2.63"/><path class="cls-5" d="M136.33,88.78a2.63,2.63,0,1,1-2.63-2.63,2.63,2.63,0,0,1,2.63,2.63"/><path class="cls-5" d="M114.67,112.56a2.63,2.63,0,1,1-2.63-2.63,2.63,2.63,0,0,1,2.63,2.63"/><path class="cls-5" d="M71.83,111.49a2.63,2.63,0,1,1-2.63-2.64,2.63,2.63,0,0,1,2.63,2.64"/><path class="cls-5" d="M79.81,138.88a2.64,2.64,0,1,1-2.64-2.63,2.64,2.64,0,0,1,2.64,2.63"/><path class="cls-5" d="M106.7,138.88a2.64,2.64,0,1,1-2.63-2.63,2.64,2.64,0,0,1,2.63,2.63"/><polyline class="cls-3" points="66.24 53.13 90.76 33.9 116.3 53.13"/></g></g></svg>