<svg xmlns="http://www.w3.org/2000/svg" viewBox="0 0 179.23 167.11"><defs><style>.cls-1{fill:#3f485d;}.cls-2,.cls-4,.cls-5,.cls-6{fill:none;}.cls-2{stroke:#fac716;stroke-width:4px;}.cls-2,.cls-5,.cls-6{stroke-linejoin:round;}.cls-3{fill:#00b1eb;}.cls-4,.cls-5,.cls-6{stroke:#00b1eb;}.cls-4{stroke-miterlimit:10;}.cls-6{stroke-linecap:round;}</style></defs><title>biometric-1</title><g id="Layer_2" data-name="Layer 2"><g id="Layer_1-2" data-name="Layer 1"><path class="cls-1" d="M151.33,85.89c-.17-9.1-3-12.07-10.1-12.89-.3-5.55-1-15.65-2.17-20.8-4.39-20.13-12.5-30.58-24.78-35.68-9.67-4-20-3.62-30.27-3.12-25.6,1.26-39.54,19-42,46.76a125.5,125.5,0,0,0-.3,13c-7,.9-9.53,3.47-10.15,10a31.89,31.89,0,0,0,4.47,20c2.93,4.81,7.21,6.68,7.49,7.69,2.53,9,4.41,15.12,10.56,24.74,5.85,9.15,18.55,20.52,37.25,20.52a41.73,41.73,0,0,0,35.51-19.2c5.8-9,8.08-14.9,11.35-25,1-3,1.27-2.5,4.31-4.46a18.86,18.86,0,0,0,4.88-5.47,32.27,32.27,0,0,0,4-16.1M42.66,103.08c-5.49-5.53-7.8-17.55-5.41-22.45a3.67,3.67,0,0,1,2.93-2.23c1.19.11,1.11,1.86,1.13,2.79a152.93,152.93,0,0,0,1.35,21.89m93.79-26.34c.84,36.7-8.65,50.2-8.83,50-3.16,7.34-13.88,24.9-35.77,24.9-17.61,0-27-6.61-35.43-21-7.18-12.23-10.32-24.8-10.21-42.19,0-7.14-.27-14.29,0-21.41A42.25,42.25,0,0,1,56.45,40.69c1.72-2,3.46-2.26,5.58-1.33,3.61,1.6,6.85,4.3,10.73,5,7.81,1.37,13.52.2,18-1.74,7.14-3.07,11.34-8.05,16.2-8,7-.66,15.19,2.83,21.78,12.89,6,9.18,7.55,24.09,7.67,29.26m3.34,26.61a125,125,0,0,0,1.74-23.2c0-2.21,1.35-2.25,2.6-1.24a5.5,5.5,0,0,1,1.8,3.13c1.19,6.79-.77,17-6.14,21.31"/><path class="cls-1" d="M84.09,113a5.22,5.22,0,0,1,1.93.21c.55.18,1.73,1,2.06,1a5.89,5.89,0,0,0,4.28.17c.6-.2,1.38-.93,2-1.15a5.58,5.58,0,0,1,2.27-.25c3.14.18,5.93-2,6-4.92,0-.75.23-1.93-1.16-2.16s-1.51.75-1.69,1.38c-.74,2.44-1.58,2.72-3.69,2.18a4.45,4.45,0,0,0-3.32.78c-1.7,1.41-3.15,1.36-4.92.06a4.46,4.46,0,0,0-3.12-.75c-2,.38-3.1,0-3.78-2-.25-.75-.68-1.59-2-1.3-1,.23-1.08,1.51-.91,2.41a5.45,5.45,0,0,0,6,4.31"/><path class="cls-1" d="M90.4,114.85a5.81,5.81,0,0,1-2.37-.51,5.29,5.29,0,0,1-1-.46,8.84,8.84,0,0,0-1.1-.56,5.12,5.12,0,0,0-1.88-.19A5.57,5.57,0,0,1,78,108.69c-.2-1,0-2.33,1-2.57,1.37-.32,1.86.58,2.13,1.4.68,2,1.84,2.23,3.61,1.89a4.61,4.61,0,0,1,3.24.77c1.75,1.3,3.13,1.29,4.74-.05a4.58,4.58,0,0,1,3.45-.81c2,.52,2.79.3,3.51-2.09v0c.19-.62.5-1.65,1.84-1.43s1.33,1.35,1.29,2.09a1.55,1.55,0,0,1,0,.22,4.94,4.94,0,0,1-1.65,3.5,6.17,6.17,0,0,1-4.53,1.55,5.65,5.65,0,0,0-2.21.24,5.49,5.49,0,0,0-1,.56,4.46,4.46,0,0,1-1,.59,6.24,6.24,0,0,1-2,.34m-5.88-2a5,5,0,0,1,1.55.23,8.24,8.24,0,0,1,1.15.58,6.23,6.23,0,0,0,.89.44,5.77,5.77,0,0,0,4.21.17,4.57,4.57,0,0,0,1-.56,4.3,4.3,0,0,1,3.35-.85,5.87,5.87,0,0,0,4.31-1.47,4.63,4.63,0,0,0,1.56-3.3,1.69,1.69,0,0,0,0-.23c0-.75.09-1.6-1-1.79s-1.32.61-1.51,1.24l0,0c-.78,2.61-1.78,2.81-3.85,2.28a4.35,4.35,0,0,0-3.2.75c-1.71,1.42-3.23,1.44-5.1.06a4.23,4.23,0,0,0-3-.71c-1.88.36-3.19.14-3.93-2.09-.26-.78-.66-1.47-1.8-1.21-.86.19-1,1.33-.8,2.24a5.31,5.31,0,0,0,5.83,4.2l.44,0"/><polyline class="cls-2" points="20.05 165.1 2 165.1 2 145.44"/><polyline class="cls-2" points="177.23 148.13 177.23 165.11 159.9 165.11"/><polyline class="cls-2" points="159.9 2 177.23 2 177.23 21.22"/><polyline class="cls-2" points="2 19.01 2 2 22.57 2"/><path class="cls-3" d="M55.31,81.92a2.23,2.23,0,1,1-2.23-2.22,2.23,2.23,0,0,1,2.23,2.22"/><path class="cls-3" d="M128.28,83.18A2.23,2.23,0,1,1,126.05,81a2.22,2.22,0,0,1,2.23,2.23"/><path class="cls-3" d="M54.31,105.66a2.23,2.23,0,1,1-2.22-2.23,2.21,2.21,0,0,1,2.22,2.23"/><path class="cls-3" d="M129,107.07a2.23,2.23,0,1,1-2.23-2.23,2.22,2.22,0,0,1,2.23,2.23"/><path class="cls-1" d="M74.45,88.2a4.11,4.11,0,1,1-4.11-4.11,4.11,4.11,0,0,1,4.11,4.11"/><path class="cls-1" d="M117.27,88.78a4.11,4.11,0,1,1-4.11-4.11,4.12,4.12,0,0,1,4.11,4.11"/><path class="cls-1" d="M91.94,132.46c-9.6,0-15.55-2.78-15.9-3a1.74,1.74,0,0,1,1.5-3.13c.11.05,11.35,5.24,27.72.76a1.75,1.75,0,0,1,2.14,1.22,1.73,1.73,0,0,1-1.22,2.13,53.7,53.7,0,0,1-14.24,2"/><path class="cls-1" d="M58.55,79.82a1.74,1.74,0,0,1-.75-3.31c13-6.2,22.63-1.72,23-1.52a1.74,1.74,0,0,1-1.5,3.13C79,78,70.71,74.2,59.29,79.65a1.78,1.78,0,0,1-.74.17"/><path class="cls-1" d="M124.5,81a1.76,1.76,0,0,1-.74-.16c-11.43-5.46-19.7-1.69-20.05-1.53a1.74,1.74,0,0,1-1.5-3.13c.41-.2,10-4.68,23,1.52a1.73,1.73,0,0,1-.75,3.3"/><path class="cls-1" d="M92,140a47.17,47.17,0,0,1-7.47-.58,1.74,1.74,0,1,1,.54-3.43,45.31,45.31,0,0,0,11.61.31,1.74,1.74,0,0,1,.34,3.46c-1.69.16-3.36.24-5,.24"/><polyline class="cls-4" points="71.56 125.91 84.01 132.5 96.34 132.5 108.25 126.82 90.15 121.58 71.56 125.91"/><polyline class="cls-4" points="90.21 84.67 77.39 107.65 90.27 113.28"/><polyline class="cls-5" points="84.01 132.5 78.78 149.07 101.51 149.07 96.34 132.5"/><polyline class="cls-5" points="91.25 85.01 111.33 93.16 126.56 83.18 111.85 76.58 90.27 84.94 90.27 113.28 102.38 107.3 90.6 84.94"/><polyline class="cls-6" points="104.39 107.7 127.73 107.2 108.25 126.82 103.33 107.65"/><polyline class="cls-4" points="101.51 149.07 127.55 107.58 126.56 83.18"/><polyline class="cls-5" points="89.33 84.67 68.48 92.25 53.25 82.27 69.57 76.06 90.27 84.94"/><polyline class="cls-6" points="76.34 107.7 52.09 106.29 71.56 125.91 77.39 107.65"/><polyline class="cls-4" points="78.78 149.07 51.35 105.77 53.25 82.27"/><path class="cls-3" d="M92.59,84.56a2.23,2.23,0,1,1-2.23-2.22,2.23,2.23,0,0,1,2.23,2.22"/><path class="cls-3" d="M104.78,107.2a2.23,2.23,0,1,1-2.23-2.22,2.23,2.23,0,0,1,2.23,2.22"/><path class="cls-3" d="M92.59,112.51a2.23,2.23,0,1,1-2.23-2.22,2.23,2.23,0,0,1,2.23,2.22"/><path class="cls-3" d="M113.88,76.58a2.23,2.23,0,1,1-2.22-2.23,2.21,2.21,0,0,1,2.22,2.23"/><path class="cls-3" d="M71.76,76.58a2.23,2.23,0,1,1-2.23-2.23,2.22,2.22,0,0,1,2.23,2.23"/><path class="cls-3" d="M79.62,107.2A2.23,2.23,0,1,1,77.39,105a2.23,2.23,0,0,1,2.23,2.22"/><path class="cls-3" d="M70.72,92.25A2.22,2.22,0,1,1,68.5,90a2.21,2.21,0,0,1,2.22,2.23"/><path class="cls-3" d="M113.88,92.71a2.23,2.23,0,1,1-2.22-2.23,2.21,2.21,0,0,1,2.22,2.23"/><path class="cls-3" d="M92.37,60.33a2.23,2.23,0,1,1-2.22-2.23,2.22,2.22,0,0,1,2.22,2.23"/><path class="cls-3" d="M110.48,126.82a2.23,2.23,0,1,1-2.23-2.23,2.23,2.23,0,0,1,2.23,2.23"/><path class="cls-3" d="M74.26,125.91A2.23,2.23,0,1,1,72,123.68a2.21,2.21,0,0,1,2.22,2.23"/><path class="cls-3" d="M81,149.07a2.23,2.23,0,1,1-2.23-2.23A2.22,2.22,0,0,1,81,149.07"/><path class="cls-3" d="M103.74,149.07a2.23,2.23,0,1,1-2.23-2.23,2.22,2.22,0,0,1,2.23,2.23"/><polyline class="cls-5" points="69.53 76.58 90.27 60.33 111.85 76.58"/></g></g></svg>