<svg xmlns="http://www.w3.org/2000/svg" viewBox="0 0 289.4 130.67"><defs><style>.cls-1{fill:#00b1eb;}.cls-2{fill:#fff;}.cls-3{fill:#3f485d;}.cls-4,.cls-5,.cls-6,.cls-7,.cls-8{fill:none;}.cls-4{stroke:#fac716;stroke-width:3px;}.cls-4,.cls-6,.cls-7{stroke-linejoin:round;}.cls-5,.cls-6,.cls-7,.cls-8{stroke:#00b1eb;}.cls-5,.cls-8{stroke-miterlimit:10;}.cls-5,.cls-6,.cls-7{stroke-width:0.7px;}.cls-7{stroke-linecap:round;}</style></defs><title>biometric-5</title><g id="Layer_2" data-name="Layer 2"><g id="Layer_1-2" data-name="Layer 1"><path class="cls-1" d="M192.58,64.62A17.48,17.48,0,1,1,175.1,47.14a17.48,17.48,0,0,1,17.48,17.48"/><path class="cls-2" d="M175.05,79.58a15,15,0,1,1,15-15.25,15,15,0,0,1-15,15.25M173.27,67l-.47-.41-3.6-3.45a1.54,1.54,0,0,0-1.34-.53,1.32,1.32,0,0,0-1.15.93,1.51,1.51,0,0,0,.49,1.63L172,69.75c1,.92,1.62.91,2.58,0l8.22-8.11c.15-.15.31-.31.45-.48a1.37,1.37,0,0,0-.42-2.06,1.41,1.41,0,0,0-1.88.38l-7.18,7.11-.49.47"/><path class="cls-1" d="M212.73,55.83a4.45,4.45,0,0,1,1.68,3.64,4.6,4.6,0,0,1-.93,2.9,5,5,0,0,1-2.58,1.71v0A6.07,6.07,0,0,1,214.09,66a5.24,5.24,0,0,1,.32,6.19,5.68,5.68,0,0,1-2.47,1.93,9.24,9.24,0,0,1-3.67.69,9,9,0,0,1-3.63-.69,5.8,5.8,0,0,1-2.47-1.93,5.2,5.2,0,0,1,.3-6.19,6.11,6.11,0,0,1,3.19-1.88v0a5,5,0,0,1-2.57-1.71,4.6,4.6,0,0,1-.93-2.9,4.46,4.46,0,0,1,1.66-3.64,8,8,0,0,1,8.91,0m-.51,16.42a3.71,3.71,0,0,0,1.5-3.08,3.84,3.84,0,0,0-1.5-3.15,6.2,6.2,0,0,0-3.95-1.19A6.11,6.11,0,0,0,204.35,66a3.84,3.84,0,0,0-1.5,3.15,3.72,3.72,0,0,0,1.48,3.08,6.18,6.18,0,0,0,3.94,1.17,6.25,6.25,0,0,0,3.95-1.17m-7.28-15.39a3.72,3.72,0,0,0,0,5.53,5,5,0,0,0,3.31,1,5.07,5.07,0,0,0,3.32-1,3.68,3.68,0,0,0,0-5.53,5.12,5.12,0,0,0-3.34-1,5.06,5.06,0,0,0-3.33,1"/><path class="cls-1" d="M231.1,57.16a12.83,12.83,0,0,1,1.9,7.46c0,3.31-.64,5.84-1.93,7.57a6.31,6.31,0,0,1-5.38,2.61,7.42,7.42,0,0,1-4.25-1.14,5.92,5.92,0,0,1-2.33-3.2l1.49-.78a4.86,4.86,0,0,0,1.64,2.75,5.26,5.26,0,0,0,3.42,1,4.86,4.86,0,0,0,4.59-2.54,14,14,0,0,0,1.4-6.74,16.3,16.3,0,0,0-.18-2.07h-.09a4.77,4.77,0,0,1-1,2.68,5.21,5.21,0,0,1-2.18,1.63,7.07,7.07,0,0,1-2.7.54,6.51,6.51,0,0,1-4.7-1.69,6.72,6.72,0,0,1,0-9.1,6.75,6.75,0,0,1,4.82-1.69,6.25,6.25,0,0,1,5.44,2.72m-9.13,0a4.73,4.73,0,0,0-1.37,3.56A4.61,4.61,0,0,0,222,64.21a5.08,5.08,0,0,0,3.68,1.31,5.15,5.15,0,0,0,2.62-.66,4.88,4.88,0,0,0,1.8-1.75,4.63,4.63,0,0,0,.64-2.39,4.69,4.69,0,0,0-1.39-3.51,4.94,4.94,0,0,0-3.61-1.37A5.11,5.11,0,0,0,222,57.16"/><path class="cls-1" d="M243.93,56.05a5.88,5.88,0,0,1,1.17,3.78,5.78,5.78,0,0,1-1.17,3.75,4.42,4.42,0,0,1-6.57,0,5.78,5.78,0,0,1-1.19-3.74,5.88,5.88,0,0,1,1.17-3.78,4.45,4.45,0,0,1,6.59,0m-5.62.86a5,5,0,0,0-.79,2.92,5,5,0,0,0,.79,2.9,3,3,0,0,0,4.65,0,5,5,0,0,0,.79-2.9,5,5,0,0,0-.79-2.92,3,3,0,0,0-4.65,0m14.51-2.17h1.47l-13,19.76h-1.46Zm4,10.94A5.83,5.83,0,0,1,258,69.44a5.75,5.75,0,0,1-1.18,3.74,4.43,4.43,0,0,1-6.59,0,6.56,6.56,0,0,1,0-7.51,4,4,0,0,1,3.31-1.47,4,4,0,0,1,3.28,1.48m-5.61.82a4.88,4.88,0,0,0-.81,2.94,4.79,4.79,0,0,0,.81,2.9,3,3,0,0,0,4.65,0,4.86,4.86,0,0,0,.8-2.9,4.94,4.94,0,0,0-.8-2.94,3,3,0,0,0-4.65,0"/><path class="cls-3" d="M63.54,70.14a3.25,3.25,0,1,0,3.24,3.24,3.24,3.24,0,0,0-3.24-3.24"/><path class="cls-3" d="M85.26,70.14a3.25,3.25,0,1,0,3.25,3.24,3.25,3.25,0,0,0-3.25-3.24"/><path class="cls-3" d="M79.87,90.94a10.61,10.61,0,0,1-10.1.25,1.08,1.08,0,0,0-.85,2,10.64,10.64,0,0,0,6.13,1.42A12.24,12.24,0,0,0,80.54,93a1.16,1.16,0,0,0,.69-1.36,1,1,0,0,0-1.36-.7"/><path class="cls-3" d="M68.83,61.37A1.14,1.14,0,0,0,68.17,60c-.24-.09-5.91-2.1-12.48,2.77a1.13,1.13,0,0,0-.24,1.49.94.94,0,0,0,.94.49.87.87,0,0,0,.4-.16c5.77-4.27,10.63-2.61,10.84-2.54a.92.92,0,0,0,1.2-.69"/><path class="cls-3" d="M80.25,61.37A1.14,1.14,0,0,1,80.91,60c.24-.09,5.91-2.1,12.48,2.77a1.13,1.13,0,0,1,.24,1.49.94.94,0,0,1-.94.49.87.87,0,0,1-.4-.16C86.52,60.33,81.66,62,81.45,62.06a.92.92,0,0,1-1.2-.69"/><path class="cls-3" d="M115.26,88.77s-5-5.9-2.93-21.66C112.69,64.4,114.08,51,109,39S89.75,21.26,82.11,20.26h0a29.51,29.51,0,0,0-11.59.51C65,22,61,26.81,61,26.81S48.31,23.27,38.46,43.12c-3.66,7.39-1.33,15-1.08,21.65.39,10.28-3.05,14.94-7.78,17.8,0,0,.07,11.79,13.78,17.46a18.5,18.5,0,0,0,12.87.27,27.28,27.28,0,0,0,18.58,7.29,26,26,0,0,0,21-10.33c.61-.82,1.77-2.57,1.77-2.57,11.78,2.2,17.71-5.92,17.71-5.92M75.17,104.83c-11,0-16.41-4.94-22.13-13.1-5.36-7.63-5.32-12.29-5.32-12.29-1.73.3-6-.58-6-7.66s5.45-6.26,5.45-6.26L46.6,57.9h0c0-.59,0-1.18,0-1.7,5.65-.54,11.84-5,16.45-15.46,0,0,13.58,15.81,39.62,15.7a.53.53,0,0,1,.11.14l-1.1,8.94s5.46-.82,5.46,6.26-4.32,8-6,7.66c0,0-5,25.39-25.93,25.39"/><polyline class="cls-4" points="36.96 109.78 27.44 109.78 27.44 99.42"/><polyline class="cls-4" points="119.82 100.83 119.82 109.78 110.68 109.78"/><polyline class="cls-4" points="110.68 23.8 119.82 23.8 119.82 33.93"/><polyline class="cls-4" points="27.44 32.77 27.44 23.8 38.28 23.8"/><polyline class="cls-5" points="64.01 88.65 71.13 92.42 78.18 92.42 84.99 89.17 74.64 86.17 64.01 88.65"/><polyline class="cls-5" points="74.68 65.07 67.35 78.21 74.71 81.43"/><polyline class="cls-6" points="71.13 92.42 68.14 101.9 81.14 101.9 78.18 92.42"/><polyline class="cls-6" points="75.27 65.27 86.75 69.92 95.47 64.22 87.05 60.44 74.71 65.22 74.71 81.43 81.64 78.01 74.9 65.22"/><polyline class="cls-7" points="82.78 78.24 96.13 77.95 85 89.17 82.18 78.21"/><polyline class="cls-5" points="81.14 101.9 96.03 78.17 95.47 64.22"/><polyline class="cls-6" points="74.17 65.07 62.25 69.4 53.54 63.7 62.87 60.15 74.71 65.22"/><polyline class="cls-7" points="66.74 78.24 52.88 77.43 64.01 88.65 67.35 78.21"/><polyline class="cls-5" points="68.14 101.9 52.46 77.13 53.54 63.7"/><path class="cls-1" d="M54.72,63.5a1.28,1.28,0,1,1-1.27-1.27,1.27,1.27,0,0,1,1.27,1.27"/><path class="cls-1" d="M76,65a1.28,1.28,0,1,1-1.28-1.28A1.27,1.27,0,0,1,76,65"/><path class="cls-1" d="M96.45,64.22a1.28,1.28,0,1,1-1.27-1.28,1.27,1.27,0,0,1,1.27,1.28"/><path class="cls-1" d="M83,78a1.28,1.28,0,1,1-1.28-1.28A1.27,1.27,0,0,1,83,78"/><path class="cls-1" d="M76,81a1.28,1.28,0,1,1-1.28-1.27A1.27,1.27,0,0,1,76,81"/><path class="cls-1" d="M88.22,60.44a1.28,1.28,0,1,1-1.28-1.27,1.27,1.27,0,0,1,1.28,1.27"/><path class="cls-1" d="M76,51.15a1.27,1.27,0,1,1-1.27-1.27A1.27,1.27,0,0,1,76,51.15"/><path class="cls-1" d="M64.13,60.44a1.28,1.28,0,1,1-1.28-1.27,1.27,1.27,0,0,1,1.28,1.27"/><path class="cls-1" d="M68.62,78a1.27,1.27,0,1,1-1.27-1.28A1.27,1.27,0,0,1,68.62,78"/><path class="cls-1" d="M63.53,69.4a1.27,1.27,0,1,1-1.27-1.27,1.27,1.27,0,0,1,1.27,1.27"/><path class="cls-1" d="M88.22,69.67a1.28,1.28,0,1,1-1.28-1.28,1.27,1.27,0,0,1,1.28,1.28"/><path class="cls-1" d="M54.15,77.07a1.28,1.28,0,1,1-1.27-1.27,1.27,1.27,0,0,1,1.27,1.27"/><path class="cls-1" d="M96.74,77.67a1.28,1.28,0,1,1-1.27-1.27,1.27,1.27,0,0,1,1.27,1.27"/><path class="cls-1" d="M86.27,89.17A1.28,1.28,0,1,1,85,87.9a1.27,1.27,0,0,1,1.28,1.27"/><path class="cls-1" d="M65.56,88.65a1.28,1.28,0,1,1-1.27-1.27,1.27,1.27,0,0,1,1.27,1.27"/><path class="cls-1" d="M69.41,101.9a1.27,1.27,0,1,1-1.27-1.27,1.27,1.27,0,0,1,1.27,1.27"/><path class="cls-1" d="M82.41,101.9a1.27,1.27,0,1,1-1.27-1.27,1.27,1.27,0,0,1,1.27,1.27"/><polyline class="cls-6" points="62.85 60.44 74.71 51.15 87.05 60.44"/><rect class="cls-8" x="0.5" y="0.5" width="288.4" height="129.67" rx="5.5" ry="5.5"/></g></g></svg>