<svg xmlns="http://www.w3.org/2000/svg" viewBox="0 0 318.92 116.9"><defs><style>.cls-1{fill:#3f485d;}</style></defs><title>biometric-4</title><g id="Layer_2" data-name="Layer 2"><g id="Layer_1-2" data-name="Layer 1"><path class="cls-1" d="M222.59,29c.42-3.64,1.5-15-1.29-17.5-6.25-5.57-20.38-12.37-22.86-1.89h0c-.19-.06-5.88-1.6-8.77.86s-4,10.28-3,18.58c-2.49.33-3.37,1.25-3.6,3.58a11.49,11.49,0,0,0,1.61,7.18c1,1.73,2.9,2.59,3,3a27.34,27.34,0,0,0,3.46,7.56c2.82,4.27,6.67,7.07,13.4,7.07,5.8,0,9.81-2.7,12.81-7a26.58,26.58,0,0,0,3.65-7.3c.39-1.06.85-1,1.94-1.69a6.81,6.81,0,0,0,1.75-2,11.51,11.51,0,0,0,1.43-5.79c-.06-3.21-1-4.3-3.49-4.62m-37.53,2.72a1.32,1.32,0,0,1,1.05-.8c.43,0,.4.67.41,1A55.15,55.15,0,0,0,187,39.8c-2-2-2.8-6.31-1.94-8.08M217.51,47c-1.69,3.3-5.42,8.78-12.81,8.78-6.33,0-10-2.43-12.85-7.46-3-5.34-3.35-8.88-3.35-13.72,0-2.57-.32-5.13-.2-7.69.16-3.55,1.1-5.09,4.36-6.68,4.69-2.27,4.36-5.09,5.77-5.11s4.18,3.24,11.87,4c3.53.32,5.91-.23,8.27,3.39a12.36,12.36,0,0,1,2,7.85c0,6.88-.89,12.57-3,16.69m4.42-7.07a45.45,45.45,0,0,0,.63-8.34c0-.79.48-.81.93-.45a2,2,0,0,1,.65,1.13c.43,2.44-.28,6.1-2.21,7.66"/><path class="cls-1" d="M199.59,35.6a1.48,1.48,0,1,0-1.48,1.48,1.48,1.48,0,0,0,1.48-1.48"/><path class="cls-1" d="M212.35,34.33a1.48,1.48,0,1,0,1.48,1.48,1.48,1.48,0,0,0-1.48-1.48"/><path class="cls-1" d="M209.51,47.3a15.55,15.55,0,0,1-10-.28.62.62,0,0,0-.83.29.63.63,0,0,0,.3.84,14,14,0,0,0,5.71,1.06,19.46,19.46,0,0,0,5.12-.71.62.62,0,1,0-.33-1.2"/><path class="cls-1" d="M200.07,31.21c.24.15.52,0,.64-.29a.72.72,0,0,0-.23-.84c-.11-.06-2.78-1.68-6.39.55a.73.73,0,0,0-.23.84.5.5,0,0,0,.44.35.42.42,0,0,0,.21-.06c3.16-2,5.46-.61,5.56-.55"/><path class="cls-1" d="M215.55,30.63c-3.61-2.23-6.28-.61-6.4-.55a.73.73,0,0,0-.22.84.44.44,0,0,0,.64.29c.1-.06,2.4-1.41,5.56.55a.42.42,0,0,0,.21.06.5.5,0,0,0,.44-.35.73.73,0,0,0-.23-.84"/><path class="cls-1" d="M206.42,50.58a16.53,16.53,0,0,1-4.17-.11.62.62,0,1,0-.2,1.23,16.94,16.94,0,0,0,2.69.21c.59,0,1.2,0,1.8-.09a.62.62,0,0,0,.56-.68.61.61,0,0,0-.68-.56"/><path class="cls-1" d="M205.49,44.15a3.14,3.14,0,0,0,3.35-2.81,4.89,4.89,0,0,0-1.1-3.11,5.52,5.52,0,0,1-1-2.19.58.58,0,0,0-1.14.18,6.56,6.56,0,0,0,1.2,2.65,3.81,3.81,0,0,1,.9,2.4A2,2,0,0,1,205.49,43a3.66,3.66,0,0,1-2.69-1,.58.58,0,1,0-.81.82,4.82,4.82,0,0,0,3.5,1.3"/><path class="cls-1" d="M179.16,62h-6.57a1.34,1.34,0,0,1-1.34-1.35V53.53h2.69v5.81h5.22Z"/><path class="cls-1" d="M236.34,62H230V59.34h5V54.51h2.69v6.17A1.34,1.34,0,0,1,236.34,62"/><path class="cls-1" d="M237.68,8.34H235V2.69h-5V0h6.31a1.34,1.34,0,0,1,1.34,1.35Z"/><path class="cls-1" d="M173.94,7.54h-2.69V1.35A1.34,1.34,0,0,1,172.59,0h7.48V2.69h-6.13Z"/><path class="cls-1" d="M51.34,57.07c.43-3.64,1.51-15-1.28-17.5C43.81,34,29.67,27.19,27.19,37.68h0c-.2-.06-5.88-1.6-8.77.86s-4,10.28-3,18.58c-2.48.33-3.37,1.25-3.59,3.58a11.43,11.43,0,0,0,1.61,7.18c1.05,1.73,2.89,2.59,3,2.94a27.45,27.45,0,0,0,3.47,7.56c2.82,4.27,6.67,7.08,13.39,7.08,5.81,0,9.81-2.71,12.82-7a26.87,26.87,0,0,0,3.65-7.3c.39-1.06.84-1,1.93-1.69a6.75,6.75,0,0,0,1.76-2,11.58,11.58,0,0,0,1.42-5.79c0-3.2-1-4.29-3.49-4.61M13.81,59.79a1.33,1.33,0,0,1,1.06-.8c.42,0,.4.67.4,1a56.86,56.86,0,0,0,.49,7.87c-2-2-2.81-6.32-1.95-8.08M46.27,75c-1.69,3.29-5.43,8.78-12.81,8.78-6.33,0-10-2.43-12.85-7.47-3-5.33-3.35-8.87-3.35-13.71,0-2.57-.32-5.14-.21-7.7.17-3.55,1.11-5.08,4.37-6.67,4.68-2.28,4.35-5.1,5.77-5.11s4.18,3.24,11.87,3.94c3.53.33,5.9-.22,8.27,3.39a12.53,12.53,0,0,1,2,7.86c0,6.88-.9,12.57-3,16.69M50.69,68a45.52,45.52,0,0,0,.62-8.34c0-.79.49-.81.94-.45a2,2,0,0,1,.64,1.13c.43,2.44-.27,6.1-2.2,7.66"/><path class="cls-1" d="M28.34,63.67a1.48,1.48,0,1,0-1.47,1.48,1.47,1.47,0,0,0,1.47-1.48"/><path class="cls-1" d="M41.11,62.4a1.48,1.48,0,1,0,1.48,1.48,1.48,1.48,0,0,0-1.48-1.48"/><path class="cls-1" d="M38.27,75.36a15.5,15.5,0,0,1-10-.27.62.62,0,0,0-.54,1.12,14,14,0,0,0,5.72,1.06,19.47,19.47,0,0,0,5.12-.7.63.63,0,1,0-.33-1.21"/><path class="cls-1" d="M28.82,59.28a.45.45,0,0,0,.65-.29.74.74,0,0,0-.23-.84c-.11-.07-2.79-1.68-6.39.55a.71.71,0,0,0-.23.83.48.48,0,0,0,.43.36.42.42,0,0,0,.21-.06c3.17-2,5.46-.61,5.56-.55"/><path class="cls-1" d="M44.3,58.7c-3.6-2.23-6.28-.62-6.39-.55a.71.71,0,0,0-.22.84.44.44,0,0,0,.64.29c.1-.06,2.39-1.41,5.56.55a.42.42,0,0,0,.21.06.48.48,0,0,0,.43-.36.71.71,0,0,0-.23-.83"/><path class="cls-1" d="M35.17,78.64A15.66,15.66,0,0,1,31,78.53a.63.63,0,0,0-.19,1.24,16.91,16.91,0,0,0,2.68.21c.6,0,1.2,0,1.81-.09a.63.63,0,0,0-.13-1.25"/><path class="cls-1" d="M34.24,72.22a3.14,3.14,0,0,0,3.35-2.81,4.76,4.76,0,0,0-1.1-3.11,5.56,5.56,0,0,1-1-2.19.57.57,0,0,0-.66-.48.58.58,0,0,0-.48.66,6.54,6.54,0,0,0,1.19,2.65,3.82,3.82,0,0,1,.91,2.4,2,2,0,0,1-2.2,1.72,3.67,3.67,0,0,1-2.69-1,.58.58,0,0,0-.81,0,.57.57,0,0,0,0,.82,4.8,4.8,0,0,0,3.49,1.3"/><path class="cls-1" d="M7.91,90.1H1.35A1.35,1.35,0,0,1,0,88.75V81.6H2.69v5.8H7.91Z"/><path class="cls-1" d="M65.09,90.1h-6.3V87.4h5V82.58h2.69v6.17a1.35,1.35,0,0,1-1.35,1.35"/><path class="cls-1" d="M66.44,36.41H63.75V30.76h-5V28.07h6.3a1.34,1.34,0,0,1,1.35,1.34Z"/><path class="cls-1" d="M2.69,35.6H0V29.41a1.34,1.34,0,0,1,1.35-1.34H8.83v2.69H2.69Z"/><path class="cls-1" d="M113,89.31a1.87,1.87,0,1,0,1.87,1.87A1.87,1.87,0,0,0,113,89.31"/><path class="cls-1" d="M125.5,89.31a1.87,1.87,0,1,0,1.87,1.87,1.87,1.87,0,0,0-1.87-1.87"/><path class="cls-1" d="M122.4,101.28a6.1,6.1,0,0,1-5.82.14.63.63,0,0,0-.81.33.62.62,0,0,0,.33.82,6.14,6.14,0,0,0,3.52.82,7.12,7.12,0,0,0,3.16-.92.68.68,0,0,0,.4-.79.58.58,0,0,0-.78-.4"/><path class="cls-1" d="M116,84.27a.66.66,0,0,0-.37-.79c-.14,0-3.41-1.21-7.19,1.59a.68.68,0,0,0-.14.87.57.57,0,0,0,.55.28.62.62,0,0,0,.22-.1c3.32-2.46,6.12-1.5,6.25-1.46a.52.52,0,0,0,.68-.39"/><path class="cls-1" d="M122.62,84.27a.66.66,0,0,1,.37-.79c.14,0,3.41-1.21,7.19,1.59a.68.68,0,0,1,.14.87.57.57,0,0,1-.55.28.62.62,0,0,1-.22-.1c-3.32-2.46-6.12-1.5-6.24-1.46a.52.52,0,0,1-.69-.39"/><path class="cls-1" d="M142.76,100s-2.87-3.39-1.68-12.46c.2-1.56,1-9.27-1.92-16.2S128.09,61.18,123.69,60.6v0a16.78,16.78,0,0,0-6.67.29,11.58,11.58,0,0,0-5.49,3.47s-7.28-2-13,9.38C96.46,78,97.8,82.42,98,86.22c.22,5.91-1.76,8.6-4.48,10.25,0,0,0,6.78,7.93,10a10.65,10.65,0,0,0,7.41.16,15.66,15.66,0,0,0,10.69,4.19,15,15,0,0,0,12.05-5.94c.35-.47,1-1.48,1-1.48A10.32,10.32,0,0,0,142.76,100m-23.07,9.24c-6.33,0-9.44-2.84-12.74-7.53-3.08-4.4-3-7.08-3-7.08-1,.17-3.48-.33-3.48-4.4s3.14-3.61,3.14-3.61l-.31-4.38h0c0-.34,0-.68,0-1,3.26-.31,6.81-2.88,9.47-8.9,0,0,7.81,9.1,22.8,9l.06.09L135,86.65s3.14-.47,3.14,3.61-2.48,4.57-3.48,4.4c0,0-2.86,14.61-14.92,14.61"/><path class="cls-1" d="M92.81,116.9H86.24a1.34,1.34,0,0,1-1.34-1.35V108.4h2.69v5.81h5.22Z"/><path class="cls-1" d="M150,116.9h-6.3v-2.69h4.95v-4.83h2.7v6.17A1.35,1.35,0,0,1,150,116.9"/><path class="cls-1" d="M151.34,63.21h-2.7V57.56h-4.95V54.87H150a1.35,1.35,0,0,1,1.35,1.35Z"/><path class="cls-1" d="M87.59,62.4H84.9V56.22a1.34,1.34,0,0,1,1.34-1.35h7.49v2.69H87.59Z"/><path class="cls-1" d="M280.58,64.5a1.87,1.87,0,1,0,1.87,1.87,1.87,1.87,0,0,0-1.87-1.87"/><path class="cls-1" d="M293.08,64.5A1.87,1.87,0,1,0,295,66.37a1.86,1.86,0,0,0-1.87-1.87"/><path class="cls-1" d="M290,76.47a6.08,6.08,0,0,1-5.81.14.62.62,0,0,0-.82.33.62.62,0,0,0,.33.82,6.16,6.16,0,0,0,3.53.82,7.19,7.19,0,0,0,3.16-.92.69.69,0,0,0,.4-.79.59.59,0,0,0-.79-.4"/><path class="cls-1" d="M283.63,59.45a.67.67,0,0,0-.38-.78c-.14-.05-3.4-1.21-7.19,1.59a.66.66,0,0,0-.13.86.54.54,0,0,0,.54.28.5.5,0,0,0,.23-.09c3.32-2.46,6.11-1.5,6.24-1.46a.53.53,0,0,0,.69-.4"/><path class="cls-1" d="M290.2,59.45a.66.66,0,0,1,.38-.78c.14-.05,3.4-1.21,7.18,1.59a.66.66,0,0,1,.14.86.54.54,0,0,1-.54.28.5.5,0,0,1-.23-.09c-3.32-2.46-6.12-1.5-6.24-1.46a.53.53,0,0,1-.69-.4"/><path class="cls-1" d="M310.35,75.22s-2.88-3.4-1.69-12.47c.21-1.55,1-9.26-1.92-16.19s-11.07-10.19-15.47-10.77h0a16.85,16.85,0,0,0-6.68.3,11.66,11.66,0,0,0-5.49,3.46s-7.28-2-13,9.39c-2.11,4.25-.76,8.65-.62,12.46.23,5.91-1.76,8.6-4.48,10.24,0,0,0,6.79,7.93,10a10.59,10.59,0,0,0,7.41.15,15.67,15.67,0,0,0,10.69,4.2,15,15,0,0,0,12.06-6c.35-.46,1-1.47,1-1.47a10.32,10.32,0,0,0,10.19-3.41m-23.07,9.24c-6.33,0-9.44-2.84-12.74-7.54-3.08-4.39-3.06-7.07-3.06-7.07-1,.17-3.48-.33-3.48-4.41s3.14-3.6,3.14-3.6l-.3-4.39h0v-1c3.25-.32,6.81-2.88,9.46-8.9,0,0,7.82,9.1,22.8,9a.27.27,0,0,1,.07.08l-.63,5.15s3.13-.47,3.13,3.6-2.48,4.58-3.47,4.41c0,0-2.86,14.61-14.92,14.61"/><path class="cls-1" d="M260.39,92.09h-6.56a1.35,1.35,0,0,1-1.35-1.35V83.59h2.69v5.8h5.22Z"/><path class="cls-1" d="M317.57,92.09h-6.3v-2.7h5V84.57h2.69v6.17a1.35,1.35,0,0,1-1.35,1.35"/><path class="cls-1" d="M318.92,38.4h-2.69V32.75h-5V30.06h6.3a1.34,1.34,0,0,1,1.35,1.34Z"/><path class="cls-1" d="M255.17,37.59h-2.69V31.4a1.34,1.34,0,0,1,1.35-1.34h7.48v2.69h-6.14Z"/></g></g></svg>