<svg xmlns="http://www.w3.org/2000/svg" viewBox="0 0 340.34 115.76"><defs><style>.cls-1{fill:#3f485d;}.cls-2,.cls-3,.cls-4,.cls-5{fill:none;}.cls-2{stroke:#fac716;stroke-width:3px;}.cls-2,.cls-4,.cls-5{stroke-linejoin:round;}.cls-3,.cls-4,.cls-5{stroke:#00b1eb;stroke-width:0.7px;}.cls-3{stroke-miterlimit:10;}.cls-5{stroke-linecap:round;}.cls-6{fill:#00b1eb;}</style></defs><title>biometric-3</title><g id="Layer_2" data-name="Layer 2"><g id="Layer_1-2" data-name="Layer 1"><path class="cls-1" d="M220.51,60.35c-.13-7.18-2.35-9.53-8-10.18-.23-4.38-.82-12.35-1.71-16.41C207.35,17.87,201,9.62,191.26,5.6c-7.63-3.17-15.82-2.86-23.89-2.47-20.2,1-31.21,15-33.17,36.91A100.6,100.6,0,0,0,134,50.33c-5.56.71-7.52,2.73-8,7.88A25.15,25.15,0,0,0,129.49,74c2.31,3.8,5.68,5.28,5.91,6.08,2,7.14,3.48,11.93,8.33,19.53a35.18,35.18,0,0,0,29.4,16.19,32.92,32.92,0,0,0,28-15.16c4.58-7.07,6.38-11.76,9-19.71.77-2.36,1-2,3.4-3.51a14.94,14.94,0,0,0,3.85-4.32,25.36,25.36,0,0,0,3.14-12.71M134.73,73.92c-4.33-4.37-6.15-13.86-4.27-17.72a2.9,2.9,0,0,1,2.32-1.76c.93.08.87,1.46.88,2.2a123.35,123.35,0,0,0,1.07,17.28m74-20.79c.67,29-6.83,39.62-7,39.49-2.49,5.8-10.95,19.66-28.23,19.66-13.9,0-21.31-5.22-28-16.54-5.67-9.66-8.15-19.58-8.07-33.31,0-5.63-.21-11.28.05-16.9a33.19,33.19,0,0,1,8-20.85,3.37,3.37,0,0,1,4.4-1.05c2.85,1.26,5.41,3.39,8.47,3.93a24.15,24.15,0,0,0,14.24-1.38c5.64-2.42,9-6.35,12.79-6.32,5.53-.52,12,2.23,17.19,10.17,4.74,7.25,6,19,6,23.1m2.64,21a98.68,98.68,0,0,0,1.37-18.31c0-1.74,1.07-1.78,2.06-1a4.42,4.42,0,0,1,1.42,2.47c.94,5.36-.61,13.39-4.85,16.82"/><path class="cls-1" d="M168.51,82.57a3.94,3.94,0,0,1,1.53.16c.43.14,1.36.75,1.62.81a4.65,4.65,0,0,0,3.38.13c.47-.16,1.09-.73,1.58-.91a4.51,4.51,0,0,1,1.79-.2,4.3,4.3,0,0,0,4.76-3.87c0-.6.18-1.53-.92-1.71s-1.18.59-1.33,1.08c-.58,1.93-1.24,2.16-2.91,1.73a3.48,3.48,0,0,0-2.62.61,2.75,2.75,0,0,1-3.89,0,3.43,3.43,0,0,0-2.46-.59c-1.54.3-2.45,0-3-1.57-.2-.6-.54-1.26-1.55-1-.8.18-.85,1.19-.72,1.9a4.32,4.32,0,0,0,4.72,3.41"/><path class="cls-1" d="M173.49,84a4.56,4.56,0,0,1-1.87-.4,3.71,3.71,0,0,1-.75-.37,6.86,6.86,0,0,0-.87-.43,3.88,3.88,0,0,0-1.48-.16,4.39,4.39,0,0,1-4.84-3.5c-.15-.82,0-1.84.81-2,1.08-.25,1.46.46,1.68,1.1.53,1.61,1.45,1.77,2.84,1.5a3.66,3.66,0,0,1,2.56.6,2.63,2.63,0,0,0,3.75,0,3.56,3.56,0,0,1,2.72-.63c1.61.41,2.2.24,2.77-1.65v0c.14-.49.39-1.31,1.45-1.14s1,1.07,1,1.66c0,.06,0,.11,0,.17a3.9,3.9,0,0,1-1.3,2.76,4.88,4.88,0,0,1-3.58,1.23,4.33,4.33,0,0,0-1.74.19,3.59,3.59,0,0,0-.76.44,4.14,4.14,0,0,1-.82.47,5.29,5.29,0,0,1-1.59.26m-4.64-1.6a3.91,3.91,0,0,1,1.22.18,8.34,8.34,0,0,1,.92.45,4.68,4.68,0,0,0,.7.36,4.55,4.55,0,0,0,3.31.13,3.51,3.51,0,0,0,.78-.44,3.77,3.77,0,0,1,.8-.47,4.6,4.6,0,0,1,1.83-.2,4.69,4.69,0,0,0,3.41-1.16,3.69,3.69,0,0,0,1.23-2.61,1,1,0,0,0,0-.18c0-.59.07-1.26-.83-1.41s-1,.47-1.19,1v0c-.63,2.07-1.41,2.23-3.05,1.81a3.41,3.41,0,0,0-2.52.59,2.85,2.85,0,0,1-4,.05,3.35,3.35,0,0,0-2.38-.57c-1.49.29-2.52.11-3.11-1.64-.2-.62-.51-1.16-1.41-1-.69.16-.77,1-.64,1.77a4.18,4.18,0,0,0,4.61,3.31h.34"/><path class="cls-1" d="M159.82,62.17a3.24,3.24,0,1,1-3.24-3.24,3.25,3.25,0,0,1,3.24,3.24"/><path class="cls-1" d="M193.62,62.63a3.25,3.25,0,1,1-3.24-3.24,3.24,3.24,0,0,1,3.24,3.24"/><path class="cls-1" d="M173.63,97.11a30.81,30.81,0,0,1-12.55-2.33,1.37,1.37,0,0,1,1.18-2.47c.09,0,9,4.13,21.89.6a1.37,1.37,0,0,1,.72,2.65,42.84,42.84,0,0,1-11.24,1.55"/><path class="cls-1" d="M147.27,55.56a1.37,1.37,0,0,1-.59-2.61c10.27-4.9,17.87-1.36,18.19-1.2a1.37,1.37,0,0,1-1.19,2.47c-.29-.14-6.81-3.09-15.82,1.2a1.38,1.38,0,0,1-.59.14"/><path class="cls-1" d="M199.33,56.47a1.4,1.4,0,0,1-.59-.13c-9-4.31-15.54-1.34-15.82-1.21a1.37,1.37,0,0,1-1.18-2.47c.32-.15,7.92-3.69,18.18,1.2a1.37,1.37,0,0,1-.59,2.61"/><path class="cls-1" d="M173.66,103a37.08,37.08,0,0,1-5.9-.46,1.37,1.37,0,0,1,.43-2.71,36.27,36.27,0,0,0,9.16.25,1.37,1.37,0,1,1,.27,2.72c-1.33.13-2.65.2-4,.2"/><polyline class="cls-2" points="124.55 112.2 112.3 112.2 112.3 98.86"/><polyline class="cls-2" points="231.23 100.68 231.23 112.2 219.47 112.2"/><polyline class="cls-2" points="219.47 1.5 231.23 1.5 231.23 14.54"/><polyline class="cls-2" points="112.3 13.05 112.3 1.5 126.26 1.5"/><polyline class="cls-3" points="156.81 92.09 166.89 97.43 176.86 97.43 186.5 92.83 171.85 88.58 156.81 92.09"/><polyline class="cls-3" points="171.91 58.72 161.53 77.32 171.95 81.88"/><polyline class="cls-4" points="166.89 97.43 162.65 110.83 181.05 110.83 176.86 97.43"/><polyline class="cls-4" points="172.75 59 188.99 65.59 201.32 57.51 189.41 52.17 171.95 58.94 171.95 81.88 181.75 77.03 172.22 58.94"/><polyline class="cls-5" points="183.37 77.36 202.26 76.95 186.5 92.83 182.52 77.32"/><polyline class="cls-3" points="181.05 110.83 202.12 77.26 201.32 57.51"/><polyline class="cls-4" points="171.19 58.72 154.32 64.85 142 56.78 155.2 51.75 171.95 58.94"/><polyline class="cls-5" points="160.68 77.36 141.05 76.22 156.81 92.09 161.53 77.32"/><polyline class="cls-3" points="162.65 110.83 140.46 75.79 142 56.78"/><path class="cls-6" d="M143.66,56.49a1.8,1.8,0,1,1-1.8-1.8,1.8,1.8,0,0,1,1.8,1.8"/><path class="cls-6" d="M173.83,58.63a1.8,1.8,0,1,1-1.8-1.8,1.8,1.8,0,0,1,1.8,1.8"/><path class="cls-6" d="M202.71,57.51a1.8,1.8,0,1,1-1.8-1.8,1.8,1.8,0,0,1,1.8,1.8"/><path class="cls-6" d="M183.69,77a1.8,1.8,0,1,1-1.8-1.8,1.8,1.8,0,0,1,1.8,1.8"/><path class="cls-6" d="M173.83,81.25a1.8,1.8,0,1,1-1.8-1.8,1.81,1.81,0,0,1,1.8,1.8"/><path class="cls-6" d="M191.06,52.17a1.8,1.8,0,1,1-1.8-1.8,1.8,1.8,0,0,1,1.8,1.8"/><path class="cls-6" d="M173.75,39a1.8,1.8,0,1,1-1.8-1.8,1.81,1.81,0,0,1,1.8,1.8"/><path class="cls-6" d="M157,52.17a1.8,1.8,0,1,1-1.8-1.8,1.79,1.79,0,0,1,1.8,1.8"/><path class="cls-6" d="M163.33,77a1.8,1.8,0,1,1-1.8-1.8,1.79,1.79,0,0,1,1.8,1.8"/><path class="cls-6" d="M156.13,64.85a1.8,1.8,0,1,1-1.8-1.8,1.79,1.79,0,0,1,1.8,1.8"/><path class="cls-6" d="M191.06,65.22a1.8,1.8,0,1,1-1.8-1.8,1.8,1.8,0,0,1,1.8,1.8"/><path class="cls-6" d="M142.85,75.7a1.8,1.8,0,1,1-1.8-1.8,1.79,1.79,0,0,1,1.8,1.8"/><path class="cls-6" d="M203.12,76.56a1.8,1.8,0,1,1-1.8-1.8,1.81,1.81,0,0,1,1.8,1.8"/><path class="cls-6" d="M188.3,92.83a1.8,1.8,0,1,1-1.8-1.8,1.8,1.8,0,0,1,1.8,1.8"/><path class="cls-6" d="M159,92.09a1.8,1.8,0,1,1-1.8-1.8,1.81,1.81,0,0,1,1.8,1.8"/><path class="cls-6" d="M164.45,110.83a1.8,1.8,0,1,1-1.8-1.8,1.79,1.79,0,0,1,1.8,1.8"/><path class="cls-6" d="M182.85,110.83a1.8,1.8,0,1,1-1.8-1.8,1.8,1.8,0,0,1,1.8,1.8"/><polyline class="cls-4" points="155.17 52.17 171.95 39.02 189.42 52.17"/><path class="cls-1" d="M276.91,59.69c.27-2.34,1-9.65-.83-11.24-4-3.58-13.09-8-14.69-1.22h0c-.12,0-3.78-1-5.64.55s-2.59,6.61-2,11.94c-1.6.21-2.17.8-2.31,2.3a7.32,7.32,0,0,0,1,4.61c.67,1.11,1.85,1.66,1.94,1.89a17.71,17.71,0,0,0,2.22,4.86,10.09,10.09,0,0,0,16.84,0,17.38,17.38,0,0,0,2.35-4.69c.25-.68.54-.63,1.24-1.09a4.25,4.25,0,0,0,1.13-1.26,7.43,7.43,0,0,0,.91-3.72c0-2.06-.67-2.75-2.24-3M252.8,61.44a.85.85,0,0,1,.68-.52c.27,0,.25.43.26.65a34.75,34.75,0,0,0,.31,5.05c-1.27-1.28-1.8-4.05-1.25-5.18m20.85,9.78c-1.09,2.12-3.49,5.65-8.23,5.65a8.48,8.48,0,0,1-8.25-4.8A15.36,15.36,0,0,1,255,63.26c0-1.65-.21-3.3-.14-4.94.11-2.28.71-3.27,2.81-4.29,3-1.46,2.79-3.28,3.7-3.28s2.69,2.08,7.63,2.53c2.27.21,3.79-.14,5.31,2.18a8,8,0,0,1,1.25,5c0,4.41-.57,8.07-1.93,10.71m2.84-4.54a28.87,28.87,0,0,0,.4-5.35c0-.51.31-.52.6-.29a1.25,1.25,0,0,1,.41.72c.28,1.57-.17,3.92-1.41,4.92"/><path class="cls-1" d="M262.14,63.93a.95.95,0,1,0-.95.95.95.95,0,0,0,.95-.95"/><path class="cls-1" d="M270.34,63.11a1,1,0,1,0,.94,1,.95.95,0,0,0-.94-1"/><path class="cls-1" d="M268.51,71.44a9.89,9.89,0,0,1-6.4-.18.4.4,0,0,0-.35.73,9.07,9.07,0,0,0,3.67.68,12.28,12.28,0,0,0,3.29-.46.39.39,0,0,0,.28-.49.4.4,0,0,0-.49-.28"/><path class="cls-1" d="M262.44,61.11a.29.29,0,0,0,.42-.19.48.48,0,0,0-.15-.54,4,4,0,0,0-4.11.36.45.45,0,0,0-.14.53.3.3,0,0,0,.28.23.22.22,0,0,0,.13,0,3.44,3.44,0,0,1,3.57-.35"/><path class="cls-1" d="M272.39,60.74a4,4,0,0,0-4.11-.36.46.46,0,0,0-.14.54.28.28,0,0,0,.41.19,3.45,3.45,0,0,1,3.57.35.22.22,0,0,0,.13,0,.3.3,0,0,0,.28-.23.45.45,0,0,0-.14-.53"/><path class="cls-1" d="M266.52,73.55a10.87,10.87,0,0,1-2.68-.07.4.4,0,0,0-.46.33.41.41,0,0,0,.34.46,10.89,10.89,0,0,0,1.72.13c.39,0,.77,0,1.16-.05a.41.41,0,0,0,.36-.44.4.4,0,0,0-.44-.36"/><path class="cls-1" d="M265.92,69.42a2,2,0,0,0,2.16-1.8,3.13,3.13,0,0,0-.71-2,3.57,3.57,0,0,1-.65-1.41.38.38,0,0,0-.43-.31.36.36,0,0,0-.3.43,4.36,4.36,0,0,0,.76,1.7,2.38,2.38,0,0,1,.58,1.54,1.29,1.29,0,0,1-1.41,1.11,2.33,2.33,0,0,1-1.72-.63.38.38,0,0,0-.53,0,.37.37,0,0,0,0,.52,3.06,3.06,0,0,0,2.24.84"/><path class="cls-1" d="M249,80.9h-4.22a.86.86,0,0,1-.86-.86v-4.6h1.73v3.73H249Z"/><path class="cls-1" d="M285.74,80.9h-4.05V79.17h3.19v-3.1h1.73v4a.86.86,0,0,1-.87.86"/><path class="cls-1" d="M286.61,46.41h-1.73V42.79h-3.19V41.06h4.05a.87.87,0,0,1,.87.86Z"/><path class="cls-1" d="M245.66,45.9h-1.73v-4a.87.87,0,0,1,.86-.86h4.81v1.73h-3.94Z"/><path class="cls-1" d="M33,59.69c.28-2.34,1-9.65-.82-11.24-4-3.58-13.1-8-14.69-1.22h0c-.12,0-3.77-1-5.63.55s-2.59,6.61-2,11.94c-1.59.21-2.16.8-2.31,2.3a7.38,7.38,0,0,0,1,4.61c.67,1.11,1.86,1.66,1.94,1.89a17.49,17.49,0,0,0,2.23,4.86,9.4,9.4,0,0,0,8.6,4.54,9.51,9.51,0,0,0,8.23-4.52,17.09,17.09,0,0,0,2.35-4.69c.25-.68.54-.63,1.24-1.09a4.25,4.25,0,0,0,1.13-1.26,7.54,7.54,0,0,0,.92-3.72c0-2.06-.67-2.75-2.25-3M8.87,61.44a.86.86,0,0,1,.68-.52c.28,0,.26.43.26.65a36.23,36.23,0,0,0,.31,5.05c-1.27-1.28-1.8-4.05-1.25-5.18m20.85,9.78c-1.08,2.12-3.48,5.65-8.23,5.65a8.49,8.49,0,0,1-8.25-4.8,15.36,15.36,0,0,1-2.15-8.81c0-1.65-.21-3.3-.13-4.94.1-2.28.71-3.27,2.8-4.29,3-1.46,2.8-3.28,3.71-3.28s2.68,2.08,7.62,2.53c2.27.21,3.79-.14,5.31,2.18a8,8,0,0,1,1.25,5c0,4.41-.57,8.07-1.93,10.71m2.84-4.54a28.87,28.87,0,0,0,.4-5.35c0-.51.31-.52.6-.29a1.26,1.26,0,0,1,.42.72c.27,1.57-.18,3.92-1.42,4.92"/><path class="cls-1" d="M18.21,63.93a1,1,0,1,0-.95.95.95.95,0,0,0,.95-.95"/><path class="cls-1" d="M26.41,63.11a1,1,0,1,0,.95,1,.95.95,0,0,0-.95-1"/><path class="cls-1" d="M24.58,71.44a9.9,9.9,0,0,1-6.4-.18.4.4,0,0,0-.35.73,9.09,9.09,0,0,0,3.68.68,12.22,12.22,0,0,0,3.28-.46.4.4,0,0,0,.29-.49.41.41,0,0,0-.5-.28"/><path class="cls-1" d="M18.52,61.11c.15.09.33,0,.41-.19a.47.47,0,0,0-.15-.54,3.94,3.94,0,0,0-4.1.36.45.45,0,0,0-.15.53.3.3,0,0,0,.28.23.22.22,0,0,0,.13,0,3.47,3.47,0,0,1,3.58-.35"/><path class="cls-1" d="M28.46,60.74a4,4,0,0,0-4.11-.36.46.46,0,0,0-.14.54.28.28,0,0,0,.41.19,3.45,3.45,0,0,1,3.57.35.25.25,0,0,0,.14,0,.32.32,0,0,0,.28-.23.46.46,0,0,0-.15-.53"/><path class="cls-1" d="M22.6,73.55a10.86,10.86,0,0,1-2.68-.07.39.39,0,0,0-.46.33.4.4,0,0,0,.33.46,10.89,10.89,0,0,0,1.72.13c.39,0,.77,0,1.16-.05a.4.4,0,0,0,.36-.44.39.39,0,0,0-.43-.36"/><path class="cls-1" d="M22,69.42a2,2,0,0,0,2.15-1.8,3.08,3.08,0,0,0-.71-2,3.57,3.57,0,0,1-.65-1.41.37.37,0,1,0-.73.12,4.36,4.36,0,0,0,.76,1.7,2.39,2.39,0,0,1,.59,1.54A1.3,1.3,0,0,1,22,68.68a2.34,2.34,0,0,1-1.73-.63.38.38,0,0,0-.53,0,.37.37,0,0,0,0,.52,3.07,3.07,0,0,0,2.25.84"/><path class="cls-1" d="M5.08,80.9H.87A.86.86,0,0,1,0,80v-4.6H1.73v3.73H5.08Z"/><path class="cls-1" d="M41.81,80.9h-4V79.17H41v-3.1h1.73v4a.86.86,0,0,1-.87.86"/><path class="cls-1" d="M42.68,46.41H41V42.79H37.77V41.06h4a.87.87,0,0,1,.86.86Z"/><path class="cls-1" d="M1.73,45.9H0v-4a.87.87,0,0,1,.87-.86h4.8v1.73H1.73Z"/><path class="cls-1" d="M71.08,63.18a1.2,1.2,0,1,0,1.2,1.2,1.2,1.2,0,0,0-1.2-1.2"/><path class="cls-1" d="M79.11,63.18a1.2,1.2,0,1,0,1.2,1.2,1.2,1.2,0,0,0-1.2-1.2"/><path class="cls-1" d="M77.12,70.87a3.94,3.94,0,0,1-3.74.09.4.4,0,0,0-.52.22.39.39,0,0,0,.21.52,4,4,0,0,0,2.27.53,4.56,4.56,0,0,0,2-.6.42.42,0,0,0,.26-.5.38.38,0,0,0-.5-.26"/><path class="cls-1" d="M73,59.94a.43.43,0,0,0-.25-.5,5.05,5.05,0,0,0-4.61,1,.43.43,0,0,0-.09.55.34.34,0,0,0,.35.18.24.24,0,0,0,.15-.06,4.44,4.44,0,0,1,4-.93.35.35,0,0,0,.45-.26"/><path class="cls-1" d="M77.26,59.94a.41.41,0,0,1,.24-.5,5.07,5.07,0,0,1,4.62,1,.43.43,0,0,1,.09.55.35.35,0,0,1-.35.18.22.22,0,0,1-.15-.06,4.46,4.46,0,0,0-4-.93.34.34,0,0,1-.44-.26"/><path class="cls-1" d="M90.2,70.07s-1.85-2.18-1.08-8a21.87,21.87,0,0,0-1.23-10.4c-1.88-4.45-7.12-6.55-10-6.92h0a10.78,10.78,0,0,0-4.28.19,7.42,7.42,0,0,0-3.53,2.22s-4.68-1.31-8.32,6c-1.35,2.73-.49,5.56-.4,8,.15,3.8-1.13,5.52-2.87,6.58,0,0,0,4.36,5.09,6.45a6.8,6.8,0,0,0,4.76.1A10,10,0,0,0,75.26,77,9.62,9.62,0,0,0,83,73.21c.22-.3.65-.95.65-.95a6.65,6.65,0,0,0,6.55-2.19M75.38,76c-4.07,0-6.06-1.83-8.18-4.85-2-2.82-2-4.54-2-4.54-.64.11-2.23-.21-2.23-2.83s2-2.31,2-2.31l-.2-2.82h0V58c2.09-.2,4.38-1.85,6.08-5.72,0,0,5,5.85,14.65,5.81l0,.05-.41,3.31s2-.31,2,2.31S85.6,66.73,85,66.62c0,0-1.84,9.39-9.59,9.39"/><path class="cls-1" d="M58.11,80.9H53.89A.86.86,0,0,1,53,80v-4.6h1.73v3.73h3.35Z"/><path class="cls-1" d="M94.84,80.9h-4V79.17H94v-3.1h1.73v4a.86.86,0,0,1-.87.86"/><path class="cls-1" d="M95.71,46.41H94V42.79H90.79V41.06h4a.87.87,0,0,1,.87.86Z"/><path class="cls-1" d="M54.76,45.9H53v-4a.87.87,0,0,1,.86-.86H58.7v1.73H54.76Z"/><path class="cls-1" d="M315.71,63.18a1.2,1.2,0,1,0,0,2.4,1.2,1.2,0,0,0,0-2.4"/><path class="cls-1" d="M323.74,63.18a1.2,1.2,0,1,0,0,2.4,1.2,1.2,0,0,0,0-2.4"/><path class="cls-1" d="M321.75,70.87A3.91,3.91,0,0,1,318,71a.41.41,0,0,0-.53.22.39.39,0,0,0,.21.52,4,4,0,0,0,2.27.53,4.64,4.64,0,0,0,2-.6.42.42,0,0,0,.25-.5.38.38,0,0,0-.5-.26"/><path class="cls-1" d="M317.67,59.94a.42.42,0,0,0-.24-.5,5.07,5.07,0,0,0-4.62,1,.43.43,0,0,0-.09.55.34.34,0,0,0,.35.18.24.24,0,0,0,.15-.06,4.46,4.46,0,0,1,4-.93.34.34,0,0,0,.44-.26"/><path class="cls-1" d="M321.89,59.94a.43.43,0,0,1,.24-.5,5.07,5.07,0,0,1,4.62,1,.43.43,0,0,1,.09.55.34.34,0,0,1-.35.18.24.24,0,0,1-.15-.06,4.46,4.46,0,0,0-4-.93.34.34,0,0,1-.44-.26"/><path class="cls-1" d="M334.83,70.07s-1.84-2.18-1.08-8a21.74,21.74,0,0,0-1.23-10.4c-1.88-4.45-7.12-6.55-9.94-6.92h0a10.83,10.83,0,0,0-4.29.19,7.42,7.42,0,0,0-3.53,2.22s-4.68-1.31-8.32,6c-1.35,2.73-.49,5.56-.39,8,.14,3.8-1.13,5.52-2.88,6.58,0,0,0,4.36,5.09,6.45a6.8,6.8,0,0,0,4.76.1,10.08,10.08,0,0,0,6.87,2.7,9.62,9.62,0,0,0,7.74-3.82c.23-.3.66-.95.66-.95a6.64,6.64,0,0,0,6.54-2.19M320,76c-4.06,0-6.06-1.83-8.18-4.85-2-2.82-2-4.54-2-4.54-.64.11-2.24-.21-2.24-2.83s2-2.31,2-2.31l-.2-2.82h0c0-.22,0-.44,0-.63,2.09-.2,4.38-1.85,6.08-5.72,0,0,5,5.85,14.65,5.81a.1.1,0,0,1,0,.05l-.4,3.31s2-.31,2,2.31-1.59,2.94-2.23,2.83c0,0-1.84,9.39-9.59,9.39"/><path class="cls-1" d="M302.74,80.9h-4.21a.86.86,0,0,1-.87-.86v-4.6h1.73v3.73h3.35Z"/><path class="cls-1" d="M339.48,80.9h-4.05V79.17h3.18v-3.1h1.73v4a.86.86,0,0,1-.86.86"/><path class="cls-1" d="M340.34,46.41h-1.73V42.79h-3.18V41.06h4.05a.87.87,0,0,1,.86.86Z"/><path class="cls-1" d="M299.39,45.9h-1.73v-4a.87.87,0,0,1,.87-.86h4.8v1.73h-3.94Z"/></g></g></svg>