<?xml version="1.0" encoding="utf-8"?>
<!-- Generator: Adobe Illustrator 22.1.0, SVG Export Plug-In . SVG Version: 6.00 Build 0)  -->
<svg version="1.1" id="Layer_1" xmlns="http://www.w3.org/2000/svg" xmlns:xlink="http://www.w3.org/1999/xlink" x="0px" y="0px"
	 viewBox="0 0 56.9 56.9" style="enable-background:new 0 0 56.9 56.9;" xml:space="preserve">
<style type="text/css">
	.st0{fill:#6A6A6A;}
</style>
<title>social-link</title>
<g id="Layer_2_1_">
	<g id="Capa_1">
		<path class="st0" d="M28.5,0C12.7,0,0,12.7,0,28.4s12.7,28.5,28.4,28.5c15.7,0,28.5-12.7,28.5-28.4c0,0,0,0,0,0
			C56.9,12.7,44.2,0,28.5,0z M22.5,38.8c0,0.5-0.4,0.9-0.9,0.9h-3.9c-0.5,0-0.9-0.4-0.9-0.9c0,0,0,0,0,0V22.6c0-0.5,0.4-0.9,0.9-0.9
			h3.9c0.5,0,0.9,0.4,0.9,0.9c0,0,0,0,0,0L22.5,38.8z M19.6,20.2c-2,0-3.7-1.6-3.7-3.7s1.6-3.7,3.7-3.7s3.7,1.6,3.7,3.7c0,0,0,0,0,0
			C23.3,18.6,21.7,20.2,19.6,20.2C19.6,20.2,19.6,20.2,19.6,20.2z M42.6,38.9c0,0.5-0.4,0.8-0.8,0.8h-4.1c-0.5,0-0.8-0.4-0.8-0.8v0
			v-7.6c0-1.1,0.3-5-3-5c-2.5,0-3.1,2.6-3.2,3.8v8.8c0,0.5-0.4,0.8-0.8,0.8h0h-4c-0.5,0-0.8-0.4-0.8-0.8V22.6c0-0.5,0.4-0.8,0.8-0.8
			c0,0,0,0,0,0h4c0.5,0,0.8,0.4,0.8,0.8V24c1-1.4,2.4-2.5,5.4-2.5c6.6,0,6.6,6.2,6.6,9.6L42.6,38.9z"/>
	</g>
</g>
</svg>
