<?xml version="1.0" encoding="utf-8"?>
<!-- Generator: Adobe Illustrator 22.1.0, SVG Export Plug-In . SVG Version: 6.00 Build 0)  -->
<svg version="1.1" id="Layer_1" xmlns="http://www.w3.org/2000/svg" xmlns:xlink="http://www.w3.org/1999/xlink" x="0px" y="0px"
	 viewBox="0 0 56.9 56.9" style="enable-background:new 0 0 56.9 56.9;" xml:space="preserve">
<style type="text/css">
	.st0{fill:#6A6A6A;}
</style>
<title>social-tw</title>
<g id="Layer_2_1_">
	<g id="Capa_1">
		<path class="st0" d="M28.5,0C12.7,0,0,12.7,0,28.5s12.7,28.5,28.5,28.5s28.5-12.7,28.5-28.5l0,0C56.9,12.7,44.2,0,28.5,0z
			 M45,19.7c-0.7,1-1.6,2-2.5,2.8c-0.3,0.2-0.4,0.5-0.4,0.8v0.1c0,2.1-0.4,4.2-1.1,6.2c-0.8,2.1-1.9,4-3.4,5.6
			c-1.5,1.7-3.4,3.1-5.5,4.1c-5.2,2.4-11.3,2.1-16.3-0.8c-0.2-0.1-0.3-0.3-0.2-0.6c0.1-0.2,0.3-0.4,0.5-0.4h0.7c2.3,0,4.6-0.7,6.6-2
			c-2.3-0.4-4.3-2.1-5-4.3c-0.1-0.2,0-0.4,0.2-0.4c0.1,0,0.1,0,0.2,0c0.4,0.1,0.7,0.1,1.1,0.1h0.1c-2.3-1-3.8-3.3-3.7-5.9
			c0-0.2,0.2-0.3,0.3-0.3c0.1,0,0.1,0,0.2,0c0.5,0.3,0.9,0.4,1.5,0.6c-2.1-2.1-2.5-5.2-1-7.7c0.1-0.2,0.3-0.2,0.5-0.1
			c0,0,0.1,0,0.1,0.1c2.8,3.5,6.9,5.7,11.4,6.1l0,0c0.1,0,0.1,0,0.2-0.1c0,0,0.1-0.1,0-0.2c-0.1-0.8,0-1.6,0.2-2.3
			c0.5-2.1,2.1-3.8,4.2-4.4c0.6-0.2,1.3-0.3,2-0.3c1.6,0,3.1,0.6,4.3,1.6c0.1,0.1,0.3,0.2,0.5,0.2h0.2c1.1-0.3,2.1-0.7,3.1-1.3
			c0.2-0.1,0.4,0,0.5,0.1c0,0.1,0.1,0.2,0,0.3c-0.3,1-0.9,1.9-1.7,2.7c0.7-0.2,1.4-0.4,2-0.7c0.2-0.1,0.4,0,0.4,0.1
			C45.1,19.5,45.1,19.6,45,19.7z"/>
	</g>
</g>
</svg>
