<?xml version="1.0" encoding="utf-8"?>
<!-- Generator: Adobe Illustrator 22.1.0, SVG Export Plug-In . SVG Version: 6.00 Build 0)  -->
<svg version="1.1" id="Layer_1" xmlns="http://www.w3.org/2000/svg" xmlns:xlink="http://www.w3.org/1999/xlink" x="0px" y="0px"
	 viewBox="0 0 56.9 56.9" style="enable-background:new 0 0 56.9 56.9;" xml:space="preserve">
<style type="text/css">
	.st0{fill:#6A6A6A;}
</style>
<title>social-ig</title>
<g id="Layer_2_1_">
	<g id="Capa_1">
		<path class="st0" d="M35.5,14.4H21.4c-3.8,0-6.9,3.1-6.9,6.9v14.2c0,3.8,3.1,6.9,6.9,6.9c0,0,0,0,0,0h14.2c3.8,0,6.9-3.1,6.9-6.9
			l0,0V21.4C42.5,17.6,39.4,14.5,35.5,14.4C35.6,14.4,35.6,14.4,35.5,14.4z M28.5,37.5c-5,0-9.1-4.1-9.1-9.1s4.1-9.1,9.1-9.1
			s9.1,4.1,9.1,9.1C37.5,33.5,33.5,37.5,28.5,37.5z M37.5,21.6c-1.2,0-2.2-1-2.2-2.2s1-2.2,2.2-2.2c1.2,0,2.2,1,2.2,2.2c0,0,0,0,0,0
			C39.7,20.7,38.7,21.6,37.5,21.6L37.5,21.6z"/>
		<path class="st0" d="M28.5,22.9c-3.1,0-5.5,2.5-5.5,5.5s2.5,5.5,5.5,5.5s5.5-2.5,5.5-5.5S31.5,22.9,28.5,22.9L28.5,22.9z"/>
		<path class="st0" d="M28.5,0C12.7,0,0,12.7,0,28.5s12.7,28.5,28.5,28.5s28.5-12.7,28.5-28.5l0,0C56.9,12.7,44.2,0,28.5,0z
			 M46,35.5C46,41.3,41.3,46,35.5,46l0,0H21.4c-5.8,0-10.4-4.7-10.4-10.5V21.4c0-5.8,4.7-10.4,10.4-10.4h14.2
			c5.8,0,10.4,4.7,10.5,10.4V35.5z"/>
	</g>
</g>
</svg>
