<?xml version="1.0" encoding="utf-8"?>
<!-- Generator: Adobe Illustrator 22.1.0, SVG Export Plug-In . SVG Version: 6.00 Build 0)  -->
<svg version="1.1" id="Layer_1" xmlns="http://www.w3.org/2000/svg" xmlns:xlink="http://www.w3.org/1999/xlink" x="0px" y="0px"
	 viewBox="0 0 56.9 56.9" style="enable-background:new 0 0 56.9 56.9;" xml:space="preserve">
<style type="text/css">
	.st0{fill:#6A6A6A;}
</style>
<title>social-yt</title>
<g id="Layer_2_1_">
	<g id="Capa_1">
		<path class="st0" d="M28.5,0C12.7,0,0,12.7,0,28.4s12.7,28.5,28.4,28.5c15.7,0,28.5-12.7,28.5-28.4c0,0,0,0,0,0
			C56.9,12.7,44.2,0,28.5,0z M41.1,29.9l-19,9c-0.4,0.2-0.8,0-1-0.4c-0.1-0.1-0.1-0.2-0.1-0.3V19.5c0-0.4,0.3-0.8,0.8-0.8
			c0.1,0,0.2,0,0.4,0.1l19,9.6c0.4,0.2,0.5,0.7,0.3,1C41.4,29.7,41.3,29.8,41.1,29.9z"/>
	</g>
</g>
</svg>
