<svg xmlns="http://www.w3.org/2000/svg" viewBox="0 0 93.89 67.08"><defs><style>.cls-1{fill:#fff;}</style></defs><title>cam</title><g id="Layer_2" data-name="Layer 2"><g id="Capa_1" data-name="Capa 1"><path class="cls-1" d="M3.68,67.07C1.28,67.07,0,65.8,0,63.42V44.3C0,42,1.07,40.85,3.34,40.64c.49,0,.66-.2.69-.69.1-1.33.2-2.67.4-4A40.34,40.34,0,0,1,17.54,11.52C29,1.21,42.46-2.17,57.41,1.34A42.16,42.16,0,0,1,89.87,39.72c0,.74.29.9,1,1a3.14,3.14,0,0,1,3,3.16q0,10,0,20a3.1,3.1,0,0,1-1.07,2.36,3.72,3.72,0,0,1-2.71.85q-21.58,0-43.17,0ZM4.47,43.9c-1.15,0-1.15,0-1.15,1.18V62.79c0,1.07,0,1.07,1.1,1.07H89.51c1.1,0,1.1,0,1.1-1.11V45.05c0-1.15,0-1.15-1.13-1.15h-85ZM66.35,9.46c0,3.14.08,6.3-.16,9.42A16.77,16.77,0,0,1,52.87,33.74a26.58,26.58,0,0,1-13.93-.59A17,17,0,0,1,27.58,17V8.37a8.6,8.6,0,0,0-.92.42c-11.57,7.15-18.15,17.4-19.37,31-.08.9.46.83,1,.83H85.39c1.24,0,1.27,0,1.17-1.23a38.18,38.18,0,0,0-9.84-22.87A39.2,39.2,0,0,0,67.61,9c-.35-.21-.71-.39-1.21-.67C66.38,8.82,66.36,9.14,66.35,9.46Zm-3.3-2.07a.9.9,0,0,0-.63-1,40,40,0,0,0-30.81,0c-.49.2-.79.4-.78,1,0,3.56,0,7.13.11,10.69a13.79,13.79,0,0,0,12.2,12.79,30.46,30.46,0,0,0,8.89-.2A14,14,0,0,0,63,17.74c.05-1.67,0-3.34,0-5h0C63,11,63,9.17,63.05,7.39Z"/><path class="cls-1" d="M25.28,12.4a8.83,8.83,0,0,0-1.17.6,37.2,37.2,0,0,0-10,11.37,1.25,1.25,0,1,0,2.12,1.26,35.36,35.36,0,0,1,9.53-10.8c.48-.37.81-.85.51-1.42A5,5,0,0,0,25.28,12.4Z"/><path class="cls-1" d="M80.19,25.35c-.2-.49-.29-.79-.43-1.05a37,37,0,0,0-9-10.54l-.26-.2a1.3,1.3,0,0,0-1.87.11c-.45.55-.31,1.23.33,1.82A35.89,35.89,0,0,1,72.69,19c1.77,2.13,3.34,4.42,5,6.67.41.56.87,1,1.52.68C79.58,26.13,79.87,25.66,80.19,25.35Z"/><path class="cls-1" d="M13.73,30.83a1.06,1.06,0,0,0-1-1.1,1.14,1.14,0,0,0-1.43.84c-.51,1.91-1,3.82-1.45,5.73a4.14,4.14,0,0,0-.13,1,1.15,1.15,0,0,0,1,1.23,1.12,1.12,0,0,0,1.37-.83c.56-2.17,1.06-4.36,1.58-6.55A2.16,2.16,0,0,0,13.73,30.83Z"/><path class="cls-1" d="M84.31,37.11c-.58-2.2-1.13-4.4-1.75-6.59a1.23,1.23,0,1,0-2.31.83c.41,1.61.84,3.22,1.24,4.83.12.46.14.94.26,1.39a1.18,1.18,0,0,0,1.36,1C83.78,38.47,84.19,37.89,84.31,37.11Z"/><path class="cls-1" d="M47,7.75A9.48,9.48,0,0,1,56.48,17,9.51,9.51,0,1,1,47,7.75ZM40.74,17A6.21,6.21,0,1,0,47,11,6.19,6.19,0,0,0,40.74,17Z"/><path class="cls-1" d="M49.85,17.18A2.86,2.86,0,0,0,47,14.25a2.94,2.94,0,0,0-3,2.88A2.9,2.9,0,0,0,47,20,2.82,2.82,0,0,0,49.85,17.18Z"/></g></g></svg>