<svg xmlns="http://www.w3.org/2000/svg" viewBox="0 0 471.41 159.67"><defs><style>.cls-1{fill:#3f485d;}.cls-2{fill:#fac716;}.cls-3,.cls-4,.cls-5,.cls-7{fill:none;stroke:#00b1eb;}.cls-3,.cls-7{stroke-miterlimit:10;}.cls-3,.cls-4,.cls-5{stroke-width:0.7px;}.cls-4,.cls-5{stroke-linejoin:round;}.cls-5{stroke-linecap:round;}.cls-6{fill:#00b1eb;}</style></defs><title>difference-2</title><g id="Layer_2" data-name="Layer 2"><g id="Layer_1-2" data-name="Layer 1"><path class="cls-1" d="M412.31,76.77c.64-5.43,2.24-22.38-1.91-26.09-9.32-8.3-30.39-18.44-34.09-2.81h0c-.29-.08-8.76-2.38-13.08,1.28s-6,15.33-4.53,27.7c-3.71.49-5,1.87-5.36,5.34a17,17,0,0,0,2.4,10.69c1.57,2.58,4.31,3.87,4.5,4.4,1.4,3.77,1.8,6.15,5.17,11.26,4.2,6.37,9.94,10.54,20,10.54,8.66,0,14.63-4,19.11-10.48a40,40,0,0,0,5.44-10.88c.58-1.58,1.25-1.47,2.88-2.52a10.16,10.16,0,0,0,2.62-2.93,17.36,17.36,0,0,0,2.13-8.63c-.09-4.79-1.56-6.4-5.21-6.88m-55.94,4.06a2,2,0,0,1,1.57-1.2c.64.06.6,1,.6,1.5a84,84,0,0,0,.73,11.73c-2.94-3-4.18-9.41-2.9-12m48.38,22.71c-2.52,4.91-8.09,13.09-19.1,13.09-9.44,0-14.89-3.63-19.15-11.13-4.52-8-5-13.22-5-20.45,0-3.82-.48-7.65-.31-11.47.24-5.28,1.65-7.58,6.5-9.94,7-3.4,6.5-7.6,8.61-7.62s6.23,4.83,17.69,5.88c5.26.49,8.8-.34,12.33,5.05,3.22,4.92,2.9,8.94,2.9,11.72,0,10.24-1.33,18.73-4.48,24.87M411.33,93a67.29,67.29,0,0,0,.93-12.43c0-1.18.73-1.21,1.4-.67a3,3,0,0,1,1,1.68c.64,3.64-.41,9.1-3.29,11.42"/><path class="cls-1" d="M378,86.61a2.2,2.2,0,1,0-2.2,2.2,2.21,2.21,0,0,0,2.2-2.2"/><path class="cls-1" d="M397.06,84.71a2.21,2.21,0,1,0,2.2,2.21,2.21,2.21,0,0,0-2.2-2.21"/><path class="cls-1" d="M392.83,104c-8.78,2.39-14.81-.38-14.87-.41a.93.93,0,1,0-.8,1.68,21.07,21.07,0,0,0,8.52,1.58,28.94,28.94,0,0,0,7.64-1.06.93.93,0,1,0-.49-1.79"/><path class="cls-1" d="M378.74,80.06a.66.66,0,0,0,1-.43,1.08,1.08,0,0,0-.34-1.25c-.16-.1-4.15-2.5-9.52.82a1.06,1.06,0,0,0-.34,1.24.72.72,0,0,0,.64.53.59.59,0,0,0,.31-.09c4.73-2.92,8.14-.91,8.29-.82"/><path class="cls-1" d="M401.82,79.2c-5.38-3.32-9.36-.92-9.53-.82a1.08,1.08,0,0,0-.34,1.25.66.66,0,0,0,1,.43c.15-.09,3.57-2.1,8.29.82a.61.61,0,0,0,.31.09.72.72,0,0,0,.65-.53,1.06,1.06,0,0,0-.34-1.24"/><path class="cls-1" d="M388.21,108.93a24.29,24.29,0,0,1-6.22-.17.93.93,0,0,0-.29,1.84,25.11,25.11,0,0,0,4,.31c.89,0,1.79,0,2.69-.13a.93.93,0,1,0-.18-1.85"/><path class="cls-1" d="M386.82,99.35c2.73,0,4.83-1.76,5-4.18a7.14,7.14,0,0,0-1.63-4.64,8.24,8.24,0,0,1-1.51-3.27.86.86,0,0,0-1.7.27,9.68,9.68,0,0,0,1.77,3.94,5.68,5.68,0,0,1,1.35,3.58c-.09,1.49-1.47,2.57-3.27,2.57a5.46,5.46,0,0,1-4-1.44.87.87,0,0,0-1.22,0,.85.85,0,0,0,0,1.21,7.16,7.16,0,0,0,5.21,1.94"/><path class="cls-2" d="M340.91,134.22H329.39a2.36,2.36,0,0,1-2.36-2.36V119.32h4.73V129.5h9.15Z"/><path class="cls-2" d="M441.18,134.22H430.12V129.5h8.7V121h4.72v10.83a2.36,2.36,0,0,1-2.36,2.36"/><path class="cls-2" d="M443.54,40.07h-4.72v-9.9h-8.7V25.45h11.06a2.36,2.36,0,0,1,2.36,2.36Z"/><path class="cls-2" d="M331.75,38.66H327V27.81a2.36,2.36,0,0,1,2.36-2.36h13.12v4.72H331.75Z"/><polyline class="cls-3" points="374.68 103.1 381.85 106.9 388.94 106.9 395.81 103.63 385.38 100.61 374.68 103.1"/><polyline class="cls-3" points="385.42 79.35 378.04 92.59 385.45 95.83"/><polyline class="cls-4" points="381.85 106.9 378.83 116.44 391.93 116.44 388.94 106.9"/><polyline class="cls-4" points="386.01 79.55 397.58 84.24 406.35 78.49 397.88 74.69 385.45 79.51 385.45 95.83 392.43 92.38 385.64 79.51"/><polyline class="cls-5" points="393.58 92.62 407.02 92.33 395.81 103.63 392.97 92.59"/><polyline class="cls-3" points="391.93 116.44 406.92 92.55 406.35 78.5"/><polyline class="cls-4" points="384.91 79.35 372.9 83.72 364.13 77.97 373.53 74.4 385.45 79.51"/><polyline class="cls-5" points="377.43 92.62 363.46 91.81 374.68 103.1 378.03 92.59"/><polyline class="cls-3" points="378.83 116.44 363.04 91.5 364.13 77.97"/><path class="cls-6" d="M365.32,77.77A1.29,1.29,0,1,1,364,76.49a1.28,1.28,0,0,1,1.28,1.28"/><path class="cls-6" d="M386.78,79.29A1.28,1.28,0,1,1,385.5,78a1.28,1.28,0,0,1,1.28,1.28"/><path class="cls-6" d="M407.34,78.49a1.28,1.28,0,1,1-1.28-1.28,1.28,1.28,0,0,1,1.28,1.28"/><path class="cls-6" d="M393.81,92.33a1.29,1.29,0,1,1-1.29-1.28,1.28,1.28,0,0,1,1.29,1.28"/><path class="cls-6" d="M386.78,95.39a1.28,1.28,0,1,1-1.28-1.28,1.28,1.28,0,0,1,1.28,1.28"/><path class="cls-6" d="M399.05,74.69a1.28,1.28,0,1,1-1.28-1.28,1.28,1.28,0,0,1,1.28,1.28"/><path class="cls-6" d="M386.73,65.33a1.28,1.28,0,1,1-1.28-1.28,1.28,1.28,0,0,1,1.28,1.28"/><path class="cls-6" d="M374.79,74.69a1.28,1.28,0,1,1-1.28-1.28,1.28,1.28,0,0,1,1.28,1.28"/><path class="cls-6" d="M379.32,92.33A1.29,1.29,0,1,1,378,91.05a1.28,1.28,0,0,1,1.28,1.28"/><path class="cls-6" d="M374.19,83.72a1.28,1.28,0,1,1-1.28-1.28,1.28,1.28,0,0,1,1.28,1.28"/><path class="cls-6" d="M399.05,84a1.28,1.28,0,1,1-1.28-1.28A1.28,1.28,0,0,1,399.05,84"/><path class="cls-6" d="M364.74,91.44a1.28,1.28,0,1,1-1.28-1.28,1.28,1.28,0,0,1,1.28,1.28"/><path class="cls-6" d="M407.63,92.05a1.28,1.28,0,1,1-1.28-1.28,1.28,1.28,0,0,1,1.28,1.28"/><path class="cls-6" d="M397.09,103.63a1.28,1.28,0,1,1-2.56,0,1.28,1.28,0,1,1,2.56,0"/><path class="cls-6" d="M376.23,103.1a1.28,1.28,0,1,1-1.28-1.28,1.28,1.28,0,0,1,1.28,1.28"/><path class="cls-6" d="M380.11,116.44a1.28,1.28,0,1,1-1.28-1.28,1.28,1.28,0,0,1,1.28,1.28"/><path class="cls-6" d="M393.21,116.44a1.29,1.29,0,1,1-1.28-1.28,1.28,1.28,0,0,1,1.28,1.28"/><polyline class="cls-4" points="373.51 74.69 385.45 65.33 397.88 74.69"/><path class="cls-1" d="M269.14,80.44c-.09-4.81-1.58-6.38-5.34-6.81a88.62,88.62,0,0,0-1.15-11C260.33,52,256,46.46,249.55,43.76c-5.12-2.12-10.6-1.92-16-1.65-13.53.67-20.9,10-22.22,24.73-.18,2.11-.2,4.74-.16,6.89-3.72.48-5,1.83-5.36,5.28a16.84,16.84,0,0,0,2.36,10.55c1.55,2.55,3.81,3.53,4,4.07a41.12,41.12,0,0,0,5.59,13.08,23.52,23.52,0,0,0,19.69,10.85,22.07,22.07,0,0,0,18.78-10.15,48.2,48.2,0,0,0,6-13.21c.52-1.58.67-1.31,2.28-2.35A10,10,0,0,0,267,89a17.06,17.06,0,0,0,2.1-8.52m-57.46,9.09c-2.91-2.92-4.12-9.28-2.86-11.87a1.94,1.94,0,0,1,1.55-1.18c.63.06.59,1,.59,1.48a83.08,83.08,0,0,0,.72,11.57m49.59-13.92c.45,19.4-4.57,26.54-4.67,26.45-1.67,3.88-7.34,13.17-18.91,13.17-9.31,0-14.28-3.5-18.73-11.08-3.8-6.47-5.46-13.12-5.41-22.31,0-3.78-.14-7.56,0-11.32a22.33,22.33,0,0,1,5.39-14,2.26,2.26,0,0,1,2.95-.7c1.91.84,3.62,2.27,5.67,2.63a16.13,16.13,0,0,0,9.55-.92c3.77-1.62,6-4.25,8.56-4.23,3.71-.35,8,1.49,11.51,6.81,3.18,4.86,4,12.74,4.06,15.48M263,89.67A66.33,66.33,0,0,0,264,77.41c0-1.17.71-1.19,1.37-.66a2.91,2.91,0,0,1,.95,1.66c.64,3.58-.4,9-3.24,11.26"/><path class="cls-1" d="M234.31,95.32a2.91,2.91,0,0,1,1,.11c.29.1.91.51,1.09.54a3.08,3.08,0,0,0,2.26.09c.32-.1.73-.49,1.06-.61a3.1,3.1,0,0,1,1.2-.13,2.88,2.88,0,0,0,3.19-2.6c0-.39.12-1-.62-1.14s-.79.4-.89.73c-.39,1.29-.83,1.44-2,1.15a2.34,2.34,0,0,0-1.76.42,1.83,1.83,0,0,1-2.6,0,2.36,2.36,0,0,0-1.65-.39c-1,.2-1.64,0-2-1.05-.13-.4-.36-.84-1-.69s-.57.8-.48,1.27a2.87,2.87,0,0,0,3.16,2.28"/><path class="cls-1" d="M237.64,96.31a3.26,3.26,0,0,1-1.25-.26,3.18,3.18,0,0,1-.5-.25,3.48,3.48,0,0,0-.59-.29,2.58,2.58,0,0,0-1-.11,2.94,2.94,0,0,1-3.24-2.34c-.1-.55,0-1.24.54-1.37.73-.16,1,.31,1.13.75.36,1.07,1,1.18,1.9,1a2.46,2.46,0,0,1,1.72.4,1.77,1.77,0,0,0,2.51,0,2.37,2.37,0,0,1,1.82-.43c1.08.28,1.47.16,1.85-1.1v0c.1-.32.26-.87,1-.75s.71.71.69,1.1v.12a2.59,2.59,0,0,1-.87,1.85,3.31,3.31,0,0,1-2.4.82,2.76,2.76,0,0,0-1.17.13,2.2,2.2,0,0,0-.5.29,2.73,2.73,0,0,1-.56.32,3.56,3.56,0,0,1-1.06.17m-3.11-1.07a2.62,2.62,0,0,1,.82.12,3.51,3.51,0,0,1,.61.31,3.66,3.66,0,0,0,.47.23,3.06,3.06,0,0,0,2.23.09,2.58,2.58,0,0,0,.51-.3,2.75,2.75,0,0,1,.54-.31,3.06,3.06,0,0,1,1.23-.13,3.13,3.13,0,0,0,2.28-.78,2.48,2.48,0,0,0,.83-1.75V92.6c0-.39,0-.84-.55-.94s-.7.31-.8.65v0c-.42,1.38-.94,1.49-2,1.21a2.28,2.28,0,0,0-1.69.39,1.91,1.91,0,0,1-2.69,0,2.25,2.25,0,0,0-1.6-.38c-1,.19-1.69.07-2.08-1.11-.14-.41-.34-.77-1-.64-.46.11-.51.71-.42,1.19a2.81,2.81,0,0,0,3.08,2.22h.23"/><path class="cls-1" d="M228.49,81.66a2.18,2.18,0,1,1-2.18-2.17,2.19,2.19,0,0,1,2.18,2.17"/><path class="cls-1" d="M251.13,82A2.18,2.18,0,1,1,249,79.8,2.18,2.18,0,0,1,251.13,82"/><path class="cls-1" d="M237.74,105.07a20.69,20.69,0,0,1-8.41-1.56.92.92,0,0,1,.79-1.66c.06,0,6,2.77,14.66.41a.91.91,0,0,1,1.13.64.92.92,0,0,1-.64,1.13,28.45,28.45,0,0,1-7.53,1"/><path class="cls-1" d="M220.08,77.23a.92.92,0,0,1-.4-1.75c6.88-3.28,12-.9,12.18-.8a.91.91,0,1,1-.79,1.65c-.19-.09-4.56-2.07-10.6.81a.89.89,0,0,1-.39.09"/><path class="cls-1" d="M255,77.84a.92.92,0,0,1-.39-.09c-6-2.88-10.42-.89-10.6-.8a.92.92,0,0,1-1.22-.44.91.91,0,0,1,.43-1.22c.21-.1,5.31-2.47,12.18.81a.91.91,0,0,1-.4,1.74"/><path class="cls-1" d="M237.76,109a24.4,24.4,0,0,1-3.95-.31.92.92,0,1,1,.28-1.81,24.14,24.14,0,0,0,6.14.16.92.92,0,0,1,.18,1.83,26.41,26.41,0,0,1-2.65.13"/><polyline class="cls-3" points="227 103.1 234.17 106.9 241.27 106.9 248.13 103.63 237.7 100.61 227 103.1"/><polyline class="cls-3" points="237.74 79.35 230.36 92.59 237.77 95.83"/><polyline class="cls-4" points="234.17 106.9 231.16 116.44 244.25 116.44 241.27 106.9"/><polyline class="cls-4" points="238.34 79.55 249.9 84.24 258.68 78.49 250.2 74.69 237.77 79.51 237.77 95.83 244.75 92.38 237.97 79.51"/><polyline class="cls-5" points="245.9 92.62 259.35 92.33 248.13 103.63 245.3 92.59"/><polyline class="cls-3" points="244.25 116.44 259.25 92.55 258.68 78.5"/><polyline class="cls-4" points="237.23 79.35 225.23 83.72 216.46 77.97 225.85 74.4 237.77 79.51"/><polyline class="cls-5" points="229.75 92.62 215.78 91.81 227 103.1 230.36 92.59"/><polyline class="cls-3" points="231.16 116.44 215.36 91.5 216.46 77.97"/><path class="cls-6" d="M217.64,77.77a1.28,1.28,0,1,1-1.28-1.28,1.28,1.28,0,0,1,1.28,1.28"/><path class="cls-6" d="M239.11,79.29A1.28,1.28,0,1,1,237.83,78a1.28,1.28,0,0,1,1.28,1.28"/><path class="cls-6" d="M259.66,78.49a1.28,1.28,0,1,1-1.28-1.28,1.28,1.28,0,0,1,1.28,1.28"/><path class="cls-6" d="M246.13,92.33a1.28,1.28,0,1,1-1.28-1.28,1.28,1.28,0,0,1,1.28,1.28"/><path class="cls-6" d="M239.11,95.39a1.28,1.28,0,1,1-1.28-1.28,1.28,1.28,0,0,1,1.28,1.28"/><path class="cls-6" d="M251.37,74.69a1.28,1.28,0,1,1-1.28-1.28,1.28,1.28,0,0,1,1.28,1.28"/><path class="cls-6" d="M239.05,65.33a1.28,1.28,0,0,1-2.56,0,1.28,1.28,0,0,1,2.56,0"/><path class="cls-6" d="M227.11,74.69a1.28,1.28,0,0,1-2.56,0,1.28,1.28,0,0,1,2.56,0"/><path class="cls-6" d="M231.64,92.33a1.28,1.28,0,1,1-1.28-1.28,1.28,1.28,0,0,1,1.28,1.28"/><path class="cls-6" d="M226.52,83.72a1.29,1.29,0,1,1-1.28-1.28,1.29,1.29,0,0,1,1.28,1.28"/><path class="cls-6" d="M251.37,84a1.28,1.28,0,1,1-1.28-1.28A1.28,1.28,0,0,1,251.37,84"/><path class="cls-6" d="M217.07,91.44a1.29,1.29,0,1,1-1.29-1.28,1.28,1.28,0,0,1,1.29,1.28"/><path class="cls-6" d="M260,92.05a1.29,1.29,0,1,1-1.28-1.28A1.28,1.28,0,0,1,260,92.05"/><path class="cls-6" d="M249.41,103.63a1.28,1.28,0,1,1-1.28-1.28,1.28,1.28,0,0,1,1.28,1.28"/><path class="cls-6" d="M228.56,103.1a1.29,1.29,0,1,1-1.28-1.28,1.28,1.28,0,0,1,1.28,1.28"/><path class="cls-6" d="M232.44,116.44a1.28,1.28,0,1,1-1.28-1.28,1.28,1.28,0,0,1,1.28,1.28"/><path class="cls-6" d="M245.53,116.44a1.28,1.28,0,1,1-1.28-1.28,1.28,1.28,0,0,1,1.28,1.28"/><polyline class="cls-4" points="225.83 74.69 237.77 65.33 250.2 74.69"/><path class="cls-2" d="M191.33,134.22H179.81a2.36,2.36,0,0,1-2.36-2.36V119.32h4.73V129.5h9.15Z"/><path class="cls-2" d="M291.6,134.22H280.55V129.5h8.69V121H294v10.83a2.35,2.35,0,0,1-2.36,2.36"/><path class="cls-2" d="M294,40.07h-4.72v-9.9h-8.69V25.45H291.6A2.36,2.36,0,0,1,294,27.81Z"/><path class="cls-2" d="M182.18,38.66h-4.73V27.81a2.37,2.37,0,0,1,2.37-2.36h13.11v4.72H182.18Z"/><path class="cls-1" d="M78.5,84.88a2.79,2.79,0,1,0,2.79,2.78,2.78,2.78,0,0,0-2.79-2.78"/><path class="cls-1" d="M97.14,84.88a2.79,2.79,0,1,0,2.78,2.78,2.78,2.78,0,0,0-2.78-2.78"/><path class="cls-1" d="M92.51,102.72a9.1,9.1,0,0,1-8.67.21.93.93,0,0,0-.72,1.71,9.11,9.11,0,0,0,5.25,1.22,10.43,10.43,0,0,0,4.71-1.37,1,1,0,0,0,.6-1.17.88.88,0,0,0-1.17-.6"/><path class="cls-1" d="M83,77.36a1,1,0,0,0-.56-1.17c-.21-.08-5.08-1.8-10.71,2.37a1,1,0,0,0-.21,1.29.83.83,0,0,0,.81.42.74.74,0,0,0,.34-.15c5-3.66,9.12-2.24,9.3-2.17a.79.79,0,0,0,1-.59"/><path class="cls-1" d="M92.84,77.36a1,1,0,0,1,.56-1.17c.2-.08,5.08-1.8,10.71,2.37a1,1,0,0,1,.21,1.29.84.84,0,0,1-.82.42.76.76,0,0,1-.33-.15c-5-3.66-9.12-2.24-9.31-2.17a.78.78,0,0,1-1-.59"/><path class="cls-1" d="M122.87,100.86s-4.29-5.06-2.51-18.58c.3-2.32,1.49-13.81-2.86-24.14S101,43,94.43,42.09v0a25.06,25.06,0,0,0-10,.43c-4.71,1.06-8.18,5.17-8.18,5.17s-10.86-3-19.31,14c-3.14,6.34-1.14,12.9-.92,18.57.33,8.82-2.62,12.82-6.68,15.27,0,0,.06,10.11,11.82,15a15.81,15.81,0,0,0,11,.22A23.33,23.33,0,0,0,88.19,117a22.33,22.33,0,0,0,18-8.86c.52-.7,1.52-2.2,1.52-2.2,10.1,1.89,15.19-5.08,15.19-5.08M88.48,114.63c-9.44,0-14.07-4.23-19-11.23-4.59-6.55-4.56-10.55-4.56-10.55-1.48.26-5.18-.49-5.18-6.56s4.68-5.37,4.68-5.37L64,74.38h0c0-.51,0-1,0-1.46,4.85-.47,10.16-4.28,14.11-13.26,0,0,11.65,13.56,34,13.46l.1.12-1,7.68s4.68-.71,4.68,5.37-3.7,6.82-5.18,6.56c0,0-4.26,21.78-22.24,21.78"/><polyline class="cls-3" points="76.98 103.1 84.14 106.9 91.24 106.9 98.11 103.63 87.68 100.61 76.98 103.1"/><polyline class="cls-3" points="87.72 79.35 80.33 92.59 87.75 95.83"/><polyline class="cls-4" points="84.14 106.9 81.13 116.44 94.22 116.44 91.24 106.9"/><polyline class="cls-4" points="88.31 79.55 99.88 84.24 108.65 78.49 100.18 74.69 87.75 79.51 87.75 95.83 94.72 92.38 87.94 79.51"/><polyline class="cls-5" points="95.88 92.62 109.32 92.33 98.11 103.63 95.27 92.59"/><polyline class="cls-3" points="94.22 116.44 109.22 92.55 108.65 78.5"/><polyline class="cls-4" points="87.21 79.35 75.2 83.72 66.43 77.97 75.83 74.4 87.75 79.51"/><polyline class="cls-5" points="79.73 92.62 65.76 91.81 76.98 103.1 80.33 92.59"/><polyline class="cls-3" points="81.13 116.44 65.34 91.5 66.43 77.97"/><path class="cls-6" d="M67.61,77.77a1.28,1.28,0,1,1-1.28-1.28,1.28,1.28,0,0,1,1.28,1.28"/><path class="cls-6" d="M89.08,79.29A1.28,1.28,0,1,1,87.8,78a1.28,1.28,0,0,1,1.28,1.28"/><path class="cls-6" d="M109.64,78.49a1.28,1.28,0,1,1-1.28-1.28,1.28,1.28,0,0,1,1.28,1.28"/><path class="cls-6" d="M96.1,92.33a1.28,1.28,0,1,1-1.28-1.28,1.28,1.28,0,0,1,1.28,1.28"/><path class="cls-6" d="M89.08,95.39a1.28,1.28,0,1,1-1.28-1.28,1.28,1.28,0,0,1,1.28,1.28"/><path class="cls-6" d="M101.35,74.69a1.28,1.28,0,1,1-1.28-1.28,1.28,1.28,0,0,1,1.28,1.28"/><path class="cls-6" d="M89,65.33a1.28,1.28,0,1,1-1.28-1.28A1.28,1.28,0,0,1,89,65.33"/><path class="cls-6" d="M77.09,74.69a1.28,1.28,0,1,1-1.28-1.28,1.28,1.28,0,0,1,1.28,1.28"/><path class="cls-6" d="M81.61,92.33a1.28,1.28,0,1,1-1.28-1.28,1.28,1.28,0,0,1,1.28,1.28"/><path class="cls-6" d="M76.49,83.72a1.28,1.28,0,1,1-1.28-1.28,1.28,1.28,0,0,1,1.28,1.28"/><path class="cls-6" d="M101.35,84a1.28,1.28,0,1,1-1.28-1.28A1.28,1.28,0,0,1,101.35,84"/><path class="cls-6" d="M67,91.44a1.28,1.28,0,1,1-1.28-1.28A1.28,1.28,0,0,1,67,91.44"/><path class="cls-6" d="M109.93,92.05a1.28,1.28,0,1,1-1.28-1.28,1.28,1.28,0,0,1,1.28,1.28"/><path class="cls-6" d="M99.39,103.63a1.29,1.29,0,1,1-1.28-1.28,1.29,1.29,0,0,1,1.28,1.28"/><path class="cls-6" d="M78.53,103.1a1.28,1.28,0,1,1-1.28-1.28,1.28,1.28,0,0,1,1.28,1.28"/><path class="cls-6" d="M82.41,116.44a1.28,1.28,0,1,1-1.28-1.28,1.28,1.28,0,0,1,1.28,1.28"/><path class="cls-6" d="M95.5,116.44a1.28,1.28,0,1,1-1.28-1.28,1.28,1.28,0,0,1,1.28,1.28"/><polyline class="cls-4" points="75.81 74.69 87.75 65.33 100.18 74.69"/><path class="cls-2" d="M41.75,134.22H30.24a2.35,2.35,0,0,1-2.36-2.36V119.32H32.6V129.5h9.15Z"/><path class="cls-2" d="M142,134.22H131V129.5h8.69V121h4.72v10.83a2.35,2.35,0,0,1-2.36,2.36"/><path class="cls-2" d="M144.38,40.07h-4.72v-9.9H131V25.45H142a2.36,2.36,0,0,1,2.36,2.36Z"/><path class="cls-2" d="M32.6,38.66H27.88V27.81a2.36,2.36,0,0,1,2.36-2.36H43.36v4.72H32.6Z"/><rect class="cls-7" x="0.5" y="0.5" width="470.41" height="158.67" rx="5.5" ry="5.5"/></g></g></svg>