<svg xmlns="http://www.w3.org/2000/svg" viewBox="0 0 171.4 159.67"><defs><style>.cls-1{fill:#3f485d;}.cls-2,.cls-3,.cls-4,.cls-7{fill:none;stroke:#00b1eb;}.cls-2,.cls-7{stroke-miterlimit:10;}.cls-2,.cls-3,.cls-4{stroke-width:0.7px;}.cls-3,.cls-4{stroke-linejoin:round;}.cls-4{stroke-linecap:round;}.cls-5{fill:#00b1eb;}.cls-6{fill:#fac716;}</style></defs><title>difference-1</title><g id="Layer_2" data-name="Layer 2"><g id="Layer_1-2" data-name="Layer 1"><path class="cls-1" d="M118.27,80.86c-.09-4.82-1.58-6.38-5.34-6.82a90.78,90.78,0,0,0-1.15-11c-2.32-10.64-6.61-16.17-13.1-18.86-5.12-2.12-10.6-1.92-16-1.65-13.53.66-20.91,10-22.22,24.72a68.62,68.62,0,0,0-.16,6.89c-3.72.48-5,1.84-5.36,5.28A16.88,16.88,0,0,0,57.29,90c1.55,2.54,3.81,3.53,4,4.06a41.17,41.17,0,0,0,5.59,13.09A23.55,23.55,0,0,0,86.53,118a22.06,22.06,0,0,0,18.78-10.16,48.14,48.14,0,0,0,6-13.2c.52-1.58.67-1.32,2.28-2.36a9.88,9.88,0,0,0,2.58-2.89,17.1,17.1,0,0,0,2.1-8.51M60.81,90C57.9,87,56.69,80.66,58,78.07a1.94,1.94,0,0,1,1.55-1.18c.63.06.58,1,.59,1.48A81.77,81.77,0,0,0,60.81,90M110.4,76c.45,19.4-4.57,26.54-4.67,26.46-1.67,3.88-7.34,13.16-18.91,13.16-9.31,0-14.28-3.49-18.73-11.08-3.8-6.46-5.47-13.11-5.41-22.31,0-3.77-.14-7.55,0-11.32A22.3,22.3,0,0,1,68.1,57a2.26,2.26,0,0,1,3-.7c1.91.84,3.62,2.27,5.67,2.63A16.25,16.25,0,0,0,86.26,58c3.78-1.63,6-4.26,8.57-4.24,3.71-.35,8,1.5,11.51,6.82,3.18,4.85,4,12.73,4.06,15.47m1.77,14.07a66.44,66.44,0,0,0,.92-12.27c0-1.17.71-1.19,1.37-.66a2.91,2.91,0,0,1,1,1.66c.64,3.59-.4,9-3.24,11.27"/><path class="cls-1" d="M83.44,95.74a2.69,2.69,0,0,1,1,.11c.29.09.91.5,1.09.54a3.08,3.08,0,0,0,2.26.09c.31-.11.73-.49,1.06-.61a2.92,2.92,0,0,1,1.2-.13,2.88,2.88,0,0,0,3.18-2.6c0-.4.13-1-.61-1.15s-.79.4-.89.73c-.39,1.29-.83,1.44-2,1.16a2.34,2.34,0,0,0-1.76.41,1.83,1.83,0,0,1-2.6,0,2.32,2.32,0,0,0-1.65-.39c-1,.2-1.64,0-2-1.06-.13-.4-.36-.84-1-.69s-.57.8-.49,1.28a2.9,2.9,0,0,0,3.17,2.28"/><path class="cls-1" d="M86.77,96.72a3,3,0,0,1-1.25-.26,2.47,2.47,0,0,1-.5-.25,6.21,6.21,0,0,0-.59-.29,2.59,2.59,0,0,0-1-.1,3,3,0,0,1-3.24-2.35c-.1-.55,0-1.23.54-1.36.72-.17,1,.31,1.13.74.35,1.08,1,1.18,1.9,1a2.42,2.42,0,0,1,1.72.41,1.76,1.76,0,0,0,2.5,0,2.43,2.43,0,0,1,1.83-.43c1.08.28,1.47.16,1.85-1.1v0c.1-.33.26-.88,1-.76s.71.71.69,1.1a.53.53,0,0,0,0,.12A2.59,2.59,0,0,1,92.46,95a3.24,3.24,0,0,1-2.4.82,3.12,3.12,0,0,0-1.17.13,3.35,3.35,0,0,0-.5.29,2.73,2.73,0,0,1-.56.32,3.31,3.31,0,0,1-1.06.17m-3.11-1.07a3,3,0,0,1,.82.12,4.4,4.4,0,0,1,.61.31,2.65,2.65,0,0,0,.47.23,3.06,3.06,0,0,0,2.23.09,2.49,2.49,0,0,0,.51-.29,2.32,2.32,0,0,1,.54-.31,3,3,0,0,1,1.23-.14,3.11,3.11,0,0,0,2.28-.78,2.46,2.46,0,0,0,.83-1.74V93c0-.4,0-.85-.55-1s-.7.32-.8.65v0c-.42,1.39-.94,1.49-2,1.21a2.28,2.28,0,0,0-1.69.4,1.92,1.92,0,0,1-2.7,0A2.26,2.26,0,0,0,83.8,94c-1,.19-1.69.08-2.08-1.1-.14-.42-.35-.78-1-.64s-.51.7-.42,1.18a2.79,2.79,0,0,0,3.08,2.22h.23"/><path class="cls-1" d="M77.62,82.08a2.18,2.18,0,1,1-2.18-2.18,2.18,2.18,0,0,1,2.18,2.18"/><path class="cls-1" d="M100.26,82.38a2.18,2.18,0,1,1-2.18-2.17,2.18,2.18,0,0,1,2.18,2.17"/><path class="cls-1" d="M86.86,105.48a20.67,20.67,0,0,1-8.4-1.56.91.91,0,0,1,.79-1.65c.06,0,6,2.76,14.66.4a.92.92,0,1,1,.48,1.77,28.4,28.4,0,0,1-7.53,1"/><path class="cls-1" d="M69.21,77.64a.89.89,0,0,1-.83-.52.91.91,0,0,1,.43-1.22c6.88-3.28,12-.91,12.18-.81a.92.92,0,0,1-.79,1.66c-.19-.09-4.56-2.07-10.6.81a.88.88,0,0,1-.39.08"/><path class="cls-1" d="M104.08,78.26a.92.92,0,0,1-.39-.09c-6-2.89-10.42-.9-10.6-.81a.92.92,0,0,1-.79-1.66c.21-.1,5.3-2.47,12.18.81a.92.92,0,0,1-.4,1.75"/><path class="cls-1" d="M86.89,109.45a25.81,25.81,0,0,1-4-.3.92.92,0,0,1,.29-1.82,24.12,24.12,0,0,0,6.14.17.9.9,0,0,1,1,.82.92.92,0,0,1-.82,1,26.41,26.41,0,0,1-2.65.13"/><polyline class="cls-2" points="76.13 103.52 83.3 107.31 90.4 107.31 97.26 104.04 86.83 101.02 76.13 103.52"/><polyline class="cls-2" points="86.87 79.77 79.49 93 86.9 96.25"/><polyline class="cls-3" points="83.3 107.31 80.28 116.85 93.38 116.85 90.4 107.31"/><polyline class="cls-3" points="87.47 79.96 99.03 84.65 107.8 78.91 99.33 75.11 86.9 79.92 86.9 96.25 93.88 92.8 87.09 79.92"/><polyline class="cls-4" points="95.03 93.03 108.47 92.74 97.26 104.04 94.42 93"/><polyline class="cls-2" points="93.38 116.85 108.38 92.97 107.81 78.91"/><polyline class="cls-3" points="86.36 79.77 74.36 84.13 65.58 78.39 74.98 74.81 86.9 79.92"/><polyline class="cls-4" points="78.88 93.03 64.91 92.22 76.13 103.52 79.49 93"/><polyline class="cls-2" points="80.29 116.85 64.49 91.92 65.58 78.39"/><path class="cls-5" d="M66.77,78.18a1.28,1.28,0,1,1-1.28-1.28,1.28,1.28,0,0,1,1.28,1.28"/><path class="cls-5" d="M88.24,79.7A1.28,1.28,0,1,1,87,78.42a1.29,1.29,0,0,1,1.28,1.28"/><path class="cls-5" d="M108.79,78.91a1.28,1.28,0,1,1-1.28-1.28,1.28,1.28,0,0,1,1.28,1.28"/><path class="cls-5" d="M95.26,92.74A1.29,1.29,0,1,1,94,91.46a1.28,1.28,0,0,1,1.28,1.28"/><path class="cls-5" d="M88.24,95.8A1.28,1.28,0,1,1,87,94.52a1.28,1.28,0,0,1,1.28,1.28"/><path class="cls-5" d="M100.5,75.11a1.28,1.28,0,1,1-1.28-1.28,1.28,1.28,0,0,1,1.28,1.28"/><path class="cls-5" d="M88.18,65.75a1.28,1.28,0,1,1-1.28-1.28,1.28,1.28,0,0,1,1.28,1.28"/><path class="cls-5" d="M76.24,75.11A1.28,1.28,0,1,1,75,73.83a1.28,1.28,0,0,1,1.28,1.28"/><path class="cls-5" d="M80.77,92.74a1.28,1.28,0,1,1-1.28-1.28,1.28,1.28,0,0,1,1.28,1.28"/><path class="cls-5" d="M75.65,84.13a1.29,1.29,0,1,1-1.28-1.28,1.28,1.28,0,0,1,1.28,1.28"/><path class="cls-5" d="M100.5,84.4a1.28,1.28,0,1,1-1.28-1.29,1.28,1.28,0,0,1,1.28,1.29"/><path class="cls-5" d="M66.19,91.85a1.28,1.28,0,1,1-1.28-1.28,1.28,1.28,0,0,1,1.28,1.28"/><path class="cls-5" d="M109.09,92.46a1.29,1.29,0,1,1-1.29-1.28,1.28,1.28,0,0,1,1.29,1.28"/><path class="cls-5" d="M98.54,104a1.28,1.28,0,1,1-1.28-1.28A1.28,1.28,0,0,1,98.54,104"/><path class="cls-5" d="M77.69,103.52a1.29,1.29,0,1,1-1.29-1.28,1.29,1.29,0,0,1,1.29,1.28"/><path class="cls-5" d="M81.57,116.85a1.28,1.28,0,1,1-1.28-1.28,1.29,1.29,0,0,1,1.28,1.28"/><path class="cls-5" d="M94.66,116.85a1.28,1.28,0,1,1-1.28-1.28,1.29,1.29,0,0,1,1.28,1.28"/><polyline class="cls-3" points="74.96 75.11 86.9 65.75 99.33 75.11"/><path class="cls-6" d="M40.46,134.64H28.94a2.36,2.36,0,0,1-2.36-2.36V119.73h4.73v10.18h9.15Z"/><path class="cls-6" d="M140.73,134.64h-11v-4.73h8.69v-8.46h4.72v10.83a2.36,2.36,0,0,1-2.36,2.36"/><path class="cls-6" d="M143.09,40.48h-4.72V30.59h-8.69V25.86h11a2.36,2.36,0,0,1,2.36,2.36Z"/><path class="cls-6" d="M31.31,39.08H26.58V28.22a2.36,2.36,0,0,1,2.36-2.36H42.06v4.73H31.31Z"/><rect class="cls-7" x="0.5" y="0.5" width="170.4" height="158.67" rx="5.5" ry="5.5"/></g></g></svg>