<?xml version="1.0" encoding="utf-8"?>
<!-- Generator: Adobe Illustrator 22.1.0, SVG Export Plug-In . SVG Version: 6.00 Build 0)  -->
<svg version="1.1" id="Layer_1" xmlns="http://www.w3.org/2000/svg" xmlns:xlink="http://www.w3.org/1999/xlink" x="0px" y="0px"
	 viewBox="0 0 120.8 301.5" style="enable-background:new 0 0 120.8 301.5;" xml:space="preserve">
<style type="text/css">
	.st0{clip-path:url(#SVGID_2_);}
	.st1{fill:#242424;}
</style>
<title>intro-bg-left-mob</title>
<g id="Layer_2_1_">
	<g id="Layer_1-2">
		<g>
			<defs>
				<rect id="SVGID_1_" y="-2.1" width="130.4" height="316.1"/>
			</defs>
			<clipPath id="SVGID_2_">
				<use xlink:href="#SVGID_1_"  style="overflow:visible;"/>
			</clipPath>
			<g class="st0">
				<polygon class="st1" points="-12.9,301.5 16.6,301.5 70.6,259.6 84.6,232.6 84.6,232.5 89.4,201.3 92.8,168.1 92.8,133.6 
					99,111 99,63.8 70.1,25.6 70,25.6 26.7,3 26.6,3 -2.7,0 -2.8,1 26.4,3.9 69.4,26.4 98.1,64.1 98.1,110.9 91.8,133.5 91.8,168.1 
					88.5,201.2 83.7,232.3 69.8,259 16.3,300.6 -12.9,300.6 				"/>
				<polygon class="st1" points="-21,295.8 24.3,295.8 31.4,266.7 17.1,259.8 -2.7,259.8 -2.7,260.7 16.8,260.7 30.3,267.2 
					23.5,294.8 -21,294.8 				"/>
				<polygon class="st1" points="31.2,267.3 64.2,236.2 69.8,259.4 70.7,259.2 64.7,234.4 30.5,266.6 				"/>
				<polygon class="st1" points="63.9,235.9 84.2,232.9 84.1,231.9 65,234.7 70.7,192.8 92.5,172.2 78.6,146.4 70.5,141.3 70,142.1 
					77.9,147.1 91.3,172 69.8,192.3 69.7,192.5 				"/>
				<polygon class="st1" points="95,200.5 100.6,198.3 100.7,198.1 114,153.5 109.7,132.9 101.3,130.4 91.6,139.3 78.1,146.3 
					46.6,155.6 46.8,156.6 78.4,147.2 92.2,140.1 101.5,131.4 108.9,133.7 113,153.4 99.8,197.6 95,199.4 90,197.7 99,180.4 
					98.1,180 88.6,198.2 				"/>
				<polygon class="st1" points="26,144.4 31.2,137.8 40,133.5 56.1,133.5 70,142.1 70.5,141.3 56.4,132.6 39.7,132.6 30.6,137 
					25.2,143.8 				"/>
				<polygon class="st1" points="-2.7,205.7 15.9,205.7 28.6,195.2 21.1,177.9 14.6,147.4 20,142 25.9,133.5 61.1,125.8 78.5,133.7 
					80.4,126.6 99.1,111.1 99,110.8 80.4,56.7 79.5,57 98,110.8 79.5,126.1 77.9,132.4 61.2,124.8 25.3,132.6 19.2,141.4 
					13.5,147.1 13.6,147.4 20.2,178.1 20.2,178.2 27.4,195 15.6,204.7 -2.7,204.7 				"/>
				<polygon class="st1" points="17.4,260.5 26,244.5 31.3,233.4 39.1,227.5 22.6,199.7 21.7,200.2 37.8,227.3 30.5,232.8 
					25.1,244.1 16.5,260 				"/>
				<polygon class="st1" points="1.5,249.4 26.6,243.4 31.6,232.6 2,232.6 2,229.3 10.1,225 2.1,205.4 17.1,193.1 27.9,195.6 
					28,195.6 70.3,193.1 70.2,192.1 28,194.6 16.8,192.1 0.9,205.1 8.9,224.5 1,228.7 1,233.6 30.1,233.6 25.9,242.6 1.5,248.4 
					-23.2,243.9 -23.4,244.8 				"/>
				<polygon class="st1" points="16.5,192.9 17.3,192.3 8.9,180.1 8.9,144.9 13.8,147.7 14.3,146.9 8,143.3 8,180.4 8,180.5 				"/>
				<polygon class="st1" points="-2.7,144.6 8.7,144.6 20.6,123.6 25.2,133.4 30.6,137.8 31.2,137 26,132.8 20.7,121.5 8.2,143.6 
					-2.7,143.6 				"/>
				<polygon class="st1" points="79.7,126.8 80.2,125.9 62.3,114.7 62.1,114.7 20.7,122 -2.6,117.6 -2.8,118.6 20.6,123 20.7,123 
					62.1,115.7 				"/>
				<polygon class="st1" points="56.7,133.3 61.6,125.5 62.7,115.3 79.9,57.7 98.7,64.5 120.8,58.1 120.6,56.7 98.4,63.4 79.3,56.4 
					79.2,56.9 61.7,115.1 60.7,125.1 55.8,132.8 				"/>
				<polygon class="st1" points="59.8,68.6 80.2,57.3 70.1,25.5 -4.4,36.7 -4.3,37.6 69.4,26.5 79,56.8 59.7,67.6 -4.3,54.9 
					-4.5,55.9 				"/>
				<rect x="99.3" y="110.9" transform="matrix(0.9901 -0.14 0.14 0.9901 -15.9598 15.1707)" class="st1" width="1" height="20.1"/>
				
					<rect x="79.3" y="152.2" transform="matrix(0.4091 -0.9125 0.9125 0.4091 -79.8847 182.0115)" class="st1" width="42.5" height="1"/>
				<polygon class="st1" points="103.3,186.7 104,186.1 99,180.1 101.9,150.8 101,150.7 98,180.4 				"/>
				<polygon class="st1" points="25.6,230.6 38.7,227.8 70.8,192.6 47,155.7 26.1,149 26.1,144.6 47.9,147.5 70.5,142.1 78.4,133.5 
					92.3,134 92.3,133.1 78,132.6 70,141.3 47.9,146.5 25.1,143.5 25.1,149.7 46.4,156.5 69.6,192.5 38.2,226.9 25.6,229.6 
					9.6,224.3 9.3,225.2 				"/>
				<polygon class="st1" points="-7.4,181.9 -1.1,175.9 8.4,180.7 20.7,178.5 20.6,177.5 8.5,179.7 -1.3,174.7 -8.1,181.2 				"/>
				<polygon class="st1" points="16.7,157.8 26.1,149.6 26.1,143.8 19.8,141.2 19.4,142.1 25.1,144.4 25.1,149.1 16,157.1 				"/>
				
					<rect x="42.7" y="151.1" transform="matrix(0.1305 -0.9914 0.9914 0.1305 -109.1196 178.6748)" class="st1" width="9.2" height="1"/>
				<polygon class="st1" points="39.4,133.1 40.3,133.1 40.3,119.2 60.3,68.1 43.2,29 26.9,3.2 26.1,3.7 42.4,29.5 59.2,68.1 
					39.4,119 				"/>
				
					<rect x="51" y="217.7" transform="matrix(0.291 -0.9567 0.9567 0.291 -184.8438 213.2416)" class="st1" width="1" height="27.2"/>
			</g>
		</g>
	</g>
</g>
</svg>
