<?xml version="1.0" encoding="utf-8"?>
<!-- Generator: Adobe Illustrator 23.0.0, SVG Export Plug-In . SVG Version: 6.00 Build 0)  -->
<svg version="1.1" id="Capa_1" xmlns="http://www.w3.org/2000/svg" xmlns:xlink="http://www.w3.org/1999/xlink" x="0px" y="0px"
	 viewBox="0 0 299.8 809.8" style="enable-background:new 0 0 299.8 809.8;" xml:space="preserve">
<style type="text/css">
	.st0{clip-path:url(#SVGID_2_);}
	.st1{fill:#242424;}
</style>
<title>Recurso 1</title>
<g>
	<g id="Capa_1-2">
		<g>
			<defs>
				<rect id="SVGID_1_" x="-1620.2" y="-152.2" width="1920" height="1196.4"/>
			</defs>
			<clipPath id="SVGID_2_">
				<use xlink:href="#SVGID_1_"  style="overflow:visible;"/>
			</clipPath>
			<g class="st0">
				<polygon class="st1" points="340.7,809.8 261.4,809.8 116.5,697.2 78.9,624.6 78.8,624.4 65.9,540.6 56.9,451.4 56.9,358.8 
					40.1,298.2 40.1,171.3 117.9,68.9 118.2,68.7 234.4,8 234.7,8 313.3,0 313.6,2.6 235.2,10.6 119.6,70.9 42.7,172.2 42.7,297.9 
					59.5,358.5 59.5,451.4 68.5,540.3 81.4,623.8 118.5,695.5 262.3,807.2 340.7,807.2 				"/>
				<polygon class="st1" points="362.4,794.3 240.9,794.3 221.7,716.3 260.3,697.6 313.4,697.6 313.4,700.2 260.9,700.2 
					224.7,717.7 243,791.7 362.4,791.7 				"/>
				<polygon class="st1" points="222.3,717.9 133.7,634.4 118.8,696.6 116.2,696 132.2,629.4 224.1,716 				"/>
				<polygon class="st1" points="134.5,633.4 79.9,625.5 80.3,622.9 131.4,630.4 116.3,517.8 57.7,462.4 94.9,393.2 116.8,379.4 
					118.2,381.6 96.9,395.1 60.9,461.9 118.7,516.6 118.8,517 				"/>
				<polygon class="st1" points="51,538.4 35.9,532.6 35.7,532 0,412.1 11.5,357 34.2,350.1 60.1,374.1 96.4,392.9 181,418 
					180.3,420.5 95.4,395.4 58.5,376.2 33.5,353 13.7,359.1 2.7,412 38,530.6 51,535.6 64.5,530.9 40.3,484.6 42.6,483.4 
					68.2,532.4 				"/>
				<polygon class="st1" points="236.4,387.8 222.4,370 198.8,358.6 155.4,358.6 118.2,381.6 116.8,379.4 154.6,356 199.4,356 
					224,367.9 238.4,386.2 				"/>
				<polygon class="st1" points="313.4,552.4 263.3,552.4 229.4,524.4 249.4,477.7 267,396 252.4,381.3 236.6,358.5 142.1,337.9 
					95.3,359.2 90.1,340.1 39.9,298.5 40.2,297.6 90.1,152.3 92.5,153.2 43,297.6 92.5,338.6 97,355.5 141.8,335.2 238.2,356.2 
					254.4,379.7 269.8,395.2 269.7,395.9 251.9,478.4 251.8,478.6 232.5,523.6 264.2,549.8 313.4,549.8 				"/>
				<polygon class="st1" points="259.4,699.6 236.2,656.7 222.2,627 201.1,611 245.5,536.3 247.7,537.6 204.5,610.3 224.2,625.3 
					238.6,655.5 261.7,698.3 				"/>
				<polygon class="st1" points="302.1,669.7 234.7,653.6 221.1,624.8 300.8,624.8 300.8,615.7 278.9,604.2 300.6,551.6 
					260.2,518.6 231,525.3 230.9,525.3 117.4,518.5 117.6,515.9 230.8,522.7 260.9,515.8 303.7,550.8 282.2,603 303.5,614.1 
					303.5,627.4 225.2,627.4 236.5,651.4 302.2,667 368.5,655 368.9,657.5 				"/>
				<polygon class="st1" points="261.6,517.9 259.5,516.4 282.1,483.6 282.1,389.2 269.1,396.7 267.8,394.5 284.7,384.7 
					284.7,484.4 284.5,484.7 				"/>
				<polygon class="st1" points="313.4,388.3 282.6,388.3 250.7,331.9 238.4,358.2 224,369.9 222.4,367.9 236.3,356.5 250.5,326.2 
					284.2,385.7 313.4,385.7 				"/>
				<polygon class="st1" points="92,340.5 90.6,338.3 138.8,308 139.3,308.1 250.6,327.7 313.1,315.9 313.6,318.5 250.6,330.4 
					250.4,330.3 139.4,310.7 				"/>
				<polygon class="st1" points="153.9,358 140.6,337 137.8,309.6 91.4,155 41.1,173.2 2.4,130.3 4.3,128.6 41.8,170.2 93.1,151.6 
					93.5,153 140.4,309.1 143.2,336.1 156.1,356.6 				"/>
				<polygon class="st1" points="145.4,184.2 90.7,154 117.9,68.4 318,98.5 317.6,101.1 119.7,71.4 93.9,152.7 145.8,181.5 
					317.6,147.5 318.1,150.1 				"/>
				
					<rect x="9.7" y="323.2" transform="matrix(0.14 -0.9901 0.9901 0.14 -289.8092 315.4197)" class="st1" width="54" height="2.6"/>
				
					<rect x="34.6" y="353.1" transform="matrix(0.9125 -0.4091 0.4091 0.9125 -164.6711 50.5907)" class="st1" width="2.6" height="114.1"/>
				<polygon class="st1" points="28.7,501.4 26.7,499.7 40.1,483.6 32.3,405.1 34.9,404.8 42.8,484.4 				"/>
				<polygon class="st1" points="237.5,619.3 202.1,611.8 115.9,517.3 179.8,418.1 236.1,400.2 236.1,388.5 177.4,396.1 
					116.8,381.7 95.6,358.7 58.2,359.9 58.2,357.3 96.7,356 118.2,379.4 177.5,393.4 238.7,385.5 238.7,402.1 181.5,420.3 
					119.1,517 203.5,609.5 237.3,616.6 280.2,602.4 281,604.9 				"/>
				<polygon class="st1" points="326,488.6 309.1,472.4 283.6,485.4 250.4,479.3 250.8,476.8 283.2,482.6 309.6,469.3 327.8,486.7 
									"/>
				<polygon class="st1" points="261.3,423.8 236.1,401.8 236.1,386.1 252.9,379.3 253.9,381.8 238.7,387.9 238.7,400.6 
					263.1,421.8 				"/>
				
					<rect x="177.7" y="394.5" transform="matrix(0.9914 -0.1305 0.1305 0.9914 -51.5711 26.8461)" class="st1" width="2.6" height="24.7"/>
				<polygon class="st1" points="200.4,357.3 197.8,357.3 197.8,320.2 144.2,182.8 190,77.9 233.7,8.6 235.9,10 192.2,79.2 
					147,182.9 200.4,319.7 				"/>
				
					<rect x="131.3" y="619.9" transform="matrix(0.9567 -0.291 0.291 0.9567 -173.5272 75.7394)" class="st1" width="73" height="2.6"/>
			</g>
		</g>
	</g>
</g>
</svg>
