<?xml version="1.0" encoding="utf-8"?>
<!-- Generator: Adobe Illustrator 22.1.0, SVG Export Plug-In . SVG Version: 6.00 Build 0)  -->
<svg version="1.1" id="Layer_1" xmlns="http://www.w3.org/2000/svg" xmlns:xlink="http://www.w3.org/1999/xlink" x="0px" y="0px"
	 viewBox="0 0 1930.2 1189.1" style="enable-background:new 0 0 1930.2 1189.1;" xml:space="preserve">
<style type="text/css">
	.st0{fill:none;}
	.st1{fill:#00B1EB;}
	.st2{clip-path:url(#SVGID_2_);}
	.st3{fill:none;stroke:#242424;stroke-width:2;stroke-miterlimit:10;}
	.st4{fill:#FFFFFF;}
</style>
<title>bg</title>
<rect x="227.1" y="-204.3" class="st0" width="1693" height="1538.1"/>
<g>
	<path class="st1" d="M271,236.2l1659.2,952.9V0L271,223.2c0,0-7,0.5-7,4.8C264,236.2,271,236.2,271,236.2"/>
</g>
<g>
	<g>
		<g>
			<defs>
				<rect id="SVGID_1_" x="1334.5" y="38.1" width="595.7" height="1051.1"/>
			</defs>
			<clipPath id="SVGID_2_">
				<use xlink:href="#SVGID_1_"  style="overflow:visible;"/>
			</clipPath>
			<g class="st2">
				<polyline class="st3" points="1982.4,1075.4 1881.7,1075.4 1697.4,932.3 1649.7,840.1 1633.3,733.2 1621.8,619.7 1621.8,501.2 
					1600.4,423.9 1600.4,262.7 1699.1,132.7 1847.1,55.4 1947.5,45.2 				"/>
				<polyline class="st3" points="2010,1055.6 1856.3,1055.6 1832.3,958.6 1880,935.6 1947.5,935.6 				"/>
				<polyline class="st3" points="1832.3,958.6 1717.2,850 1697.4,932.3 				"/>
				<polyline class="st3" points="1697.4,529.2 1669.9,546.6 1623.2,633.4 1697.4,703.6 1717.2,850 1649.7,840.1 				"/>
				<polyline class="st3" points="1778.1,578.6 1669.9,546.6 1623.2,522.3 1590.7,492.2 1563.5,500.5 1549.2,569.5 1594.6,722 
					1612.6,728.9 1632.1,722 1600.4,661.2 				"/>
				<polyline class="st3" points="1697.4,529.2 1745.3,499.6 1801.5,499.6 1832.3,514.4 1850.4,537.4 				"/>
				<polyline class="st3" points="1947.5,746.9 1884.1,746.9 1842.2,712.3 1867.3,653.6 1890,548.4 1870.9,529.2 1850.4,499.6 
					1728.6,473.1 1670.2,499.6 1664,476.6 1600.4,423.9 1664,238.5 				"/>
				<polyline class="st3" points="1880,935.6 1850.4,880.9 1832.3,842.6 1806.3,822.9 1862.3,728.9 				"/>
				<polyline class="st3" points="1697.4,703.6 1842.2,712.3 1880,703.6 1933.1,746.9 1905.6,813.9 1933.1,828.3 1933.1,842.6 
					1832.3,842.6 1848.1,876.3 1933.1,896.5 2018,881.1 				"/>
				<polyline class="st3" points="1880,703.6 1909.2,661.2 1909.2,537.4 1890,548.4 				"/>
				<polyline class="st3" points="1832.3,514.4 1850.4,499.6 1867.3,463.5 1909.2,537.4 1947.5,537.4 				"/>
				<polyline class="st3" points="1664,476.6 1725,438.4 1867.3,463.5 1947.5,448.3 				"/>
				<polyline class="st3" points="1745.3,499.6 1728.6,473.1 1725,438.4 1665.3,239.2 1600.4,262.7 1551.8,208.7 				"/>
				<polyline class="st3" points="1953.1,233.4 1733.3,276.9 1665.3,239.2 1699.1,132.7 1953.1,170.9 				"/>
				<line class="st3" x1="1590.7" y1="492.2" x2="1600.4" y2="423.9"/>
				<line class="st3" x1="1563.5" y1="500.5" x2="1623.2" y2="633.4"/>
				<polyline class="st3" points="1590.4,560.4 1600.4,661.2 1582.8,682.3 				"/>
				<polyline class="st3" points="1905.6,813.9 1850.4,832.2 1806.3,822.9 1697.4,703.6 1778.1,578.6 1850.4,555.5 1850.4,537.4 
					1773.9,547.3 1697.4,529.2 1670.2,499.6 1621.8,501.2 				"/>
				<polyline class="st3" points="1867.3,653.6 1909.2,661.2 1942.4,644.5 1964.7,665.9 				"/>
				<polyline class="st3" points="1882.1,583.1 1850.4,555.5 1850.4,537.4 1870.9,529.2 				"/>
				<line class="st3" x1="1773.9" y1="547.3" x2="1778" y2="578.6"/>
				<polyline class="st3" points="1801.5,499.6 1801.5,492.2 1801.5,451.9 1733.3,276.9 1791.4,143.8 1847.1,55.4 				"/>
				<line class="st3" x1="1717.2" y1="850" x2="1806.3" y2="822.9"/>
				<path class="st3" d="M1394.5,167h151.8c2.8,0,5,2.2,5,5v75.4c0,2.8-2.2,5-5,5h-151.8c-2.8,0-5-2.2-5-5V172
					C1389.5,169.3,1391.8,167,1394.5,167z"/>
				<path class="st4" d="M1426,235c-0.6,0.4-1.4,0.6-2.1,0.6s-1.5-0.2-2.1-0.5c-0.6-0.4-1.1-0.9-1.4-1.5c-0.6-1.5-0.6-3.2,0-4.7
					c0.3-0.6,0.8-1.2,1.4-1.5c1.3-0.7,2.9-0.7,4.2,0c0.6,0.4,1,0.9,1.3,1.5l-1,0.5c-0.2-0.5-0.4-0.8-0.8-1.1s-0.9-0.4-1.4-0.4
					s-1.1,0.1-1.6,0.4c-0.4,0.3-0.8,0.7-1,1.2c-0.3,0.6-0.4,1.2-0.4,1.8c-0.1,0.9,0.2,1.8,0.8,2.5c0.5,0.6,1.3,1,2.1,0.9
					c0.5,0,1.1-0.1,1.5-0.5c0.4-0.3,0.8-0.8,0.9-1.3l1,0.4C1427.1,234,1426.6,234.6,1426,235"/>
				<path class="st4" d="M1435.8,227.3c0.6,0.4,1.1,0.9,1.4,1.5c0.7,1.5,0.7,3.2,0,4.7c-0.3,0.6-0.8,1.2-1.4,1.5
					c-1.3,0.7-2.9,0.7-4.2,0c-0.6-0.4-1.1-0.9-1.4-1.5c-0.6-1.5-0.6-3.2,0-4.7c0.3-0.6,0.8-1.2,1.4-1.5
					C1432.9,226.5,1434.5,226.5,1435.8,227.3 M1431.6,228.6c-1,1.5-1,3.5,0,5.1c1.1,1.2,2.9,1.2,4.1,0.1c0.1,0,0.1-0.1,0.1-0.1
					c1-1.5,1-3.5,0-5.1c-1.1-1.2-2.9-1.2-4.1-0.1L1431.6,228.6"/>
				<rect x="1440.9" y="226.9" class="st4" width="1" height="8.6"/>
				<polygon class="st4" points="1452.4,235.5 1451.1,235.5 1447.5,229.7 1446.6,228 1446.6,228 1446.6,229.4 1446.6,235.5 
					1445.6,235.5 1445.6,226.9 1446.9,226.9 1450.5,232.6 1451.4,234.3 1451.4,234.3 1451.4,232.9 1451.4,226.9 1452.4,226.9 				
					"/>
				<path class="st4" d="M1461.7,235c-0.6,0.4-1.4,0.6-2.1,0.6s-1.5-0.2-2.1-0.5c-0.6-0.4-1.1-0.9-1.4-1.5c-0.7-1.5-0.7-3.2,0-4.7
					c0.3-0.6,0.8-1.2,1.4-1.5c1.3-0.7,2.9-0.7,4.2,0c0.6,0.4,1,0.9,1.3,1.5l-1,0.5c-0.3-1-1.2-1.6-2.2-1.5c-0.5,0-1.1,0.1-1.6,0.4
					c-0.4,0.3-0.8,0.7-1,1.2c-0.3,0.6-0.4,1.2-0.4,1.8c-0.1,0.9,0.2,1.8,0.8,2.5c0.5,0.6,1.3,1,2.1,0.9c0.5,0,1.1-0.1,1.5-0.5
					c0.4-0.3,0.8-0.8,0.9-1.3l1,0.4C1462.8,234,1462.3,234.6,1461.7,235"/>
				<rect x="1465.9" y="226.9" class="st4" width="1" height="8.6"/>
				<path class="st4" d="M1476.6,228c1.5,1.8,1.5,4.5,0,6.3c-0.9,0.8-2,1.2-3.2,1.1h-2.8v-8.6h2.8
					C1474.6,226.8,1475.7,227.2,1476.6,228 M1475.8,233.6c1.1-1.4,1.1-3.4,0-4.9c-0.6-0.6-1.4-0.9-2.3-0.9h-1.8v6.6h1.8
					C1474.4,234.5,1475.2,234.2,1475.8,233.6"/>
				<polygon class="st4" points="1487.2,234.5 1487.2,235.5 1481,235.5 1481,226.9 1487,226.9 1487,227.8 1482,227.8 1482,230.6 
					1485.9,230.6 1485.9,231.6 1482,231.6 1482,234.5 				"/>
				<polygon class="st4" points="1496.9,235.5 1495.6,235.5 1492,229.7 1491.1,228 1491.1,228 1491.1,229.4 1491.1,235.5 
					1490.1,235.5 1490.1,226.9 1491.4,226.9 1495,232.6 1495.9,234.3 1496,234.3 1495.9,232.9 1495.9,226.9 1496.9,226.9 				"/>
				<path class="st4" d="M1506.2,235c-0.6,0.4-1.4,0.6-2.1,0.6s-1.5-0.2-2.1-0.5c-0.6-0.4-1.1-0.9-1.4-1.5c-0.7-1.5-0.7-3.2,0-4.7
					c0.3-0.6,0.8-1.2,1.4-1.5c1.3-0.7,2.9-0.7,4.2,0c0.6,0.3,1,0.9,1.3,1.5l-1,0.5c-0.2-0.5-0.5-0.8-0.8-1.1
					c-0.4-0.3-0.9-0.4-1.4-0.4s-1.1,0.1-1.5,0.4c-0.4,0.3-0.8,0.7-1,1.2c-0.3,0.6-0.4,1.2-0.4,1.8c-0.1,0.9,0.2,1.8,0.8,2.5
					c0.5,0.6,1.3,1,2.1,0.9c0.5,0,1.1-0.1,1.5-0.5c0.4-0.3,0.8-0.8,0.9-1.3l1,0.4C1507.3,234,1506.8,234.6,1506.2,235"/>
				<rect x="1510.4" y="226.9" class="st4" width="1" height="8.6"/>
				<path class="st4" d="M1520,233.1h-3.9l-0.9,2.4h-1.1l3.3-8.6h1.2l3.3,8.6h-1.1L1520,233.1z M1519.6,232.1l-1.2-3l-0.4-1.2l0,0
					l-0.4,1.2l-1.2,3.1L1519.6,232.1z"/>
				<path class="st4" d="M1440.4,187.7c2,1.6,3.1,4,3,6.5c0.1,1.9-0.5,3.7-1.7,5.2s-2.8,2.5-4.6,3l0,0c2.2,0.5,4.2,1.7,5.7,3.4
					c2.6,3.1,2.8,7.6,0.6,11c-1.1,1.5-2.6,2.7-4.4,3.4c-2.1,0.9-4.3,1.3-6.6,1.2c-2.2,0-4.4-0.4-6.5-1.2c-1.8-0.7-3.3-1.9-4.4-3.4
					c-2.3-3.4-2.1-7.9,0.5-11c1.5-1.7,3.5-2.9,5.7-3.4l0,0c-1.8-0.5-3.4-1.5-4.6-3c-1.1-1.5-1.7-3.3-1.7-5.2c-0.1-2.5,1-4.9,3-6.5
					C1429.4,184.4,1435.7,184.4,1440.4,187.7 M1439.6,217c1.7-1.3,2.7-3.3,2.7-5.5c0.1-2.2-0.9-4.3-2.7-5.6c-2-1.5-4.5-2.3-7.1-2.1
					c-2.5-0.1-5,0.6-7,2.1c-1.7,1.3-2.7,3.4-2.7,5.6c-0.1,2.2,0.9,4.2,2.6,5.5c2,1.5,4.5,2.2,7,2.1
					C1435,219.2,1437.5,218.4,1439.6,217 M1426.5,189.5c-1.5,1.2-2.3,3-2.2,4.9c-0.1,1.9,0.7,3.7,2.2,4.9c3.6,2.5,8.3,2.5,11.8,0
					c2.7-2.4,3-6.5,0.6-9.2c-0.2-0.2-0.4-0.4-0.6-0.6c-1.7-1.3-3.8-1.9-6-1.8C1430.3,187.6,1428.2,188.2,1426.5,189.5"/>
				<path class="st4" d="M1473.2,190c2.3,3.2,3.4,7.7,3.4,13.3c0,5.9-1.1,10.4-3.4,13.5c-2.2,3.1-5.8,4.8-9.6,4.6
					c-2.7,0.1-5.3-0.6-7.6-2c-2-1.4-3.5-3.4-4.2-5.7l2.7-1.4c0.4,1.9,1.4,3.6,2.9,4.9c1.8,1.3,3.9,1.9,6.1,1.8
					c3.8,0,6.5-1.5,8.2-4.5s2.5-7,2.5-12c0-1.2-0.1-2.5-0.3-3.7h-0.2c-0.1,1.7-0.7,3.4-1.8,4.8c-1,1.3-2.4,2.3-3.9,2.9
					c-1.5,0.6-3.2,1-4.8,1c-3.1,0.2-6.1-0.9-8.4-3c-2.2-2.1-3.3-5.1-3.2-8.1c-0.1-3,1-6,3.2-8.1c2.4-2.1,5.5-3.2,8.6-3
					c3.9-0.2,7.5,1.7,9.7,4.9 M1456.9,190.2c-1.7,1.7-2.5,4-2.4,6.4c-0.1,2.3,0.8,4.6,2.4,6.2c1.8,1.6,4.2,2.5,6.6,2.3
					c1.6,0,3.2-0.4,4.7-1.2c1.3-0.7,2.4-1.8,3.2-3.1c0.8-1.3,1.2-2.7,1.2-4.2c0.1-2.3-0.8-4.6-2.5-6.3c-1.7-1.6-4.1-2.5-6.4-2.4
					C1461.1,187.7,1458.7,188.5,1456.9,190.2"/>
				<path class="st4" d="M1496.1,188.1c1.5,1.9,2.2,4.3,2.1,6.7c0.1,2.4-0.6,4.8-2.1,6.7c-2.9,3.2-7.9,3.5-11.1,0.6
					c-0.2-0.2-0.4-0.4-0.6-0.6c-1.5-1.9-2.2-4.3-2.1-6.7c-0.1-2.4,0.6-4.8,2.1-6.7c2.9-3.2,7.9-3.5,11.2-0.6
					C1495.7,187.7,1495.9,187.9,1496.1,188.1 M1486.1,189.6c-1.9,3.2-1.9,7.2,0,10.4c1.9,2.3,5.2,2.6,7.5,0.8
					c0.3-0.2,0.5-0.5,0.8-0.8c1.9-3.2,1.9-7.2,0-10.4c-1.8-2.3-5.1-2.7-7.4-0.9C1486.6,189,1486.3,189.3,1486.1,189.6 M1511.9,185.7
					h2.6l-23.1,35.3h-2.6L1511.9,185.7z M1519.1,205.3c1.5,1.9,2.2,4.3,2.1,6.7c0.1,2.4-0.7,4.8-2.1,6.7c-2.9,3.2-7.9,3.5-11.2,0.6
					c-0.2-0.2-0.4-0.4-0.6-0.6c-1.5-1.9-2.2-4.3-2.1-6.7c-0.1-2.4,0.6-4.8,2.1-6.7c2.9-3.2,7.9-3.5,11.1-0.6
					C1518.7,204.8,1518.9,205,1519.1,205.3 M1509.1,206.7c-1,1.5-1.5,3.4-1.4,5.2c-0.1,1.8,0.4,3.7,1.4,5.2c1,1.3,2.5,2.1,4.2,2
					c1.6,0.1,3.2-0.7,4.1-2c1-1.5,1.5-3.3,1.4-5.2c0.1-1.9-0.4-3.7-1.4-5.2c-1-1.3-2.5-2.1-4.1-2
					C1511.6,204.6,1510,205.4,1509.1,206.7"/>
			</g>
		</g>
	</g>
</g>
<path class="st4" d="M159.3,334.7c0.1,3.8-1.8,6.2-5.6,6.8c-1,0.2-1.9,0.4-2.9,0.6c-11.1,3.1-22.1,6.2-33.2,9.2
	c-1.9,0.5-3.9,0.5-5.8,0.2c-4.3-0.7-6.6-3.7-6.6-7.9v-42.7c0-6.9,0-13.7,0-20.6c0-5.3,3-8.4,8.2-8.8c6-0.5,12-1,17.9-1.5
	c6.8-0.6,13.6-1.2,20.4-1.6c5.3-0.4,8.7,2.7,8.6,7.6c-0.1,6.6-0.1,13.2-0.2,19.7c0,2.2-0.7,4.9,0.3,6.4s3.8,2.3,5.8,3
	c1.3,0.5,2.7,0.6,4.1,0.4c4.8-0.9,6.9-4.4,7.8-8.9c1.2-6-0.7-11.3-3.5-16.4c-3.9-6.9-8.8-13-13.9-19c-5.1-6-10.1-11.5-15-17.5
	c-3-3.7-4.8-8-3.3-13.1c-0.5-0.3-0.9-0.6-1.3-0.8c-9.7-5.1-19.4-10.3-29.2-15.3c-2.7-1.3-4.8-3.8-5.4-6.7c-1.1-4.3-1.3-8.7-0.7-13.1
	c0.2-1.7-0.2-2.6-1.9-3c-1.4-0.3-1.9-1.1-1.9-2.6c0.1-7.6,0-15.1,0.1-22.7c0-1.1,0.3-2.3,0.8-3.3c4.3-8.1,11.1-11.9,20.1-11.9
	c19.9,0,39.7,0,59.6,0c2.8-0.2,5.5-0.1,8.3,0.1c11.7,1.6,23.4,3.4,35.1,5.1l52.4,7.8c13.8,2,27.5,4.2,41.3,6.1
	c8.1,1.1,16.1,2.9,24.4,2.5c4.9-0.2,7.7,1.9,8.5,6.7c0.4,3.7,0.5,7.3,0.3,11c0,1.6-0.4,3.2-1.2,4.6c-7.6,11.5-15.5,23-23.1,34.5
	c-2.3,3.5-4.6,6.3-9,6.5c-0.1,0-0.1,0.1-0.3,0.2c0,5.6,0,11.3,0,17c0.2,9.8-6.9,18.3-16.6,19.8c-6.9,1.1-13.9,2-20.9,3.1
	c-11.2,1.8-22.3,3.7-33.5,5.4c-6.4,1-12.8,1.6-17.4-4.5c-3.4,3.3-7.6,5.6-12.1,6.8c-1.2,0.3-1.5,0.8-1.5,2c0,8.3,0.1,16.6,0,24.9
	c-0.1,2.8,0.3,5,3.1,6.5s3.9,4,3.7,7.3c-0.2,3.8,0.1,7.7-0.1,11.6c-0.1,1.8-0.6,3.6-1.5,5.2c-2.2,4-6.1,5.3-10.4,5.3
	c-7,0.1-14,0.1-21,0c-4,0-8,0-11.9-0.3c-4.9-0.4-7.6-3.4-7.6-8.3c0-0.8,0-1.6,0-2.4c0.1-1.2-0.3-1.7-1.6-1.5
	c-2.3,0.3-4.7-0.2-6.7-1.3c-1.3-0.7-2.6-1.3-4.2-2.1c0,1.3,0,2.3,0,3.3 M243.6,203.3c-1.3-0.4-2.5-0.7-3.7-1c-2.3-0.6-4.7-1.2-7-1.8
	c-1.1-0.3-1.9-0.8-1.5-2s1.4-1.1,2.3-0.8c3.1,0.8,6.3,1.6,9.4,2.5c1.3,0.4,1.8,0.1,2.3-1.1c2.6-6.6,6.2-12.7,10.7-18.1
	c1.2-1.3,2.4-2.6,3.8-3.8c2.7-2.7,6.5-4.1,10.3-4c10.6,0.3,21.2,0.1,31.9,0.1c0.5,0,1-0.1,1.4-0.3c-0.5-0.1-0.9-0.3-1.4-0.4
	l-52.9-7.9c-15.2-2.3-30.5-4.6-45.7-6.8c-6.2-0.9-12.4-2.1-18.7-2c-20.5,0.2-41,0.1-61.5,0.1c-5.5,0-10.3,1.7-14,6
	c-0.7,0.8-1.2,1.6-1.9,2.7l7.3,1.9c0.6,0.1,1.2,0.2,1.8,0.5c0.5,0.5,0.9,1.1,1.2,1.8c-0.6,0.3-1.4,1-1.9,0.9
	c-2.4-0.5-4.8-1.2-7.2-1.9c-0.4-0.1-0.9-0.2-1.5-0.3c-0.1,0.5-0.1,1-0.2,1.5c0,5.8,0,11.5,0,17.3c-0.1,1,0.6,2,1.6,2.2
	c29.4,11.3,58.9,22.6,88.3,33.9l37.1,14.3c0.4,0.1,0.8,0.2,1.4,0.4C236.9,225.8,239.7,214.3,243.6,203.3 M238.6,243.5l-4.2-1.5
	c0,0.7-0.1,1.2-0.1,1.8c0,9.2,0,18.4,0,27.5c0,4.4,1.9,6.7,6.3,6.7c3.6-0.1,7.2-0.5,10.8-1.1c15.7-2.4,31.3-4.9,47-7.4
	c2-0.2,4-0.6,5.9-1.1c6.4-2,10.7-8,10.6-14.7v-48c0-0.5,0-0.9,0-1.4c-0.1-1.2,0.8-2.1,1.9-2.2c0.1,0,0.2,0,0.3,0
	c1.1-0.1,2.1,0.8,2.1,1.9c0,0.1,0,0.2,0,0.4c0,4.2,0,8.3,0.1,12.5c0,0.9,0.4,2.4,0.7,2.4c1.4,0.2,3,0.6,4.1-1.2
	c2.6-4.5,5.5-8.8,8.3-13.2c0.6-0.9,1.2-2.1,2.5-1.3s0.6,1.9,0,2.8c-3.1,4.9-6.2,9.9-9.4,14.8c-0.5,0.6-1.2,1-2,1.1
	c-1.4,0.1-2.7,0.1-4.1,0v9.3c1.4,0.2,2.9-0.4,3.7-1.7c8.1-12.1,16.2-24.1,24.3-36.2c0.7-1.1,1.1-2.4,1.1-3.7
	c0.1-3.4-0.1-6.8-0.5-10.1c-0.3-2.1-1.6-2.6-3.9-2.3c0.1,1.2,0.3,2.5,0.4,3.7c0.7,5.2-0.5,10.5-3.4,14.9c-1.2,1.8-2.4,3.7-3.5,5.6
	c-0.6,0.9-1.3,1.4-2.3,0.8s-0.8-1.6-0.2-2.4c1.4-2.1,2.8-4.3,4.1-6.5c2.9-4.9,3-10.1,1.8-15.4c-0.2-0.4-0.6-0.7-1-0.8
	c-1.4-0.1-2.7,0-3.8,0c0,2.9,0.2,5.5-0.1,8.2c-0.3,1.9-0.7,3.7-1.3,5.5c-0.3,1-1,1.7-2.1,1.2s-1.1-1.4-0.7-2.3
	c1.4-3.5,1.7-7.4,0.9-11.1c-0.2-1.1-0.6-1.6-1.9-1.6c-21,0-42,0-63.1,0c-2.7,0-4.3,2.2-6.7,4c1.1,0,1.7,0.1,2.4,0.1
	c13.1,0,26.2,0,39.3,0c3.8-0.2,7.6,0.8,10.9,2.8c3.2,1.8,5.2,5.2,5.3,8.8c0.1,1.6-0.8,2.6-2.1,2.6c-1.3,0-2.2-0.8-2.3-2.4
	c0-2.4-1.5-4.5-3.7-5.4c-2.5-1.1-5.1-1.7-7.8-1.8c-14.8-0.2-29.6-0.1-44.3-0.1c-1-0.1-1.9,0.4-2.4,1.3c-4.6,7-8.2,14.6-10.6,22.6
	c-0.2,0.6-0.2,1.2-0.2,1.9c0.6,15,1.3,30.1,1.9,45.2c0.1,3,0,6.1,0,9.4c1.2-0.1,1.9-0.1,2.7-0.2l41.1-4.7c2.2-0.2,4.4-0.5,6.5-0.7
	c0.9-0.1,1.2-0.3,1.2-1.3c0-18,0-36,0-54c0-0.3-0.1-0.7-0.1-1.2l-22.3,1v0.3c1.2,0.4,2.4,0.6,3.6,1.1c7.7,2.8,13.7,9.1,16,17
	c3.3,10.2,1.9,19.9-4.8,28.4c-9.4,12-26.1,12.6-36.5,1.5c-11.7-12.5-10-33.5,3.6-43.6c2-1.5,4.6-2.4,6.9-3.6
	c0.4-0.2,0.8-0.4,1.1-0.7l-8.6,0.4c-0.4,0-0.8,0.1-1.2,0.1c-1.3,0-2.2-0.5-2.3-1.8s0.9-1.9,2.2-1.9l20.8-1l23-1c0.7,0,1.5,0,2.4,0
	v63.4l-58.3,6.6c-0.6-15.7-1.3-31.2-1.9-46.7h-0.5C241,230.3,239.9,236.8,238.6,243.5 M229.8,269.8c0-9.3,0-18.6,0-27.9
	c0.1-1-0.5-2-1.5-2.2c-38.7-14.8-77.3-29.6-115.9-44.5c-0.6-0.2-1.2-0.4-2-0.7c-0.5,4.7-0.7,9.2,1,13.6c0.5,1,1.3,1.8,2.3,2.4
	c19,10.1,38.1,20.1,57.1,30.1s38.1,20.1,57.2,30.3c0.4,0.2,0.9,0.5,1.7,0.8L229.8,269.8z M128.1,296.2c13.9,6.8,27.8,13.5,41.7,20.2
	c1,0.4,2.1,0.6,3.2,0.6c3.1-0.2,6.3-0.6,9.4-1.1c-0.4-0.2-0.8-0.5-1.2-0.7c-9.7-4.4-19.3-8.7-29-13.1c-0.6-0.3-1-1.1-1.5-1.7
	l1.7-1.4l0.3-0.3c-1.6-3.8-4.3-7-7.7-9.4c-4.2-3.1-8.9-5.4-13.8-7c-0.6-0.1-1.1-0.3-1.6-0.6c-0.4-0.4-0.6-0.9-0.5-1.5
	c0.2-0.5,0.8-0.8,1.3-1.1c0.2-0.1,0.6,0,0.8,0.1c7.7,2.4,14.9,5.8,20.2,12.1c2.1,2.5,3.5,5.5,4.9,7.9v-19.4
	c-2.8,0.4-5.6,0.8-8.4,1.1c-0.6,0-1.3-0.7-1.9-1c0.4-0.6,0.7-1.7,1.2-1.7c2.5-0.5,5.1-0.7,7.7-1c0.5,0,1,0.2,1.4,0.4
	c0.9-3.4-0.8-5.6-4.4-5.3c-8.3,0.6-16.7,1.4-25,2.1c-4.5,0.4-9,0.8-13.4,1.2c-3,0.3-4.4,1.8-4.5,4.8s0,6,0,9c0,17.8,0,35.6,0,53.3
	c0,4.5,2.7,6.6,7.2,5.5c6.4-1.7,12.7-3.5,19-5.3c6.1-1.7,12.1-3.2,18.2-4.9c1.5-0.4,2.1-1.2,2.3-2.9c0.4-4.1-1.2-6.3-5-8
	c-9.8-4.5-19.3-9.6-29-14.3c-1-0.4-1.7-1.4-1.6-2.5c0.1-5.5,0-11,0-16.5c0-2.1,0.3-2.4,2.4-2.4h22c0.3,0,0.7-0.1,0.8,0
	c0.6,0.4,1.5,0.9,1.5,1.4c0.2,1-0.6,1.5-1.7,1.5c-3.5,0-7,0-10.6,0h-10l-0.1,0.4C125.8,294.9,126.9,295.5,128.1,296.2 M175.6,320.4
	c-0.1,0.2-0.2,0.3-0.2,0.4c0,6.3-0.1,12.6,0,18.9c0,2,1.5,3.4,3.8,3.6c3.5,0.3,7,0.3,10.5,0.3c7.3,0,14.7,0,22,0
	c1.4,0,2.8-0.2,4.1-0.6c2.7-0.8,4.6-3.4,4.5-6.3c0-3.9-0.1-7.7,0-11.6c0.2-2-0.9-3.9-2.8-4.6c-0.1,0.3-0.2,0.6-0.2,0.8
	c0.5,2.4-0.8,3.4-2.8,4.1c-7,2.6-14.3,3-21.7,2.3c-0.9,0-1.7-0.7-1.7-1.7c0-0.1,0-0.2,0-0.3c0.2-1.3,1.1-1.6,2.3-1.5
	c5.6,0.5,11.2,0.1,16.7-1.2c3.6-1,3.6-1,3.6-4.7c0-10.1,0-20.2,0-30.3v-2.2c-0.5,0-0.8-0.1-1.2-0.1c-5.3-0.3-10.7-0.5-16-0.9
	c-3.3-0.3-6.3-1.7-9.3-4v42.8c0,0.5,0.2,1.2-0.1,1.5c-0.4,0.7-1,1.6-1.6,1.8c-1.1,0.3-1.9-0.5-1.9-1.6c-0.1-1.8,0-3.5,0-5.5
	l-7.8,0.7 M183.2,312.8c0-0.8,0.1-1.3,0.1-1.8c0-11,0-22.1,0-33.1c0-0.8-0.1-1.6-0.5-2.3c-3.4-6-4.7-12.5-5.1-19.2
	c-0.1-0.9-0.1-1.7,0-2.6c0.7-3.6-0.9-5.3-4.1-6.9c-9.1-4.5-18-9.4-27-14.1l-1.4-0.7c-0.1,1.1-0.1,2.2,0,3.3c0.7,3.2,2.3,6.1,4.5,8.4
	c5.5,6.4,11.1,12.8,16.6,19.3c5.2,6.2,9.9,12.6,13.2,20c1.9,4.2,2.6,8.8,1.9,13.3c-0.7,5.3-2.8,8.3-8.3,11.7L183.2,312.8 M123,304.2
	c-0.8,4.4,1.2,6.5,5.1,8.3c9.2,4.2,18.2,9,27.3,13.5c3.3,1.7,6.6,3.3,10,5c0.5,0.3,1,0.5,1.6,0.6c4,1,4.7,0.4,4.7-3.6
	c0-2.1,0.1-4.2,0-6.2c0-0.6-0.4-1.2-0.9-1.6c-15.6-7.6-31.3-15.3-47-22.8c-0.2-0.1-0.5-0.1-0.8-0.1
	C123.2,299.6,123.2,301.9,123,304.2 M259,253.2c7.7,7.2,19.6,7.2,27.4,0.1c11.6-10.1,11.7-29.5,0.1-39.7c-9.7-8.6-24-6.5-31.5,4.5
	c-3.1,4.5-4.6,9.7-4.6,17.2C250.7,242.2,253.8,248.7,259,253.2 M181.4,251.1c0.2,2.8,0.1,5.1,0.5,7.4c0.5,3.8,1.2,7.5,2.3,11.1
	c3.3,9.4,10.3,13.3,21,11.4c6.1-1,10.1-4.9,12.9-10.5L181.4,251.1 M221.8,272.5l-7.6,9.2c5-0.6,9.7-2.7,13.5-6L221.8,272.5"/>
<path class="st4" d="M210.2,194.5c0.3-0.4,1.2-0.9,1.2-1.3c-0.2-0.7-0.6-1.3-1.3-1.6c-3.3-1-6.6-1.8-9.8-2.7l-23.2-6
	c-0.2-0.1-0.4-0.2-0.7-0.2c-0.9-0.2-2-0.1-2,1c0.1,0.8,0.6,1.5,1.3,1.8c3.3,1,6.7,1.8,10,2.7l22.9,6L210.2,194.5"/>
<path class="st4" d="M139.8,176.1c0.3-0.3,1.1-0.9,1-1.2c-0.1-0.7-0.6-1.3-1.2-1.7c-3.3-1-6.7-1.8-10-2.7c-2.6-0.7-5.1-1.4-7.7-2
	c-1-0.3-2.1-0.5-2.5,0.8s0.6,1.8,1.7,2.1l17,4.4C138.6,175.9,139,175.9,139.8,176.1"/>
<path class="st4" d="M153.9,176.9c-0.3,0.3-1.1,0.7-1.1,1.2c0,0.7,0.4,1.3,1,1.7c1.3,0.5,2.6,0.8,4,1.1c3.5,0.9,6.9,1.8,10.4,2.7
	c1.1,0.3,2.2,0.3,2.5-1s-0.8-1.6-1.8-1.9c-4.5-1.2-9-2.4-13.5-3.5C155,177,154.6,177,153.9,176.9"/>
<path class="st4" d="M220.8,197.3c0.4-0.4,1.1-0.8,1.1-1.3s-0.3-1.5-0.8-1.6c-2-0.7-4.1-1.2-6.1-1.6c-0.4-0.1-1.3,0.6-1.5,1
	c-0.1,0.6,0.2,1.2,0.6,1.5C216.2,196.1,218.4,196.6,220.8,197.3"/>
<path class="st4" d="M150.1,178.9c0.4-0.4,1.1-0.8,1.1-1.3c0-0.6-0.3-1.2-0.8-1.6c-1.9-0.6-3.9-1.1-5.8-1.5c-0.6,0-1.1,0.4-1.4,0.9
	c-0.1,0.5,0.2,1.6,0.6,1.7C145.7,177.8,147.8,178.2,150.1,178.9"/>
<path class="st4" d="M331.5,192.7c-0.4,0.3-0.8,0.6-1.1,1c-3.2,5.6-6.5,11.3-9.6,17c-0.2,0.7-0.1,1.4,0.4,2c0.7,0.7,1.6,0.3,2.1-0.6
	c3.2-5.7,6.4-11.3,9.6-17c0.5-0.7,0.4-1.7-0.3-2.2C332.3,192.7,331.9,192.5,331.5,192.7"/>
<path class="st4" d="M109.7,311v21.3c0,0.5-0.1,1,0.1,1.4s0.9,1,1.3,1c0.6-0.1,1.1-0.5,1.3-1c0.2-0.5,0.2-1,0.1-1.5v-42.7
	c0-1.1,0-2.3-1.5-2.2s-1.4,1.1-1.4,2.2C109.7,296.6,109.7,303.8,109.7,311"/>
<path class="st4" d="M121.7,338.1c-2.4,0.5-4.5,0.9-6.6,1.5c-0.6,0.3-1,1-1,1.7c0.3,0.6,0.9,1,1.6,1.1c2.1-0.3,4.2-0.8,6.2-1.4
	c0.5-0.1,0.9-1.1,0.9-1.7S122,338.4,121.7,338.1"/>
<path class="st4" d="M115.5,280.6c-1-0.1-2-0.1-2.9,0.1c-0.6,0.3-1.1,0.8-1.3,1.5c-0.1,0.4,0.8,1.2,1.3,1.3c2,0.2,3.9,0.2,5.9,0
	c0.6-0.2,1.1-0.8,1.2-1.4c0-0.5-0.8-1.2-1.4-1.3C117.3,280.5,116.4,280.5,115.5,280.6L115.5,280.6z"/>
<path class="st4" d="M147.6,334.8c1.6-0.2,3.1-0.5,4.7-0.9c0.6-0.2,1-1,1.4-1.6c-0.6-0.4-1.2-1.2-1.8-1.2c-1.5,0-3,0.3-4.4,0.7
	c-0.7,0.3-1.2,1-1.3,1.8C146.2,334.1,147.2,334.6,147.6,334.8"/>
<path class="st4" d="M288.6,247.2c-5.8,7.8-16.7,9.5-24.6,4c-10.9-8-11.6-25.2-1.5-34.1c6.6-6,16.6-6.1,23.3-0.2
	c4.8,4.1,7.5,10.1,7.5,16.3C293.2,238.2,291.6,243.1,288.6,247.2 M262.5,246.7c7.6,8.1,18.6,7.3,25.1-1.8c5.4-7.6,4.4-19.1-2.3-25.6
	c-7.5-7.2-18.9-5.7-24.5,3.3c-2,3.2-3.1,7-3.1,10.8C257.4,238.3,259.2,243,262.5,246.7"/>
<path class="st4" d="M191.5,271.1c-0.2-3.4,2.4-6.2,5.8-6.4c3.4-0.2,6.2,2.4,6.4,5.8c0,0.2,0,0.3,0,0.5c-0.1,3.4-2.9,6-6.2,5.9
	S191.6,274.3,191.5,271.1 M200.7,271.1c0-1.7-1.3-3.2-3-3.2s-3.2,1.3-3.2,3s1.3,3.2,3,3.2c0,0,0,0,0.1,0
	C199.2,274.2,200.6,272.8,200.7,271.1"/>
<path class="st4" d="M262.3,233.5c0-4.4,3.5-8,7.9-8.1c4.4,0,8,3.5,8.1,7.9c0,4.4-3.5,8-7.9,8.1c-4.3,0.1-7.9-3.3-8.1-7.6
	C262.3,233.7,262.3,233.6,262.3,233.5 M265.3,233.5c0,2.8,2.2,5.1,5,5.1s5.1-2.2,5.1-5s-2.2-5.1-5-5.1S265.3,230.7,265.3,233.5"/>
</svg>
