<?xml version="1.0" encoding="utf-8"?>
<!-- Generator: Adobe Illustrator 23.0.0, SVG Export Plug-In . SVG Version: 6.00 Build 0)  -->
<svg version="1.1" id="Capa_1" xmlns="http://www.w3.org/2000/svg" xmlns:xlink="http://www.w3.org/1999/xlink" x="0px" y="0px"
	 viewBox="0 0 1920 1185.7" style="enable-background:new 0 0 1920 1185.7;" xml:space="preserve">
<style type="text/css">
	.st0{clip-path:url(#SVGID_2_);}
	.st1{fill:#00B1EB;}
	.st2{fill:#FFFFFF;}
</style>
<title>bg</title>
<g>
	<g>
		<defs>
			<rect id="SVGID_1_" y="-1.5" width="1920" height="1196.4"/>
		</defs>
		<clipPath id="SVGID_2_">
			<use xlink:href="#SVGID_1_"  style="overflow:visible;"/>
		</clipPath>
		<g class="st0">
			<path class="st1" d="M220.9,238.1l1717.6,958.3L1943.3,0L220.9,225.1c0,0-7,0.4-7,4.8C213.8,238.1,220.9,238.1,220.9,238.1z"/>
		</g>
	</g>
</g>
<path class="st2" d="M110.1,333.4c0.1,3.9-1.8,6.2-5.6,6.8c-1,0.2-1.9,0.4-2.9,0.6c-11.1,3.1-22.1,6.2-33.2,9.1
	c-1.9,0.5-3.9,0.5-5.8,0.2c-4.3-0.7-6.5-3.6-6.5-7.9v-42.6c0-6.9,0-13.7,0-20.6c0-5.3,3-8.4,8.2-8.8c6-0.5,12-1,17.9-1.5
	c6.8-0.6,13.6-1.2,20.4-1.6c5.3-0.4,8.7,2.7,8.6,7.6c0,6.6-0.1,13.1-0.2,19.7c0,2.2-0.7,4.9,0.3,6.4s3.8,2.3,5.8,3
	c1.3,0.5,2.7,0.6,4.1,0.4c4.8-0.9,6.9-4.4,7.8-8.9c1.2-6-0.7-11.3-3.5-16.4c-3.9-6.9-8.8-13-13.9-19s-10.1-11.5-15-17.5
	c-3-3.7-4.8-8-3.3-13.1c-0.5-0.3-0.9-0.6-1.3-0.8c-9.8-5.1-19.5-10.3-29.3-15.4c-2.7-1.3-4.8-3.8-5.5-6.7c-1.1-4.3-1.3-8.7-0.7-13.1
	c0.2-1.7-0.2-2.6-1.9-3c-1.4-0.3-1.9-1-1.9-2.5c0.1-7.6,0-15.1,0.1-22.7c0-1.1,0.3-2.3,0.8-3.3c4.3-8,11.2-11.8,20.2-11.8
	c19.9,0,39.7,0,59.6,0c2.8-0.2,5.5-0.1,8.3,0.1c11.7,1.6,23.4,3.4,35.1,5.1l52.4,7.8c13.8,2.1,27.5,4.2,41.3,6.1
	c8.1,1.1,16.1,2.9,24.4,2.5c4.9-0.2,7.7,1.9,8.5,6.7c0.4,3.7,0.5,7.3,0.2,11c0,1.6-0.4,3.2-1.2,4.6c-7.6,11.6-15.5,23-23.1,34.5
	c-2.3,3.4-4.6,6.3-9,6.5c0,0-0.1,0.1-0.3,0.2c0,5.6,0,11.3,0,17c0.1,9.8-6.9,18.3-16.6,19.8c-6.9,1.1-13.9,2-20.9,3.1
	c-11.2,1.8-22.3,3.7-33.5,5.4c-6.4,1-12.7,1.6-17.4-4.5c-3.4,3.3-7.6,5.6-12.1,6.8c-1.2,0.3-1.5,0.8-1.5,2c0.1,8.3,0.1,16.6,0,24.9
	c-0.1,2.9,0.4,5,3.1,6.5s3.9,4,3.6,7.3c-0.3,3.9,0.1,7.7-0.1,11.6c-0.1,1.8-0.6,3.6-1.5,5.2c-2.2,4-6.1,5.3-10.4,5.3
	c-7,0.1-14,0.1-21,0c-4,0-8,0-11.9-0.3c-4.9-0.4-7.6-3.4-7.6-8.4c0-0.8,0-1.6,0-2.4c0.1-1.1-0.2-1.7-1.6-1.5
	c-2.3,0.3-4.6-0.2-6.7-1.4c-1.3-0.7-2.6-1.3-4.2-2.1C110.1,331.4,110.1,332.4,110.1,333.4z M194.4,202.1c-1.3-0.4-2.5-0.7-3.7-1
	c-2.3-0.6-4.7-1.2-7-1.8c-1.1-0.3-1.9-0.8-1.5-2s1.4-1.1,2.3-0.8c3.1,0.8,6.3,1.6,9.4,2.5c1.3,0.4,1.8,0.1,2.3-1.1
	c2.6-6.6,6.2-12.7,10.7-18.1c1.2-1.3,2.4-2.6,3.8-3.8c2.7-2.7,6.5-4.1,10.3-4c10.6,0.3,21.3,0.1,31.9,0.1c0.5,0,1-0.1,1.4-0.3
	c-0.5-0.1-0.9-0.3-1.4-0.4l-52.9-7.9c-15.2-2.3-30.5-4.6-45.7-6.8c-6.2-0.9-12.4-2.1-18.7-2c-20.5,0.2-41,0.1-61.5,0.1
	c-5.5,0-10.3,1.7-14,6c-0.7,0.8-1.2,1.6-1.9,2.7l7.3,1.9c0.6,0.1,1.2,0.2,1.8,0.5c0.5,0.5,0.9,1.1,1.2,1.8c-0.7,0.3-1.4,1-2,0.9
	c-2.4-0.5-4.8-1.2-7.2-1.8c-0.4-0.1-0.9-0.2-1.5-0.3c-0.1,0.5-0.1,1-0.2,1.5c0,5.8,0,11.5,0,17.3c-0.1,1,0.6,1.9,1.6,2.1
	c29.5,11.3,58.9,22.7,88.4,34l37.1,14.3c0.4,0.1,0.8,0.2,1.4,0.4C187.7,224.6,190.5,213.2,194.4,202.1z M189.4,242.3l-4.2-1.4
	c0,0.7-0.1,1.2-0.1,1.8c0,9.2,0,18.4,0,27.5c0,4.4,1.9,6.7,6.3,6.7c3.6-0.1,7.2-0.5,10.8-1.1c15.7-2.4,31.3-4.9,47-7.4
	c2-0.2,4-0.5,5.9-1c6.4-2,10.7-8,10.6-14.7v-48c0-0.5,0-0.9,0-1.4c-0.1-1.2,0.8-2.2,1.9-2.3c0.1,0,0.2,0,0.4,0
	c1.1-0.1,2.1,0.8,2.1,1.9c0,0.1,0,0.2,0,0.4c0,4.2,0,8.3,0,12.5c0,0.9,0.4,2.4,0.7,2.4c1.4,0.2,3,0.6,4-1.2
	c2.6-4.5,5.5-8.8,8.3-13.2c0.6-0.9,1.2-2.1,2.5-1.3s0.6,1.9,0,2.8c-3.1,4.9-6.2,9.9-9.4,14.8c-0.5,0.6-1.2,1-2,1.1
	c-1.4,0.1-2.7,0.1-4.1,0.1v9.3c1.4,0.2,2.9-0.4,3.7-1.7c8.1-12.1,16.2-24.1,24.3-36.2c0.7-1.1,1.1-2.4,1.1-3.7
	c0.1-3.4-0.1-6.8-0.5-10.1c-0.3-2.1-1.6-2.6-3.9-2.3c0.1,1.2,0.3,2.5,0.5,3.7c0.7,5.2-0.5,10.5-3.4,14.9c-1.2,1.8-2.4,3.7-3.5,5.6
	c-0.6,0.9-1.3,1.4-2.3,0.8s-0.8-1.6-0.2-2.4c1.4-2.1,2.8-4.3,4-6.4c2.9-4.9,3-10.1,1.8-15.4c-0.2-0.4-0.6-0.7-1-0.8
	c-1.4-0.1-2.7,0-3.8,0c0,2.9,0.2,5.6-0.1,8.2c-0.3,1.9-0.7,3.7-1.3,5.5c-0.3,1-1,1.7-2.1,1.2s-1-1.4-0.7-2.3
	c1.4-3.5,1.7-7.4,0.9-11.1c-0.2-1.1-0.6-1.6-1.9-1.6c-21,0-42,0-63,0c-2.7,0-4.3,2.2-6.7,4c1.1,0,1.7,0.1,2.4,0.1
	c13.1,0,26.2,0,39.3,0c3.8-0.2,7.6,0.8,10.9,2.8c3.2,1.8,5.2,5.2,5.3,8.8c0.1,1.6-0.8,2.6-2.1,2.6s-2.2-0.8-2.3-2.4
	c0-2.4-1.5-4.5-3.7-5.4c-2.5-1.1-5.1-1.7-7.8-1.8c-14.8-0.2-29.6-0.1-44.3-0.1c-1-0.1-1.9,0.4-2.4,1.3c-4.6,7-8.2,14.6-10.6,22.6
	c-0.2,0.6-0.2,1.2-0.2,1.9c0.6,15.1,1.3,30.1,1.9,45.2c0.1,3,0,6.1,0,9.4c1.2-0.1,1.9-0.1,2.7-0.2l41.1-4.7c2.2-0.3,4.4-0.5,6.5-0.7
	c0.9-0.1,1.2-0.3,1.2-1.3c0-18,0-36,0-54c0-0.3-0.1-0.7-0.1-1.2l-22.3,1v0.3c1.2,0.4,2.4,0.6,3.6,1.1c7.7,2.8,13.7,9.1,16,17
	c3.3,10.2,1.9,19.9-4.8,28.4c-9.4,12-26.1,12.6-36.5,1.5c-11.7-12.4-10-33.5,3.6-43.6c2-1.5,4.6-2.4,6.9-3.6
	c0.4-0.2,0.8-0.4,1.1-0.7l-8.6,0.4c-0.4,0-0.8,0.1-1.2,0.1c-1.3,0-2.2-0.5-2.3-1.8s0.9-1.9,2.2-1.9c6.9-0.3,13.8-0.6,20.8-1l23-1
	c0.7,0,1.5,0,2.4,0V263l-58.3,6.6c-0.6-15.7-1.3-31.2-1.9-46.7l-0.5-0.1C191.8,229.2,190.6,235.7,189.4,242.3L189.4,242.3z
	 M180.6,268.5c0-9.3,0-18.6,0-27.9c0.1-1-0.5-2-1.5-2.2c-38.6-14.8-77.2-29.6-115.8-44.5l-2-0.7c-0.5,4.7-0.7,9.3,0.9,13.6
	c0.5,1,1.3,1.8,2.3,2.4c19,10.1,38,20.1,57.1,30.1s38.1,20.1,57.3,30.3l1.7,0.8V268.5z M78.9,295c13.9,6.8,27.8,13.5,41.7,20.2
	c1,0.4,2.1,0.6,3.2,0.6c3.1-0.2,6.3-0.6,9.4-1.1c-0.4-0.2-0.8-0.5-1.2-0.6c-9.7-4.4-19.3-8.7-29-13.1c-0.6-0.3-1-1.1-1.5-1.7
	l1.7-1.4c0.1-0.1,0.2-0.1,0.3-0.3c-1.6-3.8-4.3-7-7.7-9.4c-4.2-3.1-8.9-5.4-13.8-7c-0.6-0.1-1.1-0.3-1.6-0.6
	c-0.4-0.4-0.6-0.9-0.5-1.5c0.2-0.5,0.8-0.8,1.3-1.1c0.2-0.1,0.6,0.1,0.8,0.1c7.7,2.4,14.9,5.8,20.2,12.1c2.1,2.5,3.5,5.5,4.9,7.9
	v-19.5c-2.8,0.4-5.6,0.8-8.4,1.1c-0.6,0-1.3-0.7-1.9-1c0.4-0.6,0.7-1.7,1.2-1.7c2.6-0.5,5.1-0.7,7.7-1c0.5,0,1,0.1,1.4,0.3
	c0.9-3.4-0.8-5.6-4.4-5.3c-8.3,0.6-16.7,1.4-25,2.1c-4.5,0.4-9,0.8-13.4,1.2c-3,0.3-4.5,1.8-4.5,4.8s0,6,0,9c0,17.8,0,35.5,0,53.3
	c0,4.5,2.7,6.6,7.2,5.5c6.3-1.7,12.7-3.5,19-5.3c6.1-1.6,12.1-3.2,18.2-4.9c1.5-0.4,2.1-1.2,2.3-2.9c0.4-4.1-1.2-6.3-5-8
	c-9.8-4.5-19.3-9.6-29-14.3c-1-0.4-1.7-1.4-1.6-2.5c0.1-5.5,0-11,0-16.5c0-2.1,0.3-2.4,2.4-2.4h22c0.3,0,0.7-0.1,0.8,0
	c0.6,0.4,1.4,0.9,1.6,1.5c0.2,1-0.6,1.5-1.7,1.5c-3.5,0-7,0-10.6,0h-10l-0.1,0.4C76.6,293.8,77.7,294.4,78.9,295z M126.4,319.2
	c-0.1,0.2-0.2,0.3-0.2,0.4c0,6.3-0.1,12.6,0,18.9c0,2,1.5,3.4,3.8,3.6c3.5,0.3,7,0.3,10.5,0.4c7.3,0.1,14.7,0.1,22,0
	c1.4,0,2.8-0.2,4.1-0.6c2.7-0.8,4.6-3.4,4.5-6.3c0-3.9-0.1-7.7,0.1-11.6c0.2-2-0.9-3.9-2.8-4.6c-0.1,0.3-0.2,0.6-0.2,0.8
	c0.5,2.4-0.9,3.4-2.8,4.1c-7,2.6-14.3,3-21.7,2.3c-0.9,0-1.7-0.7-1.8-1.6c0-0.2,0-0.3,0-0.5c0.2-1.3,1.1-1.6,2.3-1.5
	c5.6,0.5,11.2,0.1,16.7-1.2c3.6-1,3.6-1,3.6-4.7c0-10.1,0-20.2,0-30.3v-2.2c-0.5,0-0.9-0.1-1.2-0.1c-5.4-0.3-10.7-0.5-16-0.9
	c-3.3-0.3-6.3-1.7-9.3-4v42.8c0,0.5,0.2,1.1-0.1,1.5c-0.4,0.7-1,1.6-1.6,1.8c-1.1,0.3-1.9-0.5-1.9-1.6c-0.1-1.8,0-3.5,0-5.5
	L126.4,319.2z M134,311.5c0.1-0.8,0.1-1.3,0.1-1.8c0-11,0-22,0-33.1c0-0.8-0.1-1.6-0.5-2.3c-3.4-6-4.6-12.5-5.1-19.2
	c-0.1-0.9-0.1-1.7,0-2.6c0.7-3.6-0.9-5.3-4.1-6.9c-9.1-4.5-18-9.4-27-14.1c-0.3-0.2-0.6-0.3-1.4-0.7c-0.1,1.1-0.1,2.2,0,3.3
	c0.7,3.2,2.3,6.1,4.5,8.4c5.6,6.4,11.2,12.8,16.6,19.3c5.2,6.2,9.9,12.6,13.2,20c1.9,4.2,2.6,8.8,1.9,13.3
	c-0.7,5.3-2.8,8.3-8.3,11.7L134,311.5z M73.7,302.9c-0.7,4.5,1.3,6.6,5.2,8.4c9.2,4.2,18.2,9,27.3,13.5c3.3,1.7,6.7,3.3,10,5
	c0.5,0.3,1,0.5,1.6,0.6c4,1,4.7,0.4,4.7-3.6c0-2.1,0.1-4.2,0-6.2c0-0.6-0.4-1.2-0.9-1.6c-15.6-7.6-31.3-15.3-47-22.8
	c-0.2-0.1-0.5-0.1-0.8-0.1C74,298.4,74,300.7,73.7,302.9L73.7,302.9z M209.7,251.9c7.7,7.2,19.6,7.2,27.4,0.1
	c11.6-10.1,11.7-29.4,0.1-39.7c-9.7-8.6-24-6.5-31.5,4.5c-3.1,4.5-4.6,9.7-4.6,17.2C201.4,241,204.5,247.5,209.7,251.9L209.7,251.9z
	 M132.1,249.9c0.2,2.8,0.1,5.1,0.5,7.4c0.5,3.8,1.3,7.5,2.4,11.1c3.4,9.4,10.3,13.3,21,11.4c6.1-1,10.1-4.9,12.9-10.5L132.1,249.9z
	 M172.6,271.3l-7.6,9.2c5-0.6,9.7-2.7,13.5-6L172.6,271.3z"/>
<path class="st2" d="M161,193.3c0.4-0.4,1.2-0.9,1.2-1.3c-0.2-0.7-0.6-1.3-1.3-1.6c-3.3-1-6.6-1.8-9.8-2.7l-23.2-6
	c-0.2-0.1-0.4-0.2-0.7-0.2c-0.9-0.2-2-0.1-2,1c0.1,0.8,0.6,1.5,1.3,1.8c3.3,1,6.7,1.8,10,2.7l22.9,6
	C159.7,192.9,160.1,193.1,161,193.3z"/>
<path class="st2" d="M90.6,174.9c0.3-0.3,1.1-0.9,1-1.2c-0.1-0.7-0.6-1.3-1.2-1.7c-3.3-1-6.7-1.8-10-2.7c-2.6-0.7-5.1-1.4-7.7-2
	c-1-0.3-2.1-0.4-2.4,0.8s0.6,1.8,1.7,2.1l17,4.4C89.4,174.7,89.8,174.7,90.6,174.9z"/>
<path class="st2" d="M104.7,175.6c-0.3,0.3-1.1,0.7-1.1,1.2c0,0.7,0.4,1.3,1,1.7c1.3,0.5,2.6,0.8,4,1.1c3.5,0.9,6.9,1.8,10.4,2.7
	c1.1,0.3,2.2,0.3,2.5-1s-0.8-1.6-1.8-1.9c-4.5-1.2-9-2.4-13.6-3.5C105.7,175.9,105.4,175.8,104.7,175.6z"/>
<path class="st2" d="M171.6,196.1c0.4-0.4,1.1-0.8,1.1-1.3s-0.4-1.5-0.8-1.6c-2-0.7-4.1-1.2-6.1-1.6c-0.4-0.1-1.3,0.6-1.5,1.1
	c-0.1,0.6,0.2,1.2,0.6,1.5C167,194.9,169.2,195.4,171.6,196.1z"/>
<path class="st2" d="M100.9,177.7c0.4-0.4,1.1-0.8,1.2-1.3c0-0.6-0.3-1.2-0.8-1.6c-1.9-0.6-3.9-1.1-5.8-1.5c-0.6,0-1.1,0.4-1.4,0.9
	c-0.1,0.5,0.3,1.6,0.6,1.7C96.5,176.5,98.6,177,100.9,177.7z"/>
<path class="st2" d="M282.3,191.5c-0.4,0.3-0.8,0.6-1.1,1c-3.2,5.6-6.5,11.3-9.6,17c-0.2,0.7-0.1,1.4,0.4,2c0.7,0.7,1.6,0.3,2.1-0.6
	c3.2-5.7,6.4-11.3,9.6-17c0.5-0.7,0.3-1.7-0.5-2.1C282.9,191.6,282.6,191.5,282.3,191.5z"/>
<path class="st2" d="M60.5,309.8c0,7.1,0,14.2,0,21.3c0,0.5-0.1,1,0.1,1.4s0.9,1,1.3,1c0.6-0.1,1.1-0.5,1.3-1s0.2-1,0.1-1.5v-42.7
	c0-1.1,0-2.3-1.5-2.2s-1.4,1.1-1.4,2.2C60.5,295.4,60.5,302.6,60.5,309.8z"/>
<path class="st2" d="M72.5,337c-2.4,0.5-4.5,0.9-6.6,1.5c-0.6,0.3-1,1-1,1.6c0.3,0.6,0.9,1,1.6,1.1c2.1-0.3,4.2-0.8,6.2-1.4
	c0.4-0.1,0.9-1.1,0.9-1.7S72.8,337.2,72.5,337z"/>
<path class="st2" d="M66.3,279.4c-1-0.1-2-0.1-2.9,0.1c-0.6,0.3-1.1,0.8-1.3,1.5c-0.1,0.4,0.8,1.2,1.3,1.3c2,0.2,3.9,0.2,5.9,0
	c0.6-0.2,1.1-0.8,1.2-1.4c0-0.5-0.8-1.2-1.4-1.3C68.1,279.3,67.2,279.3,66.3,279.4z"/>
<path class="st2" d="M98.4,333.6c1.6-0.2,3.1-0.5,4.7-0.9c0.6-0.2,1-1,1.4-1.6c-0.6-0.4-1.2-1.2-1.8-1.2c-1.5,0-3,0.3-4.4,0.7
	c-0.7,0.3-1.2,1-1.3,1.8C97,332.8,98,333.3,98.4,333.6z"/>
<path class="st2" d="M239.4,246c-5.8,7.8-16.7,9.5-24.6,4c-10.9-8-11.6-25.2-1.5-34.1c6.6-6,16.6-6.1,23.3-0.2
	c4.8,4.1,7.5,10.1,7.5,16.4C244,237,242.4,241.9,239.4,246z M213.3,245.5c7.6,8.1,18.6,7.3,25.1-1.8c5.4-7.6,4.4-19.1-2.3-25.6
	c-7.5-7.2-18.9-5.7-24.5,3.3c-2,3.2-3.1,7-3.1,10.8C208.2,237.1,210,241.9,213.3,245.5z"/>
<path class="st2" d="M142.3,269.9c0-3.4,2.6-6.1,6-6.2c3.4,0,6.1,2.6,6.2,6s-2.6,6.1-6,6.2h-0.1c-3.3,0.1-6-2.5-6-5.8
	C142.3,270.1,142.3,270,142.3,269.9z M151.5,269.9c0-1.7-1.3-3.2-3-3.2s-3.2,1.3-3.2,3s1.3,3.2,3,3.2c0,0,0,0,0.1,0
	C150,273,151.4,271.7,151.5,269.9L151.5,269.9z"/>
<path class="st2" d="M213.1,232.3c0-4.4,3.5-8,7.9-8.1c4.4,0,8,3.5,8.1,7.9c0,4.4-3.5,8-7.9,8.1c-4.3,0.1-8-3.3-8.1-7.6
	C213.1,232.5,213.1,232.4,213.1,232.3z M216.1,232.3c0,2.8,2.2,5.1,5,5.1s5.1-2.2,5.1-5s-2.2-5.1-5-5.1S216.1,229.5,216.1,232.3z"/>
</svg>
