<svg xmlns="http://www.w3.org/2000/svg" xmlns:xlink="http://www.w3.org/1999/xlink" viewBox="0 0 470.56 401.48"><defs><style>.cls-1{fill:none;}.cls-2{clip-path:url(#clip-path);}.cls-3{fill:#242424;}.cls-4{clip-path:url(#clip-path-2);}</style><clipPath id="clip-path" transform="translate(0 0)"><rect class="cls-1" x="307.47" width="135.94" height="320.64"/></clipPath><clipPath id="clip-path-2" transform="translate(0 0)"><rect class="cls-1" x="23.4" y="97.83" width="130.37" height="316.14"/></clipPath></defs><title>intro-bg-mob</title><g id="Layer_2" data-name="Layer 2"><g id="Capa_1" data-name="Capa 1"><g class="cls-2"><polygon class="cls-3" points="460.07 301.54 430.53 301.54 376.55 259.61 362.55 232.57 362.54 232.49 357.74 201.29 354.37 168.09 354.37 133.6 348.13 111.04 348.13 63.77 377.1 25.63 377.19 25.58 420.47 2.98 420.57 2.97 449.85 0 449.95 0.97 420.76 3.93 377.74 26.39 349.1 64.1 349.1 110.91 355.34 133.47 355.34 168.07 358.7 201.17 363.48 232.26 377.32 258.98 430.86 300.57 460.07 300.57 460.07 301.54"/><polygon class="cls-3" points="468.14 295.78 422.9 295.78 415.73 266.71 430.11 259.77 449.9 259.77 449.9 260.74 430.33 260.74 416.86 267.24 423.66 294.81 468.14 294.81 468.14 295.78"/><polygon class="cls-3" points="415.96 267.33 382.97 236.22 377.41 259.41 376.46 259.18 382.42 234.37 416.63 266.62 415.96 267.33"/><polygon class="cls-3" points="383.26 235.87 362.95 232.9 363.09 231.93 382.13 234.72 376.48 192.81 354.66 172.19 368.52 146.42 376.68 141.28 377.19 142.1 369.26 147.11 355.87 172 377.39 192.34 377.42 192.51 383.26 235.87"/><polygon class="cls-3" points="352.17 200.47 346.54 198.32 346.48 198.09 333.18 153.46 337.45 132.93 345.91 130.35 355.54 139.28 369.07 146.31 400.59 155.63 400.32 156.56 368.71 147.22 354.98 140.08 345.66 131.44 338.29 133.69 334.18 153.42 347.34 197.59 352.18 199.43 357.19 197.68 348.19 180.44 349.05 179.99 358.58 198.23 352.17 200.47"/><polygon class="cls-3" points="421.19 144.39 415.98 137.76 407.2 133.54 391.05 133.54 377.19 142.11 376.68 141.28 390.77 132.57 407.42 132.57 416.61 136.99 421.96 143.79 421.19 144.39"/><polygon class="cls-3" points="449.88 205.71 431.21 205.71 418.59 195.25 426.04 177.86 432.6 147.45 427.15 141.97 421.29 133.49 386.08 125.82 368.66 133.73 366.75 126.64 348.05 111.13 348.16 110.82 366.71 56.72 367.63 57.03 349.18 110.81 367.61 126.08 369.3 132.38 385.97 124.8 421.87 132.62 427.93 141.38 433.66 147.14 433.61 147.4 426.97 178.15 426.95 178.2 419.76 194.96 431.56 204.74 449.88 204.74 449.88 205.71"/><polygon class="cls-3" points="429.79 260.49 421.15 244.54 415.91 233.46 408.07 227.51 424.6 199.7 425.44 200.2 409.35 227.26 416.69 232.82 422.02 244.1 430.64 260.02 429.79 260.49"/><polygon class="cls-3" points="445.68 249.37 420.57 243.38 415.53 232.66 445.21 232.66 445.21 229.25 437.05 224.99 445.11 205.37 430.09 193.1 419.22 195.59 419.15 195.59 376.91 193.06 376.96 192.09 419.13 194.62 430.34 192.05 446.28 205.08 438.29 224.54 446.18 228.66 446.18 233.63 417.06 233.63 421.25 242.55 445.71 248.38 470.38 243.88 470.56 244.84 445.68 249.37"/><polygon class="cls-3" points="430.62 192.85 429.82 192.3 438.23 180.07 438.23 144.93 433.38 147.72 432.89 146.88 439.2 143.26 439.2 180.37 439.12 180.49 430.62 192.85"/><polygon class="cls-3" points="449.88 144.58 438.43 144.58 426.54 123.58 421.97 133.36 416.6 137.75 415.99 137 421.18 132.75 426.46 121.46 439 143.61 449.88 143.61 449.88 144.58"/><polygon class="cls-3" points="367.44 126.77 366.92 125.95 384.88 114.68 385.06 114.72 426.5 122.03 449.79 117.62 449.97 118.57 426.51 123.02 426.42 123 385.08 115.7 367.44 126.77"/><polygon class="cls-3" points="390.5 133.31 385.55 125.48 384.5 115.29 367.23 57.72 348.27 64.64 326.33 80.07 326.57 78.72 348.43 63.38 367.87 56.46 368.01 56.95 385.46 115.1 386.5 125.15 391.32 132.79 390.5 133.31"/><polygon class="cls-3" points="387.31 68.59 366.96 57.32 377.08 25.47 451.6 36.67 451.46 37.63 377.75 26.55 368.13 56.85 387.47 67.57 451.44 54.92 451.63 55.87 387.31 68.59"/><rect class="cls-3" x="337.14" y="120.45" width="20.12" height="0.97" transform="translate(178.65 447.68) rotate(-81.92)"/><rect class="cls-3" x="346.08" y="131.45" width="0.97" height="42.51" transform="translate(-32.14 155.17) rotate(-24.15)"/><polygon class="cls-3" points="343.86 186.68 343.12 186.06 348.11 180.06 345.22 150.84 346.19 150.74 349.12 180.37 343.86 186.68"/><polygon class="cls-3" points="421.61 230.6 408.45 227.83 376.32 192.63 400.14 155.68 421.09 149.02 421.09 144.65 399.23 147.47 376.68 142.13 368.77 133.55 354.87 134.02 354.84 133.05 369.19 132.56 377.19 141.26 399.28 146.48 422.06 143.54 422.06 149.73 400.77 156.5 377.55 192.52 408.96 226.94 421.55 229.6 437.52 224.31 437.82 225.23 421.61 230.6"/><polygon class="cls-3" points="454.58 181.93 448.31 175.91 438.79 180.73 426.42 178.48 426.59 177.53 438.64 179.71 448.48 174.73 455.25 181.23 454.58 181.93"/><polygon class="cls-3" points="430.5 157.8 421.09 149.59 421.09 143.77 427.37 141.24 427.73 142.15 422.06 144.42 422.06 149.15 431.14 157.07 430.5 157.8"/><rect class="cls-3" x="399.37" y="146.93" width="0.97" height="9.2" transform="translate(-16.35 53.47) rotate(-7.5)"/><polygon class="cls-3" points="407.8 133.05 406.82 133.05 406.82 119.23 386.87 68.07 403.93 29 420.21 3.19 421.03 3.71 404.77 29.48 387.92 68.09 407.8 119.04 407.8 133.05"/><rect class="cls-3" x="382.11" y="230.85" width="27.19" height="0.97" transform="translate(-50.2 125.17) rotate(-16.92)"/></g><g class="cls-4"><polygon class="cls-3" points="10.49 401.48 40.03 401.48 94 359.55 108.01 332.5 108.02 332.43 112.82 301.23 116.19 268.03 116.19 233.54 122.43 210.98 122.43 163.71 93.46 125.57 93.37 125.52 50.08 102.92 49.99 102.91 20.71 99.94 20.61 100.9 49.8 103.86 92.82 126.33 121.46 164.03 121.46 210.84 115.22 233.41 115.22 268.01 111.86 301.1 107.08 332.2 93.24 358.91 39.7 400.51 10.49 400.51 10.49 401.48"/><polygon class="cls-3" points="2.42 395.72 47.66 395.72 54.83 366.65 40.45 359.71 20.66 359.71 20.66 360.68 40.23 360.68 53.7 367.18 46.9 394.75 2.42 394.75 2.42 395.72"/><polygon class="cls-3" points="54.6 367.26 87.59 336.16 93.15 359.35 94.09 359.12 88.14 334.3 53.93 366.56 54.6 367.26"/><polygon class="cls-3" points="87.3 335.81 107.61 332.83 107.47 331.87 88.43 334.66 94.08 292.75 115.9 272.13 102.04 246.36 93.88 241.22 93.36 242.04 101.3 247.04 114.69 271.94 93.16 292.28 93.14 292.45 87.3 335.81"/><polygon class="cls-3" points="118.39 300.4 124.02 298.26 124.08 298.03 137.38 253.4 133.11 232.86 124.65 230.29 115.02 239.22 101.49 246.25 69.97 255.57 70.24 256.5 101.85 247.15 115.58 240.02 124.9 231.38 132.27 233.63 136.38 253.36 123.22 297.52 118.38 299.37 113.36 297.62 122.37 280.38 121.51 279.93 111.98 298.16 118.39 300.4"/><polygon class="cls-3" points="49.36 244.33 54.58 237.7 63.36 233.48 79.51 233.48 93.37 242.04 93.88 241.22 79.79 232.51 63.14 232.51 53.95 236.92 48.6 243.73 49.36 244.33"/><polygon class="cls-3" points="20.68 305.65 39.34 305.65 51.97 295.18 44.52 277.79 37.96 247.39 43.41 241.91 49.27 233.43 84.48 225.76 101.9 233.67 103.81 226.57 122.51 211.07 122.4 210.75 103.84 156.65 102.93 156.97 121.38 210.75 102.95 226.02 101.26 232.31 84.59 224.74 48.69 232.56 42.63 241.32 36.9 247.08 36.95 247.34 43.59 278.09 43.61 278.13 50.79 294.9 38.99 304.68 20.68 304.68 20.68 305.65"/><polygon class="cls-3" points="40.77 360.42 49.41 344.48 54.65 333.39 62.49 327.44 45.95 299.64 45.12 300.13 61.21 327.19 53.87 332.76 48.54 344.04 39.91 359.96 40.77 360.42"/><polygon class="cls-3" points="24.88 349.3 49.99 343.32 55.03 332.59 25.35 332.59 25.35 329.19 33.51 324.93 25.45 305.31 40.47 293.04 51.34 295.53 51.41 295.53 93.65 293 93.59 292.03 51.42 294.55 40.22 291.99 24.28 305.01 32.27 324.48 24.38 328.6 24.38 333.56 53.5 333.56 49.31 342.49 24.85 348.31 0.17 343.82 0 344.78 24.88 349.3"/><polygon class="cls-3" points="39.94 292.79 40.74 292.24 32.33 280 32.33 244.87 37.18 247.66 37.67 246.81 31.36 243.19 31.36 280.31 31.44 280.43 39.94 292.79"/><polygon class="cls-3" points="20.68 244.52 32.13 244.52 44.01 223.52 48.59 233.3 53.95 237.69 54.57 236.94 49.38 232.69 44.1 221.4 31.56 243.55 20.68 243.55 20.68 244.52"/><polygon class="cls-3" points="103.12 226.71 103.64 225.89 85.68 214.62 85.5 214.65 44.06 221.97 20.77 217.56 20.59 218.51 44.05 222.95 44.14 222.94 85.48 215.64 103.12 226.71"/><polygon class="cls-3" points="80.06 233.25 85.01 225.41 86.06 215.23 103.33 157.66 122.08 164.44 144.23 158.01 143.99 156.65 121.8 163.3 102.69 156.39 102.55 156.88 85.1 215.03 84.06 225.09 79.24 232.73 80.06 233.25"/><polygon class="cls-3" points="83.25 168.53 103.59 157.26 93.48 125.41 18.95 136.61 19.1 137.57 92.81 126.49 102.43 156.79 83.09 167.5 19.12 154.86 18.93 155.81 83.25 168.53"/><rect class="cls-3" x="122.87" y="210.81" width="0.97" height="20.12" transform="matrix(0.99, -0.14, 0.14, 0.99, -29.83, 19.54)"/><rect class="cls-3" x="102.74" y="252.15" width="42.51" height="0.97" transform="translate(-157.26 262.41) rotate(-65.85)"/><polygon class="cls-3" points="126.69 286.62 127.44 286 122.45 280 125.34 250.77 124.37 250.68 121.44 280.31 126.69 286.62"/><polygon class="cls-3" points="48.95 330.54 62.1 327.76 94.23 292.56 70.42 255.62 49.47 248.96 49.47 244.58 71.33 247.4 93.88 242.07 101.79 233.48 115.69 233.96 115.72 232.99 101.37 232.5 93.37 241.19 71.28 246.42 48.5 243.48 48.5 249.67 69.79 256.44 93.01 292.46 61.6 326.88 49.01 329.54 33.04 324.24 32.74 325.16 48.95 330.54"/><polygon class="cls-3" points="15.98 281.87 22.25 275.85 31.77 280.66 44.14 278.42 43.97 277.46 31.92 279.65 22.08 274.67 15.3 281.17 15.98 281.87"/><polygon class="cls-3" points="40.06 257.74 49.47 249.53 49.47 243.7 43.19 241.18 42.83 242.08 48.5 244.36 48.5 249.09 39.42 257.01 40.06 257.74"/><rect class="cls-3" x="66.1" y="250.99" width="9.2" height="0.97" transform="translate(-187.84 288.76) rotate(-82.5)"/><polygon class="cls-3" points="62.76 232.99 63.73 232.99 63.73 219.16 83.69 168 66.63 128.93 50.35 103.13 49.53 103.65 65.79 129.42 82.64 168.03 62.76 218.98 62.76 232.99"/><rect class="cls-3" x="74.37" y="317.68" width="0.97" height="27.19" transform="translate(-263.86 306.49) rotate(-73.08)"/></g></g></g></svg>