<?xml version="1.0" encoding="utf-8"?>
<!-- Generator: Adobe Illustrator 22.1.0, SVG Export Plug-In . SVG Version: 6.00 Build 0)  -->
<svg version="1.1" id="Layer_1" xmlns="http://www.w3.org/2000/svg" xmlns:xlink="http://www.w3.org/1999/xlink" x="0px" y="0px"
	 viewBox="0 0 117.1 301.5" style="enable-background:new 0 0 117.1 301.5;" xml:space="preserve">
<style type="text/css">
	.st0{clip-path:url(#SVGID_2_);}
	.st1{fill:#242424;}
</style>
<title>intro-bg-right-mob</title>
<g id="Layer_2_1_">
	<g id="Layer_1-2">
		<g>
			<defs>
				<rect id="SVGID_1_" x="-18.9" y="0" width="135.9" height="320.6"/>
			</defs>
			<clipPath id="SVGID_2_">
				<use xlink:href="#SVGID_1_"  style="overflow:visible;"/>
			</clipPath>
			<g class="st0">
				<polygon class="st1" points="133.7,301.5 104.2,301.5 50.2,259.6 36.2,232.6 36.2,232.5 31.4,201.3 28,168.1 28,133.6 21.8,111 
					21.8,63.8 50.8,25.6 50.9,25.6 94.1,3 94.2,3 123.5,0 123.6,1 94.4,3.9 51.4,26.4 22.8,64.1 22.8,110.9 29,133.5 29,168.1 
					32.4,201.2 37.2,232.3 51,259 104.5,300.6 133.7,300.6 				"/>
				<polygon class="st1" points="141.8,295.8 96.6,295.8 89.4,266.7 103.8,259.8 123.6,259.8 123.6,260.7 104,260.7 90.5,267.2 
					97.3,294.8 141.8,294.8 				"/>
				<polygon class="st1" points="89.6,267.3 56.6,236.2 51.1,259.4 50.1,259.2 56.1,234.4 90.3,266.6 				"/>
				<polygon class="st1" points="56.9,235.9 36.6,232.9 36.8,231.9 55.8,234.7 50.2,192.8 28.3,172.2 42.2,146.4 50.3,141.3 
					50.9,142.1 42.9,147.1 29.5,172 51.1,192.3 51.1,192.5 				"/>
				<polygon class="st1" points="25.8,200.5 20.2,198.3 20.1,198.1 6.8,153.5 11.1,132.9 19.6,130.4 29.2,139.3 42.7,146.3 
					74.3,155.6 74,156.6 42.4,147.2 28.6,140.1 19.3,131.4 12,133.7 7.8,153.4 21,197.6 25.9,199.4 30.9,197.7 21.9,180.4 22.7,180 
					32.3,198.2 				"/>
				<polygon class="st1" points="94.9,144.4 89.7,137.8 80.9,133.5 64.7,133.5 50.9,142.1 50.3,141.3 64.4,132.6 81.1,132.6 
					90.3,137 95.6,143.8 				"/>
				<polygon class="st1" points="123.6,205.7 104.9,205.7 92.3,195.3 99.7,177.9 106.3,147.4 100.8,142 95,133.5 59.8,125.8 
					42.3,133.7 40.4,126.6 21.7,111.1 21.8,110.8 40.4,56.7 41.3,57 22.9,110.8 41.3,126.1 43,132.4 59.6,124.8 95.5,132.6 
					101.6,141.4 107.3,147.1 107.3,147.4 100.6,178.1 100.6,178.2 93.4,195 105.2,204.7 123.6,204.7 				"/>
				<polygon class="st1" points="103.5,260.5 94.8,244.5 89.6,233.5 81.7,227.5 98.3,199.7 99.1,200.2 83,227.3 90.4,232.8 
					95.7,244.1 104.3,260 				"/>
				<polygon class="st1" points="119.3,249.4 94.2,243.4 89.2,232.7 118.9,232.7 118.9,229.3 110.7,225 118.8,205.4 103.8,193.1 
					92.9,195.6 92.8,195.6 50.6,193.1 50.6,192.1 92.8,194.6 104,192.1 119.9,205.1 112,224.5 119.8,228.7 119.8,233.6 90.7,233.6 
					94.9,242.6 119.4,248.4 144.1,243.9 144.2,244.8 				"/>
				<polygon class="st1" points="104.3,192.9 103.5,192.3 111.9,180.1 111.9,144.9 107.1,147.7 106.6,146.9 112.9,143.3 
					112.9,180.4 112.8,180.5 				"/>
				<polygon class="st1" points="123.6,144.6 112.1,144.6 100.2,123.6 95.6,133.4 90.3,137.8 89.7,137 94.8,132.8 100.1,121.5 
					112.7,143.6 123.6,143.6 				"/>
				<polygon class="st1" points="41.1,126.8 40.6,125.9 58.5,114.7 58.7,114.7 100.2,122 123.5,117.6 123.6,118.6 100.2,123 
					100.1,123 58.8,115.7 				"/>
				<polygon class="st1" points="64.2,133.3 59.2,125.5 58.2,115.3 40.9,57.7 21.9,64.6 0,80.1 0.2,78.7 22.1,63.4 41.5,56.5 
					41.7,56.9 59.1,115.1 60.2,125.1 65,132.8 				"/>
				<polygon class="st1" points="61,68.6 40.6,57.3 50.8,25.5 125.3,36.7 125.1,37.6 51.4,26.5 41.8,56.8 61.1,67.6 125.1,54.9 
					125.3,55.9 				"/>
				
					<rect x="10.8" y="120.4" transform="matrix(0.1406 -0.9901 0.9901 0.1406 -101.7948 124.5752)" class="st1" width="20.1" height="1"/>
				
					<rect x="19.8" y="131.5" transform="matrix(0.9125 -0.4091 0.4091 0.9125 -60.712 21.6463)" class="st1" width="1" height="42.5"/>
				<polygon class="st1" points="17.5,186.7 16.8,186.1 21.8,180.1 18.9,150.8 19.9,150.7 22.8,180.4 				"/>
				<polygon class="st1" points="95.3,230.6 82.1,227.8 50,192.6 73.8,155.7 94.8,149 94.8,144.6 72.9,147.5 50.3,142.1 42.4,133.6 
					28.5,134 28.5,133.1 42.9,132.6 50.9,141.3 72.9,146.5 95.7,143.5 95.7,149.7 74.4,156.5 51.2,192.5 82.6,226.9 95.2,229.6 
					111.2,224.3 111.5,225.2 				"/>
				<polygon class="st1" points="128.3,181.9 122,175.9 112.5,180.7 100.1,178.5 100.3,177.5 112.3,179.7 122.2,174.7 128.9,181.2 
									"/>
				<polygon class="st1" points="104.2,157.8 94.8,149.6 94.8,143.8 101,141.2 101.4,142.1 95.7,144.4 95.7,149.1 104.8,157.1 				
					"/>
				
					<rect x="72.8" y="146.8" transform="matrix(0.9915 -0.1302 0.1302 0.9915 -19.0802 10.8338)" class="st1" width="1" height="9.2"/>
				<polygon class="st1" points="81.5,133.1 80.5,133.1 80.5,119.2 60.5,68.1 77.6,29 93.9,3.2 94.7,3.7 78.4,29.5 61.6,68.1 
					81.5,119 				"/>
				
					<rect x="55.8" y="230.8" transform="matrix(0.9567 -0.291 0.291 0.9567 -64.3197 30.2054)" class="st1" width="27.2" height="1"/>
			</g>
		</g>
	</g>
</g>
</svg>
