<svg xmlns="http://www.w3.org/2000/svg" viewBox="0 0 131.37 63.98"><defs><style>.cls-1{fill:#009aff;}.cls-2{fill:#007c9b;}.cls-3{fill:#0cf;}</style></defs><title>logo-footer</title><g id="Layer_2" data-name="Layer 2"><g id="Capa_1" data-name="Capa 1"><g id="Layer0_0_FILL" data-name="Layer0 0 FILL"><path class="cls-1" d="M44.46,24.61c0-.47-.05-.94-.08-1.41l-8.31,5.39q-.21,5.61-.71,12.35l8.69,6.29a187.35,187.35,0,0,0,.41-22.62m-.37-5.34c0,.08,0,.15,0,.22s0-.15,0-.22h0M78.12,3a8.31,8.31,0,0,1,1.24,1,9,9,0,0,1,1.57,1.86c1.41,2.09,2.1,5,2.07,8.76q0,9-8.56,14.93T54.05,36.35a19.27,19.27,0,0,0-2.52,11.17q17.53-3.32,27.29-12.37,9.3-8.64,9.43-20.47a13.85,13.85,0,0,0-2.71-8.59A15.28,15.28,0,0,0,84.2,4.56c-.31-.25-.59-.5-.87-.75l-.5-.33A10.58,10.58,0,0,0,78.12,3M41.69,5.47a4,4,0,0,0-1-1.29,5.25,5.25,0,0,0-.49-.33,5.49,5.49,0,0,0-2.41-.7,6.29,6.29,0,0,0-1.61,0c-.3.06-.85.18-1.65.37-.3.08-.59.18-.89.28Q35.58,7,36,16.23l1.1-.71,5.32-3.36.73-.45q-.45-2.57-1-4.92a7.44,7.44,0,0,0-.5-1.32m88,.78a12.68,12.68,0,0,0-2.39-1.61,19.49,19.49,0,0,0-6-1.78q2.92,3.27,3.06,12.69,5.21-1.73,7-5.91a11.11,11.11,0,0,0-1.65-3.39m.83,26.26c-2.57-2.29-4.85-3.22-6.87-2.77a14.81,14.81,0,0,1-4.38,10.17,16.33,16.33,0,0,1-10.18,5.38,18.07,18.07,0,0,0,6.33.65h0a20.34,20.34,0,0,0,9-3.51Q130.17,38.5,130.55,32.51Z"/><path class="cls-2" d="M44.38,23.2l0-.43-.24-3.28c0-.07,0-.14,0-.22l-.07.05q-4,2.91-7.91,5.95c0,.54,0,1.08,0,1.63l0,1.69,8.31-5.39M16.23,30.08h0a.61.61,0,0,0,.07-.1l-1.85,1.41-5.22,4a33.8,33.8,0,0,0-1.77,7.4Q7,45.5,8.69,45.78a1.32,1.32,0,0,0,.34,0c-1.13-.77-.67-3,1.4-6.82a79.72,79.72,0,0,1,5.8-8.92M78.12,3a10.58,10.58,0,0,1,4.71.45A11.5,11.5,0,0,0,75.89,2,10.72,10.72,0,0,1,78.12,3m51.6,3.22-1.14-1.39A13,13,0,0,0,126.46,3,16.72,16.72,0,0,0,122.12.94a6.73,6.73,0,0,0-2-.28c-1.61,0-2.72.09-3.33.17h-.09a6.65,6.65,0,0,1,4.59,2,19.49,19.49,0,0,1,6,1.78A12.68,12.68,0,0,1,129.72,6.25Z"/><path class="cls-3" d="M75.68,2h.21a11.5,11.5,0,0,1,6.94,1.53l.5.33A16.21,16.21,0,0,0,79,1.41,23.17,23.17,0,0,0,70.06,0,27.32,27.32,0,0,0,61,1.78Q52.48,6,43.14,11.75l-.69.41-5.32,3.36-1.1.71-.05,0L33.34,18l-2.19,1.45Q23.5,24.62,16.3,30a.61.61,0,0,1-.07.1h0A79.72,79.72,0,0,0,10.43,39c-2.07,3.77-2.53,6-1.4,6.82h.08a2.6,2.6,0,0,0,.46,0,6.85,6.85,0,0,0,2.81-1.45Q23,35.48,32.55,28c1.19-.91,2.37-1.83,3.56-2.77q3.95-3,7.91-5.95l.07-.05h0q5-3.72,9.93-7.27,10.5-7.53,18.06-9.43A20,20,0,0,1,75.68,2m-35,2.23a4,4,0,0,1,1,1.29,5.91,5.91,0,0,0-2.52-3.19A11.4,11.4,0,0,0,34.91.58,16.4,16.4,0,0,0,30.24.29a9.08,9.08,0,0,0-3.77,1,54.69,54.69,0,0,0-16,14.35c-.93,1.21-1.8,2.47-2.6,3.76A59,59,0,0,0,.06,39.33a3.24,3.24,0,0,0,.62,2.52A8.35,8.35,0,0,0,3,44.09a10.88,10.88,0,0,0,3.1,1.44,7.8,7.8,0,0,0,3,.29,1.32,1.32,0,0,1-.34,0Q7,45.5,7.46,42.84a33.8,33.8,0,0,1,1.77-7.4L10.1,33a79.31,79.31,0,0,1,6-12.23c.27-.47.55-.93.83-1.37a54.09,54.09,0,0,1,7.64-9.67,23.13,23.13,0,0,1,9-5.92h0c.3-.1.59-.2.89-.28.8-.19,1.35-.31,1.65-.37a6.29,6.29,0,0,1,1.61,0,5.49,5.49,0,0,1,2.41.7,5.25,5.25,0,0,1,.49.33M120.12.66a6.73,6.73,0,0,1,2,.28,21.61,21.61,0,0,0-6.29-.85,28.54,28.54,0,0,0-15.46,4.26,20.88,20.88,0,0,0-4,3.1,19.9,19.9,0,0,0-3,3.56,20,20,0,0,0-2.64,5.41c-.23.61-.42,1.22-.59,1.82-.08.42-.18.81-.29,1.2-.13.58-.26,1.14-.37,1.7s-.19,1.16-.24,1.73A22.32,22.32,0,0,0,89,26.18,20.75,20.75,0,0,0,91.93,37a17.76,17.76,0,0,0,4.84,5.42A16.22,16.22,0,0,0,99,43.8a21.24,21.24,0,0,0,10.46,2.56,42.39,42.39,0,0,0,5.91-.41h.08a18.07,18.07,0,0,1-6.33-.65h0a15,15,0,0,1-9.26-8.18A23.51,23.51,0,0,1,97.59,29a28.43,28.43,0,0,1,.21-7.61c.11-.66.25-1.31.41-1.94a27.16,27.16,0,0,1,3.1-7.57,25,25,0,0,1,5.88-6.78,19.29,19.29,0,0,1,7.15-3.76A17,17,0,0,1,116.7.84h.09c.61-.08,1.72-.14,3.33-.17m-93.61,56a1.33,1.33,0,0,0-.45-.08,1.56,1.56,0,0,0-.59.12,4,4,0,0,0-.58.34,2.84,2.84,0,0,0-.45.62V56.7h-.87V62h.87V59.34a2.15,2.15,0,0,1,.45-1.53,1.46,1.46,0,0,1,1-.41,1.69,1.69,0,0,1,.66.12v-.91m10.25.62a2.46,2.46,0,0,0-1.73-.7,2.53,2.53,0,0,0-1.78.7,2.8,2.8,0,0,0-.7,2.07,2.86,2.86,0,0,0,.7,2.11,2.48,2.48,0,0,0,1.78.7,2.42,2.42,0,0,0,1.73-.7,2.76,2.76,0,0,0,.75-2.11,2.71,2.71,0,0,0-.75-2.07M35,57.28a1.3,1.3,0,0,1,1.11.57,2.14,2.14,0,0,1,.46,1.45,2.2,2.2,0,0,1-.46,1.49,1.29,1.29,0,0,1-1.11.58,1.34,1.34,0,0,1-1.16-.58,2.36,2.36,0,0,1-.41-1.49,2.29,2.29,0,0,1,.41-1.45A1.35,1.35,0,0,1,35,57.28m-17.54,2a2.86,2.86,0,0,0,.71,2.11,2.48,2.48,0,0,0,1.78.7,2.43,2.43,0,0,0,1.73-.7,2.76,2.76,0,0,0,.75-2.11,2.71,2.71,0,0,0-.75-2.07,2.48,2.48,0,0,0-1.73-.7,2.53,2.53,0,0,0-1.78.7,2.81,2.81,0,0,0-.71,2.07m1.33,1.49a2.36,2.36,0,0,1-.42-1.49,2.29,2.29,0,0,1,.42-1.45A1.34,1.34,0,0,1,20,57.28a1.29,1.29,0,0,1,1.11.57,2.14,2.14,0,0,1,.46,1.45,2.2,2.2,0,0,1-.46,1.49,1.28,1.28,0,0,1-1.11.58,1.33,1.33,0,0,1-1.16-.58m-2.53-2.94a2.19,2.19,0,0,0-.78-1,1.9,1.9,0,0,0-1.07-.33,1.93,1.93,0,0,0-.67.12,1.45,1.45,0,0,0-.53.29,2.68,2.68,0,0,0-.54.67V56.7h-.87V64h.87V61a1.93,1.93,0,0,0,.54.66,1.11,1.11,0,0,0,.49.29,1.92,1.92,0,0,0,.66.12A1.87,1.87,0,0,0,16,61.29a3.32,3.32,0,0,0,.57-2,3.48,3.48,0,0,0-.29-1.45m-.61,1.49a2.44,2.44,0,0,1-.42,1.53,1.41,1.41,0,0,1-1.07.5,1.2,1.2,0,0,1-1.08-.58,2.55,2.55,0,0,1-.41-1.49,3,3,0,0,1,.2-1.08,1.54,1.54,0,0,1,.54-.74,1.25,1.25,0,0,1,.75-.25,1.4,1.4,0,0,1,1,.46,2.32,2.32,0,0,1,.46,1.65m15.71-5h-.87V62h.87V54.34m68.84,2.36h-.86V62h.86V56.7m5.17,0-1.73,4.13L102,56.7h-.91L103.17,62h.91l2.19-5.25h-.87m2.52,0h-.86V62h.86V56.7M83.86,59.3a2.71,2.71,0,0,0-.75-2.07,2.46,2.46,0,0,0-1.73-.7,2.54,2.54,0,0,0-1.78.7,2.8,2.8,0,0,0-.7,2.07,2.86,2.86,0,0,0,.7,2.11,2.5,2.5,0,0,0,1.78.7,2.42,2.42,0,0,0,1.73-.7,2.76,2.76,0,0,0,.75-2.11m-.91,0a2.25,2.25,0,0,1-.45,1.49,1.3,1.3,0,0,1-1.12.58,1.34,1.34,0,0,1-1.16-.58,2.36,2.36,0,0,1-.41-1.49,2.29,2.29,0,0,1,.41-1.45,1.35,1.35,0,0,1,1.16-.57,1.32,1.32,0,0,1,1.12.57A2.19,2.19,0,0,1,83,59.3m5.71-1.45a1.27,1.27,0,0,0-.42-.91,2,2,0,0,0-1.4-.41,2,2,0,0,0-1.49.5,1.41,1.41,0,0,0-.5,1.07,1.34,1.34,0,0,0,1,1.29l.62.16.29.12.45.13q.66.21.66.66a.85.85,0,0,1-.33.66,1.45,1.45,0,0,1-.91.25,1.51,1.51,0,0,1-.87-.21.8.8,0,0,1-.24-.57v-.05h-.87v.05a1.29,1.29,0,0,0,.24.78,1.89,1.89,0,0,0,.71.54,2.49,2.49,0,0,0,1.07.2,2.11,2.11,0,0,0,1.53-.53,1.64,1.64,0,0,0,.54-1.25,1.91,1.91,0,0,0-.08-.57,1.28,1.28,0,0,0-.33-.37,1.36,1.36,0,0,0-.34-.21,4.71,4.71,0,0,0-.78-.25l-.33-.12-.41-.09a1.71,1.71,0,0,1-.62-.29.57.57,0,0,1-.17-.41.74.74,0,0,1,.29-.54,1.3,1.3,0,0,1,.79-.2,1.48,1.48,0,0,1,.74.16.43.43,0,0,1,.25.41h.87M74.39,54.34h-.87V62h.87V59.39a2.49,2.49,0,0,1,.21-1.17,1.93,1.93,0,0,1,.53-.66,1.62,1.62,0,0,1,.75-.2,1.22,1.22,0,0,1,.62.16.74.74,0,0,1,.33.46A2.83,2.83,0,0,1,77,59v3h.87V58.6a2.85,2.85,0,0,0-.2-1.24,1.78,1.78,0,0,0-.62-.63,2.13,2.13,0,0,0-.91-.2,1.56,1.56,0,0,0-.62.12,1.49,1.49,0,0,0-.54.29,2.68,2.68,0,0,0-.54.67V54.34m32.67.29v.91h.86v-.91h-.86m-7.69.91h.86v-.91h-.86v.91m-3.31-.37a1.94,1.94,0,0,1,.74.12,1,1,0,0,1,.5.37.94.94,0,0,1,.17.5v0h.86v0a1.64,1.64,0,0,0-.29-.87,1.66,1.66,0,0,0-.83-.66,3,3,0,0,0-1.2-.21,2.88,2.88,0,0,0-2.27,1,4.19,4.19,0,0,0-.86,2.9,4.25,4.25,0,0,0,.86,2.89,2.92,2.92,0,0,0,2.27.95,3.24,3.24,0,0,0,1.2-.2,1.66,1.66,0,0,0,.83-.66,1.54,1.54,0,0,0,.29-.87v0h-.86v0a1,1,0,0,1-.34.7,1.47,1.47,0,0,1-1.07.33,1.79,1.79,0,0,1-1.66-.91,4,4,0,0,1-.58-2.23A4.24,4.24,0,0,1,94.4,56a1.83,1.83,0,0,1,1.66-.86M61.94,56.61a1.29,1.29,0,0,0-.45-.08,1.51,1.51,0,0,0-.58.12,4,4,0,0,0-.58.34,2.54,2.54,0,0,0-.45.62V56.7H59V62h.87V59.34a2.15,2.15,0,0,1,.45-1.53,1.44,1.44,0,0,1,1-.41,1.69,1.69,0,0,1,.66.12v-.91m4.84,1a1.81,1.81,0,0,0-.78-.79,2,2,0,0,0-1.08-.29,2.24,2.24,0,0,0-1.78.83,3,3,0,0,0-.66,2,3.05,3.05,0,0,0,.63,2,2.25,2.25,0,0,0,1.85.79,2.92,2.92,0,0,0,1.08-.2,1.77,1.77,0,0,0,.7-.54,1.19,1.19,0,0,0,.29-.75v0h-.87v0a.7.7,0,0,1-.29.54,1.27,1.27,0,0,1-.83.21,1.44,1.44,0,0,1-1.23-.54,2.17,2.17,0,0,1-.46-1.41h3.72v-.29a3.25,3.25,0,0,0-.29-1.52m-.54,1.07v.08H63.39a1.77,1.77,0,0,1,.54-1.07,1.25,1.25,0,0,1,.91-.41,1.37,1.37,0,0,1,.7.16,1.13,1.13,0,0,1,.5.49,1.51,1.51,0,0,1,.2.75m5.92-1.4a1.74,1.74,0,0,0-.71-.55,2.36,2.36,0,0,0-1-.2,2.19,2.19,0,0,0-1.78.75,3.07,3.07,0,0,0-.62,2,3.17,3.17,0,0,0,.62,2.07,2.19,2.19,0,0,0,1.78.74,2.36,2.36,0,0,0,1-.2,1.81,1.81,0,0,0,.71-.54,1.4,1.4,0,0,0,.25-.75v0h-.87v0a.72.72,0,0,1-.25.54,1.29,1.29,0,0,1-.83.21,1.48,1.48,0,0,1-1.12-.5,2.46,2.46,0,0,1-.41-1.57,2.28,2.28,0,0,1,.41-1.53,1.47,1.47,0,0,1,1.12-.49,1.3,1.3,0,0,1,.83.2.62.62,0,0,1,.25.5v.08h.87V58a1.17,1.17,0,0,0-.25-.7m-29.9.57a1.29,1.29,0,0,0-.41-.91,2,2,0,0,0-1.41-.41A2,2,0,0,0,39,57a1.4,1.4,0,0,0-.49,1.07,1.33,1.33,0,0,0,1,1.29l.62.16.29.12.46.13q.66.21.66.66a.85.85,0,0,1-.33.66,1.84,1.84,0,0,1-1.78,0,.81.81,0,0,1-.25-.57v-.05h-.87v.05a1.3,1.3,0,0,0,.25.78,1.81,1.81,0,0,0,.71.54,2.49,2.49,0,0,0,1.07.2,2.11,2.11,0,0,0,1.53-.53,1.64,1.64,0,0,0,.54-1.25,1.91,1.91,0,0,0-.08-.57,1.48,1.48,0,0,0-.34-.37,1.52,1.52,0,0,0-.33-.21,4.71,4.71,0,0,0-.78-.25l-.33-.12-.42-.09a1.89,1.89,0,0,1-.62-.29.56.56,0,0,1-.16-.41.7.7,0,0,1,.29-.54,1.29,1.29,0,0,1,.78-.2,1.54,1.54,0,0,1,.75.16.42.42,0,0,1,.24.41h.87m12.28,3a2.22,2.22,0,0,1-.45-1.41h3.72v-.29a3.25,3.25,0,0,0-.29-1.52,1.78,1.78,0,0,0-.79-.79,2,2,0,0,0-1.07-.29,2.26,2.26,0,0,0-1.78.83,3,3,0,0,0-.66,2,3.1,3.1,0,0,0,.62,2,2.28,2.28,0,0,0,1.86.79,2.92,2.92,0,0,0,1.08-.2,1.77,1.77,0,0,0,.7-.54,1.24,1.24,0,0,0,.29-.75v0H56.9v0a.7.7,0,0,1-.29.54,1.29,1.29,0,0,1-.83.21,1.47,1.47,0,0,1-1.24-.54m-.41-2.07a1.77,1.77,0,0,1,.54-1.07,1.24,1.24,0,0,1,.91-.41,1.39,1.39,0,0,1,.7.16,1.13,1.13,0,0,1,.5.49,1.62,1.62,0,0,1,.2.75v.08H54.13m-5.38-4.13h-2V62h2.15A3.78,3.78,0,0,0,51,61.49a2.87,2.87,0,0,0,1-1.32,4.38,4.38,0,0,0,.37-1.9,4.65,4.65,0,0,0-.37-2A3.13,3.13,0,0,0,50.91,55a4.46,4.46,0,0,0-2.16-.41m-1.07.74h1.07a3.16,3.16,0,0,1,1.62.33,1.93,1.93,0,0,1,.74,1,4.81,4.81,0,0,1,.25,1.65,3.73,3.73,0,0,1-.29,1.57,1.66,1.66,0,0,1-.79.91,2.68,2.68,0,0,1-1.48.33H47.68V55.37m68,2.24a1.88,1.88,0,0,0-.79-.79,2,2,0,0,0-1.08-.29,2.24,2.24,0,0,0-1.77.83,3,3,0,0,0-.66,2,3,3,0,0,0,.62,2,2.28,2.28,0,0,0,1.86.79,2.91,2.91,0,0,0,1.07-.2,1.77,1.77,0,0,0,.7-.54,1.19,1.19,0,0,0,.29-.75v0H115v0a.7.7,0,0,1-.29.54,1.29,1.29,0,0,1-.83.21,1.47,1.47,0,0,1-1.24-.54,2.23,2.23,0,0,1-.46-1.41H116v-.29a3.25,3.25,0,0,0-.29-1.52m-.75.32a1.52,1.52,0,0,1,.21.75v.08h-2.85a1.82,1.82,0,0,1,.53-1.07,1.25,1.25,0,0,1,.91-.41,1.43,1.43,0,0,1,.71.16,1.11,1.11,0,0,1,.49.49m5.87-.08a1.25,1.25,0,0,0-.41-.91,2,2,0,0,0-1.41-.41,2,2,0,0,0-1.49.5A1.43,1.43,0,0,0,117,58.1a1.34,1.34,0,0,0,1,1.29l.63.16.28.12.46.13q.66.21.66.66a.85.85,0,0,1-.33.66,1.84,1.84,0,0,1-1.78,0,.81.81,0,0,1-.25-.57v-.05h-.87v.05a1.3,1.3,0,0,0,.25.78,1.81,1.81,0,0,0,.71.54,2.49,2.49,0,0,0,1.07.2,2.11,2.11,0,0,0,1.53-.53,1.64,1.64,0,0,0,.54-1.25,1.91,1.91,0,0,0-.08-.57,1.48,1.48,0,0,0-.34-.37,1.52,1.52,0,0,0-.33-.21,4.71,4.71,0,0,0-.78-.25l-.33-.12-.41-.09a1.86,1.86,0,0,1-.63-.29.56.56,0,0,1-.16-.41.7.7,0,0,1,.29-.54,1.29,1.29,0,0,1,.78-.2,1.54,1.54,0,0,1,.75.16.43.43,0,0,1,.25.41h.86M110.2,54.34h-.87V62h.87Z"/></g></g></g></svg>