<svg xmlns="http://www.w3.org/2000/svg" viewBox="0 0 154.74 75.35"><defs><style>.cls-1{fill:#3f485d;}</style></defs><title>logo_1</title><g id="Layer_2" data-name="Layer 2"><g id="Layer_1-2" data-name="Layer 1"><path class="cls-1" d="M52.37,29c0-.55-.07-1.11-.1-1.66l-9.79,6.34q-.24,6.61-.83,14.55l10.23,7.4A219.58,219.58,0,0,0,52.37,29m-.44-6.29c0,.09,0,.17,0,.25a2.11,2.11,0,0,0,0-.25h0M92,3.57a10.19,10.19,0,0,1,1.46,1.11,10.54,10.54,0,0,1,1.85,2.2q2.49,3.7,2.44,10.32,0,10.56-10.08,17.58t-24,8A22.56,22.56,0,0,0,60.7,56q20.64-3.9,32.14-14.56,10.95-10.18,11.1-24.11a16.38,16.38,0,0,0-3.18-10.13,19.65,19.65,0,0,0-1.59-1.8c-.36-.3-.7-.59-1-.88s-.39-.26-.59-.39A12.38,12.38,0,0,0,92,3.57M49.1,6.44a4.59,4.59,0,0,0-1.22-1.51c-.18-.14-.37-.27-.56-.39a6.35,6.35,0,0,0-2.84-.83,7.21,7.21,0,0,0-1.9,0c-.36.06-1,.21-1.95.44-.34.09-.69.2-1,.33q2.31,3.72,2.84,14.59l1.31-.84,6.26-4,.86-.54q-.54-3-1.17-5.79a8.07,8.07,0,0,0-.59-1.56m103.69.92A15.16,15.16,0,0,0,150,5.46a23.31,23.31,0,0,0-7.11-2.09q3.45,3.84,3.6,15,6.14-2,8.28-7a13.57,13.57,0,0,0-2-4m1,30.93q-4.53-4-8.08-3.27,0,6.48-5.16,12a19.28,19.28,0,0,1-12,6.34,21.19,21.19,0,0,0,7.45.76h0A24,24,0,0,0,146.56,50q6.76-4.63,7.2-11.69"/><path class="cls-1" d="M89.14,2.29h.24A13.56,13.56,0,0,1,97.56,4.1c.2.13.4.25.59.39A19.15,19.15,0,0,0,93,1.66,27.17,27.17,0,0,0,82.52,0,32.13,32.13,0,0,0,71.85,2.1q-10,5-21,11.74l-.81.49-6.26,4-1.31.83,0,0-3.11,2c-.88.59-1.74,1.16-2.58,1.7Q27.68,29,19.2,35.31a.44.44,0,0,1-.08.11h0a94.26,94.26,0,0,0-6.83,10.5q-3.66,6.68-1.65,8h.09a3.74,3.74,0,0,0,.54,0,8.07,8.07,0,0,0,3.31-1.7Q27.09,41.8,38.34,33c1.4-1.07,2.79-2.16,4.19-3.26q4.63-3.59,9.32-7l.08-.05h0q5.85-4.38,11.69-8.57Q76,5.27,84.9,3a23.94,23.94,0,0,1,4.24-.74"/><path class="cls-1" d="M47.89,4.93A4.56,4.56,0,0,1,49.1,6.44a6.89,6.89,0,0,0-3-3.75,13.32,13.32,0,0,0-5-2A18.67,18.67,0,0,0,35.61.35a10.55,10.55,0,0,0-4.43,1.22,64.27,64.27,0,0,0-18.8,16.9A51.3,51.3,0,0,0,9.32,22.9,69.21,69.21,0,0,0,.07,46.32a3.88,3.88,0,0,0,.73,3,9.7,9.7,0,0,0,2.67,2.63,13,13,0,0,0,3.65,1.7,9.29,9.29,0,0,0,3.51.34,1.74,1.74,0,0,1-.39,0c-1.3-.23-1.78-1.38-1.46-3.46a40.52,40.52,0,0,1,2.09-8.71l1-2.83A91.72,91.72,0,0,1,19,24.51c.32-.56.65-1.1,1-1.61a63.4,63.4,0,0,1,9-11.4q5.36-5.31,10.57-7h0c.35-.13.7-.24,1-.33.95-.23,1.6-.38,1.95-.44a7.21,7.21,0,0,1,1.9,0,6.35,6.35,0,0,1,2.84.83q.28.18.57.39"/><path class="cls-1" d="M141.48.77a8.52,8.52,0,0,1,2.35.33,25.83,25.83,0,0,0-7.4-1,33.61,33.61,0,0,0-18.22,5,25.07,25.07,0,0,0-4.67,3.65A23.44,23.44,0,0,0,110,13a23.57,23.57,0,0,0-3.11,6.37c-.26.72-.49,1.44-.69,2.15-.1.49-.21,1-.34,1.41-.16.68-.31,1.35-.44,2s-.22,1.37-.29,2.05a26.17,26.17,0,0,0-.29,3.9,24.41,24.41,0,0,0,3.41,12.71,20.76,20.76,0,0,0,2,2.82A21.09,21.09,0,0,0,114,49.93a18.9,18.9,0,0,0,2.63,1.66,25,25,0,0,0,12.32,3,49.81,49.81,0,0,0,7-.48H136a21.43,21.43,0,0,1-7.45-.76h0a17.73,17.73,0,0,1-10.91-9.64A27.65,27.65,0,0,1,115,34.15a33.08,33.08,0,0,1,.25-9,21.11,21.11,0,0,1,.48-2.29A31.9,31.9,0,0,1,119.33,14a29.24,29.24,0,0,1,6.92-8,22.61,22.61,0,0,1,8.42-4.43A20.18,20.18,0,0,1,137.45,1h.11c.71-.09,2-.15,3.92-.2"/><path class="cls-1" d="M32.4,66.68a1.51,1.51,0,0,0-.53-.09,1.7,1.7,0,0,0-.69.14,3.94,3.94,0,0,0-.68.39,3.29,3.29,0,0,0-.54.73V66.78h-1V73h1V69.89a2.48,2.48,0,0,1,.54-1.8,1.68,1.68,0,0,1,1.12-.49,1.94,1.94,0,0,1,.78.15V66.68m12.08.73a3,3,0,0,0-4.14,0,3.31,3.31,0,0,0-.83,2.44,3.38,3.38,0,0,0,.83,2.48,3,3,0,0,0,4.14,0,3.27,3.27,0,0,0,.88-2.48,3.21,3.21,0,0,0-.88-2.44m-2,0a1.56,1.56,0,0,1,1.32.68,2.54,2.54,0,0,1,.54,1.71,2.62,2.62,0,0,1-.54,1.75,1.56,1.56,0,0,1-1.32.68,1.58,1.58,0,0,1-1.36-.68,2.84,2.84,0,0,1-.49-1.75,2.76,2.76,0,0,1,.49-1.71,1.58,1.58,0,0,1,1.36-.68M21.78,69.85a3.38,3.38,0,0,0,.83,2.48,3,3,0,0,0,2.09.83,2.91,2.91,0,0,0,2.05-.83,3.27,3.27,0,0,0,.88-2.48,3.21,3.21,0,0,0-.88-2.44,2.9,2.9,0,0,0-2.05-.82,3,3,0,0,0-2.09.82,3.31,3.31,0,0,0-.83,2.44m1.56,1.75a2.84,2.84,0,0,1-.49-1.75,2.76,2.76,0,0,1,.49-1.71,1.59,1.59,0,0,1,1.36-.68,1.54,1.54,0,0,1,1.32.68,2.54,2.54,0,0,1,.54,1.71A2.62,2.62,0,0,1,26,71.6a1.54,1.54,0,0,1-1.32.68,1.59,1.59,0,0,1-1.36-.68m-3-3.46A2.56,2.56,0,0,0,19.45,67a2.25,2.25,0,0,0-1.27-.38,2.14,2.14,0,0,0-.78.14,1.62,1.62,0,0,0-.63.34,3,3,0,0,0-.63.78V66.78h-1v8.57h1V71.89a2.24,2.24,0,0,0,.63.78,1.26,1.26,0,0,0,.58.34,2.16,2.16,0,0,0,.78.15,2.2,2.2,0,0,0,1.9-1,3.88,3.88,0,0,0,.68-2.34,4.18,4.18,0,0,0-.34-1.71m-.73,1.75a3,3,0,0,1-.48,1.81,1.67,1.67,0,0,1-1.27.58,1.42,1.42,0,0,1-1.27-.68,3,3,0,0,1-.48-1.75,3.3,3.3,0,0,1,.24-1.27A1.66,1.66,0,0,1,17,67.7a1.45,1.45,0,0,1,.88-.29A1.65,1.65,0,0,1,19.1,68a2.69,2.69,0,0,1,.54,1.94M38.15,64h-1v9h1Zm81.08,2.77h-1V73h1Zm6.09,0-2,4.87-2-4.87h-1.07L122.69,73h1.07l2.58-6.19h-1m3,0h-1V73h1ZM100,69.85a3.17,3.17,0,0,0-.88-2.44,2.86,2.86,0,0,0-2-.82,2.91,2.91,0,0,0-2.09.82,3.27,3.27,0,0,0-.83,2.44,3.33,3.33,0,0,0,.83,2.48,2.92,2.92,0,0,0,2.09.83,2.87,2.87,0,0,0,2-.83,3.23,3.23,0,0,0,.88-2.48m-1.07,0a2.62,2.62,0,0,1-.54,1.75,1.53,1.53,0,0,1-1.31.68,1.57,1.57,0,0,1-1.36-.68,2.78,2.78,0,0,1-.5-1.75,2.7,2.7,0,0,1,.5-1.71A1.57,1.57,0,0,1,97,67.46a1.53,1.53,0,0,1,1.31.68,2.54,2.54,0,0,1,.54,1.71m6.72-1.71a1.48,1.48,0,0,0-.49-1.07,2.29,2.29,0,0,0-1.65-.48,2.44,2.44,0,0,0-1.76.57,1.69,1.69,0,0,0-.58,1.28A1.56,1.56,0,0,0,102.34,70l.73.19.34.14.53.15q.78.24.78.78a1,1,0,0,1-.39.78,1.72,1.72,0,0,1-1.07.29,1.79,1.79,0,0,1-1-.24,1,1,0,0,1-.29-.68v0h-1v0a1.51,1.51,0,0,0,.29.92,2.12,2.12,0,0,0,.84.63,2.69,2.69,0,0,0,1.26.25,2.44,2.44,0,0,0,1.8-.63,1.94,1.94,0,0,0,.63-1.47,2.38,2.38,0,0,0-.09-.68,1.75,1.75,0,0,0-.39-.43,2.84,2.84,0,0,0-.39-.25,7.23,7.23,0,0,0-.93-.29l-.38-.15-.49-.09a2.16,2.16,0,0,1-.73-.35.66.66,0,0,1-.2-.49.85.85,0,0,1,.35-.63,1.55,1.55,0,0,1,.92-.24,1.72,1.72,0,0,1,.87.2.48.48,0,0,1,.3.48h1M88.79,64h-1v9h1V70A3,3,0,0,1,89,68.58a2.22,2.22,0,0,1,.63-.78,1.85,1.85,0,0,1,.88-.24,1.42,1.42,0,0,1,.73.19.89.89,0,0,1,.39.54,3.21,3.21,0,0,1,.14,1.16V73h1V69a3.08,3.08,0,0,0-.25-1.46,2,2,0,0,0-.72-.74,2.44,2.44,0,0,0-1.08-.23,2.47,2.47,0,0,0-1.36.48,3.49,3.49,0,0,0-.64.78V64m38.48,1.41h1V64.35h-1Zm-9.06,0h1V64.35h-1ZM114.32,65a2.36,2.36,0,0,1,.87.14,1.23,1.23,0,0,1,.59.44,1.06,1.06,0,0,1,.19.59v0h1v0a1.91,1.91,0,0,0-.34-1,1.82,1.82,0,0,0-1-.77,3.54,3.54,0,0,0-1.42-.25,3.39,3.39,0,0,0-2.67,1.17,4.93,4.93,0,0,0-1,3.41,5.05,5.05,0,0,0,1,3.41,3.47,3.47,0,0,0,2.67,1.11,4,4,0,0,0,1.42-.23,2,2,0,0,0,1-.78,1.79,1.79,0,0,0,.34-1v0h-1v0a1.17,1.17,0,0,1-.39.83,1.73,1.73,0,0,1-1.26.39,2.11,2.11,0,0,1-1.95-1.07,4.63,4.63,0,0,1-.69-2.63,4.83,4.83,0,0,1,.69-2.68,2.13,2.13,0,0,1,1.95-1m-40.18,1.7a1.57,1.57,0,0,0-.54-.09,1.66,1.66,0,0,0-.68.14,3.94,3.94,0,0,0-.68.39,3,3,0,0,0-.54.73V66.78h-1V73h1V69.89a2.48,2.48,0,0,1,.54-1.8,1.68,1.68,0,0,1,1.12-.49,1.94,1.94,0,0,1,.78.15V66.68m5.69,1.17a2,2,0,0,0-.92-.92,2.29,2.29,0,0,0-1.26-.34,2.63,2.63,0,0,0-2.1,1,3.47,3.47,0,0,0-.78,2.33,3.57,3.57,0,0,0,.74,2.34,2.67,2.67,0,0,0,2.18.93A3.13,3.13,0,0,0,79,72.91a2.08,2.08,0,0,0,.83-.63,1.4,1.4,0,0,0,.34-.88v0h-1v0a.84.84,0,0,1-.34.64,1.53,1.53,0,0,1-1,.24,1.72,1.72,0,0,1-1.46-.63A2.61,2.61,0,0,1,75.79,70h4.39v-.34a3.8,3.8,0,0,0-.35-1.8m-.63,1.26v.1H75.84A2.11,2.11,0,0,1,76.48,68a1.46,1.46,0,0,1,1.07-.49,1.67,1.67,0,0,1,.83.2,1.3,1.3,0,0,1,.58.58,1.79,1.79,0,0,1,.24.87m7-1.65a2.27,2.27,0,0,0-.83-.64,2.77,2.77,0,0,0-1.22-.23,2.56,2.56,0,0,0-2.09.87,3.59,3.59,0,0,0-.73,2.39A3.65,3.65,0,0,0,82,72.28a2.54,2.54,0,0,0,2.09.88,2.63,2.63,0,0,0,1.22-.25,2.15,2.15,0,0,0,.83-.63,1.59,1.59,0,0,0,.29-.88v0h-1v0a.89.89,0,0,1-.3.64,1.53,1.53,0,0,1-1,.24,1.72,1.72,0,0,1-1.32-.58,2.91,2.91,0,0,1-.48-1.85A2.71,2.71,0,0,1,82.85,68a1.76,1.76,0,0,1,1.32-.58,1.53,1.53,0,0,1,1,.24.73.73,0,0,1,.3.59v.1h1v-.1a1.4,1.4,0,0,0-.29-.83M51,68.14a1.52,1.52,0,0,0-.49-1.07,2.34,2.34,0,0,0-1.66-.48,2.43,2.43,0,0,0-1.75.57,1.7,1.7,0,0,0-.59,1.28A1.58,1.58,0,0,0,47.69,70l.73.19.34.14.54.15q.78.24.78.78a1,1,0,0,1-.39.78,1.72,1.72,0,0,1-1.07.29,1.8,1.8,0,0,1-1-.24,1,1,0,0,1-.29-.68v0h-1v0a1.45,1.45,0,0,0,.3.92,2,2,0,0,0,.82.63,2.73,2.73,0,0,0,1.27.25,2.47,2.47,0,0,0,1.8-.63,1.94,1.94,0,0,0,.63-1.47,2.38,2.38,0,0,0-.09-.68,1.62,1.62,0,0,0-.4-.43,2.26,2.26,0,0,0-.38-.25,7.23,7.23,0,0,0-.93-.29l-.39-.15-.49-.09a2.36,2.36,0,0,1-.73-.35.66.66,0,0,1-.19-.49.84.84,0,0,1,.34-.63,1.59,1.59,0,0,1,.92-.24,1.76,1.76,0,0,1,.88.2.49.49,0,0,1,.29.48h1m14.46,3.51A2.61,2.61,0,0,1,64.88,70h4.39v-.34a3.8,3.8,0,0,0-.35-1.8,2,2,0,0,0-.92-.92,2.29,2.29,0,0,0-1.26-.34,2.64,2.64,0,0,0-2.1,1,3.47,3.47,0,0,0-.78,2.33,3.62,3.62,0,0,0,.73,2.34,2.7,2.7,0,0,0,2.19.93,3.13,3.13,0,0,0,1.27-.25,2,2,0,0,0,.83-.63,1.4,1.4,0,0,0,.34-.88v0h-1v0a.86.86,0,0,1-.35.64,1.53,1.53,0,0,1-1,.24,1.72,1.72,0,0,1-1.46-.63m-.49-2.44A2.11,2.11,0,0,1,65.57,68a1.46,1.46,0,0,1,1.07-.49,1.67,1.67,0,0,1,.83.2,1.3,1.3,0,0,1,.58.58,1.79,1.79,0,0,1,.24.87v.1H64.93M58.6,64.35H56.21V73h2.54a4.46,4.46,0,0,0,2.43-.54,3.37,3.37,0,0,0,1.22-1.56,5.23,5.23,0,0,0,.44-2.24,5.52,5.52,0,0,0-.44-2.34,3.58,3.58,0,0,0-1.26-1.46,5.24,5.24,0,0,0-2.54-.48m-1.26.87H58.6a3.69,3.69,0,0,1,1.9.39,2.37,2.37,0,0,1,.88,1.17,6,6,0,0,1,.29,2,4.34,4.34,0,0,1-.34,1.85,2,2,0,0,1-.93,1.07,3.17,3.17,0,0,1-1.75.39H57.34V65.22m80.06,2.63a2.1,2.1,0,0,0-.92-.92,2.3,2.3,0,0,0-1.27-.34,2.61,2.61,0,0,0-2.09,1,3.47,3.47,0,0,0-.78,2.33,3.62,3.62,0,0,0,.73,2.34,2.7,2.7,0,0,0,2.19.93,3,3,0,0,0,1.26-.25,2,2,0,0,0,.83-.63,1.4,1.4,0,0,0,.34-.88v0h-1v0a.84.84,0,0,1-.34.64,1.53,1.53,0,0,1-1,.24,1.72,1.72,0,0,1-1.46-.63,2.61,2.61,0,0,1-.54-1.66h4.38v-.34a3.81,3.81,0,0,0-.34-1.8m-.88.39a1.7,1.7,0,0,1,.25.87v.1h-3.36A2.16,2.16,0,0,1,134,68a1.48,1.48,0,0,1,1.07-.49,1.62,1.62,0,0,1,.83.2,1.25,1.25,0,0,1,.58.58m6.92-.1a1.5,1.5,0,0,0-.48-1.07,2.34,2.34,0,0,0-1.66-.48,2.44,2.44,0,0,0-1.76.57,1.72,1.72,0,0,0-.58,1.28A1.58,1.58,0,0,0,140.18,70l.73.19.34.14.53.15q.78.24.78.78a1,1,0,0,1-.38.78,1.75,1.75,0,0,1-1.08.29,1.79,1.79,0,0,1-1-.24.92.92,0,0,1-.29-.68v0h-1v0a1.45,1.45,0,0,0,.3.92,2,2,0,0,0,.82.63,2.76,2.76,0,0,0,1.27.25,2.48,2.48,0,0,0,1.81-.63,1.94,1.94,0,0,0,.63-1.47,2.07,2.07,0,0,0-.1-.68,1.75,1.75,0,0,0-.39-.43,2.84,2.84,0,0,0-.39-.25,7.23,7.23,0,0,0-.93-.29l-.38-.15-.49-.09a2.16,2.16,0,0,1-.73-.35.66.66,0,0,1-.2-.49.84.84,0,0,1,.34-.63,1.6,1.6,0,0,1,.93-.24,1.72,1.72,0,0,1,.87.2.48.48,0,0,1,.3.48h1M131,64h-1v9h1Z"/></g></g></svg>