<svg xmlns="http://www.w3.org/2000/svg" viewBox="0 0 130.77 63.68"><defs><style>.cls-1{fill:#171c2b;}</style></defs><title>footer-logo</title><g id="Layer_2" data-name="Layer 2"><g id="Layer_1-2" data-name="Layer 1"><path class="cls-1" d="M44.26,24.5c0-.47-.06-.94-.08-1.41L35.9,28.46q-.21,5.58-.7,12.29L43.84,47a185.66,185.66,0,0,0,.42-22.51m-.37-5.31c0,.07,0,.14,0,.21s0-.15,0-.22h0M77.76,3A8.93,8.93,0,0,1,79,4a9.22,9.22,0,0,1,1.57,1.85c1.4,2.09,2.08,5,2,8.73q0,8.92-8.51,14.85t-20.3,6.8A19.06,19.06,0,0,0,51.3,47.3Q68.75,44,78.46,35q9.26-8.59,9.38-20.37a13.81,13.81,0,0,0-2.69-8.56,16.35,16.35,0,0,0-1.34-1.52c-.3-.25-.59-.5-.86-.75l-.5-.32A10.52,10.52,0,0,0,77.76,3M41.5,5.44a3.94,3.94,0,0,0-1-1.27Q40.23,4,40,3.84a5.49,5.49,0,0,0-2.4-.71,6.23,6.23,0,0,0-1.6.05c-.31,0-.85.18-1.65.37-.29.08-.59.17-.88.28Q35.41,7,35.86,16.16l1.1-.71,5.3-3.34.72-.45c-.3-1.7-.63-3.34-1-4.9a8.08,8.08,0,0,0-.5-1.32m87.62.78a12.56,12.56,0,0,0-2.38-1.6,19.85,19.85,0,0,0-6-1.78q2.92,3.26,3,12.64,5.19-1.73,7-5.89a11.48,11.48,0,0,0-1.65-3.37M130,32.36c-2.56-2.28-4.83-3.2-6.84-2.76a14.74,14.74,0,0,1-4.36,10.12,16.28,16.28,0,0,1-10.13,5.37,18.11,18.11,0,0,0,6.29.64h0a20.27,20.27,0,0,0,9-3.49q5.71-3.91,6.09-9.88"/><path class="cls-1" d="M44.18,23.09l0-.42c-.08-1.09-.16-2.18-.25-3.27,0-.07,0-.14,0-.21l-.07,0q-4,2.89-7.88,5.93v1.62l0,1.67,8.28-5.36m-28,6.85h0l.07-.1c-.62.47-1.24.93-1.85,1.41l-5.19,4a33.47,33.47,0,0,0-1.77,7.37c-.27,1.75.14,2.73,1.23,2.92a1.27,1.27,0,0,0,.34,0c-1.13-.77-.66-3,1.39-6.79a81.56,81.56,0,0,1,5.78-8.88M77.76,3a10.52,10.52,0,0,1,4.69.46,11.48,11.48,0,0,0-6.91-1.53A12,12,0,0,1,77.76,3m51.36,3.21L128,4.83A13,13,0,0,0,125.87,3,17.07,17.07,0,0,0,121.55.93a7,7,0,0,0-2-.28c-1.6,0-2.7.1-3.31.17h-.09a6.62,6.62,0,0,1,4.57,2,19.85,19.85,0,0,1,6,1.78,12.56,12.56,0,0,1,2.38,1.6"/><path class="cls-1" d="M75.33,1.94h.21a11.48,11.48,0,0,1,6.91,1.53l.5.32a15.92,15.92,0,0,0-4.36-2.38A23,23,0,0,0,69.74,0a27,27,0,0,0-9,1.77Q52.25,6,42.94,11.69l-.68.42L37,15.45l-1.1.71,0,0-2.64,1.73c-.74.5-1.46,1-2.18,1.44Q23.4,24.5,16.23,29.84a.86.86,0,0,1-.07.1h0a81.56,81.56,0,0,0-5.78,8.88c-2.05,3.76-2.52,6-1.39,6.79h.08a2.57,2.57,0,0,0,.45,0,6.84,6.84,0,0,0,2.8-1.44Q22.9,35.32,32.4,27.92q1.77-1.37,3.54-2.76,3.93-3,7.88-5.93l.07,0h0q4.94-3.7,9.88-7.23,10.44-7.5,18-9.39a19.8,19.8,0,0,1,3.58-.62"/><path class="cls-1" d="M40.47,4.16a4.09,4.09,0,0,1,1,1.28A5.85,5.85,0,0,0,39,2.27,11.29,11.29,0,0,0,34.75.58,16.24,16.24,0,0,0,30.1.29a9,9,0,0,0-3.75,1A54.18,54.18,0,0,0,10.46,15.61a45.29,45.29,0,0,0-2.59,3.74A58.68,58.68,0,0,0,.06,39.15a3.26,3.26,0,0,0,.61,2.51,8.32,8.32,0,0,0,2.27,2.23A10.88,10.88,0,0,0,6,45.32a7.74,7.74,0,0,0,3,.29,1.27,1.27,0,0,1-.34,0c-1.09-.19-1.5-1.17-1.23-2.92a33.47,33.47,0,0,1,1.77-7.37c.28-.76.56-1.56.87-2.39a78.13,78.13,0,0,1,6-12.18c.28-.47.55-.92.83-1.36A54,54,0,0,1,24.5,9.72a22.91,22.91,0,0,1,8.94-5.88h0c.29-.11.59-.2.88-.28.8-.19,1.34-.32,1.65-.37a6.21,6.21,0,0,1,1.6,0,5.36,5.36,0,0,1,2.4.7l.48.32"/><path class="cls-1" d="M119.56.65a7,7,0,0,1,2,.28A21.68,21.68,0,0,0,115.3.09,28.43,28.43,0,0,0,99.9,4.33a20.61,20.61,0,0,0-4,3.09A19.32,19.32,0,0,0,93,11a19.94,19.94,0,0,0-2.63,5.38c-.22.61-.42,1.22-.58,1.82-.08.41-.18.81-.29,1.19-.14.58-.26,1.14-.37,1.69s-.19,1.15-.25,1.73a23.32,23.32,0,0,0-.25,3.29A20.59,20.59,0,0,0,91.51,36.8a18.34,18.34,0,0,0,1.64,2.39,17.67,17.67,0,0,0,3.17,3,16.22,16.22,0,0,0,2.23,1.41A21.12,21.12,0,0,0,109,46.15a42.17,42.17,0,0,0,5.88-.41h.07a18.11,18.11,0,0,1-6.29-.64l0,0a14.91,14.91,0,0,1-9.22-8.14,23.57,23.57,0,0,1-2.23-8.07,28.12,28.12,0,0,1,.21-7.57c.11-.66.25-1.31.41-1.94a26.72,26.72,0,0,1,3.09-7.53,24.94,24.94,0,0,1,5.84-6.75,19.19,19.19,0,0,1,7.12-3.74,17.24,17.24,0,0,1,2.35-.5h.09c.61-.07,1.71-.13,3.31-.17"/><path class="cls-1" d="M27.38,56.35a1.33,1.33,0,0,0-.45-.08,1.51,1.51,0,0,0-.58.12,4,4,0,0,0-.58.34,2.76,2.76,0,0,0-.45.61v-.9h-.86v5.22h.86V59.07a2.11,2.11,0,0,1,.45-1.52,1.42,1.42,0,0,1,.95-.42,1.69,1.69,0,0,1,.66.13v-.91M37.59,57a2.43,2.43,0,0,0-1.73-.7,2.46,2.46,0,0,0-1.77.7,2.78,2.78,0,0,0-.7,2.06,2.81,2.81,0,0,0,.7,2.09,2.47,2.47,0,0,0,1.77.71,2.44,2.44,0,0,0,1.73-.71,3.28,3.28,0,0,0,0-4.15m-1.73,0a1.28,1.28,0,0,1,1.11.58A2.16,2.16,0,0,1,37.43,59,2.24,2.24,0,0,1,37,60.51a1.3,1.3,0,0,1-1.11.58,1.34,1.34,0,0,1-1.15-.58A2.35,2.35,0,0,1,34.3,59a2.26,2.26,0,0,1,.41-1.44A1.32,1.32,0,0,1,35.86,57M18.41,59a2.81,2.81,0,0,0,.7,2.09,2.47,2.47,0,0,0,1.77.71,2.44,2.44,0,0,0,1.73-.71,3.28,3.28,0,0,0,0-4.15,2.43,2.43,0,0,0-1.73-.7,2.46,2.46,0,0,0-1.77.7,2.78,2.78,0,0,0-.7,2.06m1.32,1.48A2.35,2.35,0,0,1,19.31,59a2.26,2.26,0,0,1,.42-1.44A1.31,1.31,0,0,1,20.88,57a1.28,1.28,0,0,1,1.11.58A2.16,2.16,0,0,1,22.44,59,2.24,2.24,0,0,1,22,60.51a1.3,1.3,0,0,1-1.11.58,1.33,1.33,0,0,1-1.15-.58m-2.52-2.92a2.07,2.07,0,0,0-.78-1,1.87,1.87,0,0,0-1.06-.33,1.84,1.84,0,0,0-.66.12,1.49,1.49,0,0,0-.54.29,2.8,2.8,0,0,0-.53.66v-.9h-.87v7.24h.87V60.76a1.87,1.87,0,0,0,.53.65,1.07,1.07,0,0,0,.49.29,1.72,1.72,0,0,0,.66.13A1.85,1.85,0,0,0,16.93,61a3.26,3.26,0,0,0,.57-2,3.43,3.43,0,0,0-.29-1.44m-.61,1.48a2.48,2.48,0,0,1-.41,1.52,1.41,1.41,0,0,1-1.08.5,1.19,1.19,0,0,1-1.06-.58A2.42,2.42,0,0,1,13.64,59a2.72,2.72,0,0,1,.2-1.07,1.38,1.38,0,0,1,.53-.74,1.2,1.2,0,0,1,.74-.25,1.45,1.45,0,0,1,1,.45,2.33,2.33,0,0,1,.45,1.65m15.64-5h-.87v7.57h.87Zm68.52,2.35H99.9v5.23h.86Zm5.15,0-1.73,4.11-1.69-4.11h-.9l2.1,5.22h.9l2.18-5.22h-.86m2.51,0h-.86v5.23h.86ZM84.47,59A2.72,2.72,0,0,0,83.73,57a2.43,2.43,0,0,0-1.73-.7,2.46,2.46,0,0,0-1.77.7,2.78,2.78,0,0,0-.7,2.06,2.81,2.81,0,0,0,.7,2.09,2.47,2.47,0,0,0,1.77.71,2.44,2.44,0,0,0,1.73-.71A2.74,2.74,0,0,0,84.47,59m-.91,0a2.24,2.24,0,0,1-.45,1.48,1.39,1.39,0,0,1-2.26,0A2.35,2.35,0,0,1,80.43,59a2.26,2.26,0,0,1,.42-1.44,1.39,1.39,0,0,1,2.26,0A2.16,2.16,0,0,1,83.56,59m5.68-1.44a1.25,1.25,0,0,0-.41-.91,2,2,0,0,0-1.4-.41,2,2,0,0,0-1.48.49,1.43,1.43,0,0,0-.5,1.08,1.32,1.32,0,0,0,1,1.27l.61.17.29.12.45.12q.66.21.66.66a.85.85,0,0,1-.33.66,1.51,1.51,0,0,1-.91.25,1.48,1.48,0,0,1-.86-.21.78.78,0,0,1-.24-.57v-.05h-.87v.05a1.23,1.23,0,0,0,.25.78,1.85,1.85,0,0,0,.7.53,2.34,2.34,0,0,0,1.07.21,2,2,0,0,0,1.52-.54,1.59,1.59,0,0,0,.53-1.23,1.73,1.73,0,0,0-.08-.58,1.58,1.58,0,0,0-.32-.37,2.39,2.39,0,0,0-.34-.21,6.63,6.63,0,0,0-.78-.24l-.32-.12-.42-.09a1.73,1.73,0,0,1-.61-.29.53.53,0,0,1-.17-.41.7.7,0,0,1,.29-.53,1.29,1.29,0,0,1,.78-.21,1.47,1.47,0,0,1,.74.17.41.41,0,0,1,.25.41h.86M75,54.09h-.86v7.57H75V59.11A2.4,2.4,0,0,1,75.25,58a1.84,1.84,0,0,1,.53-.66,1.5,1.5,0,0,1,.74-.2,1.19,1.19,0,0,1,.62.16.75.75,0,0,1,.33.45,2.83,2.83,0,0,1,.12,1v3h.87V58.33a2.6,2.6,0,0,0-.21-1.23,1.68,1.68,0,0,0-.61-.63,2.13,2.13,0,0,0-.91-.2,1.59,1.59,0,0,0-.62.12,1.45,1.45,0,0,0-.53.29,2.8,2.8,0,0,0-.54.66V54.09m32.52,1.2h.86v-.91h-.86Zm-7.66,0h.86v-.91H99.9Zm-3.29-.38a1.94,1.94,0,0,1,.74.12,1,1,0,0,1,.49.37.94.94,0,0,1,.17.5v0h.86v0a1.61,1.61,0,0,0-.29-.87,1.57,1.57,0,0,0-.82-.65,3,3,0,0,0-1.19-.21,2.88,2.88,0,0,0-2.27,1A4.18,4.18,0,0,0,93.44,58a4.29,4.29,0,0,0,.86,2.88,3,3,0,0,0,2.27.95,3,3,0,0,0,1.19-.21,1.54,1.54,0,0,0,.82-.66,1.42,1.42,0,0,0,.29-.86v0H98v0a1,1,0,0,1-.33.7,1.47,1.47,0,0,1-1.07.33A1.78,1.78,0,0,1,95,60.26,4,4,0,0,1,94.39,58,4.14,4.14,0,0,1,95,55.78a1.81,1.81,0,0,1,1.65-.87m-34,1.44a1.29,1.29,0,0,0-.45-.08,1.54,1.54,0,0,0-.58.12,3.42,3.42,0,0,0-.57.34,2.25,2.25,0,0,0-.45.61v-.9h-.87v5.22h.87V59.07a2.11,2.11,0,0,1,.45-1.52,1.38,1.38,0,0,1,.94-.42,1.69,1.69,0,0,1,.66.13v-.91m4.82,1a1.78,1.78,0,0,0-.78-.78,2,2,0,0,0-1.07-.29,2.21,2.21,0,0,0-1.77.83,2.91,2.91,0,0,0-.66,2,3,3,0,0,0,.62,2,2.26,2.26,0,0,0,1.85.79,2.72,2.72,0,0,0,1.07-.21,1.85,1.85,0,0,0,.7-.53,1.24,1.24,0,0,0,.29-.75v0h-.87v0a.68.68,0,0,1-.29.54,1.26,1.26,0,0,1-.82.21,1.44,1.44,0,0,1-1.23-.54,2.2,2.2,0,0,1-.46-1.4h3.71v-.29a3.28,3.28,0,0,0-.29-1.52m-.54,1.07v.08H64.09a1.92,1.92,0,0,1,.54-1.07,1.29,1.29,0,0,1,.91-.41,1.42,1.42,0,0,1,.7.17,1.11,1.11,0,0,1,.49.49,1.45,1.45,0,0,1,.2.74M72.82,57a1.85,1.85,0,0,0-.7-.54,2.39,2.39,0,0,0-1-.2,2.18,2.18,0,0,0-1.77.74,3.06,3.06,0,0,0-.61,2,3.14,3.14,0,0,0,.61,2.06,2.18,2.18,0,0,0,1.77.74,2.25,2.25,0,0,0,1-.21,1.93,1.93,0,0,0,.7-.53,1.32,1.32,0,0,0,.25-.75v0h-.86v0a.73.73,0,0,1-.26.54,1.24,1.24,0,0,1-.82.21,1.45,1.45,0,0,1-1.11-.5A2.45,2.45,0,0,1,69.61,59,2.32,2.32,0,0,1,70,57.5,1.47,1.47,0,0,1,71.13,57a1.24,1.24,0,0,1,.82.21.61.61,0,0,1,.26.49v.08h.86v-.08a1.13,1.13,0,0,0-.25-.7m-29.76.58a1.25,1.25,0,0,0-.41-.91,2,2,0,0,0-1.4-.41,2.06,2.06,0,0,0-1.48.49,1.43,1.43,0,0,0-.5,1.08,1.32,1.32,0,0,0,1,1.27l.62.17.29.12.45.12q.66.21.66.66a.85.85,0,0,1-.33.66,1.82,1.82,0,0,1-1.77,0,.78.78,0,0,1-.24-.57v-.05h-.87v.05a1.23,1.23,0,0,0,.25.78,1.85,1.85,0,0,0,.7.53,2.34,2.34,0,0,0,1.07.21,2,2,0,0,0,1.52-.54,1.6,1.6,0,0,0,.54-1.23,2,2,0,0,0-.08-.58,1.68,1.68,0,0,0-.34-.37,2.2,2.2,0,0,0-.32-.21,6.39,6.39,0,0,0-.79-.24l-.33-.12-.41-.09a1.89,1.89,0,0,1-.62-.29.57.57,0,0,1-.16-.41.7.7,0,0,1,.29-.53,1.29,1.29,0,0,1,.78-.21,1.47,1.47,0,0,1,.74.17.42.42,0,0,1,.25.41h.86m12.23,3a2.2,2.2,0,0,1-.46-1.4h3.71v-.29a3.28,3.28,0,0,0-.29-1.52,1.78,1.78,0,0,0-.78-.78,2,2,0,0,0-1.07-.29,2.24,2.24,0,0,0-1.77.83,2.91,2.91,0,0,0-.66,2,3,3,0,0,0,.62,2,2.26,2.26,0,0,0,1.85.79,2.72,2.72,0,0,0,1.07-.21,1.85,1.85,0,0,0,.7-.53,1.24,1.24,0,0,0,.29-.75v0h-.87v0a.68.68,0,0,1-.29.54,1.26,1.26,0,0,1-.82.21,1.44,1.44,0,0,1-1.23-.54m-.42-2.06a1.92,1.92,0,0,1,.54-1.07,1.29,1.29,0,0,1,.91-.41,1.42,1.42,0,0,1,.7.17,1.11,1.11,0,0,1,.49.49,1.45,1.45,0,0,1,.2.74v.08H54.87m-5.35-4.11h-2v7.28h2.14a3.86,3.86,0,0,0,2.06-.45,2.94,2.94,0,0,0,1-1.32A4.48,4.48,0,0,0,53.11,58a4.73,4.73,0,0,0-.37-2,3,3,0,0,0-1.07-1.23,4.45,4.45,0,0,0-2.15-.41m-1.06.74h1.06a3.12,3.12,0,0,1,1.61.33,2,2,0,0,1,.74,1,4.75,4.75,0,0,1,.25,1.64,3.73,3.73,0,0,1-.29,1.57,1.66,1.66,0,0,1-.78.9,2.68,2.68,0,0,1-1.48.33H48.46V55.12m67.66,2.22a1.78,1.78,0,0,0-.78-.78,2,2,0,0,0-1.08-.29,2.2,2.2,0,0,0-1.76.83,2.91,2.91,0,0,0-.66,2,3.09,3.09,0,0,0,.61,2,2.28,2.28,0,0,0,1.86.79,2.72,2.72,0,0,0,1.07-.21,1.81,1.81,0,0,0,.69-.53,1.19,1.19,0,0,0,.29-.75v0h-.86v0a.68.68,0,0,1-.29.54,1.24,1.24,0,0,1-.82.21,1.44,1.44,0,0,1-1.23-.54,2.15,2.15,0,0,1-.46-1.4h3.71v-.29a3.28,3.28,0,0,0-.29-1.52m-.74.33a1.55,1.55,0,0,1,.2.74v.08h-2.84a1.92,1.92,0,0,1,.54-1.07,1.27,1.27,0,0,1,.9-.41,1.43,1.43,0,0,1,.71.17,1.11,1.11,0,0,1,.49.49m5.84-.08a1.25,1.25,0,0,0-.41-.91,2,2,0,0,0-1.4-.41,2,2,0,0,0-1.48.49,1.42,1.42,0,0,0-.49,1.08,1.31,1.31,0,0,0,1,1.27l.62.17.29.12.45.12q.66.21.66.66a.85.85,0,0,1-.33.66,1.5,1.5,0,0,1-.9.25,1.47,1.47,0,0,1-.87-.21.78.78,0,0,1-.24-.57v-.05h-.87v.05a1.23,1.23,0,0,0,.25.78,1.85,1.85,0,0,0,.7.53,2.34,2.34,0,0,0,1.07.21,2.06,2.06,0,0,0,1.52-.54,1.6,1.6,0,0,0,.54-1.23,2,2,0,0,0-.08-.58,1.68,1.68,0,0,0-.34-.37l-.32-.21a7,7,0,0,0-.79-.24l-.33-.12-.41-.09a1.89,1.89,0,0,1-.62-.29.53.53,0,0,1-.16-.41.7.7,0,0,1,.29-.53,1.29,1.29,0,0,1,.78-.21,1.47,1.47,0,0,1,.74.17.41.41,0,0,1,.25.41h.86m-10.53-3.5h-.87v7.57h.87Z"/></g></g></svg>