<?xml version="1.0" encoding="utf-8"?>
<!-- Generator: Adobe Illustrator 22.1.0, SVG Export Plug-In . SVG Version: 6.00 Build 0)  -->
<svg version="1.1" id="Layer_1" xmlns="http://www.w3.org/2000/svg" xmlns:xlink="http://www.w3.org/1999/xlink" x="0px" y="0px"
	 viewBox="0 0 154.7 75.3" style="enable-background:new 0 0 154.7 75.3;" xml:space="preserve">
<style type="text/css">
	.st0{fill:#FFFFFF;}
</style>
<title>logo_1</title>
<g id="Layer_2_1_">
	<g id="Layer_1-2">
		<path class="st0" d="M52.4,29c0-0.5-0.1-1.1-0.1-1.7l-9.8,6.3c-0.2,4.4-0.4,9.3-0.8,14.5l10.2,7.4C52.6,46.8,52.7,37.9,52.4,29
			 M51.9,22.7c0,0.1,0,0.2,0,0.3C51.9,22.9,51.9,22.8,51.9,22.7L51.9,22.7 M92,3.6c0.5,0.3,1,0.7,1.5,1.1c0.7,0.6,1.3,1.4,1.8,2.2
			c1.7,2.5,2.5,5.9,2.4,10.3c0,7-3.4,12.9-10.1,17.6c-6.7,4.7-14.7,7.3-24,8c-2.3,4-3.4,8.6-3,13.2c13.8-2.6,24.5-7.5,32.1-14.6
			c7.3-6.8,11-14.8,11.1-24.1c0.1-3.6-1-7.2-3.2-10.1c-0.5-0.6-1-1.2-1.6-1.8c-0.4-0.3-0.7-0.6-1-0.9s-0.4-0.3-0.6-0.4
			C95.8,3.5,93.9,3.3,92,3.6 M49.1,6.4c-0.3-0.6-0.7-1.1-1.2-1.5c-0.2-0.1-0.4-0.3-0.6-0.4c-0.9-0.5-1.8-0.8-2.8-0.8
			c-0.6-0.1-1.3-0.1-1.9,0c-0.4,0.1-1,0.2-2,0.4c-0.3,0.1-0.7,0.2-1,0.3c1.5,2.5,2.5,7.3,2.8,14.6l1.3-0.8l6.3-4l0.9-0.5
			c-0.4-2-0.8-3.9-1.2-5.8c-0.1-0.5-0.3-1.1-0.6-1.6 M152.8,7.3C152,6.6,151,6,150,5.5c-2.2-1.1-4.6-1.8-7.1-2.1
			c2.3,2.6,3.5,7.6,3.6,15c4.1-1.3,6.9-3.7,8.3-7c-0.4-1.4-1.1-2.8-2-4 M153.8,38.3c-3-2.7-5.7-3.8-8.1-3.3c0,4.3-1.7,8.3-5.2,12
			c-3.1,3.5-7.4,5.8-12,6.3c2.4,0.7,4.9,1,7.4,0.8l0,0c3.8-0.5,7.4-1.9,10.6-4.1C151.1,46.9,153.5,43,153.8,38.3"/>
		<path class="st0" d="M89.1,2.3h0.2c2.8-0.3,5.7,0.4,8.2,1.8c0.2,0.1,0.4,0.3,0.6,0.4c-1.6-1.2-3.3-2.2-5.1-2.8
			C89.6,0.4,86.1-0.1,82.5,0c-3.7,0.1-7.3,0.8-10.7,2.1c-6.7,3.3-13.7,7.2-21,11.7L50,14.3l-6.3,4l-1.3,0.8l0,0l-3.1,2
			c-0.9,0.6-1.7,1.2-2.6,1.7c-6.1,4.1-11.9,8.2-17.6,12.4c0,0,0,0.1-0.1,0.1l0,0c-2.5,3.3-4.8,6.9-6.8,10.5c-2.4,4.5-3,7.1-1.6,8
			h0.1c0.2,0,0.4,0,0.5,0c1.2-0.3,2.4-0.9,3.3-1.7c8.3-6.9,16.3-13.4,23.8-19.2c1.4-1.1,2.8-2.2,4.2-3.3c3.1-2.4,6.2-4.7,9.3-7
			l0.1,0l0,0c3.9-2.9,7.8-5.8,11.7-8.6C71.9,8.2,79,4.5,84.9,3C86.3,2.6,87.7,2.4,89.1,2.3"/>
		<path class="st0" d="M47.9,4.9c0.5,0.4,0.9,0.9,1.2,1.5c-0.5-1.6-1.6-2.9-3-3.7c-1.5-1-3.2-1.7-5-2c-1.8-0.4-3.7-0.5-5.5-0.3
			c-1.5,0.1-3.1,0.5-4.4,1.2c-7.3,4.3-13.7,10.1-18.8,16.9c-1.1,1.4-2.1,2.9-3.1,4.4C4.8,30.1,1.7,38,0.1,46.3
			c-0.2,1.1,0.1,2.1,0.7,3c0.7,1,1.6,1.9,2.7,2.6c1.1,0.8,2.4,1.3,3.6,1.7c1.1,0.3,2.3,0.5,3.5,0.3c-0.1,0-0.3,0-0.4,0
			c-1.3-0.2-1.8-1.4-1.5-3.5c0.4-3,1.1-5.9,2.1-8.7l1-2.8c1.9-5,4.3-9.9,7.1-14.5c0.3-0.6,0.6-1.1,1-1.6c2.6-4.1,5.6-8,9-11.4
			c3.6-3.5,7.1-5.9,10.6-7l0,0c0.3-0.1,0.7-0.2,1-0.3c1-0.2,1.6-0.4,2-0.4c0.6-0.1,1.3-0.1,1.9,0c1,0,2,0.3,2.8,0.8
			C47.4,4.7,47.6,4.8,47.9,4.9"/>
		<path class="st0" d="M141.5,0.8c0.8,0,1.6,0.1,2.4,0.3c-2.4-0.7-4.9-1-7.4-1c-6.4-0.1-12.7,1.6-18.2,5c-1.7,1-3.3,2.3-4.7,3.7
			c-1.3,1.3-2.5,2.7-3.5,4.3c-1.4,2-2.4,4.1-3.1,6.4c-0.3,0.7-0.5,1.4-0.7,2.1c-0.1,0.5-0.2,1-0.3,1.4c-0.2,0.7-0.3,1.4-0.4,2
			s-0.2,1.4-0.3,2c-0.2,1.3-0.3,2.6-0.3,3.9c0,4.5,1.1,8.9,3.4,12.7c0.6,1,1.3,1.9,2,2.8c1.1,1.3,2.4,2.5,3.8,3.5
			c0.8,0.6,1.7,1.2,2.6,1.7c3.8,2,8,3.1,12.3,3c2.3,0,4.7-0.2,7-0.5h0.1c-2.5,0.2-5-0.1-7.4-0.8l0,0c-4.8-1.5-8.8-5-10.9-9.6
			c-1.4-3-2.3-6.2-2.6-9.6c-0.3-3-0.2-6,0.3-9c0.1-0.8,0.3-1.5,0.5-2.3c0.7-3.1,2-6.1,3.6-8.9c1.8-3.1,4.1-5.8,6.9-8
			c2.5-2.1,5.3-3.6,8.4-4.4c0.9-0.3,1.8-0.4,2.8-0.6h0.1C138.3,0.9,139.6,0.9,141.5,0.8"/>
		<path class="st0" d="M32.4,66.7c-0.2-0.1-0.3-0.1-0.5-0.1c-0.2,0-0.5,0-0.7,0.1c-0.2,0.1-0.5,0.2-0.7,0.4
			c-0.2,0.2-0.4,0.5-0.5,0.7v-1.1h-1V73h1v-3.1c-0.1-0.6,0.1-1.3,0.5-1.8c0.3-0.3,0.7-0.5,1.1-0.5c0.3,0,0.5,0,0.8,0.2V66.7
			 M44.5,67.4c-1.2-1.1-3-1.1-4.1,0c-0.6,0.7-0.9,1.5-0.8,2.4c-0.1,0.9,0.2,1.8,0.8,2.5c1.2,1.1,3,1.1,4.1,0
			c0.6-0.7,0.9-1.6,0.9-2.5C45.4,68.9,45.1,68.1,44.5,67.4 M42.5,67.4c0.5,0,1,0.2,1.3,0.7c0.4,0.5,0.6,1.1,0.5,1.7
			c0,0.6-0.2,1.3-0.5,1.8c-0.3,0.4-0.8,0.7-1.3,0.7c-0.5,0-1.1-0.2-1.4-0.7c-0.4-0.5-0.5-1.1-0.5-1.8c0-0.6,0.1-1.2,0.5-1.7
			C41.4,67.6,41.9,67.4,42.5,67.4 M21.8,69.9c-0.1,0.9,0.2,1.8,0.8,2.5c0.6,0.5,1.3,0.8,2.1,0.8c0.8,0,1.5-0.3,2-0.8
			c0.6-0.7,0.9-1.6,0.9-2.5c0.1-0.9-0.3-1.8-0.9-2.4c-0.5-0.5-1.3-0.8-2-0.8c-0.8,0-1.5,0.3-2.1,0.8C22,68.1,21.7,69,21.8,69.9
			 M23.3,71.6c-0.4-0.5-0.5-1.1-0.5-1.8c0-0.6,0.1-1.2,0.5-1.7c0.3-0.4,0.8-0.7,1.4-0.7c0.5,0,1,0.2,1.3,0.7
			c0.4,0.5,0.6,1.1,0.5,1.7c0,0.6-0.2,1.3-0.6,1.8c-0.3,0.4-0.8,0.7-1.3,0.7C24.1,72.3,23.6,72,23.3,71.6 M20.3,68.1
			c-0.2-0.5-0.5-0.9-0.9-1.1c-0.4-0.3-0.8-0.4-1.3-0.4c-0.3,0-0.5,0-0.8,0.1c-0.2,0.1-0.4,0.2-0.6,0.3c-0.3,0.2-0.5,0.5-0.6,0.8
			v-1.1h-1v8.6h1v-3.5c0.1,0.3,0.4,0.6,0.6,0.8c0.2,0.2,0.4,0.3,0.6,0.3c0.2,0.1,0.5,0.1,0.8,0.2c0.8,0,1.5-0.4,1.9-1
			c0.5-0.7,0.7-1.5,0.7-2.3C20.7,69.2,20.6,68.6,20.3,68.1 M19.6,69.9c0,0.6-0.1,1.3-0.5,1.8c-0.3,0.4-0.8,0.6-1.3,0.6
			c-0.5,0-1-0.2-1.3-0.7c-0.3-0.5-0.5-1.1-0.5-1.8c0-0.4,0.1-0.9,0.2-1.3c0.1-0.3,0.3-0.6,0.6-0.9c0.3-0.2,0.6-0.3,0.9-0.3
			c0.5,0,0.9,0.2,1.2,0.6C19.5,68.6,19.7,69.2,19.6,69.9 M38.2,64h-1v9h1V64z M119.2,66.8h-1V73h1V66.8z M125.3,66.8l-2,4.9l-2-4.9
			h-1.1l2.4,6.2h1.1l2.6-6.2L125.3,66.8 M128.3,66.8h-1V73h1V66.8z M100,69.9c0.1-0.9-0.3-1.8-0.9-2.4c-0.5-0.5-1.3-0.8-2-0.8
			c-0.8,0-1.5,0.3-2.1,0.8c-0.6,0.7-0.9,1.5-0.8,2.4c-0.1,0.9,0.2,1.8,0.8,2.5c0.6,0.5,1.3,0.8,2.1,0.8c0.7,0,1.5-0.3,2-0.8
			C99.8,71.7,100.1,70.8,100,69.9 M98.9,69.9c0,0.6-0.2,1.3-0.5,1.8c-0.3,0.4-0.8,0.7-1.3,0.7c-0.5,0-1.1-0.2-1.4-0.7
			c-0.4-0.5-0.5-1.1-0.5-1.8c0-0.6,0.1-1.2,0.5-1.7c0.3-0.4,0.8-0.7,1.3-0.7c0.5,0,1,0.2,1.3,0.7C98.7,68.6,98.9,69.2,98.9,69.9
			 M105.6,68.1c0-0.4-0.2-0.8-0.5-1.1c-0.5-0.4-1.1-0.5-1.7-0.5c-0.6,0-1.3,0.2-1.8,0.6c-0.4,0.3-0.6,0.8-0.6,1.3
			c0,0.8,0.5,1.4,1.3,1.6l0.7,0.2l0.3,0.1l0.5,0.2c0.5,0.2,0.8,0.4,0.8,0.8c0,0.3-0.1,0.6-0.4,0.8c-0.3,0.2-0.7,0.3-1.1,0.3
			c-0.3,0-0.7-0.1-1-0.2c-0.2-0.2-0.3-0.4-0.3-0.7l0,0h-1l0,0c0,0.3,0.1,0.7,0.3,0.9c0.2,0.3,0.5,0.5,0.8,0.6
			c0.4,0.2,0.8,0.3,1.3,0.3c0.7,0,1.3-0.2,1.8-0.6c0.4-0.4,0.6-0.9,0.6-1.5c0-0.2,0-0.5-0.1-0.7c-0.1-0.2-0.2-0.3-0.4-0.4
			c-0.1-0.1-0.3-0.2-0.4-0.3c-0.3-0.1-0.6-0.2-0.9-0.3l-0.4-0.2l-0.5-0.1c-0.3-0.1-0.5-0.2-0.7-0.3c-0.1-0.1-0.2-0.3-0.2-0.5
			c0-0.3,0.1-0.5,0.3-0.6c0.3-0.2,0.6-0.3,0.9-0.2c0.3,0,0.6,0.1,0.9,0.2c0.2,0.1,0.3,0.3,0.3,0.5L105.6,68.1 M88.8,64h-1v9h1v-3
			c0-0.5,0-1,0.2-1.4c0.1-0.3,0.4-0.6,0.6-0.8c0.3-0.2,0.6-0.2,0.9-0.2c0.3,0,0.5,0.1,0.7,0.2c0.2,0.1,0.3,0.3,0.4,0.5
			c0.1,0.4,0.2,0.8,0.1,1.2V73h1v-4c0-0.5,0-1-0.3-1.5c-0.2-0.3-0.4-0.6-0.7-0.7c-0.3-0.2-0.7-0.2-1.1-0.2c-0.5,0-1,0.2-1.4,0.5
			c-0.2,0.2-0.5,0.5-0.6,0.8L88.8,64 M127.2,65.4h1v-1.1h-1V65.4z M118.1,65.4h1v-1.1h-1V65.4z M114.3,65c0.3,0,0.6,0,0.9,0.1
			c0.2,0.1,0.4,0.2,0.6,0.4c0.1,0.2,0.2,0.4,0.2,0.6l0,0h1l0,0c0-0.4-0.1-0.7-0.3-1c-0.2-0.4-0.6-0.6-1-0.8
			c-0.5-0.2-0.9-0.3-1.4-0.3c-1,0-2,0.4-2.7,1.2c-0.7,1-1.1,2.2-1,3.4c-0.1,1.2,0.3,2.4,1,3.4c0.7,0.7,1.7,1.1,2.7,1.1
			c0.5,0,1-0.1,1.4-0.2c0.4-0.1,0.8-0.4,1-0.8c0.2-0.3,0.3-0.6,0.3-1l0,0h-1l0,0c0,0.3-0.2,0.6-0.4,0.8c-0.4,0.3-0.8,0.4-1.3,0.4
			c-0.8,0-1.6-0.4-1.9-1.1c-0.5-0.8-0.7-1.7-0.7-2.6c0-0.9,0.2-1.9,0.7-2.7C112.8,65.4,113.5,65,114.3,65 M74.1,66.8
			c-0.2-0.1-0.4-0.1-0.5-0.1c-0.2,0-0.5,0-0.7,0.1c-0.2,0.1-0.5,0.2-0.7,0.4c-0.2,0.2-0.4,0.5-0.5,0.7v-1.2h-1V73h1v-3.1
			c-0.1-0.6,0.1-1.3,0.5-1.8c0.3-0.3,0.7-0.5,1.1-0.5c0.3,0,0.5,0,0.8,0.2v-1.1 M79.8,67.9c-0.2-0.4-0.5-0.7-0.9-0.9
			c-0.4-0.2-0.8-0.4-1.3-0.3c-0.8,0-1.6,0.4-2.1,1c-0.5,0.7-0.8,1.5-0.8,2.3c0,0.8,0.2,1.7,0.7,2.3c0.5,0.6,1.3,1,2.2,0.9
			c0.5,0,0.9-0.1,1.3-0.3c0.3-0.1,0.6-0.4,0.8-0.6c0.2-0.2,0.3-0.6,0.3-0.9l0,0h-1l0,0c0,0.3-0.1,0.5-0.3,0.6
			c-0.3,0.2-0.6,0.3-1,0.2c-0.6,0-1.1-0.2-1.5-0.6c-0.4-0.5-0.6-1-0.6-1.7h4.4v-0.3C80.2,69,80.1,68.4,79.8,67.9 M79.2,69.1
			L79.2,69.1l-3.4,0.1c0.1-0.5,0.3-0.9,0.6-1.2c0.3-0.3,0.7-0.5,1.1-0.5c0.3,0,0.6,0.1,0.8,0.2c0.3,0.1,0.5,0.3,0.6,0.6
			C79.1,68.6,79.2,68.9,79.2,69.1 M86.2,67.5c-0.2-0.3-0.5-0.5-0.8-0.6c-0.4-0.2-0.8-0.2-1.2-0.2c-0.8-0.1-1.6,0.3-2.1,0.9
			c-0.5,0.7-0.8,1.5-0.7,2.4c-0.1,0.8,0.2,1.7,0.7,2.4c0.5,0.6,1.3,0.9,2.1,0.9c0.4,0,0.8-0.1,1.2-0.3c0.3-0.1,0.6-0.4,0.8-0.6
			c0.2-0.3,0.3-0.6,0.3-0.9l0,0h-1l0,0c0,0.2-0.1,0.5-0.3,0.6c-0.3,0.2-0.6,0.3-1,0.2c-0.5,0-1-0.2-1.3-0.6
			c-0.4-0.5-0.5-1.2-0.5-1.8c-0.1-0.7,0.1-1.3,0.5-1.8c0.3-0.4,0.8-0.6,1.3-0.6c0.4,0,0.7,0,1,0.2c0.2,0.1,0.3,0.4,0.3,0.6v0.1h1
			v-0.1C86.5,67.9,86.4,67.7,86.2,67.5 M51,68.1c0-0.4-0.2-0.8-0.5-1.1c-0.5-0.4-1.1-0.5-1.7-0.5c-0.6,0-1.3,0.2-1.8,0.6
			c-0.4,0.3-0.6,0.8-0.6,1.3c0,0.7,0.5,1.4,1.2,1.6l0.7,0.2l0.3,0.1l0.5,0.2c0.5,0.2,0.8,0.4,0.8,0.8c0,0.3-0.1,0.6-0.4,0.8
			c-0.3,0.2-0.7,0.3-1.1,0.3c-0.3,0-0.7-0.1-1-0.2c-0.2-0.2-0.3-0.4-0.3-0.7l0,0h-1l0,0c0,0.3,0.1,0.7,0.3,0.9
			c0.2,0.3,0.5,0.5,0.8,0.6c0.4,0.2,0.8,0.3,1.3,0.3c0.7,0,1.3-0.2,1.8-0.6c0.4-0.4,0.6-0.9,0.6-1.5c0-0.2,0-0.5-0.1-0.7
			c-0.1-0.2-0.2-0.3-0.4-0.4c-0.1-0.1-0.2-0.2-0.4-0.3c-0.3-0.1-0.6-0.2-0.9-0.3L49,69.3l-0.5-0.1c-0.3-0.1-0.5-0.2-0.7-0.3
			c-0.1-0.1-0.2-0.3-0.2-0.5c0-0.3,0.1-0.5,0.3-0.6c0.3-0.2,0.6-0.3,0.9-0.2c0.3,0,0.6,0.1,0.9,0.2c0.2,0.1,0.3,0.3,0.3,0.5L51,68.1
			 M65.4,71.7c-0.4-0.5-0.6-1.1-0.6-1.7h4.4v-0.3c0-0.6-0.1-1.2-0.3-1.8c-0.2-0.4-0.5-0.7-0.9-0.9c-0.4-0.2-0.8-0.4-1.3-0.3
			c-0.8,0-1.6,0.4-2.1,1c-0.5,0.7-0.8,1.5-0.8,2.3c0,0.8,0.2,1.7,0.7,2.3c0.5,0.6,1.4,1,2.2,0.9c0.4,0,0.9-0.1,1.3-0.3
			c0.3-0.1,0.6-0.4,0.8-0.6c0.2-0.2,0.3-0.6,0.3-0.9l0,0h-1l0,0c0,0.3-0.1,0.5-0.3,0.6c-0.3,0.2-0.6,0.3-1,0.2
			C66.3,72.4,65.8,72.1,65.4,71.7 M64.9,69.3c0.1-0.5,0.3-0.9,0.6-1.3c0.3-0.3,0.7-0.5,1.1-0.5c0.3,0,0.6,0.1,0.8,0.2
			c0.3,0.1,0.5,0.3,0.6,0.6c0.2,0.3,0.2,0.6,0.2,0.9v0.1L64.9,69.3 M58.6,64.4h-2.4V73h2.5c0.8,0.1,1.7-0.1,2.4-0.5
			c0.6-0.4,1-0.9,1.2-1.6c0.3-0.7,0.5-1.5,0.4-2.2c0-0.8-0.1-1.6-0.4-2.3c-0.3-0.6-0.7-1.1-1.3-1.5C60.3,64.5,59.5,64.3,58.6,64.4
			 M57.3,65.3h1.3c0.7,0,1.3,0.1,1.9,0.4c0.4,0.3,0.7,0.7,0.9,1.2c0.2,0.6,0.3,1.3,0.3,2c0,0.6-0.1,1.3-0.3,1.8
			c-0.2,0.5-0.5,0.8-0.9,1.1c-0.5,0.3-1.1,0.4-1.8,0.4h-1.3L57.3,65.3 M137.4,67.9c-0.2-0.4-0.5-0.7-0.9-0.9
			c-0.4-0.2-0.8-0.4-1.3-0.3c-0.8,0-1.6,0.4-2.1,1c-0.5,0.7-0.8,1.5-0.8,2.3c0,0.8,0.2,1.7,0.7,2.3c0.5,0.6,1.4,1,2.2,0.9
			c0.4,0,0.9-0.1,1.3-0.3c0.3-0.1,0.6-0.4,0.8-0.6c0.2-0.2,0.3-0.6,0.3-0.9l0,0h-1l0,0c0,0.3-0.1,0.5-0.3,0.6
			c-0.3,0.2-0.6,0.3-1,0.2c-0.6,0-1.1-0.2-1.5-0.6c-0.4-0.5-0.6-1.1-0.5-1.7h4.4v-0.3C137.8,69.1,137.6,68.4,137.4,67.9 M136.5,68.3
			c0.2,0.3,0.2,0.6,0.3,0.9v0.1h-3.4c0.1-0.5,0.3-0.9,0.6-1.2c0.3-0.3,0.7-0.5,1.1-0.5c0.3,0,0.6,0.1,0.8,0.2
			C136.2,67.8,136.4,68,136.5,68.3 M143.4,68.2c0-0.4-0.2-0.8-0.5-1.1c-0.5-0.4-1.1-0.5-1.7-0.5c-0.6,0-1.3,0.2-1.8,0.6
			c-0.4,0.3-0.6,0.8-0.6,1.3c0,0.7,0.5,1.4,1.3,1.5l0.7,0.2l0.3,0.1l0.5,0.2c0.5,0.2,0.8,0.4,0.8,0.8c0,0.3-0.1,0.6-0.4,0.8
			c-0.3,0.2-0.7,0.3-1.1,0.3c-0.3,0-0.7-0.1-1-0.2c-0.2-0.2-0.3-0.4-0.3-0.7l0,0h-1l0,0c0,0.3,0.1,0.7,0.3,0.9
			c0.2,0.3,0.5,0.5,0.8,0.6c0.4,0.2,0.8,0.3,1.3,0.3c0.7,0,1.3-0.2,1.8-0.6c0.4-0.4,0.6-0.9,0.6-1.5c0-0.2,0-0.5-0.1-0.7
			c-0.1-0.2-0.2-0.3-0.4-0.4c-0.1-0.1-0.3-0.2-0.4-0.3c-0.3-0.1-0.6-0.2-0.9-0.3l-0.4-0.2l-0.5-0.1c-0.3-0.1-0.5-0.2-0.7-0.3
			c-0.1-0.1-0.2-0.3-0.2-0.5c0-0.3,0.1-0.5,0.3-0.6c0.3-0.2,0.6-0.3,0.9-0.2c0.3,0,0.6,0.1,0.9,0.2c0.2,0.1,0.3,0.3,0.3,0.5
			L143.4,68.2 M131,64h-1v9h1V64z"/>
	</g>
</g>
</svg>
