<svg xmlns="http://www.w3.org/2000/svg" viewBox="0 0 355.24 777.63">
<defs>
<style>.cls-1{fill:#c9ced3;}</style>
</defs>
<g id="Capa_2" data-name="Capa 2"><g id="Capa_1-2" data-name="Capa 1">
<path class="cls-1" d="M252.7,313.53l.09.07.09-.11-3.51-3.56a1.43,1.43,0,0,0,.33.6Z"/>
<path class="cls-1" d="M32.1,357.93a8.09,8.09,0,0,0,2.9,1.6,7.74,7.74,0,0,0,2.1-.1,9.18,9.18,0,0,1,2.4,0,5.17,5.17,0,0,1,1.3.6c.2.1.5.3.7.4.1-.1.3-.1.4-.2a3.78,3.78,0,0,1,2.1-.4c.6.2,1.2.8,2,3.5a2.75,2.75,0,0,0,1.5.9c.1,0,.5.1.8.1a6.68,6.68,0,0,1,2.7.4,3.13,3.13,0,0,1,1.1.9l.3.3c.1-.1.2-.2.3-.2.8-.5,1.5-1.1,2.3-.7.2.1.5.4.9.7a9.62,9.62,0,0,0,1.7,1.3,11.49,11.49,0,0,0,2.5.7c-1-16-2.1-33.8-2.1-34.1a1.45,1.45,0,0,1,.2-.7,1.61,1.61,0,0,1,.7-.4l30.1-1.3c-.1-3-.1-7.4-.1-7.9a9.26,9.26,0,0,1,.4-2.3,8.8,8.8,0,0,0,.4-2,23.49,23.49,0,0,0-.4-3.5c-.1-.7-.1-2.7-.1-4.8v-1a11.56,11.56,0,0,1,.1-1.7c.1-.9.1-2.5.1-2.9-.2-.5-1.7-2.1-2.1-2.7a4.68,4.68,0,0,0-.5-.6c-.3-.4-.4-1-.4-3.2v-.1c-.1-.2-.3-.9-.5-1.4a2.54,2.54,0,0,1-.2-1.2c0-.1,0-.4-.1-.5s-.7-.7-.8-.9c-.8-.6-.9-2.7-.5-3.6a10.54,10.54,0,0,1,.7-1.1,2.18,2.18,0,0,1,.4-.5c-.1-.1-.1-.4-.2-.5a4.8,4.8,0,0,1-.5-3.1c0-.7-.1-1.4-.1-1.8a4.81,4.81,0,0,0-1.2-1c-.2-.1-.3-.2-.4-.2a14,14,0,0,1-1.7-2,3.11,3.11,0,0,0-.6-.4,9.22,9.22,0,0,0-.8-.5,2.74,2.74,0,0,1-.7-1.8c0-.1-.1-.3-.1-.4s-.3-.2-.5-.4-.3-.2-.4-.3a10.05,10.05,0,0,1-1.8-2.4c-.1-.3-.2-.8-.4-1.7a6.53,6.53,0,0,1-.2-1.1.91.91,0,0,0-.3-.5,3.77,3.77,0,0,1-.8-1.8,11.77,11.77,0,0,1,.1-3.7A14.93,14.93,0,0,0,75,264a36.42,36.42,0,0,0-.5-4.5,3.22,3.22,0,0,1-.1-.8,8.6,8.6,0,0,1-.1-1.6v-1a2.46,2.46,0,0,0-.4-1.1.76.76,0,0,1-.2-.4,5.14,5.14,0,0,1-.2-2.3,1.27,1.27,0,0,1,.1-.6,10.88,10.88,0,0,0-2.1-2.6l-.1-.1a13.61,13.61,0,0,0-2.1-.2,3.85,3.85,0,0,1-1.2-.5c-1-.6-.9-1.9-.8-2.6-.1-.1-.4-.3-.5-.4l-.5-.1c-.1,0-.1,0-.4.1a8.9,8.9,0,0,1-2.5.3,8.21,8.21,0,0,1-4.6-1.8.76.76,0,0,0-.4-.2,28.86,28.86,0,0,0-5,.4c-.1.2-.4.5-.5.7a3.59,3.59,0,0,1-.7,1,6.5,6.5,0,0,1-4.5,1.9,7,7,0,0,1-3.8-1,2.28,2.28,0,0,1-.7-2,1.61,1.61,0,0,1-.7.4c-.8.2-1.5-.4-2.8-2-.2.1-.3.2-.5.2a11.26,11.26,0,0,1-2.3,1.1,40.17,40.17,0,0,1-5-.2.1.1,0,0,1-.1.1,2.44,2.44,0,0,1-1.2,2.1,2.51,2.51,0,0,1-1.7.5,1.7,1.7,0,0,0-.7.1,4.27,4.27,0,0,0,.2,2.1,5.12,5.12,0,0,1-.1,3,2.19,2.19,0,0,1-2.1,1.7.52.52,0,0,0-.2.4,2.3,2.3,0,0,1-2.6,1.4,3.06,3.06,0,0,1-1.4-1c0,.1.1.2.1.3a1.7,1.7,0,0,1,.1.7c0,1.5-2.2,2.1-3,2.3a3.71,3.71,0,0,1-2.3-.2,19.44,19.44,0,0,0,1.1,4.9c1.1,3,2.6,5.6,3,8.9.2,1.4.9,4,2.6,3.2,1.2-.5,1.4-2.4,2.9-1.8,1.1.4.6,2.5-.2,3.2a4,4,0,0,0-1.7,3.6c.1,1.9.5,3.8-.1,5.8a1.87,1.87,0,0,0,.5,1.4c1.3,1.6,1,3.2.1,4.8-1.8,3.7-3.6,7.4-5.5,11.1a7.46,7.46,0,0,1-.9,1.5,5.4,5.4,0,0,0-1.1,4.6,8.44,8.44,0,0,1-2.2,7.7c-1.8,2-1.7,3.3.5,5.1a4.82,4.82,0,0,1,1.7,2.9,12.29,12.29,0,0,1,.1,3.3,10,10,0,0,0,1,7.2,7.87,7.87,0,0,1,.8,3,1.59,1.59,0,0,1-.4,1.4,22.43,22.43,0,0,1,1.1,2.6,3.53,3.53,0,0,1-.1,1.4,2.77,2.77,0,0,0-.1.9,2,2,0,0,0,1.1-.1c1.6-.8,2.7-.8,3.2.1a2.71,2.71,0,0,1,.3,1.6c0,.3.1.8.1,1a12.81,12.81,0,0,0,2.6,2.6.76.76,0,0,0,.4.2,5.87,5.87,0,0,1,2.3,1.9,4.62,4.62,0,0,0,.7,1,4.85,4.85,0,0,1,1.2,2.4v.2A9.69,9.69,0,0,0,32.1,357.93Z"/>
<path class="cls-1" d="M238,147.73c.1-.1.3-.2.4-.4a6.37,6.37,0,0,0,1-1.8c0-.1-10-.1-9.9-.1l-45.6-1.1-6.8,49.6-.7,4.6,5.2,6.7a1.08,1.08,0,0,1,.2.8c-.1.5-3.1,13.7-3.6,15.2-.3,1-.8,2.1-1.2,3.1a7.91,7.91,0,0,0-.5,1.3v.8a7.16,7.16,0,0,1-.3,2.6,4.61,4.61,0,0,1-1.7,1.7c-.2.2-.6.4-.7.5a15.89,15.89,0,0,0,.2,3.8c.1.1.2.4.4.5a3.88,3.88,0,0,1,1.1,2.6,12.44,12.44,0,0,1-.4,1.6,10.26,10.26,0,0,0-.4,1.4,8.56,8.56,0,0,0,1.4,2.7c.2.1.4.3.7.5a11.41,11.41,0,0,1,2.3,2c.4.7,4.3,10.5,3.9,12.5-.3,1.5-4.3,7.7-5.5,9.6l-13.9,22.8,20.1.3c15-17.7,15.1-17.9,15.3-17.9a2.46,2.46,0,0,1,1.7-.5h.5a12.68,12.68,0,0,1,2,0c.2,0,.6.1,3,1.3l4-5.4a10,10,0,0,1-1.1-1c-.4-.4-.8-.7-.9-.8a14.06,14.06,0,0,1-2.4-2.7c-.2-.3-.5-.7-.7-1a32.1,32.1,0,0,1-3.1-6.2c-.2-.5-.5-1.1-.7-1.5a18.36,18.36,0,0,1-1.1-6.1,5.64,5.64,0,0,0-.1-.7c-.1-1.3,1.7-5.8,1.8-6.3a14.49,14.49,0,0,0-.2-3.9,7.31,7.31,0,0,0-.7-1.9,8.8,8.8,0,0,1-.5-1.5,10.23,10.23,0,0,1,.8-4.4,5.07,5.07,0,0,0,.2-.9,2.6,2.6,0,0,1,2.6-2.1,3.77,3.77,0,0,1,2.1.7,3.28,3.28,0,0,0,1.4.6c.9,0,1.5-.2,2.7-1.5s5-8.3,5.8-9.7a48.11,48.11,0,0,1,4-5.5,22.37,22.37,0,0,0,3.4-5.7c.1-.7.6-10.2.6-10.3-.1-.7.3-1.5,1-3.5.2-.6.5-1.4.6-1.7a4.05,4.05,0,0,0-.5-.9,4.13,4.13,0,0,1-.7-1.8,13.73,13.73,0,0,1,1.1-3.4c.4-1.1,1-2.7,1.1-3.2a8,8,0,0,0-.7-2,8.88,8.88,0,0,1-.7-2.3,21.49,21.49,0,0,1,1.9-5.4c.2-.4.8-.8,2.4-1.7a14.17,14.17,0,0,0,1.6-1.1,49,49,0,0,0,1.8-5.7,9.67,9.67,0,0,1,.6-1.8c.2-.5.7-.9,1.9-1.8a5.47,5.47,0,0,0,1.1-1,72.33,72.33,0,0,0-.6-7.6c-.1-1.1-.1-1.3-.1-1.4C235.9,149.63,236.4,149,238,147.73Z"/>
<path class="cls-1" d="M37.9,75.33a4,4,0,0,1,2.6,2.9,2.2,2.2,0,0,1-.1.8,8.93,8.93,0,0,0,6,3.4c4.6.4,32.8-1.1,33.1-1.1a1,1,0,0,1,.9.4,1.18,1.18,0,0,1,.1,1c-.2.7-.4,1.8-.1,2s.5.2.7.3a1.83,1.83,0,0,1,1.5,1.4,5.17,5.17,0,0,1-1.2,5.4,5.71,5.71,0,0,1-3.6,1.5c-.2,0-.3.1-.4.1a2.75,2.75,0,0,0-.1,1.8,7.32,7.32,0,0,0,1.4,2.4,5.27,5.27,0,0,1,1.9,2.9,6.37,6.37,0,0,1,.2.7c.2.5.5,1.8.7,2.1.5.5,1.8,1.7,2.7,1.6a4.21,4.21,0,0,0,2.6-1.3l.1-.2c.6-1,1.1-1.7,1.8-1.8a3.05,3.05,0,0,1,2.5.1,1.38,1.38,0,0,0,.4.3,16.8,16.8,0,0,0,3.2,2.1,5.67,5.67,0,0,0,3.2.8h.4v-.2a2.9,2.9,0,0,0-.3-1.4,5.77,5.77,0,0,1-.3-1.4c0-2,2.7-2,3.7-2.1h.8a30.89,30.89,0,0,1,5.5.1,3.9,3.9,0,0,1,3.6,2.3,1.37,1.37,0,0,0,1.4.8,2.54,2.54,0,0,0,.7-.2,2.46,2.46,0,0,1,1.7-.2,3.29,3.29,0,0,1,1.3.7c.5.4.8.6,1.1.5s.2-.1.5-.6a1.77,1.77,0,0,1,1.3-1.2c.2-.1.5,0,.9,0a5,5,0,0,0,2.1-.2,4.68,4.68,0,0,0,1.2-2.2c1.4-3.1,4-9,5.8-13.2.1-.2.3-.5.6-.5a.8.8,0,0,1,.8.1l4.7,2.3,8.7-.1H146l22.2-27.6-.6-48.5c-1.1-.3-2.1-.3-2.7-.8-2.7-2.3-5.7-4.3-5.8-8.4,0-.1-.2-.2-.3-.5l-24.3.3c.8,2.9-2.6,3.9-2.7,6.4,0,.2-.6.4-.9.6a2.75,2.75,0,0,0-1.5,3,6.51,6.51,0,0,1-.7,3.9c-.5,1.3-.9,2.6-1.4,3.8-.2.4-.5.8-.8,1.3-1.2-.8-1.1-1.8-.8-2.9a5.07,5.07,0,0,0-2.6-5.9,2.55,2.55,0,0,1-1.4-2.6,2.88,2.88,0,0,0-.7-2,40.55,40.55,0,0,0-3.6-3.6h-2c-3,.1-5.9.1-8.9.1a47.16,47.16,0,0,1,.1,5.2,10,10,0,0,1-1.6,3.9,3.11,3.11,0,0,1-.4.6c-.1,1.1.7,7.6,1.3,8.8.5,1,1.3,1.1,2.7,1.2,2,.1,3.4,1.2,3.6,2.9a.6.6,0,0,0,.1.4,3.64,3.64,0,0,1-.4,2.7,4.62,4.62,0,0,1-.7.7c-.3.2-.3.2-.3.4s.6.8,1.4,1.3a2.54,2.54,0,0,1,1.6,2.3c.1,3,.4,4.6.7,5.1.2,0,.2-.1.3-.1s.1-.2.1-1c-.1-1.8.9-2.7,2.7-2.7s2.6,1.4,3.3,2.6c.6.9,1,1.5,1.4,1.5a2.39,2.39,0,0,0,1.8-1.1,3.54,3.54,0,0,1,2.4-1.4,10.45,10.45,0,0,1,4.6,1.3,1,1,0,0,1,.5.8l.8,17a1,1,0,0,1-1,1c-1.1.1-2.1,1.5-2.8,2.5a6.94,6.94,0,0,1-1,1.2,3.32,3.32,0,0,1-3.2.6,3,3,0,0,0-1.7,0,6.62,6.62,0,0,0-.1,1.5,7.08,7.08,0,0,1-.1,1.5c-.2,1-.6,2.2-2.4,2.2a3.57,3.57,0,0,1-3.2-2.3,2,2,0,0,0-.8-1.2h-.3a1.7,1.7,0,0,0-.4.7c-.9,1.9-2.6,1.9-3.8,1.9h-.2a2.44,2.44,0,0,1-2.6-2.5.54.54,0,0,0-.3-.4l-.4.4c-.4.4-.8,1-1.6,1a5.66,5.66,0,0,1-3.1-1.5,3.43,3.43,0,0,0-1.7-.7,1.06,1.06,0,0,0-.5.2,2.88,2.88,0,0,1-1.6.3,3.12,3.12,0,0,1-2-1.2,3,3,0,0,1-.7-1.9,1.79,1.79,0,0,0-.4-1.4,3.34,3.34,0,0,1-.9-2.6.69.69,0,0,0-.3-.5,2.91,2.91,0,0,1-1.4-1.8,2.26,2.26,0,0,1,.1-1.6,2.16,2.16,0,0,0,.1-1.1,5.67,5.67,0,0,0-.8-1.3c-.1,0-.3.1-.4.1a4.87,4.87,0,0,1-1.2.1,5.3,5.3,0,0,1-2.4-2,3.4,3.4,0,0,1-.2-1.4,2.2,2.2,0,0,0-.1-.8,3.51,3.51,0,0,0-.9-.7,12.13,12.13,0,0,1-1.4-1c-.8-.8-.7-2.4-.5-4.3a7.3,7.3,0,0,0,.1-2,8.25,8.25,0,0,0-2.5-1.5c-.5-.2-.9-.5-1.3-.7a3.19,3.19,0,0,0-3.3-.3c-.8.3-.9,1.5-1,2.9a2,2,0,0,1-.1.8c.2.2.8.7,1.2,1a3.92,3.92,0,0,1,1.8,1.8c.5,1.4-.2,4.6-.7,5.5a11.48,11.48,0,0,0,.2,2.4c.2,1.8.4,2.9-.1,3.5a2,2,0,0,1-2.3.6c-.1,0-.1-.1-.2-.1s-.1.3-.1.4v.2A2.57,2.57,0,0,1,75.6,57a2.44,2.44,0,0,1-2.9-1.8h-.6A4.26,4.26,0,0,1,69.3,54a2.48,2.48,0,0,1-.8-2c0-.2-.1-.6-.1-.7s-.1-.2-.7-.2a6.37,6.37,0,0,0-.9-.2,5.67,5.67,0,0,1-2.4-1.5,11.22,11.22,0,0,0-1.6-1.3,2.36,2.36,0,0,1-.9-.8,20,20,0,0,0-.5,2.6c-.5,2.6-1.7,3.9-4.2,4.9a127.06,127.06,0,0,0-12.9,6c-4.5,2.4-7,6.5-7.8,11.6C36.2,74.23,36.4,74.73,37.9,75.33Z"/>
<path class="cls-1" d="M175.8,267.43c2.4-3.6,5-8,5.2-8.9.1-1.3-3-9.9-3.6-11a6.34,6.34,0,0,0-1.7-1.4,3.51,3.51,0,0,0-.8-.5c-1.1-.8-2-3.3-2.1-3.8a4.68,4.68,0,0,1,.4-2.5c.1-.4.3-.9.4-1.2a2.82,2.82,0,0,0-.7-1.1,4.7,4.7,0,0,1-.6-.9c-.5-1-.5-4.5-.4-5.2s.8-1.1,1.5-1.7a4.87,4.87,0,0,0,1-.8,9.72,9.72,0,0,0,.1-1.8,4.89,4.89,0,0,1,.1-1.3,7.34,7.34,0,0,1,.7-1.7c.4-.9.8-2,1.1-2.9.4-1.4,2.9-12.3,3.5-14.7l-5.2-6.7a1.08,1.08,0,0,1-.2-.8l.6-4.4-4.6-7.6-19.3.4a.91.91,0,0,1-.8-.4l-2-2.3c-1.7.1-7.1.1-8.7.2-2.3,0-4.5-1.8-5.2-2.4a12.71,12.71,0,0,1-1.7-2.4,18.56,18.56,0,0,0-1.2-1.8,52.61,52.61,0,0,0-7.3.4c-1.1.1-2.1.2-2.7.2a17,17,0,0,0-2.2.4,4.94,4.94,0,0,0-2.3,1.5c-.4.7-.5,3-.5,4.5a18,18,0,0,1-.3,3.2c-.4,1.5-2.3,3-4.3,4.6l-.1.1c-.4.4-1.1.8-1.7,1.3-.2.2-3.5,2.7-3.6,2.9a14.62,14.62,0,0,0-.4,3.5c-.1,1.3-.2,2.3-.3,2.9a18,18,0,0,1-2.1,4.2,4.12,4.12,0,0,0-.1,1.2,10.28,10.28,0,0,1-.1,1.8,11.45,11.45,0,0,1-1.9,3.6c-.1.1-.1.2-.2.2-.1,1.7.5,12.5,1,20.7.8.1,2.4.7,6.3,3.1.8.5,4.9,3,5.3,3.9a3.3,3.3,0,0,1-.1,2.4,1.09,1.09,0,0,0-.1.5,4.62,4.62,0,0,0,.7.7,2.4,2.4,0,0,0,1.2,0l.1-.1a1.93,1.93,0,0,1,1.2-.9,1.74,1.74,0,0,1,1.5.5,4.64,4.64,0,0,1,1.3,3,80.53,80.53,0,0,1-1.2,16.6,10.75,10.75,0,0,1-1.9,3.6l1.5,38.3,32.2-.4-.2-14.4a.91.91,0,0,1,.3-.7,1.08,1.08,0,0,1,.7-.3l9.7.1Z"/>
<path class="cls-1" d="M7.8,236.43a2,2,0,0,1,1.1,2.8c-.5,1.3.2,1.8,1.2,2.2s1.8.7,2.7,1.1a14.58,14.58,0,0,1-.4,1.7,5.34,5.34,0,0,0,.1,5.2,18.75,18.75,0,0,0,2.4,3.8,7.64,7.64,0,0,1,1.5,2.6,8.18,8.18,0,0,0,2.1.3,6.24,6.24,0,0,0,1.4-.5v-.2c-.1-.7-.3-1.6.4-2.2.9-.8,1.7-.9,2.4-.4a1.38,1.38,0,0,0,.4.3,2.41,2.41,0,0,0,.8.6.35.35,0,0,0,.2-.1,2.45,2.45,0,0,1,2-1.8h.3a.44.44,0,0,0,.1-.3,2.85,2.85,0,0,0,.1-1.8c-.7-2.3-.4-3.9.8-4.5a3.64,3.64,0,0,1,1.6-.3c.4,0,.4,0,.5-.1.3-.2.3-.3.3-.5a2.25,2.25,0,0,1,.8-1.6,2.1,2.1,0,0,1,1.5-.5,27.46,27.46,0,0,0,4.3.3,14.68,14.68,0,0,0,1.7-.9c1.2-.7,1.7-.9,2.2-.6.2.1.3.2.7.7a13.5,13.5,0,0,1,.9,1.1c.4-.5.9-1.1,1.9-.7a2.58,2.58,0,0,1,1.2,2.4v.8a5.76,5.76,0,0,0,2.4.5,4.14,4.14,0,0,0,2.9-1.2,3,3,0,0,1,.5-.7c.5-.8.9-1.4,1.7-1.6.1,0,5.4-.8,6.5-.2a2.31,2.31,0,0,1,.7.5c.8.5,2,1.5,3.4,1.4a7.47,7.47,0,0,0,2-.2,2.77,2.77,0,0,1,1.3-.1l.7.2c.1,0,.2.1.3.1,1.7,1,1.7,1.7,1.7,2v.4c0,.2-.1.6,0,.8a1.29,1.29,0,0,0,.7.1h.5a8,8,0,0,0,.7-2,.35.35,0,0,1,.1-.2,6.13,6.13,0,0,0-.4-.6,2.18,2.18,0,0,1-.5-.8,2.39,2.39,0,0,1,.5-1.9c.2-.4.5-.7.6-1a3.3,3.3,0,0,0,0-1.4,2,2,0,0,1-.1-.8,2.16,2.16,0,0,1,2-2.1c.5-.1,5.9-.5,9.9-.8a1.69,1.69,0,0,1-.2-.5c-.2-.5-.4-.9-.5-1.2a4.71,4.71,0,0,1-.2-.5c-.1-.1-.4-.1-.6-.2a5.37,5.37,0,0,1-3-1.5,14.86,14.86,0,0,1-1.8-5.5c-.1-1.6-.5-5.7-1.3-7.4a35.75,35.75,0,0,0-5.9-9.5,38.59,38.59,0,0,1-4-5.2,5.22,5.22,0,0,0-1.1-1.5c-.4-.4-3.1-2.1-5.2-3.4-2.6-1.7-5-3.2-5.9-3.9-.4-.4-1.1-.9-1.8-1.5-1.2-1.1-3.4-3-4-3.4a8.34,8.34,0,0,1-1.2.4,4.17,4.17,0,0,1-2.3.6h-.7a2.41,2.41,0,0,1-1.7-.4c-.2-.1-.3-.4-.6-.7a5.31,5.31,0,0,0-.9-1.1,21.89,21.89,0,0,0-4.6-.4c-.2,1.7-1.4,1.7-1.8,1.7-2.2,0-3.7-4.3-3.9-5.8a6,6,0,0,1,.3-2.3.76.76,0,0,0,.1-.4,1.55,1.55,0,0,0-.2-.8,3.66,3.66,0,0,1-.3-1.4,3.36,3.36,0,0,1,1.1-2.4,2.23,2.23,0,0,0,.9-1.7c-.1-4-.5-5.1-.7-5.4a5.67,5.67,0,0,0-1-1.1,3.24,3.24,0,0,1-.9-.8,8,8,0,0,1-.9-1.4,4.23,4.23,0,0,0-.5-.7c-.1-.1-.5-.2-.8-.4a4.44,4.44,0,0,1-2.1-1.3,5.39,5.39,0,0,1-.7-1.3c-.4-1.1-.7-1.6-1.5-1.7a5.07,5.07,0,0,0-.9.2,4.88,4.88,0,0,1-1.9.4,6.09,6.09,0,0,1-2.8-.6c-.1.2-.1.5-.2.8a7.81,7.81,0,0,0,.8,5.2c1.6,3,1.2,6-.1,8.9a28,28,0,0,1-1.5,3,6.61,6.61,0,0,0-.6,6.1c.9,2.4,1.7,4.8,2.6,7.2a3.75,3.75,0,0,1-.1,3.7,3.35,3.35,0,0,0-.2,3.6,2.22,2.22,0,0,1-1.8,3.2,3.68,3.68,0,0,0-3.1,2.6,17.48,17.48,0,0,0-1.9,8.8,5.3,5.3,0,0,1-.7,3.7,2.69,2.69,0,0,0-.3,2.6,7.77,7.77,0,0,1,.2,1.6c-.4.2-.7.5-1,.5-2,.4-2.6,1.8-2.9,3.6-.2,1.5-.4,3-.7,4.5C5.2,233.53,5.6,235.43,7.8,236.43Z"/>
<path class="cls-1" d="M134.5,490.73a4.73,4.73,0,0,1-3.7-.4c-2-1.1-3.8-2.3-5.9-3.7.8-.6,1.2-1.3,1.9-1.4a6.54,6.54,0,0,0,3.7-2.3,2.75,2.75,0,0,1,1.5-.8c3.7-.9,6.4,1.4,6.2,5.2a2.72,2.72,0,0,0,3.5,2.9c1.6-.5,3.1-1,4.7-1.5a4.48,4.48,0,0,0,3.3-4.1c.1-1.7.2-3.5.2-5.2a25.34,25.34,0,0,0-.7-3.8,23.81,23.81,0,0,1-.5-2.6c-.1-1.7-1.2-2.7-2.8-2.1a3.26,3.26,0,0,0-1.7,1.3c-.8,1.6-2,1.8-3.6,1.5a11.42,11.42,0,0,0-2.7-.2c.4,2.6,2.7,1.7,3.9,2.6.4,1.1.1,2.3-.9,2.4a27.65,27.65,0,0,1-6.4.5c-1.2-.1-1.4-1.1-.6-2,.3-.4.7-.5,1-.9.6-.8.4-1.5-.5-1.7a6.56,6.56,0,0,0-2.8.1,5.36,5.36,0,0,1-5.3-1c-1-.7-1.5-1.3-1.5-2.1-14.2.4-54.6,1.7-79,3.8-12,1.1-29,2.8-36.2,3.6a3,3,0,0,1-.7,1.9H7.6a3,3,0,0,0-3.1,2.7,4.4,4.4,0,0,0,.5,3.3c1.2,2,.8,3-1.4,4a1,1,0,0,0-.5.4c0,2.4.1,4.7.1,7,0,1.2.7,1.7,1.8,2,1.3.3,2.7.3,3.9,1.4-.4.8-.8,1.7-1.2,2.4a3.62,3.62,0,0,0-.2,4.2,24.74,24.74,0,0,0,2.8,3.8,7.78,7.78,0,0,1,2.3,5,9.76,9.76,0,0,1-.8,4.8,3.93,3.93,0,0,0-.3,2.8,5.07,5.07,0,0,1-.3,4.5c-.3.6-.5,1.3-.8,1.9-.5,1.3.4,2,1.1,2.6a1.63,1.63,0,0,0,2.4-.1c.7-.5,1.3-1.2,2-1.8,1.4,1,2.7,1.8,4.4.7a2.63,2.63,0,0,1,2,.5c.4.3.4,1.3.2,1.8a23.88,23.88,0,0,1-1.6,3.2,9,9,0,0,0-1.9-.5,1.94,1.94,0,0,0-1.5.2,7.41,7.41,0,0,1-5.8,1.4,2,2,0,0,0-2.4,1.5A2,2,0,0,0,10,543a4.29,4.29,0,0,1,1.7,2.6c.4,1.7.5,1.8,2.4,1.6,3-.4,5.2,1.1,7.1,3.2a2.57,2.57,0,0,1,.5,2.9,5.88,5.88,0,0,1-2.7,2.9,5.1,5.1,0,0,0-2.8,4.1,5.9,5.9,0,0,0,1.2,4.6,4.79,4.79,0,0,1,.9,2.1c5.5-.4,18.4-1.3,31.2-2,14.5-.8,32.4-1.7,37.2-1.9a9.49,9.49,0,0,1,.9-2.1,56.28,56.28,0,0,0,4.6-8.3c.8-2.2,2.9-3.4,3.7-5.5.1-.3.8-.4,1.2-.5a6.48,6.48,0,0,1,2,.2c2,.3,2.3.2,3.2-1.6.2-.3.4-.7.6-1,.7.1,1.3.1,2.4.2-.8-.9-1.3-1.5-1.6-1.9.9-.9,1.7-1.6,2.5-2.4a3,3,0,0,0,.5-.7c1.3-1.4,2.7-1.2,3.6.6.1.3.5.5.9,1,2.1-3.6,3.7-.1,5.6.3,2.6-2.1,2.8-2.6,2-4.7-.5-.1-1-.1-1.5-.2-1.2-.3-1.5-.8-1.3-2.4.2-1.3-.1-3.4,1.7-3.4,2.1-.1,3.4-.5,4.1-2.6.1-.2.5-.3.7-.5.7-.7,1.4-5.3.9-6-.1-.2-.4-.3-.5-.4-1.1-.5-.9-1.4-.3-2.1,1.1-1.4.8-2.9.3-4.3-.2-.6-.5-1.1-.7-1.7a7.51,7.51,0,0,1,.9-7.1c.8-1.3,1.7-2.5,2.4-3.8,2.4-4.4,5.6-7.7,10.9-8.6,1-.2,1.2-1,.8-1.9A2.27,2.27,0,0,0,134.5,490.73Z"/>
<path class="cls-1" d="M82.5,715c.1.2.8.4.9.3a1.5,1.5,0,0,0,.4-1.1,22.89,22.89,0,0,0-1.4-2.7c-.8-1.3-2-2.4-2.3-3.8a9.41,9.41,0,0,0-3.6-5.3,4.76,4.76,0,0,1-1.8-2.6,6.14,6.14,0,0,0-1.9-2.9c-.4-.4-1.4-.4-2.1-.6a1.38,1.38,0,0,1-.3-.4c.4-1.7,2.6-1,3.4-2.4-1.8-1.7-2.2-4-2.8-6.3-.4-1.5-.9-3-1.3-4.5-.2-.9-.6-1.5-1.7-1.4-.2,0-.5-.3-.7-.5.1-.3.1-.6.2-.7,1.8-1.6,2.2-3.6,2-6-.1-.8,0-1.5-.1-2.3a10.47,10.47,0,0,1,1.2-5.2c1-2,2.4-3.5,4.7-3.8.4-.1.9-.1,1.4-.2,1.5-.4,1.9-1.4.8-2.4a4.76,4.76,0,0,1-1.4-4.2,4.82,4.82,0,0,1,2.2,2.5c.5,1,1.1,1.7,2.4,1.5s2.9-.2,3.5-1.9a21.55,21.55,0,0,1,4.5-7,4.38,4.38,0,0,0,1.1-3.5,30.12,30.12,0,0,1-.1-5.2c.1-1.2.9-2.5-.6-3.4a.6.6,0,0,1-.1-.4c.4-2.4.7-4.9,2.6-6.6a8.58,8.58,0,0,0,2.6-3.6c.9-2.1,1.8-4.3,4-5.5a2.7,2.7,0,0,0,.7-.8,13.54,13.54,0,0,1,6.9-5.1,3.82,3.82,0,0,0,2.3-2c.9-2.4,2.5-3.6,5.2-3.3,1.5.2,1.7-.1,1.9-2-.5-.6-1.8-.4-1.7-1.7.2-1.7,1.7-1.4,2.7-2a14.35,14.35,0,0,0-.4-2.2c-.8-2.5-1.5-2.7-3.6-1.2a13.27,13.27,0,0,1-2.1.9,1,1,0,0,0-.4-.5,14.06,14.06,0,0,1,1.8-1.7c.7-.5,1.5-.6,2.2-1.1a4.29,4.29,0,0,0,1.5-1.5,17.2,17.2,0,0,0,.1-9.8,2.65,2.65,0,0,0-2.5-2,33.81,33.81,0,0,0-4.5.1,20.08,20.08,0,0,1-2.4.1c-2.7-.5-5.3-1.1-8-1.6a1.42,1.42,0,0,1-.2-.6,7.93,7.93,0,0,0-5.5-6.3c-3.8-1.3-5.5-4-6.1-7.6-.4-2.1-.5-4.3-.7-6.4-5,.2-22.6,1.1-37,1.9-12.3,1.1-25.6,2.1-30.8,2.4a4.26,4.26,0,0,1-1.2,1.1c-.8.5-1.1,1.1-.8,1.8a4.28,4.28,0,0,0,.8,1.8c1.7,1.7,2,3.9,2,6.1.1,2.7,0,5.4-1.7,7.7a5,5,0,0,0,.1,5.7c1.2,2,1,3.3-.6,5.1a27.25,27.25,0,0,1-2.5,2.3,4.46,4.46,0,0,0-2,5,5.46,5.46,0,0,1-1.8,5.7,2.12,2.12,0,0,0-.5,3c1.2,2.3,2.5,4.6,3.9,6.8,1.2,1.9,1,3.6-1,4.6a3,3,0,0,0-1.5,1.8,5.53,5.53,0,0,0,.3,4,7.44,7.44,0,0,1,.2,5.1,13.54,13.54,0,0,1-5.3,7.9,5.24,5.24,0,0,0-2.2,3.9,36.21,36.21,0,0,1-1.7,7.4,14.84,14.84,0,0,1-2.1,3.4v1.8c.3.4.7.6.8,1,.6,1.6,1.1,3.3,1.6,4.9a4.16,4.16,0,0,1,.2,2.2c-.6,2.4.4,4.5,1.5,6.4A9.84,9.84,0,0,1,5.8,682a1.78,1.78,0,0,0,1.5,2.1c2.5.8,4.2-.1,4.9-2.7a3.61,3.61,0,0,1,3.1-2.8c1.1-.2,2.1-.5,3.3-.7.7.9,1.5,1.9,2.3,2.9,1.7,2.1,1.8,3.5.2,5.7-.4.5-.7,1.1-1.2,1.7,1.8,1.7,1.5,3.7.8,5.6.6.8,1.1,1.4,1.5,2-1.5,2.6-1.6,4.2-.2,5.8a17.33,17.33,0,0,0,2.1,1.7,7.32,7.32,0,0,1,3.2,4.5c.5,2.7,2,3,4.3,2.8,6-.7,11.9-1.3,17.9-1.9,2.1-.2,4.3-.5,6.5-.5a6.21,6.21,0,0,1,3.1.8,9.45,9.45,0,0,0,8.3,1.5c3.1-.9,5.9-.4,8,2.4a3.48,3.48,0,0,0,4.2,1.3C80.7,713.93,81.9,713.53,82.5,715Z"/>
<path class="cls-1" d="M4.5,435.43l1.5,1.8c-.4.4-.6.7-.8.7-1.8.7-2.1,2.1-2.3,3.8a7.9,7.9,0,0,0,1.2,5.4,2.31,2.31,0,0,1,.5,2.9,7.74,7.74,0,0,0-1.4,4c2.2.1,2.6.4,2.8.6a2.43,2.43,0,0,1,.9,1.5c0,.1,0,.1.1.1h.1c.1-.6.4-1.6,1.4-1.6a3.19,3.19,0,0,1,1.6.6c.3.1.7.4.9.4h.2a2.34,2.34,0,0,0,1.4.1,11.82,11.82,0,0,1,2.8-1.4c.1,0,.2-.1.3-.1.6-.1.9-.2,1-.5a9.63,9.63,0,0,0,.4-3.3c-.1-.1-.1-.2-.1-.4a4.87,4.87,0,0,1-.5-2.7c.3-1,2.6-3,3.3-3.3.3-.1.7-.2,1.1-.3a5.27,5.27,0,0,0,1.5-.5c.2-.1,1-.8,1.6-1.3a13.48,13.48,0,0,1,3.3-2.4,4.68,4.68,0,0,1,1.7-.2,7,7,0,0,0,1.6-.2,8.21,8.21,0,0,0,2.5-2.4c0-.2-.1-.6-.1-1-.2-2.1-.4-4,.1-5.1a8.34,8.34,0,0,1,1.6-2.1,5.74,5.74,0,0,0,.8-.9,2,2,0,0,0,.2-.9,7.5,7.5,0,0,1,.9-2.5,21,21,0,0,1,2.6-2.4c2.1-1.9,2.7-2.1,2.8-2.1a1.45,1.45,0,0,1,.7-.2,3.34,3.34,0,0,0,1.2-.5,2.51,2.51,0,0,0,.2-1,2.84,2.84,0,0,1,.4-1.3c.9-1.4,1.8-2.1,2.6-2a2.87,2.87,0,0,1,1.1.6l.2.2a10.88,10.88,0,0,0,3.1-1.8l.1-.1c.8-.8,1.1-1,1.4-1.7.1-.1.1-.3.2-.5a3.41,3.41,0,0,1,1.1-1.8,2.64,2.64,0,0,1,1.5-.5H56l.1-.1a10.81,10.81,0,0,0,.5-2.1,5.67,5.67,0,0,1,.9-2.6c1.7-1.5,4.6-4.2,5.9-4.6a4.62,4.62,0,0,1,2.6.4,9.2,9.2,0,0,0,.9.3c.8-.2.9-.4.9-.4a1.78,1.78,0,0,1-2-.7,3.07,3.07,0,0,1-.2-2.1,2.49,2.49,0,0,0,.1-.8,4.62,4.62,0,0,1-1-.7c-1.5-.9-3.1-1.8-3.1-3.2,0-.5-.7-10.9-1.4-22.8a17.34,17.34,0,0,1-3.5-1,8.7,8.7,0,0,1-2.1-1.7c-.1-.1-.2-.1-.2-.2-.1.1-.3.2-.4.3a3.75,3.75,0,0,1-1.2.7c-.8.2-1.4-.4-2-.9-.2-.2-.5-.5-.7-.5a9,9,0,0,0-1.8-.2,3.75,3.75,0,0,1-1.1-.1c-.7-.1-2.8-.9-3.1-2.4a18.16,18.16,0,0,0-.7-2,1.42,1.42,0,0,1-.6.2c-.3.1-.6.3-.9.4a3,3,0,0,1-2-.6c-.2-.1-.5-.3-.7-.4a6,6,0,0,0-1.8.1,20.08,20.08,0,0,1-2.4.1c-1.5-.1-3.9-1.8-4.5-2.5-.4-.5-.5-1.5-.5-3.8V355a11.65,11.65,0,0,0-.8-1.3,3.81,3.81,0,0,1-.8-1.3,3.27,3.27,0,0,0-1.4-1.1,2.19,2.19,0,0,1-.5-.3,20.58,20.58,0,0,1-3.3-3.3,3.44,3.44,0,0,1-.4-2v-.2c-.1.1-.4.1-.5.2a4.44,4.44,0,0,1-3.2.1c-1-.4-.9-1.7-.7-2.9a3.08,3.08,0,0,0,.1-.9,6.9,6.9,0,0,0-1.5-1.5c-.1,0-.2,0-.2-.1a2.44,2.44,0,0,0-3.1,2.1,5.94,5.94,0,0,1-3.9,4.6c-1.8.8-2.2,2.3-2.1,4,0,.5.2,1,.2,1.4-.2.2-.2.4-.4.5a2.75,2.75,0,0,0-1.7,3.5,2.82,2.82,0,0,1-.2,1.8,4.81,4.81,0,0,0,.2,3.9c.8,2.3,1.5,4.6.2,6.9.7.8,1.2,1.6,1.8,2.3-2.3,2.3-2.4,4-.6,6.6a22,22,0,0,0,1.4,1.8c1.6,2,2.8,4.1,2.1,6.8a4,4,0,0,0,1.5,4,13.77,13.77,0,0,1,2.2,2.6c1.7,2.6,1.4,4.2-1,6.3a32.12,32.12,0,0,1-3,2.1c-.5.4-1,.6-1.5,1-2.4,1.8-2.7,4.2-.9,6.6a8.65,8.65,0,0,1,.7,1c.9,1.8.8,3.2-.7,4.6a3.22,3.22,0,0,0-1.2,2.6,2,2,0,0,1-1.1,2c-2.1,1.7-2.3,3.6-.9,6a7.46,7.46,0,0,1,.7,1.2,10.47,10.47,0,0,1,.2,3.5c-.1.5-1.2,1-1.9,1.4a1.57,1.57,0,0,0-.7,2.4A19.2,19.2,0,0,0,4.5,435.43Z"/>
<path class="cls-1" d="M65.9,30.83c-.2.8-.3,1.5-.5,2.2l-3,12.3c.6.3,1.1.9,1.8,1.3a7.13,7.13,0,0,1,1.8,1.5c.6.5,1,1,1.4,1a2.2,2.2,0,0,0,.8.1,2.6,2.6,0,0,1,2,1,2.79,2.79,0,0,1,.5,1.7c0,.2.1.6.1.7a2.16,2.16,0,0,0,1.4.7h.1a2.32,2.32,0,0,1,2.6,1.5c.1.3.7.2.8.2.7-.1.7-.3.7-.4v-.2a2.27,2.27,0,0,1,1.4-2.2,1.69,1.69,0,0,1,1.4.1,13.66,13.66,0,0,0-.2-1.9,7.89,7.89,0,0,1,0-3.5,10.24,10.24,0,0,0,.7-4,3.47,3.47,0,0,0-1.1-.8c-1-.7-2.3-1.5-2.1-2.8,0-.2.1-.5.1-.7.1-1.4.2-3.9,2.3-4.7a5,5,0,0,1,5,.5A10.91,10.91,0,0,0,85,35c1.6.8,3.3,1.5,3.6,2.9a6.33,6.33,0,0,1-.1,2.7,13,13,0,0,0-.1,2.7,7.05,7.05,0,0,0,.9.7,3.92,3.92,0,0,1,1.8,1.8,5.7,5.7,0,0,1,.1,1.3c0,.2,0,.5.1.6a4.81,4.81,0,0,0,1.1.9c.1,0,.2-.1.4-.1a2.33,2.33,0,0,1,1.8.2,4.14,4.14,0,0,1,1.8,2.6,5.46,5.46,0,0,1-.1,1.8,1.7,1.7,0,0,0-.1.7,2.19,2.19,0,0,0,.3.5,2.63,2.63,0,0,1,1.5,2.3c0,.7.1.9.4,1.1a3.49,3.49,0,0,1,1,3.1,2,2,0,0,0,.8.8,3.71,3.71,0,0,0,.9-.2,5.16,5.16,0,0,1,1.1-.2,5.22,5.22,0,0,1,3.1,1.3c.5.4,1.2.8,1.5,1l.2-.2a2.47,2.47,0,0,1,1.9-1.1,2.35,2.35,0,0,1,2.4,2.3c0,.5.2.5.5.5h.2c1.2,0,1.7-.1,2-.8.8-1.6,1.4-1.8,2.4-1.8h.1c1.2,0,2.3,1.3,2.7,2.6a1.36,1.36,0,0,0,1.2,1,1,1,0,0,0,.4-.1s.1-.1.1-.5a2,2,0,0,0,0-1.1c0-1.1-.1-2.2.6-2.9,1.1-1.2,3.1-.8,3.7-.6.8.2.9.2,1.4-.2a8.11,8.11,0,0,0,.6-.8c.8-1.1,1.8-2.6,3.3-3.2l-.8-15.5a8.78,8.78,0,0,0-3.1-.8,2.16,2.16,0,0,0-1,.8,5.05,5.05,0,0,1-3.3,1.8c-1.6,0-2.5-1.4-3.2-2.4s-1.1-1.6-1.6-1.6c-.8,0-.8.1-.7.7a2.93,2.93,0,0,1-.7,2.4,2.35,2.35,0,0,1-1.9.7c-1.8,0-2.2-2.6-2.3-3.6a25,25,0,0,1-.2-3.5c0-.1,0-.2-.5-.5s-2.4-1.4-2.4-3a2.44,2.44,0,0,1,1.1-2l.3-.3a2.77,2.77,0,0,0,0-1.3,4.33,4.33,0,0,1-.1-.5c-.1-1-1.4-1.1-1.6-1.1a4.6,4.6,0,0,1-4.3-2.1c-1-1.6-1.9-9.3-1.5-10.4l.5-1a7.71,7.71,0,0,0,1.3-3.2,42.66,42.66,0,0,0-.1-4.9c-2.7.1-5.5.1-8.2.1a3.36,3.36,0,0,1-3-1.1A3.57,3.57,0,0,0,90.4,3a1.9,1.9,0,0,1-2.1-1.6C88,0,87.1-.07,85.9,0a3.15,3.15,0,0,0-3.1,2.9,17,17,0,0,1-.4,2.2c-.4,2.2-.5,2.3-2.8,2.3-1.2,0-2,.3-2.3,1.6-.2.9-.8,1.1-1.7,1.1-2.4.1-2.8.5-3.3,2.8a3.5,3.5,0,0,1-1.7,2.5,20.68,20.68,0,0,1-2.5,1.5,3.35,3.35,0,0,0-2.1,2.9,5.65,5.65,0,0,1-2.6,4.5c-1.7,1.2-1.7,2.7-.1,4.2C64.1,29.33,65,30,65.9,30.83Z"/><path class="cls-1" d="M171.9,54.23a29.54,29.54,0,0,0,3.3.8,25.54,25.54,0,0,1,2.8.8,10.77,10.77,0,0,1,3.7,2.4,2.18,2.18,0,0,1,.5.4h.4a2.82,2.82,0,0,1,1.5.4c.3.2.5.7.8,1.1a2.19,2.19,0,0,0,.3.5h.2c.9.1,1.5.1,1.9.5a2.57,2.57,0,0,1,.5,1.4,3,3,0,0,1,.2,1,2,2,0,0,0,.8.1,9.07,9.07,0,0,1,3.3,1,12.9,12.9,0,0,1,3.5,3,5.74,5.74,0,0,0,.4.7,18.17,18.17,0,0,0,2,2.9,12.7,12.7,0,0,1,1.2,1c.2.2.5.5.7.5a11.18,11.18,0,0,1,2.9,1.2,9,9,0,0,1,.9,1,3.17,3.17,0,0,0,.5.6c.1.1.3.1.5.2a4.75,4.75,0,0,1,2.1,1.1c.1.1.9.8,1.7,1.5,3.2,2.8,4.9,4.3,5.4,5.1a23.79,23.79,0,0,1,1.2,2.7,6.22,6.22,0,0,0,.7,1.6,16.23,16.23,0,0,0,2.2,2.6,2,2,0,0,0,.8.1,5.33,5.33,0,0,1,1.9.4,5.12,5.12,0,0,1,1.3,1.5,1.9,1.9,0,0,0,.7.8l.5.5a5,5,0,0,1,1,1.1,12,12,0,0,0,.6,1.2c.4.7,1.1,2.4,1.4,2.7.1.1.2.1.2.2a8.62,8.62,0,0,0,1.8,1.4.76.76,0,0,1,.4-.2c.5-.2,1.2-.7,2-.2a1.88,1.88,0,0,1,1.1,1.6,1.09,1.09,0,0,0,.1.5c0,.3.1,1,.1,1.3.1.1.4.3.5.5a2.65,2.65,0,0,0,.6.5.52.52,0,0,1,.2.4,3.74,3.74,0,0,0,.6.7c.2-.1.8-.2,1.2-.4a12,12,0,0,1,2.3-.5,4.85,4.85,0,0,1,3,1.7,9.46,9.46,0,0,0,2.3,1.4,2.51,2.51,0,0,1,.7.4c.1.1.2.1.3.2a2.54,2.54,0,0,1,1.2,1.1,6.89,6.89,0,0,1,.3.8c.1.2.1.5.2.7s.2.1.4.1a1.85,1.85,0,0,1,1.2.8,5.9,5.9,0,0,1,.4.8.37.37,0,0,1,.1.3,1.38,1.38,0,0,0,.4.3,2,2,0,0,1,.9.9,11.1,11.1,0,0,1,1.2,4.3A3.67,3.67,0,0,0,251,120a15.38,15.38,0,0,1,3.9-4.9A3.89,3.89,0,0,0,256,113a49.41,49.41,0,0,0,1.2-6.7c.4-3.3,1.8-5.6,5-6.7a2.47,2.47,0,0,0,1.8-3,2.22,2.22,0,0,1,2.1-2.7c1.1-.2,1.8-.7,1.9-1.8a4.56,4.56,0,0,1,1.8-3.2,6.37,6.37,0,0,0,2.3-5.2c0-1.1-.3-2-1.4-2.3a2,2,0,0,1-1.7-1.8c-.1-1-.7-1.4-1.7-1.3a4.82,4.82,0,0,1-1.2,0c-1.1-2.4-1.8-3-3.5-2.2-2.2,1-3.9.2-5.3-1.2a21.79,21.79,0,0,0-8.5-4.8,19.23,19.23,0,0,1-3.3-1.4,3.26,3.26,0,0,1-1.7-1.3c-.6-1.1-1.4-1.2-2.6-1.4a9.3,9.3,0,0,1-3.8-1.7,8.49,8.49,0,0,1-2.4-2.9c-1-1.6-2.1-2.7-4.2-2.4a2,2,0,0,1-1.1-.2,42.37,42.37,0,0,1-9.6-5.2,4.42,4.42,0,0,0-3.9-1.2,4,4,0,0,1-3.9-1.2,7.5,7.5,0,0,0-6.2-2.2,2.84,2.84,0,0,1-1.9-.4c-1.1-1.3-2.6-1.7-4-2.3-1.8-.7-3.1-1.8-3.2-3.9a2.3,2.3,0,0,0-1.5-2.1,6.46,6.46,0,0,1-3.6-2.9,2.26,2.26,0,0,0-1.1-.8c-3-1.1-5.1-3.5-7.5-5.5a24.24,24.24,0,0,0-3.1-2.5c-2.9-1.7-4.5-4.5-5.8-7.5-.4-.8-.7-1.4-1.4-1.6a2.46,2.46,0,0,1-1.7-2.4c-.1-1.1-.2-2.1-1.5-2.4-.1,0-.1-.1-.2-.1l.5,38.8A4,4,0,0,0,171.9,54.23Z"/>
<path class="cls-1" d="M21,160a3.23,3.23,0,0,1,1.7-.3,3.52,3.52,0,0,1,3.3,3,2.39,2.39,0,0,0,.3.7,7.62,7.62,0,0,0,1.3.7,4,4,0,0,1,1.3.7,2.81,2.81,0,0,1,1,1.4,3.59,3.59,0,0,0,.7,1,2.65,2.65,0,0,0,.6.5,5.88,5.88,0,0,1,1.5,1.6c.7,1,.9,3,1,6.4a4.37,4.37,0,0,1-1.5,3.2c-.4.4-.5.7-.4.9a1.42,1.42,0,0,0,.2.6,4.58,4.58,0,0,1,.4,1.6,3.09,3.09,0,0,1-.2,1.1,4.64,4.64,0,0,0-.2,1.4,8.34,8.34,0,0,0,1.7,3.8,1.81,1.81,0,0,1,1.1-1.4c1.1-.4,5.6.2,6.2.4s1.3,1,2,1.8c.1.1.1.2.2.3h1.3a8.18,8.18,0,0,0,1.4-.5,6.79,6.79,0,0,1,2.1-.6c.8.1,1.7.7,5.2,3.9.7.6,1.3,1.2,1.7,1.5.7.6,3.3,2.3,5.6,3.7a62.78,62.78,0,0,1,5.5,3.7,19.37,19.37,0,0,1,1.4,1.8,29.82,29.82,0,0,0,3.7,4.9,36.71,36.71,0,0,1,6.2,10.1c1.1,2.6,1.5,8.1,1.5,8.2a14.21,14.21,0,0,0,1.4,4.4c.2.4,1.2.6,1.8.7.3.1.6.1.8.2a2.76,2.76,0,0,1,1.5,1.7,3.45,3.45,0,0,0,.5,1.1,7.46,7.46,0,0,0,.7,1.2,5.5,5.5,0,0,0,1.9,1.8c.9.5,3.6.5,4.6.4.2,0,1.1-.4,1.6-.5a6.48,6.48,0,0,1,2.3-.7,4.85,4.85,0,0,1,1.7,0,2.85,2.85,0,0,0,1.3,0,2,2,0,0,0,.8-.3,3.34,3.34,0,0,1,1.2-.5c-.1-2.3-.3-5.7-.5-9.1-.6-12.1-.5-12.3-.3-12.7.1-.1.2-.3.4-.5a13.5,13.5,0,0,0,1.6-2.9,7.08,7.08,0,0,0,.1-1.5,4,4,0,0,1,.4-2.3,12.14,12.14,0,0,0,1.8-3.6c.1-.5.2-1.5.3-2.6.2-2.7.4-3.9.8-4.5a11.15,11.15,0,0,1,2.1-1.8L102.7,176l-1.1.4a1.15,1.15,0,0,1-1.2-.5,20,20,0,0,0-2.4-4,61.07,61.07,0,0,0-6.9-5.1,7.6,7.6,0,0,0-1.4.1,4.81,4.81,0,0,1-2.2-.1s-2.5-1.3-2.6-2.8a19.91,19.91,0,0,0-.2-3.2,4.43,4.43,0,0,1-.9-.7c-1.2-.9-2.2-1.5-2.1-2.5a5.89,5.89,0,0,0-.2-2.1,3.53,3.53,0,0,0-.9-1.1h-.9c-5.7.1-8.1.1-8.5.1s-.7.1-.9.1v.4a2.6,2.6,0,0,1-.4,1.5c-.1.1-.1.1-.1.2-.4.7-.9,1.4-2.9,1.4a7,7,0,0,1-4-1.8,3,3,0,0,0-.7-.5,2,2,0,0,0-1.1,0c-.4.8-1.2,2.6-2.4,2.9-2.3.6-3-.2-3.3-1a6.56,6.56,0,0,1-.1-2c0-.2.1-.6.1-.7l-.4-.4c-.5-.4-1-.8-1-1.5v-.2a2.49,2.49,0,0,0-.1-.8,1.85,1.85,0,0,0-.7-.2l-.4.4a2.9,2.9,0,0,1-2.5,1.2,2.57,2.57,0,0,1-1.9-1.5.1.1,0,0,0-.1-.1c-.1,0-.1,0-.2.1a2,2,0,0,1-2.2-.5c-.9-1.1-.7-2.9-.5-3.9,0-.1,0-.2.1-.2a2.53,2.53,0,0,0-.4-2l-.1-.2c-2.6-3.7-3.5-3.9-3.7-3.9-.7,0-1.3.6-2,1.3a5.12,5.12,0,0,1-3.3,1.8,8.64,8.64,0,0,1-1.5.1,5.53,5.53,0,0,1-2.6-.1,6.51,6.51,0,0,1-1.5-.9,8.06,8.06,0,0,1-3.5,5.2,5.42,5.42,0,0,0-2.3,3.7c-.7,3.1-2,5.8-5.2,7.2a5.74,5.74,0,0,0-.7.4,4.15,4.15,0,0,0,1.6.3C20.1,160.23,20.5,160.13,21,160Z"/>
<path class="cls-1" d="M33.7,142.53a6.62,6.62,0,0,1,1.5-.1,3.83,3.83,0,0,0,2-1.3c.9-.8,1.9-1.8,3.4-1.8s3,1.4,5.3,4.7l.1.2a4.88,4.88,0,0,1,.7,3.5.37.37,0,0,1-.1.3,5.45,5.45,0,0,0-.1,2.2.35.35,0,0,0,.2-.1A2.77,2.77,0,0,1,48,150a2.19,2.19,0,0,1,1.2,1.1c.2.4.2.4.5.5.1,0,.4-.4.6-.5a3.45,3.45,0,0,1,.9-.8c1.1-.7,2.9.1,3.4.9A3.42,3.42,0,0,1,55,153c.1.1.2.2.3.2a3.81,3.81,0,0,1,1.1,1.4,3.3,3.3,0,0,1,0,1.4c0,.3-.1.7-.1,1a3.22,3.22,0,0,0,.8-.1,7,7,0,0,0,1.2-2c.4-1.1,2-1,3-1h.1a5.89,5.89,0,0,1,1.6.8c.8.5,2,1.4,2.8,1.4s1-.1,1.1-.4c.1-.1.1-.2.2-.3s.1-.4.1-.6c.1-.5.1-1.3.6-1.7a3.83,3.83,0,0,1,2.5-.7c.5,0,6.4-.1,8.4-.1h1.1c1.3,0,2.4,1.5,2.7,2.1a7.78,7.78,0,0,1,.4,2.9c.2.2.9.7,1.2,1a6,6,0,0,1,1.4,1.2c.2.3.5.8.6,4.2a5.8,5.8,0,0,0,1.2,1,6.64,6.64,0,0,0,1.3-.1,6,6,0,0,1,1.9,0c1.2.2,7.4,5.1,8.1,5.7a19.32,19.32,0,0,1,2.3,3.7l1.3-.4a.8.8,0,0,1,.8.1,1.47,1.47,0,0,1,.5.6l5,18.3c.1-.1.2-.1.2-.2.7-.5,1.3-1,1.7-1.3l.1-.1c1.1-.9,3.3-2.6,3.6-3.6a15.57,15.57,0,0,0,.2-2.7c.1-2.6.2-4.5.8-5.5a7.11,7.11,0,0,1,1.5-1.5c-.7-1.7-1.4-3.5-1.8-4.2-.8-1.3-1.2-3.9-1.7-6.6a8,8,0,0,0-.4-1.8c-.5-2.4-.5-7.7-.5-10.3v-1c0-1.5-.7-5.5-1-7.6-.1-.8-.2-1.9-.4-3-.4-.2-.8-.5-1.4-.8a15.77,15.77,0,0,1-1.6-1h-.1c-.2,0-.5-.1-.7-.1-.1.2-.3.5-.4.7-.9,1.6-1.5,2.4-2.1,2.7a5.65,5.65,0,0,1-2,.5,2,2,0,0,1-.9-.2,4,4,0,0,1-2-2.9c0-.4.1-.8.1-1.3a6.15,6.15,0,0,0,.1-1.3.73.73,0,0,0-.8-.4c0,.1-.1.1-.1.2v.1a1.39,1.39,0,0,1-1.5,1.3c-1.4,0-3.3-2.1-3.6-2.4s-.5-.6-.8-1a6.93,6.93,0,0,0-1.1-1.2l-.1-.1a1.85,1.85,0,0,1-.8-1.7,8.4,8.4,0,0,1,.4-1.2,5.94,5.94,0,0,1,.4-.8,5.5,5.5,0,0,0-.7-.9c-.1,0-.2.1-.4.1a2,2,0,0,1-1.8-.3l-.1-.1a2.52,2.52,0,0,1-1.1-2.6,23.06,23.06,0,0,1,3.4-5.4c.5-.6,1-1.1,1.5-1.6,1.5-1.5,2.7-2.9,2.7-4.8a4,4,0,0,0-2.6-3.5.35.35,0,0,1-.2-.1,3,3,0,0,1-2.9-2.6,2.61,2.61,0,0,1,1-3c.1-.1.2-.1.2-.2a1.08,1.08,0,0,0,.2-.8c0-.1,0-.1-.1-.1a3.55,3.55,0,0,1-.1-1.5,3,3,0,0,1,.4-1c-.5-.4-1-.8-1.3-1l-.1-.1a3.22,3.22,0,0,0-.8.1,8.65,8.65,0,0,0-.7,1l-.1.2a5.87,5.87,0,0,1-4.3,2.1c-1.9,0-3.7-1.7-4.3-2.4a9.7,9.7,0,0,1-1.1-2.9c-.1-.2-.1-.5-.2-.6a3.48,3.48,0,0,0-1.1-1.8,7.51,7.51,0,0,1-2.1-3.3,4.56,4.56,0,0,1,.2-3.6,2.14,2.14,0,0,1,1.3-1.1,1.48,1.48,0,0,1,.7-.1,4.27,4.27,0,0,0,2.6-1,3.21,3.21,0,0,0,.6-3.2,6.38,6.38,0,0,1-1.5-.6,3,3,0,0,1-1-2.9c-5.8.3-27.8,1.3-32,1a9.92,9.92,0,0,1-7-3.8,5.9,5.9,0,0,1-.8.4c-.7.4-1.4.8-1.1,1.7.5,1.7-.3,3-1.4,4.5,2,1.7.9,3.6.5,5.7,1.1.1,1.8.2,2.8.3.5,4.3.9,8.5,3.1,12.3-2.9,1.4-3.3,1.8-3.7,3.5a7,7,0,0,0,.7,5.1,34.53,34.53,0,0,0,3.3,4.5c.4.5.9.8,1.3,1.3a2.26,2.26,0,0,1-.9,3.8,24.73,24.73,0,0,1-3.6,1.1,5.6,5.6,0,0,0-4.2,3.8,48.78,48.78,0,0,0-1.2,5.5,3.88,3.88,0,0,1-1.7,3,5.3,5.3,0,0,0-2.3,4.2c.8.6,1.6,1.1,1.9,1.3C32.3,142.63,32.6,142.63,33.7,142.53Z"/>
<path class="cls-1" d="M307.7,152.73a6.37,6.37,0,0,0,1.8-1c-.5-.6-1.1-1.4-2-2.4.1.2-.3-.2-.7-.6a10.85,10.85,0,0,1-1.7-1.9c-.4-.7,0-1.5.2-2.1.1-.2.2-.3.2-.4a2.5,2.5,0,0,0,.1-1.7,12.25,12.25,0,0,0-2.2-2.7c-.5-.5-.4-1.4-.4-2v-.2c0-.1-.2-.3-.4-.5s-.2-.2-.3-.2a2.24,2.24,0,0,1-.6-1.7l-.1-3.2c-2.3-1.6-4.4-1.5-7.2.3a2.7,2.7,0,0,1-3.3.2,6.87,6.87,0,0,0-7.3.1l-3,1.5a4.1,4.1,0,0,1-4.5-.2c-1.1-.7-2.2-1.4-3.3-2-1.2-.8-2.4-1.5-4-1.1a1.55,1.55,0,0,1-2-1.1c-.5-1.4-1.5-1.4-2.7-1.4-.9,0-2,.1-2.6-.4-2.2-1.5-4.4-1.1-6.6-.4a19.5,19.5,0,0,1-4.2.8,3.14,3.14,0,0,1-2-.4,2.59,2.59,0,0,1-1.1,1.4,5.78,5.78,0,0,1-1.4.5,4.5,4.5,0,0,1-.8.2,3.61,3.61,0,0,0-1.5,1.5,10.57,10.57,0,0,0,.2,2.6,5.86,5.86,0,0,1,.5,3.2c-.2,1.4-.6,3.2-1.8,4-.1.1-.3.2-.4.3-.4.3-1,.7-1.2.9v.7a9.63,9.63,0,0,1-.4,3.4,6,6,0,0,1-1.5,2.5l-.4.4a17.88,17.88,0,0,0-1.4,1.3c0,.2.1.7.1,1,.8,8.1.7,8.4.4,8.8s-.7.7-1.7,1.5a6,6,0,0,1-1.4,1.1c-.1.2-.3.9-.5,1.5-1.5,5.1-1.9,6.1-2.4,6.5s-.9.7-2,1.4a14.6,14.6,0,0,1-1.8,1.1,29.91,29.91,0,0,0-1.5,4.2,8.64,8.64,0,0,1,.5,1.5,9,9,0,0,1,.8,2.7,18.58,18.58,0,0,1-1.2,3.9,27.61,27.61,0,0,0-.9,2.7l.4.8a4.56,4.56,0,0,1,.8,2.1,22.68,22.68,0,0,1-.7,2.2c-.3.8-.8,2.2-.9,2.6v1c3.6-.5,4.2-.3,4.4-.2a2.72,2.72,0,0,1,1.2,1.7.35.35,0,0,0,.1.2,3.2,3.2,0,0,0,1.3.1,7.26,7.26,0,0,0,.5-.9c.8-1.4,1.4-2.3,2.2-2.6.1-.1.3-.1.4-.2.8-.3,1.8-.8,2.8-.2a3.51,3.51,0,0,0,.8.5c.2.1.4.3.6.4a6.89,6.89,0,0,1,.8-.3,15.25,15.25,0,0,1,2.5-.9c1.1-.2,4.1.1,5.3,1a4.15,4.15,0,0,1,1.1,1.4,4.23,4.23,0,0,0,.5.7,2,2,0,0,0,1.6.6,5.9,5.9,0,0,0,.8-.4,2.35,2.35,0,0,1,1.7-.6,4.85,4.85,0,0,1,2.8,1.5,4.19,4.19,0,0,1,0,3.5c-.1.1-.1.2-.2.3-.2.4-.6,1-.7,1.2,0,.4,0,1.4.5,1.8a8.81,8.81,0,0,0,3.2,1.3,3.69,3.69,0,0,0,.7-2.3,4.33,4.33,0,0,1,2.7-4.3,5.73,5.73,0,0,0,3.1-3.7c.4-1.2,1-2,2.4-1.8.4.1,1-.3,1.4-.6a4.88,4.88,0,0,0,2-3.9c0-2.1.7-2.9,2.7-3.1a4.43,4.43,0,0,0,2.7-1.4c2.3-2.3,4.6-4.8,7-7.1a16.4,16.4,0,0,1,3.7-2.8c2.1-1.1,3.7-2.5,4-5.1a6.53,6.53,0,0,1,.5-2c.4-.6.9-1.3,1.5-1.4a4.2,4.2,0,0,0,2.8-2.7c.9-1.9,2-3.7,4.1-4.6a1.59,1.59,0,0,0,.8-1c.9-2.1,1.2-2.3,3.6-1.8,1,.2,1.9.4,2.7-.8a17.1,17.1,0,0,0-1.1-1.4A1.79,1.79,0,0,1,307.7,152.73Z"/>
<path class="cls-1" d="M115.1,165.23a12.86,12.86,0,0,0,.4,1.9c.4,2.2.8,4.9,1.4,5.9.5.8,1.2,2.7,1.9,4.3a10.07,10.07,0,0,1,2.8-.6c.5,0,1.5-.1,2.6-.2,6.1-.5,7.8-.5,8.4-.1a9.24,9.24,0,0,1,2,2.6,16.68,16.68,0,0,0,1.2,1.9c1.5,1.3,2.8,2,3.9,1.9,1.8,0,9-.2,9.1-.2a.91.91,0,0,1,.8.4l2,2.3,19.4-.4a1.05,1.05,0,0,1,.9.5l3.6,5.9,6.5-47.6.4-53.9-35.7.5h-2.3l-9,.1c-.2,0-.3-.1-.5-.1l-4-2c-1.4,3.2-5.2,12.1-6.4,14.2.9,9.1.8,9.3.7,9.5-.2.4-.5.6-1.2,1.1a19.87,19.87,0,0,0-2,1.6c-.1.3-.2,1-.4,1.7a20.89,20.89,0,0,1-1.4,4.7,3.85,3.85,0,0,1-1.2,1.3.6.6,0,0,1-.1.4,2.09,2.09,0,0,1,1,1.7,1.93,1.93,0,0,1-1.2,1.4.1.1,0,0,0-.1.1v.2a3.32,3.32,0,0,1-.3,2.4,4.36,4.36,0,0,1-1.1.9,4.68,4.68,0,0,1,.2,1.7,11.22,11.22,0,0,1-.5,1.3,4.12,4.12,0,0,0-.3.8,1.06,1.06,0,0,0,.2.5,7.45,7.45,0,0,1,.7,2.7,5,5,0,0,1-2.4,4.1,1.45,1.45,0,0,1-.7.2c-.1,0-.2.1-.3.1s-.1.2-.1.3a10.22,10.22,0,0,1-.8,2.3c.1,1.1.2,2.1.3,2.9.1.6,1,5.8,1.1,7.9v1A81,81,0,0,0,115.1,165.23Z"/>
<path class="cls-1" d="M353.9,117.33c1.4-2.2,1.4-4.5,1.3-7a6.44,6.44,0,0,0-1.5-4.3,3.3,3.3,0,0,1-.7-2.7,37.08,37.08,0,0,0,.3-4.7c0-2.7-.1-2.8-2.7-3.5a1.38,1.38,0,0,0-.4-.3c-.1-.2-.1-.4-.2-.6-.8-3.7-3.6-4.6-6.4-2a9,9,0,0,1-4.6,2.2c-.7.2-1.2.3-1.5.4-.6,2.1-1.1,3.8-1.6,5.5a2.46,2.46,0,0,0,.1,1.7c1.7,2.6,1,5.1.1,7.6-.5,1.4-1.2,2.6-2.8,3a1.91,1.91,0,0,0-1.6,1.7c-.1,1.5-1.2,2.4-2.1,3.4a2.3,2.3,0,0,1-2.8.8,3,3,0,0,0-3.6,1.5c-.4.5-.5,1.1-.9,1.5-.7.9-1.4,2-2.6,1.9-1.5-.1-2.3.8-3.1,1.9-.7.9-1.3,2-2.2,2.4a3.73,3.73,0,0,0-2.1,2.9c-.6,2.6-2.5,3.4-4.8,3.3a8.94,8.94,0,0,1-3.7-1V135a1.33,1.33,0,0,0,.3,1l.2.2a1.36,1.36,0,0,1,.7,1.1v.3c0,.4-.1,1.1.2,1.3a12.66,12.66,0,0,1,2.3,3,2.6,2.6,0,0,1-.1,2.3c-.1.2-.1.4-.2.5-.2.4-.5.9-.3,1.2a20.69,20.69,0,0,0,1.6,1.7,9,9,0,0,1,1,1.1c.8,1,1.4,1.7,1.9,2.3,1.1-.9,2.1-1.8,3.2-2.7a3.68,3.68,0,0,1,1.9-1.1c2.4-.5,4.1-1.6,4.5-4.2a2.81,2.81,0,0,1,.8-.1,5.73,5.73,0,0,0,6-2.6,5.48,5.48,0,0,1,1.8-1.6,27.74,27.74,0,0,1,3.7-2.2,5.75,5.75,0,0,1,2.6-.5c1.2-.1,2.6.2,3.8.1A3.53,3.53,0,0,0,343,133a5.48,5.48,0,0,1,.4-1.2,8.3,8.3,0,0,0,2.8-.1,45.3,45.3,0,0,0,6.1-3.4,4.82,4.82,0,0,0,1.5-6.1A4.76,4.76,0,0,1,353.9,117.33Z"/>
<path class="cls-1" d="M98,393.23c.1,0,.2.1.4.1.5-.9,1.4-2.2,2.6-1.7a2.84,2.84,0,0,1,1,.9c.2.2.6.8.8.8a11.55,11.55,0,0,0,1.6-.2,10.51,10.51,0,0,1,2.4-.1,16.37,16.37,0,0,1,1.5.7,9.14,9.14,0,0,0,1.4.7c.2-.2.7-.5.9-.7.7-.6,1.1-1,1.7-1a2.46,2.46,0,0,1,1.1.4,4.18,4.18,0,0,0,1,.4,4.48,4.48,0,0,1,1.1-.1c.3,0,.8-.1.9-.1l.1-.1a6.3,6.3,0,0,1,3.9-1.3,17.72,17.72,0,0,0,2.4.1,20.68,20.68,0,0,1,3.9.2,4.15,4.15,0,0,1,2,1.2c.3.2.8.7,1,.7a8.32,8.32,0,0,0,1.3-.2,6.67,6.67,0,0,1,2.8-.1c.8.2,1.5,1,2.6,2.1a4.62,4.62,0,0,0,.7.7,1.7,1.7,0,0,1,.7.1,10.61,10.61,0,0,1,2.1.2c.5.2,2.2.9,2.6,2,.1.1.1.3.2.5.2.4.4,1.2.7,1.4.1.1.5.2.7.4a3.92,3.92,0,0,1,1.4.8c.3.2.5.7.8,1.1.4.6,1,1.6,1.5,1.7a29.27,29.27,0,0,0,4.3,0l-1.2-96.1-32.1.4.7,22a1.17,1.17,0,0,1-.9,1.1l-58.7,2.5c.2,4.2,1.2,19.7,2.1,33.6a4.87,4.87,0,0,0,1.2.1,21.75,21.75,0,0,0,2.6-.1,12,12,0,0,1,1.9,0c1.8.1,4.6,1.3,4.6,4.3a4.57,4.57,0,0,1-3.2,4.6,1.23,1.23,0,0,0,.4.8,4.88,4.88,0,0,0,.7.3,10.91,10.91,0,0,1,2.7,1.5,4.49,4.49,0,0,1,.6.9,6.62,6.62,0,0,0,1.4,1.8h.2a7,7,0,0,0,2.5,0,3,3,0,0,0,.8-.4,3.61,3.61,0,0,1,1.9-.7c1.4,0,3,1.6,3.4,2.5a10.06,10.06,0,0,0,1.1,1.7c.2,0,.5-.1.7-.1a4.59,4.59,0,0,1,2.7.2l.7.7a11.3,11.3,0,0,0,1.1,1.1,3,3,0,0,0,1,.2c1.9.4,3,.7,3.3,1.5a7.83,7.83,0,0,1,.3,1.4c.1.3.1.8.2,1.1h.4a3.25,3.25,0,0,1,1.8.3c.4.2.6.7.8,1v.1C97.9,393.13,97.9,393.23,98,393.23Z"/>
<path class="cls-1" d="M255.7,201.93a2.33,2.33,0,0,0-.1-1.4,3.7,3.7,0,0,0-1.1-.5c-.1.1-.3.2-.4.3-.4.2-.8.5-1.3.7a3.8,3.8,0,0,1-3.4-1,3.15,3.15,0,0,1-.9-1.2,3.59,3.59,0,0,0-.7-1,6.85,6.85,0,0,0-3.6-.6,11.12,11.12,0,0,0-2.1.8,3.74,3.74,0,0,1-1.1.4,2.69,2.69,0,0,1-2.3-.7,2.18,2.18,0,0,1-.5-.4c-.2-.1-.8.2-1.1.4s-.3.1-.4.2a12.49,12.49,0,0,0-1.2,1.7c-.4.7-.7,1.1-.9,1.4-.9.9-2.6.6-3.5.3s-1.1-1.1-1.2-1.6c-.1-.1-.1-.4-.2-.5a23.44,23.44,0,0,0-3.6.4c-.1,2.9-.4,7-.5,7.9-.3,1.4-2.6,5.2-3.9,6.7a50.2,50.2,0,0,0-3.7,5.1c-.1.1-4.6,8.5-6.1,10.1s-2.5,2.1-4.2,2.1a5,5,0,0,1-2.5-.9,2.26,2.26,0,0,0-.9-.4c-.7.1-.8.4-.8.6a6.21,6.21,0,0,0-.3,1,16.35,16.35,0,0,0-.7,3.3,5.13,5.13,0,0,0,.5,1.2,10.43,10.43,0,0,1,.8,2.5c.2,1.8.4,4.1,0,4.9a31.37,31.37,0,0,0-1.7,5.2c0,.2.1.5.1.8a19,19,0,0,0,.9,5.4c.2.4.4,1,.7,1.5a43.36,43.36,0,0,0,2.8,5.7c.2.3.5.6.8,1a29.86,29.86,0,0,0,2,2.3,8.18,8.18,0,0,1,1.1,1c.2.2.6.5.9.8a5.91,5.91,0,0,0,2.5,1.5,6.21,6.21,0,0,1,1.8.5,6.78,6.78,0,0,1,2.7,3,.31.31,0,0,1,.1.2c.1.1.1.2.2.4.4.7.7,1.1,1.2,1.3a23.65,23.65,0,0,0,3,.1,9.7,9.7,0,0,1,3,.1,7.23,7.23,0,0,1,3.4,1.4,3,3,0,0,1,.7.8,17.41,17.41,0,0,0,1.2,1.4h.4a4.75,4.75,0,0,1,3,.4,5.08,5.08,0,0,1,1.6,2,2.77,2.77,0,0,0,.5.8,4.2,4.2,0,0,0,1.4.3,9.32,9.32,0,0,1,3.7,1,6.08,6.08,0,0,1,2.5,2.7,4.35,4.35,0,0,0,.4.7,16.65,16.65,0,0,0,2.6.6,8,8,0,0,0-.3-1.5,27.53,27.53,0,0,0-1.7-4.5,7.11,7.11,0,0,1,.8-8,4.15,4.15,0,0,0,.9-3.4c-.1-1.3-.2-2.6-.2-3.8,0-1.7.6-2.1,2.2-2a21.16,21.16,0,0,0,2.4.2c2.2.1,2.8-1.6,2.3-3.2a13.84,13.84,0,0,0-1.8-3.9,4.82,4.82,0,0,1-.7-4.6c.3-.9.8-1.8,1.1-2.7s.7-2,.4-2.8c-.9-2.9-.2-5.7.1-8.5a4.9,4.9,0,0,1,1.9-3.2,6.49,6.49,0,0,0,2.1-8.1,4.86,4.86,0,0,0,.8-4.8,2,2,0,0,1,.4-1.6c1.1-1.7,1.7-3.3,0-5.3a7.07,7.07,0,0,1,1.6-.5c.9-.1,1.8-.2,2-1.1a4,4,0,0,0-.8-2.2,7.55,7.55,0,0,0-1.1-1.4,16.32,16.32,0,0,1-4.3-1.8,6.13,6.13,0,0,1-.8-3.4,5.19,5.19,0,0,1,.9-2.3C255.6,202.13,255.6,202,255.7,201.93Z"/>
<path class="cls-1" d="M111.6,139.33a1.14,1.14,0,0,1,.8.3,3.7,3.7,0,0,1,1.1-.5c.6-.2.7-.3.8-.4a3,3,0,0,0,1.1-2.1,5.87,5.87,0,0,0-.5-2,4.87,4.87,0,0,1-.4-1.1,2.73,2.73,0,0,1,.5-1.8,4.12,4.12,0,0,0,.3-.8,3.09,3.09,0,0,0-.2-.8,2.77,2.77,0,0,1-.1-1.3,2.23,2.23,0,0,1,.9-1,1,1,0,0,0,.5-.4,1.8,1.8,0,0,0-.1-1,2.43,2.43,0,0,1,0-1.2c.1-.5.6-.8.9-1l-.3-.3a2.69,2.69,0,0,1-.2-2v-.2a1.32,1.32,0,0,1,.9-1.1,1.13,1.13,0,0,0,.6-.6,22.28,22.28,0,0,0,1.1-4c.2-.9.4-1.5.5-1.9.3-.9,1.4-1.7,2.8-2.6.1-.1.3-.2.4-.3-.1-1.1-.4-4.3-.7-7.3a6.55,6.55,0,0,1-2.4.1h-.3a.1.1,0,0,1-.1.1,2.73,2.73,0,0,1-1.9,1.7,3.67,3.67,0,0,1-2.7-.9c-.1-.1-.4-.2-.4-.3a1.85,1.85,0,0,0-.7.2c-.3.1-.7.2-1.1.3a3.54,3.54,0,0,1-3.5-2.1c-.3-.7-.7-.9-1.9-1.1a44.77,44.77,0,0,0-5.2,0h-.8a4.11,4.11,0,0,0-1.7.2c.1.2.1.4.2.6a5,5,0,0,1,.4,2,2.2,2.2,0,0,1-.6,1.7,1.74,1.74,0,0,1-1.4.5h-.4a12.09,12.09,0,0,1-3.9-1,5.9,5.9,0,0,1-.8-.4c-.1.2-.1.3-.2.5s.1.2.1.4a1.27,1.27,0,0,1,.1.6,4.1,4.1,0,0,1-.8,2.3c-.1.2-.3.3-.4.4-.3.2-.4.4-.3,1.1s.5.8,1.2,1c.1,0,.2.1.3.1a5.73,5.73,0,0,1,4.2,5.4c.1,2.7-1.7,4.5-3.3,6.2-.5.5-.9,1-1.4,1.5a20.51,20.51,0,0,0-3.1,4.7l.5.5c.1,0,.2-.1.4-.1a1.72,1.72,0,0,1,1.4.1,3.75,3.75,0,0,1,2,2.7,4.26,4.26,0,0,1-.6,1.8c-.1.1-.1.2-.2.4l.1.1.1.1a12,12,0,0,1,1.2,1.4,6.47,6.47,0,0,0,.8.9,6.93,6.93,0,0,0,1.7,1.5,2,2,0,0,1,1.7-1.4,2.84,2.84,0,0,1,2.9,1.8,4.8,4.8,0,0,1,0,2.1,4.48,4.48,0,0,0-.1,1.1,2.56,2.56,0,0,0,.8,1.1,4.05,4.05,0,0,0,1.2-.3,15.73,15.73,0,0,0,1.2-1.9,4,4,0,0,1,1-1.3,2.62,2.62,0,0,1,2.3-.2h.2a7.09,7.09,0,0,1,2.4,1.3c.1.1.1.1.2.1a8.66,8.66,0,0,1-.1-1.1A1.16,1.16,0,0,1,111.6,139.33Z"/>
<path class="cls-1" d="M72.7,245.93a12.12,12.12,0,0,1-.7,2c.1.1.2.1.3.2s2.9,2.8,2.9,4.1a2.49,2.49,0,0,1-.1.8,5.63,5.63,0,0,0,0,1.3.31.31,0,0,1,.1.2,3.37,3.37,0,0,1,.7,2V259a5.64,5.64,0,0,1,.1.7,37.76,37.76,0,0,1,.6,4.9,12.37,12.37,0,0,1-.2,1.8,17.39,17.39,0,0,0-.2,2.9,5.82,5.82,0,0,0,.5,1.1,3.13,3.13,0,0,1,.5,1,13,13,0,0,1,.3,1.3,13,13,0,0,0,.3,1.3,5.83,5.83,0,0,0,1.1,1.5c.1.1.2.1.3.2a3,3,0,0,1,1.4,1.5,1.48,1.48,0,0,1,.1.7c0,.2.1.5.1.7a.76.76,0,0,0,.4.2,2.94,2.94,0,0,1,1.2,1,10.75,10.75,0,0,0,1.3,1.5c.1,0,.1.1.2.1,1,.7,2,1.4,2.1,2.3a12.79,12.79,0,0,1,.1,2.1c0,.6.1,1.5.1,1.7a1.06,1.06,0,0,0,.2.5,2.67,2.67,0,0,1,.3,1.8,5.62,5.62,0,0,1-.7,1.3,3.51,3.51,0,0,0-.5.8,2,2,0,0,0,.1,1.3,6.07,6.07,0,0,1,1.4,1.7,3.4,3.4,0,0,1,.1,1c0,.1,0,.4.1.5a6.33,6.33,0,0,1,.7,2.2v.1a18.73,18.73,0,0,0,.1,2.1l.4.4c1.8,2.1,2.4,2.9,2.6,3.5a18.06,18.06,0,0,1,0,3.5,11,11,0,0,0-.1,1.6v1c0,1.3,0,3.8.1,4.4.1.8.4,2.9.4,3.8a8.68,8.68,0,0,1-.4,2.6,5.93,5.93,0,0,0-.4,1.7c0,.4.1,4.9.1,7.8l26.5-1.2-2.2-61.5a1.85,1.85,0,0,1,.2-.7,7.56,7.56,0,0,0,1.7-3,83.85,83.85,0,0,0,1.1-16,3,3,0,0,0-.5-1.5,1.61,1.61,0,0,1-1.2.8,4.19,4.19,0,0,1-2.7-.2,3.86,3.86,0,0,1-1.8-2.1,3.4,3.4,0,0,1,.2-1.4,2.92,2.92,0,0,0,.2-.9c-1.2-1.1-7.3-5.2-9.7-5.9a3,3,0,0,0-2.3.4,3,3,0,0,1-1.5.5,9.58,9.58,0,0,1-1.7,0,2.43,2.43,0,0,0-1.2,0,16,16,0,0,0-1.9.7,16.36,16.36,0,0,1-2.1.7c-.1,0-4.6.2-5.9-.8a6.39,6.39,0,0,1-1.5-1.3c-4.8.4-10.5.8-11,.9a.77.77,0,0,1-.3.1,4.33,4.33,0,0,1,.1.5,4.23,4.23,0,0,1-.1,2.2,5.4,5.4,0,0,1-.9,1.7c-.1.1-.1.2-.2.2l.1.1a2.91,2.91,0,0,1,.7,2.3A.35.35,0,0,1,72.7,245.93Z"/>
<path class="cls-1" d="M160,445.83a11.37,11.37,0,0,0-1.7-3.5c-1.1-1.5-1.5-1.8-1.7-1.8s-.5-.1-.7-.2a6.29,6.29,0,0,1-1.7-.6,12,12,0,0,1-1.6-1.5.91.91,0,0,1-.3-.7l-.4-30.8c-.6,0-1.2.1-1.8.1a20.24,20.24,0,0,1-2.8-.1c-1.4-.2-2.3-1.6-3-2.6-.2-.2-.4-.6-.5-.7s-.5-.2-.8-.4a4.35,4.35,0,0,1-1.5-.8,7,7,0,0,1-1.1-2.1.76.76,0,0,1-.1-.4,3.69,3.69,0,0,0-1.4-.8,6.62,6.62,0,0,0-1.5-.1c-.6,0-.9-.1-1.2-.1-.5-.1-.9-.5-1.7-1.3a5.73,5.73,0,0,0-1.7-1.5,6.5,6.5,0,0,0-1.9.1,11.14,11.14,0,0,1-1.7.2,5.08,5.08,0,0,1-2.2-1.1c-.4-.3-.8-.7-1.1-.7a35.47,35.47,0,0,0-3.6-.1,21.75,21.75,0,0,1-2.6-.1,4.19,4.19,0,0,0-2.6.9l-.1.1a3.83,3.83,0,0,1-1.9.5c-.3,0-.7.1-.9.1a3.3,3.3,0,0,1-2.3-.5.1.1,0,0,1-.1-.1c-.1.1-.3.2-.4.4-.8.7-1.3,1.2-1.9,1.3s-1.5-.3-2.7-1a4.38,4.38,0,0,0-.9-.5,6.24,6.24,0,0,0-1.7.2,18.32,18.32,0,0,1-2.1.2,3.45,3.45,0,0,1-2.1-1.4c-.1.2-.3.4-.5.7-.6,1.1-2,.7-2.5.6a.35.35,0,0,1-.2-.1c-.8,0-1.1-.7-1.3-1.1,0-.1-.1-.1-.1-.2h-.7a3.42,3.42,0,0,1-1.5-.2c-.8-.4-.9-1.3-1.1-2.7a1.7,1.7,0,0,1-.1-.7,12.09,12.09,0,0,0-1.8-.5,5.92,5.92,0,0,1-1.5-.4,6.93,6.93,0,0,1-1.7-1.5c-.2-.2-.3-.4-.5-.5s-.9.1-1.2.1a4.77,4.77,0,0,1-1.7,0c-.9-.3-1.8-2.1-2.1-2.8-.2-.4-1.2-1.3-1.6-1.3-.2,0-.4.1-.8.4a3.13,3.13,0,0,1-1,.5,7.41,7.41,0,0,1-3.6.2.37.37,0,0,1-.3-.1c-1-.1-1.8-1.3-2.8-2.8a3.11,3.11,0,0,0-.4-.6,18.58,18.58,0,0,0-2-1,4.88,4.88,0,0,1-.7-.3,3,3,0,0,1-1.5-2.6,2,2,0,0,1,1.1-1.8l.1-.1c1-.5,2.1-1,2.1-2.7s-2.1-2.3-2.7-2.3H65.6c-.8,0-1.7.1-2.7.1a3.4,3.4,0,0,1-1-.1c.7,11.4,1.4,21.3,1.4,22.3a6.49,6.49,0,0,0,2.2,1.5,9.32,9.32,0,0,1,1.5,1,2.8,2.8,0,0,1,.4,2.5,4.33,4.33,0,0,0-.1.5,1.74,1.74,0,0,1,1.4.1,2.12,2.12,0,0,1,.9,2.1c-.2,1.5-1.8,2-2.4,2.1a3.48,3.48,0,0,1-2.2-.4,5.09,5.09,0,0,0-1.4-.4,31.14,31.14,0,0,0-5,4,10.2,10.2,0,0,0-.4,1.5,25,25,0,0,1-.7,2.6,2.23,2.23,0,0,1-1.8,1.3,4.33,4.33,0,0,0-.5.1,4.61,4.61,0,0,0-.5,1,2.51,2.51,0,0,1-.4.7,7,7,0,0,1-1.8,2.1l-.1.1a12,12,0,0,1-4,2.3,2,2,0,0,1-2.1-.6c-.2.2-.4.5-.7.8a4.33,4.33,0,0,0-.1.5,5.11,5.11,0,0,1-.6,2,4.47,4.47,0,0,1-2.2,1.3c-.2.1-.4.1-.5.2a42,42,0,0,0-4.5,3.9,5.76,5.76,0,0,0-.5,1.7c-.1.4-.2.8-.3,1.1a4.82,4.82,0,0,1-1.2,1.7,13,13,0,0,0-1.2,1.4,11.47,11.47,0,0,0,.1,4.1,6.64,6.64,0,0,1,.1,1.3c0,1.7-3,3.8-3.4,4a5,5,0,0,1-2.7.5,3.42,3.42,0,0,0-1.1.1c-.4.2-1.8,1.4-2.6,2a13.63,13.63,0,0,1-2,1.5,19.68,19.68,0,0,1-1.9.7c-.4.1-.7.2-.8.2a9.84,9.84,0,0,0-2.1,2,7.37,7.37,0,0,0,.4,1.4c.1.2.1.4.2.5a10.83,10.83,0,0,1-.6,4.9,3.25,3.25,0,0,1-2.4,1.5.35.35,0,0,0-.2.1,10.81,10.81,0,0,0-2.1,1.1,3.72,3.72,0,0,1-2.9.2h-.1A4.59,4.59,0,0,1,9,457c-.1,0-.1-.1-.2-.1a1.88,1.88,0,0,1-.4.9,2.08,2.08,0,0,1-1.2.5,3.26,3.26,0,0,1-1.2-.2c-.7-.2-.9-.9-1.1-1.4-.1-.1-.1-.4-.2-.5a6.47,6.47,0,0,0-2,0c.1.6.1,1.2.2,1.8.5,4,.9,8,1.6,12.1a8.79,8.79,0,0,0,1.2,2.8c.9,1.3,2,2.5,2.9,3.8a.1.1,0,0,0,.1.1c6.8-.7,24.5-2.5,36.5-3.5,24.9-2.1,66.6-3.4,80-3.8a6.15,6.15,0,0,0,.5-4,3.72,3.72,0,0,1,.2-1.8,8.15,8.15,0,0,0-.9-6.5,17.24,17.24,0,0,1-2-8.3c-.1-2.3.1-4.5.2-6.8s2.8-3.5,5.1-2c-1,.5-1.8,1-2.7,1.4v.5a14.16,14.16,0,0,1,2,.4,15.06,15.06,0,0,1,3.7.6c5.3,2,10.6,4.2,15.9,6.3,4.8,1.9,9.4,1.2,13.8-1.4.2-.1.3-.2.5-.3A4,4,0,0,1,160,445.83Z"/>
<path class="cls-1" d="M249.5,121.63a4.94,4.94,0,0,1-1.7-3,13.78,13.78,0,0,0-.9-3.5c-.1-.1-.3-.2-.5-.4s-.4-.3-.6-.5a2.42,2.42,0,0,1-.6-1.1.35.35,0,0,0-.1-.2.31.31,0,0,0-.2-.1,1.62,1.62,0,0,1-.9-.5,3.5,3.5,0,0,1-.9-1.7c-.1-.1-.1-.4-.1-.4s-.1-.1-.5-.3c-.1-.1-.2-.1-.4-.2a2.19,2.19,0,0,0-.5-.3,10.58,10.58,0,0,1-2.7-1.8c-.9-.8-1.2-1.1-1.7-1.1a6.18,6.18,0,0,0-1.6.4,5,5,0,0,1-2.1.4c-.9-.1-1.5-1-2-1.5-.1-.1-.1-.2-.2-.2l-.4-.4a2.57,2.57,0,0,1-.9-1,5.75,5.75,0,0,1-.4-2.1v-.3h-.1a3.36,3.36,0,0,1-1.4.5c-.8,0-1.8-.7-3.1-2l-.2-.2a14.69,14.69,0,0,1-1.9-3.4,8.92,8.92,0,0,0-.5-1l-.7-.7a4.62,4.62,0,0,1-.7-.7,11.49,11.49,0,0,1-.8-1c-.2-.3-.7-.8-.8-1a2.48,2.48,0,0,0-.9-.1c-.4,0-.8-.1-1.2-.1-1.4-.3-3.3-3.3-3.4-3.5a11.42,11.42,0,0,1-.8-2,17.43,17.43,0,0,0-1-2.3,65.71,65.71,0,0,0-5-4.6c-1.1-1-1.6-1.4-1.8-1.6a4.33,4.33,0,0,0-1.2-.5,1.88,1.88,0,0,1-.9-.4c-.4-.2-.7-.7-1.1-1.1a3,3,0,0,1-.5-.7,7.87,7.87,0,0,0-2.2-.8,3.06,3.06,0,0,1-1.4-1c-.3-.3-.7-.6-.9-.8a11.78,11.78,0,0,1-2.7-3.6,2.51,2.51,0,0,1-.4-.7,12.53,12.53,0,0,0-2.8-2.3,8.93,8.93,0,0,0-2.6-.7,4,4,0,0,1-1.6-.4c-.7-.4-.9-1.3-1.1-2.3,0-.1-.1-.2-.1-.3a4.33,4.33,0,0,1-.5-.1c-.2,0-.5-.1-.7-.1-.7-.1-1.1-.8-1.5-1.5-.1-.1-.2-.4-.3-.5h-.4a3.4,3.4,0,0,1-1-.1,2.56,2.56,0,0,1-1.1-.8,8.3,8.3,0,0,0-3-2,17.07,17.07,0,0,0-2.6-.7c-.8-.2-1.7-.4-3.3-.8a3.58,3.58,0,0,1-1.1-.4l.1,5.1a1.85,1.85,0,0,1-.2.7l-21.4,26.5,34.6-.4a.91.91,0,0,1,.7.3,1.08,1.08,0,0,1,.3.7l-.4,54,55.6,1.1v-.4c0-1,0-1.2.1-1.4.2-.5.7-.9,2.1-1.8.1-.1.3-.2.4-.3s.7-.7.9-2.6a5.08,5.08,0,0,0-.4-2.3,13.17,13.17,0,0,1-.4-3.4c.1-1.6,2.6-3.1,2.6-3.2.3-.2.8-.3,1.2-.5a3,3,0,0,0,.9-.3,3,3,0,0,0,.5-1.3v-.1a.35.35,0,0,1,.1-.2,4.3,4.3,0,0,1,1.3-3.5Z"/>
<path class="cls-1" d="M130.8,767.33a7,7,0,0,1-1.7.9c-4,.3-8-.1-11.2-2.9-2-1.7-4-3.2-6-4.8a27.46,27.46,0,0,1-2.6-2.2,13.53,13.53,0,0,0-5.3-3.6,12.12,12.12,0,0,1-6.9-5.5,9.35,9.35,0,0,0-2.8-2.8,6.38,6.38,0,0,1-3.4-4.7c-.3-1.8-1.1-2.4-2.9-2.6a3.75,3.75,0,0,0-1.1.1c-1.8,0-2.8-.7-3-2.6a17,17,0,0,1-.1-2.3c.1-1,.4-2,1.4-2.3s1.2.9,1.7,1.5c.1.1.1.1.4.2.9-.2,1.2-.8.8-1.5a3.6,3.6,0,0,0-1-1.5c-2.7-2.3-4.4-5.5-6.2-8.5a6,6,0,0,1-.9-1.3c-.1.1-.2.1-.3.2,1.2,18.8,2.4,37.5,3.6,56.5.8-.7,1.4-1.1,1.9-1.5a10.15,10.15,0,0,1,6.4-2.6c7.1-.3,14.3-.8,21,2.4a4.45,4.45,0,0,0,3.9-.1c1.3-.6,2.6-1.3,3.8-1.9,1.7-1,3.5-1.5,5.2-.8,2,.8,3.4.1,5-.8.8-.5,1.1-1,.9-1.8a2,2,0,0,1,1-2.3c.5-.2.7-1,1-1.4l-.4-.4A12.29,12.29,0,0,0,130.8,767.33Z"/>
<path class="cls-1" d="M147.8,768.13a3.94,3.94,0,0,1-1.4.5,40.48,40.48,0,0,1-4.9.1,2.49,2.49,0,0,0-2.4.9,8.06,8.06,0,0,1-1.4,1.2c.9,2.2,1.8,2.5,3.3,1.3.2-.1.3-.4.5-.5a2.44,2.44,0,0,1,2.8-.7,6.17,6.17,0,0,0,2.3-.2,20.16,20.16,0,0,1,2.3-.7c1.5-.2,1.5-.2,1.7-2C148.9,767.53,148.9,767.63,147.8,768.13Z"/>
<path class="cls-1" d="M234.59,324.26l3.5,3.64,2.42-1.29.36-1.5a.72.72,0,0,1,.09-.2l1.28-1.83.71-1.77a.61.61,0,0,1,.23-.27l1-.64.59-1.36.53-.85a.77.77,0,0,1,.18-.18l.48-.32.24-.45a.71.71,0,0,1,.1-.14l.46-.48.13-.1.71-.42A.58.58,0,0,1,248,316l.09,0a.61.61,0,0,1,.35-.32l.6-.22.75-.17.21-.26.42-.77a.6.6,0,0,1,.79-.25l.81.38.73-.87-.09-.07-3-3a1.43,1.43,0,0,1-.33-.6l-1.46-1.48-1.2.34-.06.23a.64.64,0,0,1-.16.29l-3.64,3.63.12.36a.62.62,0,0,1-.15.62l-.76.74a.62.62,0,0,1-.65.12l-.11,0-.5.59.63.76a.61.61,0,0,1-.07.83l-1.07.93a.61.61,0,0,1-.82,0l-.11-.11-1.16,1a.58.58,0,0,1-.43.15.62.62,0,0,1-.42-.2l-1-1.14-.47.4,2,2.31a.59.59,0,0,1,.15.44.64.64,0,0,1-.22.41l-.56.46a.59.59,0,0,1-.41.13l-.75,0-.75.49a.59.59,0,0,1-.36.09l-.56,0,.64.6a.59.59,0,0,1,.06.79Z"/>
<path class="cls-1" d="M260.7,377.43a6.75,6.75,0,0,0-.2-1.4,3.31,3.31,0,0,1,.47-3v-.47l-.11.05-.74.82a.64.64,0,0,1-.65.21l-.39-.1a.64.64,0,0,1-.42-.33h-.52l-.83.35-.67.21a.68.68,0,0,1-.64-.13l-.31-.28-1.14.65h0a.65.65,0,0,1,.22.52.64.64,0,0,1-.26.51l-.44.34v2.23l.66,1.76a.67.67,0,0,1-.27.8l-.16.1,1,1.69.9.41,1.42-.46C260.2,381,260.7,380.13,260.7,377.43Z"/>
<path class="cls-1" d="M277.8,341a2.68,2.68,0,0,0-.7-1.7,1.5,1.5,0,0,0-1.5.5,2,2,0,0,1-2.5.4c-.4-.1-.7-.4-1.1-.4a2.46,2.46,0,0,1-2.3-1.7,9.32,9.32,0,0,0-3.6-4.5,2.24,2.24,0,0,1-.7-1.7,9.83,9.83,0,0,1,2.7-7.6c2.9-3,2.5-4.6-.1-7.9a90.39,90.39,0,0,0-6.5-7.6.1.1,0,0,1-.1.1,12.44,12.44,0,0,0-1.2,1.6c-.2.4-2.6,1.2-2.7,1.2h-.1c-.1,0-1.4-.2-1.4-.2a12.7,12.7,0,0,0-1.4,1.7,3.13,3.13,0,0,1-.34.42.56.56,0,0,1-.11.2l-1.47,1.74a.6.6,0,0,1-.72.16l-.71-.34-.18.32a.36.36,0,0,1-.07.1l-.38.46a.63.63,0,0,1-.33.2l-1,.25V317a.58.58,0,0,1-.33.53l-.52.27a.63.63,0,0,1-.47,0,.61.61,0,0,1-.35-.32l0,0-.06,0-.35.36-.26.51a.66.66,0,0,1-.21.23l-.5.33-.42.66-.62,1.44a.51.51,0,0,1-.22.26l-1,.64-.67,1.65a.67.67,0,0,1-.06.12L242,325.5l-.39,1.65a.59.59,0,0,1-.3.39l-3.07,1.63a.6.6,0,0,1-.71-.11l-4.17-4.33a.62.62,0,0,1-.05-.78l.48-.64-1.13-1.07a.59.59,0,0,1-.16-.58.57.57,0,0,1,.42-.43l.84-.23.19,0,.85,0,.75-.49a.6.6,0,0,1,.37-.09l.52,0-1.88-2.21a.56.56,0,0,1-.14-.44.59.59,0,0,1,.21-.41l1.4-1.16a.6.6,0,0,1,.83.06l1,1.12,1.13-1a.59.59,0,0,1,.82,0l.12.12.21-.18-.57-.7a.6.6,0,0,1,0-.77l1.11-1.3a.6.6,0,0,1,.7-.17l.14.07.2-.2-.11-.35a.6.6,0,0,1,.15-.61l3.77-3.78.1-.42a.6.6,0,0,1,.42-.44l1.89-.52a.64.64,0,0,1,.59.16l.83.85.05-1.28a4.33,4.33,0,0,1,.1-.5,29.31,29.31,0,0,1,2-3.6,10.54,10.54,0,0,1,1.1-.7,41.19,41.19,0,0,1-3-3.2,3,3,0,0,1-.5.7l-2.3,1.3-.7.4a1,1,0,0,1-.7.2,3.09,3.09,0,0,1-.8-.2l-.8-.5-.4.2-.1.4.1.1a1.18,1.18,0,0,1,.1,1l-.5,2.1a1.44,1.44,0,0,1-1,1c-.1,0-.2.1-.4.1a1.28,1.28,0,0,1-1-.4l-2.9-3c-.1-.1-.2-.2-.2-.3l-1.9-3.5a1.36,1.36,0,0,1,.2-1.6l.1-.1c-.1-.1-.1-.2-.1-.4a1.19,1.19,0,0,1,.4-1.1l1.1-1.1a1.61,1.61,0,0,1,.7-.4l1-2.8c.1-.4.2-.4.6-.5a1.09,1.09,0,0,1,.5-.1,4.33,4.33,0,0,1,.5.1l4,1.4.9-.1h.2c.1-.7,1-2.3,1.2-3.2a28.17,28.17,0,0,1-3.1-.7,2.92,2.92,0,0,1-1.5-1.6,4.28,4.28,0,0,0-1.7-1.9,5.8,5.8,0,0,0-2.9-.8,4.42,4.42,0,0,1-2.4-.7,5.27,5.27,0,0,1-1.1-1.5c-.2-.5-.5-1-.8-1.1a2.75,2.75,0,0,0-1.8-.1c-.3,0-.5.1-.8.1-.8-.1-1.5-.8-2.6-2.1-.2-.2-.4-.5-.5-.5a6.21,6.21,0,0,0-2.4-1,11.16,11.16,0,0,0-2.6,0,10,10,0,0,1-3.6-.2,4.17,4.17,0,0,1-2.4-2.3c-.1-.1-.1-.2-.2-.3a.31.31,0,0,1-.1-.2,7.57,7.57,0,0,0-1.8-2.2,7.87,7.87,0,0,0-1.2-.4,5.07,5.07,0,0,1-.9-.2,3.55,3.55,0,0,1-.9-.4l-4.5,6.1a1.06,1.06,0,0,1-1.3.3,26.37,26.37,0,0,0-3-1.5h-2.3c-.1,0-.3.1-.4.1-.9,1.1-9.6,11.3-15.3,18.1a1.23,1.23,0,0,1-.8.4l-31.6-.4,2.1,144.1,1,1c.2.1.8.2,1.1.3a5.07,5.07,0,0,0,.9.2c.8.2,1.5,1,2.7,2.6a14.45,14.45,0,0,1,2,3.9c.2.7.7.7.7.7a1.2,1.2,0,0,1,1,.7,4.1,4.1,0,0,1,1.1-.1,1.31,1.31,0,0,0,1.2-.6,7.15,7.15,0,0,1,3.3-1.8,4.44,4.44,0,0,0,2.4-6.6c-.5-.9-.9-1.9-1.4-2.9a8.11,8.11,0,0,0-1-1.8c-1.1-1.6-1-3.3.6-4.3,2-1.3,2.1-2.8,1.5-4.8-.7-2.3-.5-2.7,1.8-3.3,2-.6,2.4-1.2,2.6-3.2a17.33,17.33,0,0,1,.3-3.2c.6-2.1-.1-3.5-2-4.5a9.22,9.22,0,0,1-.8-.5c-1.1-.8-1-1.3.2-2.3l2.4,2.1c.9-.5,1.1-1.1.7-1.8a4.67,4.67,0,0,0-1.4-1.4c-2.8-1.7-3.5-4.3-3-7.4a4.49,4.49,0,0,0-.7-3.2,14.72,14.72,0,0,1-1-2.2c1.9-.2,2.4.1,3.2,1.6.4.7.7,1.8,1.2,2a20.78,20.78,0,0,0,6.3,2.3,36.44,36.44,0,0,0,7.4.2,31.07,31.07,0,0,0,4.4-.7c3-.5,5.9-1.4,8.8-1.7a91.15,91.15,0,0,0,14.7-2,55.79,55.79,0,0,1,6.9-1.3,26.85,26.85,0,0,0,9.3-2.6,27.14,27.14,0,0,1,8.3-2.8,3.84,3.84,0,0,0,2.2-1.3,4.11,4.11,0,0,1,2.6-1.5c2.8-.79,5.59-1.65,8.35-2.55a.76.76,0,0,1-.11-.14l-1.41-2.44a.66.66,0,0,1,.22-.89l.25-.16-.51-1.37a.59.59,0,0,1,0-.23v-2.67a.67.67,0,0,1,.26-.53l.07-.05-.1-.09a.69.69,0,0,1-.22-.57.66.66,0,0,1,.33-.51l2.35-1.35a.68.68,0,0,1,.77.07l.39.35.25-.08.9-.38a.75.75,0,0,1,.26-.05h1.23a.64.64,0,0,1,.38.12l.36-.4a.66.66,0,0,1,.23-.17l1.07-.44a.65.65,0,0,1,.56,0,.67.67,0,0,1,.34.46l.06.25c.83-.76,1.79-1.39,2.67-2.1a38.48,38.48,0,0,0,3-2.7c2.7-3.6,5.2-7.1,7.8-10.8a13.19,13.19,0,0,0,2.1-9.1C277.6,345,277,343,277.8,341Z"/><polygon class="cls-1" points="243.7 299.13 245.2 300.13 245.9 299.73 247.9 298.63 247.8 298.03 247.6 297.13 246.5 295.83 245.7 293.43 245.6 293.33 244.5 293.43 240.5 291.73 239.2 295.53 238.6 295.33 237.5 296.43 238.2 296.93 237.1 298.03 238.9 301.33 241.7 304.23 242.2 302.13 241.8 301.53 242.3 300.13 243.7 299.13"/>
<path class="cls-1" d="M255.3,309.83h.2a8.4,8.4,0,0,1,1.4.4,16.67,16.67,0,0,0,2-.8c.2-.2,1.4-1.7,1.5-1.8h-.2l-1-1.1-.7-1.2-1.5-.1-1.2-1h-.6l-1.1-.9a1.09,1.09,0,0,1-.5.1c-.2.1-1.1.4-1.2.5s-1.5,3.3-1.5,3.3l-.2,2,2.7,2.9C255.1,310.13,255.1,310,255.3,309.83Z"/></g></g>




</svg>