<svg xmlns="http://www.w3.org/2000/svg" viewBox="0 0 656.59 250.12"><defs><style>.cls-1{font-size:20px;fill:#5d6884;font-family:WorkSans-Regular, Work Sans;}.cls-2{fill:#00b1eb;}.cls-3{fill:none;stroke:#5d6884;stroke-miterlimit:10;stroke-width:2px;}</style></defs><title>nodos_1</title><g id="Layer_2" data-name="Layer 2"><g id="Layer_1-2" data-name="Layer 1"><text class="cls-1" transform="translate(478.19 79.95)"> </text><path class="cls-2" d="M513.27,152.87a46.55,46.55,0,0,1,0,4.69c-.22,2.41-.63,4.81-1,7.2-.24,1.58-.48,3.15-.8,4.71-.26,1.27-.64,2.51-1,3.76-.27,1-.52,2-.85,3-.71,2.08-1.4,4.17-2.21,6.21-1.08,2.72-2.13,5.47-3.44,8.09s-3,5.22-4.48,7.81a1.35,1.35,0,0,1-2,.26,1.17,1.17,0,0,1-.35-1.73c1.51-2.59,3.07-5.17,4.36-7.88,1.47-3,2.71-6.2,4-9.35.82-2,1.51-4.16,2.17-6.27.37-1.2.55-2.46.81-3.69.36-1.62.74-3.24,1.05-4.86a24.53,24.53,0,0,0,.4-2.82c.27-3.42.6-6.83.72-10.25a28.14,28.14,0,0,0-.4-6,26,26,0,0,0-4.53-11.23,51,51,0,0,0-4.38-5.32,25.93,25.93,0,0,0-9-5.82,49.37,49.37,0,0,0-5.68-1.82,21.82,21.82,0,0,0-3.63-.44c-1.13-.08-1.78-.65-1.75-1.63s.78-1.48,1.91-1.29c2.24.38,4.47.8,6.67,1.33a30.18,30.18,0,0,1,16.08,10.42,33,33,0,0,1,5.64,9.68,30.67,30.67,0,0,1,1.75,13.29"/><path class="cls-2" d="M526,152.85c0,2.1.14,4.21,0,6.29-.19,2.24-.67,4.45-1,6.67-.26,1.66-.45,3.33-.8,5-.4,1.85-.9,3.68-1.4,5.52s-1,3.69-1.59,5.53a7.19,7.19,0,0,1-.75,1.73,1.31,1.31,0,0,1-1.65.41,1,1,0,0,1-.64-1.26c.28-1.27.57-2.54.9-3.8.44-1.68.94-3.35,1.37-5,.49-2,1-3.92,1.4-5.89.19-.86.31-1.74.44-2.62.23-1.42.44-2.84.66-4.25a2.58,2.58,0,0,0,.06-.37c.13-4,.4-8,.34-12a45.94,45.94,0,0,0-1-6.52,40.27,40.27,0,0,0-3.35-10.18,41.91,41.91,0,0,0-8.3-11.45,43,43,0,0,0-12.05-8.37,33.62,33.62,0,0,0-5.37-2c-2-.6-4.14-1-6.2-1.5a1.21,1.21,0,0,1-1-1.45c0-.71.34-1.26,1.08-1.21a25.59,25.59,0,0,1,4,.51A35.42,35.42,0,0,1,495.5,108c1.75.66,3.47,1.42,5.18,2.2A39.26,39.26,0,0,1,508.6,115,42.84,42.84,0,0,1,520,128.23a69.47,69.47,0,0,1,3.62,7.72A27.8,27.8,0,0,1,524.9,141c.31,1.62.54,3.25.74,4.88.27,2.32.48,4.64.72,7H526"/><path class="cls-2" d="M432.12,162.25a1.27,1.27,0,0,1-1.41-1,2.09,2.09,0,0,1,.46-1.52c.56-.7,1.38-1.2,1.95-1.91a10.46,10.46,0,0,0,2.28-5.08c.35-2.34.76-4.67,1.08-7,.2-1.48.17-3,.45-4.46A40.47,40.47,0,0,1,442,127.93a52.31,52.31,0,0,1,6.79-8.86,42,42,0,0,1,11.34-8.42,58.58,58.58,0,0,1,6.87-2.93,32.87,32.87,0,0,1,5-1.24c1.8-.34,3.63-.57,5.46-.75,1.08-.11,1.58.38,1.6,1.31s-.44,1.24-1.55,1.4c-1.95.28-3.87.73-5.81,1a28.27,28.27,0,0,0-7.34,2.37,64.91,64.91,0,0,0-6.69,3.67,40.07,40.07,0,0,0-10.44,9.71,32.69,32.69,0,0,0-5.07,8.82c-.79,2.06-1.53,4.15-2.19,6.25a14.63,14.63,0,0,0-.41,2.73c-.15,1.37-.23,2.75-.39,4.13a49.58,49.58,0,0,1-.81,6,14.84,14.84,0,0,1-4.84,8.39,8.85,8.85,0,0,1-1.4.74"/><path class="cls-2" d="M492.23,152.16a31.48,31.48,0,0,0-1.07-5.9,9.53,9.53,0,0,0-5.38-5.4,23.59,23.59,0,0,0-4.17-1.15,1.78,1.78,0,0,1-1.46-1.5c0-.72.56-1.22,1.49-1.21a12.82,12.82,0,0,1,10.53,5.44,11.5,11.5,0,0,1,2.55,6.5,58.34,58.34,0,0,1,.25,6.19,53.1,53.1,0,0,1-1,6.36c-.36,2-.72,4-1.21,6a41.2,41.2,0,0,1-1.44,4.45c-1,2.59-1.9,5.19-3,7.73a54,54,0,0,1-5.17,9.39,71.49,71.49,0,0,1-9,11.17c-.46.45-.85,1.13-1.63,1-.47-.09-1.19-.28-1.27-.57a2.21,2.21,0,0,1,.23-1.69,19.55,19.55,0,0,1,2-2.24,63,63,0,0,0,11.8-17.27c1-2.22,2-4.44,2.87-6.72.66-1.76,1.09-3.61,1.58-5.43s1-3.72,1.42-5.59a21.48,21.48,0,0,0,.4-2.53c.2-2.09.37-4.18.61-7"/><path class="cls-2" d="M441.71,183.33c-.07-1.19,1-1.45,1.7-1.88a36.68,36.68,0,0,0,9-7.81,30.68,30.68,0,0,0,5.1-8.29c.84-2.11,1.48-4.3,2.13-6.47a48.79,48.79,0,0,0,1.19-8.07,45.33,45.33,0,0,1,1.47-7.51,16.35,16.35,0,0,1,6.32-8.73,20,20,0,0,1,8-3.54c.55-.1,1.08-.27,1.62-.34a1.34,1.34,0,0,1,1.47,1.12,1.25,1.25,0,0,1-.81,1.56,15.77,15.77,0,0,1-2.37.7,15.79,15.79,0,0,0-10.79,8.28,16.14,16.14,0,0,0-1.61,5.9c-.21,2.19-.39,4.38-.78,6.53a67.84,67.84,0,0,1-1.9,8.5,35.48,35.48,0,0,1-6,11.11,40,40,0,0,1-7.83,7.71,38.14,38.14,0,0,1-3.9,2.4,1.32,1.32,0,0,1-2-1.17"/><path class="cls-2" d="M481.42,99.3c1.86.14,4.15.18,6.41.51a55.25,55.25,0,0,1,6.34,1.42c2,.54,4,1.18,6,1.86a36.93,36.93,0,0,1,7.92,4c.43.27.85.55,1.26.86a1.39,1.39,0,0,1-.18,2.47,1.37,1.37,0,0,1-1.07,0c-2.53-1.32-5-2.79-7.57-4a43.27,43.27,0,0,0-5.88-2.1,37,37,0,0,0-5.9-1.42c-2.65-.34-5.34-.38-8-.48a42.62,42.62,0,0,0-4.66.06,34.07,34.07,0,0,0-3.59.61c-.75.14-1.49.28-2.23.47a44.56,44.56,0,0,0-5.76,1.6c-2.88,1.17-5.65,2.58-8.44,3.94a33.61,33.61,0,0,0-6.53,4.66c-.37.31-.74.63-1.13.92a1.18,1.18,0,0,1-1.65-.12c-.46-.48-.92-1.1-.28-1.78a20.46,20.46,0,0,1,2.07-2,47.56,47.56,0,0,1,10.75-6.67c1.89-.81,3.85-1.45,5.8-2.11,1.54-.52,3.09-1,4.65-1.39,1-.25,2-.3,3.06-.46s2.21-.45,3.32-.55c1.61-.15,3.22-.18,5.26-.28"/><path class="cls-2" d="M520,154c0,1.46.09,2.93,0,4.38-.13,1.66-.46,3.31-.7,5-.14,1-.21,2-.4,3-.31,1.57-.67,3.13-1,4.68s-.76,3.16-1.2,4.72-1,3.37-1.56,5c-.79,2.2-1.62,4.39-2.54,6.54-.79,1.85-1.67,3.66-2.6,5.44-.54,1-1.08,1.15-1.83.73s-1-1-.53-2.11c1.56-3.81,3.12-7.62,4.61-11.46.79-2,1.54-4.13,2.12-6.24.63-2.31,1-4.68,1.56-7a40.51,40.51,0,0,0,1.16-8.85c0-2,.33-3.94.27-5.9a54.72,54.72,0,0,0-.67-5.54c-.13-1-.21-1.94-.42-2.89a33.69,33.69,0,0,0-.91-3.31c-.37-1.14-.94-2.22-1.21-3.37-.18-.75.51-1.25,1.15-1.53a1.05,1.05,0,0,1,1.43.62,38.53,38.53,0,0,1,1.45,3.74c.36,1.11.58,2.27.84,3.41a21.15,21.15,0,0,1,.64,2.92c.24,2.68.38,5.36.56,8H520"/><path class="cls-2" d="M480.84,111.88c2.32.21,4.69.25,7,.67A37.74,37.74,0,0,1,496,115a38.44,38.44,0,0,1,13,9c.73.78.76,1.57.14,2.16a2,2,0,0,1-2.18-.25,37.65,37.65,0,0,0-8.33-6.45,44.31,44.31,0,0,0-6.7-2.81c-5.15-1.83-10.51-1.85-15.85-1.41a34.38,34.38,0,0,0-6.87,1.59,35.11,35.11,0,0,0-5,2.07c-1.2.57-2.29,1.35-3.43,2a1.58,1.58,0,0,1-2-.34,1.13,1.13,0,0,1,.37-1.85,59.16,59.16,0,0,1,5.48-3.23,38.77,38.77,0,0,1,5.77-2.15,33.27,33.27,0,0,1,4.88-.89c1.83-.24,3.68-.36,5.57-.54"/><path class="cls-2" d="M482.5,152.43q-.4,3-.8,5.93c-.15,1.11-.23,2.23-.45,3.33-.27,1.29-.65,2.55-1,3.82s-.69,2.71-1.19,4c-.94,2.44-1.89,4.87-3,7.22a58.38,58.38,0,0,1-14.91,18.57c-.39.33-.77.67-1.17,1a1.72,1.72,0,0,1-2.41,0,1.75,1.75,0,0,1,.57-2.3c1.41-1.18,2.82-2.35,4.17-3.58a49.93,49.93,0,0,0,9.42-11.72,78,78,0,0,0,4.29-9.22,41.07,41.07,0,0,0,1.79-5.43c.39-1.4.51-2.88.84-4.31a43.07,43.07,0,0,0,.79-8.7c0-1.2.62-1.75,1.58-1.71s1.37.71,1.38,1.81v1.3l.12,0"/><path class="cls-2" d="M507.37,151.41c0,2.6.08,5.21,0,7.8a34.15,34.15,0,0,1-.67,4.13c-.15.91-.24,1.83-.41,2.73-.27,1.35-.54,2.71-.91,4-.52,1.88-1.07,3.76-1.72,5.6-.86,2.43-1.81,4.82-2.76,7.22a5.65,5.65,0,0,1-.9,1.51,1,1,0,0,1-1.69,0,1.34,1.34,0,0,1-.45-1.57c1.34-3.42,2.71-6.84,3.8-10.34.86-2.77,1.39-5.64,2-8.49a40.25,40.25,0,0,0,.72-5,64,64,0,0,0,.3-7.58,44.25,44.25,0,0,0-1-6.22,22.69,22.69,0,0,0-3-7.38c-.4-.67-.85-1.3-1.22-2-.49-.9-.34-1.29.44-1.9s1.41-.13,1.81.37a21.67,21.67,0,0,1,4.22,8.27c.42,1.75.78,3.51,1.12,5.27.22,1.16.35,2.35.53,3.52Z"/><path class="cls-2" d="M432.08,167.21a6.79,6.79,0,0,1,1.26-1.42c1.86-1.1,3.7-2.2,4.79-4.14a28.68,28.68,0,0,0,2.4-4.84,40.47,40.47,0,0,0,1.21-5.91c.3-1.81.4-3.65.75-5.45a46.09,46.09,0,0,1,1.45-5.78,65.52,65.52,0,0,1,2.63-6.78,34.41,34.41,0,0,1,7.21-10c1.06-1.07,2.08-.87,2.65.43.31.69-.16,1.14-.54,1.57a43.5,43.5,0,0,0-3.59,4.13,78.26,78.26,0,0,0-4.19,7.35,26,26,0,0,0-1.79,4.68,40.26,40.26,0,0,0-.83,4.38c-.25,1.53-.47,3-.69,4.58-.15,1-.27,2-.41,3a26.36,26.36,0,0,1-2.09,7.31A17.79,17.79,0,0,1,435,168.2c-.5.3-1.08.89-1.75.29a16.65,16.65,0,0,1-1.14-1.28"/><path class="cls-2" d="M531.89,153.56c0,1.77.13,3.55,0,5.31-.19,2-.63,4-1,6.08,0,.34,0,.69-.11,1a1.55,1.55,0,0,1-2,1.3,1.72,1.72,0,0,1-1-2c.25-1.39.57-2.78.69-4.18.28-3.29.67-6.59.64-9.88a74.12,74.12,0,0,0-.93-8.63,39.29,39.29,0,0,0-.91-5.07,40.64,40.64,0,0,0-1.8-5.14,52.2,52.2,0,0,0-2.8-6.07c-1.31-2.3-2.88-4.45-4.35-6.66a1.7,1.7,0,0,1,.05-2.12c.61-.52,1.31-.42,2,.36a33.56,33.56,0,0,1,5.08,7.57c1,2,1.93,4,2.78,6.08a38.3,38.3,0,0,1,1.37,4.21c.5,1.76.95,3.52,1.37,5.3a18.18,18.18,0,0,1,.44,2.74c.24,3.24.43,6.48.64,9.72h-.29"/><path class="cls-2" d="M461.35,137.25a14,14,0,0,1-.67,1.52,17.68,17.68,0,0,0-2.2,6c-.26,1.54-.51,3.08-.72,4.62-.26,1.88-.39,3.78-.74,5.64s-.92,3.87-1.41,5.81a26.71,26.71,0,0,1-4.17,8.58,31.64,31.64,0,0,1-7.77,7.8c-1.08.78-2.25,1.41-3.4,2.08a1.53,1.53,0,0,1-2.18-.4c-.41-.71-.07-1.49.78-2.08a52.21,52.21,0,0,0,6.27-4.51,29.55,29.55,0,0,0,4.73-5.88,40.61,40.61,0,0,0,3.29-6.84,22.59,22.59,0,0,0,.85-4.45c.25-1.56.48-3.12.71-4.68.13-.94.3-1.87.37-2.81a25.14,25.14,0,0,1,3-10.3,3.06,3.06,0,0,1,.92-1.09,1.43,1.43,0,0,1,1.21-.21c.44.23.73.75,1.09,1.15"/><path class="cls-2" d="M488.17,159.15c-.4,2-.76,4-1.21,5.95-.34,1.49-.72,3-1.2,4.41a53.74,53.74,0,0,1-2.37,6.47,90.91,90.91,0,0,1-5.14,9.46,68.74,68.74,0,0,1-5.93,7.69c-1.72,2-3.73,3.74-5.55,5.64a2.06,2.06,0,0,1-2,.54c-.83-.12-1-1.62-.29-2.35,1.14-1.12,2.34-2.18,3.49-3.29a55.82,55.82,0,0,0,9.91-13.15c1.16-2.08,2.31-4.18,3.26-6.37a46.48,46.48,0,0,0,1.95-5.8c.67-2.35,1.24-4.73,1.8-7.11.21-.87.26-1.77.41-2.64s.73-1.5,1.57-1.43,1.15.57,1.16,1.67v.28l.15,0"/><path class="cls-2" d="M498.37,152.39v-1.87A17.1,17.1,0,0,0,496,142a17.59,17.59,0,0,0-4.68-5.29,31,31,0,0,0-3.67-2.12,1.5,1.5,0,0,1-.77-1.89,1.6,1.6,0,0,1,2-.72,20.35,20.35,0,0,1,9.82,8.9,14.26,14.26,0,0,1,2,5.62q.13,1.54.39,3.06c.48,2.77-.16,5.53-.09,8.3a25.13,25.13,0,0,1-.64,4.34c-.15,1-.24,1.93-.43,2.87-.29,1.36-.65,2.71-1,4.06a3.41,3.41,0,0,0-.13.53c-.14.89-.48,1.11-1.56,1.06-.82,0-1.22-.47-1.12-1.23.14-1.08.38-2.15.6-3.22.13-.62.33-1.23.44-1.85.18-1,.31-2.11.46-3.16.23-1.64.52-3.28.65-4.93.11-1.29,0-2.6,0-3.9Z"/><path class="cls-2" d="M475.1,118.68a3.58,3.58,0,0,1,1.35.35,1.39,1.39,0,0,1,.54,1.12,1.51,1.51,0,0,1-1.25,1.29,30.36,30.36,0,0,0-19.32,12.46,27.2,27.2,0,0,0-3.77,7.47c-.29.83-.4,1.72-.7,2.54a1.4,1.4,0,0,1-1.85,1,1.69,1.69,0,0,1-.88-2,33.5,33.5,0,0,1,10.86-17.24,25.77,25.77,0,0,1,8.58-5.08c1.71-.57,3.4-1.19,5.12-1.74a6.08,6.08,0,0,1,1.29-.09l0-.07"/><path class="cls-2" d="M474.67,162.93c-.37,1.31-.57,2.38-1,3.38-.91,2.31-1.84,4.6-2.87,6.86a38.38,38.38,0,0,1-6.63,10.21c-1.86,2-3.73,4.07-5.74,6a50,50,0,0,1-4.64,3.65,1.44,1.44,0,0,1-2.29-.36c-.43-.65-.08-1.33.79-2a67.79,67.79,0,0,0,7.49-6.59,43.56,43.56,0,0,0,8.74-12.84c1.08-2.36,2-4.82,2.93-7.22a8.12,8.12,0,0,1,.85-1.92,1.32,1.32,0,0,1,1.25-.24c.47.23.78.78,1.08,1.1"/><path class="cls-2" d="M429.46,147.83c.47-2.81.9-5.64,1.4-8.45a39,39,0,0,1,3.82-11c1.5-2.87,3.29-5.61,5-8.37a1.5,1.5,0,0,1,2.17-.67,1.35,1.35,0,0,1,.36,2.13c-1,1.61-2.23,3.16-3.16,4.84a59.15,59.15,0,0,0-3.22,6.66c-.88,2.22-1.48,4.56-2.16,6.86a11.58,11.58,0,0,0-.43,2.17c-.29,2.88-.54,5.77-.79,8.65A1.45,1.45,0,0,1,431,152c-1,0-1.28-.32-1.3-1.36s0-1.86,0-2.79l-.27,0"/><path class="cls-2" d="M493.48,130.47a4.27,4.27,0,0,1-1-.28,18,18,0,0,0-6.42-2.43,34.49,34.49,0,0,0-5.87-.66,33.9,33.9,0,0,0-5.53,1,18.69,18.69,0,0,0-6.72,3c-.92.62-1.75,1.4-2.71,1.94a2.11,2.11,0,0,1-1.68.15c-.35-.16-.6-.92-.58-1.39a2,2,0,0,1,.77-1.18,29.59,29.59,0,0,1,7.48-4.46,26.63,26.63,0,0,1,12.68-1.74,23.66,23.66,0,0,1,5.62,1.37,36.73,36.73,0,0,1,4.51,2c.61.29,1.17.79.94,1.58a1.43,1.43,0,0,1-1.53,1.11"/><path class="cls-2" d="M479.44,201.2c-.36-1.28.62-1.86,1.16-2.61,1.94-2.66,4-5.23,5.88-7.93a66.52,66.52,0,0,0,3.85-6.37c.94-1.76,1.64-3.65,2.46-5.48a3.38,3.38,0,0,1,.57-1,1.26,1.26,0,0,1,1.67-.27,1.44,1.44,0,0,1,.7,1.89A64,64,0,0,1,490,190.44c-1.89,2.77-3.81,5.53-5.73,8.27-.41.59-.93,1.1-1.35,1.68a1.73,1.73,0,0,1-1.76.83,12.21,12.21,0,0,0-1.72,0"/><path class="cls-2" d="M472.87,154.6a67,67,0,0,1,1.33-7.11,5.91,5.91,0,0,1,4.44-4.18A7.42,7.42,0,0,1,487,146a6.52,6.52,0,0,1,1.44,3.88,12.31,12.31,0,0,1,0,1.92,1.09,1.09,0,0,1-1.46.88,1.6,1.6,0,0,1-1.27-1.47,10.56,10.56,0,0,0-.65-2.73A4,4,0,0,0,482,146a3.94,3.94,0,0,0-4.54,1.57,8.13,8.13,0,0,0-1,2.79c-.25,1.73-.27,3.5-.48,5.24-.15,1.21-.75,1.73-1.66,1.67s-1.31-.8-1.3-1.86c0-.24,0-.49,0-.74l-.14,0"/><path class="cls-2" d="M475.18,140.59a5,5,0,0,1-.87,1.26,10.29,10.29,0,0,0-4.23,7.9c-.14,1.73-.18,3.47-.44,5.18-.38,2.51-.89,5-1.37,7.5a14.26,14.26,0,0,1-.41,1.59,1.26,1.26,0,0,1-1.45.82c-.68-.08-1.38-.43-1.23-1.36a22.29,22.29,0,0,1,.45-2.44,45.78,45.78,0,0,0,1.16-8.4c.26-3.54.6-7.1,2.87-10a20.12,20.12,0,0,1,3-3.08,2.17,2.17,0,0,1,1.71-.17c.31.09.47.73.77,1.24"/><path class="cls-2" d="M464.4,171.91c-.45.94-.73,1.71-1.15,2.39a44.16,44.16,0,0,1-7,8.68,40,40,0,0,1-7.78,6.05,1.38,1.38,0,0,1-1.93-.29,1.35,1.35,0,0,1,.38-2.08c1.68-1.26,3.4-2.48,5.09-3.74a30.12,30.12,0,0,0,6.12-6.43c1.2-1.64,2.21-3.41,3.43-5a2.05,2.05,0,0,1,1.59-.72c.43.05.79.73,1.23,1.18"/><path class="cls-2" d="M450.22,157.66a37.39,37.39,0,0,1-1.47,3.91,26.06,26.06,0,0,1-7,9.15,52.61,52.61,0,0,1-5.13,3.29c-.89.54-1.42-.14-1.8-.82s.12-1.28.67-1.66c1-.73,2.2-1.3,3.21-2.07a23,23,0,0,0,7.89-10.24c.25-.69.48-1.38.75-2.05a1.38,1.38,0,0,1,1.52-1,1.69,1.69,0,0,1,1.39,1.53"/><path class="cls-2" d="M489.32,201.48c-.53-.36-1.08-.55-1.22-.89a1.8,1.8,0,0,1,.15-1.4c1.17-1.84,2.48-3.6,3.63-5.45,1.25-2,2.39-4.06,3.53-6.12.57-1,1.37-1.55,2.25-1a1.39,1.39,0,0,1,.58,1.78,59.89,59.89,0,0,1-6.78,11,9.88,9.88,0,0,1-.85,1.16,10.05,10.05,0,0,1-1.29,1"/><line class="cls-3" x1="563.61" y1="149.27" x2="656.59" y2="149.27"/><path class="cls-3" d="M563.31,150.54a82.66,82.66,0,1,1-82.66-82.66A82.66,82.66,0,0,1,563.31,150.54Z"/><path class="cls-3" d="M289.61,39.82A38.83,38.83,0,1,1,250.79,1,38.82,38.82,0,0,1,289.61,39.82Z"/><path class="cls-3" d="M186.76,235a14.13,14.13,0,1,1-14.13-14.13A14.13,14.13,0,0,1,186.76,235Z"/><line class="cls-3" x1="288.14" y1="50.4" x2="406.23" y2="114.52"/><line class="cls-3" x1="159.5" y1="232.99" x2="0.41" y2="161.34"/><path class="cls-2" d="M251.74,26.79a25.87,25.87,0,0,1,9.84,2.49,41.18,41.18,0,0,1,12.76,9.19c1.07,1.11,1.06,1.59,0,2.72A40.86,40.86,0,0,1,261,50.61a24.88,24.88,0,0,1-11.69,2.2,26.59,26.59,0,0,1-9.25-2.4A41.52,41.52,0,0,1,227,41c-.72-.76-.79-1.42-.15-2.1a39.32,39.32,0,0,1,16.05-10.73,25.48,25.48,0,0,1,8.81-1.34m-.89,2.45A10.58,10.58,0,1,0,261.36,40a10.65,10.65,0,0,0-10.51-10.71M229.37,39.77c1.91,2.49,9.5,7.93,10.92,7.86-3.41-5.22-3.4-10.44,0-15.71a37.75,37.75,0,0,0-10.89,7.85m32-7.93a1.85,1.85,0,0,1-.14.14c3.44,5.23,3.43,10.46-.08,15.8.34-.12.52-.16.68-.24a40.6,40.6,0,0,0,10-7.34c.37-.36.21-.55-.07-.83a41.21,41.21,0,0,0-7.55-5.93c-.94-.56-1.9-1.07-2.86-1.6"/><path class="cls-2" d="M252.46,33.83A3.11,3.11,0,0,0,251,37.21a3,3,0,0,0,2.4,2.42,3.14,3.14,0,0,0,3.4-1.43c.82,1.86,0,4.95-2.07,6.53a6.27,6.27,0,0,1-9.32-8.07,6.21,6.21,0,0,1,7.1-2.83"/><line class="cls-3" x1="401.84" y1="175.55" x2="186.63" y2="232.54"/><line class="cls-3" x1="176.63" y1="221.86" x2="235.25" y2="77.26"/></g></g></svg>