<svg xmlns="http://www.w3.org/2000/svg" viewBox="0 0 817.62 297.97"><defs><style>.cls-1{fill:#00b1eb;}.cls-2{fill:none;stroke:#fff;stroke-miterlimit:10;stroke-width:3px;}</style></defs><title>nodos</title><g id="Layer_2" data-name="Layer 2"><g id="Capa_1" data-name="Capa 1"><path class="cls-1" d="M628.22,182a55.65,55.65,0,0,1,0,5.58c-.26,2.87-.75,5.72-1.18,8.56-.28,1.88-.56,3.75-1,5.6-.31,1.51-.76,3-1.16,4.47-.32,1.18-.62,2.37-1,3.52-.84,2.47-1.66,4.95-2.62,7.38-1.28,3.24-2.54,6.51-4.09,9.62s-3.51,6.21-5.32,9.28a1.61,1.61,0,0,1-2.39.31,1.39,1.39,0,0,1-.42-2.06c1.8-3.08,3.65-6.14,5.19-9.36,1.74-3.62,3.22-7.37,4.7-11.11,1-2.45,1.8-5,2.58-7.47.44-1.42.65-2.91,1-4.37.42-1.93.87-3.85,1.25-5.79a31.36,31.36,0,0,0,.46-3.35c.32-4.06.72-8.12.86-12.19a34.17,34.17,0,0,0-.47-7.14,30.85,30.85,0,0,0-5.39-13.35,61.92,61.92,0,0,0-5.2-6.32,30.67,30.67,0,0,0-10.72-6.92,60.81,60.81,0,0,0-6.74-2.17,24,24,0,0,0-4.33-.51c-1.33-.11-2.12-.78-2.07-1.94s.93-1.77,2.27-1.54c2.65.45,5.31.95,7.92,1.59,7.8,1.9,14,6.33,19.12,12.38a39,39,0,0,1,6.7,11.51A36.34,36.34,0,0,1,628.22,182Z"/><path class="cls-1" d="M643.35,182c0,2.5.16,5-.05,7.48-.22,2.66-.8,5.29-1.22,7.93-.31,2-.54,4-1,5.91-.46,2.21-1.07,4.39-1.66,6.57s-1.23,4.39-1.89,6.57a8.61,8.61,0,0,1-.89,2.06,1.57,1.57,0,0,1-2,.5,1.2,1.2,0,0,1-.76-1.5c.33-1.52.68-3,1.07-4.52.52-2,1.11-4,1.62-6,.59-2.32,1.14-4.66,1.67-7,.23-1,.36-2.07.53-3.11l.78-5.06a3.35,3.35,0,0,0,.07-.44c.16-4.74.48-9.48.4-14.22a53.13,53.13,0,0,0-1.2-7.74,47.66,47.66,0,0,0-4-12.11,49.86,49.86,0,0,0-9.86-13.61,51.11,51.11,0,0,0-14.33-9.95,39.77,39.77,0,0,0-6.38-2.39c-2.43-.72-4.92-1.19-7.38-1.78a1.45,1.45,0,0,1-1.14-1.73c0-.85.41-1.5,1.29-1.44a31.49,31.49,0,0,1,4.75.61,39.93,39.93,0,0,1,5.22,1.63c2.08.79,4.13,1.69,6.16,2.61a46.1,46.1,0,0,1,9.41,5.78,51.31,51.31,0,0,1,13.61,15.68,83.49,83.49,0,0,1,4.3,9.19,33.49,33.49,0,0,1,1.47,6c.38,1.91.65,3.86.88,5.8.33,2.75.58,5.51.86,8.27Z"/><path class="cls-1" d="M531.75,193.19a1.52,1.52,0,0,1-1.69-1.17,2.58,2.58,0,0,1,.55-1.81c.68-.83,1.65-1.43,2.32-2.26a12.51,12.51,0,0,0,2.72-6c.41-2.78.9-5.54,1.28-8.33.24-1.76.19-3.56.53-5.3a48.24,48.24,0,0,1,6-15.87,62.38,62.38,0,0,1,8.07-10.54,50.24,50.24,0,0,1,13.49-10,69,69,0,0,1,8.16-3.49,38,38,0,0,1,6-1.47c2.15-.4,4.32-.68,6.49-.9,1.29-.13,1.89.46,1.91,1.57s-.53,1.47-1.85,1.66c-2.31.33-4.59.86-6.91,1.2a33.57,33.57,0,0,0-8.72,2.82,75.88,75.88,0,0,0-8,4.36c-5,2.95-8.84,7.1-12.41,11.55a39.09,39.09,0,0,0-6,10.48c-.93,2.45-1.81,4.93-2.59,7.43a17.48,17.48,0,0,0-.49,3.24c-.18,1.64-.28,3.28-.47,4.91a60.47,60.47,0,0,1-1,7.13c-.95,3.84-2.57,7.39-5.76,10A10,10,0,0,1,531.75,193.19Z"/><path class="cls-1" d="M603.21,181.2a38.62,38.62,0,0,0-1.28-7,11.31,11.31,0,0,0-6.4-6.41,27.32,27.32,0,0,0-5-1.37,2.11,2.11,0,0,1-1.73-1.78c0-.86.67-1.46,1.77-1.45a15.27,15.27,0,0,1,12.52,6.48,13.7,13.7,0,0,1,3,7.73,69.59,69.59,0,0,1,.3,7.35,65.15,65.15,0,0,1-1.16,7.56c-.43,2.39-.86,4.78-1.44,7.13a52.56,52.56,0,0,1-1.71,5.29c-1.13,3.08-2.26,6.16-3.52,9.19a64.2,64.2,0,0,1-6.15,11.16,84.75,84.75,0,0,1-10.75,13.28c-.54.54-1,1.34-1.94,1.14-.55-.11-1.4-.33-1.51-.68a2.65,2.65,0,0,1,.28-2,23.35,23.35,0,0,1,2.43-2.66,74.55,74.55,0,0,0,14-20.54c1.19-2.64,2.41-5.27,3.42-8,.78-2.1,1.29-4.3,1.87-6.46s1.17-4.42,1.69-6.64a23.57,23.57,0,0,0,.48-3C602.72,187,602.92,184.53,603.21,181.2Z"/><path class="cls-1" d="M543.14,218.26c-.08-1.42,1.17-1.72,2-2.23a43.41,43.41,0,0,0,10.69-9.3,35.75,35.75,0,0,0,6.06-9.85c1-2.5,1.76-5.11,2.54-7.69.94-3.13,1-6.39,1.41-9.6a55,55,0,0,1,1.76-8.92,19.41,19.41,0,0,1,7.5-10.38,24,24,0,0,1,9.52-4.21c.64-.12,1.28-.32,1.92-.4a1.6,1.6,0,0,1,1.75,1.33,1.48,1.48,0,0,1-1,1.85,18,18,0,0,1-2.82.84,18.76,18.76,0,0,0-12.83,9.83,19.25,19.25,0,0,0-1.92,7c-.24,2.59-.45,5.2-.92,7.76a82.53,82.53,0,0,1-2.26,10.11,42.12,42.12,0,0,1-7.1,13.2,47.52,47.52,0,0,1-9.31,9.16,43.11,43.11,0,0,1-4.64,2.86A1.57,1.57,0,0,1,543.14,218.26Z"/><path class="cls-1" d="M590.35,118.36c2.21.17,4.94.22,7.62.61a67.73,67.73,0,0,1,7.54,1.68c2.42.65,4.81,1.41,7.18,2.22a44.37,44.37,0,0,1,9.42,4.71c.51.33,1,.66,1.49,1a1.66,1.66,0,0,1-.21,2.94,1.6,1.6,0,0,1-1.27,0c-3-1.57-5.93-3.31-9-4.75a51.49,51.49,0,0,0-7-2.49,43.89,43.89,0,0,0-7-1.69c-3.15-.39-6.35-.45-9.52-.56a48.74,48.74,0,0,0-5.54.07,39.23,39.23,0,0,0-4.27.72c-.88.17-1.77.33-2.64.56a56,56,0,0,0-6.86,1.9c-3.41,1.39-6.71,3.07-10,4.68a40.05,40.05,0,0,0-7.76,5.55c-.45.36-.88.74-1.34,1.09a1.41,1.41,0,0,1-2-.14c-.54-.57-1.09-1.32-.33-2.12a23.89,23.89,0,0,1,2.46-2.37,57.2,57.2,0,0,1,12.78-7.93c2.25-1,4.58-1.72,6.9-2.5,1.82-.62,3.66-1.19,5.53-1.65,1.18-.3,2.42-.36,3.63-.55s2.63-.54,4-.66C586,118.52,587.93,118.48,590.35,118.36Z"/><path class="cls-1" d="M636.26,183.39c0,1.73.11,3.48,0,5.2-.16,2-.55,3.95-.83,5.92-.17,1.19-.25,2.39-.48,3.56-.36,1.87-.79,3.72-1.23,5.57s-.9,3.76-1.43,5.61c-.57,2-1.15,4-1.86,6-.93,2.61-1.93,5.21-3,7.77-.93,2.19-2,4.35-3.09,6.46-.64,1.22-1.28,1.37-2.17.87-1-.59-1.15-1.25-.63-2.51,1.86-4.52,3.71-9.05,5.48-13.62a77.1,77.1,0,0,0,2.52-7.42c.75-2.74,1.22-5.56,1.85-8.34a48.48,48.48,0,0,0,1.38-10.53c0-2.34.4-4.68.33-7s-.51-4.39-.8-6.58c-.15-1.15-.26-2.31-.5-3.44-.29-1.33-.67-2.65-1.09-3.94s-1.11-2.63-1.43-4c-.21-.89.61-1.48,1.36-1.81a1.24,1.24,0,0,1,1.7.73,46.88,46.88,0,0,1,1.73,4.44c.42,1.32.68,2.7,1,4.05a26.72,26.72,0,0,1,.76,3.48c.28,3.18.45,6.37.66,9.56Z"/><path class="cls-1" d="M589.66,133.32c2.76.25,5.57.29,8.31.8a44.57,44.57,0,0,1,9.76,2.88,45.84,45.84,0,0,1,15.45,10.67c.86.92.9,1.86.17,2.56a2.33,2.33,0,0,1-2.59-.29,45.4,45.4,0,0,0-9.91-7.68,52.57,52.57,0,0,0-8-3.33c-6.12-2.18-12.49-2.21-18.84-1.68a40.15,40.15,0,0,0-8.17,1.89,41.64,41.64,0,0,0-6,2.46c-1.41.68-2.71,1.61-4.07,2.41a1.86,1.86,0,0,1-2.42-.4,1.35,1.35,0,0,1,.44-2.2,71.08,71.08,0,0,1,6.51-3.83,43.83,43.83,0,0,1,6.86-2.56A39,39,0,0,1,583,134C585.22,133.67,587.42,133.53,589.66,133.32Z"/><path class="cls-1" d="M591.64,181.52l-1,7c-.17,1.32-.26,2.66-.53,4-.32,1.53-.77,3-1.19,4.54s-.82,3.22-1.41,4.76c-1.12,2.89-2.25,5.79-3.59,8.58a67.53,67.53,0,0,1-7,11,68.4,68.4,0,0,1-10.73,11.05c-.47.39-.93.8-1.4,1.18a2,2,0,0,1-2.86,0,2.09,2.09,0,0,1,.67-2.75c1.67-1.4,3.36-2.78,5-4.25a59.85,59.85,0,0,0,11.19-13.93,92.71,92.71,0,0,0,5.1-11A47.75,47.75,0,0,0,586,195.3c.46-1.67.61-3.42,1-5.12a50.57,50.57,0,0,0,1-10.34c0-1.43.73-2.09,1.87-2s1.63.85,1.64,2.15c0,.52,0,1,0,1.55Z"/><path class="cls-1" d="M621.2,180.31c0,3.1.09,6.19,0,9.28a41.83,41.83,0,0,1-.8,4.91c-.17,1.08-.28,2.17-.49,3.24-.32,1.61-.64,3.22-1.08,4.79-.62,2.24-1.27,4.47-2,6.65-1,2.89-2.16,5.74-3.29,8.59a6.82,6.82,0,0,1-1.06,1.8,1.25,1.25,0,0,1-2,0,1.57,1.57,0,0,1-.53-1.86c1.58-4.07,3.21-8.14,4.51-12.3,1-3.29,1.65-6.71,2.35-10.09a49.7,49.7,0,0,0,.86-5.94,75.25,75.25,0,0,0,.36-9,52.08,52.08,0,0,0-1.2-7.4,26.58,26.58,0,0,0-3.54-8.77c-.48-.79-1-1.55-1.45-2.36-.58-1.07-.4-1.53.53-2.26s1.67-.15,2.14.45a25.75,25.75,0,0,1,5,9.83c.5,2.07.92,4.17,1.32,6.26.27,1.39.43,2.79.63,4.19Z"/><path class="cls-1" d="M531.7,199.09a7.83,7.83,0,0,1,1.5-1.69c2.2-1.3,4.39-2.61,5.69-4.92a33.43,33.43,0,0,0,2.85-5.75,48.67,48.67,0,0,0,1.44-7c.35-2.14.47-4.34.89-6.47a55.65,55.65,0,0,1,1.72-6.87,79.65,79.65,0,0,1,3.13-8.07,41.05,41.05,0,0,1,8.57-11.85c1.26-1.27,2.47-1,3.16.51.36.82-.2,1.36-.64,1.87a49.49,49.49,0,0,0-4.28,4.91,92.88,92.88,0,0,0-5,8.74,32.22,32.22,0,0,0-2.13,5.56,45.56,45.56,0,0,0-1,5.21c-.3,1.81-.56,3.63-.82,5.44-.18,1.19-.32,2.38-.49,3.56a31.17,31.17,0,0,1-2.49,8.7,21.13,21.13,0,0,1-8.71,9.33c-.59.35-1.28,1.06-2.08.35A19.77,19.77,0,0,1,531.7,199.09Z"/><path class="cls-1" d="M650.36,182.87c0,2.1.15,4.22,0,6.31-.22,2.42-.75,4.82-1.13,7.23-.07.4,0,.82-.13,1.21a1.86,1.86,0,0,1-2.33,1.55,2,2,0,0,1-1.14-2.33c.3-1.65.67-3.3.81-5,.34-3.91.8-7.84.76-11.75a86.91,86.91,0,0,0-1.1-10.26,46.84,46.84,0,0,0-1.08-6,48.73,48.73,0,0,0-2.14-6.12,62.92,62.92,0,0,0-3.33-7.22c-1.55-2.73-3.42-5.28-5.17-7.91a2,2,0,0,1,.06-2.52c.73-.61,1.56-.5,2.41.43a40.24,40.24,0,0,1,6,9c1.21,2.36,2.3,4.78,3.3,7.23a46,46,0,0,1,1.64,5q.88,3.12,1.62,6.29a19.94,19.94,0,0,1,.52,3.26c.29,3.85.52,7.7.77,11.56Z"/><path class="cls-1" d="M566.5,163.48a17.53,17.53,0,0,1-.8,1.8,21.1,21.1,0,0,0-2.62,7.19q-.47,2.75-.86,5.5c-.31,2.23-.46,4.49-.88,6.7s-1.09,4.61-1.67,6.91a31.87,31.87,0,0,1-4.95,10.2,37.71,37.71,0,0,1-9.24,9.28c-1.28.92-2.68,1.67-4,2.47a1.82,1.82,0,0,1-2.6-.48c-.48-.85-.08-1.78.93-2.47a63.45,63.45,0,0,0,7.45-5.36,34.89,34.89,0,0,0,5.62-7,47.2,47.2,0,0,0,3.92-8.13,26.18,26.18,0,0,0,1-5.29c.31-1.85.57-3.71.85-5.56.16-1.11.36-2.22.45-3.34a29.77,29.77,0,0,1,3.61-12.25,3.52,3.52,0,0,1,1.09-1.29,1.7,1.7,0,0,1,1.44-.25C565.73,162.38,566.07,163,566.5,163.48Z"/><path class="cls-1" d="M598.38,189.51c-.48,2.36-.91,4.73-1.44,7.08-.4,1.77-.86,3.53-1.43,5.24a63.43,63.43,0,0,1-2.82,7.68,105.4,105.4,0,0,1-6.11,11.26,83.72,83.72,0,0,1-7,9.13c-2,2.38-4.43,4.45-6.6,6.72a2.5,2.5,0,0,1-2.39.64c-1-.15-1.22-1.93-.35-2.8,1.35-1.33,2.78-2.59,4.15-3.91a66.32,66.32,0,0,0,11.78-15.63c1.39-2.48,2.75-5,3.88-7.57a57.05,57.05,0,0,0,2.32-6.9c.8-2.79,1.47-5.63,2.14-8.46.24-1,.3-2.09.49-3.13.21-1.21.86-1.79,1.86-1.71s1.37.69,1.37,2v.33Z"/><path class="cls-1" d="M610.5,181.47v-2.21a20.23,20.23,0,0,0-2.85-10.18,20.9,20.9,0,0,0-5.57-6.3,34,34,0,0,0-4.36-2.51,1.8,1.8,0,0,1-.91-2.25,1.88,1.88,0,0,1,2.36-.85,24.07,24.07,0,0,1,11.67,10.57,16.76,16.76,0,0,1,2.4,6.69c.11,1.22.26,2.43.46,3.64.57,3.29-.19,6.57-.11,9.86a30.73,30.73,0,0,1-.75,5.16c-.18,1.14-.29,2.29-.52,3.42-.34,1.61-.77,3.21-1.16,4.82,0,.21-.12.41-.15.62-.16,1.06-.56,1.32-1.85,1.27-1,0-1.45-.56-1.33-1.46.16-1.29.45-2.56.71-3.83.16-.74.4-1.46.52-2.2.22-1.25.38-2.51.55-3.76.27-1.95.62-3.89.78-5.85.13-1.54,0-3.1,0-4.65Z"/><path class="cls-1" d="M582.83,141.4a4.54,4.54,0,0,1,1.62.41,1.69,1.69,0,0,1,.63,1.33,1.79,1.79,0,0,1-1.48,1.54,35.95,35.95,0,0,0-23,14.82,31.91,31.91,0,0,0-4.48,8.87c-.35,1-.48,2-.84,3a1.66,1.66,0,0,1-2.2,1.18,2,2,0,0,1-1-2.38A39.76,39.76,0,0,1,565,149.7a30.55,30.55,0,0,1,10.21-6c2-.67,4-1.41,6.08-2.06a6,6,0,0,1,1.54-.11Z"/><path class="cls-1" d="M582.32,194c-.43,1.55-.67,2.82-1.14,4-1.07,2.74-2.18,5.48-3.4,8.16a45.68,45.68,0,0,1-7.89,12.14c-2.21,2.42-4.43,4.84-6.82,7.08a58.23,58.23,0,0,1-5.52,4.34,1.72,1.72,0,0,1-2.72-.43c-.52-.77-.1-1.58.94-2.36a80.75,80.75,0,0,0,8.91-7.84,52.26,52.26,0,0,0,10.39-15.26c1.28-2.81,2.32-5.73,3.48-8.59a9.51,9.51,0,0,1,1-2.27,1.57,1.57,0,0,1,1.48-.3C581.6,193,582,193.62,582.32,194Z"/><path class="cls-1" d="M528.58,176.06c.55-3.35,1.07-6.71,1.67-10.05a45.7,45.7,0,0,1,4.54-13.07c1.78-3.43,3.91-6.67,6-9.95a1.78,1.78,0,0,1,2.57-.81,1.62,1.62,0,0,1,.43,2.54c-1.25,1.91-2.65,3.75-3.75,5.75a70.48,70.48,0,0,0-3.84,7.92c-1,2.64-1.75,5.42-2.57,8.16a14,14,0,0,0-.51,2.58c-.34,3.42-.64,6.85-.94,10.28a1.72,1.72,0,0,1-1.68,1.64c-1.14,0-1.52-.38-1.54-1.62s0-2.21,0-3.32Z"/><path class="cls-1" d="M604.69,155.42a5,5,0,0,1-1.14-.33,21.35,21.35,0,0,0-7.63-2.9,42.61,42.61,0,0,0-7-.78,39.35,39.35,0,0,0-6.57,1.16,21.93,21.93,0,0,0-8,3.6c-1.1.74-2.08,1.67-3.22,2.31a2.48,2.48,0,0,1-2,.18,2,2,0,0,1-.69-1.66,2.34,2.34,0,0,1,.91-1.39,35.22,35.22,0,0,1,8.89-5.31,31.81,31.81,0,0,1,15.08-2.07,28.12,28.12,0,0,1,6.68,1.64,44,44,0,0,1,5.36,2.35c.72.34,1.4.94,1.12,1.87A1.71,1.71,0,0,1,604.69,155.42Z"/><path class="cls-1" d="M588,239.5c-.43-1.52.73-2.21,1.38-3.1,2.31-3.16,4.76-6.22,7-9.43a78.39,78.39,0,0,0,4.57-7.57c1.13-2.1,2-4.35,2.93-6.52a3.86,3.86,0,0,1,.68-1.23,1.48,1.48,0,0,1,2-.32,1.72,1.72,0,0,1,.84,2.24,75.45,75.45,0,0,1-6.82,13.14c-2.24,3.3-4.52,6.57-6.81,9.84-.49.69-1.11,1.3-1.61,2a2,2,0,0,1-2.08,1A15.44,15.44,0,0,0,588,239.5Z"/><path class="cls-1" d="M580.18,184.1c.51-2.82.8-5.71,1.58-8.45a7.06,7.06,0,0,1,5.29-5,8.82,8.82,0,0,1,9.89,3.22,7.8,7.8,0,0,1,1.71,4.61,14.46,14.46,0,0,1,0,2.28,1.3,1.3,0,0,1-1.73,1.06,1.92,1.92,0,0,1-1.52-1.76,12.43,12.43,0,0,0-.76-3.24,4.81,4.81,0,0,0-3.64-3c-2.14-.51-4.31,0-5.4,1.87a9.44,9.44,0,0,0-1.15,3.32c-.31,2-.32,4.15-.58,6.22-.17,1.45-.89,2.06-2,2-.93-.06-1.56-.95-1.54-2.2v-.88Z"/><path class="cls-1" d="M582.94,167.45a5.88,5.88,0,0,1-1.05,1.5,12.28,12.28,0,0,0-5,9.39c-.16,2.06-.22,4.12-.52,6.16-.45,3-1.06,5.94-1.63,8.91a15.43,15.43,0,0,1-.49,1.89,1.51,1.51,0,0,1-1.72,1c-.82-.1-1.64-.52-1.47-1.62a28,28,0,0,1,.54-2.9,54.35,54.35,0,0,0,1.38-10c.31-4.21.71-8.43,3.41-11.93a24.63,24.63,0,0,1,3.62-3.67,2.6,2.6,0,0,1,2-.19C582.39,166.08,582.58,166.84,582.94,167.45Z"/><path class="cls-1" d="M570.12,204.68a27.27,27.27,0,0,1-1.37,2.84,52.2,52.2,0,0,1-8.3,10.32,47.37,47.37,0,0,1-9.24,7.19,1.62,1.62,0,0,1-2.3-.35,1.59,1.59,0,0,1,.45-2.46c2-1.5,4-2.95,6-4.45a35.89,35.89,0,0,0,7.28-7.64c1.43-1.95,2.63-4.06,4.07-6a2.49,2.49,0,0,1,1.89-.85C569.17,203.34,569.6,204.15,570.12,204.68Z"/><path class="cls-1" d="M553.26,187.74a43.16,43.16,0,0,1-1.75,4.65,30.72,30.72,0,0,1-8.36,10.87,59.56,59.56,0,0,1-6.09,3.92c-1.06.64-1.69-.17-2.14-1s.14-1.53.79-2c1.24-.87,2.62-1.54,3.82-2.47a27.23,27.23,0,0,0,9.38-12.17c.3-.81.58-1.63.89-2.44a1.67,1.67,0,0,1,1.81-1.23A2,2,0,0,1,553.26,187.74Z"/><path class="cls-1" d="M599.74,239.83c-.62-.43-1.28-.64-1.44-1.06a2.06,2.06,0,0,1,.18-1.66c1.38-2.19,2.94-4.27,4.31-6.47,1.48-2.38,2.83-4.84,4.2-7.28.68-1.21,1.62-1.85,2.67-1.21a1.66,1.66,0,0,1,.69,2.12,72.45,72.45,0,0,1-8.06,13,5.94,5.94,0,0,1-2.55,2.51Z"/><line class="cls-2" x1="688.06" y1="177.77" x2="817.62" y2="177.77"/><circle class="cls-2" cx="589.43" cy="179.27" r="98.27"/><circle class="cls-2" cx="316.17" cy="47.66" r="46.16"/><circle class="cls-2" cx="223.25" cy="279.67" r="16.8"/><line class="cls-2" x1="360.58" y1="60.22" x2="500.96" y2="136.46"/><line class="cls-2" x1="207.65" y1="277.3" x2="0.62" y2="184.05"/><path class="cls-1" d="M317.3,32.16a31.07,31.07,0,0,1,11.7,3A49.16,49.16,0,0,1,344.17,46c1.27,1.33,1.26,1.89,0,3.24a48.67,48.67,0,0,1-15.81,11.2,29.66,29.66,0,0,1-13.9,2.61,31.67,31.67,0,0,1-11-2.85A49.39,49.39,0,0,1,287.93,49c-.86-.91-.94-1.69-.18-2.51a46.84,46.84,0,0,1,19.08-12.75A30.47,30.47,0,0,1,317.3,32.16Zm-1.06,2.91a12.58,12.58,0,1,0,12.5,12.73A12.67,12.67,0,0,0,316.24,35.07ZM290.72,47.59c2.26,3,11.29,9.43,13,9.34-4.06-6.2-4.05-12.41,0-18.68A44.75,44.75,0,0,0,290.72,47.59Zm38.06-9.42-.17.16c4.09,6.21,4.08,12.43-.09,18.79.4-.15.61-.2.81-.3a48.07,48.07,0,0,0,11.9-8.72c.44-.43.25-.66-.08-1a49,49,0,0,0-9-7.06C331.06,39.39,329.91,38.8,328.78,38.17Z"/><path class="cls-1" d="M318.16,40.53a3.7,3.7,0,0,0-1.8,4,3.55,3.55,0,0,0,2.86,2.88,3.75,3.75,0,0,0,4-1.71c1,2.21,0,5.88-2.46,7.77a7.46,7.46,0,0,1-11.08-9.6A7.38,7.38,0,0,1,318.16,40.53Z"/><line class="cls-2" x1="495.75" y1="209.01" x2="239.9" y2="276.76"/><line class="cls-2" x1="228.01" y1="264.07" x2="297.7" y2="92.16"/></g></g></svg>