<svg xmlns="http://www.w3.org/2000/svg" viewBox="0 0 202.3 204.81"><defs><style>.cls-1{fill:#00b1eb;}.cls-2{fill:none;stroke:#fff;stroke-miterlimit:10;stroke-width:3px;}</style></defs><title>nodos-mob</title><g id="Layer_2" data-name="Layer 2"><g id="Capa_1" data-name="Capa 1"><path class="cls-1" d="M173.84,159.54c0,.63.12,1.58.07,2.53-.08,1.31-.26,2.6-.41,3.9-.1.85-.2,1.71-.35,2.55-.12.69-.3,1.37-.46,2s-.25,1.08-.41,1.61c-.34,1.13-.68,2.27-1.08,3.38-.53,1.49-1,3-1.71,4.43s-1.5,2.86-2.28,4.28a.72.72,0,0,1-1.08.18.63.63,0,0,1-.22-.93c.77-1.42,1.57-2.84,2.22-4.32.73-1.67,1.35-3.39,2-5.11.41-1.12.75-2.27,1.06-3.42.18-.65.26-1.33.38-2,.16-.88.34-1.76.48-2.64a13.23,13.23,0,0,0,.16-1.53c.09-1.84.21-3.69.21-5.54a15.19,15.19,0,0,0-.32-3.23,14,14,0,0,0-2.64-6A27.26,27.26,0,0,0,167,147a13.74,13.74,0,0,0-5-3,26.71,26.71,0,0,0-3.09-.89,11.64,11.64,0,0,0-2-.17c-.6,0-1-.32-1-.85s.39-.81,1-.73c1.21.17,2.42.36,3.62.61a16.22,16.22,0,0,1,8.85,5.33,17.77,17.77,0,0,1,3.21,5.12A16.51,16.51,0,0,1,173.84,159.54Z"/><path class="cls-1" d="M180.7,159.31c0,1.13.15,2.26.09,3.39s-.28,2.41-.43,3.61c-.12.9-.19,1.81-.35,2.7s-.42,2-.66,3-.49,2-.76,3a3.91,3.91,0,0,1-.37.95.71.71,0,0,1-.88.25.53.53,0,0,1-.37-.67c.13-.69.26-1.38.42-2.06.2-.92.44-1.83.64-2.75s.45-2.13.66-3.19c.09-.47.13-1,.19-1.42.1-.77.19-1.54.28-2.31a1.38,1.38,0,0,0,0-.2c0-2.15.07-4.31,0-6.45a25.07,25.07,0,0,0-.66-3.5,21.6,21.6,0,0,0-2-5.43,22.29,22.29,0,0,0-4.67-6,23.06,23.06,0,0,0-6.64-4.31,19,19,0,0,0-2.93-1c-1.11-.29-2.25-.47-3.38-.7a.66.66,0,0,1-.54-.77c0-.39.17-.69.57-.67a14.22,14.22,0,0,1,2.16.2,19.65,19.65,0,0,1,2.39.66c1,.33,1.9.71,2.83,1.1a20.88,20.88,0,0,1,4.36,2.48,23.2,23.2,0,0,1,6.4,6.91,39.5,39.5,0,0,1,2.09,4.1,15.41,15.41,0,0,1,.75,2.7c.2.86.35,1.74.48,2.62.19,1.24.35,2.49.52,3.74Z"/><path class="cls-1" d="M130.26,166a.68.68,0,0,1-.78-.5,1.14,1.14,0,0,1,.22-.83c.29-.39.72-.67,1-1.06a5.75,5.75,0,0,0,1.14-2.78c.14-1.27.33-2.53.46-3.8.08-.8,0-1.62.16-2.41a21.82,21.82,0,0,1,2.49-7.29,27.81,27.81,0,0,1,3.5-4.9,22.59,22.59,0,0,1,6-4.73,28.8,28.8,0,0,1,3.65-1.7,16.69,16.69,0,0,1,2.68-.76c1-.21,1.95-.37,2.93-.5.59-.08.87.18.89.68s-.22.67-.81.78c-1,.18-2.07.46-3.12.65a15.33,15.33,0,0,0-3.91,1.4,35.06,35.06,0,0,0-3.54,2.1,21.47,21.47,0,0,0-5.46,5.42,17.61,17.61,0,0,0-2.58,4.84c-.39,1.13-.75,2.26-1.07,3.41a8,8,0,0,0-.17,1.48c-.06.74-.08,1.49-.14,2.23a27.1,27.1,0,0,1-.33,3.25,8,8,0,0,1-2.46,4.6A3.83,3.83,0,0,1,130.26,166Z"/><path class="cls-1" d="M162.49,159.53a17,17,0,0,0-.69-3.16,5.13,5.13,0,0,0-3-2.82,13.42,13.42,0,0,0-2.27-.55.93.93,0,0,1-.81-.78c0-.39.28-.67.78-.68a6.91,6.91,0,0,1,5.77,2.75,6.21,6.21,0,0,1,1.49,3.46c.09,1.11.27,2.22.25,3.33a29,29,0,0,1-.42,3.45c-.15,1.09-.31,2.18-.54,3.25-.18.82-.44,1.63-.7,2.43-.47,1.41-.93,2.82-1.46,4.21a29.79,29.79,0,0,1-2.62,5.16,39.07,39.07,0,0,1-4.68,6.18c-.24.25-.44.62-.87.55-.25-.05-.64-.14-.69-.29a1.18,1.18,0,0,1,.1-.92,11.21,11.21,0,0,1,1.06-1.24,33.83,33.83,0,0,0,6.05-9.52c.5-1.22,1-2.43,1.43-3.67a29.86,29.86,0,0,0,.76-3c.24-1,.46-2,.67-3a10.46,10.46,0,0,0,.17-1.37C162.35,162.17,162.4,161,162.49,159.53Z"/><path class="cls-1" d="M135.79,177.22c0-.64.51-.8.89-1a19.78,19.78,0,0,0,4.71-4.37,16.27,16.27,0,0,0,2.6-4.56c.42-1.15.72-2.34,1-3.53a26.59,26.59,0,0,0,.5-4.37,24.32,24.32,0,0,1,.66-4.07,8.87,8.87,0,0,1,3.25-4.82,11,11,0,0,1,4.25-2.05c.29-.06.58-.16.87-.21a.73.73,0,0,1,.81.58.67.67,0,0,1-.41.85,7.76,7.76,0,0,1-1.26.42A8.49,8.49,0,0,0,148,154.7a8.69,8.69,0,0,0-.77,3.22c-.07,1.18-.13,2.36-.3,3.53a38,38,0,0,1-.88,4.62,19.07,19.07,0,0,1-3,6.09,21.34,21.34,0,0,1-4.09,4.29,18.88,18.88,0,0,1-2.06,1.37A.72.72,0,0,1,135.79,177.22Z"/><path class="cls-1" d="M155.73,131.22c1,0,2.24,0,3.46.16a28.6,28.6,0,0,1,3.44.66c1.11.26,2.21.56,3.29.9a19.61,19.61,0,0,1,4.34,2c.24.14.47.29.7.45a.75.75,0,0,1-.05,1.33.73.73,0,0,1-.58,0c-1.39-.66-2.74-1.41-4.15-2a24,24,0,0,0-3.21-1,19.88,19.88,0,0,0-3.21-.66c-1.43-.14-2.88-.11-4.33-.12-.83,0-1.67,0-2.5.11a18.36,18.36,0,0,0-1.93.4,12.14,12.14,0,0,0-1.19.29,24,24,0,0,0-3.08,1c-1.53.68-3,1.49-4.48,2.27a18.77,18.77,0,0,0-3.44,2.63l-.59.52a.64.64,0,0,1-.9,0c-.25-.25-.51-.58-.18-.95a11.35,11.35,0,0,1,1.08-1.11,25.7,25.7,0,0,1,5.68-3.79c1-.47,2-.85,3.09-1.24.82-.3,1.65-.59,2.49-.83.53-.15,1.09-.2,1.64-.3s1.18-.28,1.78-.35C153.76,131.36,154.63,131.31,155.73,131.22Z"/><path class="cls-1" d="M177.51,160c0,.79.1,1.58.06,2.36s-.19,1.8-.29,2.7c-.06.54-.08,1.09-.16,1.62-.14.85-.31,1.7-.48,2.54s-.35,1.72-.56,2.57-.47,1.83-.76,2.73c-.38,1.2-.8,2.4-1.25,3.57-.39,1-.83,2-1.31,3-.27.56-.56.64-1,.42s-.54-.54-.32-1.12c.77-2.08,1.54-4.17,2.28-6.26a33.48,33.48,0,0,0,1-3.41c.3-1.25.48-2.53.72-3.8a22.14,22.14,0,0,0,.47-4.8c0-1.06.11-2.13,0-3.18a27.51,27.51,0,0,0-.46-3c-.08-.52-.15-1-.27-1.55a18.12,18.12,0,0,0-.55-1.77c-.22-.6-.55-1.18-.71-1.79-.11-.4.25-.68.59-.84a.56.56,0,0,1,.78.3c.31.65.6,1.31.85,2s.35,1.21.51,1.82a12.46,12.46,0,0,1,.4,1.57c.17,1.44.3,2.88.44,4.32Z"/><path class="cls-1" d="M155.63,138c1.26.07,2.54,0,3.78.23a20,20,0,0,1,4.47,1.17,20.67,20.67,0,0,1,7.17,4.61.77.77,0,0,1,.11,1.16,1.06,1.06,0,0,1-1.18-.1,20.13,20.13,0,0,0-4.61-3.33,24,24,0,0,0-3.66-1.4,20.32,20.32,0,0,0-8.57-.48,19.14,19.14,0,0,0-3.67,1,18.67,18.67,0,0,0-2.66,1.2,21.38,21.38,0,0,0-1.81,1.16.86.86,0,0,1-1.11-.15.6.6,0,0,1,.17-1,31.32,31.32,0,0,1,2.89-1.84A19.71,19.71,0,0,1,150,139a17.58,17.58,0,0,1,2.61-.57C153.63,138.24,154.62,138.14,155.63,138Z"/><path class="cls-1" d="M157.24,159.85c-.11,1.07-.22,2.14-.32,3.21-.07.6-.09,1.21-.19,1.8s-.3,1.39-.47,2.08-.32,1.47-.57,2.18c-.46,1.32-.93,2.66-1.5,3.94a31.6,31.6,0,0,1-7.71,10.27l-.62.56a.91.91,0,0,1-1.29,0,.93.93,0,0,1,.26-1.25c.74-.66,1.48-1.31,2.19-2a27.19,27.19,0,0,0,4.87-6.48,43.25,43.25,0,0,0,2.15-5.05,23.35,23.35,0,0,0,.87-3c.18-.77.22-1.56.37-2.34a22.45,22.45,0,0,0,.28-4.7c0-.65.3-1,.82-1s.75.36.78,1c0,.23,0,.47,0,.7Z"/><path class="cls-1" d="M170.63,158.86c.05,1.4.14,2.81.12,4.21a19.3,19.3,0,0,1-.28,2.24c-.07.49-.1,1-.18,1.47-.12.74-.24,1.47-.42,2.19-.24,1-.51,2.05-.83,3.05-.42,1.32-.89,2.63-1.36,3.94a3,3,0,0,1-.45.83.56.56,0,0,1-.91,0,.7.7,0,0,1-.27-.84c.65-1.87,1.33-3.73,1.86-5.64.42-1.51.65-3.07.92-4.61a22.24,22.24,0,0,0,.3-2.71,34.88,34.88,0,0,0,0-4.09,23.88,23.88,0,0,0-.65-3.33,12.15,12.15,0,0,0-1.74-3.93c-.23-.35-.48-.69-.69-1s-.21-.68.2-1,.76-.09,1,.17a11.78,11.78,0,0,1,2.43,4.39c.26.93.48,1.87.69,2.82.14.62.23,1.26.35,1.89Z"/><path class="cls-1" d="M130.32,168.7a3.71,3.71,0,0,1,.66-.79,6.49,6.49,0,0,0,2.51-2.31,16.11,16.11,0,0,0,1.2-2.65,20.51,20.51,0,0,0,.55-3.21c.13-1,.15-2,.31-3a25.41,25.41,0,0,1,.68-3.14,34.68,34.68,0,0,1,1.3-3.71,18.78,18.78,0,0,1,3.71-5.5c.55-.59,1.11-.5,1.44.19.18.36-.07.61-.26.85a23.68,23.68,0,0,0-1.87,2.29,44.46,44.46,0,0,0-2.13,4,14.07,14.07,0,0,0-.88,2.56,20.86,20.86,0,0,0-.37,2.37c-.11.83-.2,1.65-.29,2.48-.07.54-.11,1.08-.17,1.62a14.45,14.45,0,0,1-1,4,9.64,9.64,0,0,1-3.81,4.37c-.27.16-.57.49-.94.18A7.13,7.13,0,0,1,130.32,168.7Z"/><path class="cls-1" d="M183.89,159.59c0,.95.13,1.91.08,2.86-.07,1.1-.27,2.2-.41,3.3a5.09,5.09,0,0,1,0,.55.83.83,0,0,1-1,.73.91.91,0,0,1-.55-1c.11-.76.25-1.51.29-2.27a52.92,52.92,0,0,0,.17-5.34,36.57,36.57,0,0,0-.65-4.63,20.53,20.53,0,0,0-.58-2.72,21.23,21.23,0,0,0-1.06-2.74,28.44,28.44,0,0,0-1.61-3.22c-.75-1.22-1.64-2.35-2.47-3.52a.91.91,0,0,1,0-1.14c.32-.29.7-.25,1.1.16a18.26,18.26,0,0,1,2.88,4c.58,1.05,1.11,2.13,1.6,3.23a19.42,19.42,0,0,1,.81,2.25c.3.93.58,1.88.84,2.83a9.08,9.08,0,0,1,.28,1.47c.19,1.74.35,3.48.52,5.23Z"/><path class="cls-1" d="M145.58,152a7.34,7.34,0,0,1-.34.83,9.56,9.56,0,0,0-1.08,3.3c-.11.83-.22,1.66-.31,2.5-.1,1-.14,2-.3,3.05s-.42,2.11-.65,3.16a14.31,14.31,0,0,1-2.1,4.7,17.07,17.07,0,0,1-4.05,4.34,21.43,21.43,0,0,1-1.8,1.18.81.81,0,0,1-1.18-.18c-.23-.37-.06-.8.38-1.13a27.52,27.52,0,0,0,3.3-2.54A16,16,0,0,0,139.9,168a21.57,21.57,0,0,0,1.65-3.74,11.42,11.42,0,0,0,.38-2.42c.11-.84.21-1.69.3-2.53.06-.51.13-1,.16-1.52a13.49,13.49,0,0,1,1.45-5.61,1.68,1.68,0,0,1,.48-.6.83.83,0,0,1,.65-.14C145.21,151.55,145.38,151.83,145.58,152Z"/><path class="cls-1" d="M160.42,163.37c-.18,1.08-.34,2.16-.55,3.23a24.61,24.61,0,0,1-.57,2.4,27.89,27.89,0,0,1-1.16,3.52,49.51,49.51,0,0,1-2.61,5.2,37.15,37.15,0,0,1-3.06,4.25c-.89,1.1-1.94,2.08-2.89,3.14a1.12,1.12,0,0,1-1.08.32c-.44-.05-.58-.85-.19-1.26.59-.62,1.22-1.22,1.82-1.83a30.19,30.19,0,0,0,5.11-7.27c.59-1.14,1.17-2.3,1.65-3.49a26.16,26.16,0,0,0,1-3.16c.32-1.28.58-2.57.84-3.87.1-.47.11-1,.18-1.43s.36-.82.82-.8.63.29.65.88v.16Z"/><path class="cls-1" d="M165.8,159.54c0-.33,0-.67,0-1a9.06,9.06,0,0,0-1.44-4.57,9.39,9.39,0,0,0-2.62-2.78,16.72,16.72,0,0,0-2-1.07.83.83,0,0,1-.45-1,.86.86,0,0,1,1.06-.42,11,11,0,0,1,5.45,4.62,7.78,7.78,0,0,1,1.19,3c.06.55.15,1.1.26,1.64a30.47,30.47,0,0,1,.1,4.48,14.72,14.72,0,0,1-.27,2.35c-.06.52-.1,1-.19,1.56-.13.73-.3,1.47-.45,2.2a2.8,2.8,0,0,0-.06.28c-.05.49-.23.61-.82.61-.44,0-.66-.23-.62-.65.05-.58.16-1.16.26-1.74.06-.34.16-.67.21-1,.08-.57.13-1.14.19-1.71.09-.89.22-1.78.27-2.67,0-.7,0-1.4-.06-2.1Z"/><path class="cls-1" d="M152.66,141.78a2,2,0,0,1,.74.17.75.75,0,0,1,.3.59.8.8,0,0,1-.64.72,17.29,17.29,0,0,0-5.82,2.54,17.11,17.11,0,0,0-4.38,4.52,14.4,14.4,0,0,0-1.9,4.09c-.14.45-.19.93-.34,1.38a.75.75,0,0,1-1,.57.91.91,0,0,1-.51-1.06,18.08,18.08,0,0,1,5.55-9.49,13.89,13.89,0,0,1,4.54-2.89c.92-.34,1.82-.7,2.73-1a3.26,3.26,0,0,1,.7-.07Z"/><path class="cls-1" d="M153.2,165.65c-.17.71-.26,1.29-.45,1.83-.45,1.26-.91,2.52-1.43,3.75a20.71,20.71,0,0,1-3.39,5.63c-1,1.12-1.94,2.25-3,3.31a28.15,28.15,0,0,1-2.44,2.05.78.78,0,0,1-1.24-.16c-.25-.34-.07-.71.39-1.08a36,36,0,0,0,3.92-3.69,23.46,23.46,0,0,0,4.49-7.07c.54-1.3,1-2.63,1.45-3.95a4.45,4.45,0,0,1,.43-1.05.71.71,0,0,1,.66-.15A2.22,2.22,0,0,1,153.2,165.65Z"/><path class="cls-1" d="M128.57,158.3c.2-1.53.39-3.05.6-4.58a20.94,20.94,0,0,1,1.87-6c.76-1.57,1.67-3.08,2.55-4.6a.82.82,0,0,1,1.16-.4.74.74,0,0,1,.23,1.15c-.54.88-1.15,1.74-1.62,2.66a32.15,32.15,0,0,0-1.62,3.65c-.44,1.21-.72,2.48-1,3.73a6.07,6.07,0,0,0-.2,1.18q-.15,2.34-.27,4.68a.79.79,0,0,1-.74.77c-.52,0-.7-.15-.72-.71s0-1-.06-1.51Z"/><path class="cls-1" d="M162.78,147.82a2.94,2.94,0,0,1-.53-.14,9.9,9.9,0,0,0-3.5-1.2,19,19,0,0,0-3.18-.25,17.91,17.91,0,0,0-3,.62,10,10,0,0,0-3.57,1.76c-.48.35-.92.78-1.42,1.09a1.17,1.17,0,0,1-.91.11.9.9,0,0,1-.33-.74,1,1,0,0,1,.39-.65,16,16,0,0,1,3.95-2.53,14.41,14.41,0,0,1,6.81-1.17,13.08,13.08,0,0,1,3.05.65,20.14,20.14,0,0,1,2.47,1c.33.15.64.41.53.84A.78.78,0,0,1,162.78,147.82Z"/><path class="cls-1" d="M156.45,186.19c-.21-.68.3-1,.58-1.42,1-1.47,2.07-2.89,3-4.39a34.19,34.19,0,0,0,2-3.49c.48-1,.83-2,1.24-3a1.73,1.73,0,0,1,.28-.56.69.69,0,0,1,.9-.18.78.78,0,0,1,.41,1,34.39,34.39,0,0,1-2.9,6.06c-1,1.52-1.95,3-2.94,4.56-.21.32-.48.6-.7.92a.92.92,0,0,1-.93.48A7.37,7.37,0,0,0,156.45,186.19Z"/><path class="cls-1" d="M152.09,161.18a38,38,0,0,1,.59-3.85A3.19,3.19,0,0,1,155,155a4,4,0,0,1,4.53,1.31,3.56,3.56,0,0,1,.84,2.07,5.94,5.94,0,0,1,0,1,.6.6,0,0,1-.77.51.87.87,0,0,1-.71-.78,6.18,6.18,0,0,0-.39-1.46,2.17,2.17,0,0,0-1.7-1.31,2.12,2.12,0,0,0-2.42.92,4.32,4.32,0,0,0-.47,1.53c-.11.93-.09,1.89-.17,2.83-.06.66-.38.94-.87.93s-.72-.41-.73-1c0-.13,0-.27,0-.4Z"/><path class="cls-1" d="M153.09,153.59a2.82,2.82,0,0,1-.45.7,5.55,5.55,0,0,0-2.14,4.33c0,.94,0,1.87-.14,2.8-.16,1.36-.4,2.71-.61,4.07a8.26,8.26,0,0,1-.2.86.67.67,0,0,1-.76.47c-.37,0-.75-.21-.69-.71a11.85,11.85,0,0,1,.2-1.33,24.74,24.74,0,0,0,.48-4.55c.08-1.91.2-3.83,1.37-5.46a10.31,10.31,0,0,1,1.59-1.71,1.12,1.12,0,0,1,.91-.12C152.82,153,152.92,153.32,153.09,153.59Z"/><path class="cls-1" d="M147.83,170.67c-.23.51-.36.93-.58,1.31a24.14,24.14,0,0,1-3.61,4.8,21.44,21.44,0,0,1-4.09,3.39.72.72,0,0,1-1-.12.71.71,0,0,1,.16-1.12l2.68-2.11a16.17,16.17,0,0,0,3.19-3.57c.62-.91,1.13-1.88,1.76-2.78a1.1,1.1,0,0,1,.84-.42C147.38,170.07,147.59,170.43,147.83,170.67Z"/><path class="cls-1" d="M139.93,163.24a19.75,19.75,0,0,1-.72,2.13,14,14,0,0,1-3.63,5,28.31,28.31,0,0,1-2.71,1.87c-.47.3-.77,0-1-.41s0-.69.33-.91c.55-.41,1.17-.74,1.69-1.17a12.31,12.31,0,0,0,4.08-5.66c.12-.37.23-.75.36-1.12a.77.77,0,0,1,.81-.59A.91.91,0,0,1,139.93,163.24Z"/><path class="cls-1" d="M161.78,186.17c-.29-.19-.59-.28-.67-.46a1,1,0,0,1,.06-.76c.6-1,1.27-2,1.86-3s1.21-2.23,1.8-3.36c.28-.56.7-.86,1.19-.59a.76.76,0,0,1,.34.95,32.57,32.57,0,0,1-3.46,6,5.58,5.58,0,0,1-.44.64A6.21,6.21,0,0,1,161.78,186.17Z"/><circle class="cls-2" cx="156.2" cy="158.71" r="44.59"/><circle class="cls-2" cx="175.46" cy="22.45" r="20.94"/><circle class="cls-2" cx="70.71" cy="58.63" r="7.62"/><line class="cls-2" x1="172.03" y1="43.16" x2="162.52" y2="114.57"/><line class="cls-2" x1="62.84" y1="58.31" x2="0.03" y2="59.4"/><path class="cls-1" d="M176.22,15.44A13.91,13.91,0,0,1,181.48,17a22,22,0,0,1,6.7,5.2c.56.62.55.87-.06,1.46a22.05,22.05,0,0,1-7.34,4.83,13.53,13.53,0,0,1-6.35,1A14.32,14.32,0,0,1,169.49,28a22.3,22.3,0,0,1-6.85-5.34c-.38-.43-.41-.78,0-1.14A21.13,21.13,0,0,1,171.45,16,13.85,13.85,0,0,1,176.22,15.44Zm-.52,1.3a5.71,5.71,0,1,0,5.46,6A5.76,5.76,0,0,0,175.7,16.74ZM163.92,22c1,1.38,5,4.46,5.73,4.44a7.21,7.21,0,0,1,.29-8.46A20.35,20.35,0,0,0,163.92,22Zm17.41-3.66-.08.07a7.17,7.17,0,0,1-.34,8.52c.18-.06.28-.08.37-.12a21.8,21.8,0,0,0,5.54-3.77c.2-.18.12-.29,0-.45a22.54,22.54,0,0,0-4-3.34C182.35,18.94,181.83,18.65,181.33,18.35Z"/><path class="cls-1" d="M176.48,19.25A1.68,1.68,0,0,0,175.6,21a1.59,1.59,0,0,0,1.25,1.35,1.68,1.68,0,0,0,1.86-.71,3.29,3.29,0,0,1-1.24,3.49,3.38,3.38,0,0,1-4.87-4.53A3.35,3.35,0,0,1,176.48,19.25Z"/><line class="cls-2" x1="130.44" y1="122.31" x2="74.26" y2="65.43"/><line class="cls-2" x1="78.03" y1="55.38" x2="155.45" y2="28.46"/></g></g></svg>