<svg xmlns="http://www.w3.org/2000/svg" viewBox="0 0 473.41 161.67"><defs><style>.cls-1{fill:#3f485d;}.cls-2{fill:#fac716;}.cls-3,.cls-4,.cls-5,.cls-7{fill:none;stroke:#00b1eb;}.cls-3,.cls-7{stroke-miterlimit:10;}.cls-3,.cls-4,.cls-5{stroke-width:0.7px;}.cls-4,.cls-5{stroke-linejoin:round;}.cls-5{stroke-linecap:round;}.cls-6{fill:#00b1eb;}.cls-7{stroke-width:3px;}</style></defs><title>recognition</title><g id="Layer_2" data-name="Layer 2"><g id="Capa_1" data-name="Capa 1"><path class="cls-1" d="M413.31,77.77c.64-5.43,2.24-22.38-1.91-26.09-9.32-8.3-30.39-18.44-34.09-2.81h0c-.29-.08-8.76-2.38-13.08,1.28s-6,15.33-4.53,27.7c-3.71.49-5,1.87-5.36,5.33a17,17,0,0,0,2.4,10.7c1.57,2.58,4.31,3.87,4.5,4.4,1.4,3.77,1.8,6.15,5.17,11.26,4.2,6.37,9.94,10.54,20,10.54,8.66,0,14.63-4,19.11-10.48a40,40,0,0,0,5.44-10.88c.58-1.59,1.26-1.47,2.88-2.52a10.16,10.16,0,0,0,2.62-2.93,17.36,17.36,0,0,0,2.13-8.63C418.43,79.87,417,78.25,413.31,77.77Zm-55.94,4.06a2,2,0,0,1,1.57-1.2c.64.06.6,1,.6,1.5a84,84,0,0,0,.73,11.73C357.33,90.89,356.09,84.45,357.37,81.83Zm48.38,22.71c-2.52,4.91-8.09,13.09-19.1,13.09-9.44,0-14.89-3.63-19.15-11.13-4.51-8-5-13.23-5-20.45,0-3.82-.48-7.65-.31-11.47.24-5.28,1.65-7.58,6.5-9.94,7-3.4,6.5-7.6,8.61-7.62s6.23,4.83,17.69,5.88c5.26.49,8.8-.34,12.33,5.05,3.22,4.92,2.9,8.94,2.9,11.71C410.24,89.91,408.9,98.4,405.75,104.54ZM412.33,94a67.35,67.35,0,0,0,.93-12.43c0-1.18.73-1.21,1.4-.67a3,3,0,0,1,1,1.68C416.26,86.22,415.21,91.68,412.33,94Z"/><circle class="cls-1" cx="376.83" cy="87.61" r="2.2"/><path class="cls-1" d="M398.06,85.71a2.21,2.21,0,1,0,2.2,2.21A2.21,2.21,0,0,0,398.06,85.71Z"/><path class="cls-1" d="M393.83,105c-8.78,2.39-14.81-.38-14.87-.41a.92.92,0,0,0-1.23.44.93.93,0,0,0,.43,1.24,21.07,21.07,0,0,0,8.52,1.58,28.94,28.94,0,0,0,7.64-1.06.94.94,0,0,0,.65-1.14A.92.92,0,0,0,393.83,105Z"/><path class="cls-1" d="M379.74,81.06a.66.66,0,0,0,1-.43,1.08,1.08,0,0,0-.34-1.25c-.16-.1-4.15-2.5-9.52.82a1.06,1.06,0,0,0-.34,1.24.72.72,0,0,0,.65.53.58.58,0,0,0,.3-.09C376.18,79,379.59,81,379.74,81.06Z"/><path class="cls-1" d="M402.82,80.2c-5.38-3.32-9.36-.92-9.53-.82a1.08,1.08,0,0,0-.34,1.25.66.66,0,0,0,1,.43c.15-.09,3.57-2.1,8.29.82a.61.61,0,0,0,.31.09.72.72,0,0,0,.65-.53A1.06,1.06,0,0,0,402.82,80.2Z"/><path class="cls-1" d="M389.21,109.93a24.29,24.29,0,0,1-6.22-.17.93.93,0,0,0-.29,1.84,25.11,25.11,0,0,0,4,.31c.89,0,1.79,0,2.69-.13a.93.93,0,1,0-.18-1.85Z"/><path class="cls-1" d="M387.82,100.35c2.74,0,4.83-1.76,5-4.18a7.14,7.14,0,0,0-1.63-4.64,8.24,8.24,0,0,1-1.51-3.27.86.86,0,0,0-1.7.27,9.68,9.68,0,0,0,1.77,3.94,5.62,5.62,0,0,1,1.35,3.58c-.09,1.49-1.47,2.57-3.27,2.57a5.46,5.46,0,0,1-4-1.44.85.85,0,0,0-1.21,0,.85.85,0,0,0,0,1.21A7.16,7.16,0,0,0,387.82,100.35Z"/><path class="cls-2" d="M341.91,135.22H330.39a2.36,2.36,0,0,1-2.36-2.36V120.32h4.72V130.5h9.16Z"/><path class="cls-2" d="M442.18,135.22H431.12V130.5h8.7V122h4.72v10.83A2.36,2.36,0,0,1,442.18,135.22Z"/><path class="cls-2" d="M444.54,41.07h-4.72v-9.9h-8.7V26.45h11.06a2.36,2.36,0,0,1,2.36,2.36Z"/><path class="cls-2" d="M332.75,39.66H328V28.81a2.36,2.36,0,0,1,2.36-2.36h13.12v4.72H332.75Z"/><polyline class="cls-3" points="375.68 104.1 382.85 107.9 389.94 107.9 396.81 104.63 386.38 101.61 375.68 104.1"/><polyline class="cls-3" points="386.42 80.35 379.04 93.59 386.45 96.83"/><polyline class="cls-4" points="382.85 107.9 379.83 117.44 392.93 117.44 389.94 107.9"/><polyline class="cls-4" points="387.02 80.55 398.58 85.24 407.35 79.49 398.88 75.69 386.45 80.51 386.45 96.83 393.43 93.38 386.64 80.51"/><polyline class="cls-5" points="394.58 93.62 408.02 93.33 396.81 104.63 393.97 93.59"/><polyline class="cls-3" points="392.93 117.44 407.92 93.55 407.35 79.49"/><polyline class="cls-4" points="385.91 80.35 373.9 84.72 365.13 78.97 374.53 75.4 386.45 80.51"/><polyline class="cls-5" points="378.43 93.62 364.46 92.81 375.68 104.1 379.04 93.59"/><polyline class="cls-3" points="379.83 117.44 364.04 92.5 365.13 78.97"/><circle class="cls-6" cx="365.04" cy="78.77" r="1.28"/><circle class="cls-6" cx="386.5" cy="80.29" r="1.28"/><circle class="cls-6" cx="407.06" cy="79.49" r="1.28"/><circle class="cls-6" cx="393.52" cy="93.33" r="1.28"/><circle class="cls-6" cx="386.5" cy="96.39" r="1.28"/><circle class="cls-6" cx="398.77" cy="75.69" r="1.28"/><circle class="cls-6" cx="386.45" cy="66.33" r="1.28"/><circle class="cls-6" cx="374.51" cy="75.69" r="1.28"/><circle class="cls-6" cx="379.04" cy="93.33" r="1.28"/><circle class="cls-6" cx="373.91" cy="84.72" r="1.28"/><circle class="cls-6" cx="398.77" cy="84.98" r="1.28"/><circle class="cls-6" cx="364.46" cy="92.44" r="1.28"/><circle class="cls-6" cx="407.35" cy="93.05" r="1.28"/><circle class="cls-6" cx="396.81" cy="104.63" r="1.28"/><circle class="cls-6" cx="375.95" cy="104.1" r="1.28"/><circle class="cls-6" cx="379.83" cy="117.44" r="1.28"/><circle class="cls-6" cx="392.93" cy="117.44" r="1.28"/><polyline class="cls-4" points="374.51 75.69 386.45 66.33 398.88 75.69"/><path class="cls-1" d="M270.14,81.44c-.09-4.81-1.58-6.38-5.34-6.82a88.66,88.66,0,0,0-1.15-11C261.33,53,257,47.46,250.55,44.76c-5.11-2.12-10.6-1.92-16-1.65-13.53.67-20.9,10-22.22,24.73-.18,2.11-.2,4.74-.16,6.89-3.72.47-5,1.83-5.36,5.28a16.84,16.84,0,0,0,2.36,10.55c1.55,2.55,3.81,3.53,4,4.07a41.12,41.12,0,0,0,5.59,13.08,23.52,23.52,0,0,0,19.69,10.85,22.07,22.07,0,0,0,18.78-10.15,48.2,48.2,0,0,0,6-13.21c.52-1.58.67-1.31,2.28-2.35A10,10,0,0,0,268,90,17.06,17.06,0,0,0,270.14,81.44Zm-57.46,9.09c-2.91-2.92-4.12-9.28-2.86-11.87a1.94,1.94,0,0,1,1.55-1.18c.63.06.59,1,.59,1.48A81.56,81.56,0,0,0,212.68,90.53ZM262.27,76.6c.45,19.41-4.57,26.55-4.67,26.46-1.67,3.88-7.34,13.17-18.91,13.17-9.31,0-14.28-3.5-18.73-11.08-3.8-6.47-5.46-13.12-5.41-22.31,0-3.78-.14-7.56,0-11.32a22.33,22.33,0,0,1,5.39-14,2.26,2.26,0,0,1,2.95-.7c1.91.84,3.62,2.27,5.67,2.63a16.13,16.13,0,0,0,9.55-.92c3.77-1.62,6-4.25,8.56-4.23,3.71-.35,8,1.49,11.51,6.81C261.39,66,262.21,73.87,262.27,76.6ZM264,90.67A66.33,66.33,0,0,0,265,78.41c0-1.17.71-1.19,1.37-.66a2.89,2.89,0,0,1,.95,1.65C267.92,83,266.88,88.38,264,90.67Z"/><path class="cls-1" d="M235.31,96.32a2.91,2.91,0,0,1,1,.11c.29.1.91.51,1.09.54a3.08,3.08,0,0,0,2.26.09c.32-.1.73-.49,1.06-.61a3.1,3.1,0,0,1,1.2-.13,2.89,2.89,0,0,0,3.19-2.6c0-.39.12-1-.62-1.14s-.79.4-.89.73c-.39,1.29-.83,1.44-2,1.15a2.34,2.34,0,0,0-1.76.42,1.83,1.83,0,0,1-2.6,0,2.36,2.36,0,0,0-1.65-.39c-1,.2-1.64,0-2-1.05-.14-.4-.37-.84-1-.69s-.57.8-.48,1.27A2.87,2.87,0,0,0,235.31,96.32Z"/><path class="cls-1" d="M238.64,97.31a3.09,3.09,0,0,1-1.25-.27,2.52,2.52,0,0,1-.5-.24,3.45,3.45,0,0,0-.58-.29,2.65,2.65,0,0,0-1-.11h0a2.94,2.94,0,0,1-3.24-2.34c-.1-.55,0-1.24.54-1.37.73-.16,1,.31,1.13.75.36,1.07,1,1.18,1.9,1a2.41,2.41,0,0,1,1.72.4,1.77,1.77,0,0,0,2.51,0,2.37,2.37,0,0,1,1.82-.43c1.08.28,1.47.16,1.85-1.11v0c.1-.32.26-.87,1-.76s.71.72.69,1.11c0,0,0,.08,0,.12a2.61,2.61,0,0,1-.87,1.85,3.31,3.31,0,0,1-2.4.82,2.89,2.89,0,0,0-1.16.12,2.5,2.5,0,0,0-.51.3,2.1,2.1,0,0,1-.56.31A3.28,3.28,0,0,1,238.64,97.31Zm-3.11-1.07a2.62,2.62,0,0,1,.82.12,4.21,4.21,0,0,1,.61.3,3.43,3.43,0,0,0,.48.24,3,3,0,0,0,2.22.09,2.58,2.58,0,0,0,.51-.3,2.26,2.26,0,0,1,1.77-.44,3.13,3.13,0,0,0,2.28-.78,2.48,2.48,0,0,0,.83-1.75V93.6c0-.39,0-.84-.55-.94s-.7.31-.8.65v0c-.42,1.38-.94,1.49-2,1.21a2.28,2.28,0,0,0-1.69.39,1.91,1.91,0,0,1-2.69,0,2.2,2.2,0,0,0-1.6-.38c-1,.19-1.69.07-2.08-1.11-.13-.41-.34-.77-1-.64-.45.11-.51.71-.42,1.19a2.81,2.81,0,0,0,3.08,2.22h.23Z"/><circle class="cls-1" cx="227.31" cy="82.66" r="2.17"/><circle class="cls-1" cx="249.96" cy="82.97" r="2.17"/><path class="cls-1" d="M238.74,106.07a20.69,20.69,0,0,1-8.41-1.56.92.92,0,0,1,.79-1.66c.06,0,6,2.77,14.66.41a.91.91,0,0,1,1.13.64.93.93,0,0,1-.64,1.13A28.92,28.92,0,0,1,238.74,106.07Z"/><path class="cls-1" d="M221.08,78.23a.92.92,0,0,1-.4-1.75c6.88-3.28,12-.91,12.18-.8a.91.91,0,1,1-.79,1.65c-.19-.09-4.56-2.07-10.6.81A.89.89,0,0,1,221.08,78.23Z"/><path class="cls-1" d="M256,78.84a.92.92,0,0,1-.39-.09c-6-2.88-10.42-.89-10.6-.8a.92.92,0,0,1-1.22-.44.91.91,0,0,1,.43-1.22c.21-.1,5.31-2.47,12.18.81a.91.91,0,0,1-.4,1.74Z"/><path class="cls-1" d="M238.76,110a24.4,24.4,0,0,1-3.95-.31.92.92,0,1,1,.28-1.81,24.14,24.14,0,0,0,6.14.16.92.92,0,0,1,.18,1.83A26.41,26.41,0,0,1,238.76,110Z"/><polyline class="cls-3" points="228 104.1 235.17 107.9 242.27 107.9 249.13 104.63 238.7 101.61 228 104.1"/><polyline class="cls-3" points="238.74 80.35 231.36 93.59 238.77 96.83"/><polyline class="cls-4" points="235.17 107.9 232.16 117.44 245.25 117.44 242.27 107.9"/><polyline class="cls-4" points="239.34 80.55 250.9 85.24 259.68 79.49 251.2 75.69 238.77 80.51 238.77 96.83 245.75 93.38 238.97 80.51"/><polyline class="cls-5" points="246.9 93.62 260.35 93.33 249.13 104.63 246.3 93.59"/><polyline class="cls-3" points="245.25 117.44 260.25 93.55 259.68 79.49"/><polyline class="cls-4" points="238.23 80.35 226.23 84.72 217.46 78.97 226.85 75.4 238.77 80.51"/><polyline class="cls-5" points="230.75 93.62 216.78 92.81 228 104.1 231.36 93.59"/><polyline class="cls-3" points="232.16 117.44 216.36 92.5 217.46 78.97"/><circle class="cls-6" cx="217.36" cy="78.77" r="1.28"/><circle class="cls-6" cx="238.83" cy="80.29" r="1.28"/><circle class="cls-6" cx="259.38" cy="79.49" r="1.28"/><circle class="cls-6" cx="245.85" cy="93.33" r="1.28"/><circle class="cls-6" cx="238.83" cy="96.39" r="1.28"/><circle class="cls-6" cx="251.09" cy="75.69" r="1.28"/><circle class="cls-6" cx="238.77" cy="66.33" r="1.28"/><circle class="cls-6" cx="226.83" cy="75.69" r="1.28"/><circle class="cls-6" cx="231.36" cy="93.33" r="1.28"/><circle class="cls-6" cx="226.24" cy="84.72" r="1.28"/><circle class="cls-6" cx="251.09" cy="84.98" r="1.28"/><circle class="cls-6" cx="216.78" cy="92.44" r="1.28"/><circle class="cls-6" cx="259.68" cy="93.05" r="1.28"/><circle class="cls-6" cx="249.13" cy="104.63" r="1.28"/><circle class="cls-6" cx="228.28" cy="104.1" r="1.28"/><circle class="cls-6" cx="232.16" cy="117.44" r="1.28"/><circle class="cls-6" cx="245.25" cy="117.44" r="1.28"/><polyline class="cls-4" points="226.83 75.69 238.77 66.33 251.2 75.69"/><path class="cls-2" d="M192.33,135.22H180.82a2.36,2.36,0,0,1-2.37-2.36V120.32h4.73V130.5h9.15Z"/><path class="cls-2" d="M292.6,135.22H281.55V130.5h8.69V122H295v10.83A2.35,2.35,0,0,1,292.6,135.22Z"/><path class="cls-2" d="M295,41.07h-4.72v-9.9h-8.69V26.45H292.6A2.36,2.36,0,0,1,295,28.81Z"/><path class="cls-2" d="M183.18,39.66h-4.73V28.81a2.37,2.37,0,0,1,2.37-2.36h13.11v4.72H183.18Z"/><path class="cls-1" d="M79.5,85.88a2.79,2.79,0,1,0,2.79,2.78A2.78,2.78,0,0,0,79.5,85.88Z"/><path class="cls-1" d="M98.14,85.88a2.79,2.79,0,1,0,2.78,2.78A2.78,2.78,0,0,0,98.14,85.88Z"/><path class="cls-1" d="M93.51,103.72a9.1,9.1,0,0,1-8.67.21.93.93,0,0,0-.72,1.71,9.11,9.11,0,0,0,5.25,1.22,10.43,10.43,0,0,0,4.71-1.37,1,1,0,0,0,.6-1.17A.88.88,0,0,0,93.51,103.72Z"/><path class="cls-1" d="M84,78.36a1,1,0,0,0-.56-1.17c-.21-.08-5.08-1.8-10.71,2.37a1,1,0,0,0-.21,1.29.83.83,0,0,0,.81.42.74.74,0,0,0,.34-.15c5-3.66,9.12-2.24,9.3-2.17A.79.79,0,0,0,84,78.36Z"/><path class="cls-1" d="M93.84,78.36a1,1,0,0,1,.56-1.17c.2-.08,5.07-1.8,10.71,2.37a1,1,0,0,1,.21,1.29.84.84,0,0,1-.82.42.76.76,0,0,1-.33-.15c-5-3.66-9.12-2.24-9.31-2.17A.78.78,0,0,1,93.84,78.36Z"/><path class="cls-1" d="M123.87,101.86s-4.29-5.06-2.51-18.58c.3-2.32,1.49-13.81-2.86-24.14S102,44,95.43,43.09h0a25.27,25.27,0,0,0-10,.44c-4.71,1.06-8.18,5.17-8.18,5.17s-10.86-3-19.31,14c-3.14,6.34-1.14,12.9-.92,18.57.33,8.82-2.62,12.82-6.68,15.27,0,0,.06,10.11,11.82,15a15.81,15.81,0,0,0,11,.22A23.33,23.33,0,0,0,89.19,118a22.33,22.33,0,0,0,18-8.86c.52-.7,1.52-2.2,1.52-2.2C118.78,108.83,123.87,101.86,123.87,101.86ZM89.48,115.63c-9.44,0-14.07-4.23-19-11.23-4.59-6.55-4.56-10.55-4.56-10.55-1.48.26-5.18-.49-5.18-6.56s4.68-5.37,4.68-5.37L65,75.38h0c0-.51,0-1,0-1.46,4.85-.47,10.16-4.28,14.11-13.26,0,0,11.65,13.56,34,13.46l.09.13-.94,7.67s4.68-.71,4.68,5.37-3.7,6.82-5.18,6.56C111.72,93.85,107.46,115.63,89.48,115.63Z"/><polyline class="cls-3" points="77.98 104.1 85.14 107.9 92.24 107.9 99.11 104.63 88.68 101.61 77.98 104.1"/><polyline class="cls-3" points="88.72 80.35 81.33 93.59 88.75 96.83"/><polyline class="cls-4" points="85.14 107.9 82.13 117.44 95.22 117.44 92.24 107.9"/><polyline class="cls-4" points="89.31 80.55 100.88 85.24 109.65 79.49 101.18 75.69 88.75 80.51 88.75 96.83 95.72 93.38 88.94 80.51"/><polyline class="cls-5" points="96.88 93.62 110.32 93.33 99.11 104.63 96.27 93.59"/><polyline class="cls-3" points="95.22 117.44 110.22 93.55 109.65 79.49"/><polyline class="cls-4" points="88.21 80.35 76.2 84.72 67.43 78.97 76.83 75.4 88.75 80.51"/><polyline class="cls-5" points="80.73 93.62 66.76 92.81 77.98 104.1 81.33 93.59"/><polyline class="cls-3" points="82.13 117.44 66.34 92.5 67.43 78.97"/><circle class="cls-6" cx="67.33" cy="78.77" r="1.28"/><circle class="cls-6" cx="88.8" cy="80.29" r="1.28"/><circle class="cls-6" cx="109.36" cy="79.49" r="1.28"/><circle class="cls-6" cx="95.82" cy="93.33" r="1.28"/><circle class="cls-6" cx="88.8" cy="96.39" r="1.28"/><circle class="cls-6" cx="101.07" cy="75.69" r="1.28"/><circle class="cls-6" cx="88.75" cy="66.33" r="1.28"/><circle class="cls-6" cx="76.81" cy="75.69" r="1.28"/><circle class="cls-6" cx="81.33" cy="93.33" r="1.28"/><circle class="cls-6" cx="76.21" cy="84.72" r="1.28"/><circle class="cls-6" cx="101.07" cy="84.98" r="1.28"/><circle class="cls-6" cx="66.76" cy="92.44" r="1.28"/><circle class="cls-6" cx="109.65" cy="93.05" r="1.28"/><circle class="cls-6" cx="99.11" cy="104.63" r="1.28"/><circle class="cls-6" cx="78.25" cy="104.1" r="1.28"/><circle class="cls-6" cx="82.13" cy="117.44" r="1.28"/><circle class="cls-6" cx="95.22" cy="117.44" r="1.28"/><polyline class="cls-4" points="76.81 75.69 88.75 66.33 101.18 75.69"/><path class="cls-2" d="M42.75,135.22H31.24a2.35,2.35,0,0,1-2.36-2.36V120.32H33.6V130.5h9.15Z"/><path class="cls-2" d="M143,135.22H132V130.5h8.69V122h4.72v10.83A2.35,2.35,0,0,1,143,135.22Z"/><path class="cls-2" d="M145.38,41.07h-4.72v-9.9H132V26.45H143a2.36,2.36,0,0,1,2.36,2.36Z"/><path class="cls-2" d="M33.6,39.66H28.88V28.81a2.36,2.36,0,0,1,2.36-2.36H44.36v4.72H33.6Z"/><rect class="cls-7" x="1.5" y="1.5" width="470.41" height="158.67" rx="5.5" ry="5.5"/></g></g></svg>