<svg xmlns="http://www.w3.org/2000/svg" viewBox="0 0 1920 766.11"><defs><style>.cls-1{fill:#fff;}.cls-2{fill:#3f485d;}</style></defs><title>risks-bg</title><g id="Layer_2" data-name="Layer 2"><g id="Capa_1" data-name="Capa 1"><path class="cls-1" d="M958.94,42c7.23,0,7.84,7.93,7.84,7.93L1920,766V0H0V766.11L950.66,50S951.7,42,958.94,42Z"/><path class="cls-2" d="M958.94,0h43.18a3.74,3.74,0,0,1,2.71.85,3.12,3.12,0,0,1,1.07,2.36c0,6.68,0,13.36,0,20a3.15,3.15,0,0,1-3,3.16c-.69.05-.92.22-1,1a42.18,42.18,0,0,1-32.47,38.37c-14.94,3.51-28.4.13-39.87-10.17a40.35,40.35,0,0,1-13.1-24.45c-.21-1.32-.31-2.65-.4-4,0-.5-.2-.66-.7-.7-2.26-.21-3.33-1.39-3.33-3.65q0-9.57,0-19.13C912,1.28,913.28,0,915.68,0Zm0,23.17h42.59c1.12,0,1.12,0,1.12-1.15V4.33c0-1.1,0-1.11-1.09-1.11H916.43c-1.1,0-1.11,0-1.11,1.08V22c0,1.18,0,1.18,1.16,1.18Zm19.51,35.56c.5-.27.86-.46,1.2-.67a39.2,39.2,0,0,0,9.11-7.52,38.25,38.25,0,0,0,9.85-22.87c.1-1.23.06-1.23-1.17-1.23H920.33c-.58,0-1.12-.08-1,.82,1.22,13.62,7.81,23.87,19.38,31a9.29,9.29,0,0,0,.91.42V50a17,17,0,0,1,11.36-16.11,26.61,26.61,0,0,1,13.94-.59A16.78,16.78,0,0,1,978.2,48.2c.24,3.13.11,6.28.16,9.42C978.36,57.94,978.39,58.26,978.41,58.74ZM975,54.35h0c0-1.67.05-3.34,0-5a14,14,0,0,0-11-12.88,30.52,30.52,0,0,0-8.9-.2A13.79,13.79,0,0,0,943,49.06c-.17,3.55-.07,7.12-.12,10.68,0,.6.29.81.78,1a40,40,0,0,0,30.81,0,.88.88,0,0,0,.63-1C975,57.91,975,56.13,975,54.35Z"/><path class="cls-2" d="M937.29,54.68a9,9,0,0,1-1.18-.6,37.2,37.2,0,0,1-10-11.37,1.25,1.25,0,1,1,2.13-1.26,35.33,35.33,0,0,0,9.52,10.8c.49.37.81.85.52,1.43A4.92,4.92,0,0,1,937.29,54.68Z"/><path class="cls-2" d="M992.2,41.73a11.25,11.25,0,0,1-.44,1.05,36.91,36.91,0,0,1-9,10.54l-.27.2a1.28,1.28,0,0,1-1.86-.11c-.45-.55-.32-1.23.33-1.81a37,37,0,0,0,3.71-3.47c1.76-2.13,3.34-4.42,5-6.67.4-.56.86-1,1.51-.68C991.59,41,991.87,41.42,992.2,41.73Z"/><path class="cls-2" d="M925.73,36.26a1,1,0,0,1-1,1.09,1.13,1.13,0,0,1-1.42-.84c-.51-1.9-1-3.82-1.45-5.73a4.08,4.08,0,0,1-.14-1,1.16,1.16,0,0,1,1-1.23,1.14,1.14,0,0,1,1.37.83c.56,2.17,1.05,4.36,1.57,6.55A2.33,2.33,0,0,1,925.73,36.26Z"/><path class="cls-2" d="M996.32,30c-.58,2.2-1.13,4.4-1.76,6.59a1.19,1.19,0,0,1-1.61.76,1.2,1.2,0,0,1-.69-1.58c.41-1.62.84-3.23,1.24-4.84.11-.46.14-.94.26-1.39a1.18,1.18,0,0,1,1.36-1C995.79,28.61,996.2,29.19,996.32,30Z"/><path class="cls-2" d="M949.46,49.86a9.51,9.51,0,0,1,19,.18,9.51,9.51,0,0,1-19-.18ZM959,56.05a6.12,6.12,0,1,0-6.24-6A6.18,6.18,0,0,0,959,56.05Z"/><path class="cls-2" d="M961.86,49.9A2.85,2.85,0,0,1,959,52.83,2.92,2.92,0,0,1,956,50a2.89,2.89,0,0,1,3-2.87A2.82,2.82,0,0,1,961.86,49.9Z"/></g></g></svg>