<?xml version="1.0" encoding="utf-8"?>
<!-- Generator: Adobe Illustrator 22.1.0, SVG Export Plug-In . SVG Version: 6.00 Build 0)  -->
<svg version="1.1" id="Layer_1" xmlns="http://www.w3.org/2000/svg" xmlns:xlink="http://www.w3.org/1999/xlink" x="0px" y="0px"
	 viewBox="0 0 1919.2 519.8" style="enable-background:new 0 0 1919.2 519.8;" xml:space="preserve">
<style type="text/css">
	.st0{clip-path:url(#SVGID_2_);}
	.st1{fill:url(#SVGID_3_);}
	.st2{fill:#EDEDED;}
	.st3{fill:#3F485D;}
</style>
<title>risks-bg</title>
<g id="Layer_2_1_">
	<g id="Layer_1-2">
		<g>
			<g>
				<defs>
					<path id="SVGID_1_" d="M208.8,212.3c0,0-9.8,2.3-10.8,9c-2.4,15.1,10.3,16.1,10.3,16.1l1710.9,282.4L1918.9,0L208.8,212.3z"/>
				</defs>
				<clipPath id="SVGID_2_">
					<use xlink:href="#SVGID_1_"  style="overflow:visible;"/>
				</clipPath>
				<g class="st0">
					
						<linearGradient id="SVGID_3_" gradientUnits="userSpaceOnUse" x1="-1257.6139" y1="2864.6396" x2="-1256.6139" y2="2864.6396" gradientTransform="matrix(1721.49 0 0 -1721.49 2165150.75 4931708.5)">
						<stop  offset="0" style="stop-color:#EDEDED"/>
						<stop  offset="3.000000e-02" style="stop-color:#EEEEEE"/>
						<stop  offset="0.53" style="stop-color:#FBFBFB"/>
						<stop  offset="1" style="stop-color:#FFFFFF"/>
					</linearGradient>
					<rect x="195.6" y="0" class="st1" width="1723.6" height="519.8"/>
					<path class="st2" d="M1211.5,203.8c1,12.2,3.7,30.8,3.5,49.3c-0.3,25.5-2.7,51-4.5,76.5c-1.2,16.7-2.4,33.5-4.5,50.1
						c-1.7,13.5-4.7,26.9-7.2,40.3c-2,10.6-3.9,21.3-6.5,31.8c-5.7,22.4-11.3,45-18.1,67.1c-9.1,29.5-17.9,59.3-29.5,87.8
						c-11.9,29.3-26.7,57.3-40.7,85.7c-3.6,7.3-13,9.4-20.9,4.4c-6.2-3.9-9.3-9.3-5.1-17.9c13.8-28.5,28-56.9,39.5-86.3
						c12.9-33.2,23.4-67.4,33.9-101.5c6.9-22.3,12.5-45,17.7-67.8c2.9-12.9,3.7-26.2,5.5-39.4c2.4-17.3,5-34.6,7.1-52
						c1.2-9.9,1.8-19.9,1.8-29.9c0-36.1,0.7-72.3-0.8-108.4c-0.8-21.2-3.8-42.2-9.1-62.8c-11-41.8-27.9-81.4-56.8-114.3
						c-16-18.2-32.1-36.5-50.4-52.3c-29-25.1-62.8-42.6-99.5-53.8c-20.1-6-40.5-10.9-61.1-14.5c-12.6-2.2-25.7-1.6-38.6-1.6
						c-11.9,0-19.3-5.4-19.7-15.7c-0.4-9.4,7-16.3,19-15.2c23.8,2.2,47.6,4.8,71.1,8.6c70.3,11.4,128.3,46.3,177.5,96.3
						c27.9,28.3,50.1,60.8,67.2,97.1C1201.8,107.5,1210.9,151.3,1211.5,203.8"/>
					<path class="st2" d="M1345.2,193.1c1.7,22.1,4.9,44.1,4.8,66.2c-0.2,23.7-3.4,47.3-5.3,70.9c-1.4,17.7-2.1,35.4-4.4,52.9
						c-2.6,19.8-6.4,39.5-10.2,59.2c-3.8,19.9-7.8,39.7-12.2,59.5c-1.3,6.5-3.5,12.9-6.5,18.8c-3.5,6.6-10.5,7.3-17,5.7
						c-6.1-1.5-8.5-6.7-7.7-12.7c1.9-13.6,3.9-27.2,6.3-40.7c3.2-18.1,7.1-36.1,10.2-54.2c3.6-20.9,6.8-42,9.9-63
						c1.3-9.2,1.8-18.6,2.6-27.9c1.2-15.1,2.3-30.2,3.4-45.3c0.2-1.3,0.3-2.6,0.4-3.9c-1.9-42-2.3-84.2-6.3-126
						c-2.2-22.9-10.4-45.1-15.9-67.6c-9.1-37-25.2-71.1-43.6-104.3c-24.7-44.4-59-80.2-96.5-113.5c-39.3-34.9-85.3-58.7-133.5-78.1
						c-18.6-7.5-38.4-12.5-58.1-16.7c-21.9-4.7-44.3-7.1-66.5-10.7c-8.1-1.3-11.1-6.7-11.2-14.5c-0.1-7.5,2.6-13.5,10.4-13.6
						c14.1-0.1,28.5,0.1,42.4,2.1c16,2.5,31.8,6.1,47.3,10.8c19,5.5,37.7,12.1,56.3,18.8c30.9,11.2,59.8,26.4,87.2,44.6
						c52,34.6,96.8,76.8,131.1,129.2c16.4,25.2,31.2,51.3,44.4,78.3c8,16.2,12.2,34.4,17.1,52c4.7,16.8,8.4,33.8,11.8,50.8
						C1340.5,144.3,1346.5,193,1345.2,193.1"/>
					<path class="st2" d="M366.4,368.8c-8.5,0.9-14.2-3.4-15.7-9.2c-1.3-4.9,0.6-11.9,3.6-16.3c5.4-7.9,13.6-13.8,19-21.7
						c11.3-16.6,18.4-34.9,19.8-55.3c1.7-24.8,4.1-49.7,5.6-74.5c0.9-15.7-0.7-31.7,1.1-47.2c5.9-50.4,19-98.6,42.1-144.4
						c17.7-35.2,39.2-68.3,64-98.8c31.7-39.2,69.8-71.3,112.4-97.8c22.2-13.8,45.9-25.6,69.7-36.4c16.5-7.5,34.2-12.4,51.7-17.1
						c18.7-5,37.7-9,56.8-12.4c11.3-2,17,2.7,17.9,12.5c0.9,9.8-3.6,13.4-15.2,15.9c-20.2,4.5-40,10.8-60.3,15.4
						c-26.9,6.1-51.4,18-75.1,30.9c-23.5,12.8-45.4,28.6-67.3,44C554.8-114,523.3-74.7,494.8-32.9c-20.3,29.6-35.9,62.3-46.2,96.8
						c-6.6,22.3-12.6,44.8-17.8,67.5c-2.1,9.3-1.8,19.3-2.1,29c-0.5,14.6-0.2,29.1-0.7,43.7c-0.8,21.3-0.1,42.8-3.5,63.7
						c-5.7,34.6-17.6,67.1-44,92.1C376.4,363.6,371.1,365.9,366.4,368.8"/>
					<path class="st2" d="M989.8,213.5c-4-15.9-6.7-40-16.1-61.1c-11.5-25.8-34.3-42.9-61-52.3c-14.2-5-29.7-6.5-44.8-8.7
						c-8-1.2-15.8-7-16.5-14.6s4.9-13.3,14.7-14c46.5-3.2,84.3,14.3,115.1,48.6c17.1,19.1,28.9,40.5,32.2,66.2
						c2.8,21.6,7.3,43.1,7.7,64.8c0.4,22.5-2.8,45.2-5,67.7c-2.1,21.4-4.3,42.8-7.8,64c-2.7,16.2-7.1,32.1-11.5,48
						c-7.9,28-15.7,56-24.7,83.7c-11.8,35.9-28,69.9-46.7,102.9c-25,44.3-52.6,86.4-85.9,124.8c-4.5,5.1-8,12.5-16.4,11.4
						c-5-0.6-12.7-2-13.8-5c-2-5.2-1.7-13.2,1-17.9c5.3-9.1,13-16.8,19.7-25.2c46.7-58,84.6-121,109.8-191.2
						c8.7-24.2,17.6-48.3,24.7-72.9c5.5-19,8.5-38.8,12.2-58.4c3.8-19.9,7.2-39.9,10.3-59.9c1.3-8.9,2-17.9,2.1-26.9
						C989.5,265.4,989.5,243.2,989.8,213.5"/>
					<path class="st2" d="M484.3,582.5c-1.7-12.5,9.2-16,16.3-21.1c34.7-24.7,63.2-55.2,88.1-89.5c20.3-28,36.5-58.3,46.8-91.3
						c7.2-22.8,12-46.4,17.1-69.8c6.1-28.3,4.5-57.1,5.9-85.8c1.3-26.8,3.7-53.9,9.4-80.1c8.4-38.6,28.8-71.6,59.2-96.9
						c23.9-19.9,50.7-35.6,81.3-43.8c5.6-1.5,11.1-3.7,16.7-4.8c8.5-1.7,13.5,3.8,16.4,10.5c3.1,7.4-1.1,13.8-7.3,17
						c-7.6,4-16.1,6.6-24.3,9.3c-49.4,16.5-86.4,47.3-106.7,95.8c-8.3,20-11.8,41.5-12.1,63.4c-0.3,23.1-0.4,46.3-2.8,69.3
						c-3.1,30.4-6.2,61.1-13,90.9c-10,43.7-29,83.9-53.7,121.6c-21.2,32.5-46.8,61.9-76,87.5c-12.1,10.5-25.7,19.5-39,28.5
						C496.9,599.8,485.4,593.9,484.3,582.5"/>
					<path class="st2" d="M832.9-333.1c19.6-0.1,43.8-1.5,67.7,0.1c22.7,1.5,45.4,5.6,67.8,9.7c21.8,4,43.5,9.1,65,14.7
						c30.4,7.8,59,20.4,86.5,35.1c4.7,2.5,9.4,5.1,13.9,8c10.6,6.8,10.9,19.8,0.2,26.1c-3.5,1.8-7.6,2-11.3,0.7
						c-27.7-11.7-54.7-25.1-82.8-35.7c-20.5-7.7-42.1-12.5-63.6-17.2c-20.8-4.5-42-9.1-63.2-10.1c-28.1-1.3-56.4,0.4-84.6,1.6
						c-16.4,0.6-32.7,2.1-48.9,4.4c-12.6,1.9-24.9,6-37.2,9.4c-7.7,2.1-15.5,4.1-23,6.7c-19.9,6.9-40.6,12.2-59.3,21.5
						c-29.2,14.6-57.2,31.7-85.4,48.3c-24.6,14.4-44.5,34.7-64.8,54.4c-3.7,3.5-7.3,7.2-11.1,10.5c-5.7,5-12.4,4.7-17.5,0.1
						s-10.5-10.9-4.4-18.5c6.4-7.8,12.7-15.8,20.1-22.7c32.8-30.3,67.7-58.1,107.5-78.8c19.2-10,39.3-18.4,59.3-26.9
						c15.7-6.7,31.6-13,47.7-18.4c10.3-3.4,21.2-4.9,31.7-7.4c11.5-2.8,22.8-6.5,34.5-8.5C794.6-328.7,811.5-330.4,832.9-333.1"/>
					<path class="st2" d="M1283.5,210.1c1.2,15.3,3.4,30.7,3.3,46c-0.1,17.6-2.2,35.3-3.3,52.9c-0.7,10.6-0.6,21.3-1.8,31.9
						c-1.9,16.7-4.4,33.4-7.1,50c-2.7,16.9-5.4,33.8-8.8,50.6c-3.6,18.1-7.4,36.2-12.3,54c-6.5,23.8-13.5,47.4-21.3,70.8
						c-6.8,20.1-14.5,39.8-22.9,59.3c-4.8,11.2-10.4,13-18.6,9.2c-9.7-4.5-11-10.2-7.3-21.7c13.3-41.3,26.6-82.6,39-124.1
						c6.7-22.2,12.8-44.7,17.2-67.4c4.7-24.8,7-50,10.6-75c4.5-31.2,7.3-62.4,4.9-94c-1.5-20.7,0.3-41.7-1.9-62.3
						c-2.1-19.4-7.6-38.4-11.6-57.6c-2.1-10-3.8-20.2-6.8-30c-3.5-11.6-7.6-22.9-12.3-34.1c-4.8-11.6-11.6-22.5-15.4-34.4
						c-2.5-7.7,4.3-13.5,10.8-17s12.4-0.4,15.6,5.3c6.8,12.3,12.9,25,18.3,38c4.7,11.4,7.9,23.4,11.7,35.1c3.2,10,7.3,19.9,9.1,30.2
						C1277.3,153.7,1284,210,1283.5,210.1"/>
					<path class="st2" d="M837.1-200.4c24.6,0.3,49.5-1.2,74,1.3c29.9,3.1,59.5,8.8,88.3,18.8c53.6,18.6,102.1,45.3,144,83.6
						c8.2,7.6,9.2,15.9,3.2,22.5c-4,4.5-17.3,4.2-23.1-0.8c-28.4-24.3-59.1-45.5-92.9-61c-23.1-10.6-48.1-17.4-72.7-24
						c-55.6-15-112-10.9-167.7-1.8c-24.3,3.9-47.9,13.4-71,22.3c-17.7,6.9-34.4,16.3-50.9,25.8c-12,7-22.9,16.1-34.3,24.2
						c-7,4.9-16.5,3.9-21.7-1.9c-6.8-7.5-4.9-14.4,2.4-19.8c18-13.2,35.7-27.2,54.9-38.3c18.7-10.9,38.7-19.7,58.9-27.4
						c16.2-6.1,33.5-9.8,50.6-13.4C798.1-194.2,817.4-197,837.1-200.4"/>
					<path class="st2" d="M884.2,287.3c-0.7,11.8-0.5,23.7-2,35.4c-1.7,13.8-4.7,27.3-7.4,41c-2.8,14.4-5,29-9.2,43
						c-7.9,26.3-15.9,52.8-25.8,78.3c-14,36.1-33.5,69.6-54.2,102.3c-24.6,38.8-54.6,73-87.2,105.1c-3.9,3.8-7.6,7.7-11.6,11.4
						c-8,7.5-19.2,8.2-25.3,1.8c-5.7-6-3.6-17.2,4.1-24.7c13.8-13.5,27.7-26.9,40.9-41c36.5-38.9,66.1-83.2,89.3-130.8
						c15.6-32,26.2-66.6,37.6-100.5c6.4-19,10.6-38.8,14.4-58.5c2.9-15.1,3-30.7,5.2-46c4.5-30.7,3-61.4,1.2-92.1
						c-0.7-12.6,5.1-18.9,15.2-19.3c9-0.3,15,6.4,16,17.9c0.4,4.6-0.1,11.5,0.3,16.1C886.1,226.7,885.3,266.4,884.2,287.3"/>
					<path class="st2" d="M1148.3,193.3c2.1,27.3,5.1,54.6,6.1,82c0.5,14.6-2.4,29.3-3.6,44c-0.8,9.7-1,19.4-2.1,29
						c-1.7,14.4-3.4,28.8-6.2,43.1c-3.9,20.2-8.2,40.3-13.5,60.2c-7,26.2-15.1,52.2-23.1,78.2c-1.9,5.9-4.6,11.5-8.2,16.6
						c-5,7.1-12.2,6.1-17.8,1.1c-4.3-3.8-8.5-7.9-6-16.1c11.2-37.1,22.8-74.1,31.4-111.8c6.8-29.8,10-60.5,13.8-90.8
						c2.3-17.6,3.4-35.3,3.5-53c0-26.7,0.2-53.5-3-79.9c-2.7-21.8-9.8-43.2-15.7-64.6c-7.5-27.4-20.9-52.1-37.3-75.1
						c-4.8-6.7-9.9-13-14.4-19.9c-5.9-9-4.7-13.2,3.1-20.3c7.8-7.1,14.7-2.5,19.3,2.5c22.4,24.4,40.8,51.6,51.2,83.5
						c5.8,18,11,36.2,16,54.4c3.3,12.1,5.7,24.4,8.4,36.6L1148.3,193.3"/>
					<path class="st2" d="M370,421c4.8-6.5,7.4-12.7,12.1-16c18.6-13,37.1-26.2,47-47.5c8-17.2,16.8-34.5,21.3-52.8
						c5-20.5,6-42,7.8-63.1c1.7-19.3,1.2-38.7,3.4-57.9c2.4-20.8,5.5-41.6,10.5-61.9c6-24.9,13.4-49.4,22.1-73.5
						c15-41.1,39.1-77.3,67.5-110.6C572-74.4,582.9-73.1,590-60c3.8,7-0.8,12.1-4.4,17c-11.4,15.5-25.2,29.6-34.4,46.3
						c-14.3,26-26.5,53.3-38,80.7c-6.8,16.2-11.4,33.4-15,50.6c-3.2,15.3-3.7,31.1-5.1,46.7c-1.4,16.2-2.5,32.4-3.6,48.7
						c-0.7,10.6-1.1,21.2-1.9,31.8c-1.9,26.9-6.5,53.1-16,78.6c-14,37.4-38.5,65.9-70.6,88.5c-5,3.5-10.6,10.2-18.1,4.5
						C378.8,430.3,375.3,426.1,370,421"/>
					<path class="st2" d="M1407.8,195.8c1.4,18.6,4.3,37.2,4,55.8c-0.3,21.6-3.3,43.2-5,64.7c-0.3,3.6,0.2,7.3-0.3,10.8
						c-1.6,10.9-9.4,16.9-19.5,15.3c-7.1-1.1-12.7-10.9-11.7-19.8c1.5-14.8,3.7-29.6,3.8-44.5c0.3-34.8,1.7-69.8-1.4-104.4
						c-2.7-30.3-10.5-60.1-16.8-90c-3.7-17.7-7.8-35.5-13.7-52.5c-6.3-18-14.4-35.5-23.1-52.6c-10.6-21-21.2-42.1-34.4-61.5
						c-15.7-23.1-34-44.4-51.2-66.4c-5.5-7-6.2-17.4-1.2-22.3c6-5.9,13.4-5.5,21.6,2.1c23.7,22.1,42.8,48,59.6,75.4
						c12.3,20,23.5,40.7,34.1,61.6c7,13.9,12.5,28.6,17.9,43.2c6.7,18,12.9,36.2,18.7,54.5c3,9.3,5.3,18.8,6.8,28.5
						C1401.3,127.6,1408.8,195.7,1407.8,195.8"/>
					<path class="st2" d="M653.1,82.2c-2.4,7-3.6,12-5.8,16.5c-10,20.5-16.2,42.7-18.2,65.4c-1.5,16.4-2.8,32.8-3.8,49.2
						c-1.2,20-1,40-3.2,59.9c-2.3,20.8-6.5,41.5-10,62.2c-5.8,33.8-19.8,64.3-36.8,93.6c-19.7,34-45.3,63.2-75.3,88.4
						c-10.7,9-22.5,16.6-34,24.6c-8.5,5.9-18.3,4.7-23.3-2.5s-2-15.6,6.5-22.4c21.1-17.1,44-32.7,62.2-52.5
						c17.8-19.4,32.6-42.3,44.9-65.7s21.3-49.1,29-74.6c4.5-15,3.9-31.6,5.3-47.5c1.4-16.6,2.5-33.2,3.6-49.7
						c0.7-9.9,1.7-19.9,1.7-29.8c0-38.6,7.5-75.6,23.5-110.8c2.1-4.5,4.9-9.3,8.8-12.2c3.3-2.5,9.3-4.6,12.6-3.2
						C645.5,72.9,649,78.2,653.1,82.2"/>
					<path class="st2" d="M952.8,290.3c-2.6,21.2-4.8,42.5-7.9,63.6c-2.3,15.9-5.1,31.8-9,47.3c-5.8,23.5-10.9,47.4-19.7,69.8
						c-13.8,35.2-28.4,70.4-46.3,103.7c-16.1,30-35.8,58.1-56,85.6c-16.4,22.4-36.1,42.4-53.7,63.9c-5.9,7.2-13.1,7.8-20.7,7.3
						c-8.8-0.6-12.1-16.2-5-24.5c11-12.7,22.8-24.8,33.9-37.4c38.9-43.8,69-93.4,93.4-146.4c10.5-22.8,20.9-45.9,29-69.6
						c7-20.3,11.5-41.5,15.8-62.5c5.1-25.3,9.1-50.8,13.1-76.3c1.4-9.3,1.3-18.7,2.2-28.1c1-10.8,6.4-16.3,15.3-16.3
						c8.5,0,12.7,5.1,13.6,16.6c0.1,1,0.2,2,0.2,2.9l1.7,0.2"/>
					<path class="st2" d="M1054.5,210.9c-0.5-6.5-1-13-1.5-19.6c-2.4-32.4-14.3-61.4-32.2-88c-14.2-21-32.5-38.2-53.5-51.8
						c-12.4-8-26.7-13-40.3-19.3c-7.9-3.6-12.3-12.1-9.6-19.3c2.8-7.4,12.4-11.9,20.3-9.1c46.3,16.2,83.5,44.7,110.5,85.4
						c11.5,17.4,22.2,36,25.8,57.5c1.8,10.7,3.9,21.4,6.6,31.9c7.3,28.7,2.8,58.2,5.8,87.2c1.5,15.1-2,30.7-3.1,46.1
						c-0.8,10.2-0.9,20.5-2.2,30.6c-1.9,14.5-4.5,29-6.9,43.4c-0.3,1.9-0.8,3.7-0.9,5.6c-0.7,9.5-4.1,12.1-15.5,12.5
						c-8.6,0.3-13.2-3.9-12.7-12c0.6-11.5,2.3-22.9,3.7-34.3c0.8-6.6,2.5-13.2,3.1-19.8c1-11.2,1.6-22.4,2.3-33.6
						c1.1-17.4,2.8-34.8,2.8-52.3c0.1-13.7-1.9-27.4-3-41.1L1054.5,210.9"/>
					<path class="st2" d="M782.3-124.3c4.9,0.7,10.6,0.2,14.5,2.6c3.4,2.1,6.9,7.6,6.5,11.3c-0.6,6.6-4.4,12.5-12,14.6
						C750.8-84.6,714.1-66.1,680-41s-59.1,57.3-81.4,92c-16,24.9-25.9,52.9-33.5,81.5c-2.4,9-2.8,18.4-5.3,27.4
						c-2.9,10.1-9.8,14-18.6,12c-7.3-1.7-12.5-11.5-10.9-20.4c13.4-73.9,47.2-137.3,100-190.1c24.9-24.9,53-46.6,86.1-60.5
						c17.5-7.3,34.8-15.3,52.4-22.4c4.1-1.7,9-1.4,13.5-2C782.2-123.8,782.2-124,782.3-124.3"/>
					<path class="st2" d="M808.7,360.8c-9.5,35.4-17.6,66.5-26.5,91c-14.7,40.6-34.7,78.7-61.4,112.8
						c-17.9,22.9-35.9,45.8-55.4,67.3c-13.9,15.3-30.2,28.6-45.9,42.2c-8.9,7.7-17.7,6.5-24.3-2c-5.1-6.5-2-13.9,6.7-21.5
						c26.3-23.3,50.8-48.5,73.4-75.3c35.9-42.5,62.5-90.1,81.4-142.1c9.3-25.7,18.5-61,26.1-98c2.2-7,4.3-16.3,8.2-22.4
						c1.9-3,9.2-3.5,12.9-3.6C823.2,308.4,812,350,808.7,360.8"/>
					<path class="st2" d="M326.6,219.5c2.6-30,4.8-60,7.8-89.9c4-41.2,15.1-80.9,31.2-118.7c13.4-31.5,29.9-61.6,45.7-92.1
						c5.4-10.4,14.5-13.1,22.2-8.9c9,5,11,12.4,5.6,22.1c-9.8,17.8-20.9,35-29.3,53.4C399,9.1,389,33.3,381.3,58
						c-7.5,24.1-11.8,49.2-17.1,73.9c-1.6,7.6-2.6,15.4-2.7,23.2c-0.6,30.5-1,61-1.2,91.5c-0.1,8.3-5.7,15-13.7,15.6
						c-10.1,0.8-13.8-2.3-14.8-13.2c-0.9-9.8-1.6-19.6-2.3-29.3L326.6,219.5z"/>
					<path class="st2" d="M985.1-15.4c-3.5-0.7-7.2-0.7-10.3-2.1c-22-10.7-44.9-18.6-69.5-20.3c-20.7-1.5-41.7-4.3-62.2-2.2
						c-19.4,2-38.3,9.4-57.3,14.7c-25.5,7.2-47.5,21.1-68.1,37.4c-9.2,7.3-17.2,16.1-26.8,22.6c-4.7,3.1-12.6,4.7-17.6,2.9
						c-3.8-1.4-7-9.1-7.2-14.2c-0.2-4.3,3.6-9.6,7.1-13c22.2-21.6,47.3-38.6,74.9-53c41.7-21.8,86.2-28.5,131.9-28.7
						c20.1-0.1,40.5,5.1,60.2,9.9c16.7,4.1,32.9,10.8,49,17.1c6.6,2.6,13,7.4,11.1,15.8C998.7-21,993.9-15.7,985.1-15.4"/>
					<path class="st2" d="M895.5,739.4c-4.8-13.2,5-20.1,10-28.4c18.2-29.5,37.8-58.3,55.3-88.2c13.1-22.7,24.8-46.1,35.2-70.1
						c8.5-19.3,14.3-39.8,21.4-59.7c1.4-3.9,2.5-8.3,5.1-11.3c4.5-5.1,10.3-7.9,17.3-4.2c7.9,4.2,11.7,10.9,8.9,19.3
						c-13.9,41.6-29.4,82.6-51.2,120.8c-17.5,30.7-35.5,61.2-53.4,91.6c-3.8,6.5-8.9,12.3-12.8,18.7c-4.2,6.8-9.3,10.7-17.8,10.2
						C907.8,737.8,902,738.9,895.5,739.4"/>
					<path class="st2" d="M796.4,179.2c4.7-23.1,19.9-39.1,43.3-47.6c35.5-12.8,69.4-3,89.6,21.7c9.5,11.5,17.4,24,18.3,39.6
						c0.4,6.7,2.2,13.6,1.5,20.2c-0.8,7.9-7,12-14.6,10.5c-7.3-1.5-12.9-5.5-14.6-14.5c-1.7-9.7-4.8-19.2-9-28.1
						c-6.8-14-18.1-21.7-34.3-24.2c-19.3-3-38,3-46.4,20.2c-4.5,9.5-7.2,19.7-7.9,30.2c-1.3,18.4,0,37-0.8,55.4
						c-0.6,12.9-6.5,18.8-16,18.9c-8.3,0.1-14.5-7.3-15.2-18.4c-0.2-2.6-0.4-5.2-0.6-7.8C789.4,255.2,791.4,204,796.4,179.2"/>
					<path class="st2" d="M801.2,105.9c-3,5.4-4.6,10.8-8.2,14c-26.5,22.9-37.9,52.1-37.9,86.5c0,18.3,0.9,36.6-0.4,54.8
						c-1.9,26.7-5.3,53.3-8.2,79.9c-0.7,5.7-1.7,11.4-3.1,17c-1.8,7.5-8.5,10.1-14.5,9.8c-7.3-0.3-14.8-3.4-14.1-13.3
						c0.5-8.7,1.4-17.4,2.8-26c5.4-29.6,5.5-59.4,5.3-89.3c-0.2-37.4,0.5-75,22-107.8c8.3-12.7,18.6-24.3,29.5-34.9
						c3.7-3.6,12.1-4.2,17.8-3.1C795.4,94.2,797.6,100.8,801.2,105.9"/>
					<path class="st2" d="M713.5,443.9c-3.9,10.3-6.2,18.6-10.1,26.1c-18.1,35-39.9,67.5-66.3,96.9c-23.2,25.9-47.7,50.5-76.8,70
						c-7.8,5.2-15.4,4.7-20.5-1.5c-6.3-7.7-5.9-15,2.2-22.1c16.7-14.6,33.7-28.9,50.4-43.5c23.8-20.8,42.5-46,59.1-72.6
						c11.3-18.2,20.5-37.7,31.9-55.8c3-4.7,10.7-9,16.2-8.8C704.1,432.7,708.6,439.6,713.5,443.9"/>
					<path class="st2" d="M552.8,305.8c-4,14.1-6.8,28.8-12.3,42.3c-15.6,38.1-35.6,73.9-66.4,101.9c-15.8,14.3-33.7,26.4-51.2,38.8
						c-8.9,6.3-15-0.3-19.5-7.1c-5-7.7,0.2-13.6,5.6-18c10.4-8.5,22.1-15.4,32-24.4c34.6-31.5,61.8-68.2,74.6-114
						c2.1-7.4,4-14.8,6.1-22.2c2.1-7.4,7.5-12.8,15.2-12.1C544.7,291.6,550.4,296.8,552.8,305.8"/>
					<path class="st2" d="M999.5,734.2c-5.8-3.3-11.8-4.8-13.5-8.3c-1.9-4-1.7-10.8,0.4-14.8c10.8-20.3,23.1-39.8,33.7-60.2
						c11.4-22,21.7-44.7,32.1-67.2c5.1-11.2,13-17.5,22.7-12.5c6.7,3.4,10.4,11.3,7.6,18.3c-17.1,42.2-36.6,83.1-62.2,120.9
						c-2.8,4.2-4.8,9.1-8,12.9S1004.6,729.9,999.5,734.2"/>
				</g>
			</g>
		</g>
		<path class="st3" d="M272.9,354c0-6.5,0-12.9,0-19.3c0-2.7-0.5-4.3-1.6-5.2s-2.7-0.8-5.3-0.1l-8.5,2.4c-5.6,1.6-11.4,3.2-17.1,4.7
			c-2.4,0.3-4.8,0.2-7.2-0.4c-8.4-3.8-43.5-18.3-54.9-23.9c-2.5-1.2-3.2-2.1-1.9-4.9c0.8-2.1,1.2-4.3,1.3-6.6c0-0.6,0.1-1.2,0.2-1.8
			c0-0.9,0-1.8-0.2-2.6c-0.1-0.4-0.1-0.8-0.2-1.2c-0.3-3.2,0.2-5.5,1.6-7.1c1.6-1.8,4.2-2.7,8.1-2.7c0.8-0.1,1.6-0.5,2.2-1.1
			c0.2-0.2,0.3-0.4,0.3-0.7c0-1.7,1-1.9,2.2-2.1l0.8-0.2c2.8-0.7,5.6-1.4,8.3-2.1c7.2-1.8,14.7-3.7,22.2-5.1
			c7.2-1.4,11.8-5.3,14.4-12.4l0.3-0.8c0.2-0.8,0.6-1.6,1-2.4c0.4-0.7,1.2-1.9,2-2.2c2.4-0.7,4.3-2.5,5.2-4.9
			c6.4-13.6,8.2-28.6,5.7-47c-0.6-4.1-3.1-6.6-7.6-7.4c-5.3-0.9-10.6-1.9-15.7-2.9c-6.3-1.2-12.8-2.5-19.2-3.5
			c-3.3-0.6-6.7-0.4-10,0.4c-33,8.9-67.9,18.4-106.6,29.2c-2,0.7-3.7,2-4.9,3.7c-7.3,9.9-11.6,21.6-12.7,35
			c-0.1,1.5-0.3,2.9-0.4,4.6c-0.1,0.8-0.2,1.7-0.2,2.6v0.5l20.3-4.2c0.5,1.5,1,2.9,1.5,4.3c1.2,3.2,2.2,6.4,3,9.8
			c1.1,4.9,3.7,8,8.3,9.5c2,0.7,4.1,1.3,6.3,1.7c6.2,1.2,12.5,2.3,18.5,3.3l6.5,1.1c1.2,2.8,1.2,5.7,1.2,8.6c0,4.1,0.1,8.4,3.5,11.9
			c0,0.2,0,0.5,0,0.7v0.2c-0.5,3.2,1.3,4.7,3.2,5.9c1.2,0.7,2.4,1.4,3.7,2.1c4.5,2.6,8.8,5.5,12.9,8.5
			c17.2,12.9,55.2,41.3,65.8,49.3c1.5,1.1,1,2.2,1,4c-0.1,8-0.1,16.1,0,23.9c0,2.1,0.6,3.5,1.6,4.3c0.7,0.5,1.6,0.8,2.6,0.8
			c0.6,0,1.3-0.1,1.9-0.2c5-1.2,10.1-2.4,15-3.5c5.6-1.3,11.4-2.7,17.1-4c3.3-0.8,4.7-2.6,4.7-6.1C273,383.6,273,368.6,272.9,354
			 M144.4,308.1c-0.6-0.9-1.2-1.9-1.7-2.9c1.2,0.6,2.6,0.7,3.9,0.3c1.7-0.6,2.6-2.4,3.4-4.2l-0.7-0.4c0,0.1-0.1,0.1-0.1,0.2
			l-0.1,0.2c-1.2,0.6-2.4,1.2-3.6,1.8l-0.7,0.3c-0.2-0.4-0.4-0.8-0.5-1.1c-0.6-1-0.9-2.1-1.2-3.2c-0.4-3.5-0.6-6.9-0.9-10.6
			c-0.1-1.3-0.2-2.7-0.3-4l10.3-2.5c0.1,6.5-0.1,12.8-3,18.8l0.7,0.4c0.2-0.4,0.4-0.8,0.7-1.2c0.5-1,1-1.9,1.7-2.7
			c0.6-0.5,1.4-0.8,2.3-0.8c0.5,0,1.1,0.1,1.6,0.1c1.4,0.2,2.9,0.2,4.3,0l1.8-0.3l-8.6-2.2l0.9-12.3l21.3,4.4l-1.3,12l-7.6-1.6
			l-0.4,1.9l0.4,0.1c0.6,0.1,1.2,0.2,1.8,0.3c1.4,0.3,2.8,0.5,4.2,0.6c1.3,0.1,2,0.3,2.3,0.8c0.3,0.7,0.3,1.4-0.1,2.1
			c-0.4,1.1-0.6,2.2-0.9,3.3c-0.3,1.4-0.7,2.7-1.2,4.1c-0.9,2.5,1.6,3.2,2.9,3.8c0.1,0.1,78.4,35.1,82,36.9c0.6,0.3,1.3,0.7,1.9,1.1
			l0.6,0.3l-0.1,0.3l-0.7-0.3c-0.7-0.3-1.5-0.7-2.2-1c-9.1-4.5-85.6-38.6-87.9-39.7c-2.2-1-4.6-1.6-7.1-1.5c-1.8,0-3.7,0.2-5.5,0.5
			h-0.3l-0.3,3.3l-9.4,2.3C147.3,312.7,145.9,310.5,144.4,308.1 M190.3,266.4l-0.6-0.2c-8.2-2.1-9.3-8.9-10.4-15.5l-0.1-0.3
			c-0.8-5.2-1.2-10.5-1.4-15.7l-0.1-1.6c0-0.9,0.1-1.8,0.4-2.7c-0.3,8.1,1,16.7,4,27.3c1.4,5,4.3,7.7,9,8.7c7.8,1.6,17,3.5,26.3,6
			H217c-1.9,0.3-3.7,0.3-5.6,0.1c-5.4-0.8-10.8-1.9-16.5-3l-6.2-1.2L190.3,266.4z M185.2,257.5c-0.3-1.6-0.6-3.2-0.9-4.8
			c-1.2-6.3-2.4-12.8-3.1-19.3c-0.4-4,1.2-8.2,2.1-10.4c2.2-4.9,4.7-9.7,7.2-14.4c1-2,2.1-4,3.1-6c0.5-1.2,1.6-1.9,2.9-1.8
			c0.5,0,1,0.1,1.5,0.2c10.1,2.1,20.8,4.3,31.3,6.3c2.8,0.5,4.7,2,6.4,4.8c2.5,4.2,3.1,9,3.7,13.6c0.2,1.3,0.4,2.7,0.6,4
			c0.3,2,0.5,4.1,0.7,6.5c0.1,1.2,0.2,2.4,0.3,3.7c-1.2,9.5-4.4,18.6-9.4,26.8c-1.6,2.5-3.8,3.7-6.4,3.2c-8.2-1.5-16.5-3.1-24.6-4.6
			l-9.3-1.8C187.9,262.8,185.8,260.8,185.2,257.5 M241.1,252.3c4-9.4,2.8-18.8,0.8-29.1c-0.8-4.3-2.1-8.6-3.8-12.6
			c-1.3-3.3-4.1-5.3-8.2-6.1c-7.7-1.4-15.3-3-23.3-4.7c-2.9-0.6-5.8-1.2-8.8-1.8c3.1-2.9,5.8-4.8,10-4c13.2,2.6,24.4,4.7,35.6,6.5
			c3.4,0.6,5.2,2.4,5.3,5.5c0.2,6.8,0.4,14.9,0.1,22.8c-0.4,7.7-2.5,15.3-6.3,22c-0.3,0.5-0.6,1.1-1.1,1.8c-0.1,0.1-0.2,0.3-0.3,0.4
			C241,252.8,241,252.6,241.1,252.3 M173.3,232c-0.1,0.4-0.3,0.8-0.5,1.2c-0.5,1-0.9,2.1-1,3.2c-0.1,3.2-1.7,4.2-5,5
			c-21.3,5.1-43,10.4-63.9,15.5l-22.6,5.5c-0.5,0.1-1.1,0.2-1.7,0.3l-0.7,0.1c0.5-6.9,1.5-15.9,5-24.3c0.2-0.4,0.4-0.9,0.6-1.3
			l0.3-0.6c6.2-12.9,6.2-12.9,19.9-16.7c21.9-6.1,44.3-12.2,65.8-18.1l23.5-6.4c0.7-0.2,1.3-0.3,2.2-0.5l0.2-0.1
			C186.3,204.5,179.2,216.3,173.3,232 M131.2,253.2l10.5-2.7c8.8-2.2,17.8-4.5,26.8-6.7c0.3-0.1,0.5-0.1,0.8-0.2
			c2.7-0.6,5.4-1.3,6.3-4.1c0.3,2,0.6,3.9,0.8,5.9c0.9,7.8,1.9,15.8,9.1,21.6l-0.4,0.3H185c-0.6,0.3-1,0.8-1.3,1.4l-0.2,0.5
			l25.8,5.2l-4.4,1c-4.9,1.2-9.9,2.3-14.9,3.5c-0.9,0.1-1.9,0.1-2.8-0.2H187l-8-1.6c-5.4-1.1-10.9-2.2-16.4-3.1
			c-2.7-0.4-5.4-0.4-8,0.1c-5.2,1-10.5,2.3-15.6,3.5c-2,0.5-4,1-6,1.4l-0.3,0.1v0.3c-0.4,2.5-0.6,3.7-0.1,4.5s1.7,0.9,3.9,1.3
			c0.8,0.1,1.7,0.3,2.6,0.5l1,0.2v3.7l-8.5-1.6c-7.2-1.4-14.1-2.7-21-4.1c-5.1-1-7.9-4.1-8.6-9.3c-0.3-1.7-0.8-3.3-1.6-4.8
			c-0.4-0.9-0.8-1.8-1.1-2.7c-0.4-1.2-0.7-2.4-0.9-3.6c-0.1-0.5-0.2-1.1-0.4-1.6L131.2,253.2z M154.3,279.1c1.1,0.1,2.2,0.2,3.2,0.2
			c2.6,0.2,5.3,0.3,8,0.7c4.9,0.7,10.1,1.7,16.4,3.1c-6.2,1.6-12.1,0.1-17.8-1.4c-3.2-0.9-6.6-1.6-9.9-1.9L154.3,279.1z
			 M156.1,277.4c-4.4,0.9-8.8,1.9-13.1,2.9l-6.8,1.5c-0.5,0.1-1,0.2-1.5,0.2h-0.5l-0.2-0.3l0.4-0.4c0.3-0.4,0.7-0.7,1.2-0.9
			c6.4-1.5,13.2-3.1,22-5.1c0.8-0.1,1.6-0.1,2.4,0.1c9.3,1.8,17.5,3.4,25,4.9c0.6,0.1,1.1,0.4,1.6,0.6l0.5,0.2l-0.1,0.3l-0.7-0.1
			c-0.7,0-1.5-0.1-2.2-0.2l-8-1.4c-5-0.9-10.1-1.8-15.2-2.7C159.4,276.9,157.7,277,156.1,277.4 M172.8,319.7l10.8,5.9
			c26.9,14.6,37.5,17.3,64.8,32.2c0.8,0.5,1.8,1.3,1.8,1.8c0.1,4.7,0.1,9.5,0.1,14.5c0,1.3,0,2.7,0,4.1l-77.8-58.1L172.8,319.7z
			 M172.6,314.7c33.9,16.9,51,21.6,84.3,38.2l0.9,0.5c0.2,0.1,0.3,0.2,0.4,0.3l0,0l-0.1,0.1c-4.2,2.9-8,2.9-13.3,0
			c-19-10.7-62.2-30.9-63-31.4c-2.2-1.2-4.4-2.5-6.7-3.5c-0.5-0.2-1.1-0.3-1.6-0.3c-0.4,0-0.9,0-1.3,0.1c-0.4,0.1-1.2,1.3-1,1.6
			c0.4,0.7,0.8,1.5,1.4,2.1c0.7,0.7,1.4,1.4,2.2,2l0.4,0.3l-2.4-1.5c-4.3-2.8-8.8-5.6-13.1-8.5c-0.6-0.5-1-1.1-1.3-1.8
			c-0.1-0.3-0.3-0.5-0.4-0.8C163.9,310.8,168.4,312.7,172.6,314.7 M161.4,317.9c4.9,3.6,92.2,66.2,92.8,66.8l0.6,0.5
			c-0.5,0.2-6.6,2.9-8.2,3.2c-1.1,0-2.2-0.4-3-1.1c-9.2-6.9-82-63.1-93.7-69.5c-0.2-0.1-0.4-0.3-0.7-0.5l-0.1-0.1
			C153.4,315.8,157.3,314.9,161.4,317.9 M233.3,382.1l2.4,1.8c2.4,1.8,4.8,3.5,7,5.4c1.8,1.5,3.4,1.8,5.4,0.8c1.1-0.5,2.2-1,3.4-1.3
			c0.7-0.2,1.3-0.5,2-0.7c1.4-0.5,2.5-1.7,2.7-3.2c0.1-1.4-0.6-2.7-1.8-3.4c-2-1.4-2.4-3-2.3-5.1c0.2-5.1,0.2-10.2,0.1-15.2
			c-0.1-1.9,0.6-2.9,2.3-3.5c1.7-0.5,3.3-1.3,4.8-2.2c1-0.7,1.9-1.5,2.7-2.4c0.5-0.5,0.9-1,1.5-1.5l0.4-0.4l-23.3-11.7l27.8-7.8
			c0,0.4,0.1,0.8,0.1,1.1c0.1,0.8,0.1,1.5,0.1,2.2c0,18.6,0.1,37.2,0.1,55.8v6c0,0.2,0,0.3,0,0.5c0,1.3,0,2.3-1.5,2.7
			c-8.4,2.1-16.7,4.2-25.5,6.4l-8.5,2.2L233.3,382.1z"/>
		<path class="st3" d="M223.5,258.5c0.4,0.1,0.7,0.1,1.1,0.1c1.1,0,2.2-0.3,3.1-1c1.2-1,2-2.4,2.2-4c1.3-10.4,2.5-20,3.4-29.2
			c0.4-3.8-1.5-6.5-5.3-7.2c-10.5-2.1-19.9-3.9-28.9-5.5c-1.7-0.4-3.5-0.2-4.9,0.8c-1.3,1.2-2.1,2.8-2.2,4.6
			c-0.8,6.8-1.4,13.7-2.1,20.4c-0.3,2.7-0.5,5.5-0.8,8.2l0,0c-0.2,4,1.6,6.7,4.8,7.3C203.9,255,213.9,256.8,223.5,258.5
			 M217.8,253.2c3.7,0.7,6.2,0.8,7.8-0.4s2.1-3.6,2.6-7.5c0.4-3.6,0.8-7.2,1.3-10.9l-0.3,2.4c-0.4,3.8-0.9,7.8-1.4,11.5l-0.4,3.5
			c-0.2,1.8-0.6,2.8-1.3,3.3s-1.8,0.6-3.7,0.3l-3.8-0.7c-7.4-1.4-15-2.8-22.5-4.3c-0.9-0.2-1.7-0.6-2.5-1l-1-0.4l0.2-0.4l4.3,0.8
			l18.9,3.5l0.8,0.2L217.8,253.2 M228,229.3c-0.8,6.7-1.6,13-2.4,19.3c-0.1,1.1-0.6,2.1-1.4,2.8c-1,0.6-2.1,0.8-3.2,0.5
			c-10.3-1.9-18.9-3.5-27.6-5.2c-0.7-0.4-1.2-1.1-1.3-1.9c0.5-5.9,1.1-11.9,1.7-17.8c0.3-3.1,0.6-6.2,0.9-9.2c0-1.1,0.4-2.1,1.2-2.8
			c0.5-0.3,1.1-0.5,1.7-0.5c0.4,0,0.7,0,1.1,0.1l3.9,0.8c8,1.5,16.2,3.1,24.3,4.7c0.6,0.2,1.1,0.6,1.5,1.1l0.4,0.3
			C228.6,224,228.3,226.7,228,229.3"/>
		<path class="st3" d="M210.9,217.1c-6.8,0-12.6,6-12.7,13.3c0,3.7,1.4,7.3,4,9.9c2.3,2.4,5.4,3.7,8.7,3.7l0,0
			c6.9,0,12.6-6,12.7-13.3c0-3.7-1.4-7.2-3.9-9.8C217.4,218.5,214.3,217.2,210.9,217.1 M212.3,231c0.8-3.7-0.8-6.5-5.1-8.7
			c2.9-0.9,6.1,0.4,7.6,3.1c2.2,3.4,1.7,7.9-1.2,10.7c-2.5,2.4-5.5,2.6-8.7,0.7C209.2,236.4,211.6,234.5,212.3,231 M210.1,229.6
			c0,1.4-0.6,2.7-1.6,3.6c-0.8,0.8-1.9,1.2-3.1,1.2c-2.5-0.2-4.4-2.3-4.3-4.8c-0.1-2.6,1.8-4.7,4.4-4.9h0.1l0,0
			c1.2,0,2.3,0.5,3.1,1.3C209.6,226.9,210.1,228.2,210.1,229.6 M215.1,237.3c3.1-3,3.9-7.6,2.2-11.5c-1.6-3.9-4.5-5.6-9.6-5.8
			c4.6-1.7,9.8,0.2,12.1,4.5c3.2,5.3,1.7,12.2-3.4,15.8c-4.3,2.8-9.1,2.1-13-1.8C208,240.9,211.7,240.5,215.1,237.3"/>
	</g>
</g>
</svg>
