<svg xmlns="http://www.w3.org/2000/svg" viewBox="0 0 60.71 60.71"><defs><style>.cls-1{fill:#242b36;}.cls-2{fill:#fac716;}.cls-3{fill:#fff;}</style></defs><title>risks-icon</title><g id="Layer_2" data-name="Layer 2"><g id="Capa_1" data-name="Capa 1"><circle class="cls-1" cx="30.36" cy="30.36" r="30.36"/><circle class="cls-2" cx="30.36" cy="30.36" r="21.5"/><path class="cls-3" d="M20,27.63V22.69a1.06,1.06,0,0,1,1.13-1.2,13,13,0,0,0,8.33-3.22c.7-.59,1-.58,1.72,0a15.62,15.62,0,0,0,3.25,2.08,12.74,12.74,0,0,0,4.9,1.15,1.47,1.47,0,0,1,.87.23,1.33,1.33,0,0,1,.42.87c0,3.17.12,6.35,0,9.52A9.18,9.18,0,0,1,35.75,40c-1.56.91-3.15,1.77-4.71,2.69a1.42,1.42,0,0,1-1.61,0c-1.45-.87-2.92-1.7-4.38-2.55a9.56,9.56,0,0,1-5-8.72C20,30.12,20,28.87,20,27.63Zm10.34-7.46a14.52,14.52,0,0,1-8.23,3.35c0,.12,0,.19,0,.26,0,2.82,0,5.64.06,8.45a6.6,6.6,0,0,0,2.94,5.39c1.58,1.09,3.29,2,5,3a.63.63,0,0,0,.51-.07l4-2.25a7.46,7.46,0,0,0,4-6.91c0-2.46,0-4.92,0-7.38v-.46A14.44,14.44,0,0,1,30.36,20.17Z"/><path class="cls-3" d="M31.39,29c0,1,0,2,0,3a1.8,1.8,0,0,1-.31.89.82.82,0,0,1-1,.24c-.28-.15-.45-.5-.66-.77a.36.36,0,0,1,0-.21c0-2.06,0-4.12,0-6.18a1,1,0,0,1,1.07-1.07,1,1,0,0,1,1,1.1C31.4,27,31.39,28,31.39,29Z"/><path class="cls-3" d="M30.36,35.91a1.05,1.05,0,0,1-1-1,1,1,0,0,1,2.06,0A1.05,1.05,0,0,1,30.36,35.91Z"/></g></g></svg>