<?xml version="1.0" encoding="utf-8"?>
<!-- Generator: Adobe Illustrator 22.1.0, SVG Export Plug-In . SVG Version: 6.00 Build 0)  -->
<svg version="1.1" id="Layer_1" xmlns="http://www.w3.org/2000/svg" xmlns:xlink="http://www.w3.org/1999/xlink" x="0px" y="0px"
	 viewBox="0 0 1920 766.1" style="enable-background:new 0 0 1920 766.1;" xml:space="preserve">
<style type="text/css">
	.st0{fill:#FFFFFF;}
	.st1{fill:#3F485D;}
</style>
<title>risks-bg</title>
<g id="Capa_1">
	<path class="st0" d="M958.9,47.7c7.2,0,7.8,7.9,7.8,7.9L1920,771.7V0H0v771.8L950.7,55.7C950.7,55.7,951.7,47.7,958.9,47.7z"/>
	<path class="st1" d="M958.9,5.7h43.2c1-0.1,2,0.2,2.7,0.9c0.7,0.6,1.1,1.5,1.1,2.4c0,6.7,0,13.4,0,20c0,1.7-1.3,3.1-3,3.2
		c-0.7,0-0.9,0.2-1,1c-1.2,18.5-14.4,34.1-32.5,38.4c-14.9,3.5-28.4,0.1-39.9-10.2c-7.1-6.3-11.8-15-13.1-24.5
		c-0.2-1.3-0.3-2.6-0.4-4c0-0.5-0.2-0.7-0.7-0.7c-2.3-0.2-3.3-1.4-3.3-3.6c0-6.4,0-12.8,0-19.1c0-2.4,1.3-3.6,3.6-3.6h43.3V5.7z
		 M958.9,28.9h42.6c1.1,0,1.1,0,1.1-1.1V10c0-1.1,0-1.1-1.1-1.1h-85.1c-1.1,0-1.1,0-1.1,1.1v17.7c0,1.2,0,1.2,1.2,1.2H958.9z
		 M978.5,64.4c0.5-0.3,0.9-0.5,1.2-0.7c3.4-2,6.5-4.6,9.1-7.5c5.7-6.3,9.2-14.4,9.8-22.9c0.1-1.2,0.1-1.2-1.2-1.2h-77.1
		c-0.6,0-1.1-0.1-1,0.8c1.2,13.6,7.8,23.9,19.4,31c0.3,0.2,0.6,0.3,0.9,0.4v-8.6c0-7.2,4.5-13.7,11.4-16.1c4.5-1.4,9.3-1.6,13.9-0.6
		c7.2,1.5,12.6,7.6,13.3,14.9c0.2,3.1,0.1,6.3,0.2,9.4C978.4,63.7,978.4,64,978.5,64.4L978.5,64.4z M975,60.1L975,60.1
		c0-1.7,0-3.3,0-5c-0.4-6.3-4.9-11.5-11-12.9c-2.9-0.5-5.9-0.6-8.9-0.2c-6.6,0.8-11.7,6.2-12.1,12.8c-0.2,3.5-0.1,7.1-0.1,10.7
		c0,0.6,0.3,0.8,0.8,1c9.9,4.1,21,4.1,30.8,0c0.4-0.1,0.7-0.6,0.6-1C975,63.6,975,61.8,975,60.1z"/>
	<path class="st1" d="M937.3,60.4c-0.4-0.2-0.8-0.4-1.2-0.6c-4.1-3.1-7.5-6.9-10-11.4c-0.4-0.5-0.3-1.3,0.2-1.8
		c0.5-0.4,1.3-0.3,1.8,0.2c0.1,0.1,0.1,0.2,0.2,0.3c2.4,4.2,5.6,7.9,9.5,10.8c0.5,0.4,0.8,0.8,0.5,1.4
		C938,59.8,937.7,60.1,937.3,60.4z"/>
	<path class="st1" d="M992.2,47.4c-0.1,0.4-0.3,0.7-0.4,1c-2.3,4.1-5.4,7.6-9,10.5l-0.3,0.2c-0.5,0.5-1.3,0.5-1.8-0.1
		c0,0,0,0-0.1-0.1c-0.5-0.5-0.3-1.2,0.3-1.8c1.3-1.1,2.6-2.2,3.7-3.5c1.8-2.1,3.3-4.4,5-6.7c0.4-0.6,0.9-1,1.5-0.7
		C991.6,46.7,991.9,47.1,992.2,47.4z"/>
	<path class="st1" d="M925.7,42c0,0.6-0.4,1-0.9,1.1h-0.1c-0.6,0.2-1.2-0.2-1.4-0.8c0,0,0,0,0-0.1c-0.5-1.9-1-3.8-1.5-5.7
		c-0.1-0.3-0.1-0.7-0.1-1c0-0.6,0.4-1.1,1-1.2c0.6-0.1,1.2,0.2,1.4,0.8c0.6,2.2,1,4.4,1.6,6.6C925.7,41.8,925.7,41.9,925.7,42z"/>
	<path class="st1" d="M996.3,35.7c-0.6,2.2-1.1,4.4-1.8,6.6c-0.2,0.6-0.8,1-1.5,0.8h-0.1c-0.6-0.2-0.9-0.9-0.7-1.5l0,0
		c0.4-1.6,0.8-3.2,1.2-4.8c0.1-0.5,0.1-0.9,0.3-1.4c0.1-0.6,0.7-1.1,1.3-1l0,0C995.8,34.3,996.2,34.9,996.3,35.7z"/>
	<path class="st1" d="M949.5,55.6c0.3-5.2,4.8-9.3,10-9c4.9,0.3,8.8,4.2,9,9.2c-0.3,5.2-4.8,9.3-10,9
		C953.5,64.5,949.6,60.5,949.5,55.6z M959,61.8c3.4-0.1,6.1-2.9,6-6.2c-0.1-3.4-2.9-6.1-6.2-6c-3.4,0.1-6.1,2.9-6,6.2
		C952.9,59.1,955.6,61.8,959,61.8z"/>
	<path class="st1" d="M961.9,55.6c0,1.6-1.2,2.9-2.8,2.9H959c-1.6,0-3-1.2-3-2.8s1.3-2.9,2.9-2.9h0.1
		C960.6,52.8,961.8,54.1,961.9,55.6z"/>
</g>
</svg>
