<svg xmlns="http://www.w3.org/2000/svg" viewBox="0 0 43 43"><defs><style>.cls-1{fill:#3f485d;}.cls-2{fill:#fff;}</style></defs><title>risks-icon</title><g id="Layer_2" data-name="Layer 2"><g id="Layer_1-2" data-name="Layer 1"><path class="cls-1" d="M43,21.5A21.5,21.5,0,1,1,21.5,0,21.49,21.49,0,0,1,43,21.5"/><path class="cls-2" d="M11.17,18.77c0-1.65,0-3.29,0-4.94a1.06,1.06,0,0,1,1.13-1.2,13,13,0,0,0,8.33-3.22c.7-.58,1-.58,1.71,0a16.32,16.32,0,0,0,3.25,2.08,13,13,0,0,0,4.9,1.14,1.45,1.45,0,0,1,.87.23,1.34,1.34,0,0,1,.43.87c0,3.17.12,6.35,0,9.52a9.16,9.16,0,0,1-4.86,7.84c-1.57.91-3.15,1.78-4.71,2.69a1.43,1.43,0,0,1-1.62,0c-1.44-.87-2.92-1.7-4.38-2.54a9.57,9.57,0,0,1-5-8.72c0-1.25,0-2.49,0-3.74m10.34-7.46a14.6,14.6,0,0,1-8.23,3.36,1.38,1.38,0,0,0,0,.25c0,2.82,0,5.64.06,8.46a6.56,6.56,0,0,0,2.94,5.38c1.57,1.1,3.29,2,4.95,3a.63.63,0,0,0,.51-.06c1.34-.74,2.66-1.5,4-2.25a7.45,7.45,0,0,0,4.05-6.91q0-3.69,0-7.39v-.45a14.47,14.47,0,0,1-8.25-3.36"/><path class="cls-2" d="M22.53,20.14c0,1,0,2,0,3a1.69,1.69,0,0,1-.32.88.81.81,0,0,1-1,.24,2.62,2.62,0,0,1-.67-.76c0-.05,0-.15,0-.22,0-2.06,0-4.12,0-6.18A1,1,0,0,1,21.54,16a1.05,1.05,0,0,1,1,1.1c0,1,0,2,0,3"/><path class="cls-2" d="M21.51,27.05a1,1,0,1,1,0-2.06,1.09,1.09,0,0,1,1,1,1.07,1.07,0,0,1-1,1"/></g></g></svg>