<svg xmlns="http://www.w3.org/2000/svg" viewBox="0 0 40.36 40.27"><defs><style>.cls-1{fill:#1676f2;}</style></defs><title>share-fb</title><g id="Layer_2" data-name="Layer 2"><g id="Capa_1" data-name="Capa 1"><path class="cls-1" d="M40.36,20.18A20.18,20.18,0,1,0,17,40.09V23.74H14.05a.71.71,0,0,1-.7-.69V19.39a.7.7,0,0,1,.7-.7H17V15.15C17,11,19.49,8.8,23.16,8.8h3a.69.69,0,0,1,.69.7v3.09a.69.69,0,0,1-.69.69H24.32c-2,0-2.38.94-2.38,2.33v3.07h4.38a.69.69,0,0,1,.69.78l-.43,3.66a.69.69,0,0,1-.69.61H22V40.27A20.18,20.18,0,0,0,40.36,20.18Z"/></g></g></svg>