<svg xmlns="http://www.w3.org/2000/svg" viewBox="0 0 40.36 40.36"><defs><style>.cls-1{fill:#55eb4c;}.cls-2{fill:#fff;fill-rule:evenodd;}</style></defs><title>share-wsp</title><g id="Layer_2" data-name="Layer 2"><g id="Capa_1" data-name="Capa 1"><path class="cls-1" d="M20.18,0A20.18,20.18,0,1,0,40.36,20.18,20.19,20.19,0,0,0,20.18,0Z"/><path class="cls-2" d="M26,22.3c-.29-.16-1.68-.91-1.95-1s-.45-.16-.65.12-.79.92-1,1.1-.35.21-.63.05A7.61,7.61,0,0,1,19.51,21,8.69,8.69,0,0,1,18,19c-.16-.29,0-.44.15-.58s.3-.33.45-.49a2.46,2.46,0,0,0,.31-.48.52.52,0,0,0,0-.5c-.06-.15-.59-1.6-.81-2.19s-.46-.5-.63-.5l-.56-.05a1.09,1.09,0,0,0-.78.34A3.19,3.19,0,0,0,15,16.88a5.55,5.55,0,0,0,1.07,3,11.74,11.74,0,0,0,4.78,4.55c2.9,1.27,2.91.89,3.44.86a3,3,0,0,0,2-1.3,2.47,2.47,0,0,0,.22-1.37c-.07-.13-.26-.21-.54-.36Zm-5.32,6.86a9.33,9.33,0,0,1-5.19-1.56l-3.63,1.16L13,25.26a9.44,9.44,0,1,1,7.64,3.9Zm0-20.78A11.34,11.34,0,0,0,11,25.58l-2,6.08,6.28-2A11.34,11.34,0,1,0,20.66,8.38Z"/></g></g></svg>