<svg xmlns="http://www.w3.org/2000/svg" viewBox="0 0 40.36 40.36"><defs><style>.cls-1{fill:#55acee;}</style></defs><title>share-tw</title><g id="Layer_2" data-name="Layer 2"><g id="Capa_1" data-name="Capa 1"><path class="cls-1" d="M20.18,0A20.18,20.18,0,1,0,40.36,20.18,20.19,20.19,0,0,0,20.18,0ZM31.92,14a8.87,8.87,0,0,1-1.8,2,.79.79,0,0,0-.29.6v.07A12.89,12.89,0,0,1,26.64,25a11.73,11.73,0,0,1-3.9,2.92,12.7,12.7,0,0,1-11.55-.55A.35.35,0,0,1,11,27a.34.34,0,0,1,.34-.26h.52a8.31,8.31,0,0,0,4.67-1.42A4.52,4.52,0,0,1,13,22.22a.25.25,0,0,1,.27-.31A3.92,3.92,0,0,0,14,22h.1a4.53,4.53,0,0,1-2.64-4.17.23.23,0,0,1,.35-.2,3.9,3.9,0,0,0,1,.39A4.51,4.51,0,0,1,11.5,14.8a4.55,4.55,0,0,1,.61-2.28.24.24,0,0,1,.39,0,11.79,11.79,0,0,0,8.14,4.35h0a.21.21,0,0,0,.13-.05.28.28,0,0,0,0-.13,4.68,4.68,0,0,1,.1-1.66,4.42,4.42,0,0,1,2.95-3.16,5.07,5.07,0,0,1,1.43-.22,4.48,4.48,0,0,1,3,1.13.58.58,0,0,0,.39.15l.14,0A8.32,8.32,0,0,0,31,12a.24.24,0,0,1,.34.28,4.48,4.48,0,0,1-1.19,1.89,8.25,8.25,0,0,0,1.45-.49A.24.24,0,0,1,31.92,14Z"/></g></g></svg>