<svg xmlns="http://www.w3.org/2000/svg" xmlns:xlink="http://www.w3.org/1999/xlink" viewBox="0 0 40.36 40.36"><defs><style>.cls-1{fill:#fd6500;}.cls-2{fill:url(#Degradado_sin_nombre_8);}</style><linearGradient id="Degradado_sin_nombre_8" x1="8.94" y1="20.18" x2="31.43" y2="20.18" gradientUnits="userSpaceOnUse"><stop offset="0" stop-color="#fff"/><stop offset="0.71" stop-color="#fdfdfd"/><stop offset="0.97" stop-color="#f6f6f6"/><stop offset="1" stop-color="#f5f5f5"/></linearGradient></defs><title>share-print</title><g id="Layer_2" data-name="Layer 2"><g id="Capa_1" data-name="Capa 1"><path class="cls-1" d="M20.18,0A20.18,20.18,0,1,0,40.36,20.18,20.19,20.19,0,0,0,20.18,0Z"/><path class="cls-2" d="M30,14.07h-2.5V10.46a1.39,1.39,0,0,0-1.39-1.39H14.21a1.4,1.4,0,0,0-1.39,1.39v3.61h-2.5a1.38,1.38,0,0,0-1.38,1.39v8.05a1.38,1.38,0,0,0,1.38,1.39h2.5v5a1.4,1.4,0,0,0,1.39,1.39H26.15a1.39,1.39,0,0,0,1.39-1.39v-5H30a1.39,1.39,0,0,0,1.39-1.39v-8A1.39,1.39,0,0,0,30,14.07ZM14.49,10.74H25.87v3.33H14.49ZM25.87,29.62H14.49V22.4H25.87Zm3.89-6.39H27.54V20.74H12.82v2.49H10.6V15.74H29.76Zm-4.4-5.18a.51.51,0,1,0-.51-.51A.51.51,0,0,0,25.36,18.05Zm2.18.4a.77.77,0,0,0,.76-.77.76.76,0,0,0-.76-.76.77.77,0,0,0-.77.76A.78.78,0,0,0,27.54,18.45ZM17,28.23H20.6a.83.83,0,0,0,0-1.66H17a.83.83,0,1,0,0,1.66Zm0-2.77h6.38a.85.85,0,0,0,.84-.84.84.84,0,0,0-.84-.83H17a.84.84,0,0,0-.84.83A.85.85,0,0,0,17,25.46Z"/></g></g></svg>