<svg xmlns="http://www.w3.org/2000/svg" viewBox="0 0 56.92 56.92"><defs><style>.cls-1{fill:#fff;}</style></defs><title>social-tw</title><g id="Layer_2" data-name="Layer 2"><g id="Capa_1" data-name="Capa 1"><path class="cls-1" d="M28.46,0A28.46,28.46,0,1,0,56.92,28.46,28.46,28.46,0,0,0,28.46,0ZM45,19.74a12.62,12.62,0,0,1-2.53,2.78,1.09,1.09,0,0,0-.41.84v.1a17.76,17.76,0,0,1-1.14,6.17,18.31,18.31,0,0,1-3.36,5.63,16.61,16.61,0,0,1-5.5,4.11,17.88,17.88,0,0,1-16.29-.77.5.5,0,0,1-.24-.56.49.49,0,0,1,.48-.37h.73a11.75,11.75,0,0,0,6.59-2,6.36,6.36,0,0,1-5-4.34.33.33,0,0,1,.37-.43,5.65,5.65,0,0,0,1.08.11h.13a6.37,6.37,0,0,1-3.72-5.87.34.34,0,0,1,.5-.29,5.45,5.45,0,0,0,1.45.56,6.38,6.38,0,0,1-1-7.74.34.34,0,0,1,.55,0A16.72,16.72,0,0,0,29.1,23.75h0a.25.25,0,0,0,.18-.08.22.22,0,0,0,.05-.18,6.91,6.91,0,0,1,.16-2.34,6.17,6.17,0,0,1,4.16-4.45,7,7,0,0,1,2-.31A6.41,6.41,0,0,1,39.9,18a.78.78,0,0,0,.54.21l.2,0a11.76,11.76,0,0,0,3.11-1.29.34.34,0,0,1,.49.39,6.46,6.46,0,0,1-1.68,2.67,12.25,12.25,0,0,0,2-.69A.33.33,0,0,1,45,19.74Z"/></g></g></svg>