<svg xmlns="http://www.w3.org/2000/svg" viewBox="0 0 56.91 56.92"><defs><style>.cls-1{fill:#fff;}</style></defs><title>social-link</title><g id="Layer_2" data-name="Layer 2"><g id="Capa_1" data-name="Capa 1"><path class="cls-1" d="M28.46,0A28.46,28.46,0,1,0,56.91,28.46,28.46,28.46,0,0,0,28.46,0Zm-6,38.82a.91.91,0,0,1-.91.91H17.69a.9.9,0,0,1-.9-.91V22.65a.9.9,0,0,1,.9-.9h3.86a.9.9,0,0,1,.91.9Zm-2.84-18.6a3.67,3.67,0,1,1,3.67-3.66A3.66,3.66,0,0,1,19.62,20.22Zm23,18.68a.84.84,0,0,1-.84.83H37.64a.83.83,0,0,1-.83-.83V31.31c0-1.13.33-5-3-5-2.55,0-3.07,2.62-3.17,3.8V38.9a.83.83,0,0,1-.83.83h-4A.83.83,0,0,1,25,38.9V22.58a.83.83,0,0,1,.84-.83h4a.83.83,0,0,1,.83.83V24c.95-1.42,2.35-2.51,5.35-2.51,6.63,0,6.59,6.19,6.59,9.59Z"/></g></g></svg>