<svg xmlns="http://www.w3.org/2000/svg" viewBox="0 0 56.92 56.92"><defs><style>.cls-1{fill:#fff;}</style></defs><title>social-ig</title><g id="Layer_2" data-name="Layer 2"><g id="Capa_1" data-name="Capa 1"><path class="cls-1" d="M35.55,14.45H21.37a6.92,6.92,0,0,0-6.92,6.92V35.55a6.91,6.91,0,0,0,6.92,6.91H35.55a6.91,6.91,0,0,0,6.91-6.91V21.37A6.91,6.91,0,0,0,35.55,14.45ZM28.46,37.53a9.07,9.07,0,1,1,9.07-9.07A9.08,9.08,0,0,1,28.46,37.53Zm9.09-15.9a2.18,2.18,0,1,1,2.17-2.17A2.17,2.17,0,0,1,37.55,21.63Z"/><path class="cls-1" d="M28.46,22.92A5.54,5.54,0,1,0,34,28.46,5.54,5.54,0,0,0,28.46,22.92Z"/><path class="cls-1" d="M28.46,0A28.46,28.46,0,1,0,56.92,28.46,28.46,28.46,0,0,0,28.46,0ZM46,35.55A10.45,10.45,0,0,1,35.55,46H21.37A10.45,10.45,0,0,1,10.93,35.55V21.37A10.46,10.46,0,0,1,21.37,10.92H35.55A10.46,10.46,0,0,1,46,21.37Z"/></g></g></svg>