<svg xmlns="http://www.w3.org/2000/svg" xmlns:xlink="http://www.w3.org/1999/xlink" viewBox="0 0 269.87 40.6"><defs><style>.cls-1{fill:#1676f2;}.cls-2{fill:#55acee;}.cls-3{fill:#649a3f;}.cls-4{fill:#fd6500;}.cls-5{fill:url(#Degradado_sin_nombre_8);}.cls-6{fill:#55eb4c;}.cls-7{fill:#fff;fill-rule:evenodd;}</style><linearGradient id="Degradado_sin_nombre_8" x1="238.44" y1="20.18" x2="260.93" y2="20.18" gradientUnits="userSpaceOnUse"><stop offset="0" stop-color="#fff"/><stop offset="0.71" stop-color="#fdfdfd"/><stop offset="0.97" stop-color="#f6f6f6"/><stop offset="1" stop-color="#f5f5f5"/></linearGradient></defs><title>social-icons-2</title><g id="Layer_2" data-name="Layer 2"><g id="Capa_1" data-name="Capa 1"><path class="cls-1" d="M40.36,20.42A20.18,20.18,0,1,0,17,40.32V24H14.05a.71.71,0,0,1-.7-.7V19.62a.7.7,0,0,1,.7-.7H17V15.38C17,11.27,19.49,9,23.16,9h3a.69.69,0,0,1,.69.69v3.09a.69.69,0,0,1-.69.7H24.32c-2,0-2.38,1-2.38,2.34v3.06h4.38a.7.7,0,0,1,.69.78l-.43,3.66a.69.69,0,0,1-.69.62H22V40.51A20.18,20.18,0,0,0,40.36,20.42Z"/><path class="cls-2" d="M77.56.24A20.18,20.18,0,1,0,97.74,20.42,20.17,20.17,0,0,0,77.56.24Zm11.74,14a8.89,8.89,0,0,1-1.8,2,.79.79,0,0,0-.29.6v.07a12.6,12.6,0,0,1-.81,4.37,13,13,0,0,1-2.38,4,11.93,11.93,0,0,1-3.9,2.92,12.56,12.56,0,0,1-5.32,1.13,12.39,12.39,0,0,1-6.23-1.68.36.36,0,0,1-.17-.4.33.33,0,0,1,.34-.26h.52a8.3,8.3,0,0,0,4.66-1.42,4.53,4.53,0,0,1-3.57-3.08.23.23,0,0,1,.27-.3,3.91,3.91,0,0,0,.76.07h.1a4.53,4.53,0,0,1-2.64-4.17.23.23,0,0,1,.35-.2,4.16,4.16,0,0,0,1,.4,4.52,4.52,0,0,1-.74-5.49.24.24,0,0,1,.39,0A11.86,11.86,0,0,0,78,17.08h0a.16.16,0,0,0,.12-.06.13.13,0,0,0,0-.12,5,5,0,0,1,.11-1.67,4.35,4.35,0,0,1,3-3.15,4.69,4.69,0,0,1,1.43-.22,4.52,4.52,0,0,1,3,1.13.6.6,0,0,0,.39.14h.13a8.4,8.4,0,0,0,2.21-.92.24.24,0,0,1,.35.28,4.58,4.58,0,0,1-1.19,1.89A8.11,8.11,0,0,0,89,13.89.24.24,0,0,1,89.3,14.23Z"/><path class="cls-3" d="M192.31.24a20.18,20.18,0,1,0,20.18,20.18A20.18,20.18,0,0,0,192.31.24Zm11.74,14a8.66,8.66,0,0,1-1.8,2,.79.79,0,0,0-.29.6v.07a12.94,12.94,0,0,1-3.19,8.37,11.73,11.73,0,0,1-3.9,2.92,12.7,12.7,0,0,1-11.55-.55.38.38,0,0,1-.17-.4.34.34,0,0,1,.34-.26H184a8.31,8.31,0,0,0,4.67-1.42,4.52,4.52,0,0,1-3.58-3.08.24.24,0,0,1,.27-.3,3.91,3.91,0,0,0,.76.07h.1a4.53,4.53,0,0,1-2.64-4.17.24.24,0,0,1,.35-.2,4.31,4.31,0,0,0,1,.4,4.53,4.53,0,0,1-.73-5.49.24.24,0,0,1,.39,0,11.82,11.82,0,0,0,8.14,4.35h0a.18.18,0,0,0,.13-.06.24.24,0,0,0,0-.12,4.72,4.72,0,0,1,.1-1.67A4.39,4.39,0,0,1,196,12.08a4.73,4.73,0,0,1,1.43-.22,4.48,4.48,0,0,1,3,1.13.62.62,0,0,0,.39.14H201a8.69,8.69,0,0,0,2.21-.92.24.24,0,0,1,.34.28,4.48,4.48,0,0,1-1.19,1.89,8.21,8.21,0,0,0,1.45-.48A.23.23,0,0,1,204.05,14.23Z"/><path class="cls-4" d="M249.69,0a20.18,20.18,0,1,0,20.18,20.18A20.18,20.18,0,0,0,249.69,0Z"/><path class="cls-5" d="M259.54,14.07h-2.49V10.46a1.4,1.4,0,0,0-1.39-1.39H243.72a1.39,1.39,0,0,0-1.39,1.39v3.61h-2.5a1.39,1.39,0,0,0-1.39,1.39v8.05a1.39,1.39,0,0,0,1.39,1.39h2.5v5a1.39,1.39,0,0,0,1.39,1.39h11.94a1.4,1.4,0,0,0,1.39-1.39v-5h2.49a1.39,1.39,0,0,0,1.39-1.39v-8A1.39,1.39,0,0,0,259.54,14.07ZM244,10.74h11.38v3.33H244Zm11.38,18.88H244V22.4h11.38Zm3.89-6.39h-2.22V20.74H242.33v2.49h-2.22V15.74h19.16Zm-4.4-5.18a.51.51,0,1,0-.51-.51A.51.51,0,0,0,254.87,18.05Zm2.18.4a.77.77,0,0,0,.76-.77.77.77,0,0,0-1.53,0A.77.77,0,0,0,257.05,18.45Zm-10.56,9.78h3.61a.83.83,0,1,0,0-1.66h-3.61a.83.83,0,0,0,0,1.66Zm0-2.77h6.39a.84.84,0,0,0,.83-.84.83.83,0,0,0-.83-.83h-6.39a.83.83,0,0,0-.83.83A.84.84,0,0,0,246.49,25.46Z"/><path class="cls-6" d="M134.94.24a20.18,20.18,0,1,0,20.17,20.18A20.18,20.18,0,0,0,134.94.24Z"/><path class="cls-7" d="M140.73,22.53c-.28-.15-1.68-.91-1.94-1s-.46-.16-.66.12-.78.91-1,1.1-.34.2-.63.05a8.12,8.12,0,0,1-2.27-1.53,9.05,9.05,0,0,1-1.54-2.06c-.16-.3,0-.45.15-.59s.3-.33.45-.49a1.82,1.82,0,0,0,.31-.47.54.54,0,0,0,0-.51c-.07-.15-.6-1.59-.82-2.18s-.46-.5-.63-.51-.36,0-.55,0a1.05,1.05,0,0,0-.79.33,3.26,3.26,0,0,0-1.1,2.38,5.59,5.59,0,0,0,1.07,3,11.88,11.88,0,0,0,4.78,4.56c2.9,1.27,2.91.88,3.45.85a2.89,2.89,0,0,0,2-1.3,2.37,2.37,0,0,0,.22-1.37c-.07-.12-.26-.2-.54-.36Zm-5.32,6.87a9.44,9.44,0,0,1-5.19-1.56L126.59,29l1.18-3.51a9.43,9.43,0,1,1,7.64,3.91Zm0-20.78a11.33,11.33,0,0,0-9.71,17.19l-2,6.09,6.28-2a11.34,11.34,0,1,0,5.48-21.27Z"/></g></g></svg>