<svg xmlns="http://www.w3.org/2000/svg" viewBox="0 0 400.79 56.92"><defs><style>.cls-1{fill:#fff;}</style></defs><title>Asset 3</title><g id="Layer_2" data-name="Layer 2"><g id="Capa_1" data-name="Capa 1"><path class="cls-1" d="M372.33,0a28.46,28.46,0,1,0,28.46,28.46A28.46,28.46,0,0,0,372.33,0ZM385,29.86l-19,9a.76.76,0,0,1-1.09-.69V19.55a.76.76,0,0,1,1.11-.68l19,9.62A.77.77,0,0,1,385,29.86Z"/><path class="cls-1" d="M200.4,0a28.46,28.46,0,1,0,28.45,28.46A28.46,28.46,0,0,0,200.4,0Zm-6,38.82a.91.91,0,0,1-.91.91h-3.86a.9.9,0,0,1-.9-.91V22.65a.9.9,0,0,1,.9-.9h3.86a.9.9,0,0,1,.91.9Zm-2.84-18.6a3.67,3.67,0,1,1,3.67-3.66A3.67,3.67,0,0,1,191.56,20.22Zm23,18.68a.83.83,0,0,1-.83.83h-4.14a.83.83,0,0,1-.83-.83V31.31c0-1.13.33-5-3-5-2.55,0-3.07,2.62-3.17,3.8V38.9a.83.83,0,0,1-.83.83h-4a.83.83,0,0,1-.83-.83V22.58a.83.83,0,0,1,.83-.83h4a.83.83,0,0,1,.83.83V24c.95-1.42,2.35-2.51,5.35-2.51,6.62,0,6.58,6.19,6.58,9.59Z"/><path class="cls-1" d="M56.91,28.46A28.46,28.46,0,1,0,24,56.53l0-23.05H19.82a1,1,0,0,1-1-1l0-5.16a1,1,0,0,1,1-1H24v-5c0-5.79,3.54-8.95,8.71-8.95H36.9a1,1,0,0,1,1,1v4.36a1,1,0,0,1-1,1H34.3c-2.81,0-3.36,1.34-3.36,3.3v4.32h6.18a1,1,0,0,1,1,1.1l-.61,5.17a1,1,0,0,1-1,.86H31l0,23.31A28.44,28.44,0,0,0,56.91,28.46Z"/><path class="cls-1" d="M121.51,14.45H107.34a6.92,6.92,0,0,0-6.92,6.92V35.55a6.91,6.91,0,0,0,6.92,6.91h14.17a6.91,6.91,0,0,0,6.92-6.91V21.37A6.92,6.92,0,0,0,121.51,14.45Zm-7.08,23.08a9.07,9.07,0,1,1,9.07-9.07A9.08,9.08,0,0,1,114.43,37.53Zm9.08-15.9a2.18,2.18,0,1,1,2.18-2.17A2.17,2.17,0,0,1,123.51,21.63Z"/><path class="cls-1" d="M114.43,22.92A5.54,5.54,0,1,0,120,28.46,5.54,5.54,0,0,0,114.43,22.92Z"/><path class="cls-1" d="M114.43,0a28.46,28.46,0,1,0,28.45,28.46A28.46,28.46,0,0,0,114.43,0ZM132,35.55A10.46,10.46,0,0,1,121.51,46H107.34A10.46,10.46,0,0,1,96.89,35.55V21.37a10.46,10.46,0,0,1,10.45-10.45h14.17A10.46,10.46,0,0,1,132,21.37Z"/><path class="cls-1" d="M286.37,0a28.46,28.46,0,1,0,28.45,28.46A28.46,28.46,0,0,0,286.37,0Zm16.55,19.74a12.66,12.66,0,0,1-2.54,2.78,1.11,1.11,0,0,0-.4.84v.1a18.23,18.23,0,0,1-4.51,11.8A16.58,16.58,0,0,1,290,39.37a17.69,17.69,0,0,1-7.51,1.6,17.47,17.47,0,0,1-8.78-2.37.5.5,0,0,1-.24-.56.48.48,0,0,1,.47-.37h.74a11.74,11.74,0,0,0,6.58-2,6.37,6.37,0,0,1-5-4.34.33.33,0,0,1,.38-.43,5.63,5.63,0,0,0,1.07.11h.14a6.37,6.37,0,0,1-3.72-5.87.33.33,0,0,1,.49-.29,5.51,5.51,0,0,0,1.46.56,6.33,6.33,0,0,1-1.9-4.54,6.42,6.42,0,0,1,.86-3.2.34.34,0,0,1,.55,0A16.7,16.7,0,0,0,287,23.75h0a.23.23,0,0,0,.17-.08.22.22,0,0,0,.06-.18,6.65,6.65,0,0,1,.15-2.34,6.17,6.17,0,0,1,4.16-4.45,7.08,7.08,0,0,1,2-.31A6.39,6.39,0,0,1,297.8,18a.82.82,0,0,0,.55.21l.19,0a11.82,11.82,0,0,0,3.12-1.29.33.33,0,0,1,.48.39,6.34,6.34,0,0,1-1.67,2.67,11.84,11.84,0,0,0,2-.69A.34.34,0,0,1,302.92,19.74Z"/></g></g></svg>