<svg xmlns="http://www.w3.org/2000/svg" viewBox="0 0 56.91 56.79"><defs><style>.cls-1{fill:#fff;}</style></defs><title>social-fb</title><g id="Layer_2" data-name="Layer 2"><g id="Capa_1" data-name="Capa 1"><path class="cls-1" d="M56.91,28.46A28.46,28.46,0,1,0,24,56.53l0-23.05H19.82a1,1,0,0,1-1-1l0-5.16a1,1,0,0,1,1-1H24v-5c0-5.79,3.54-8.95,8.71-8.95H36.9a1,1,0,0,1,1,1v4.36a1,1,0,0,1-1,1H34.3c-2.81,0-3.36,1.34-3.36,3.3v4.32h6.18a1,1,0,0,1,1,1.1l-.61,5.17a1,1,0,0,1-1,.86H31l0,23.31A28.44,28.44,0,0,0,56.91,28.46Z"/></g></g></svg>