<svg xmlns="http://www.w3.org/2000/svg" viewBox="0 0 361.39 124.1"><defs><style>.cls-1{fill:#3f485d;}.cls-2,.cls-3,.cls-4,.cls-7{fill:none;stroke:#00b1eb;}.cls-2,.cls-7{stroke-miterlimit:10;}.cls-2,.cls-3,.cls-4{stroke-width:0.7px;}.cls-3,.cls-4{stroke-linejoin:round;}.cls-4{stroke-linecap:round;}.cls-5{fill:#00b1eb;}.cls-6{fill:#fac716;}.cls-7{stroke-width:2px;}</style></defs><title>verification-mob</title><g id="Layer_2" data-name="Layer 2"><g id="Capa_1" data-name="Capa 1"><path class="cls-1" d="M204.19,62.83c-.07-3.7-1.21-4.91-4.11-5.24a69.79,69.79,0,0,0-.88-8.46c-1.79-8.2-5.09-12.45-10.09-14.52C185.18,33,181,33.13,176.8,33.34c-10.42.51-16.09,7.71-17.1,19a49.12,49.12,0,0,0-.12,5.3c-2.87.36-3.88,1.41-4.13,4.06a12.88,12.88,0,0,0,1.82,8.12c1.19,2,2.93,2.72,3,3.13a31.82,31.82,0,0,0,4.3,10.07,18.13,18.13,0,0,0,15.16,8.35,17,17,0,0,0,14.45-7.82,37.32,37.32,0,0,0,4.62-10.16c.39-1.21.51-1,1.75-1.81a7.61,7.61,0,0,0,2-2.22A13.11,13.11,0,0,0,204.19,62.83Zm-44.22,7c-2.23-2.25-3.17-7.14-2.2-9.14a1.51,1.51,0,0,1,1.2-.91c.48,0,.45.76.45,1.14A63.49,63.49,0,0,0,160,69.83Zm38.16-10.72c.35,14.93-3.52,20.43-3.59,20.36-1.28,3-5.65,10.13-14.55,10.13-7.17,0-11-2.69-14.42-8.52-2.92-5-4.2-10.1-4.15-17.17,0-2.91-.11-5.82,0-8.71a17.13,17.13,0,0,1,4.14-10.76,1.75,1.75,0,0,1,2.27-.54c1.47.65,2.79,1.75,4.37,2a12.41,12.41,0,0,0,7.34-.71c2.91-1.25,4.61-3.28,6.59-3.26,2.86-.27,6.18,1.15,8.86,5.25C197.46,50.94,198.09,57,198.13,59.11Zm1.36,10.83a50.77,50.77,0,0,0,.71-9.44c0-.9.55-.92,1.06-.51a2.24,2.24,0,0,1,.73,1.28C202.48,64,201.68,68.17,199.49,69.94Z"/><path class="cls-1" d="M177.39,74.29a2,2,0,0,1,.78.08c.22.07.7.39.84.42a2.38,2.38,0,0,0,1.74.06c.24-.08.56-.37.82-.46a2.29,2.29,0,0,1,.92-.11,2.21,2.21,0,0,0,2.45-2c0-.31.1-.79-.47-.89s-.61.31-.69.56c-.3,1-.64,1.11-1.5.89a1.81,1.81,0,0,0-1.35.32,1.4,1.4,0,0,1-2,0,1.81,1.81,0,0,0-1.27-.3c-.8.15-1.26,0-1.54-.81-.1-.31-.28-.65-.8-.53s-.44.62-.37,1A2.23,2.23,0,0,0,177.39,74.29Z"/><path class="cls-1" d="M180,75a2.3,2.3,0,0,1-1-.2,1.81,1.81,0,0,1-.39-.19,2.59,2.59,0,0,0-.45-.22,2,2,0,0,0-.76-.09h0a2.27,2.27,0,0,1-2.5-1.8c-.08-.42,0-1,.42-1.05s.76.24.87.57c.27.83.74.91,1.46.77a1.84,1.84,0,0,1,1.32.32,1.37,1.37,0,0,0,1.93,0,1.83,1.83,0,0,1,1.41-.33c.83.21,1.13.12,1.42-.85v0c.07-.25.2-.67.75-.58s.54.55.52.85v.09a2,2,0,0,1-.67,1.42,2.55,2.55,0,0,1-1.85.63,2.16,2.16,0,0,0-.89.1,1.8,1.8,0,0,0-.39.23,1.89,1.89,0,0,1-.43.24A2.65,2.65,0,0,1,180,75Zm-2.39-.82a2.08,2.08,0,0,1,.63.09,3,3,0,0,1,.47.24,2.31,2.31,0,0,0,.36.18,2.35,2.35,0,0,0,1.71.07,2.12,2.12,0,0,0,.4-.23,2.55,2.55,0,0,1,.41-.24,2.31,2.31,0,0,1,1-.1,2.44,2.44,0,0,0,1.76-.6,1.89,1.89,0,0,0,.63-1.35.28.28,0,0,1,0-.09c0-.3,0-.65-.43-.73s-.54.25-.62.5v0c-.32,1.07-.73,1.15-1.57.93a1.76,1.76,0,0,0-1.3.31,1.49,1.49,0,0,1-2.08,0,1.73,1.73,0,0,0-1.22-.29c-.77.15-1.3.06-1.6-.85-.11-.32-.27-.6-.73-.49s-.4.54-.33.91a2.15,2.15,0,0,0,2.37,1.71h.18Z"/><circle class="cls-1" cx="171.23" cy="63.77" r="1.67"/><circle class="cls-1" cx="188.66" cy="64.01" r="1.67"/><path class="cls-1" d="M180,81.78a16,16,0,0,1-6.47-1.2.7.7,0,1,1,.61-1.27c.05,0,4.62,2.13,11.29.31a.7.7,0,0,1,.37,1.36A22.06,22.06,0,0,1,180,81.78Z"/><path class="cls-1" d="M166.44,60.36a.7.7,0,0,1-.31-1.34c5.29-2.53,9.21-.7,9.38-.62a.7.7,0,0,1-.61,1.27c-.15-.07-3.51-1.59-8.16.62A.66.66,0,0,1,166.44,60.36Z"/><path class="cls-1" d="M193.27,60.83a.66.66,0,0,1-.3-.07c-4.65-2.21-8-.68-8.16-.62a.7.7,0,0,1-.94-.33.71.71,0,0,1,.33-.94c.17-.08,4.09-1.9,9.38.62a.7.7,0,0,1,.33.94A.69.69,0,0,1,193.27,60.83Z"/><path class="cls-1" d="M180,84.84a19.09,19.09,0,0,1-3-.24.7.7,0,1,1,.22-1.39,18.55,18.55,0,0,0,4.72.12.71.71,0,1,1,.14,1.41A20,20,0,0,1,180,84.84Z"/><polyline class="cls-2" points="171.76 80.27 177.28 83.19 182.74 83.19 188.02 80.67 180 78.35 171.76 80.27"/><polyline class="cls-2" points="180.03 62 174.35 72.18 180.05 74.68"/><polyline class="cls-3" points="177.28 83.19 174.96 90.53 185.04 90.53 182.74 83.19"/><polyline class="cls-3" points="180.49 62.15 189.39 65.76 196.14 61.34 189.62 58.41 180.05 62.11 180.05 74.68 185.42 72.02 180.2 62.11"/><polyline class="cls-4" points="186.31 72.2 196.65 71.98 188.02 80.67 185.84 72.18"/><polyline class="cls-2" points="185.04 90.53 196.58 72.15 196.14 61.34"/><polyline class="cls-3" points="179.64 62 170.4 65.35 163.65 60.93 170.88 58.18 180.05 62.11"/><polyline class="cls-4" points="173.88 72.2 163.13 71.58 171.76 80.27 174.35 72.18"/><polyline class="cls-2" points="174.96 90.53 162.81 71.34 163.65 60.93"/><circle class="cls-5" cx="163.57" cy="60.78" r="0.99"/><circle class="cls-5" cx="180.09" cy="61.95" r="0.99"/><circle class="cls-5" cx="195.91" cy="61.34" r="0.99"/><circle class="cls-5" cx="185.5" cy="71.98" r="0.99"/><circle class="cls-5" cx="180.09" cy="74.33" r="0.99"/><circle class="cls-5" cx="189.53" cy="58.41" r="0.99"/><circle class="cls-5" cx="180.05" cy="51.21" r="0.99"/><circle class="cls-5" cx="170.86" cy="58.41" r="0.99"/><circle class="cls-5" cx="174.35" cy="71.98" r="0.99"/><circle class="cls-5" cx="170.41" cy="65.35" r="0.99"/><circle class="cls-5" cx="189.53" cy="65.56" r="0.99"/><circle class="cls-5" cx="163.13" cy="71.3" r="0.99"/><circle class="cls-5" cx="196.14" cy="71.76" r="0.99"/><circle class="cls-5" cx="188.02" cy="80.67" r="0.99"/><circle class="cls-5" cx="171.97" cy="80.27" r="0.99"/><circle class="cls-5" cx="174.96" cy="90.53" r="0.99"/><circle class="cls-5" cx="185.04" cy="90.53" r="0.99"/><polyline class="cls-3" points="170.86 58.41 180.05 51.21 189.62 58.41"/><path class="cls-6" d="M144.31,104.22h-8.86a1.82,1.82,0,0,1-1.81-1.82V92.75h3.63v7.83h7Z"/><path class="cls-6" d="M221.47,104.22H213v-3.64h6.69V94.07h3.63v8.33A1.82,1.82,0,0,1,221.47,104.22Z"/><path class="cls-6" d="M223.29,31.77h-3.63V24.15H213V20.52h8.5a1.81,1.81,0,0,1,1.82,1.81Z"/><path class="cls-6" d="M137.27,30.68h-3.63V22.33a1.81,1.81,0,0,1,1.81-1.81h10.1v3.63h-8.28Z"/><rect class="cls-7" x="1" y="1" width="359.39" height="122.1" rx="5.5" ry="5.5"/></g></g></svg>