<svg xmlns="http://www.w3.org/2000/svg" viewBox="0 0 173.41 161.67"><defs><style>.cls-1{fill:#3f485d;}.cls-2,.cls-3,.cls-4,.cls-7{fill:none;stroke:#00b1eb;}.cls-2,.cls-7{stroke-miterlimit:10;}.cls-2,.cls-3,.cls-4{stroke-width:0.7px;}.cls-3,.cls-4{stroke-linejoin:round;}.cls-4{stroke-linecap:round;}.cls-5{fill:#00b1eb;}.cls-6{fill:#fac716;}.cls-7{stroke-width:3px;}</style></defs><title>verification</title><g id="Layer_2" data-name="Layer 2"><g id="Capa_1" data-name="Capa 1"><path class="cls-1" d="M119.27,81.86c-.09-4.82-1.58-6.39-5.34-6.82a90.78,90.78,0,0,0-1.15-11c-2.32-10.64-6.61-16.17-13.1-18.86-5.12-2.12-10.6-1.92-16-1.65-13.53.66-20.91,10-22.22,24.72a68.62,68.62,0,0,0-.16,6.89c-3.72.48-5,1.83-5.36,5.28A16.88,16.88,0,0,0,58.29,91c1.55,2.54,3.81,3.53,4,4.06a41.17,41.17,0,0,0,5.59,13.09A23.55,23.55,0,0,0,87.53,119a22.06,22.06,0,0,0,18.78-10.16,48.28,48.28,0,0,0,6-13.2c.52-1.58.67-1.32,2.28-2.36a9.88,9.88,0,0,0,2.58-2.89A17.1,17.1,0,0,0,119.27,81.86ZM61.81,91C58.9,88,57.68,81.66,59,79.07a1.94,1.94,0,0,1,1.55-1.18c.63.06.58,1,.59,1.48A81.77,81.77,0,0,0,61.81,91ZM111.4,77c.45,19.4-4.57,26.54-4.67,26.46-1.67,3.88-7.34,13.16-18.91,13.16-9.31,0-14.28-3.49-18.73-11.08-3.8-6.46-5.47-13.11-5.41-22.31,0-3.77-.14-7.55,0-11.32A22.3,22.3,0,0,1,69.1,58a2.27,2.27,0,0,1,3-.71c1.91.85,3.62,2.28,5.67,2.64A16.16,16.16,0,0,0,87.26,59c3.78-1.62,6-4.25,8.57-4.23,3.71-.35,8,1.5,11.51,6.82C110.52,66.4,111.34,74.28,111.4,77Zm1.77,14.07a66.5,66.5,0,0,0,.92-12.27c0-1.17.71-1.19,1.37-.66a2.91,2.91,0,0,1,1,1.66C117.05,83.41,116,88.79,113.17,91.09Z"/><path class="cls-1" d="M84.44,96.74a2.69,2.69,0,0,1,1,.11c.29.09.91.5,1.09.54a3.08,3.08,0,0,0,2.26.09c.31-.11.73-.49,1.06-.61a2.92,2.92,0,0,1,1.2-.13,2.88,2.88,0,0,0,3.18-2.6c0-.4.13-1-.61-1.15s-.79.4-.89.73c-.39,1.29-.83,1.44-2,1.16a2.34,2.34,0,0,0-1.76.41,1.83,1.83,0,0,1-2.6,0,2.32,2.32,0,0,0-1.65-.39c-1,.19-1.64,0-2-1.06-.13-.4-.36-.84-1-.69s-.58.8-.49,1.28A2.9,2.9,0,0,0,84.44,96.74Z"/><path class="cls-1" d="M87.77,97.72a3,3,0,0,1-1.25-.26,2.47,2.47,0,0,1-.5-.25,6.21,6.21,0,0,0-.59-.29,2.79,2.79,0,0,0-1-.11h0a2.93,2.93,0,0,1-3.24-2.34c-.1-.55,0-1.23.54-1.36.72-.17,1,.31,1.13.74.35,1.08,1,1.18,1.9,1a2.42,2.42,0,0,1,1.72.41,1.76,1.76,0,0,0,2.5,0,2.44,2.44,0,0,1,1.83-.43c1.08.28,1.47.16,1.85-1.1v0c.1-.33.26-.88,1-.76s.71.71.69,1.1a.49.49,0,0,0,0,.12A2.59,2.59,0,0,1,93.46,96a3.24,3.24,0,0,1-2.4.82,2.93,2.93,0,0,0-1.17.13,2.66,2.66,0,0,0-.5.29,2.73,2.73,0,0,1-.56.32A3.26,3.26,0,0,1,87.77,97.72Zm-3.11-1.07a2.62,2.62,0,0,1,.82.12,3.51,3.51,0,0,1,.61.31,2.65,2.65,0,0,0,.47.23,3.06,3.06,0,0,0,2.23.09,2.49,2.49,0,0,0,.51-.29,2.32,2.32,0,0,1,.54-.31,2.88,2.88,0,0,1,1.23-.14,3.11,3.11,0,0,0,2.28-.78,2.48,2.48,0,0,0,.83-1.74V94c0-.4,0-.85-.55-1s-.7.32-.8.65v0c-.42,1.39-.94,1.49-2,1.21a2.28,2.28,0,0,0-1.69.4,1.91,1.91,0,0,1-2.69,0A2.3,2.3,0,0,0,84.8,95c-1,.19-1.69.07-2.08-1.1-.14-.42-.34-.78-1-.64-.46.1-.51.7-.42,1.18a2.8,2.8,0,0,0,3.08,2.22h.23Z"/><circle class="cls-1" cx="76.44" cy="83.08" r="2.17"/><circle class="cls-1" cx="99.08" cy="83.38" r="2.17"/><path class="cls-1" d="M87.87,106.48a20.69,20.69,0,0,1-8.41-1.56.91.91,0,0,1,.79-1.65c.06,0,6,2.76,14.66.4a.92.92,0,1,1,.48,1.77A28.38,28.38,0,0,1,87.87,106.48Z"/><path class="cls-1" d="M70.21,78.64a.92.92,0,0,1-.83-.52.91.91,0,0,1,.43-1.22c6.88-3.28,12-.91,12.18-.81a.92.92,0,0,1-.79,1.66c-.19-.09-4.56-2.07-10.6.8A.77.77,0,0,1,70.21,78.64Z"/><path class="cls-1" d="M105.08,79.26a.92.92,0,0,1-.39-.09c-6-2.89-10.42-.9-10.6-.81a.92.92,0,0,1-.79-1.66c.21-.1,5.3-2.47,12.18.81a.92.92,0,0,1-.4,1.75Z"/><path class="cls-1" d="M87.89,110.45a25.81,25.81,0,0,1-4-.3.92.92,0,0,1,.29-1.82,23.68,23.68,0,0,0,6.14.16.92.92,0,0,1,.18,1.83A26.41,26.41,0,0,1,87.89,110.45Z"/><polyline class="cls-2" points="77.13 104.52 84.3 108.31 91.4 108.31 98.26 105.04 87.83 102.02 77.13 104.52"/><polyline class="cls-2" points="87.87 80.77 80.49 94 87.9 97.25"/><polyline class="cls-3" points="84.3 108.31 81.29 117.85 94.38 117.85 91.4 108.31"/><polyline class="cls-3" points="88.47 80.96 100.03 85.65 108.8 79.91 100.33 76.11 87.9 80.92 87.9 97.25 94.88 93.8 88.09 80.92"/><polyline class="cls-4" points="96.03 94.03 109.48 93.74 98.26 105.04 95.42 94"/><polyline class="cls-2" points="94.38 117.85 109.38 93.96 108.8 79.91"/><polyline class="cls-3" points="87.36 80.77 75.36 85.13 66.58 79.39 75.98 75.81 87.9 80.92"/><polyline class="cls-4" points="79.88 94.03 65.91 93.22 77.13 104.52 80.49 94"/><polyline class="cls-2" points="81.29 117.85 65.49 92.92 66.58 79.39"/><circle class="cls-5" cx="66.49" cy="79.18" r="1.28"/><circle class="cls-5" cx="87.96" cy="80.7" r="1.28"/><circle class="cls-5" cx="108.51" cy="79.91" r="1.28"/><circle class="cls-5" cx="94.98" cy="93.74" r="1.28"/><circle class="cls-5" cx="87.96" cy="96.8" r="1.28"/><circle class="cls-5" cx="100.22" cy="76.11" r="1.28"/><circle class="cls-5" cx="87.9" cy="66.75" r="1.28"/><circle class="cls-5" cx="75.96" cy="76.11" r="1.28"/><circle class="cls-5" cx="80.49" cy="93.74" r="1.28"/><circle class="cls-5" cx="75.37" cy="85.13" r="1.28"/><circle class="cls-5" cx="100.22" cy="85.4" r="1.28"/><circle class="cls-5" cx="65.91" cy="92.85" r="1.28"/><circle class="cls-5" cx="108.8" cy="93.46" r="1.28"/><circle class="cls-5" cx="98.26" cy="105.04" r="1.28"/><circle class="cls-5" cx="77.4" cy="104.52" r="1.28"/><circle class="cls-5" cx="81.29" cy="117.85" r="1.28"/><circle class="cls-5" cx="94.38" cy="117.85" r="1.28"/><polyline class="cls-3" points="75.96 76.11 87.9 66.75 100.33 76.11"/><path class="cls-6" d="M41.46,135.64H29.94a2.36,2.36,0,0,1-2.36-2.36V120.73h4.73v10.18h9.15Z"/><path class="cls-6" d="M141.73,135.64h-11v-4.73h8.69v-8.46h4.72v10.83A2.36,2.36,0,0,1,141.73,135.64Z"/><path class="cls-6" d="M144.09,41.48h-4.72v-9.9h-8.69V26.86h11a2.36,2.36,0,0,1,2.36,2.36Z"/><path class="cls-6" d="M32.31,40.08H27.58V29.22a2.36,2.36,0,0,1,2.36-2.36H43.06v4.72H32.31Z"/><rect class="cls-7" x="1.5" y="1.5" width="170.41" height="158.67" rx="5.5" ry="5.5"/></g></g></svg>