<svg 
  version="1.1"
  width="" 
  height="95" 
  viewBox="0 0 11 10" 
  fill="none" 
  xmlns="http://www.w3.org/2000/svg"
  enable-background="new 0 0 200 200"
>
  <style type="text/css">

    path{
      fill: #ff;
    }

  `}
  </style>
  <path
  d="M10.0167 4.86533L9.0669 3.7339L8.41388 2.54293L6.87042 2.42386L5.68313 1.41154H5.26757H5.03011L3.96154 0.518311C3.72408 0.577859 3.546 0.577848 3.48663 0.637396C3.30854 0.756493 2.35871 1.05423 2.29934 1.17333C2.18061 1.29242 0.75586 4.50806 0.75586 4.50806L0.577774 6.53268L3.24918 9.39099C4.91139 7.36635 4.91137 7.30681 5.14883 7.12816C5.14883 7.12816 5.14884 7.12816 5.2082 7.12816C5.2082 7.12816 5.2082 7.12816 5.26757 7.12816C5.56439 7.12816 6.63295 7.54501 6.69231 7.54501C6.75168 7.54501 8.59199 6.83043 8.65135 6.77089C8.82945 6.53269 10.0167 5.04396 10.1355 4.92487L10.0167 4.86533Z" 
  fill="white"/>
</svg>
