<svg width="" height="95" viewBox="0 0 80 130" fill="none" xmlns="http://www.w3.org/2000/svg">
<path d="M74.6003 89.7296C76.9749 86.0972 79.587 81.6906 79.7651 80.8569C79.8838 79.6064 76.7968 70.9124 76.2032 69.8405C75.9657 69.4832 75.0753 68.8281 74.4816 68.4113C74.1848 68.2327 73.9473 67.9945 73.7099 67.8754C72.6413 67.0417 71.6915 64.6002 71.5728 64.0643C71.3947 63.3497 71.6915 62.4565 71.9883 61.5632C72.107 61.1464 72.2851 60.67 72.3445 60.3723C72.3445 60.1341 71.9289 59.5981 71.6915 59.3004C71.454 59.0027 71.2166 58.7049 71.0978 58.4072C70.6229 57.4544 70.6229 53.941 70.7416 53.2265C70.9197 52.5714 71.5134 52.095 72.2851 51.5591C72.6413 51.3209 73.1756 50.9041 73.2943 50.7254C73.4131 50.4277 73.413 49.4749 73.413 48.939C73.413 48.403 73.4131 47.9862 73.4724 47.6885C73.5318 47.3907 73.7099 46.9143 74.1254 46.0211C74.4816 45.1279 74.9565 43.9965 75.194 43.1628C75.6095 41.7932 78.1029 30.8958 78.6965 28.4543L73.5318 21.7849C73.3537 21.5467 73.2943 21.3085 73.3537 21.0108L73.9473 16.6042L69.3763 9.04155L50.0828 9.45837C49.786 9.45837 49.4891 9.33929 49.3111 9.1011L47.352 6.83825C45.6898 6.8978 40.2283 6.95735 38.6848 7.0169C36.3696 7.0169 34.1731 5.23045 33.4607 4.63497C32.9858 4.21813 32.5109 3.444 31.7392 2.25303C31.383 1.65755 30.7893 0.704768 30.5519 0.407025C29.602 0.22838 25.3278 0.585674 23.25 0.76432C22.1221 0.823868 21.1723 0.942958 20.5786 0.942958C19.8662 1.00251 19.0945 1.12161 18.3821 1.3598C17.0167 1.71709 16.1856 2.7294 16.0669 2.90805C15.7107 3.56308 15.592 5.88547 15.5326 7.37418C15.4733 8.92244 15.4139 9.93477 15.2358 10.5303C14.8203 12.019 12.98 13.5672 10.9616 15.1155L10.8428 15.2346C10.4273 15.5919 9.77427 16.0683 9.12126 16.5446C8.8838 16.7233 5.61875 19.2243 5.50002 19.403C5.32193 19.8794 5.14383 21.7253 5.08447 22.8568C4.96574 24.1073 4.90638 25.1196 4.78765 25.7747C4.43146 27.3229 3.06608 29.3476 2.65053 29.943C2.59116 30.1217 2.59116 30.7172 2.59116 31.134C2.59116 31.7295 2.59116 32.3845 2.47243 32.98C2.29434 34.1114 1.40387 35.4215 0.57277 36.6125C0.513405 36.672 0.454039 36.7911 0.394674 36.8506C0.33531 38.518 0.869585 49.3558 1.3445 57.514C2.11624 57.633 3.77845 58.2285 7.63715 60.6105C8.46825 61.0869 12.5644 63.6474 12.98 64.5407C13.3955 65.3148 13.0987 66.2676 12.9206 66.9821C12.8612 67.1608 12.8019 67.399 12.8019 67.5181C12.9206 67.6967 13.2768 68.054 13.5142 68.1731C13.6923 68.2327 14.286 68.2327 14.7609 68.1731C14.8203 68.1136 14.8203 68.054 14.8796 68.054C15.0577 67.7563 15.4733 67.2799 16.1263 67.1608C16.6606 67.1013 17.1948 67.2799 17.6698 67.6372C18.6196 68.4113 18.9164 69.9596 18.9758 70.6742C19.2726 76.8672 18.2634 85.3826 17.7885 87.2286C17.4323 88.7769 16.4231 90.206 15.8888 90.8611L17.3729 129.151L49.5485 128.734L49.3704 114.323C49.3704 114.025 49.4891 113.787 49.6672 113.609C49.8453 113.43 50.1422 113.311 50.3796 113.311L60.1154 113.43L74.6003 89.7296Z" fill="white"/>
</svg>
