<svg 
xmlns="http://www.w3.org/2000/svg" 
viewBox="0 0 137.67 145.48"
width="" 
height="95"
>

<defs>
<style>.cls-1{fill:#fff;}
</style>
</defs>
<g id="Capa_2" data-name="Capa 2">
<g id="Capa_1-2" data-name="Capa 1">
<path class="cls-1" d="M114.56,15.52a11.23,11.23,0,0,1-2.47-4.44L101.17,0l-9,2.49-.43,1.77a4.5,4.5,0,0,1-1.18,2.13L63.36,33.6l.88,2.68a4.48,4.48,0,0,1-1.15,4.62l-5.68,5.5a4.53,4.53,0,0,1-4.89.89l-.8-.34L48,51.33,52.68,57a4.49,4.49,0,0,1-.53,6.23l-8,6.93a4.49,4.49,0,0,1-6.11-.2l-.86-.86-8.65,7.8a4.72,4.72,0,0,1-3.27,1.15,4.46,4.46,0,0,1-3.11-1.53l-7.45-8.5-3.58,3L25.88,88.32a4.5,4.5,0,0,1-.58,6.39l-4.13,3.38a4.55,4.55,0,0,1-3.1,1l-5.59-.33-5.65,3.67a4.74,4.74,0,0,1-2.71.72L0,102.91l4.72,4.47a4.49,4.49,0,0,1,.5,6l-3.7,4.94,26.17,27.21,18.16-9.65,2.67-11.23a4.51,4.51,0,0,1,.69-1.53l9.52-13.66,5.34-13.22a4.5,4.5,0,0,1,1.71-2.07L73,89.36,77.4,79.23l4-6.39a4.56,4.56,0,0,1,1.31-1.35l3.62-2.39,1.77-3.4a4.6,4.6,0,0,1,.75-1l3.44-3.58a4.44,4.44,0,0,1,.94-.74l5.31-3.16a4.52,4.52,0,0,1,3.63-.43,4.74,4.74,0,0,1,.69.28,4.48,4.48,0,0,1,2.57-2.37l4.5-1.63,5.59-1.31,1.64-2L120.29,44a4.48,4.48,0,0,1,5.83-1.9L132.21,45l5.46-6.47c-.22-.2-.45-.34-.67-.56Z"/>
</g>
</g>
</svg>