<svg 
xmlns="http://www.w3.org/2000/svg" 
viewBox="0 0 73.01 103.91"
width="" 
height="95"
>
<defs>
<style>
.cls-1{fill:#fff;}
</style>
</defs>
<g id="Capa_2" data-name="Capa 2">
<g id="Capa_1-2" data-name="Capa 1">
<path class="cls-1" d="M70.18,51.39c0-5.3-1.06-9.53-2.12-14.82-3.67-12.49-1.14-22.9,5-31.66L72.91,0l-1.1.46L64,9.22A7,7,0,0,1,57,11.34l-4.15-1a7,7,0,0,1-4.43-3.45H43L34.18,10.5l-7.06,2.3a7.06,7.06,0,0,1-6.78-1.42L17,8.42,5,15.36l.1.09A7,7,0,0,1,7.43,21,7.07,7.07,0,0,1,4.7,26.32L0,30V53.47l7,18.7a7.06,7.06,0,0,1-2.83,8.44L2.45,81.7,12.77,99.6l9.57,4.31c5-1.66,10.07-3.2,15-4.89C64.89,89.49,70.18,80,70.18,51.39Z"/></g></g></svg>