<svg width="" height="95" viewBox="0 0 77 126" fill="none" xmlns="http://www.w3.org/2000/svg">
<path d="M7.00585 99.3438C7.06522 99.7011 7.00585 100.178 6.94649 100.713C6.88712 100.952 6.88712 101.368 6.88712 101.607C7.24331 101.666 7.71823 101.607 7.95568 101.547C9.55853 100.713 10.6271 100.773 11.1614 101.607C11.4582 102.024 11.4582 102.559 11.4582 103.215C11.4582 103.512 11.5176 104.048 11.5769 104.227C11.8737 104.763 13.536 106.49 14.1296 106.847C14.2483 106.906 14.4264 107.026 14.5451 107.085C15.3169 107.502 16.2667 108.038 16.801 108.991C16.9197 109.229 17.2166 109.646 17.5134 110.003C18.2258 111.015 18.7007 111.67 18.7007 112.385V112.623C18.7007 114.41 18.8194 115.065 18.8788 115.362C19.2943 115.779 21.0159 116.911 21.7876 116.97C22.2625 117.03 23.153 116.97 23.8654 116.911C25.0527 116.851 25.765 116.792 26.24 116.911C26.7149 117.03 27.1304 117.268 27.546 117.506C27.7241 117.625 28.0209 117.804 28.199 117.863C28.3177 117.804 28.4958 117.744 28.6145 117.685C29.2082 117.447 29.9799 117.089 30.7517 117.327C31.3453 117.506 31.9983 118.102 32.7107 120.781C32.8294 121.079 33.7199 121.615 34.1948 121.675C34.3135 121.675 34.6697 121.734 35.0259 121.734C36.1538 121.734 37.1037 121.794 37.6973 122.151C38.1129 122.389 38.4691 122.687 38.8252 123.044C38.944 123.104 39.0627 123.223 39.1221 123.342C39.2408 123.282 39.3595 123.163 39.4189 123.104C40.1906 122.568 40.9624 122.032 41.7341 122.449C41.9716 122.568 42.209 122.806 42.6246 123.163C43.0995 123.58 43.8119 124.235 44.2868 124.473C44.7023 124.652 45.7115 124.95 46.7801 125.188C45.7709 109.229 44.643 91.4239 44.643 91.0666C44.643 90.7689 44.7023 90.5307 44.8804 90.352C45.0585 90.1734 45.296 90.0543 45.5928 89.9947L75.6906 88.6847C75.6313 85.7073 75.5719 81.2411 75.5719 80.8243C75.5719 80.0501 75.75 79.3356 75.9874 78.5614C76.2249 77.7873 76.3436 77.1918 76.3436 76.5964C76.3436 75.8818 76.1062 74.0358 75.9281 73.1426C75.8094 72.428 75.8094 70.4629 75.8094 68.3787C75.8094 67.9618 75.8094 67.6641 75.8094 67.4259C75.8094 67.0686 75.8094 66.4136 75.8687 65.699C75.9281 64.8058 75.9874 63.198 75.9281 62.7811C75.6906 62.3047 74.2659 60.6374 73.791 60.1014C73.4941 59.7442 73.3754 59.6251 73.316 59.506C73.0192 59.1487 72.9005 58.5532 72.9005 56.2903V56.1712C72.8411 55.933 72.6037 55.278 72.3662 54.7421C72.1881 54.3848 72.1881 53.968 72.1881 53.5511C72.1881 53.432 72.1881 53.1938 72.1287 53.0747C72.01 52.8365 71.4757 52.3602 71.2977 52.1815C70.5259 51.586 70.4072 49.5018 70.8227 48.6086C71.0008 48.1918 71.2976 47.8345 71.5351 47.4772C71.6538 47.2985 71.8319 47.0603 71.8913 46.9412C71.8319 46.8221 71.7726 46.584 71.7132 46.4649C71.5945 46.1671 71.4164 45.8694 71.357 45.5121C71.2977 45.1548 71.2383 44.4998 71.2383 43.4279C71.2383 42.7729 71.1789 41.9987 71.1789 41.6414C71.0602 41.4628 70.6446 41.1055 69.9323 40.6291C69.7542 40.51 69.6354 40.4505 69.5761 40.3909C69.1012 40.0336 68.092 38.664 67.9139 38.4258C67.7951 38.3067 67.4983 38.1281 67.3202 38.009C67.0234 37.8303 66.7266 37.6517 66.5485 37.473C66.0142 36.9967 65.8955 36.2225 65.8361 35.627C65.8361 35.5079 65.7767 35.3293 65.7767 35.2102C65.7174 35.0911 65.4799 34.972 65.3018 34.8529C65.1831 34.7338 65.005 34.6743 64.8863 34.5552C64.2926 34.0788 63.3428 32.7092 63.1053 32.1732C62.9866 31.8755 62.8679 31.3396 62.6898 30.5059C62.6304 30.089 62.5117 29.6127 62.4523 29.3745C62.4523 29.2554 62.3336 29.0767 62.1555 28.8981C61.8587 28.4812 61.5025 27.9453 61.3244 27.1116C61.0869 26.2184 61.265 24.7892 61.4431 23.4196C61.5025 22.7646 61.6212 22.1691 61.6212 21.7523C61.6806 20.74 61.265 18.358 61.087 17.2861C61.0276 16.9289 60.9682 16.6311 60.9682 16.512C60.9089 16.0356 60.9089 15.4401 60.9089 14.9042C60.9089 14.5469 60.9089 14.1896 60.9089 13.8919C60.9089 13.5346 60.6714 13.1773 60.4933 12.82C60.4339 12.7009 60.3152 12.5223 60.2558 12.4032C59.959 11.8672 60.0184 11.1527 60.0778 10.0808C60.0778 9.84259 60.0778 9.66395 60.1371 9.4853C59.8997 8.88982 58.4155 7.16292 58 6.86517C58 6.86517 57.9406 6.80562 57.8813 6.80562C57.2876 6.56743 56.4565 6.68653 55.8035 6.56743C55.4473 6.50788 55.0911 6.38878 54.6162 6.09103C53.607 5.49555 53.7257 4.18549 53.7851 3.47091C53.6664 3.35181 53.4289 3.17318 53.2508 3.05408L52.7165 2.93498C52.6572 2.93498 52.6572 2.93498 52.3604 2.99453C51.9448 3.11362 51.2324 3.29227 49.8671 3.29227C47.7893 3.29227 46.1271 2.1013 45.2366 1.44627C45.1179 1.32717 44.9398 1.26762 44.8804 1.20808C44.1087 1.08898 40.7843 1.38672 39.8344 1.56537C39.7157 1.74401 39.4783 2.04175 39.3595 2.27994C39.1814 2.63723 38.944 2.93498 38.7065 3.23272C37.9348 4.18549 36.1538 5.07873 34.2542 5.13827C32.4139 5.13827 30.9298 4.54279 30.4548 4.1855C29.7425 3.70911 29.7425 2.75634 29.7425 2.16085C29.5644 2.3395 29.3269 2.45858 29.0895 2.51813C28.2584 2.75632 27.546 2.1013 26.2993 0.55304C26.1212 0.612588 26.0025 0.731681 25.8244 0.79123C24.8152 1.32717 24.1028 1.74401 23.5686 1.86311C22.5594 2.10131 19.3537 1.68445 18.5819 1.6249C18.5819 1.68445 18.5226 1.68446 18.5226 1.74401C18.5226 2.16085 18.4632 3.11362 17.3353 3.88775C16.6823 4.36414 16.0886 4.36413 15.6731 4.36413C15.4356 4.36413 15.1982 4.36414 14.9607 4.42369C14.842 4.66188 14.9013 5.49556 15.1388 6.50788C15.4356 7.5202 15.3763 8.47298 15.0201 9.54485C14.4858 11.0931 13.4172 11.2122 12.9423 11.2718C12.8829 11.3313 12.7642 11.51 12.7048 11.6886C12.3487 12.8796 10.9239 13.2964 10.0928 13.0582C9.61789 12.9391 9.14298 12.5818 8.66806 12.1054C8.66806 12.2245 8.72742 12.2841 8.72742 12.4032C8.78679 12.6414 8.78679 12.8796 8.78679 13.1178C8.78679 14.666 6.5903 15.2019 5.81856 15.3806C5.10619 15.5592 4.27508 15.4401 3.50334 15.202C3.68144 16.8693 3.97826 18.5962 4.57191 20.1445C5.69983 23.1814 7.12458 25.742 7.54013 29.0767C7.71823 30.4463 8.48997 33.0665 10.1522 32.2923C11.3988 31.7564 11.5176 29.9104 13.061 30.5059C14.1296 30.9227 13.6547 33.0069 12.8236 33.662C11.3988 34.8529 11.0426 35.9843 11.102 37.2944C11.2207 39.2 11.6363 41.1055 11.0426 43.0706C10.9239 43.4874 11.2801 44.1425 11.5769 44.4998C12.8829 46.1076 12.5861 47.6558 11.6957 49.3232C9.85535 53.0152 8.07442 56.7667 6.23411 60.4587C5.99666 60.9947 5.64047 61.5306 5.28428 62.007C4.15635 63.3766 3.85953 64.8058 4.15635 66.5922C4.63127 69.4506 4.03763 72.0707 1.95987 74.3335C0.119566 76.3582 0.238295 77.6087 2.43478 79.3951C3.38462 80.1693 3.97826 81.0625 4.09699 82.2535C4.15635 83.3849 4.39381 84.5163 4.15635 85.5882C3.56271 88.1487 3.9189 90.4711 5.16555 92.7935C5.64047 93.6868 5.87793 94.8182 5.93729 95.8305C5.99665 96.426 5.81856 96.9024 5.5811 97.2597C6.47157 98.0933 6.94649 98.8079 7.00585 99.3438Z" fill="white"/>
</svg>
