<svg 
  width="" 
  height="95" 
  viewBox="0 0 133 104" 
  fill="none" 
  xmlns="http://www.w3.org/2000/svg"
>

  <path d="M10.1856 80.7127C14.8161 81.07 42.9549 79.6409 43.2517 79.6409C43.6079 79.6409 43.9047 79.76 44.1422 80.0577C44.3202 80.3555 44.3796 80.7127 44.2609 81.0105C44.0234 81.7251 43.9047 82.7969 44.2015 82.9756C44.5577 83.2138 44.7358 83.2138 44.9139 83.2733C45.4482 83.3924 46.0418 83.5711 46.4574 84.6429C46.9323 86.0126 46.9916 88.5136 45.2701 90.0619C43.9641 91.2528 42.658 91.4315 41.6488 91.5506C41.4707 91.5506 41.352 91.6101 41.2333 91.6101C41.0552 91.9079 40.9365 92.9797 41.1146 93.4561C41.6488 94.7662 42.2425 95.5999 42.5393 95.8381C43.786 96.6717 44.3202 98.2795 44.439 98.6964C44.4983 98.875 44.5577 99.1132 44.6171 99.3514C44.7952 99.8873 45.1514 101.197 45.3294 101.495C45.8044 102.031 47.1104 103.163 48.0602 103.103C49.1288 103.103 50.4348 102.15 50.6129 101.852L50.7316 101.674C51.3253 100.721 51.8595 100.006 52.5719 99.8278C54.1154 99.4705 54.709 99.7087 55.0652 99.9469C55.1246 100.006 55.2433 100.126 55.4214 100.245C55.6589 100.483 57.0243 101.555 58.6271 102.329C60.7049 103.282 61.5953 103.163 61.8328 103.163C61.8922 103.163 62.0109 103.163 62.0702 103.163C62.1296 103.163 62.189 103.163 62.2483 103.163C62.2483 103.103 62.2483 103.043 62.2483 102.984C62.2483 102.388 62.1296 102.031 61.9515 101.614C61.8328 101.197 61.6547 100.721 61.6547 100.185C61.6547 98.1604 64.3261 98.1604 65.3947 98.1009C65.5728 98.1009 65.8696 98.1009 66.2258 98.1009C68.3629 98.0413 70.7375 98.0413 71.6873 98.1604C72.6371 98.2795 74.4181 98.4582 75.2492 100.423C75.6647 101.316 76.5552 101.257 76.6739 101.257C76.852 101.257 77.0895 101.138 77.3269 101.078C77.8018 100.9 78.3955 100.721 79.0485 100.84C79.5828 100.9 79.9983 101.257 80.3545 101.555C80.8294 101.912 81.1263 102.15 81.4231 102.091C81.6012 102.031 81.6606 101.972 81.898 101.495C82.0761 101.078 82.4323 100.423 83.204 100.304C83.4415 100.245 83.7383 100.304 84.0945 100.304C84.6288 100.304 85.6973 100.364 86.1723 100.126C86.5878 99.8873 87.0034 98.9941 87.3596 97.9222C88.7843 94.8257 91.3963 88.9304 93.1773 84.762C93.296 84.5238 93.4741 84.2857 93.7709 84.2261C94.0084 84.107 94.3052 84.1665 94.5427 84.2857L99.2918 86.608L108.018 86.4889H109.799L132.002 58.918L131.408 10.4456C130.28 10.1479 129.33 10.1479 128.737 9.67148C126.065 7.40864 123.038 5.32445 122.919 1.27515C122.919 1.15606 122.741 1.03696 122.622 0.798767C114.667 0.917864 106.653 0.977412 98.2826 1.09651C99.0544 4.01438 95.7299 4.96716 95.6112 7.52774C95.6112 7.76593 95.0176 7.94458 94.7207 8.12322C93.5928 8.8378 92.9398 9.79058 93.2366 11.1602C93.4741 12.5894 93.1179 13.8399 92.5243 15.0904C91.99 16.3409 91.6338 17.651 91.0995 18.9015C90.9214 19.3183 90.5652 19.7352 90.3278 20.152C89.0811 19.3183 89.2592 18.306 89.4967 17.2341C90.0309 14.6735 89.1999 12.6489 86.944 11.3388C85.8754 10.7434 85.5192 9.96922 85.5192 8.77826C85.5192 8.12322 85.2818 7.28955 84.8069 6.75361C83.7977 5.56264 82.6697 4.55032 81.245 3.12116C80.8888 3.12116 80.0577 3.12116 79.286 3.12116C76.3177 3.1807 73.3495 3.1807 70.3813 3.24025C70.5 4.90761 70.6187 7.23 70.4407 8.48051C70.2626 10.0288 69.4314 11.4579 68.8378 12.4107C68.7191 12.6489 68.541 12.8871 68.4816 13.0062C68.3629 14.1376 69.1346 20.5688 69.7876 21.7598C70.3219 22.7126 71.0937 22.8912 72.459 22.9508C74.4181 23.0103 75.9022 24.1417 76.0209 25.8687C76.0209 25.9877 76.0209 26.1664 76.0803 26.2855C76.199 27.1787 76.2584 28.191 75.6647 28.9652C75.4273 29.2629 75.1898 29.5011 74.9523 29.6202C74.6555 29.8584 74.6555 29.8584 74.6555 29.9775C74.6555 30.2157 75.2492 30.8112 76.0209 31.228C76.4365 31.4067 77.6238 32.0617 77.6238 33.4908C77.6831 36.4683 78.0393 38.1356 78.3361 38.5525C78.5142 38.5525 78.5736 38.4929 78.633 38.4929C78.6923 38.4334 78.7517 38.2547 78.7517 37.5401C78.6923 35.7537 79.6422 34.8009 81.4825 34.8009C83.204 34.8009 84.0945 36.1705 84.8069 37.3615C85.4005 38.2547 85.8161 38.9098 86.2316 38.8502C86.944 38.8502 87.4189 38.4334 88.0719 37.7188C88.7249 37.0638 89.4373 36.3492 90.5059 36.2896C92.7024 36.2896 94.9582 37.4806 95.0769 37.5401C95.3738 37.7188 95.6112 38.0165 95.6112 38.3738L96.4423 55.3451C96.4423 55.6429 96.383 55.8811 96.1455 56.0597C95.9674 56.2383 95.7299 56.3574 95.4331 56.3574C94.3646 56.417 93.3554 57.8462 92.643 58.8585C92.2868 59.3944 91.99 59.8113 91.6932 60.0494C90.5059 61.0618 89.4373 60.8831 88.4875 60.6449C87.597 60.4067 86.944 60.5258 86.7659 60.6449C86.6472 60.8831 86.7065 61.7168 86.7065 62.1336C86.7065 62.6696 86.7065 63.2055 86.6472 63.6223C86.4691 64.5751 86.0535 65.8256 84.2132 65.8256C82.7885 65.8256 81.4825 64.8729 81.0075 63.5033C80.7701 62.7887 80.4139 62.3718 80.2358 62.3123C80.1764 62.3123 80.1764 62.3123 80.1171 62.3123C80.0577 62.3123 79.9983 62.3123 79.939 62.3123C79.8796 62.3718 79.7609 62.5505 79.5234 63.0269C78.633 64.9324 76.9114 64.9324 75.7241 64.9324H75.546C73.7651 64.9324 72.9933 63.6819 72.9933 62.4314C72.9933 62.3718 72.934 62.1336 72.6965 62.0741C72.5778 62.1336 72.3997 62.3718 72.2809 62.4909C71.9248 62.9078 71.4498 63.4437 70.6781 63.5033C69.6095 63.5033 68.1254 62.4909 67.5911 62.0145C67.1756 61.6573 66.1664 61.3 65.8696 61.3C65.8102 61.3 65.5134 61.4191 65.3353 61.4786C64.8604 61.6573 64.3261 61.8359 63.7325 61.7763C62.7233 61.7168 61.9515 60.8831 61.7141 60.5854C61.2391 59.9899 61.0017 59.2753 61.061 58.6798C61.1204 58.263 60.9423 57.608 60.6455 57.3102C59.8144 56.5361 59.6957 55.6429 59.6957 54.7496C59.6957 54.4519 59.3988 54.2733 59.3988 54.2137C58.449 53.7969 57.9741 52.6059 57.9741 52.4272C57.796 52.0104 57.9147 51.4745 58.0335 50.8194C58.0928 50.5217 58.2116 49.9262 58.1522 49.7476C58.0928 49.3903 57.5585 48.7352 57.3211 48.4971C57.2024 48.4971 57.0243 48.5566 56.9055 48.5566C56.5493 48.6161 56.1338 48.6757 55.7182 48.6161C54.8871 48.378 53.6405 47.2465 53.3437 46.6511C53.1062 46.2342 53.1062 45.6983 53.1062 45.2219C53.1062 44.9241 53.1062 44.686 53.0468 44.4478C52.9281 44.2691 52.4532 43.9714 52.1564 43.7927C51.6814 43.495 51.2065 43.1972 50.791 42.7804C49.9599 41.9467 50.138 40.3389 50.3161 38.4929C50.3754 37.7783 50.4942 36.8256 50.4348 36.5278C50.1973 36.111 48.6539 35.3368 47.9415 35.0391C47.4666 34.8009 46.9916 34.5627 46.6355 34.3841C45.5669 33.729 44.7952 33.5504 43.3704 34.0863C42.5393 34.3841 42.4206 35.575 42.3612 37.0042C42.3612 37.3019 42.3612 37.5997 42.3018 37.8379C42.4799 38.0761 43.133 38.4929 43.4891 38.7907C44.2609 39.3266 45.0326 39.803 45.3294 40.5771C45.8637 42.0063 45.092 45.1623 44.6171 46.1151C44.4983 46.4724 44.6764 47.7229 44.7952 48.4971C45.0326 50.3431 45.1513 51.3554 44.6764 52.0104C43.9641 53.0227 42.8955 52.725 42.4206 52.6059C42.3612 52.6059 42.3019 52.5463 42.2425 52.5463C42.2425 52.6654 42.1831 52.8441 42.1831 52.9632C42.1831 53.0227 42.1831 53.1418 42.1831 53.2014C42.0644 54.4519 41.1146 55.2856 39.7492 55.4642C38.3244 55.6429 37.1371 54.9283 36.8403 53.6778C36.7216 53.6778 36.4841 53.6778 36.306 53.6778H36.2467C35.0594 53.6778 34.1689 53.0823 33.4565 52.4868C32.7442 51.8913 32.6848 51.0576 32.6254 50.4622C32.6254 50.224 32.5661 49.8667 32.5067 49.8071C32.388 49.6285 32.388 49.6285 31.8537 49.5689C31.6162 49.5094 31.3194 49.5094 30.9039 49.3903C29.954 49.2116 29.301 48.5566 28.5293 47.9016C28.0544 47.4847 27.5794 47.0083 26.9264 46.5915C26.5702 46.3533 26.2734 46.1151 25.9766 45.8174C25.7985 46.6511 25.6204 47.5443 25.4423 48.378C24.908 50.9385 23.7207 52.3082 21.2868 53.3205C16.8345 55.1665 12.5008 57.1316 8.34533 59.3349C3.83363 61.7764 1.34032 65.8256 0.568577 70.8873C0.271754 72.6737 0.509214 73.1501 1.93396 73.7456C3.23998 74.3411 4.36791 75.2938 4.48664 76.6635C4.48664 76.9612 4.48664 77.1994 4.42727 77.4376C5.43647 78.6881 7.3955 80.5341 10.1856 80.7127Z" fill="white"/>

</svg>
