<svg width="" height="95" viewBox="0 0 77 147" fill="none" xmlns="http://www.w3.org/2000/svg">
<path d="M13.9063 49.2469L13.2533 53.8917L18.4774 60.6207C18.6555 60.8589 18.7149 61.1566 18.6555 61.4544C18.5368 61.9903 15.5092 75.1505 15.0343 76.6987C14.7374 77.6515 14.2625 78.8425 13.847 79.7953C13.6095 80.2716 13.3721 80.9267 13.3127 81.1053C13.3127 81.2244 13.3127 81.6413 13.3127 81.8794C13.3127 82.7727 13.3127 83.785 13.0159 84.4996C12.719 85.1546 12.0067 85.6906 11.3537 86.1669C11.1162 86.3456 10.76 86.5838 10.6413 86.7029C10.5819 87.4175 10.6413 89.9185 10.8194 90.4544C10.8787 90.5735 11.0568 90.8117 11.2349 90.9903C11.7692 91.6454 12.4222 92.5386 12.3035 93.5509C12.2441 94.0273 12.066 94.5633 11.8879 95.1587C11.7692 95.5756 11.5318 96.2902 11.5318 96.5284C11.7098 97.2429 12.5409 98.9103 12.9565 99.208C13.1346 99.3271 13.3721 99.5058 13.6689 99.6844C14.5 100.28 15.5092 100.935 15.9247 101.709C16.3403 102.424 20.199 112.249 19.7834 114.214C19.4866 115.762 15.5092 121.896 14.3219 123.802L0.430573 146.609L20.4958 146.906C35.4557 129.22 35.6338 129.042 35.7525 128.982C36.168 128.625 36.8804 128.446 37.4147 128.446C37.5334 128.446 37.6522 128.446 37.8896 128.446C38.7801 128.446 39.5518 128.387 39.908 128.446C40.0861 128.446 40.5017 128.506 42.9356 129.756L46.913 124.337C46.5569 124.04 46.2006 123.742 45.8445 123.385C45.4289 123.027 45.0134 122.67 44.8946 122.551C44.301 122.134 43.5293 121.181 42.4607 119.812C42.2232 119.514 41.9858 119.157 41.7483 118.859C40.8578 117.728 39.6706 115.048 38.6614 112.666C38.4239 112.13 38.1864 111.594 38.0084 111.177C37.1179 109.212 36.9992 106.532 36.8804 105.103C36.8804 104.806 36.8211 104.508 36.8211 104.389C36.7023 103.079 38.4833 98.553 38.6614 98.1362C38.7801 97.7789 38.7207 96.1711 38.4833 94.2655C38.4239 93.67 38.1271 93.015 37.8302 92.36C37.5928 91.824 37.4147 91.3476 37.296 90.8713C37.0585 89.9185 37.5334 88.3107 38.0677 86.4647C38.1864 86.1074 38.3052 85.7501 38.3052 85.5715C38.602 84.3209 39.4925 83.5468 40.9172 83.4277C41.7483 83.3682 42.4607 83.785 43.0543 84.1423C43.5293 84.44 44.0635 84.7378 44.4791 84.7378C45.4289 84.7378 45.9632 84.5591 47.2099 83.2491C48.3378 82.0581 52.1965 74.9718 52.9682 73.5427C53.3244 72.8876 55.699 69.4338 56.9456 68.0642C58.1329 66.7541 60.1513 63.2408 60.3888 62.3476C60.5075 61.6925 60.9824 52.1648 60.9824 52.0457C60.9231 51.3907 61.2793 50.4974 61.9916 48.5919C62.2291 47.9964 62.5259 47.2223 62.5853 46.9245C62.5259 46.7459 62.2885 46.2695 62.1104 46.0313C61.7542 45.3763 61.398 44.7808 61.398 44.1853C61.398 43.7089 61.6948 42.8752 62.4665 40.7911C62.8821 39.7192 63.4757 38.0518 63.5351 37.635C63.5351 37.3373 63.1196 36.2654 62.8821 35.6699C62.4665 34.5385 62.2291 33.8834 62.2291 33.4071C62.2291 32.3947 63.7726 28.5836 64.1288 28.0477C64.3662 27.6309 64.9599 27.2736 66.5033 26.3208C67.0376 25.9635 67.8687 25.4871 68.1062 25.2489C68.5217 24.5939 69.5309 21.0805 69.9465 19.5918C70.3027 18.3413 70.4214 17.9245 70.5401 17.7458C70.7182 17.2694 71.1931 16.8526 72.4398 15.8998C72.796 15.6021 73.3303 15.1852 73.5677 14.947C73.6271 13.7561 73.1522 8.99221 72.9741 7.32485C72.8553 6.25298 72.8553 6.01478 72.8553 5.89568C72.8553 5.1811 73.3896 4.64518 74.9331 3.33511C75.0518 3.21601 75.2299 3.09691 75.2893 2.97782C75.7048 2.62053 76.061 1.7273 76.2985 1.19136C76.2985 1.13182 66.2985 1.13182 66.3579 1.07227L20.7333 0.000396729L13.9063 49.2469Z" fill="white"/>
</svg>
